<svg width="70" height="70" viewBox="0 0 70 70" fill="none" xmlns="http://www.w3.org/2000/svg">
<path d="M35 70C28.0777 70 21.3108 67.9473 15.5551 64.1014C9.79933 60.2556 5.3133 54.7893 2.66423 48.3939C0.0151651 41.9985 -0.677952 34.9612 0.672531 28.1718C2.02301 21.3825 5.35644 15.1461 10.2513 10.2513C15.1461 5.35644 21.3825 2.02301 28.1718 0.672531C34.9612 -0.677952 41.9985 0.0151651 48.3939 2.66423C54.7893 5.3133 60.2556 9.79933 64.1014 15.5551C67.9473 21.3108 70 28.0777 70 35C69.9894 44.2793 66.2985 53.1756 59.737 59.737C53.1756 66.2985 44.2793 69.9894 35 70ZM35 2.00002C28.4732 2.00002 22.093 3.93543 16.6662 7.56152C11.2394 11.1876 7.00968 16.3415 4.51199 22.3715C2.0143 28.4014 1.36079 35.0366 2.6341 41.438C3.90741 47.8394 7.05036 53.7194 11.6655 58.3345C16.2806 62.9497 22.1607 66.0926 28.562 67.3659C34.9634 68.6392 41.5986 67.9857 47.6286 65.488C53.6585 62.9903 58.8124 58.7606 62.4385 53.3338C66.0646 47.907 68 41.5268 68 35C67.9899 26.251 64.5099 17.8631 58.3234 11.6766C52.1369 5.49008 43.7491 2.01007 35 2.00002Z" fill="#C28565"/>
<path d="M33.721 49.1739C29.2357 49.0135 24.8591 47.7495 20.979 45.4939C20.8615 45.4222 20.7601 45.327 20.6811 45.2143C20.6022 45.1016 20.5473 44.9738 20.52 44.8389C17 27.4649 29.237 23.9049 39.075 21.0439C44.485 19.4699 49.158 18.1109 50.022 14.8929C50.0844 14.6614 50.2279 14.4601 50.4264 14.3255C50.6249 14.191 50.8651 14.1323 51.1032 14.16C51.3414 14.1878 51.5616 14.3002 51.7238 14.4767C51.886 14.6533 51.9794 14.8823 51.987 15.1219C52.018 16.1219 52.618 39.7319 42.476 46.6029C39.8862 48.3286 36.8326 49.2253 33.721 49.1739ZM22.393 43.9999C24.393 45.0999 34.054 49.8929 41.354 44.9479C48.454 40.1359 49.746 25.2719 49.959 18.5479C47.616 20.6479 43.705 21.7829 39.633 22.9669C30.2 25.7069 19.527 28.8119 22.393 43.9999Z" fill="#C28565"/>
<path d="M18.2511 55.0439C17.5933 51.2373 18.4465 47.3243 20.6291 44.1369C23.3661 38.0889 28.6981 36.3239 32.9871 34.9049C36.1651 33.8529 38.9101 32.9449 39.8561 30.6489L41.7051 31.4109C40.4051 34.5559 37.1051 35.6469 33.6151 36.8039C29.4731 38.1739 24.7771 39.7279 22.4151 45.0459C22.3844 45.1146 22.3461 45.1797 22.3011 45.2399C20.4279 47.9948 19.6807 51.3624 20.2131 54.6509L18.2511 55.0439Z" fill="#C28565"/>
</svg>
