<svg width="50" height="70" viewBox="0 0 50 70" fill="none" xmlns="http://www.w3.org/2000/svg">
<path d="M46.9697 50.1475C46.317 46.8468 43.9368 45.4944 42.5764 44.9819C42.554 44.9737 42.5316 44.966 42.5087 44.9592C42.245 44.8807 34.8162 42.6688 33.9413 42.4084L31.2698 40.5848V38.9007C35.5779 36.6273 38.4885 32.0753 38.4885 26.8464V26.657C40.6999 26.2446 42.3644 24.5148 42.3644 22.4491C42.3644 21.3275 41.8732 20.305 41.0705 19.5385V10.6925C41.0705 5.7816 36.6661 2.02429 31.8449 2.88412C25.2958 -2.07084 15.8732 -0.503634 11.3037 6.5274C10.9959 7.00113 11.1268 7.63687 11.596 7.94777C12.0652 8.25839 12.695 8.12619 13.0031 7.65273C15.2824 4.14521 19.1201 2.05136 23.2686 2.05136C26.0974 2.05136 28.7555 2.99636 30.9557 4.78396C31.2016 4.98384 31.5262 5.05699 31.8328 4.98166C35.5187 4.07754 39.0385 6.90638 39.0385 10.6925V18.3746C38.8352 18.3141 38.6261 18.2644 38.4118 18.2276C38.26 17.5516 37.8629 16.9656 37.5637 16.7298L33.3392 13.4098C32.2996 12.5929 30.9591 12.4736 30.0666 12.883C19.8315 16.8767 13.6973 16.8767 13.3928 16.9208C12.6287 16.9946 11.8758 17.4497 11.6325 18.2267C11.4164 18.2636 11.2052 18.3134 11.0001 18.3745C11.0568 15.0673 10.8377 13.8048 11.2931 11.7364C11.4147 11.1835 11.0696 10.6355 10.5217 10.5127C9.97386 10.3896 9.431 10.7383 9.3095 11.2914C8.77435 13.7221 9.03766 15.1619 8.96804 19.5381C8.16552 20.3045 7.6744 21.3269 7.6744 22.4486C7.6744 24.5142 9.33889 26.244 11.5502 26.6565V26.6672C11.5502 31.6768 14.2703 36.4099 18.7326 38.8409V40.6003L16.1025 42.3955C15.8948 42.4575 7.49087 44.9575 7.42585 44.9816C6.0653 45.494 3.68538 46.8466 3.03239 50.1476L0.0712708 65.1563C0.0676138 65.1749 0.0643631 65.1935 0.0617896 65.2122C-0.32992 68.0005 1.15227 70 4.18111 70H15.0062C15.5675 70 16.0223 69.5409 16.0223 68.9743C16.0223 68.4078 15.5675 67.9487 15.0062 67.9487H11.3451V58.2817C11.3451 57.7151 10.8903 57.256 10.329 57.256C9.76772 57.256 9.31289 57.7151 9.31289 58.2817V67.9487H4.18084C2.79428 67.9487 2.04499 67.4784 2.03443 66.0788C2.02874 65.3811 1.99853 66.0759 5.02453 50.549C5.4795 48.2489 7.13424 47.288 8.10363 46.916C8.44955 46.8131 15.7355 44.6436 15.8864 44.5988L17.7491 49.8682C18.1148 50.9022 19.1567 51.392 20.089 51.1965L23.2775 54.0202C24.2554 54.8864 25.7373 54.8937 26.7239 54.0244L29.9336 51.1961C30.8917 51.3975 31.9179 50.8795 32.2753 49.868L34.1359 44.6051C35.0916 44.8896 39.8082 46.2939 41.8977 46.916C42.8669 47.2882 44.5217 48.2487 44.9766 50.5486C48.0534 66.3358 47.9944 65.4391 47.9644 66.1867C47.9158 67.4216 47.2746 67.9485 45.8206 67.9485H40.725V58.2817C40.725 57.7151 40.2702 57.256 39.7089 57.256C39.1476 57.256 38.6928 57.7151 38.6928 58.2817V67.9487H19.7482C19.1869 67.9487 18.7321 68.4078 18.7321 68.9743C18.7321 69.5409 19.1869 70 19.7482 70H45.8207C48.331 70 49.9764 68.6059 49.9994 66.0946C50.0022 65.6961 50.0802 66.096 46.9697 50.1475ZM38.4885 20.3454C40.9485 21.0834 40.9366 23.8185 38.4885 24.5528V20.3454ZM11.5498 24.5528C9.09699 23.817 9.09496 21.0821 11.5498 20.3454V24.5528ZM13.582 26.6676C13.582 25.7491 13.582 19.9454 13.582 18.9657C13.5956 18.9632 21.024 18.7435 30.8018 14.7956L30.8805 14.7647C31.0777 14.7 31.5592 14.611 32.0907 15.0286L36.2563 18.3023C36.545 18.6584 36.4564 18.415 36.4564 26.8464C36.4564 31.4076 33.847 35.3595 30.0242 37.2329C29.7795 37.2798 25.741 39.4323 21.0259 37.651C16.5851 35.9434 13.582 31.535 13.582 26.6676ZM29.2375 39.7658V40.9235L26.6459 47.1755L23.3879 47.1756C22.7531 45.6501 20.6298 40.5462 20.7643 40.8677V39.7364C23.569 40.695 26.5628 40.6503 29.2375 39.7658ZM19.6787 49.1879C19.6503 49.1865 19.7453 49.3832 17.7444 43.7511L19.3129 42.6806C19.8748 44.0366 21.1889 47.2065 21.4581 47.856L19.6787 49.1879ZM25.3878 52.4791C25.1683 52.6727 24.8372 52.6724 24.6182 52.4783L21.9073 50.0778L23.0501 49.2267H26.9867L28.1177 50.0737L25.3878 52.4791ZM30.3597 49.1836C30.3416 49.202 30.3737 49.1981 28.5671 47.856C29.3669 45.9263 30.2794 43.7249 30.7123 42.6806L32.2806 43.7511L30.3597 49.1836Z" fill="#C28565"/>
</svg>
