<svg width="30" height="30" viewBox="0 0 30 30" fill="none" xmlns="http://www.w3.org/2000/svg">
<g clip-path="url(#clip0_93_656)">
<path d="M27.9877 25.4497C27.8998 25.3619 27.7806 25.3125 27.6563 25.3125C27.532 25.3125 27.4128 25.3619 27.3249 25.4497L27.1875 25.5871L25.2722 23.6718L25.644 23.3001C25.7318 23.2122 25.7812 23.0929 25.7812 22.9687C25.7812 22.8444 25.7318 22.7251 25.644 22.6372L21.3465 18.3397C23.1935 17.8394 24.8956 16.9084 26.3134 15.6231C27.7311 14.3379 28.8241 12.7349 29.5027 10.9457C29.5293 10.8747 29.5383 10.7983 29.5289 10.723C29.5195 10.6477 29.492 10.5759 29.4487 10.5136C29.4054 10.4513 29.3477 10.4005 29.2804 10.3655C29.2131 10.3304 29.1384 10.3122 29.0625 10.3124C28.2321 10.3147 27.4095 10.1523 26.6423 9.83444C25.8751 9.51661 25.1785 9.04973 24.593 8.46084L21.6479 5.51615C21.3453 5.21497 21.0008 4.95905 20.625 4.75631V3.7499H21.5625C21.6552 3.74988 21.7459 3.72238 21.8229 3.67087C21.9 3.61936 21.9601 3.54616 21.9955 3.46052C22.031 3.37488 22.0403 3.28064 22.0222 3.18973C22.0041 3.09881 21.9595 3.0153 21.894 2.94974L19.5502 0.605994C19.4623 0.518117 19.3431 0.46875 19.2188 0.46875C19.0945 0.46875 18.9753 0.518117 18.8874 0.605994L16.5436 2.94974C16.4781 3.0153 16.4335 3.09881 16.4154 3.18973C16.3973 3.28064 16.4066 3.37488 16.4421 3.46052C16.4775 3.54616 16.5376 3.61936 16.6147 3.67087C16.6917 3.72238 16.7824 3.74988 16.875 3.7499H17.8125V4.27631C16.8924 4.4233 16.0423 4.85723 15.3835 5.51615L15 5.89959L14.6166 5.51615C13.9578 4.85723 13.1077 4.4233 12.1875 4.27631V3.7499H13.125C13.2177 3.74988 13.3084 3.72238 13.3854 3.67087C13.4625 3.61936 13.5226 3.54616 13.558 3.46052C13.5935 3.37488 13.6028 3.28064 13.5847 3.18973C13.5666 3.09881 13.522 3.0153 13.4565 2.94974L11.1127 0.605994C11.0248 0.518117 10.9056 0.46875 10.7813 0.46875C10.657 0.46875 10.5378 0.518117 10.4499 0.605994L8.10614 2.94974C8.04061 3.0153 7.99598 3.09881 7.9779 3.18973C7.95982 3.28064 7.9691 3.37488 8.00458 3.46052C8.04005 3.54616 8.10011 3.61936 8.17718 3.67087C8.25425 3.72238 8.34485 3.74988 8.43755 3.7499H9.37505V4.75631C8.99932 4.95905 8.65483 5.21497 8.35224 5.51615L5.40708 8.46084C4.82157 9.04973 4.12504 9.51661 3.35783 9.83444C2.59062 10.1523 1.76798 10.3147 0.937549 10.3124C0.861788 10.3124 0.787145 10.3307 0.720011 10.3658C0.652878 10.4009 0.595256 10.4518 0.552079 10.514C0.508903 10.5763 0.481459 10.6481 0.472098 10.7232C0.462737 10.7984 0.471738 10.8747 0.49833 10.9457C1.2183 12.8533 2.41016 14.5473 3.96253 15.8694C5.51489 17.1914 7.37707 18.0982 9.37505 18.5052V19.6874H8.43755C8.34485 19.6874 8.25425 19.7149 8.17718 19.7664C8.10011 19.8179 8.04005 19.8911 8.00458 19.9768C7.9691 20.0624 7.95982 20.1567 7.9779 20.2476C7.99598 20.3385 8.04061 20.422 8.10614 20.4876L10.4499 22.8313C10.5378 22.9192 10.657 22.9685 10.7813 22.9685C10.9056 22.9685 11.0248 22.9192 11.1127 22.8313L13.4565 20.4876C13.522 20.422 13.5666 20.3385 13.5847 20.2476C13.6028 20.1567 13.5935 20.0624 13.558 19.9768C13.5226 19.8911 13.4625 19.8179 13.3854 19.7664C13.3084 19.7149 13.2177 19.6874 13.125 19.6874H12.1875V18.7499H15.9375V19.6874C15.9376 19.8117 15.987 19.9309 16.0749 20.0188L22.1686 26.1126C22.2565 26.2004 22.3758 26.2498 22.5 26.2498C22.6243 26.2498 22.7436 26.2004 22.8315 26.1126L23.2032 25.7408L25.1185 27.6562L24.9811 27.7935C24.8933 27.8814 24.8439 28.0006 24.8439 28.1249C24.8439 28.2492 24.8933 28.3684 24.9811 28.4563L26.3874 29.8626C26.4753 29.9504 26.5945 29.9998 26.7188 29.9998C26.8431 29.9998 26.9623 29.9504 27.0502 29.8626L29.394 27.5188C29.4818 27.4309 29.5312 27.3117 29.5312 27.1874C29.5312 27.0631 29.4818 26.9439 29.394 26.856L27.9877 25.4497ZM19.2188 1.60021L20.431 2.8124H20.1563C20.032 2.8124 19.9128 2.86179 19.8248 2.94969C19.7369 3.0376 19.6875 3.15683 19.6875 3.28115V5.6249H18.75V3.28115C18.75 3.15683 18.7007 3.0376 18.6128 2.94969C18.5248 2.86179 18.4056 2.8124 18.2813 2.8124H18.0066L19.2188 1.60021ZM10.7813 1.60021L11.9935 2.8124H11.7188C11.5945 2.8124 11.4753 2.86179 11.3873 2.94969C11.2994 3.0376 11.25 3.15683 11.25 3.28115V5.6249H10.3125V3.28115C10.3125 3.15683 10.2632 3.0376 10.1753 2.94969C10.0873 2.86179 9.96812 2.8124 9.8438 2.8124H9.56911L10.7813 1.60021ZM6.06989 9.12365L9.01505 6.17896C9.12828 6.07097 9.24855 5.97059 9.37505 5.87849V6.09365C9.37505 6.21797 9.42443 6.3372 9.51234 6.42511C9.60025 6.51301 9.71948 6.5624 9.8438 6.5624H11.7188C11.8431 6.5624 11.9623 6.51301 12.0503 6.42511C12.1382 6.3372 12.1875 6.21797 12.1875 6.09365V5.23115C12.8564 5.36731 13.4706 5.69688 13.9538 6.17896L14.6686 6.89381C14.7565 6.98168 14.8758 7.03105 15 7.03105C15.1243 7.03105 15.2436 6.98168 15.3315 6.89381L16.0463 6.17896C16.5295 5.69688 17.1437 5.36731 17.8125 5.23115V6.09365C17.8125 6.21797 17.8619 6.3372 17.9498 6.42511C18.0378 6.51301 18.157 6.5624 18.2813 6.5624H20.1563C20.2806 6.5624 20.3998 6.51301 20.4878 6.42511C20.5757 6.3372 20.625 6.21797 20.625 6.09365V5.87849C20.7516 5.97059 20.8718 6.07097 20.9851 6.17896L23.9302 9.12365C25.0287 10.2261 26.455 10.9427 27.9952 11.166C27.1004 11.9804 25.9705 12.4902 24.7678 12.622C23.565 12.7539 22.3515 12.5012 21.3015 11.9001C20.0179 11.1675 18.5657 10.7819 17.0879 10.7811H12.9122C11.4344 10.7819 9.98219 11.1675 8.69864 11.9001C7.64861 12.5012 6.43505 12.7539 5.23234 12.622C4.02963 12.4902 2.89969 11.9804 2.00489 11.166C3.54511 10.9427 4.97143 10.2261 6.06989 9.12365ZM10.7813 21.8371L9.56911 20.6249H9.8438C9.96812 20.6249 10.0873 20.5755 10.1753 20.4876C10.2632 20.3997 10.3125 20.2805 10.3125 20.1562V17.8124H11.25V20.1562C11.25 20.2805 11.2994 20.3997 11.3873 20.4876C11.4753 20.5755 11.5945 20.6249 11.7188 20.6249H11.9935L10.7813 21.8371ZM12.1875 17.8124V17.3437C12.1875 17.2193 12.1382 17.1001 12.0503 17.0122C11.9623 16.9243 11.8431 16.8749 11.7188 16.8749H9.8438C9.71948 16.8749 9.60025 16.9243 9.51234 17.0122C9.42443 17.1001 9.37505 17.2193 9.37505 17.3437V17.5499C7.93749 17.2306 6.57764 16.629 5.37436 15.7801C4.17108 14.9312 3.1483 13.8518 2.36536 12.6046C3.38389 13.2319 4.55266 13.5732 5.74874 13.5925C6.94482 13.6118 8.12399 13.3084 9.16224 12.7143C10.3044 12.062 11.5969 11.7189 12.9122 11.7186H17.0879C18.4032 11.7189 19.6957 12.062 20.8379 12.7143C21.8751 13.3081 23.0531 13.6118 24.2481 13.5933C25.4432 13.5748 26.6112 13.2349 27.6296 12.6093C26.8398 13.8618 25.8087 14.9446 24.5963 15.7948C23.3839 16.6449 22.0145 17.2454 20.5679 17.5611L19.5502 16.5435C19.4623 16.4556 19.3431 16.4062 19.2188 16.4061H17.3438C17.2195 16.4062 17.1003 16.4556 17.0124 16.5435L16.875 16.6808L13.9252 13.731L13.2624 14.3938L16.2122 17.3437L16.0749 17.481C15.987 17.5689 15.9376 17.6881 15.9375 17.8124H12.1875ZM16.875 18.0065L17.5379 17.3437H19.0247L22.5404 20.8593L20.3907 23.009L16.875 19.4933V18.0065ZM22.5 25.1183L21.0535 23.6718L23.2032 21.5221L24.6497 22.9687L22.5 25.1183ZM23.866 25.078L24.6094 24.3346L26.5247 26.2499L25.7813 26.9933L23.866 25.078ZM26.7188 28.8683L25.9754 28.1249L27.6563 26.444L28.3997 27.1874L26.7188 28.8683Z" fill="white"/>
</g>
<defs>
<clipPath id="clip0_93_656">
<rect width="30" height="30" fill="white"/>
</clipPath>
</defs>
</svg>
