<svg width="30" height="30" viewBox="0 0 30 30" fill="none" xmlns="http://www.w3.org/2000/svg">
<g clip-path="url(#clip0_91_493)">
<path d="M28.7282 2.26689H25.7274C25.4847 2.26689 25.2879 2.46373 25.2879 2.70658C25.2879 2.94919 25.4847 3.14603 25.7274 3.14603H28.7282C28.945 3.14603 29.1212 3.32204 29.1212 3.53879V3.93178C29.1212 4.14831 28.945 4.32455 28.7282 4.32455H20.3365C20.12 4.32455 19.9437 4.14831 19.9437 3.93178V3.53879C19.9437 3.32662 20.1179 3.14603 20.3365 3.14603H23.6766C23.9192 3.14603 24.116 2.94919 24.116 2.70658C24.116 2.46373 23.9192 2.26689 23.6766 2.26689H20.3365C20.1726 2.26689 20.0163 2.29848 19.8723 2.35501C18.0776 0.691726 15.4519 0.10098 12.432 0.692412C8.49526 1.46375 5.72327 3.19799 4.19319 5.84753C3.22937 7.51631 2.77938 9.56458 2.89199 11.7708C2.91397 12.1986 2.75146 12.6218 2.44636 12.9319C0.856316 14.5478 0.0334843 16.5876 0.000983037 18.9945C-0.0257962 20.9828 0.499718 22.805 0.94558 23.9835C1.43264 25.2716 1.53976 26.1274 1.5908 26.4133C2.07855 29.1546 5.23277 30.5087 7.59209 28.999C8.97637 28.1134 10.276 27.1894 11.4874 26.2309H13.3993C13.513 26.8164 14.0294 27.2597 14.6476 27.2597H23.0394C23.7407 27.2597 24.311 26.6891 24.311 25.9878V25.5948C24.311 24.8937 23.7407 24.3231 23.0394 24.3231H14.6474C14.0294 24.3231 13.513 24.7665 13.3993 25.352H12.562C16.5421 21.9853 20.1783 17.575 21.6494 12.6476H24.382C25.0833 12.6476 25.6539 12.0772 25.6539 11.376V10.983C25.6539 10.2817 25.0833 9.71106 24.382 9.71106H22.2293C22.3799 8.06769 22.2092 6.53006 21.7279 5.20368H28.7282C29.4295 5.20368 30.0001 4.63308 30.0001 3.93178V3.53879C30.0001 2.8375 29.4295 2.26689 28.7282 2.26689ZM14.2546 25.5948C14.2546 25.3783 14.4309 25.202 14.6474 25.202H23.0394C23.2559 25.202 23.4321 25.3783 23.4321 25.5948V25.9878C23.4321 26.2043 23.2559 26.3806 23.0394 26.3806H14.6474C14.4309 26.3806 14.2546 26.2043 14.2546 25.9878V25.5948ZM24.775 10.9827V11.376C24.775 11.5925 24.5987 11.7687 24.382 11.7687C23.5736 11.7687 16.9488 11.7687 15.9902 11.7687C15.7737 11.7687 15.5975 11.5925 15.5975 11.376V10.9827C15.5975 10.7662 15.7737 10.59 15.9902 10.59H24.382C24.5987 10.59 24.775 10.7662 24.775 10.9827ZM17.4203 9.71106C16.1159 4.96107 11.511 3.08881 8.13592 5.23321C6.80382 6.07984 5.87456 7.45062 5.58663 8.9942C5.54199 9.2327 5.69946 9.46227 5.93796 9.50667C6.17646 9.5513 6.40602 9.39406 6.45066 9.15534C6.69396 7.85048 7.48017 6.69142 8.60741 5.97524C11.3327 4.24352 15.215 5.58248 16.5045 9.71106H15.9902C15.372 9.71106 14.8559 10.1544 14.7421 10.7399H10.65C10.4071 10.7399 10.2105 10.9367 10.2105 11.1793C10.2105 11.4222 10.4071 11.6188 10.65 11.6188H14.7421C14.8559 12.2043 15.3723 12.6476 15.9902 12.6476H16.795C16.3207 17.9291 11.1562 23.0247 6.65528 24.1492C4.90959 24.5854 4.049 23.767 3.63472 23.0034C3.33557 22.452 3.19526 21.7942 3.19893 21.1412C4.38591 21.7512 5.9359 21.4706 6.79581 20.2621C7.15516 19.7576 7.33323 19.1726 7.32224 18.5789C7.45545 18.6517 7.59095 18.7322 7.72851 18.8201C8.14256 19.0849 8.65617 19.1229 9.10203 18.9217C9.51722 18.7345 9.81385 18.3724 9.91525 17.9286C10.0169 17.4834 9.90701 17.0273 9.61335 16.6771C8.15697 14.9392 6.98418 12.7717 6.55251 11.0205C6.4946 10.7847 6.25611 10.641 6.02059 10.6989C5.78507 10.7571 5.6411 10.9951 5.69924 11.2308C6.16089 13.104 7.40258 15.4073 8.93975 17.2417C9.05511 17.3793 9.09837 17.5583 9.05831 17.7327C9.01872 17.906 8.90313 18.0474 8.74062 18.1207C8.56644 18.1992 8.36526 18.1841 8.20229 18.0797C1.25457 13.6364 0.0611791 26.7026 6.86837 25.002C11.9203 23.7397 17.218 18.1497 17.676 12.6476H20.7302C19.8107 15.5565 17.4146 20.3651 11.1869 25.352H9.30711C9.06426 25.352 8.86765 25.5486 8.86765 25.7914C8.86765 26.034 9.06426 26.2309 9.30711 26.2309H10.0512C9.14781 26.9068 8.17254 27.5843 7.11831 28.2588C5.34767 29.3915 2.81715 28.4851 2.43858 26.1551C2.3777 25.7823 2.2351 24.9088 1.7675 23.6724C0.86982 21.2991 -0.154199 16.8279 3.07281 13.5485C3.55026 13.0633 3.80432 12.3988 3.76999 11.7259C3.61046 8.60464 4.5459 3.13298 12.601 1.55507C14.9445 1.09593 17.4327 1.34175 19.2136 2.94255C19.1568 3.04921 19.1129 3.16938 19.0884 3.29572H14.9962C14.7534 3.29572 14.5568 3.49256 14.5568 3.73517C14.5568 3.97802 14.7534 4.17486 14.9962 4.17486H19.0884C19.2021 4.76011 19.7183 5.20345 20.3365 5.20345H20.7858C21.3198 6.49252 21.5123 8.03816 21.3477 9.71106H17.4203ZM6.39229 18.1836C6.51955 18.727 6.40969 19.2889 6.07964 19.7526C5.70862 20.2742 5.12909 20.5734 4.48982 20.5734C4.06113 20.5734 3.65097 20.4347 3.31337 20.1785C3.6512 18.7231 4.71298 17.6862 6.39229 18.1836Z" fill="white"/>
</g>
<defs>
<clipPath id="clip0_91_493">
<rect width="30" height="30" fill="white"/>
</clipPath>
</defs>
</svg>
