<svg width="30" height="30" viewBox="0 0 30 30" fill="none" xmlns="http://www.w3.org/2000/svg">
<g clip-path="url(#clip0_351_582)">
<path d="M26.2446 23.3315V19.7146L26.8513 20.331L27.5148 19.6569L26.1072 18.2265C26.0192 18.1371 25.8999 18.0869 25.7754 18.0869C25.651 18.0869 25.5317 18.1371 25.4437 18.2265L24.0361 19.6569L24.6996 20.331L25.3063 19.7146V23.3315H26.2446Z" fill="white"/>
<path d="M19.4248 8.14857C18.9479 8.44988 18.3898 8.591 17.8296 8.55193L17.7686 9.5055C17.8361 9.50979 17.9131 9.51313 17.9989 9.51313C18.6807 9.51595 19.3493 9.32254 19.9273 8.95529C20.3627 8.6747 20.7321 8.30034 21.0093 7.85868L20.2192 7.34375C20.0157 7.66802 19.7445 7.9428 19.4248 8.14857Z" fill="white"/>
<path d="M18.52 6.09284C18.9968 5.7912 19.555 5.65005 20.1153 5.68948L20.1763 4.73591C19.418 4.68549 18.6631 4.87792 18.018 5.28612C17.5827 5.56671 17.2133 5.94107 16.936 6.38273L17.7262 6.89766C17.9295 6.57344 18.2005 6.29866 18.52 6.09284Z" fill="white"/>
<path d="M22.0221 4.73688C22.0221 3.96449 21.3056 2.89744 20.1965 2.0192C19.0544 1.14599 17.7306 0.550565 16.3266 0.27871C14.9227 0.00685441 13.4761 0.0658116 12.0981 0.451048L12.0535 0.462491C7.64541 1.59772 4.19258 5.98892 4.19258 10.4583C4.19258 13.4444 6.57 19.3742 9.71128 19.5173C9.94524 19.6174 10.1466 19.7827 10.2922 19.9941C10.2962 20.549 10.1885 21.099 9.97542 21.61C9.76239 22.121 9.44863 22.5823 9.05347 22.9654L3.42309 27.7332C3.34907 27.796 3.29585 27.8804 3.27067 27.9749C3.2455 28.0695 3.2496 28.1696 3.28241 28.2617C3.31522 28.3538 3.37515 28.4334 3.45405 28.4897C3.53295 28.546 3.62699 28.5762 3.72338 28.5762H17.7993C17.9238 28.5762 18.0431 28.526 18.1311 28.4366C18.2191 28.3471 18.2685 28.2259 18.2685 28.0994C18.2775 26.3297 18.747 24.5938 19.6292 23.0679L21.498 19.2689C21.9675 18.4708 22.7066 17.8734 23.5775 17.5882L25.4379 17.1147C25.9169 16.9251 26.3342 16.603 26.6426 16.1851C26.951 15.7671 27.1383 15.2698 27.1833 14.7494C27.1822 14.5011 27.127 14.2561 27.0215 14.0321C26.916 13.8081 26.7629 13.6106 26.5733 13.454L26.2308 13.1054C26.1928 12.8532 26.0893 12.6157 25.9309 12.4176C25.7726 12.2195 25.5651 12.0679 25.3299 11.9783C25.4753 11.654 25.5227 11.2931 25.4661 10.9414C25.4096 10.5897 25.2516 10.263 25.0123 10.0025L25.1704 9.84183C25.3429 9.68301 25.4781 9.48685 25.5659 9.26783C25.6538 9.04881 25.6921 8.81253 25.6781 8.57644C25.6518 8.38243 25.5811 8.19737 25.4718 8.03609C25.3624 7.87481 25.2174 7.74178 25.0484 7.64766L22.2567 6.23018C21.9574 6.05663 21.9437 5.94697 21.993 5.34478C22.0061 5.15836 22.0221 4.9562 22.0221 4.73688ZM14.765 1.32595C14.8489 1.26961 14.9124 1.18688 14.9457 1.09042C15.143 1.09741 15.3354 1.11108 15.5228 1.13142L14.6524 2.01586C14.0734 2.60422 14.0425 3.50534 14.5726 4.48848C14.819 4.94714 15.1577 5.79344 14.6524 6.30694C14.3372 6.6605 14.1626 7.12053 14.1626 7.5976C14.1626 8.07467 14.3372 8.5347 14.6524 8.88826C14.8987 9.13857 14.8152 9.81752 14.5938 10.1937L13.8501 11.327C13.5765 11.2442 13.2969 11.1831 13.014 11.1444C13.3609 10.6696 13.5571 10.0986 13.5765 9.50761C13.5747 9.14955 13.4869 8.79735 13.3208 8.48156C13.1762 8.21041 13.1027 7.90599 13.1073 7.5976C13.1105 7.23791 13.1804 6.88204 13.3133 6.54867C13.4757 6.12592 13.5647 5.67779 13.5765 5.22416C13.5913 4.69062 13.4867 4.16064 13.2706 3.67412C13.1459 3.42858 13.0895 3.15313 13.1073 2.87741C13.1392 2.51506 13.3067 2.25998 14.765 1.32595ZM10.0149 18.6052C9.95443 18.5779 9.88907 18.5638 9.82295 18.5637C7.4962 18.5637 5.13098 13.3639 5.13098 10.4583C5.13098 6.40563 8.2746 2.42018 12.2839 1.3846C12.6259 1.29782 12.9539 1.2387 13.2753 1.19054C12.5743 1.71262 12.2318 2.14364 12.1689 2.78206C12.1364 3.21092 12.2155 3.64092 12.3984 4.02885C12.4663 4.19036 12.5229 4.35654 12.5678 4.52614L10.0299 6.24543L10.5507 7.03881L12.587 5.65946C12.5471 5.85399 12.493 6.04523 12.4251 6.23161C12.2577 6.66704 12.1709 7.13013 12.1689 7.5976C12.1634 8.04532 12.2667 8.4875 12.4697 8.88492C12.5759 9.0728 12.6338 9.28481 12.6381 9.50141C12.628 9.80035 12.5451 10.0921 12.397 10.3506L9.97122 9.52906L9.67469 10.435L11.7912 11.1501C11.6707 11.2741 11.5421 11.3985 11.3966 11.5239L11.3929 11.5287C11.074 11.7358 10.8397 12.0533 10.7331 12.4223C10.6266 12.7914 10.6551 13.1871 10.8134 13.5365C10.9886 13.8848 11.1829 14.2229 11.3952 14.5491L9.64841 15.2591L9.9975 16.145L11.9996 15.3311C12.2539 15.6253 12.5716 15.8561 12.9279 16.0054C13.2842 16.1548 13.6696 16.2187 14.0542 16.1922C14.0564 16.9514 13.7659 17.6814 13.2448 18.2256C12.7699 18.6834 12.1866 19.0086 11.5515 19.1697C11.3722 19.2307 11.1893 19.2951 11.0044 19.368C10.7367 19.0397 10.3981 18.7787 10.0149 18.6052ZM14.9884 16.1798H15.809C15.321 18.4683 15.0494 19.7275 12.9609 20.4947L11.102 21.1145C11.1596 20.8513 11.1967 20.584 11.2132 20.3149C11.4196 20.2272 11.6284 20.15 11.848 20.0765C12.6215 19.8682 13.3303 19.464 13.9083 18.9017C14.6052 18.1732 14.993 17.1958 14.9884 16.1798ZM20.6656 18.8274L18.7978 22.6211C17.9308 24.1482 17.4315 25.862 17.3409 27.6226H5.01931L9.66108 23.692C10.103 23.2878 10.4597 22.7969 10.7097 22.2488L13.2669 21.3958C15.6429 20.5238 16.1473 19.0147 16.6029 16.9498C16.8457 17.2965 17.1656 17.5801 17.5365 17.7777C17.9074 17.9753 18.319 18.0812 18.7377 18.0869C18.9498 18.0869 19.5011 18.0216 20.4583 17.9062C20.7811 17.8671 21.1264 17.8256 21.467 17.7861C21.1449 18.086 20.8735 18.4378 20.6638 18.8274H20.6656ZM24.5905 8.48109C24.7312 8.57168 24.7425 8.65845 24.7458 8.68658C24.7409 8.77949 24.7172 8.87038 24.6762 8.95356C24.6352 9.03675 24.5778 9.11044 24.5074 9.17004L24.0382 9.64683C23.9503 9.73624 23.9009 9.85749 23.9009 9.98392C23.9009 10.1103 23.9503 10.2316 24.0382 10.321C24.5262 10.8169 24.6712 11.2441 24.4704 11.5916L24.1166 11.9511L22.8141 12.3922L23.1106 13.2981L24.4446 12.8423H24.8373C24.9617 12.8423 25.0811 12.8925 25.1691 12.9819C25.2571 13.0713 25.3065 13.1926 25.3065 13.319C25.3065 13.4455 25.356 13.5667 25.444 13.6561L25.9085 14.1281C26.19 14.4142 26.2449 14.5143 26.2449 14.748C26.2004 15.0583 26.0811 15.3527 25.8974 15.6048C25.7138 15.8568 25.4716 16.0588 25.1925 16.1926L23.3626 16.657C22.7573 16.667 18.9024 17.1338 18.7358 17.1338C17.7374 17.1338 17.1875 16.2522 16.859 15.589C16.8342 15.5413 16.8145 15.4994 16.7995 15.4717C16.7591 15.3977 16.7 15.3359 16.6283 15.2928C16.5567 15.2496 16.475 15.2267 16.3917 15.2262C16.3917 15.2262 14.3005 15.2305 14.1926 15.2352C13.4255 15.2696 12.762 15.2972 11.6477 13.1007C11.598 12.9466 11.6033 12.7797 11.6626 12.6291C11.7219 12.4786 11.8313 12.354 11.9719 12.2773C12.1924 12.1171 12.5265 11.8768 13.8956 12.3411C13.9932 12.3742 14.0988 12.3737 14.1962 12.3398C14.2935 12.3058 14.3771 12.2403 14.4342 12.1533L15.3844 10.7039C15.755 10.0759 15.9784 8.88874 15.314 8.21408C15.1764 8.03902 15.1015 7.82164 15.1015 7.5976C15.1015 7.37356 15.1764 7.15618 15.314 6.98112C15.999 6.28548 16.0281 5.21033 15.3937 4.03171C15.2455 3.7547 14.94 3.07004 15.314 2.69004L16.6517 1.33263C17.7281 1.59682 18.7386 2.0859 19.6189 2.76871C20.6858 3.61548 21.0837 4.42554 21.0837 4.73688C21.0837 4.9276 21.0687 5.10353 21.0556 5.26611C21.0058 5.87735 20.949 6.57013 21.8124 7.07075L24.5905 8.48109Z" fill="white"/>
</g>
<defs>
<clipPath id="clip0_351_582">
<rect width="29.06" height="29.53" fill="white"/>
</clipPath>
</defs>
</svg>
