<svg width="30" height="30" viewBox="0 0 30 30" fill="none" xmlns="http://www.w3.org/2000/svg">
<g clip-path="url(#clip0_93_640)">
<path d="M10.9368 15.0108C10.848 14.914 10.7227 14.8589 10.5913 14.8589C10.4599 14.8589 10.3346 14.914 10.2458 15.0108L9.07397 16.2887C8.89901 16.4795 8.91178 16.776 9.10262 16.951C9.29346 17.1259 9.58995 17.1133 9.76491 16.9224L10.1226 16.5324V18.1402C10.1226 18.3991 10.3324 18.6089 10.5913 18.6089C10.8502 18.6089 11.0601 18.3991 11.0601 18.1402V16.5324L11.4177 16.9224C11.5102 17.0232 11.6365 17.0743 11.7633 17.0743C11.8765 17.0743 11.9901 17.0336 12.08 16.951C12.2708 16.7761 12.2836 16.4795 12.1087 16.2887L10.9368 15.0108Z" fill="white"/>
<path d="M4.77475 7.91896C4.75477 7.77957 4.74053 7.63613 4.73244 7.49269C4.71791 7.23423 4.49672 7.03683 4.23809 7.05101C3.97963 7.0656 3.78188 7.28691 3.79641 7.54537C3.80602 7.71558 3.82289 7.88603 3.84668 8.05197C3.8802 8.2857 4.0807 8.45427 4.3101 8.45427C4.33219 8.45427 4.35463 8.45269 4.37719 8.44947C4.63348 8.41273 4.81148 8.17519 4.77475 7.91896Z" fill="white"/>
<path d="M8.99345 12.0579H8.9992C9.16595 12.0559 9.33265 12.0491 9.49472 12.0375C9.75295 12.0191 9.94736 11.7948 9.9289 11.5366C9.9105 11.2783 9.68603 11.0831 9.42798 11.1024C9.28437 11.1126 9.1363 11.1187 8.98806 11.1205C8.72919 11.1236 8.52183 11.3359 8.52494 11.5948C8.52804 11.8518 8.73728 12.0579 8.99357 12.0579H8.99345Z" fill="white"/>
<path d="M6.51856 11.653C6.67548 11.7174 6.84007 11.7748 7.00788 11.8235C7.05153 11.8362 7.09554 11.8422 7.13884 11.8422C7.34198 11.8422 7.52925 11.7091 7.58878 11.5041C7.66097 11.2555 7.518 10.9954 7.26938 10.9232C7.13362 10.8838 7.00079 10.8375 6.8747 10.7857C6.63528 10.6874 6.36136 10.8018 6.26304 11.0413C6.16472 11.2808 6.27903 11.5547 6.51856 11.653Z" fill="white"/>
<path d="M4.68275 9.34284C4.4632 9.48007 4.39652 9.76928 4.53375 9.98878C4.62714 10.1382 4.73003 10.2822 4.83949 10.417C4.93212 10.531 5.06724 10.5902 5.20359 10.5902C5.30742 10.5902 5.41201 10.5558 5.4989 10.4852C5.69982 10.3219 5.73041 10.0267 5.56716 9.82583C5.48197 9.72094 5.40175 9.60856 5.3288 9.49184C5.19158 9.27235 4.90242 9.20555 4.68287 9.34284H4.68275Z" fill="white"/>
<path d="M11.2871 11.6512C11.342 11.6512 11.3979 11.6414 11.4523 11.6209C11.6109 11.5612 11.7679 11.4944 11.9192 11.4225C12.153 11.3113 12.2524 11.0317 12.1412 10.7979C12.03 10.5641 11.7503 10.4646 11.5166 10.5758C11.3887 10.6366 11.2559 10.6931 11.1217 10.7437C10.8794 10.8351 10.757 11.1054 10.8484 11.3477C10.9192 11.5355 11.0976 11.6512 11.2871 11.6512V11.6512Z" fill="white"/>
<path d="M14.3629 8.0258C14.1059 7.9958 13.8729 8.17955 13.8427 8.43666C13.8413 8.44897 13.6881 9.68178 12.8239 10.8724C11.6689 12.4638 9.84598 13.1934 7.40473 13.0397C5.5902 12.9257 4.58637 12.0433 4.06377 11.3231C3.32713 10.3079 3.06035 8.93787 3.36768 7.74766C3.53889 7.08444 3.76752 6.47195 4.01092 5.82924C4.06805 5.97567 4.19707 6.09022 4.36307 6.12057C4.39154 6.12578 4.4199 6.1283 4.44791 6.1283C4.66992 6.1283 4.86715 5.96992 4.90846 5.74375C4.93717 5.58672 4.96371 5.42582 4.98738 5.26551C5.02518 5.0094 4.84817 4.77115 4.59205 4.73336C4.53041 4.72428 4.46988 4.72791 4.41281 4.7418C4.65756 4.04248 4.87858 3.29752 5.01492 2.44375C5.09057 1.97031 4.92715 0.706799 4.89363 0.458361C4.85901 0.201838 4.62276 0.0218378 4.36641 0.0565253C4.10988 0.0911542 3.92994 0.32717 3.96457 0.583752C4.04028 1.14479 4.12899 2.0469 4.0892 2.29592C3.90123 3.47272 3.52799 4.45785 3.16705 5.41059C2.91375 6.0792 2.65184 6.77049 2.46006 7.51328C2.08471 8.96723 2.40856 10.6381 3.30516 11.8737C3.87065 12.653 4.88842 13.5862 6.61653 13.8892C6.89619 15.8662 6.96387 18.6794 6.3436 20.9188C5.97744 22.2407 5.47037 23.1532 4.93354 24.1194C4.17949 25.4765 3.39973 26.8797 2.99074 29.4578C2.9502 29.7135 3.12457 29.9536 3.38028 29.9942C3.40518 29.9981 3.42985 30 3.45428 30C3.6808 30 3.88008 29.8355 3.9167 29.6047C4.29973 27.1903 5.00561 25.9198 5.75303 24.5747C6.29291 23.6031 6.85113 22.5984 7.24705 21.1691C7.88168 18.878 7.84155 16.0451 7.57553 13.9863C7.72465 13.9925 7.87172 13.9967 8.01481 13.9967C11.0516 13.9967 12.7125 12.6222 13.5829 11.4231C14.5893 10.0364 14.7669 8.60623 14.774 8.546C14.8042 8.28889 14.6203 8.05598 14.3631 8.0258H14.3629Z" fill="white"/>
<path d="M19.7739 15.0108C19.6852 14.914 19.5598 14.8589 19.4285 14.8589C19.2971 14.8589 19.1718 14.914 19.083 15.0108L17.9111 16.2887C17.7362 16.4795 17.7489 16.776 17.9398 16.951C18.1306 17.1259 18.4271 17.1133 18.6021 16.9224L18.9597 16.5324V18.1402C18.9597 18.3991 19.1696 18.6089 19.4285 18.6089C19.6873 18.6089 19.8972 18.3991 19.8972 18.1402V16.5324L20.2549 16.9224C20.3473 17.0232 20.4737 17.0743 20.6005 17.0743C20.7137 17.0743 20.8272 17.0336 20.9172 16.951C21.1079 16.7761 21.1208 16.4795 20.9458 16.2887L19.7739 15.0108Z" fill="white"/>
<path d="M25.0865 24.1194C24.5496 23.1533 24.0426 22.2407 23.6765 20.9189C23.0562 18.6795 23.1239 15.8663 23.4035 13.8893C25.1316 13.5863 26.1494 12.653 26.7149 11.8737C27.6115 10.6381 27.9354 8.96726 27.56 7.51332C27.3682 6.77052 27.1063 6.07918 26.853 5.41062C26.4921 4.45789 26.1188 3.47275 25.9309 2.29595C25.8911 2.04728 25.9798 1.145 26.0555 0.583727C26.0901 0.327145 25.9102 0.0911297 25.6536 0.0565008C25.3971 0.0219305 25.161 0.201813 25.1264 0.458337C25.0929 0.706833 24.9294 1.97035 25.0051 2.44373C25.1414 3.29744 25.3624 4.04246 25.6072 4.74172C25.5501 4.72783 25.4896 4.7242 25.4279 4.73328C25.1718 4.77107 24.9948 5.00931 25.0326 5.26543C25.0563 5.4258 25.0828 5.5867 25.1115 5.74367C25.1529 5.96984 25.3501 6.12822 25.5721 6.12822C25.6001 6.12822 25.6284 6.1257 25.6569 6.12049C25.8229 6.09013 25.9519 5.97564 26.0091 5.82922C26.2524 6.47193 26.4811 7.08441 26.6523 7.74763C26.9596 8.93785 26.6929 10.3079 25.9562 11.3231C25.4336 12.0433 24.4298 12.9257 22.6153 13.0396C20.1908 13.1922 18.375 12.473 17.2184 10.9029C16.3421 9.71328 16.1787 8.44812 16.1771 8.43546C16.1463 8.179 15.9141 7.99566 15.657 8.02572C15.3999 8.05589 15.2159 8.28881 15.2462 8.54592C15.2533 8.60615 15.4309 10.0364 16.4373 11.423C17.9414 13.4953 20.1953 13.996 22.0217 13.996C22.1659 13.996 22.3062 13.992 22.4446 13.9862C22.1786 16.045 22.1385 18.878 22.7731 21.169C23.169 22.5984 23.7272 23.603 24.2671 24.5746C25.0145 25.9197 25.7204 27.1902 26.1034 29.6046C26.14 29.8354 26.3393 30 26.5658 30C26.5903 30 26.615 29.9981 26.6398 29.9941C26.8955 29.9536 27.0699 29.7134 27.0294 29.4577C26.6204 26.8797 25.8406 25.4764 25.0866 24.1193L25.0865 24.1194Z" fill="white"/>
<path d="M22.881 11.8422C22.9243 11.8422 22.9683 11.8362 23.0119 11.8235C23.1797 11.7748 23.3443 11.7174 23.5012 11.653C23.7407 11.5547 23.8552 11.2808 23.7568 11.0413C23.6585 10.8018 23.3845 10.6874 23.1452 10.7857C23.0191 10.8375 22.8862 10.8838 22.7505 10.9232C22.5019 10.9954 22.3588 11.2555 22.4311 11.5041C22.4906 11.7091 22.6778 11.8422 22.881 11.8422H22.881Z" fill="white"/>
<path d="M24.521 10.4852C24.6079 10.5558 24.7124 10.5902 24.8163 10.5902C24.9526 10.5902 25.0878 10.531 25.1804 10.417C25.2899 10.2823 25.3928 10.1382 25.4862 9.98876C25.6234 9.76921 25.5567 9.48005 25.3372 9.34283C25.1176 9.2056 24.8284 9.27228 24.6912 9.49183C24.6182 9.60861 24.5381 9.72093 24.4529 9.82582C24.2896 10.0267 24.3201 10.3219 24.5211 10.4852H24.521Z" fill="white"/>
<path d="M25.6424 8.44955C25.6649 8.45277 25.6873 8.45435 25.7094 8.45435C25.9388 8.45435 26.1393 8.28578 26.1729 8.05205C26.1966 7.88611 26.2136 7.71566 26.2231 7.54545C26.2377 7.28699 26.04 7.06568 25.7815 7.05109C25.5229 7.03609 25.3017 7.23426 25.2871 7.49277C25.279 7.63621 25.2648 7.77965 25.2448 7.91904C25.2081 8.17533 25.386 8.41281 25.6423 8.44955H25.6424Z" fill="white"/>
<path d="M18.1005 11.4225C18.2518 11.4945 18.4089 11.5612 18.5674 11.621C18.6219 11.6415 18.6778 11.6512 18.7327 11.6512C18.9221 11.6512 19.1006 11.5355 19.1713 11.3477C19.2627 11.1055 19.1403 10.8351 18.8981 10.7437C18.7638 10.6931 18.6309 10.6366 18.5031 10.5758C18.2694 10.4646 17.9897 10.564 17.8785 10.7978C17.7674 11.0316 17.8668 11.3114 18.1005 11.4225Z" fill="white"/>
<path d="M20.5251 12.0374C20.6872 12.049 20.8539 12.0559 21.0206 12.0579H21.0264C21.2827 12.0579 21.4919 11.8517 21.495 11.5948C21.4981 11.3359 21.2908 11.1235 21.0319 11.1204C20.8836 11.1187 20.7356 11.1126 20.592 11.1023C20.3336 11.0835 20.1095 11.2782 20.0911 11.5365C20.0726 11.7947 20.267 12.019 20.5252 12.0374H20.5251Z" fill="white"/>
<path d="M15 22.3179C14.7411 22.3179 14.5312 22.5278 14.5312 22.7866V23.2554C14.5312 23.5142 14.7411 23.7241 15 23.7241C15.2589 23.7241 15.4688 23.5142 15.4688 23.2554V22.7866C15.4688 22.5278 15.2589 22.3179 15 22.3179Z" fill="white"/>
</g>
<defs>
<clipPath id="clip0_93_640">
<rect width="30" height="30" fill="white"/>
</clipPath>
</defs>
</svg>
