<svg width="62" height="62" viewBox="0 0 62 62" fill="none" xmlns="http://www.w3.org/2000/svg">
<path d="M38.9763 38.6575V48.5195C38.9763 48.6426 39.1393 48.6873 39.2007 48.5799L41.2809 44.9776C42.103 43.553 43.9247 43.0653 45.3494 43.8873C46.3042 44.4391 46.8391 45.4399 46.8391 46.4696C46.8391 46.9744 46.7099 47.4861 46.4394 47.9558L41.095 57.2129C39.7417 59.5561 37.2415 61 34.5349 61H20.3111C17.4668 61 15.1609 58.6943 15.1609 55.8499V38.6575" stroke="#C28565" stroke-width="1.5" stroke-miterlimit="10" stroke-linecap="round" stroke-linejoin="round"/>
<path d="M24.4217 0.999897H46.6133C54.5595 0.999897 61 7.44055 61 15.3866V31.9017V37.1484C61 37.9814 60.3252 38.6575 59.4922 38.6575H2.50785C1.67485 38.6575 1 37.9814 1 37.1484V31.9017V15.3866C1 7.44055 7.44065 0.999897 15.3867 0.999897H20.1964" stroke="#C28565" stroke-width="1.5" stroke-miterlimit="10" stroke-linecap="round" stroke-linejoin="round"/>
<path d="M61.0001 31.9019H50.5924" stroke="#C28565" stroke-width="1.5" stroke-miterlimit="10" stroke-linecap="round" stroke-linejoin="round"/>
<path d="M46.367 31.9019H1" stroke="#C28565" stroke-width="1.5" stroke-miterlimit="10" stroke-linecap="round" stroke-linejoin="round"/>
<path d="M38.0792 26.8188H23.921C23.3876 26.8188 22.9552 26.3865 22.9552 25.8531V20.8495C22.9552 20.3161 23.3876 19.8837 23.921 19.8837H38.0792C38.6126 19.8837 39.045 20.3161 39.045 20.8495V25.8531C39.045 26.3865 38.6126 26.8188 38.0792 26.8188Z" stroke="#C28565" stroke-width="1.5" stroke-miterlimit="10" stroke-linecap="round" stroke-linejoin="round"/>
<path d="M24.7241 14.2354C24.7241 15.5688 23.6432 16.6499 22.3096 16.6499C20.9761 16.6499 19.8951 15.5688 19.8951 14.2354C19.8951 12.9019 20.9761 11.8209 22.3096 11.8209C23.6432 11.8209 24.7241 12.9019 24.7241 14.2354Z" stroke="#C28565" stroke-width="1.5" stroke-miterlimit="10" stroke-linecap="round" stroke-linejoin="round"/>
<path d="M33.7784 14.2354C33.7784 15.5688 32.6975 16.6499 31.364 16.6499C30.0304 16.6499 28.9495 15.5688 28.9495 14.2354C28.9495 12.9019 30.0304 11.8209 31.364 11.8209C32.6975 11.8209 33.7784 12.9019 33.7784 14.2354Z" stroke="#C28565" stroke-width="1.5" stroke-miterlimit="10" stroke-linecap="round" stroke-linejoin="round"/>
<path d="M42.8328 14.2354C42.8328 15.5688 41.7518 16.6499 40.4183 16.6499C39.0848 16.6499 38.0038 15.5688 38.0038 14.2354C38.0038 12.9019 39.0848 11.8209 40.4183 11.8209C41.7518 11.8209 42.8328 12.9019 42.8328 14.2354Z" stroke="#C28565" stroke-width="1.5" stroke-miterlimit="10" stroke-linecap="round" stroke-linejoin="round"/>
<path d="M21.1151 43.9453V38.6575" stroke="#C28565" stroke-width="1.5" stroke-miterlimit="10" stroke-linecap="round" stroke-linejoin="round"/>
<path d="M27.068 43.9453V38.6575" stroke="#C28565" stroke-width="1.5" stroke-miterlimit="10" stroke-linecap="round" stroke-linejoin="round"/>
<path d="M33.0222 43.9453V38.6575" stroke="#C28565" stroke-width="1.5" stroke-miterlimit="10" stroke-linecap="round" stroke-linejoin="round"/>
</svg>
