<svg width="60" height="60" viewBox="0 0 60 60" fill="none" xmlns="http://www.w3.org/2000/svg">
<path d="M13.7078 11.0708C14.1932 11.0708 14.5867 10.6773 14.5867 10.1919C14.5867 9.70654 14.1932 9.31302 13.7078 9.31302C13.2224 9.31302 12.8289 9.70654 12.8289 10.1919C12.8289 10.6773 13.2223 11.0708 13.7078 11.0708ZM6.67652 11.0708C7.16191 11.0708 7.55543 10.6773 7.55543 10.1919C7.55543 9.70654 7.16191 9.31302 6.67652 9.31302C6.19113 9.31302 5.79762 9.70654 5.79762 10.1919C5.79762 10.6773 6.19101 11.0708 6.67652 11.0708ZM10.1921 11.0708C10.6775 11.0708 11.0711 10.6773 11.0711 10.1919C11.0711 9.70654 10.6775 9.31302 10.1921 9.31302C9.70675 9.31302 9.31324 9.70654 9.31324 10.1919C9.31324 10.6773 9.70664 11.0708 10.1921 11.0708ZM9.99937 20.3817C10.0048 20.3818 10.0102 20.3818 10.0155 20.3818L17.9619 20.3838H17.9624C18.5114 20.3838 18.9775 20.0282 19.1224 19.4987C19.2675 18.969 19.0473 18.4254 18.5748 18.1459L17.3662 17.4308C19.3087 15.5056 20.4013 12.8787 20.3839 10.1264C20.3491 4.62236 15.8442 0.0802932 10.3418 0.00107452C4.64004 -0.0808395 0 4.53131 0 10.1922C0 15.6206 4.47281 20.2642 9.99937 20.3817ZM4.27148 4.18514C5.89219 2.58764 8.03437 1.72689 10.3166 1.75865C14.8697 1.82416 18.5973 5.58283 18.6261 10.1374C18.6417 12.5947 17.588 14.9316 15.735 16.5485C15.4252 16.8188 15.2628 17.2243 15.3003 17.6334C15.3378 18.0423 15.5714 18.4112 15.9247 18.6202L15.9335 18.6253L10.0242 18.6239C5.45601 18.5363 1.75781 14.7729 1.75781 10.1922C1.75781 7.91627 2.65055 5.78299 4.27148 4.18514ZM59.1211 58.2422H58.2422V45.1535C58.2422 41.7244 56.2159 38.6105 53.0701 37.2161L48.4381 35.2308C49.5653 34.8751 50.5835 34.2409 51.412 33.3612C52.6621 32.034 53.3789 30.2332 53.3789 28.4204C53.3789 26.7547 52.7969 25.1825 51.6957 23.8734C50.3183 22.2379 49.5597 20.1592 49.5597 18.0201V13.8083C49.5597 10.1195 48.1231 6.65217 45.5148 4.0451C42.9064 1.4365 39.4387 1.98317e-05 35.7504 1.98317e-05C28.1365 1.98317e-05 21.9422 6.19431 21.9422 13.8082V17.8828C21.9426 20.0963 21.0728 22.209 19.6593 23.9121C17.8802 26.0555 17.5106 28.9534 18.6948 31.4749C19.5737 33.3466 21.159 34.6914 23.0569 35.2606L18.4573 37.2607C15.2303 38.6187 13.145 41.7582 13.145 45.2591V55.6056C13.145 56.091 13.5384 56.4845 14.0239 56.4845C14.5094 56.4845 14.9028 56.091 14.9028 55.6056V45.2591C14.9028 42.4675 16.5656 39.9638 19.1487 38.8768L24.9141 36.3697V41.6602H22.2653C21.5188 41.6602 20.8043 41.9784 20.305 42.5334C19.8057 43.0884 19.5646 43.8325 19.6433 44.5747L21.0921 58.2422H0.878906C0.393398 58.2422 0 58.6357 0 59.1211C0 59.6065 0.393398 60 0.878906 60H59.1211C59.6066 60 60 59.6065 60 59.1211C60 58.6357 59.6066 58.2422 59.1211 58.2422ZM50.3509 25.0052C51.1819 25.9931 51.6211 27.174 51.6211 28.4203C51.6211 29.7899 51.0785 31.1514 50.1324 32.1559C49.1307 33.2194 47.7546 33.8051 46.2575 33.8051H45.1121L43.6076 33.1602C42.2933 32.5965 41.3942 31.3882 41.2105 29.9973C43.9223 28.5372 45.77 25.6715 45.77 22.3817V15.7743C46.0272 15.7917 46.2842 15.8012 46.5405 15.8012C46.9632 15.8012 47.3843 15.7772 47.8021 15.7299V18.0199C47.8019 20.5727 48.7073 23.0536 50.3509 25.0052ZM35.964 38.8804C32.8198 38.936 29.6992 38.5376 26.6719 37.6979V35.6053L26.926 35.4948C26.928 35.494 26.93 35.4931 26.9321 35.4922L28.5001 34.8104C30.2455 34.0517 31.4789 32.4975 31.8528 30.6813C32.6182 30.9039 33.426 31.0255 34.2622 31.0255H37.1262C37.9656 31.0255 38.7764 30.9029 39.5443 30.6788C39.9306 32.4866 41.1687 34.0268 42.9149 34.7759L44.5883 35.4931C44.5894 35.4935 44.5904 35.494 44.5915 35.4943L44.7155 35.5474V37.5252C41.871 38.3727 38.9303 38.8286 35.964 38.8804ZM44.7152 39.3552V41.6603H26.6719V39.5181C29.5212 40.2652 32.4466 40.6432 35.3919 40.6432C35.5928 40.6432 35.7937 40.6415 35.9947 40.6379C38.9467 40.5864 41.8745 40.155 44.7152 39.3552ZM47.8019 13.9575C45.381 14.2846 42.652 13.6361 40.7719 12.1793C40.3883 11.8821 39.8362 11.952 39.5388 12.3358C39.2415 12.7194 39.3116 13.2715 39.6953 13.5688C40.9244 14.5211 42.407 15.1918 44.0122 15.5301V20.3149C43.5899 21.2775 43.1197 22.078 42.0597 22.9525C41.6135 23.3207 41.1251 23.6264 40.6019 23.869C40.1748 23.0354 39.3073 22.4633 38.3081 22.4633H36.2484C34.8278 22.4633 33.6721 23.6192 33.6721 25.0397C33.6721 26.4602 34.8278 27.6161 36.2484 27.6161H38.3081C39.5037 27.6161 40.5115 26.7974 40.8008 25.6914C41.9765 25.2434 43.8936 23.6452 43.8941 23.6446C43.2989 26.8399 40.4915 29.2672 37.1263 29.2672H34.2621C30.4652 29.2672 27.3762 26.1783 27.3762 22.3813V15.5875C30.3613 15.1195 33.1814 14.1094 35.7677 12.5796C39.7057 10.2503 42.2317 7.20646 43.756 4.80166C46.3643 7.12467 47.848 10.455 47.8019 13.9575ZM39.1264 25.0422C39.1251 25.4925 38.7586 25.8585 38.308 25.8585H36.2483C35.7969 25.8585 35.4298 25.4912 35.4298 25.0399C35.4298 24.5886 35.797 24.2214 36.2483 24.2214H38.308C38.7585 24.2214 39.1249 24.5871 39.1264 25.0372V25.0422ZM23.7 13.8082C23.7 7.16357 29.1057 1.75783 35.7504 1.75783C38.1334 1.75783 40.4106 2.44572 42.3565 3.72635C40.9536 5.97506 38.5924 8.86677 34.8728 11.0671C32.321 12.5765 29.522 13.5401 26.5532 13.9313H26.4983C26.498 13.9313 26.4976 13.9313 26.4971 13.9313C26.4967 13.9313 26.4964 13.9313 26.496 13.9313H23.6999V13.8082H23.7ZM20.2857 30.7277C19.3945 28.8295 19.6727 26.6481 21.0108 25.0361C22.6897 23.0133 23.7019 20.5139 23.7 17.8828V15.6891H25.6183V22.3817C25.6183 25.6733 27.4684 28.5404 30.1827 29.9998C30.0129 31.4012 29.1165 32.6255 27.7991 33.1983L26.4036 33.8051H25.1297C23.0332 33.8051 21.1772 32.6259 20.2857 30.7277ZM50.8819 44.3896L49.4134 58.2422H22.8598L21.3913 44.3896C21.3647 44.1384 21.443 43.8968 21.6118 43.7092C21.7807 43.5215 22.0128 43.4181 22.2653 43.4181H50.0079C50.2603 43.4181 50.4924 43.5215 50.6613 43.7092C50.8302 43.8968 50.9085 44.1384 50.8819 44.3896ZM56.4844 58.2422H51.181L52.6298 44.575C52.7086 43.8326 52.4673 43.0886 51.9682 42.5336C51.4688 41.9786 50.7545 41.6603 50.0079 41.6603H46.473V36.3009L52.3677 38.8274C54.8685 39.936 56.4844 42.4191 56.4844 45.1535V58.2422ZM36.1365 47.4902C34.2949 47.4902 32.7967 48.9885 32.7967 50.8301C32.7967 52.6717 34.2949 54.1699 36.1365 54.1699C37.9781 54.1699 39.4764 52.6717 39.4764 50.8301C39.4764 48.9885 37.9781 47.4902 36.1365 47.4902ZM36.1365 52.4121C35.2642 52.4121 34.5545 51.7024 34.5545 50.8301C34.5545 49.9577 35.2642 49.2481 36.1365 49.2481C37.0089 49.2481 37.7185 49.9577 37.7185 50.8301C37.7185 51.7024 37.009 52.4121 36.1365 52.4121Z" fill="#C28565"/>
</svg>
