<svg width="60" height="60" viewBox="0 0 60 60" fill="none" xmlns="http://www.w3.org/2000/svg">
<path d="M51.3183 50.2859L42.6602 55.2855C42.1842 55.5601 42.019 56.1674 42.2903 56.6454C42.4222 56.8768 42.641 57.046 42.8982 57.1155C43.1553 57.1849 43.4295 57.1489 43.66 57.0153L52.318 52.0158C52.5494 51.8838 52.7186 51.665 52.788 51.4078C52.8575 51.1506 52.8215 50.8764 52.6879 50.6459C52.5543 50.4161 52.3348 50.2491 52.0778 50.1815C51.8208 50.114 51.5475 50.1515 51.3183 50.2859Z" fill="#C28565"/>
<path d="M17.2661 31.4075C17.7587 31.8962 18.4695 32.0946 19.144 31.9315C19.8185 31.7685 20.3602 31.2674 20.5753 30.6075C21.705 27.1178 27.1338 21.7082 30.573 20.6083C31.2344 20.3956 31.7379 19.8548 31.9031 19.1799C32.0682 18.505 31.8712 17.7927 31.3828 17.2986C25.8841 11.7491 21.3351 7.23942 13.9968 0.759942C13.4463 0.269453 12.7345 -0.00107852 11.9973 3.23163e-06H2.99932C1.34284 3.23163e-06 3.23115e-06 1.34304 3.23115e-06 2.99976V11.999C-0.00107836 12.7364 0.269413 13.4483 0.75983 13.9989C7.17836 21.2583 11.8273 25.9979 17.2661 31.4075ZM18.6857 29.9976L16.2263 27.5378C15.8564 27.1778 16.7462 24.178 20.4653 20.4683C23.2847 17.6486 26.0141 16.1687 27.2438 16.1687C27.4337 16.1687 27.5137 16.1687 27.5337 16.2287L29.9932 18.6685C25.8941 19.9984 19.9954 25.8979 18.6857 29.9976ZM1.99955 2.99976C1.99955 2.44752 2.44716 1.99984 2.99932 1.99984C12.7171 1.99984 12.2872 1.88985 12.6971 2.24982C17.1661 6.2495 21.5451 10.3192 25.7441 14.4388C21.5851 15.7987 15.7464 21.6882 14.4367 25.7379C10.3076 21.5383 6.20858 17.1586 2.24949 12.739C1.90957 12.309 1.99955 12.849 1.99955 2.99976Z" fill="#C28565"/>
<path d="M11.2675 18.3384C11.6426 18.7139 12.1515 18.9249 12.6822 18.9249C13.2129 18.9249 13.7218 18.7139 14.0969 18.3384L18.3459 14.0887C18.7214 13.7136 18.9323 13.2046 18.9323 12.6738C18.9323 12.143 18.7214 11.634 18.3459 11.2589L14.8067 7.73922C14.41 7.39947 13.8187 7.42231 13.4495 7.79165C13.0802 8.16099 13.0573 8.75238 13.397 9.14911L16.9262 12.6888L12.6872 16.9285L9.14801 13.3988C8.75134 13.059 8.16004 13.0819 7.79075 13.4512C7.42147 13.8205 7.39863 14.4119 7.73833 14.8086L11.2675 18.3384Z" fill="#C28565"/>
<path d="M13.3971 13.3989C13.7853 13.0076 13.7835 12.3759 13.3933 11.9867C13.003 11.5975 12.3714 11.5975 11.9811 11.9867C11.5908 12.3759 11.5891 13.0076 11.9772 13.3989C12.165 13.5882 12.4206 13.6947 12.6872 13.6947C12.9538 13.6947 13.2094 13.5882 13.3971 13.3989Z" fill="#C28565"/>
<path d="M53.2477 37.6269C51.2612 34.1489 47.7687 31.7943 43.7999 31.2574L41.9203 27.9977C39.7117 24.1707 34.8193 22.859 30.9928 25.0679C27.1664 27.2769 25.8549 32.17 28.0635 35.997L29.9931 39.2668C28.505 42.9736 28.7923 47.1572 30.7729 50.6259L35.4418 58.6952C35.8939 59.4867 36.73 59.9809 37.6413 59.9951H57.3968C58.8269 59.9951 59.9862 58.8356 59.9862 57.4053C59.9862 49.286 60.1062 49.4959 59.6363 48.696L53.2477 37.6269ZM29.2532 30.4475C29.8983 28.133 31.8618 26.4267 34.2434 26.111C36.6249 25.7953 38.9651 26.9311 40.1907 28.9976L49.1887 44.5863C49.3353 44.8202 49.3787 45.1043 49.3087 45.3713C49.2386 45.6383 49.0613 45.8645 48.8188 45.9962L40.1607 50.9958C39.6829 51.2672 39.0756 51.1019 38.801 50.6259L29.8031 34.9971C28.9963 33.6241 28.7799 31.9828 29.2032 30.4475H29.2532ZM57.9867 57.4053C57.9894 57.5626 57.9281 57.7142 57.8169 57.8255C57.7057 57.9367 57.5541 57.998 57.3968 57.9953H37.6413C37.4314 57.998 37.2364 57.8871 37.1314 57.7053L32.4725 49.6259C31.0814 47.2047 30.6632 44.3449 31.3028 41.6266L37.0614 51.6258C37.5993 52.5576 38.595 53.1299 39.6708 53.1257C40.7306 53.1257 40.2307 53.2656 49.8185 47.7261C50.5083 47.3286 51.0117 46.6732 51.218 45.9042C51.4243 45.1353 51.3165 44.3158 50.9183 43.6264L45.1496 33.6272C47.8305 34.419 50.106 36.2082 51.5081 38.6268L57.9067 49.6959C57.9867 49.8959 57.9867 49.326 57.9867 57.4053Z" fill="#C28565"/>
<path d="M42.9902 23.998C42.9902 24.5502 43.4378 24.9979 43.99 24.9979H54.9875C55.5397 24.9979 55.9873 24.5502 55.9873 23.998C55.9873 23.4457 55.5397 22.998 54.9875 22.998H43.99C43.4378 22.998 42.9902 23.4457 42.9902 23.998Z" fill="#C28565"/>
<path d="M35.9918 7.99919V18.9983C35.9918 19.5505 36.4395 19.9982 36.9917 19.9982C37.544 19.9982 37.9917 19.5505 37.9917 18.9983V7.99919C37.9917 7.44695 37.544 6.99927 36.9917 6.99927C36.4395 6.99927 35.9918 7.44695 35.9918 7.99919Z" fill="#C28565"/>
<path d="M51.6983 10.2892C51.5105 10.0999 51.255 9.99341 50.9884 9.99341C50.7218 9.99341 50.4663 10.0999 50.2786 10.2892L41.2806 19.2885C40.9922 19.5745 40.9056 20.0067 41.0613 20.3818C41.2171 20.757 41.5843 21.0007 41.9905 20.9983C42.2562 20.9999 42.5116 20.8955 42.7003 20.7083L51.6983 11.7091C51.8875 11.5213 51.994 11.2657 51.994 10.9991C51.994 10.7325 51.8875 10.4769 51.6983 10.2892Z" fill="#C28565"/>
<path d="M36.9917 4.99959C37.544 4.99959 37.9917 4.55191 37.9917 3.99967C37.9917 3.44743 37.544 2.99976 36.9917 2.99976C36.4395 2.99976 35.9918 3.44743 35.9918 3.99967C35.9918 4.55191 36.4395 4.99959 36.9917 4.99959Z" fill="#C28565"/>
<path d="M58.9866 24.9979C59.5389 24.9979 59.9865 24.5502 59.9865 23.998C59.9865 23.4457 59.5389 22.998 58.9866 22.998C58.4344 22.998 57.9867 23.4457 57.9867 23.998C57.9867 24.5502 58.4344 24.9979 58.9866 24.9979Z" fill="#C28565"/>
<path d="M20.2955 43.1065C20.4848 43.3506 20.7764 43.4934 21.0853 43.4934C21.3942 43.4934 21.6857 43.3506 21.8751 43.1065C25.1544 38.8768 20.9953 32.9973 11.9974 32.9973C5.82877 32.9973 0.999878 36.0671 0.999878 39.9967C1.01529 41.1293 1.4095 42.2241 2.11962 43.1065C2.309 43.3506 2.60055 43.4934 2.90944 43.4934C3.21833 43.4934 3.50988 43.3506 3.69926 43.1065C6.86854 38.9968 17.1162 38.9968 20.2955 43.1065ZM3.12939 40.8267C3.04239 40.5587 2.99851 40.2785 2.99942 39.9967C2.99942 37.287 7.11848 34.9972 11.9974 34.9972C16.8762 34.9972 20.9953 37.287 20.9953 39.9967C20.9962 40.2785 20.9523 40.5587 20.8653 40.8267C16.5263 37.057 7.4684 37.057 3.12939 40.8267Z" fill="#C28565"/>
<path d="M7.39835 59.845C7.66141 60.0114 7.98697 60.0458 8.27898 59.938C8.57099 59.8302 8.79614 59.5925 8.88801 59.295C10.4477 54.2954 20.0655 50.8157 24.4744 53.6255C24.7379 53.8046 25.0709 53.8474 25.3711 53.7407C25.6713 53.6341 25.9026 53.3907 25.9941 53.0855C26.9939 50.0858 25.4142 47.006 20.9952 46.1561C13.157 44.6262 3.12932 51.3757 5.27883 57.2952C5.68361 58.3564 6.42908 59.2532 7.39835 59.845ZM20.6153 48.1159C22.4249 48.4659 24.1545 49.4358 24.2345 51.2757C18.8657 49.2258 10.3577 52.2756 7.55831 57.3452C4.63898 53.5155 13.417 46.716 20.6153 48.1159Z" fill="#C28565"/>
</svg>
