<svg width="30" height="40" viewBox="0 0 30 40" fill="none" xmlns="http://www.w3.org/2000/svg">
<path d="M28.1818 28.6557C27.7902 26.7696 26.3621 25.9968 25.5458 25.7039C25.5324 25.6992 25.5189 25.6949 25.5052 25.6909C25.347 25.6461 20.8897 24.3822 20.3648 24.2334L18.7619 23.1913V22.229C21.3467 20.9299 23.0931 18.3288 23.0931 15.3408V15.2326C24.42 14.9969 25.4187 14.0085 25.4187 12.8281C25.4187 12.1871 25.1239 11.6028 24.6423 11.1649V6.11002C24.6423 3.30377 21.9996 1.15674 19.1069 1.64807C15.1775 -1.18334 9.52393 -0.287791 6.7822 3.72994C6.59756 4.00064 6.67607 4.36393 6.95758 4.54158C7.23909 4.71908 7.61698 4.64353 7.80187 4.37299C9.16944 2.36869 11.4721 1.17221 13.9611 1.17221C15.6584 1.17221 17.2533 1.71221 18.5734 2.73369C18.721 2.84791 18.9157 2.88971 19.0997 2.84666C21.3112 2.33002 23.4231 3.9465 23.4231 6.11002V10.4998C23.3011 10.4652 23.1757 10.4368 23.0471 10.4158C22.956 10.0295 22.7177 9.69463 22.5382 9.55986L20.0035 7.66275C19.3797 7.19596 18.5754 7.12775 18.04 7.36174C11.8989 9.64385 8.21836 9.64384 8.03568 9.669C7.57724 9.71119 7.12548 9.97127 6.97952 10.4153C6.84982 10.4363 6.72312 10.4648 6.60008 10.4997C6.63405 8.60986 6.50264 7.88846 6.77587 6.7065C6.84884 6.39057 6.64177 6.07744 6.31305 6.00728C5.98432 5.93689 5.6586 6.13619 5.5857 6.45221C5.26461 7.84119 5.4226 8.66392 5.38083 11.1646C4.89931 11.6026 4.60464 12.1868 4.60464 12.8278C4.60464 14.0081 5.60334 14.9966 6.93011 15.2323V15.2384C6.93011 18.101 8.56221 20.8056 11.2396 22.1948V23.2002L9.66151 24.226C9.53685 24.2614 4.49452 25.69 4.45551 25.7038C3.63918 25.9966 2.21123 26.7695 1.81944 28.6558L0.0427625 37.2322C0.0405683 37.2428 0.0386179 37.2534 0.0370738 37.2641C-0.197952 38.8574 0.691359 40 2.50867 40H9.00374C9.34051 40 9.6134 39.7377 9.6134 39.4139C9.6134 39.0902 9.34051 38.8278 9.00374 38.8278H6.80707V33.3038C6.80707 32.9801 6.53418 32.7177 6.1974 32.7177C5.86063 32.7177 5.58773 32.9801 5.58773 33.3038V38.8278H2.5085C1.67657 38.8278 1.22699 38.5591 1.22066 37.7593C1.21724 37.3606 1.19912 37.7577 3.01472 28.8852C3.2877 27.5708 4.28054 27.0217 4.86217 26.8092C5.06973 26.7503 9.44128 25.5106 9.53181 25.485L10.6495 28.4961C10.8689 29.087 11.494 29.3669 12.0534 29.2552L13.9665 30.8687C14.5533 31.3637 15.4424 31.3678 16.0344 30.8711L17.9602 29.2549C18.535 29.37 19.1507 29.074 19.3652 28.496L20.4816 25.4886C21.055 25.6512 23.8849 26.4537 25.1386 26.8092C25.7202 27.0218 26.713 27.5707 26.986 28.8849C28.8321 37.9062 28.7966 37.3938 28.7787 37.8209C28.7495 38.5266 28.3648 38.8277 27.4924 38.8277H24.435V33.3038C24.435 32.9801 24.1621 32.7177 23.8253 32.7177C23.4885 32.7177 23.2157 32.9801 23.2157 33.3038V38.8278H11.8489C11.5121 38.8278 11.2392 39.0902 11.2392 39.4139C11.2392 39.7377 11.5121 40 11.8489 40H27.4924C28.9986 40 29.9858 39.2034 29.9996 37.7684C30.0013 37.5406 30.0481 37.7691 28.1818 28.6557ZM23.0931 11.626C24.5691 12.0477 24.5619 13.6106 23.0931 14.0302V11.626ZM6.92987 14.0302C5.45819 13.6097 5.45697 12.0469 6.92987 11.626V14.0302ZM8.14921 15.2386C8.14921 14.7138 8.14921 11.3974 8.14921 10.8375C8.15733 10.8361 12.6144 10.7106 18.4811 8.45463L18.5283 8.43697C18.6466 8.40002 18.9355 8.34916 19.2544 8.58775L21.7538 10.4585C21.927 10.662 21.8738 10.5228 21.8738 15.3408C21.8738 17.9472 20.3082 20.2054 18.0145 21.2759C17.8677 21.3027 15.4446 22.5327 12.6155 21.5149C9.95107 20.5391 8.14921 18.02 8.14921 15.2386ZM17.5425 22.7233V23.3849L15.9875 26.9574L14.0327 26.9575C13.6518 26.0858 12.3779 23.1692 12.4586 23.353V22.7065C14.1414 23.2543 15.9376 23.2288 17.5425 22.7233ZM11.8072 28.1074C11.7902 28.1066 11.8472 28.219 10.6466 25.0006L11.5877 24.3889C11.9249 25.1638 12.7134 26.9752 12.8748 27.3463L11.8072 28.1074ZM15.2327 29.9881C15.101 30.0987 14.9023 30.0985 14.7709 29.9876L13.1444 28.6159L13.8301 28.1295H16.192L16.8706 28.6135L15.2327 29.9881ZM18.2158 28.1049C18.2049 28.1154 18.2242 28.1132 17.1402 27.3463C17.6201 26.2436 18.1676 24.9856 18.4274 24.3889L19.3684 25.0006L18.2158 28.1049Z" fill="#C28565"/>
</svg>
