<svg width="50" height="50" viewBox="0 0 50 50" fill="none" xmlns="http://www.w3.org/2000/svg">
<path d="M25 50C20.0555 50 15.222 48.5338 11.1108 45.7867C6.99952 43.0397 3.79521 39.1352 1.90302 34.5671C0.0108322 29.9989 -0.484251 24.9723 0.480379 20.1227C1.44501 15.2732 3.82603 10.8187 7.32234 7.32234C10.8187 3.82603 15.2732 1.44501 20.1227 0.480379C24.9723 -0.484251 29.9989 0.0108322 34.5671 1.90302C39.1352 3.79521 43.0397 6.99952 45.7867 11.1108C48.5338 15.222 50 20.0555 50 25C49.9924 31.6281 47.3561 37.9825 42.6693 42.6693C37.9825 47.3561 31.6281 49.9924 25 50ZM25 1.42858C20.338 1.42858 15.7807 2.81102 11.9044 5.40108C8.02812 7.99114 5.00692 11.6725 3.22285 15.9796C1.43878 20.2867 0.971992 25.0262 1.8815 29.5986C2.79101 34.171 5.03597 38.371 8.33249 41.6675C11.629 44.964 15.829 47.209 20.4014 48.1185C24.9739 49.028 29.7133 48.5612 34.0204 46.7772C38.3275 44.9931 42.0089 41.9719 44.5989 38.0956C47.189 34.2193 48.5714 29.662 48.5714 25C48.5642 18.7507 46.0785 12.7594 41.6596 8.34043C37.2406 3.92148 31.2493 1.43577 25 1.42858Z" fill="#AB6A49"/>
<path d="M24.0864 35.1243C20.8826 35.0098 17.7565 34.1069 14.985 32.4957C14.9011 32.4445 14.8287 32.3765 14.7722 32.296C14.7158 32.2155 14.6766 32.1242 14.6571 32.0279C12.1428 19.6179 20.8836 17.075 27.9107 15.0315C31.775 13.9072 35.1128 12.9365 35.73 10.6379C35.7746 10.4725 35.8771 10.3287 36.0189 10.2326C36.1606 10.1366 36.3322 10.0946 36.5023 10.1144C36.6724 10.1342 36.8297 10.2145 36.9456 10.3406C37.0615 10.4667 37.1282 10.6303 37.1335 10.8015C37.1557 11.5157 37.5843 28.38 30.34 33.2879C28.4901 34.5205 26.309 35.161 24.0864 35.1243ZM15.995 31.4286C17.4236 32.2143 24.3243 35.6379 29.5386 32.1057C34.61 28.6686 35.5328 18.0515 35.685 13.2486C34.0114 14.7486 31.2178 15.5593 28.3093 16.405C21.5714 18.3622 13.9478 20.58 15.995 31.4286Z" fill="#AB6A49"/>
<path d="M13.0365 39.3173C12.5667 36.5983 13.1761 33.8032 14.7351 31.5266C16.6901 27.2066 20.4986 25.9458 23.5622 24.9323C25.8322 24.1808 27.7929 23.5323 28.4686 21.8923L29.7893 22.4366C28.8608 24.683 26.5036 25.4623 24.0108 26.2887C21.0522 27.2673 17.6979 28.3773 16.0108 32.1758C15.9888 32.2249 15.9615 32.2714 15.9293 32.3144C14.5914 34.2822 14.0577 36.6876 14.4379 39.0366L13.0365 39.3173Z" fill="#AB6A49"/>
</svg>
