<svg width="36" height="50" viewBox="0 0 36 50" fill="none" xmlns="http://www.w3.org/2000/svg">
<path d="M33.8182 35.8196C33.3482 33.462 31.6345 32.496 30.655 32.1299C30.6389 32.124 30.6227 32.1186 30.6062 32.1137C30.4164 32.0576 25.0676 30.4777 24.4377 30.2917L22.5142 28.9892V27.7862C25.6161 26.1623 27.7117 22.911 27.7117 19.176V19.0407C29.3039 18.7461 30.5024 17.5106 30.5024 16.0351C30.5024 15.2339 30.1487 14.5035 29.5708 13.9561V7.63752C29.5708 4.12971 26.3996 1.44592 22.9283 2.06008C18.213 -1.47917 11.4287 -0.359738 8.13865 4.66243C7.91708 5.00081 8.01128 5.45491 8.34909 5.67698C8.68691 5.89885 9.14038 5.80442 9.36224 5.46624C11.0033 2.96087 13.7665 1.46526 16.7534 1.46526C18.7901 1.46526 20.704 2.14026 22.2881 3.41712C22.4652 3.55989 22.6988 3.61213 22.9196 3.55833C25.5735 2.91253 28.1078 4.93313 28.1078 7.63752V13.1247C27.9614 13.0815 27.8108 13.046 27.6565 13.0197C27.5472 12.5368 27.2613 12.1183 27.0458 11.9498L24.0043 9.57844C23.2557 8.99494 22.2905 8.90969 21.648 9.20217C14.2787 12.0548 9.86204 12.0548 9.64281 12.0863C9.09269 12.139 8.55057 12.4641 8.37543 13.0191C8.21978 13.0454 8.06775 13.081 7.9201 13.1246C7.96086 10.7623 7.80317 9.86057 8.13104 8.38313C8.21861 7.98821 7.97013 7.5968 7.57565 7.50911C7.18118 7.42112 6.79032 7.67024 6.70284 8.06526C6.31753 9.80149 6.50712 10.8299 6.45699 13.9558C5.87918 14.5032 5.52557 15.2335 5.52557 16.0347C5.52557 17.5102 6.724 18.7457 8.31613 19.0403V19.048C8.31613 22.6263 10.2746 26.007 13.4875 27.7435V29.0002L11.5938 30.2825C11.4442 30.3268 5.39342 32.1125 5.34661 32.1297C4.36701 32.4957 2.65347 33.4618 2.18332 35.8197L0.051315 46.5402C0.0486819 46.5535 0.0463414 46.5668 0.0444885 46.5802C-0.237543 48.5718 0.829631 50 3.0104 50H10.8045C11.2086 50 11.5361 49.6721 11.5361 49.2674C11.5361 48.8627 11.2086 48.5348 10.8045 48.5348H8.16849V41.6298C8.16849 41.2251 7.84101 40.8972 7.43688 40.8972C7.03276 40.8972 6.70528 41.2251 6.70528 41.6298V48.5348H3.0102C2.01188 48.5348 1.47239 48.1988 1.46479 47.1991C1.46069 46.7008 1.43894 47.1971 3.61766 36.1065C3.94524 34.4635 5.13665 33.7772 5.83461 33.5114C6.08368 33.4379 11.3295 31.8883 11.4382 31.8563L12.7794 35.6201C13.0427 36.3587 13.7928 36.7086 14.4641 36.569L16.7598 38.5858C17.4639 39.2046 18.5309 39.2098 19.2412 38.5889L21.5522 36.5687C22.2421 36.7125 22.9809 36.3425 23.2382 35.62L24.5779 31.8608C25.266 32.064 28.6619 33.0671 30.1663 33.5114C30.8642 33.7773 32.0556 34.4634 32.3832 36.1062C34.5985 47.3827 34.5559 46.7422 34.5344 47.2762C34.4994 48.1583 34.0377 48.5347 32.9908 48.5347H29.322V41.6298C29.322 41.2251 28.9945 40.8972 28.5904 40.8972C28.1863 40.8972 27.8588 41.2251 27.8588 41.6298V48.5348H14.2187C13.8146 48.5348 13.4871 48.8627 13.4871 49.2674C13.4871 49.6721 13.8146 50 14.2187 50H32.9909C34.7983 50 35.983 49.0042 35.9996 47.2105C36.0016 46.9258 36.0578 47.2114 33.8182 35.8196ZM27.7117 14.5324C29.4829 15.0596 29.4743 17.0132 27.7117 17.5377V14.5324ZM8.31584 17.5377C6.54983 17.0121 6.54837 15.0586 8.31584 14.5324V17.5377ZM9.77905 19.0483C9.77905 18.3922 9.77905 14.2467 9.77905 13.5469C9.7888 13.5451 15.1372 13.3882 22.1773 10.5683L22.234 10.5462C22.3759 10.5 22.7226 10.4364 23.1053 10.7347L26.1046 13.0731C26.3124 13.3275 26.2486 13.1535 26.2486 19.176C26.2486 22.434 24.3699 25.2568 21.6174 26.5949C21.4412 26.6284 18.5335 28.1659 15.1386 26.8936C11.9413 25.6738 9.77905 22.525 9.77905 19.0483ZM21.051 28.4041V29.2311L19.1851 33.6968L16.8393 33.6969C16.3822 32.6072 14.8535 28.9615 14.9503 29.1912V28.3831C16.9697 29.0679 19.1252 29.036 21.051 28.4041ZM14.1687 35.1342C14.1482 35.1332 14.2166 35.2737 12.776 31.2508L13.9053 30.4861C14.3099 31.4547 15.256 33.719 15.4498 34.1828L14.1687 35.1342ZM18.2792 37.4851C18.1212 37.6233 17.8828 37.6232 17.7251 37.4845L15.7733 35.7698L16.5961 35.1619H19.4304L20.2447 35.7669L18.2792 37.4851ZM21.859 35.1312C21.8459 35.1442 21.869 35.1415 20.5683 34.1828C21.1442 32.8045 21.8012 31.232 22.1128 30.4861L23.242 31.2508L21.859 35.1312Z" fill="#C28565"/>
</svg>
