<svg width="40" height="40" viewBox="0 0 40 40" fill="none" xmlns="http://www.w3.org/2000/svg">
<path d="M16.3365 8.1544L15.673 12.022C15.6545 12.1302 15.6667 12.2415 15.7081 12.3432C15.7495 12.4449 15.8185 12.533 15.9074 12.5976C15.9963 12.6621 16.1014 12.7005 16.211 12.7084C16.3205 12.7163 16.4301 12.6935 16.5273 12.6424L20.0005 10.8164L23.4734 12.6424C23.5706 12.6935 23.6802 12.7163 23.7898 12.7084C23.8993 12.7005 24.0044 12.6621 24.0933 12.5976C24.1822 12.533 24.2512 12.4449 24.2926 12.3432C24.334 12.2415 24.3462 12.1302 24.3277 12.022L23.6645 8.1544L26.4746 5.41565C26.5533 5.33892 26.6089 5.24172 26.6352 5.13504C26.6615 5.02836 26.6575 4.91645 26.6235 4.81194C26.5896 4.70744 26.5271 4.61451 26.4431 4.54366C26.3591 4.47281 26.257 4.42686 26.1482 4.411L22.2649 3.8471L20.5284 0.328444C20.4799 0.22987 20.4047 0.14686 20.3114 0.0888129C20.2181 0.0307655 20.1104 0 20.0005 0C19.8906 0 19.783 0.0307655 19.6897 0.0888129C19.5964 0.14686 19.5212 0.22987 19.4726 0.328444L17.7358 3.8471L13.8528 4.411C13.7441 4.42679 13.6419 4.47268 13.5579 4.5435C13.4739 4.61432 13.4114 4.70722 13.3775 4.81171C13.3435 4.91621 13.3395 5.02811 13.3658 5.13478C13.3921 5.24145 13.4478 5.33863 13.5264 5.41532L16.3365 8.1544ZM18.2116 4.96783C18.306 4.95403 18.3956 4.91751 18.4728 4.86143C18.55 4.80535 18.6124 4.73137 18.6547 4.64584L20.0005 1.92055L21.3463 4.64584C21.3886 4.73137 21.4511 4.80535 21.5282 4.86143C21.6054 4.91751 21.6951 4.95403 21.7895 4.96783L24.7987 5.40522L22.6212 7.52725C22.553 7.59398 22.502 7.67628 22.4727 7.76707C22.4434 7.85786 22.4366 7.95442 22.453 8.04842L22.9667 11.0449L20.2751 9.63178C20.1906 9.58737 20.0965 9.56416 20.001 9.56416C19.9056 9.56416 19.8115 9.58737 19.727 9.63178L17.0353 11.0449L17.5494 8.04842C17.5657 7.95442 17.5588 7.85789 17.5295 7.76711C17.5002 7.67634 17.4493 7.59403 17.3812 7.52725L15.204 5.40522L18.2116 4.96783Z" fill="#AB6A49"/>
<path d="M39.9717 6.17167C39.9377 6.06723 39.8752 5.97437 39.7913 5.90356C39.7074 5.83276 39.6053 5.78682 39.4966 5.77095L36.4127 5.32279L35.0332 2.53021C34.9845 2.43175 34.9093 2.34887 34.8159 2.29093C34.7226 2.23298 34.615 2.20227 34.5051 2.20227C34.3953 2.20227 34.2876 2.23298 34.1943 2.29093C34.101 2.34887 34.0258 2.43175 33.9771 2.53021L32.5976 5.32447L29.5137 5.77263C29.4049 5.78847 29.3028 5.83441 29.2189 5.90524C29.1349 5.97608 29.0725 6.06899 29.0385 6.17348C29.0046 6.27796 29.0006 6.38985 29.027 6.49649C29.0533 6.60314 29.109 6.70028 29.1876 6.77695L31.419 8.95214L30.8924 12.0236C30.8739 12.1319 30.8861 12.2432 30.9275 12.3449C30.9689 12.4466 31.038 12.5347 31.1268 12.5993C31.2157 12.6638 31.3208 12.7022 31.4304 12.7101C31.5399 12.718 31.6495 12.6952 31.7467 12.6441L34.5056 11.1939L37.2646 12.6441C37.3618 12.6952 37.4714 12.718 37.5809 12.7101C37.6905 12.7022 37.7956 12.6638 37.8845 12.5993C37.9733 12.5347 38.0424 12.4466 38.0838 12.3449C38.1252 12.2432 38.1373 12.1319 38.1188 12.0236L37.5919 8.95214L39.8237 6.77695C39.9025 6.70003 39.9582 6.60252 39.9844 6.49551C40.0105 6.38851 40.0062 6.2763 39.9717 6.17167ZM36.5479 8.32498C36.4797 8.39171 36.4288 8.47401 36.3995 8.56481C36.3702 8.6556 36.3634 8.75215 36.3797 8.84615L36.7569 11.0466L34.7799 10.0073C34.6953 9.96285 34.6013 9.93964 34.5058 9.93964C34.4103 9.93964 34.3163 9.96285 34.2318 10.0073L32.2554 11.0462L32.6329 8.84582C32.6492 8.75182 32.6424 8.65526 32.6131 8.56447C32.5838 8.47368 32.5329 8.39137 32.4647 8.32465L30.8655 6.76618L33.075 6.44521C33.1695 6.43145 33.2592 6.39496 33.3364 6.33888C33.4137 6.28279 33.4762 6.20878 33.5185 6.12322L34.5067 4.12097L35.4948 6.12322C35.5371 6.20874 35.5995 6.28272 35.6767 6.33881C35.7539 6.39489 35.8435 6.4314 35.9379 6.44521L38.1478 6.76618L36.5479 8.32498Z" fill="#AB6A49"/>
<path d="M8.52692 12.71C8.61266 12.71 8.69738 12.6914 8.77515 12.6552C8.85292 12.6191 8.92185 12.5665 8.97714 12.5009C9.03242 12.4354 9.07272 12.3586 9.0952 12.2758C9.11768 12.1931 9.12181 12.1064 9.1073 12.0219L8.58075 8.95042L10.8125 6.77523C10.8911 6.69854 10.9468 6.60137 10.9731 6.4947C10.9994 6.38803 10.9954 6.27612 10.9615 6.17163C10.9275 6.06713 10.865 5.97423 10.781 5.90341C10.697 5.8326 10.5948 5.7867 10.4861 5.77091L7.40215 5.32275L6.02268 2.53017C5.97404 2.4317 5.89882 2.3488 5.80553 2.29083C5.71225 2.23287 5.60461 2.20215 5.49478 2.20215C5.38495 2.20215 5.27731 2.23287 5.18403 2.29083C5.09074 2.3488 5.01552 2.4317 4.96688 2.53017L3.58741 5.32443L0.50447 5.77091C0.395713 5.78665 0.293529 5.83251 0.209481 5.9033C0.125432 5.9741 0.0628727 6.067 0.0288793 6.1715C-0.00511407 6.276 -0.00918452 6.38793 0.0171284 6.49462C0.0434414 6.60132 0.0990876 6.69852 0.177772 6.77523L2.40948 8.95042L1.88259 12.0219C1.86409 12.1302 1.87623 12.2414 1.91765 12.3432C1.95907 12.4449 2.02811 12.533 2.11697 12.5975C2.20583 12.6621 2.31098 12.7005 2.42052 12.7084C2.53006 12.7163 2.63963 12.6934 2.73685 12.6423L5.49579 11.1922L8.25473 12.6423C8.33866 12.6866 8.43205 12.7098 8.52692 12.71ZM5.76798 10.0072C5.68346 9.96281 5.58942 9.9396 5.49394 9.9396C5.39846 9.9396 5.30441 9.96281 5.2199 10.0072L3.24456 11.0449L3.62207 8.84443C3.63829 8.75043 3.63145 8.6539 3.60215 8.56312C3.57285 8.47235 3.52196 8.39004 3.45384 8.32326L1.855 6.7648L4.06417 6.44382C4.15865 6.43012 4.24839 6.39366 4.32564 6.33756C4.40289 6.28147 4.46535 6.20743 4.50762 6.12183L5.49512 4.11925L6.48329 6.1215C6.52556 6.2071 6.58801 6.28113 6.66527 6.33723C6.74252 6.39332 6.83225 6.42979 6.92673 6.44348L9.1359 6.76446L7.53707 8.32494C7.46885 8.39165 7.4179 8.47396 7.38859 8.56475C7.35928 8.65555 7.3525 8.75211 7.36884 8.84611L7.746 11.0465L5.76798 10.0072Z" fill="#AB6A49"/>
<path d="M32.3166 26.8507C32.3158 26.2188 32.0645 25.6131 31.6178 25.1663C31.171 24.7196 30.5653 24.4683 29.9334 24.4675H22.6721V16.719C22.6721 16.0102 22.3905 15.3304 21.8893 14.8293C21.3881 14.3281 20.7084 14.0465 19.9996 14.0465C19.2908 14.0465 18.611 14.3281 18.1099 14.8293C17.6087 15.3304 17.3271 16.0102 17.3271 16.719V18.196C17.3289 19.0434 17.0587 19.8689 16.5563 20.5512L13.6833 24.4675H8.27141C8.11526 24.4675 7.96549 24.5296 7.85507 24.64C7.74465 24.7504 7.68262 24.9002 7.68262 25.0563V39.4112C7.68262 39.5674 7.74465 39.7171 7.85507 39.8276C7.96549 39.938 8.11526 40 8.27141 40H28.9241C29.3912 40.0002 29.8481 39.8631 30.2379 39.6057C30.6277 39.3483 30.9332 38.982 31.1164 38.5523C31.2997 38.1226 31.3525 37.6485 31.2684 37.189C31.1843 36.7295 30.9669 36.3049 30.6434 35.9679C30.922 35.7696 31.1547 35.5136 31.3255 35.2172C31.4964 34.9209 31.6013 34.5912 31.6332 34.2507C31.6652 33.9101 31.6233 33.5667 31.5106 33.2437C31.3978 32.9208 31.2168 32.626 30.9798 32.3793C31.2585 32.181 31.4912 31.9249 31.662 31.6286C31.8328 31.3323 31.9378 31.0026 31.9697 30.662C32.0016 30.3215 31.9598 29.978 31.847 29.6551C31.7343 29.3322 31.5532 29.0373 31.3163 28.7907C31.6256 28.5705 31.8778 28.2795 32.0518 27.942C32.2258 27.6045 32.3165 27.2304 32.3166 26.8507ZM8.86021 25.6451H13.3929V38.8224H8.86021V25.6451ZM29.9334 28.0562H29.597C29.4408 28.0562 29.2911 28.1182 29.1806 28.2286C29.0702 28.3391 29.0082 28.4888 29.0082 28.645C29.0082 28.8011 29.0702 28.9509 29.1806 29.0613C29.2911 29.1717 29.4408 29.2338 29.597 29.2338C29.9133 29.2391 30.2148 29.3684 30.4366 29.5939C30.6584 29.8195 30.7827 30.1231 30.7827 30.4395C30.7827 30.7558 30.6584 31.0595 30.4366 31.285C30.2148 31.5105 29.9133 31.6399 29.597 31.6452H29.2605C29.1044 31.6452 28.9546 31.7072 28.8442 31.8176C28.7338 31.928 28.6717 32.0778 28.6717 32.234C28.6717 32.3901 28.7338 32.5399 28.8442 32.6503C28.9546 32.7607 29.1044 32.8228 29.2605 32.8228C29.5802 32.8228 29.8869 32.9498 30.113 33.1758C30.339 33.4019 30.466 33.7085 30.466 34.0283C30.466 34.348 30.339 34.6546 30.113 34.8807C29.8869 35.1068 29.5802 35.2338 29.2605 35.2338H28.9241C28.7679 35.2338 28.6181 35.2958 28.5077 35.4062C28.3973 35.5167 28.3353 35.6664 28.3353 35.8226C28.3353 35.9788 28.3973 36.1285 28.5077 36.2389C28.6181 36.3494 28.7679 36.4114 28.9241 36.4114C29.2438 36.4114 29.5504 36.5384 29.7765 36.7645C30.0026 36.9906 30.1296 37.2972 30.1296 37.6169C30.1296 37.9366 30.0026 38.2433 29.7765 38.4693C29.5504 38.6954 29.2438 38.8224 28.9241 38.8224H14.5705V25.2488L17.5058 21.2467C18.1568 20.3628 18.5069 19.2934 18.5047 18.1957V16.7186C18.5047 16.3222 18.6622 15.9419 18.9425 15.6616C19.2229 15.3813 19.6031 15.2238 19.9996 15.2238C20.396 15.2238 20.7763 15.3813 21.0566 15.6616C21.337 15.9419 21.4945 16.3222 21.4945 16.7186V25.056C21.4945 25.2122 21.5565 25.3619 21.6669 25.4724C21.7773 25.5828 21.9271 25.6448 22.0833 25.6448H29.9334C30.2532 25.6448 30.5598 25.7718 30.7859 25.9979C31.0119 26.224 31.139 26.5306 31.139 26.8503C31.139 27.1701 31.0119 27.4767 30.7859 27.7028C30.5598 27.9288 30.2532 28.0562 29.9334 28.0562Z" fill="#AB6A49"/>
</svg>
