<svg width="30" height="40" viewBox="0 0 30 40" fill="none" xmlns="http://www.w3.org/2000/svg">
<path d="M6.72597 26.7737L2.13723 37.1273C2.1034 37.2033 2.09412 37.2875 2.11061 37.3687C2.12709 37.4499 2.16858 37.5244 2.22955 37.5821C2.29052 37.6399 2.36809 37.6782 2.45197 37.692C2.53585 37.7059 2.62207 37.6945 2.69918 37.6596L7.85072 35.333L10.5892 39.7992C10.6263 39.8598 10.679 39.9101 10.7421 39.945C10.8052 39.9799 10.8765 39.9983 10.949 39.9984H10.9884C11.0674 39.9912 11.1426 39.9624 11.2054 39.9153C11.2682 39.8682 11.316 39.8047 11.3432 39.7322L15.0337 29.9215L19.2936 39.7502C19.3257 39.8243 19.3794 39.8875 19.4482 39.9319C19.517 39.9763 19.5977 40 19.6803 40C19.7634 39.9994 19.8444 39.9748 19.9131 39.9293C19.9818 39.8838 20.035 39.8195 20.0661 39.7445L22.1101 34.7942L27.9268 37.6538C28.0036 37.6916 28.0904 37.7054 28.1756 37.6934C28.2607 37.6815 28.34 37.6444 28.4027 37.5871C28.4655 37.5297 28.5086 37.4551 28.5262 37.3731C28.5438 37.2912 28.5351 37.2059 28.5013 37.1289L23.7951 26.4259C26.3849 24.6014 28.3081 22.0192 29.284 19.0561C30.26 16.093 30.2377 12.9038 29.2204 9.95388C28.203 7.00394 26.244 4.44752 23.6289 2.65751C21.0138 0.867492 17.8795 -0.062473 14.6831 0.00325946C11.4868 0.0689919 8.39565 1.12698 5.86057 3.02291C3.32549 4.91884 1.47911 7.55352 0.590733 10.5426C-0.29764 13.5318 -0.181525 16.719 0.922141 19.6394C2.02581 22.5597 4.05928 25.0605 6.72597 26.7769V26.7737ZM10.8584 38.6457L8.37744 34.5991C8.32463 34.5118 8.24034 34.4467 8.14098 34.4166C8.04161 34.3864 7.93426 34.3932 7.83981 34.4358L3.34334 36.4693L7.45315 27.2055C9.57279 28.4157 11.9674 29.0961 14.4231 29.1859L10.8584 38.6457ZM27.2725 36.4187L22.0875 33.8628C22.0357 33.8379 21.9792 33.8235 21.9215 33.8206C21.8638 33.8176 21.8062 33.8261 21.752 33.8456C21.6976 33.8655 21.648 33.8961 21.6064 33.9356C21.5649 33.9751 21.5322 34.0226 21.5104 34.075L19.6761 38.5183L15.6292 29.1851C18.2822 29.0841 20.8593 28.2949 23.094 26.8994L27.2725 36.4187ZM15.0102 0.814035C17.8137 0.814035 20.5542 1.62317 22.8852 3.13911C25.2162 4.65505 27.033 6.80971 28.1059 9.33063C29.1787 11.8515 29.4594 14.6255 28.9125 17.3017C28.3656 19.9779 27.0156 22.4361 25.0332 24.3655C23.0508 26.295 20.5252 27.6089 17.7755 28.1412C15.0259 28.6736 12.1759 28.4004 9.58577 27.3562C6.99569 26.312 4.78191 24.5437 3.22437 22.2749C1.66684 20.0062 0.835507 17.3388 0.835507 14.6102C0.838839 10.9522 2.33331 7.44499 4.99085 4.85841C7.6484 2.27184 11.2519 0.817278 15.0102 0.814035Z" fill="#AB6A49"/>
<path d="M11.4072 15.7455L10.6993 19.7529C10.6862 19.828 10.695 19.9053 10.7246 19.9758C10.7543 20.0464 10.8036 20.1074 10.8671 20.1521C10.93 20.1975 11.0049 20.2245 11.083 20.23C11.1612 20.2355 11.2393 20.2192 11.3083 20.1831L15.0096 18.2925L18.711 20.1864C18.7709 20.218 18.8382 20.2343 18.9064 20.2337C18.9952 20.2329 19.0814 20.2043 19.1521 20.1521C19.2156 20.1074 19.265 20.0464 19.2946 19.9758C19.3242 19.9053 19.333 19.828 19.3199 19.7529L18.6162 15.7455L21.6105 12.9054C21.6668 12.8524 21.7067 12.785 21.7256 12.711C21.7446 12.637 21.7419 12.5593 21.7178 12.4867C21.6937 12.4141 21.6492 12.3495 21.5893 12.3003C21.5294 12.2511 21.4565 12.2192 21.379 12.2083L17.2398 11.623L15.3896 7.97391C15.3511 7.90971 15.296 7.85645 15.2297 7.81943C15.1635 7.78242 15.0885 7.76294 15.0121 7.76294C14.9358 7.76294 14.8607 7.78242 14.7945 7.81943C14.7283 7.85645 14.6732 7.90971 14.6347 7.97391L12.7844 11.623L8.64526 12.2083C8.5677 12.2192 8.49484 12.2511 8.43496 12.3003C8.37507 12.3495 8.33056 12.4141 8.30646 12.4867C8.28235 12.5593 8.27963 12.637 8.2986 12.711C8.31757 12.785 8.35746 12.8524 8.41376 12.9054L11.4072 15.7455ZM13.1224 12.3985C13.1896 12.3889 13.2534 12.3637 13.3083 12.3249C13.3633 12.286 13.4077 12.2348 13.4378 12.1756L15.0096 9.07679L16.5814 12.1789C16.6115 12.2381 16.6559 12.2893 16.7109 12.3281C16.7658 12.3669 16.8296 12.3922 16.8968 12.4017L20.4128 12.8989L17.8689 15.312C17.8201 15.3582 17.7836 15.4153 17.7626 15.4783C17.7415 15.5413 17.7365 15.6083 17.7481 15.6736L18.3486 19.081L15.2042 17.4671C15.1441 17.4365 15.0774 17.4205 15.0096 17.4205C14.9418 17.4205 14.8751 17.4365 14.815 17.4671L11.6706 19.0761L12.2711 15.6687C12.2827 15.6034 12.2777 15.5364 12.2566 15.4734C12.2356 15.4104 12.1991 15.3533 12.1503 15.3071L9.60645 12.8956L13.1224 12.3985Z" fill="#AB6A49"/>
</svg>
