<svg width="40" height="40" viewBox="0 0 40 40" fill="none" xmlns="http://www.w3.org/2000/svg">
<path d="M20 40C16.0444 40 12.1776 38.827 8.8886 36.6294C5.59962 34.4318 3.03617 31.3082 1.52242 27.6537C0.00866576 23.9991 -0.387401 19.9778 0.384303 16.0982C1.15601 12.2186 3.06082 8.65492 5.85787 5.85787C8.65492 3.06082 12.2186 1.15601 16.0982 0.384303C19.9778 -0.387401 23.9991 0.00866576 27.6537 1.52242C31.3082 3.03617 34.4318 5.59962 36.6294 8.8886C38.827 12.1776 40 16.0444 40 20C39.9939 25.3025 37.8849 30.386 34.1355 34.1355C30.386 37.8849 25.3025 39.9939 20 40ZM20 1.14287C16.2704 1.14287 12.6246 2.24882 9.52354 4.32087C6.4225 6.39292 4.00553 9.338 2.57828 12.7837C1.15103 16.2294 0.777594 20.0209 1.5052 23.6788C2.23281 27.3368 4.02878 30.6968 6.66599 33.334C9.30321 35.9712 12.6632 37.7672 16.3212 38.4948C19.9791 39.2224 23.7706 38.849 27.2163 37.4217C30.662 35.9945 33.6071 33.5775 35.6791 30.4765C37.7512 27.3754 38.8571 23.7296 38.8571 20C38.8514 15.0005 36.8628 10.2075 33.3277 6.67234C29.7925 3.13719 24.9995 1.14861 20 1.14287Z" fill="#AB6A49"/>
<path d="M19.2695 28.0998C16.7065 28.0081 14.2056 27.2858 11.9884 25.9969C11.9213 25.9559 11.8633 25.9015 11.8182 25.8371C11.7731 25.7727 11.7417 25.6997 11.7261 25.6226C9.71469 15.6946 16.7073 13.6603 22.329 12.0255C25.4204 11.1261 28.0907 10.3495 28.5844 8.51063C28.6201 8.37835 28.7021 8.26329 28.8155 8.18643C28.9289 8.10956 29.0662 8.076 29.2022 8.09186C29.3383 8.10771 29.4642 8.17194 29.5569 8.27283C29.6496 8.37371 29.7029 8.50455 29.7072 8.64148C29.725 9.21291 30.0678 22.7043 24.2724 26.6306C22.7925 27.6167 21.0476 28.1291 19.2695 28.0998ZM12.7964 25.1432C13.9393 25.7718 19.4598 28.5106 23.6313 25.6849C27.6884 22.9352 28.4267 14.4415 28.5484 10.5992C27.2095 11.7992 24.9747 12.4478 22.6478 13.1243C17.2575 14.6901 11.1587 16.4643 12.7964 25.1432Z" fill="#AB6A49"/>
<path d="M10.4285 31.4537C10.0526 29.2785 10.5401 27.0424 11.7874 25.2211C13.3514 21.7651 16.3982 20.7565 18.8491 19.9457C20.6651 19.3445 22.2336 18.8257 22.7742 17.5137L23.8308 17.9491C23.0879 19.7462 21.2022 20.3697 19.2079 21.0308C16.8411 21.8137 14.1576 22.7017 12.8079 25.7405C12.7904 25.7798 12.7685 25.817 12.7428 25.8514C11.6724 27.4256 11.2454 29.3499 11.5496 31.2291L10.4285 31.4537Z" fill="#AB6A49"/>
</svg>
