<svg width="50" height="50" viewBox="0 0 50 50" fill="none" xmlns="http://www.w3.org/2000/svg">
<path d="M20.4201 10.193L19.5908 15.0275C19.5677 15.1628 19.5828 15.3019 19.6346 15.429C19.6864 15.5562 19.7727 15.6663 19.8838 15.747C19.9948 15.8277 20.1263 15.8757 20.2632 15.8856C20.4001 15.8955 20.5371 15.8669 20.6586 15.803L25.0002 13.5206L29.3413 15.803C29.4628 15.8669 29.5998 15.8955 29.7367 15.8856C29.8736 15.8757 30.0051 15.8277 30.1161 15.747C30.2272 15.6663 30.3135 15.5562 30.3653 15.429C30.4171 15.3019 30.4322 15.1628 30.4091 15.0275L29.5802 10.193L33.0928 6.76958C33.1911 6.67367 33.2606 6.55217 33.2935 6.41882C33.3264 6.28546 33.3213 6.14557 33.2789 6.01494C33.2365 5.88431 33.1583 5.76815 33.0534 5.67959C32.9484 5.59102 32.8207 5.53358 32.6848 5.51376L27.8306 4.80888L25.66 0.410555C25.5993 0.287338 25.5054 0.183576 25.3887 0.111016C25.2721 0.038457 25.1375 0 25.0002 0C24.8628 0 24.7282 0.038457 24.6116 0.111016C24.4949 0.183576 24.401 0.287338 24.3403 0.410555L22.1693 4.80888L17.3155 5.51376C17.1796 5.53349 17.0519 5.59087 16.9469 5.67939C16.8419 5.7679 16.7637 5.88404 16.7213 6.01465C16.6789 6.14527 16.6738 6.28515 16.7067 6.41849C16.7396 6.55183 16.8092 6.6733 16.9075 6.76916L20.4201 10.193ZM22.764 6.2098C22.882 6.19254 22.994 6.1469 23.0905 6.0768C23.187 6.00669 23.265 5.91422 23.3179 5.80731L25.0002 2.40069L26.6824 5.80731C26.7353 5.91422 26.8133 6.00669 26.9098 6.0768C27.0063 6.1469 27.1183 6.19254 27.2363 6.2098L30.9979 6.75654L28.276 9.40908C28.1907 9.49249 28.1271 9.59537 28.0904 9.70886C28.0538 9.82234 28.0453 9.94304 28.0657 10.0605L28.7079 13.8061L25.3433 12.0397C25.2377 11.9842 25.1201 11.9552 25.0008 11.9552C24.8814 11.9552 24.7639 11.9842 24.6582 12.0397L21.2937 13.8061L21.9363 10.0605C21.9566 9.94304 21.948 9.82238 21.9114 9.70891C21.8748 9.59544 21.8112 9.49255 21.726 9.40908L19.0045 6.75654L22.764 6.2098Z" fill="#AB6A49"/>
<path d="M49.964 7.71456C49.9215 7.58402 49.8434 7.46794 49.7385 7.37943C49.6335 7.29093 49.5059 7.23351 49.3701 7.21366L45.5152 6.65346L43.7908 3.16273C43.7299 3.03966 43.6359 2.93606 43.5192 2.86363C43.4026 2.79119 43.268 2.75281 43.1307 2.75281C42.9934 2.75281 42.8589 2.79119 42.7422 2.86363C42.6256 2.93606 42.5315 3.03966 42.4706 3.16273L40.7463 6.65557L36.8914 7.21577C36.7555 7.23557 36.6279 7.29299 36.5229 7.38153C36.418 7.47008 36.3399 7.58622 36.2975 7.71682C36.2551 7.84743 36.2501 7.98729 36.283 8.12059C36.3159 8.2539 36.3855 8.37533 36.4838 8.47117L39.2731 11.1902L38.6149 15.0295C38.5917 15.1649 38.6069 15.304 38.6587 15.4311C38.7105 15.5583 38.7968 15.6684 38.9078 15.7491C39.0189 15.8297 39.1503 15.8777 39.2873 15.8876C39.4242 15.8975 39.5612 15.8689 39.6827 15.8051L43.1314 13.9924L46.58 15.8051C46.7016 15.8689 46.8385 15.8975 46.9755 15.8876C47.1124 15.8777 47.2438 15.8297 47.3549 15.7491C47.466 15.6684 47.5523 15.5583 47.604 15.4311C47.6558 15.304 47.671 15.1649 47.6479 15.0295L46.9893 11.1902L49.7789 8.47117C49.8775 8.37502 49.9471 8.25313 49.9798 8.11937C50.0125 7.98561 50.007 7.84536 49.964 7.71456ZM45.6842 10.4062C45.599 10.4896 45.5353 10.5925 45.4987 10.706C45.462 10.8195 45.4536 10.9402 45.4739 11.0577L45.9454 13.8082L43.4741 12.5091C43.3685 12.4535 43.2509 12.4245 43.1316 12.4245C43.0122 12.4245 42.8947 12.4535 42.789 12.5091L40.3186 13.8078L40.7905 11.0573C40.8109 10.9398 40.8024 10.8191 40.7657 10.7056C40.7291 10.5921 40.6654 10.4892 40.5802 10.4058L38.5812 8.45771L41.3431 8.05649C41.4612 8.03929 41.5733 7.99368 41.6699 7.92358C41.7664 7.85347 41.8445 7.76096 41.8974 7.654L43.1326 5.15119L44.3678 7.654C44.4207 7.7609 44.4987 7.85338 44.5952 7.92349C44.6917 7.99359 44.8037 8.03923 44.9217 8.05649L47.684 8.45771L45.6842 10.4062Z" fill="#AB6A49"/>
<path d="M10.6587 15.8875C10.7658 15.8876 10.8717 15.8642 10.969 15.8191C11.0662 15.7739 11.1523 15.7081 11.2214 15.6262C11.2905 15.5443 11.3409 15.4482 11.369 15.3448C11.3971 15.2414 11.4023 15.1331 11.3842 15.0274L10.726 11.188L13.5156 8.46905C13.6139 8.37318 13.6835 8.25172 13.7164 8.11838C13.7493 7.98504 13.7443 7.84516 13.7018 7.71454C13.6594 7.58393 13.5813 7.46779 13.4762 7.37927C13.3712 7.29075 13.2436 7.23338 13.1076 7.21364L9.2527 6.65344L7.52836 3.16271C7.46756 3.03962 7.37354 2.936 7.25693 2.86354C7.14032 2.79108 7.00577 2.75269 6.86849 2.75269C6.7312 2.75269 6.59665 2.79108 6.48004 2.86354C6.36344 2.936 6.26942 3.03962 6.20861 3.16271L4.48427 6.65555L0.630589 7.21364C0.494642 7.23332 0.366912 7.29064 0.261851 7.37914C0.156791 7.46763 0.078591 7.58376 0.0360992 7.71438C-0.0063926 7.84501 -0.0114807 7.98492 0.0214106 8.11829C0.0543018 8.25165 0.12386 8.37316 0.222215 8.46905L3.01186 11.188L2.35325 15.0274C2.33012 15.1627 2.34529 15.3018 2.39707 15.429C2.44884 15.5561 2.53514 15.6663 2.64622 15.7469C2.7573 15.8276 2.88873 15.8756 3.02565 15.8855C3.16258 15.8954 3.29954 15.8668 3.42107 15.803L6.86975 13.9903L10.3184 15.803C10.4233 15.8582 10.5401 15.8872 10.6587 15.8875ZM7.20999 12.509C7.10434 12.4535 6.98678 12.4245 6.86744 12.4245C6.74809 12.4245 6.63053 12.4535 6.52488 12.509L4.05571 13.8061L4.52759 11.0556C4.54787 10.9381 4.53932 10.8174 4.5027 10.7039C4.46607 10.5904 4.40245 10.4876 4.31731 10.4041L2.31876 8.45601L5.08022 8.05478C5.19832 8.03766 5.31049 7.99208 5.40706 7.92196C5.50362 7.85185 5.58169 7.7593 5.63453 7.6523L6.86891 5.14906L8.10412 7.65188C8.15697 7.75888 8.23503 7.85143 8.3316 7.92154C8.42816 7.99166 8.54033 8.03724 8.65843 8.05436L11.4199 8.45559L9.42135 10.4062C9.33608 10.4896 9.27239 10.5925 9.23575 10.706C9.19912 10.8195 9.19064 10.9402 9.21106 11.0577L9.68252 13.8082L7.20999 12.509Z" fill="#AB6A49"/>
<path d="M40.3963 33.5633C40.3954 32.7736 40.0812 32.0164 39.5228 31.4579C38.9643 30.8995 38.2071 30.5853 37.4174 30.5844H28.3406V20.8987C28.3406 20.0127 27.9887 19.163 27.3622 18.5365C26.7357 17.9101 25.886 17.5581 25 17.5581C24.114 17.5581 23.2644 17.9101 22.6379 18.5365C22.0114 19.163 21.6594 20.0127 21.6594 20.8987V22.745C21.6617 23.8042 21.324 24.8361 20.6959 25.689L17.1047 30.5844H10.3398C10.1446 30.5844 9.95739 30.662 9.81936 30.8C9.68133 30.938 9.60379 31.1252 9.60379 31.3204V49.2641C9.60379 49.4593 9.68133 49.6465 9.81936 49.7845C9.95739 49.9225 10.1446 50.0001 10.3398 50.0001H36.1557C36.7396 50.0003 37.3107 49.8289 37.7979 49.5072C38.2852 49.1854 38.6671 48.7275 38.8961 48.1903C39.1251 47.6532 39.1912 47.0606 39.0861 46.4863C38.9809 45.9119 38.7092 45.3811 38.3048 44.9599C38.6531 44.712 38.944 44.392 39.1575 44.0216C39.371 43.6511 39.5022 43.239 39.5421 42.8133C39.582 42.3876 39.5297 41.9583 39.3888 41.5547C39.2478 41.151 39.0216 40.7825 38.7253 40.4741C39.0737 40.2262 39.3645 39.9062 39.5781 39.5358C39.7916 39.1653 39.9228 38.7532 39.9627 38.3275C40.0026 37.9018 39.9503 37.4725 39.8094 37.0689C39.6684 36.6652 39.4421 36.2967 39.1459 35.9883C39.5326 35.7131 39.8478 35.3494 40.0653 34.9275C40.2828 34.5057 40.3963 34.0379 40.3963 33.5633ZM11.0758 32.0564H16.7417V48.5281H11.0758V32.0564ZM37.4174 35.0702H36.9968C36.8016 35.0702 36.6144 35.1478 36.4764 35.2858C36.3383 35.4238 36.2608 35.611 36.2608 35.8062C36.2608 36.0014 36.3383 36.1886 36.4764 36.3267C36.6144 36.4647 36.8016 36.5422 36.9968 36.5422C37.3921 36.5488 37.7691 36.7105 38.0463 36.9924C38.3236 37.2744 38.4789 37.6539 38.4789 38.0493C38.4789 38.4447 38.3236 38.8243 38.0463 39.1062C37.7691 39.3882 37.3921 39.5499 36.9968 39.5565H36.5762C36.381 39.5565 36.1938 39.634 36.0558 39.772C35.9178 39.9101 35.8402 40.0973 35.8402 40.2925C35.8402 40.4877 35.9178 40.6749 36.0558 40.8129C36.1938 40.9509 36.381 41.0285 36.5762 41.0285C36.9759 41.0285 37.3592 41.1872 37.6418 41.4698C37.9244 41.7524 38.0831 42.1357 38.0831 42.5354C38.0831 42.935 37.9244 43.3183 37.6418 43.6009C37.3592 43.8835 36.9759 44.0423 36.5762 44.0423H36.1557C35.9605 44.0423 35.7733 44.1198 35.6352 44.2578C35.4972 44.3959 35.4197 44.5831 35.4197 44.7783C35.4197 44.9735 35.4972 45.1607 35.6352 45.2987C35.7733 45.4367 35.9605 45.5143 36.1557 45.5143C36.5553 45.5143 36.9386 45.673 37.2212 45.9556C37.5038 46.2382 37.6626 46.6215 37.6626 47.0212C37.6626 47.4208 37.5038 47.8041 37.2212 48.0867C36.9386 48.3693 36.5553 48.5281 36.1557 48.5281H18.2137V31.561L21.8828 26.5583C22.6965 25.4535 23.1342 24.1167 23.1314 22.7446V20.8983C23.1314 20.4027 23.3283 19.9274 23.6787 19.577C24.0292 19.2265 24.5044 19.0297 25 19.0297C25.4956 19.0297 25.9709 19.2265 26.3213 19.577C26.6718 19.9274 26.8686 20.4027 26.8686 20.8983V31.32C26.8686 31.5152 26.9462 31.7024 27.0842 31.8404C27.2222 31.9785 27.4094 32.056 27.6046 32.056H37.4174C37.817 32.056 38.2003 32.2148 38.4829 32.4974C38.7655 32.78 38.9243 33.1633 38.9243 33.5629C38.9243 33.9626 38.7655 34.3459 38.4829 34.6285C38.2003 34.9111 37.817 35.0702 37.4174 35.0702Z" fill="#AB6A49"/>
</svg>
