<svg width="70" height="70" viewBox="0 0 70 70" fill="none" xmlns="http://www.w3.org/2000/svg">
<path d="M35 70C28.0777 70 21.3108 67.9473 15.5551 64.1014C9.79933 60.2556 5.3133 54.7893 2.66423 48.3939C0.0151651 41.9985 -0.677952 34.9612 0.672531 28.1718C2.02301 21.3825 5.35644 15.1461 10.2513 10.2513C15.1461 5.35644 21.3825 2.02301 28.1718 0.672531C34.9612 -0.677952 41.9985 0.0151651 48.3939 2.66423C54.7893 5.3133 60.2556 9.79933 64.1014 15.5551C67.9473 21.3108 70 28.0777 70 35C69.9894 44.2793 66.2985 53.1756 59.737 59.737C53.1756 66.2985 44.2793 69.9894 35 70ZM35 2.00002C28.4732 2.00002 22.093 3.93543 16.6662 7.56152C11.2394 11.1876 7.00968 16.3415 4.51199 22.3715C2.0143 28.4014 1.36079 35.0366 2.6341 41.438C3.90741 47.8394 7.05036 53.7194 11.6655 58.3345C16.2806 62.9497 22.1607 66.0926 28.562 67.3659C34.9634 68.6392 41.5986 67.9857 47.6286 65.488C53.6585 62.9903 58.8124 58.7606 62.4385 53.3338C66.0646 47.907 68 41.5268 68 35C67.9899 26.251 64.5099 17.8631 58.3234 11.6766C52.1369 5.49008 43.7491 2.01007 35 2.00002Z" fill="#AB6A49"/>
<path d="M33.721 49.1741C29.2357 49.0138 24.8591 47.7498 20.979 45.4941C20.8615 45.4224 20.7601 45.3272 20.6811 45.2145C20.6022 45.1018 20.5473 44.974 20.52 44.8391C17 27.4651 29.237 23.9051 39.075 21.0441C44.485 19.4701 49.158 18.1111 50.022 14.8931C50.0844 14.6617 50.2279 14.4603 50.4264 14.3258C50.6249 14.1913 50.8651 14.1325 51.1032 14.1603C51.3414 14.188 51.5616 14.3004 51.7238 14.477C51.886 14.6535 51.9794 14.8825 51.987 15.1221C52.018 16.1221 52.618 39.7321 42.476 46.6031C39.8862 48.3288 36.8326 49.2255 33.721 49.1741ZM22.393 44.0001C24.393 45.1001 34.054 49.8931 41.354 44.9481C48.454 40.1361 49.746 25.2721 49.959 18.5481C47.616 20.6481 43.705 21.7831 39.633 22.9671C30.2 25.7071 19.527 28.8121 22.393 44.0001Z" fill="#AB6A49"/>
<path d="M18.2511 55.0442C17.5933 51.2376 18.4465 47.3245 20.6291 44.1372C23.3661 38.0892 28.6981 36.3242 32.9871 34.9052C36.1651 33.8532 38.9101 32.9452 39.8561 30.6492L41.7051 31.4112C40.4051 34.5562 37.1051 35.6472 33.6151 36.8042C29.4731 38.1742 24.7771 39.7282 22.4151 45.0462C22.3844 45.1149 22.3461 45.1799 22.3011 45.2402C20.4279 47.995 19.6807 51.3626 20.2131 54.6512L18.2511 55.0442Z" fill="#AB6A49"/>
</svg>
