<svg width="50" height="70" viewBox="0 0 50 70" fill="none" xmlns="http://www.w3.org/2000/svg">
<path d="M11.2099 46.8539L3.56205 64.9728C3.50567 65.1057 3.4902 65.2531 3.51768 65.3952C3.54516 65.5374 3.6143 65.6676 3.71591 65.7687C3.81753 65.8698 3.94682 65.9368 4.08662 65.9611C4.22642 65.9853 4.37012 65.9654 4.49864 65.9042L13.0845 61.8327L17.6487 69.6486C17.7106 69.7547 17.7984 69.8426 17.9035 69.9037C18.0086 69.9648 18.1274 69.997 18.2484 69.9971H18.3141C18.4456 69.9846 18.571 69.9342 18.6757 69.8517C18.7803 69.7693 18.86 69.6582 18.9054 69.5314L25.0561 52.3626L32.156 69.5629C32.2094 69.6925 32.2991 69.8031 32.4137 69.8808C32.5283 69.9586 32.6629 70 32.8005 70C32.9389 69.9989 33.074 69.9559 33.1885 69.8763C33.303 69.7967 33.3917 69.6841 33.4435 69.5528L36.8502 60.8898L46.5446 65.8942C46.6726 65.9602 46.8174 65.9844 46.9593 65.9635C47.1012 65.9426 47.2334 65.8776 47.3379 65.7773C47.4424 65.6771 47.5143 65.5463 47.5436 65.4029C47.573 65.2595 47.5585 65.1103 47.5022 64.9756L39.6586 46.2453C43.9749 43.0524 47.1801 38.5337 48.8067 33.3482C50.4333 28.1627 50.3961 22.5817 48.7006 17.4193C47.0051 12.2569 43.7399 7.78316 39.3815 4.65064C35.023 1.51811 29.7991 -0.109328 24.4719 0.00570406C19.1447 0.120736 13.9928 1.97222 9.76762 5.29009C5.54249 8.60797 2.46518 13.2187 0.984555 18.4496C-0.496066 23.6806 -0.302542 29.2582 1.5369 34.3689C3.37634 39.4795 6.76547 43.8559 11.2099 46.8596V46.8539ZM18.0974 67.63L13.9624 60.5484C13.8744 60.3956 13.7339 60.2818 13.5683 60.229C13.4027 60.1762 13.2238 60.1882 13.0664 60.2627L5.57223 63.8213L12.4219 47.6096C15.9547 49.7274 19.9456 50.9182 24.0384 51.0754L18.0974 67.63ZM45.4542 63.7328L36.8124 59.2598C36.7261 59.2163 36.632 59.1912 36.5359 59.186C36.4397 59.1808 36.3436 59.1958 36.2533 59.2298C36.1626 59.2646 36.08 59.3182 36.0107 59.3873C35.9414 59.4564 35.8869 59.5395 35.8507 59.6313L32.7935 67.4071L26.0486 51.074C30.4704 50.8971 34.7656 49.5161 38.4899 47.0739L45.4542 63.7328ZM25.017 1.42456C29.6895 1.42456 34.257 2.84054 38.142 5.49344C42.0271 8.14633 45.0551 11.917 46.8431 16.3286C48.6312 20.7402 49.0991 25.5946 48.1875 30.2779C47.276 34.9613 45.0259 39.2632 41.722 42.6397C38.4181 46.0162 34.2086 48.3156 29.6259 49.2472C25.0432 50.1788 20.2931 49.7006 15.9763 47.8733C11.6595 46.0459 7.96984 42.9514 5.37395 38.9811C2.77806 35.0108 1.39251 30.3429 1.39251 25.5678C1.39806 19.1664 3.88884 13.0287 8.31809 8.50223C12.7473 3.97571 18.7531 1.43024 25.017 1.42456Z" fill="#AB6A49"/>
<path d="M19.0131 27.5549L17.8333 34.5679C17.8114 34.6994 17.826 34.8345 17.8754 34.958C17.9248 35.0814 18.0071 35.1883 18.1129 35.2664C18.2177 35.3459 18.3426 35.3932 18.4728 35.4028C18.603 35.4124 18.7332 35.3839 18.8481 35.3207L25.0171 32.0121L31.186 35.3264C31.2859 35.3819 31.398 35.4104 31.5117 35.4093C31.6597 35.408 31.8034 35.3579 31.9213 35.2664C32.0271 35.1883 32.1093 35.0814 32.1587 34.958C32.2081 34.8345 32.2227 34.6994 32.2009 34.5679L31.028 27.5549L36.0185 22.5848C36.1124 22.4919 36.1788 22.3741 36.2105 22.2445C36.2421 22.115 36.2375 21.979 36.1974 21.852C36.1572 21.725 36.083 21.612 35.9832 21.5259C35.8834 21.4398 35.762 21.3839 35.6327 21.3648L28.7341 20.3405L25.6503 13.9546C25.5862 13.8423 25.4943 13.7491 25.384 13.6843C25.2736 13.6195 25.1485 13.5854 25.0213 13.5854C24.894 13.5854 24.7689 13.6195 24.6586 13.6843C24.5482 13.7491 24.4563 13.8423 24.3922 13.9546L21.3084 20.3405L14.4098 21.3648C14.2806 21.3839 14.1591 21.4398 14.0593 21.5259C13.9595 21.612 13.8853 21.725 13.8452 21.852C13.805 21.979 13.8004 22.115 13.8321 22.2445C13.8637 22.3741 13.9302 22.4919 14.024 22.5848L19.0131 27.5549ZM21.8718 21.6976C21.9838 21.681 22.0901 21.6368 22.1816 21.5688C22.2732 21.5009 22.3472 21.4113 22.3974 21.3076L25.0171 15.8847L27.6367 21.3133C27.6869 21.417 27.761 21.5066 27.8525 21.5745C27.9441 21.6425 28.0504 21.6867 28.1623 21.7033L34.0223 22.5734L29.7825 26.7963C29.7012 26.8772 29.6404 26.977 29.6053 27.0873C29.5703 27.1976 29.562 27.3149 29.5812 27.4292L30.5821 33.3921L25.3414 30.5678C25.2413 30.5142 25.13 30.4862 25.0171 30.4862C24.9041 30.4862 24.7928 30.5142 24.6928 30.5678L19.452 33.3835L20.4529 27.4206C20.4722 27.3063 20.4639 27.189 20.4288 27.0787C20.3937 26.9685 20.3329 26.8686 20.2516 26.7877L16.0118 22.5676L21.8718 21.6976Z" fill="#AB6A49"/>
</svg>
