<svg width="36" height="50" viewBox="0 0 36 50" fill="none" xmlns="http://www.w3.org/2000/svg">
<path d="M8.07116 33.4671L2.56468 46.4091C2.52408 46.5041 2.51294 46.6093 2.53273 46.7109C2.55251 46.8124 2.60229 46.9055 2.67546 46.9776C2.74862 47.0498 2.84171 47.0977 2.94237 47.115C3.04302 47.1323 3.14649 47.1182 3.23902 47.0744L9.42086 44.1662L12.707 49.749C12.7516 49.8248 12.8148 49.8876 12.8905 49.9312C12.9662 49.9749 13.0518 49.9979 13.1388 49.998H13.1861C13.2808 49.989 13.3711 49.953 13.4465 49.8941C13.5218 49.8352 13.5792 49.7559 13.6119 49.6653L18.0404 37.4018L23.1523 49.6878C23.1908 49.7803 23.2553 49.8593 23.3379 49.9149C23.4204 49.9704 23.5173 50 23.6163 50C23.716 49.9992 23.8133 49.9685 23.8957 49.9116C23.9781 49.8548 24.042 49.7744 24.0793 49.6806L26.5321 43.4927L33.5121 47.0673C33.6043 47.1145 33.7085 47.1317 33.8107 47.1168C33.9128 47.1019 34.008 47.0554 34.0833 46.9838C34.1585 46.9122 34.2103 46.8188 34.2314 46.7164C34.2526 46.6139 34.2422 46.5074 34.2016 46.4112L28.5542 33.0324C31.6619 30.7517 33.9697 27.5241 35.1408 23.8201C36.312 20.1162 36.2852 16.1298 35.0644 12.4424C33.8437 8.75493 31.4928 5.5594 28.3546 3.32188C25.2165 1.08436 21.4554 -0.0780912 17.6198 0.00407433C13.7842 0.0862399 10.0748 1.40873 7.03269 3.77864C3.99059 6.14855 1.77493 9.4419 0.70888 13.1783C-0.357168 16.9147 -0.21783 20.8987 1.10657 24.5492C2.43097 28.1997 4.87114 31.3256 8.07116 33.4712V33.4671ZM13.0301 48.3071L10.0529 43.2489C9.98955 43.1397 9.88841 43.0584 9.76917 43.0207C9.64993 42.983 9.52112 42.9916 9.40777 43.0448L4.012 45.5867L8.94378 34.0069C11.4874 35.5196 14.3609 36.3701 17.3077 36.4824L13.0301 48.3071ZM32.7271 45.5234L26.505 42.3284C26.4428 42.2973 26.3751 42.2794 26.3058 42.2757C26.2366 42.272 26.1674 42.2827 26.1024 42.307C26.0371 42.3318 25.9776 42.3702 25.9277 42.4195C25.8778 42.4689 25.8386 42.5282 25.8125 42.5938L23.6113 48.1479L18.755 36.4814C21.9387 36.3551 25.0312 35.3687 27.7127 33.6242L32.7271 45.5234ZM18.0122 1.01754C21.3764 1.01754 24.665 2.02896 27.4623 3.92388C30.2595 5.81881 32.4396 8.51214 33.7271 11.6633C35.0145 14.8144 35.3513 18.2819 34.695 21.6271C34.0387 24.9723 32.4187 28.0451 30.0398 30.4569C27.661 32.8687 24.6302 34.5112 21.3306 35.1766C18.0311 35.842 14.611 35.5005 11.5029 34.1952C8.39482 32.89 5.73829 30.6796 3.86925 27.8436C2.00021 25.0077 1.00261 21.6735 1.00261 18.2627C1.00661 13.6903 2.79997 9.30624 5.98902 6.07302C9.17808 2.8398 13.5022 1.0216 18.0122 1.01754Z" fill="#AB6A49"/>
<path d="M13.6895 19.6821L12.84 24.6913C12.8242 24.7853 12.8347 24.8818 12.8703 24.97C12.9059 25.0582 12.9651 25.1345 13.0413 25.1903C13.1168 25.2471 13.2067 25.2808 13.3004 25.2877C13.3942 25.2946 13.4879 25.2743 13.5707 25.2291L18.0123 22.8658L22.4539 25.2332C22.5259 25.2728 22.6066 25.2932 22.6885 25.2924C22.795 25.2914 22.8984 25.2556 22.9834 25.1903C23.0595 25.1345 23.1187 25.0582 23.1543 24.97C23.1899 24.8818 23.2004 24.7853 23.1847 24.6913L22.3402 19.6821L25.9334 16.132C26.0009 16.0657 26.0488 15.9815 26.0716 15.889C26.0943 15.7965 26.0911 15.6993 26.0621 15.6086C26.0332 15.5179 25.9798 15.4372 25.9079 15.3757C25.8361 15.3141 25.7486 15.2743 25.6556 15.2606L20.6886 14.5289L18.4683 9.96763C18.4221 9.88738 18.356 9.82081 18.2765 9.77454C18.197 9.72827 18.107 9.70392 18.0153 9.70392C17.9237 9.70392 17.8337 9.72827 17.7542 9.77454C17.6747 9.82081 17.6086 9.88738 17.5624 9.96763L15.3421 14.5289L10.3751 15.2606C10.282 15.2743 10.1946 15.3141 10.1227 15.3757C10.0509 15.4372 9.99746 15.5179 9.96854 15.6086C9.93962 15.6993 9.93635 15.7965 9.95911 15.889C9.98187 15.9815 10.0297 16.0657 10.0973 16.132L13.6895 19.6821ZM15.7477 15.4983C15.8283 15.4864 15.9049 15.4548 15.9708 15.4063C16.0367 15.3578 16.09 15.2938 16.1262 15.2198L18.0123 11.3462L19.8985 15.2238C19.9346 15.2979 19.9879 15.3619 20.0538 15.4104C20.1198 15.4589 20.1963 15.4905 20.2769 15.5024L24.4961 16.1239L21.4434 19.1402C21.3849 19.198 21.3411 19.2693 21.3159 19.3481C21.2906 19.4269 21.2847 19.5107 21.2985 19.5923L22.0191 23.8515L18.2458 21.8342C18.1738 21.7959 18.0937 21.7759 18.0123 21.7759C17.931 21.7759 17.8509 21.7959 17.7788 21.8342L14.0055 23.8454L14.7261 19.5862C14.74 19.5045 14.734 19.4207 14.7088 19.342C14.6835 19.2632 14.6397 19.1919 14.5812 19.1341L11.5285 16.1198L15.7477 15.4983Z" fill="#AB6A49"/>
</svg>
