<svg width="71" height="70" viewBox="0 0 71 70" fill="none" xmlns="http://www.w3.org/2000/svg">
<path d="M28.5882 14.2702L27.4271 21.0385C27.3947 21.2279 27.416 21.4226 27.4884 21.6007C27.5609 21.7787 27.6817 21.9328 27.8372 22.0458C27.9928 22.1587 28.1768 22.2259 28.3685 22.2398C28.5602 22.2536 28.7519 22.2136 28.922 22.1242L35.0002 18.9288L41.0778 22.1242C41.2479 22.2136 41.4397 22.2536 41.6314 22.2398C41.8231 22.2259 42.0071 22.1587 42.1626 22.0458C42.3181 21.9328 42.4389 21.7787 42.5114 21.6007C42.5839 21.4226 42.6051 21.2279 42.5727 21.0385L41.4122 14.2702L46.3299 9.47741C46.4675 9.34313 46.5648 9.17303 46.6109 8.98634C46.6569 8.79965 46.6499 8.6038 46.5905 8.42092C46.5311 8.23803 46.4217 8.07541 46.2747 7.95142C46.1277 7.82743 45.949 7.74701 45.7587 7.71926L38.9628 6.73243L35.924 0.574777C35.8391 0.402274 35.7075 0.257006 35.5442 0.155423C35.381 0.0538398 35.1925 0 35.0002 0C34.8079 0 34.6195 0.0538398 34.4562 0.155423C34.2929 0.257006 34.1614 0.402274 34.0764 0.574777L31.037 6.73243L24.2417 7.71926C24.0514 7.74689 23.8727 7.82721 23.7256 7.95114C23.5786 8.07506 23.4692 8.23765 23.4098 8.42051C23.3504 8.60338 23.3433 8.79922 23.3894 8.98589C23.4355 9.17256 23.5329 9.34261 23.6706 9.47682L28.5882 14.2702ZM31.8696 8.69372C32.0348 8.66956 32.1916 8.60566 32.3267 8.50752C32.4618 8.40937 32.571 8.2799 32.645 8.13024L35.0002 3.36097L37.3554 8.13024C37.4294 8.2799 37.5386 8.40937 37.6737 8.50752C37.8088 8.60566 37.9656 8.66956 38.1309 8.69372L43.3971 9.45916L39.5864 13.1727C39.467 13.2895 39.3779 13.4335 39.3266 13.5924C39.2753 13.7513 39.2634 13.9203 39.292 14.0848L40.1911 19.3286L35.4807 16.8556C35.3328 16.7779 35.1682 16.7373 35.0011 16.7373C34.834 16.7373 34.6694 16.7779 34.5215 16.8556L29.8111 19.3286L30.7108 14.0848C30.7392 13.9203 30.7272 13.7513 30.676 13.5925C30.6247 13.4336 30.5356 13.2896 30.4164 13.1727L26.6063 9.45916L31.8696 8.69372Z" fill="#AB6A49"/>
<path d="M69.9495 10.8005C69.8901 10.6177 69.7807 10.4552 69.6338 10.3313C69.4869 10.2074 69.3083 10.127 69.1182 10.0992L63.7212 9.31492L61.3072 4.42789C61.2219 4.2556 61.0902 4.11056 60.9269 4.00915C60.7636 3.90774 60.5753 3.854 60.383 3.854C60.1908 3.854 60.0024 3.90774 59.8391 4.00915C59.6758 4.11056 59.5441 4.2556 59.4589 4.42789L57.0448 9.31787L51.6479 10.1021C51.4577 10.1299 51.279 10.2103 51.1321 10.3342C50.9851 10.4582 50.8758 10.6208 50.8165 10.8036C50.7571 10.9865 50.7501 11.1823 50.7962 11.3689C50.8423 11.5555 50.9397 11.7255 51.0774 11.8597L54.9823 15.6663L54.0608 21.0414C54.0284 21.2309 54.0497 21.4256 54.1222 21.6036C54.1946 21.7816 54.3155 21.9358 54.471 22.0488C54.6265 22.1617 54.8105 22.2289 55.0022 22.2428C55.1939 22.2566 55.3856 22.2166 55.5558 22.1272L60.3839 19.5895L65.2121 22.1272C65.3822 22.2166 65.574 22.2566 65.7657 22.2428C65.9573 22.2289 66.1413 22.1617 66.2969 22.0488C66.4524 21.9358 66.5732 21.7816 66.6457 21.6036C66.7182 21.4256 66.7394 21.2309 66.707 21.0414L65.785 15.6663L69.6905 11.8597C69.8285 11.7251 69.9259 11.5545 69.9717 11.3672C70.0175 11.1799 70.0098 10.9836 69.9495 10.8005ZM63.9579 14.5688C63.8386 14.6855 63.7494 14.8296 63.6982 14.9885C63.6469 15.1473 63.635 15.3163 63.6635 15.4808L64.3236 19.3316L60.8638 17.5128C60.7159 17.435 60.5513 17.3944 60.3842 17.3944C60.2171 17.3944 60.0525 17.435 59.9046 17.5128L56.446 19.331L57.1067 15.4802C57.1352 15.3157 57.1233 15.1468 57.072 14.9879C57.0207 14.829 56.9316 14.685 56.8123 14.5682L54.0137 11.8409L57.8803 11.2792C58.0457 11.2551 58.2026 11.1912 58.3378 11.0931C58.473 10.9949 58.5823 10.8654 58.6564 10.7157L60.3857 7.21173L62.115 10.7157C62.189 10.8653 62.2982 10.9948 62.4333 11.093C62.5684 11.1911 62.7252 11.255 62.8904 11.2792L66.7577 11.8409L63.9579 14.5688Z" fill="#AB6A49"/>
<path d="M14.9221 22.2425C15.0722 22.2426 15.2204 22.2099 15.3565 22.1467C15.4926 22.0835 15.6133 21.9914 15.71 21.8767C15.8068 21.762 15.8773 21.6275 15.9166 21.4827C15.956 21.3379 15.9632 21.1863 15.9378 21.0384L15.0163 15.6632L18.9218 11.8567C19.0595 11.7225 19.1569 11.5524 19.203 11.3657C19.2491 11.1791 19.242 10.9832 19.1826 10.8004C19.1232 10.6175 19.0138 10.4549 18.8667 10.331C18.7197 10.2071 18.541 10.1267 18.3507 10.0991L12.9538 9.31482L10.5397 4.42779C10.4546 4.25547 10.323 4.1104 10.1597 4.00896C9.99645 3.90752 9.80808 3.85376 9.61588 3.85376C9.42368 3.85376 9.23531 3.90752 9.07206 4.00896C8.90881 4.1104 8.77718 4.25547 8.69206 4.42779L6.27798 9.31777L0.882825 10.0991C0.692498 10.1266 0.513677 10.2069 0.366592 10.3308C0.219507 10.4547 0.110027 10.6173 0.0505389 10.8001C-0.00894964 10.983 -0.0160729 11.1789 0.0299748 11.3656C0.0760226 11.5523 0.173404 11.7224 0.311101 11.8567L4.2166 15.6632L3.29454 21.0384C3.26216 21.2278 3.28341 21.4226 3.35589 21.6006C3.42837 21.7786 3.5492 21.9328 3.70471 22.0457C3.86022 22.1587 4.04422 22.2259 4.23591 22.2397C4.42761 22.2536 4.61936 22.2135 4.7895 22.1241L9.61765 19.5864L14.4458 22.1241C14.5927 22.2015 14.7561 22.2421 14.9221 22.2425ZM10.094 17.5127C9.94608 17.4349 9.7815 17.3943 9.61441 17.3943C9.44733 17.3943 9.28274 17.4349 9.13483 17.5127L5.678 19.3285L6.33863 15.4778C6.36702 15.3133 6.35506 15.1443 6.30378 14.9855C6.2525 14.8266 6.16344 14.6826 6.04423 14.5657L3.24626 11.8384L7.11231 11.2767C7.27766 11.2527 7.43469 11.1889 7.56988 11.0907C7.70508 10.9926 7.81437 10.863 7.88835 10.7132L9.61647 7.20869L11.3458 10.7126C11.4198 10.8624 11.529 10.992 11.6642 11.0902C11.7994 11.1883 11.9565 11.2521 12.1218 11.2761L15.9879 11.8378L13.1899 14.5687C13.0705 14.6854 12.9813 14.8294 12.9301 14.9883C12.8788 15.1472 12.8669 15.3162 12.8955 15.4807L13.5555 19.3315L10.094 17.5127Z" fill="#AB6A49"/>
<path d="M56.5548 46.9886C56.5535 45.8829 56.1137 44.8229 55.3319 44.041C54.5501 43.2592 53.49 42.8194 52.3843 42.8182H39.6769V29.2581C39.6769 28.0178 39.1841 26.8282 38.3071 25.9511C37.43 25.074 36.2404 24.5813 35 24.5813C33.7597 24.5813 32.5701 25.074 31.693 25.9511C30.816 26.8282 30.3232 28.0178 30.3232 29.2581V31.843C30.3264 33.3258 29.8535 34.7705 28.9743 35.9645L23.9465 42.8182H14.4757C14.2024 42.8182 13.9403 42.9267 13.7471 43.12C13.5539 43.3132 13.4453 43.5753 13.4453 43.8486V68.9696C13.4453 69.2429 13.5539 69.505 13.7471 69.6982C13.9403 69.8915 14.2024 70 14.4757 70H50.6179C51.4354 70.0004 52.235 69.7605 52.9171 69.31C53.5993 68.8595 54.1339 68.2184 54.4546 67.4664C54.7752 66.7145 54.8677 65.8848 54.7205 65.0807C54.5733 64.2766 54.1929 63.5335 53.6267 62.9439C54.1144 62.5968 54.5216 62.1487 54.8205 61.6301C55.1194 61.1115 55.3031 60.5346 55.359 59.9386C55.4149 59.3426 55.3416 58.7416 55.1443 58.1765C54.947 57.6114 54.6302 57.0954 54.2155 56.6637C54.7032 56.3167 55.1104 55.8686 55.4093 55.35C55.7082 54.8314 55.8919 54.2545 55.9478 53.6585C56.0037 53.0625 55.9304 52.4615 55.7331 51.8964C55.5358 51.3312 55.219 50.8153 54.8043 50.3836C55.3456 49.9983 55.7869 49.4891 56.0914 48.8985C56.3959 48.3079 56.5548 47.6531 56.5548 46.9886ZM15.5061 44.8789H23.4384V67.9392H15.5061V44.8789ZM52.3843 49.0983H51.7955C51.5222 49.0983 51.2602 49.2068 51.0669 49.4001C50.8737 49.5933 50.7651 49.8554 50.7651 50.1287C50.7651 50.402 50.8737 50.664 51.0669 50.8573C51.2602 51.0505 51.5222 51.1591 51.7955 51.1591C52.349 51.1683 52.8767 51.3947 53.2649 51.7894C53.653 52.1841 53.8705 52.7155 53.8705 53.269C53.8705 53.8226 53.653 54.354 53.2649 54.7487C52.8767 55.1434 52.349 55.3697 51.7955 55.379H51.2067C50.9334 55.379 50.6714 55.4876 50.4781 55.6808C50.2849 55.874 50.1763 56.1361 50.1763 56.4094C50.1763 56.6827 50.2849 56.9448 50.4781 57.138C50.6714 57.3312 50.9334 57.4398 51.2067 57.4398C51.7662 57.4398 52.3028 57.6621 52.6985 58.0577C53.0941 58.4533 53.3164 58.9899 53.3164 59.5494C53.3164 60.109 53.0941 60.6456 52.6985 61.0412C52.3028 61.4368 51.7662 61.6591 51.2067 61.6591H50.6179C50.3446 61.6591 50.0826 61.7677 49.8893 61.9609C49.6961 62.1542 49.5875 62.4162 49.5875 62.6895C49.5875 62.9628 49.6961 63.2249 49.8893 63.4181C50.0826 63.6114 50.3446 63.7199 50.6179 63.7199C51.1774 63.7199 51.714 63.9422 52.1097 64.3378C52.5053 64.7335 52.7276 65.2701 52.7276 65.8296C52.7276 66.3891 52.5053 66.9257 52.1097 67.3213C51.714 67.717 51.1774 67.9392 50.6179 67.9392H25.4992V44.1853L30.6359 37.1816C31.7751 35.6349 32.3879 33.7633 32.384 31.8424V29.2575C32.384 28.5637 32.6596 27.8983 33.1502 27.4077C33.6408 26.9171 34.3062 26.6415 35 26.6415C35.6939 26.6415 36.3593 26.9171 36.8499 27.4077C37.3405 27.8983 37.6161 28.5637 37.6161 29.2575V43.848C37.6161 44.1212 37.7246 44.3833 37.9179 44.5766C38.1111 44.7698 38.3732 44.8784 38.6465 44.8784H52.3843C52.9438 44.8784 53.4804 45.1006 53.8761 45.4963C54.2717 45.8919 54.494 46.4285 54.494 46.988C54.494 47.5475 54.2717 48.0841 53.8761 48.4798C53.4804 48.8754 52.9438 49.0983 52.3843 49.0983Z" fill="#AB6A49"/>
</svg>
