<svg width="30" height="30" viewBox="0 0 30 30" fill="none" xmlns="http://www.w3.org/2000/svg">
<path d="M29.918 8.78832C29.8491 8.3918 29.6776 7.95012 29.4322 7.5671V7.56654C29.1012 7.05093 28.6367 6.64212 28.109 6.59459C27.2987 6.52186 26.564 7.09902 26.065 7.75597C25.94 7.9208 25.823 8.09266 25.7094 8.26687C25.3705 8.78716 25.059 9.32853 24.6254 9.7667C23.83 10.5703 22.898 11.0677 21.8032 11.3C20.7083 11.5322 19.4385 11.2759 18.4056 11.7129C17.3727 12.1499 16.5262 13.1558 15.9836 14.1559C15.0711 15.8381 14.7293 17.7902 14.6983 19.6572V19.6584C14.696 19.7892 14.6955 19.9188 14.6966 20.0485C14.7087 22.0316 15.2627 24.0224 16.3587 25.6589C17.6824 27.6362 19.9885 29.6228 22.3314 29.6416C23.0712 29.6475 23.7325 29.5624 24.3278 29.4064C24.3829 29.3923 24.4001 29.3384 24.3863 29.2949C24.3766 29.2633 24.3496 29.2369 24.3077 29.2357C17.8533 29.0938 19.4368 23.5836 20.7083 22.3671C21.1608 21.9342 21.7751 21.9794 22.4312 22.1941C22.7162 22.2873 23.0087 22.4123 23.2995 22.5437L23.3 22.5443C23.6402 22.6979 23.978 22.8604 24.2968 22.9912C25.0086 23.2833 25.6291 23.4182 25.9859 22.949C26.9729 21.6492 26.958 22.1841 27.3916 21.1752C27.6359 20.6063 26.9419 20.2461 26.3672 19.9511C26.3168 19.9253 26.3443 19.8473 26.3994 19.859C28.7227 20.3617 28.296 18.6747 28.296 18.6747C29.1035 18.7205 29.9558 18.0554 29.5073 16.7479C29.0588 15.4405 29.0588 14.3166 29.0588 14.3166C29.1523 12.93 29.528 12.5822 29.7992 11.2202C29.9828 10.2946 30.0797 9.71802 29.918 8.78832ZM27.5877 14.3665C27.5533 14.3776 27.5183 14.3882 27.4839 14.3981C27.4237 14.4152 27.3812 14.4709 27.3812 14.5348V15.0381C27.3812 15.1724 27.27 15.2809 27.1364 15.2721C27.0148 15.2639 26.9224 15.1548 26.9224 15.0299V14.543C26.9224 14.5119 26.8978 14.4867 26.8674 14.4867C26.7395 14.4867 26.6127 14.475 26.4871 14.4521C26.4613 14.4474 26.4361 14.4615 26.4263 14.4867L26.2233 15.0305C26.1883 15.1237 26.1011 15.1812 26.0088 15.1812C25.9784 15.1812 25.9474 15.1748 25.9176 15.1619C25.8041 15.1114 25.7536 14.9736 25.7983 14.8551L25.9469 14.4574C25.9784 14.3729 25.9429 14.2779 25.8637 14.2374C25.8161 14.2134 25.7691 14.1876 25.722 14.1594C25.6498 14.1166 25.5575 14.1342 25.5041 14.1999L25.1543 14.6322C25.109 14.6879 25.0436 14.7173 24.9776 14.7173C24.926 14.7173 24.8744 14.6996 24.8314 14.6633C24.7339 14.5811 24.7201 14.4328 24.8009 14.333L25.1623 13.8867C25.2024 13.8368 25.1978 13.7641 25.1525 13.7195C25.0975 13.6661 25.0453 13.6127 24.9965 13.5594C24.9575 13.5166 24.895 13.5083 24.8463 13.5395L24.4482 13.7928C24.4109 13.8163 24.3691 13.828 24.3278 13.828C24.2492 13.828 24.1718 13.787 24.1294 13.7113C24.0663 13.6004 24.1076 13.4579 24.2137 13.3898L24.5383 13.1834C24.5951 13.147 24.6123 13.0702 24.5756 13.0121C24.5194 12.9247 24.489 12.8678 24.485 12.8614C24.4241 12.7476 24.4655 12.605 24.5761 12.5429C24.6868 12.4807 24.8262 12.5223 24.8876 12.6356C24.8916 12.6432 25.1474 13.1107 25.5993 13.499C25.8448 13.7095 26.0977 13.8556 26.3575 13.9383C26.3661 13.9406 26.3753 13.943 26.3839 13.9465L26.3845 13.9471C26.7314 14.0509 27.0893 14.0415 27.4558 13.9178C27.5803 13.8761 27.715 13.9483 27.7494 14.0797C27.7799 14.2022 27.7053 14.3272 27.5877 14.3665ZM28.0144 12.9834C28.011 12.9834 28.0075 12.9834 28.0041 12.9834C27.8825 12.9834 27.781 12.8849 27.7752 12.7593C27.7592 12.3833 27.6256 12.103 27.368 11.9006C26.5376 11.2489 24.7522 11.6431 24.7344 11.6472C24.6111 11.6748 24.4884 11.5956 24.4609 11.4689C24.4339 11.3422 24.5113 11.2172 24.6352 11.1891C24.7166 11.1709 26.6465 10.7439 27.6468 11.5281C28.0133 11.8155 28.2106 12.2226 28.2329 12.7382C28.2392 12.8678 28.1412 12.9775 28.0144 12.9834Z" fill="white"/>
<path d="M24.3862 29.2944C23.0803 29.3513 21.202 29.1431 19.6839 27.8145C17.3307 25.7545 16.705 21.7571 18.5082 18.2689C18.5936 18.1035 18.8317 18.1228 18.8913 18.2999C19.2263 19.2936 20.129 21.1078 22.4311 22.1941C21.775 21.98 21.1607 21.9343 20.7082 22.3672C19.4367 23.5831 17.8532 29.0932 24.3077 29.2357C24.3495 29.2363 24.3765 29.2627 24.3862 29.2944Z" fill="#983604"/>
<path d="M20.6911 29.9994C19.4999 29.7859 18.3041 29.3383 17.5063 28.845C17.0435 28.5588 16.6254 28.2104 16.2228 27.8403C15.4015 26.8936 14.6691 25.8647 13.8765 24.8916C12.878 23.6657 11.7493 22.5026 10.3453 21.8058C8.86677 21.072 7.14905 20.889 5.67798 20.1798C6.18614 20.6104 6.80838 20.9177 7.43294 21.1535C8.37412 21.5089 9.36344 21.7412 10.2564 22.2093C11.5531 22.8897 12.5649 24.0247 13.4469 25.2125C13.5525 25.3544 13.6563 25.4975 13.7595 25.6413C13.7761 25.6647 13.7492 25.6946 13.7251 25.6788C12.1754 24.6547 10.3637 24.074 8.58802 23.5203C6.92825 23.0029 5.23578 22.4762 3.74346 21.5946C3.39018 21.3864 3.04836 21.1582 2.72031 20.9048C1.19014 19.7247 0.0144118 17.8817 0.0012207 15.9548C1.02496 16.6499 2.29589 17.1045 3.41426 17.3725C5.39521 17.8477 7.49028 17.9362 9.3382 18.8073C11.213 19.6906 12.7031 21.2597 13.9035 22.99C14.0176 23.1548 14.1294 23.3209 14.2384 23.488C14.7167 24.2212 15.1629 24.9667 15.6275 25.6782C15.628 25.6794 15.6286 25.6806 15.6298 25.6811V25.6817C16.4551 26.9469 17.3383 28.1054 18.5639 28.9025C19.0095 29.1923 19.5406 29.4803 20.1285 29.7278C20.3149 29.8064 20.5076 29.8809 20.7043 29.9495C20.7318 29.9613 20.7209 30.0052 20.6911 29.9994Z" fill="white"/>
<path d="M15.975 28.6023C14.5682 27.7565 13.0977 26.9858 11.5428 26.8045C10.1623 26.6438 8.7492 26.4895 7.50064 25.8924C8.15846 26.3799 9.04856 26.669 9.81424 26.8291C10.7388 27.0227 11.6982 27.1359 12.6044 27.4057C13.2393 27.5952 14.134 28.0439 15.0138 28.5337C15.0396 28.5484 15.0287 28.5894 14.9994 28.5877C14.6462 28.5706 14.2906 28.58 13.9413 28.6058C12.8321 28.6885 11.7275 28.915 10.6166 28.8586C9.14606 28.7842 7.70597 28.1953 6.58701 27.2169C6.52564 27.1635 6.46543 27.1084 6.40577 27.0526C5.45948 26.1605 4.77698 24.9815 4.45581 23.7075C4.58254 23.7755 4.71218 23.8389 4.84521 23.8975C5.66593 24.2606 6.58646 24.4471 7.47827 24.5574C9.05259 24.7528 10.6883 24.7879 12.129 25.4648C12.4737 25.6267 12.7983 25.8214 13.1097 26.0379C13.9138 26.5987 14.6272 27.309 15.347 27.987C15.5581 28.1859 15.7732 28.3841 15.9928 28.5754C16.0072 28.5894 15.9916 28.6123 15.975 28.6023Z" fill="white"/>
<path d="M16.8099 10.5687C16.764 11.0403 16.4469 11.4603 15.976 11.6081C15.4375 11.7764 14.872 11.5341 14.6018 11.0555C14.5571 10.9775 14.521 10.8925 14.494 10.8021C14.3025 10.161 14.6552 9.4824 15.2821 9.2865C15.9089 9.09055 16.5725 9.45128 16.764 10.0924C16.8116 10.2514 16.8254 10.4127 16.8099 10.5687Z" fill="white"/>
<path d="M19.9586 5.31463C19.8995 5.48649 19.8295 5.64836 19.7475 5.79501C18.9578 7.20686 17.7803 7.75761 16.8598 8.07848C16.6488 7.2825 16.467 6.249 16.8117 5.08701C16.8828 4.8477 16.9762 4.60311 17.0961 4.35326C17.7683 2.95783 20.0641 1.70142 20.2 1.65332C20.2333 1.78002 20.4478 3.89925 19.9586 5.31463Z" fill="white"/>
<path d="M16.9918 2.28757C16.982 2.31631 16.9723 2.34565 16.9608 2.3738C16.8192 2.7275 16.5387 3.00376 16.3019 3.30173C16.1252 2.9627 15.901 2.63716 15.8281 2.26236C15.7771 2.00016 15.804 1.73504 15.8757 1.47754C15.9457 1.22591 16.0581 0.981904 16.1831 0.753733C16.2887 0.561926 16.4034 0.37305 16.5123 0.182418C16.5467 0.122003 16.5806 0.061002 16.6127 0C16.5961 0.175967 16.5794 0.357214 16.5617 0.543741C16.5296 0.890983 16.4951 1.25465 16.4596 1.63063C16.4487 1.74618 16.4378 1.86291 16.4269 1.98081C16.4384 1.86291 16.4487 1.74618 16.4596 1.63063C16.4951 1.25465 16.529 0.890396 16.5617 0.543741C16.5794 0.357214 16.5961 0.175967 16.6127 0C16.6328 0.0662811 16.6546 0.132563 16.6769 0.198844C16.748 0.407658 16.826 0.614713 16.8932 0.824117C17.0457 1.29688 17.1443 1.82009 16.9918 2.28757Z" fill="white"/>
<path d="M24.9415 7.5348C24.8773 7.64858 23.5587 9.30793 22.2322 9.95258C22.0733 10.03 21.9145 10.0922 21.7579 10.1361C20.2231 10.5638 19.0101 10.1016 18.1372 9.66278C18.4062 9.183 18.7589 8.63631 19.278 8.15593C19.6921 7.77291 20.2117 7.43156 20.8798 7.19987C22.3199 6.69891 24.8119 7.47086 24.9415 7.5348Z" fill="white"/>
<path d="M23.3492 3.82808C23.1404 3.88439 22.9288 3.93426 22.7217 3.99408C22.2245 4.1372 21.7152 4.36476 21.4279 4.80413C21.3539 4.91732 21.2977 5.03989 21.2512 5.16838L21.2507 5.16894C21.1669 5.39946 21.1142 5.64581 21.0442 5.88221C21.4176 5.84291 21.807 5.85053 22.1517 5.70272C22.3673 5.61006 22.5503 5.46401 22.7063 5.28683C22.8961 5.07336 23.0481 4.81644 23.1754 4.55835C23.2723 4.36185 23.3607 4.1589 23.4547 3.96006C23.4846 3.8973 23.515 3.83454 23.5459 3.77295C23.4811 3.79172 23.4157 3.8099 23.3492 3.82808ZM23.1926 4.07033C23.2528 4.0193 23.313 3.96827 23.3721 3.919C23.313 3.96886 23.2534 4.0193 23.1926 4.07033Z" fill="white"/>
<path d="M14.1613 16.5402C13.4892 17.9356 11.1927 19.192 11.0574 19.2401C11.0207 19.0981 10.7552 16.4487 11.5099 15.0984C12.2997 13.6866 13.4765 13.1358 14.397 12.8155L14.3976 12.8149C14.6523 13.7751 14.8639 15.0808 14.1613 16.5402Z" fill="white"/>
<path d="M8.64258 9.75849C8.31108 9.93974 7.99278 10.1685 7.62627 10.243C7.11987 10.3462 6.60254 10.1386 6.15177 9.87991C5.96362 9.77259 5.77951 9.65469 5.59312 9.54322C5.53407 9.50804 5.47441 9.47345 5.41479 9.44058C5.47959 9.41949 5.5444 9.39716 5.6092 9.37432C5.81337 9.30159 6.01582 9.22179 6.22 9.15318C6.71037 8.98775 7.25753 8.88455 7.73525 9.08456C8.08051 9.22942 8.35064 9.51566 8.64143 9.75789C8.64258 9.75849 8.64258 9.75849 8.64258 9.75849Z" fill="white"/>
<path d="M13.1204 11.2314C12.6375 12.0942 11.8839 13.1712 10.3778 13.6944C8.93767 14.1947 6.44569 13.4228 6.31665 13.3588C6.38835 13.2315 8.03265 11.1663 9.5003 10.7574C11.0345 10.3299 12.2475 10.7915 13.1198 11.2308L13.1204 11.2314Z" fill="white"/>
<path d="M9.10584 15.1918C8.62922 15.3959 8.31379 15.864 8.08151 16.3361C7.98461 16.5326 7.89628 16.7356 7.80221 16.9344C7.77238 16.9972 7.74199 17.0599 7.71045 17.1215C7.77581 17.1022 7.84176 17.0834 7.90772 17.0658C8.11648 17.0095 8.32811 16.9591 8.53515 16.8998C9.03242 16.7561 9.54169 16.5291 9.82845 16.0898C10.0361 15.7719 10.1032 15.3801 10.2122 15.0123V15.0117C9.83934 15.0522 9.44994 15.0445 9.10584 15.1918ZM7.94329 16.9262C8.02189 16.8599 8.10161 16.7925 8.18304 16.7239C8.10161 16.7931 8.02129 16.8605 7.94329 16.9262Z" fill="white"/>
<path d="M13.3133 9.18712C12.375 9.44756 11.0978 9.66459 9.67085 8.94549C9.13805 8.67742 8.62647 8.15537 8.19691 7.61104V7.61049C7.52761 6.76054 7.06017 5.85609 7.03149 5.77102C7.17031 5.73347 9.7609 5.46193 11.0812 6.23383C11.4442 6.44614 11.7487 6.68546 12.0062 6.94063C12.7283 7.65682 13.0822 8.49326 13.3133 9.18712Z" fill="white"/>
<path d="M11.0265 3.87842C11.015 3.84381 11.0029 3.80979 10.9892 3.77577C10.7896 3.28893 10.3319 2.96632 9.87025 2.72877C9.67812 2.62964 9.47965 2.53931 9.28525 2.44311C9.22388 2.41261 9.16251 2.38152 9.10229 2.34985C9.12124 2.41672 9.13958 2.48417 9.15737 2.55162C9.2124 2.76513 9.26117 2.98158 9.31967 3.19391C9.37701 3.40331 9.44927 3.61564 9.5439 3.81272C9.67812 4.09368 9.85877 4.34473 10.1111 4.51719C10.422 4.72894 10.8057 4.79756 11.1647 4.90959V4.90899C11.1297 4.56291 11.132 4.20454 11.0265 3.87842Z" fill="white"/>
<path d="M14.8616 7.88152C14.018 7.38704 12.965 6.61689 12.4534 5.07661C12.3547 4.77982 12.3065 4.44018 12.2933 4.08474C12.24 2.67524 12.7315 1.02819 12.7814 0.922607C12.903 0.994753 14.8433 2.60955 15.2981 4.08533C15.3072 4.11642 15.3164 4.1475 15.3244 4.178C15.7425 5.74822 15.2912 6.98877 14.8616 7.88152Z" fill="white"/>
<path d="M13.9022 22.9907C11.7326 20.1465 9.36335 18.92 6.72112 18.5364C5.76678 18.398 4.08865 18.1006 3.13316 17.9651C2.41109 17.8631 1.68615 17.6953 1.02431 17.3903C1.54105 19.0057 2.49884 20.4668 3.74225 21.5953C3.38895 21.3871 3.04713 21.1589 2.71907 20.9055C1.18891 19.7254 0.0131911 17.8824 0 15.9556C1.02374 16.6506 2.29466 17.1052 3.41303 17.3733C5.39396 17.8484 7.48908 17.9369 9.33695 18.808C11.2124 19.6913 12.7018 21.2598 13.9022 22.9907Z" fill="#983604"/>
<path d="M15.6286 25.6832C15.628 25.682 15.6268 25.6809 15.6262 25.6797C15.6268 25.6809 15.6274 25.682 15.6286 25.6826V25.6832Z" fill="#983604"/>
<path d="M11.4125 25.3604C9.3432 24.8231 7.0818 25.209 5.08936 24.4488C5.34286 25.3868 5.83495 26.2473 6.42454 27.0127C6.47729 27.0813 6.53181 27.15 6.58628 27.2174C6.52491 27.164 6.46469 27.1089 6.40504 27.0532C5.45875 26.161 4.77625 24.982 4.45508 23.708C4.58181 23.7761 4.71145 23.8394 4.84448 23.8981C5.66519 24.2612 6.58568 24.4477 7.47754 24.5579C9.05185 24.7533 10.6875 24.7885 12.1282 25.4654C12.4729 25.6272 12.7975 25.822 13.109 26.0384C12.5739 25.7428 12.0027 25.5135 11.4125 25.3604Z" fill="#983604"/>
<path d="M29.4321 7.56717C29.3719 7.53374 29.3099 7.50383 29.2462 7.47627C28.4749 7.14546 27.5263 7.3009 26.8936 7.86164C26.3069 8.38193 25.968 9.12858 25.5361 9.78906C24.7074 11.0572 23.3401 11.9077 21.8369 12.0203C20.4426 12.1247 19.0627 12.1717 17.8818 12.9371C16.5995 13.7689 15.7678 15.1895 15.3297 16.6764C15.0504 17.6225 14.8382 18.6414 14.6982 19.6567C14.7292 17.7897 15.071 15.8377 15.9835 14.1554C16.5261 13.1553 17.3726 12.15 18.4055 11.7124C19.4384 11.2754 20.7082 11.5317 21.8031 11.2994C22.8979 11.0672 23.8299 10.5698 24.6253 9.76617C25.0589 9.3286 25.3704 8.78663 25.7093 8.26634C25.8229 8.09217 25.9393 7.92031 26.0649 7.75548C26.5639 7.09853 27.2986 6.52137 28.1089 6.5941C28.6366 6.64278 29.1011 7.0516 29.4321 7.56717Z" fill="#983604"/>
<path d="M14.3966 12.8157C14.3484 12.8468 11.2427 14.8481 11.0569 19.2403C11.0202 19.0983 10.7547 16.4488 11.5094 15.0985C12.2998 13.6867 13.4766 13.1359 14.3966 12.8157Z" fill="#983604"/>
<path d="M10.2132 15.0122C10.2132 15.0122 8.78288 15.6387 7.71094 17.1221C7.74248 17.0605 7.77287 16.9977 7.80269 16.935C7.89677 16.7361 7.98509 16.5332 8.08204 16.3367C8.31428 15.8651 8.62971 15.397 9.10633 15.1923C9.44987 15.0445 9.83931 15.0521 10.2132 15.0122Z" fill="#983604"/>
<path d="M13.1199 11.2307C13.0568 11.2207 9.64897 10.6828 6.31738 13.3587C6.38908 13.2315 8.03334 11.1662 9.50099 10.7574C11.0346 10.3303 12.2476 10.7919 13.1199 11.2307Z" fill="#983604"/>
<path d="M8.64198 9.75866C7.70371 9.24776 5.41479 9.44134 5.41479 9.44134C5.47959 9.42021 5.5444 9.39793 5.6092 9.37504C5.81337 9.30231 6.01582 9.22256 6.22 9.1539C6.71037 8.98851 7.25753 8.88527 7.73525 9.08528C8.08051 9.22958 8.35124 9.51639 8.64198 9.75866Z" fill="#983604"/>
<path d="M15.2981 4.08591C14.7452 3.05826 13.9056 2.19075 12.9008 1.62355C12.6089 2.41716 12.4053 3.24479 12.2929 4.08474C12.2395 2.67524 12.731 1.02819 12.7809 0.922607C12.9037 0.99534 14.8433 2.60955 15.2981 4.08591Z" fill="#983604"/>
<path d="M19.9586 5.31471C20.0625 4.34747 20.0343 3.36558 19.8743 2.40597C18.5976 2.911 17.5028 3.87882 16.8123 5.08654C16.8834 4.84723 16.9769 4.60264 17.0967 4.35274C17.7689 2.95734 20.0647 1.70093 20.2007 1.65283C20.2333 1.78011 20.4478 3.89934 19.9586 5.31471Z" fill="#983604"/>
<path d="M24.9414 7.53504C24.8771 7.64883 23.5586 9.30821 22.232 9.95283C22.548 9.7481 22.8405 9.50176 23.1038 9.23017C23.5345 8.78793 23.8964 8.28174 24.2279 7.75558C23.1571 7.35556 21.9728 7.27636 20.8608 7.53388C20.3079 7.66173 19.7733 7.87288 19.2778 8.15561C19.6919 7.7726 20.2115 7.4312 20.8797 7.19951C22.3198 6.6992 24.8118 7.4711 24.9414 7.53504Z" fill="#983604"/>
<path d="M12.0055 6.94123C11.697 6.76702 11.3982 6.58809 11.0638 6.45437C10.27 6.13706 9.41435 5.98162 8.56265 5.99979C8.19159 6.00742 7.82165 6.04907 7.45805 6.12416C7.57903 6.55586 7.83716 6.9852 8.05051 7.36179C8.09752 7.44566 8.14629 7.52837 8.19618 7.61049C7.52688 6.76054 7.05943 5.85609 7.03076 5.77102C7.16958 5.73347 9.76016 5.46193 11.0804 6.23383C11.4429 6.44674 11.748 6.68606 12.0055 6.94123Z" fill="#983604"/>
<path d="M9.40176 2.7211C9.37884 2.71406 9.35531 2.70702 9.33178 2.69998C9.39889 3.05426 9.46656 3.40795 9.53368 3.76223C9.53655 3.77866 9.53998 3.79508 9.54341 3.8115C9.44878 3.61442 9.37712 3.40209 9.31918 3.19269C9.26068 2.98036 9.21191 2.76391 9.15688 2.5504C9.13965 2.48295 9.12131 2.4155 9.10181 2.34863C9.16202 2.38031 9.22339 2.41139 9.28476 2.44189C9.47921 2.53809 9.67764 2.62842 9.86976 2.72755C10.3309 2.9651 10.7891 3.28771 10.9887 3.77456C11.0025 3.80858 11.0151 3.8426 11.026 3.87721C10.6188 3.33464 10.043 2.92287 9.40176 2.7211Z" fill="#983604"/>
<path d="M16.8938 0.824604C16.8266 0.615204 16.7486 0.408146 16.6775 0.199332C16.6552 0.133637 16.6334 0.0673558 16.6133 0.000488281L16.6127 0.00166254V0.000488281C16.5806 0.0614904 16.5468 0.122491 16.5124 0.182907C16.404 0.373538 16.2887 0.562409 16.1831 0.754211C16.0587 0.981796 15.9457 1.22639 15.8757 1.47803C16.0266 1.11671 16.2629 0.791754 16.5611 0.544228C16.5657 0.540123 16.5703 0.536604 16.5749 0.532499C16.8656 1.06451 17.0108 1.67863 16.9913 2.28747C17.1444 1.81999 17.0457 1.29678 16.8938 0.824604Z" fill="#983604"/>
<path d="M23.5466 3.77148C23.5157 3.83307 23.4853 3.89583 23.4555 3.95859C23.3614 4.15744 23.2731 4.36039 23.1761 4.55689C23.0488 4.81497 22.8968 5.07186 22.707 5.28537C22.9232 4.90587 23.0872 4.4953 23.1928 4.07004V4.06945C23.1957 4.05772 23.1985 4.04599 23.202 4.03426C23.1991 4.04541 22.8859 4.14688 22.8544 4.15451C22.7454 4.18032 22.555 4.25305 22.4501 4.29177C22.0704 4.43252 21.8209 4.55337 21.5307 4.83962C21.4573 4.91175 21.3879 4.98859 21.3225 5.06895C21.3018 5.09419 21.2784 5.13756 21.252 5.16632C21.2984 5.03843 21.3546 4.91526 21.4286 4.80207C21.7159 4.36275 22.2252 4.13574 22.7225 3.99203C22.9295 3.9322 23.1411 3.88234 23.3499 3.82603C23.4159 3.80961 23.4813 3.79143 23.5466 3.77148Z" fill="#983604"/>
<path d="M16.8099 10.5686C16.7962 10.5111 16.7916 10.4396 16.7795 10.3944C16.7566 10.3082 16.7296 10.2231 16.6958 10.1404C16.6201 9.95447 16.5077 9.77965 16.3494 9.65999C16.1974 9.54445 16.0093 9.48462 15.8206 9.47232C15.3543 9.44181 14.8817 9.71867 14.6718 10.1463C14.5348 10.4255 14.5153 10.7574 14.6019 11.056C14.5571 10.978 14.521 10.893 14.494 10.8026C14.3025 10.1615 14.6552 9.48286 15.2821 9.28696C15.9089 9.09106 16.5725 9.45179 16.7641 10.0929C16.8116 10.2513 16.8254 10.4126 16.8099 10.5686Z" fill="#983604"/>
<path d="M15.6286 11.2807C16.1816 11.2807 16.63 10.8222 16.63 10.2566C16.63 9.69095 16.1816 9.23242 15.6286 9.23242C15.0756 9.23242 14.6272 9.69095 14.6272 10.2566C14.6272 10.8222 15.0756 11.2807 15.6286 11.2807Z" fill="#983604"/>
</svg>
