<svg width="60" height="60" viewBox="0 0 60 60" fill="none" xmlns="http://www.w3.org/2000/svg">
<path d="M59.8355 17.5768C59.6979 16.7837 59.3549 15.9004 58.864 15.1343V15.1332C58.2021 14.102 57.273 13.2844 56.2177 13.1893C54.5969 13.0438 53.1275 14.1982 52.1297 15.5121C51.8796 15.8417 51.6455 16.1854 51.4185 16.5339C50.7406 17.5744 50.1177 18.6572 49.2505 19.5335C47.6596 21.1407 45.7956 22.1355 43.606 22.6C41.4162 23.0646 38.8767 22.552 36.8108 23.4259C34.745 24.2999 33.052 26.3118 31.9668 28.312C30.1419 31.6764 29.4582 35.5805 29.3963 39.3146V39.3169C29.3917 39.5785 29.3906 39.8378 29.3929 40.0971C29.417 44.0633 30.525 48.0449 32.717 51.3179C35.3644 55.2724 39.9766 59.2458 44.6624 59.2834C46.1421 59.2951 47.4646 59.125 48.6552 58.813C48.7654 58.7848 48.7997 58.6768 48.7722 58.59C48.7528 58.5267 48.6989 58.4739 48.6151 58.4716C35.7062 58.1877 38.8732 47.1674 41.4162 44.7344C42.3212 43.8686 43.5497 43.9589 44.8619 44.3883C45.432 44.5748 46.017 44.8247 46.5986 45.0874L46.5997 45.0886C47.2799 45.396 47.9555 45.721 48.5933 45.9826C50.0168 46.5668 51.2579 46.8366 51.9713 45.8981C53.9454 43.2985 53.9156 44.3684 54.7828 42.3506C55.2714 41.2126 53.8835 40.4924 52.7341 39.9023C52.6332 39.8507 52.6883 39.6946 52.7984 39.7181C57.4451 40.7235 56.5917 37.3496 56.5917 37.3496C58.2067 37.4411 59.9112 36.1108 59.0142 33.496C58.1172 30.8811 58.1172 28.6334 58.1172 28.6334C58.3042 25.8601 59.0555 25.1644 59.598 22.4405C59.9651 20.5894 60.1589 19.4362 59.8355 17.5768ZM55.175 28.7331C55.1063 28.7554 55.0362 28.7765 54.9675 28.7964C54.847 28.8304 54.7621 28.9419 54.7621 29.0698V30.0763C54.7621 30.3449 54.5396 30.562 54.2723 30.5444C54.0292 30.5279 53.8445 30.3098 53.8445 30.0598V29.0862C53.8445 29.024 53.7952 28.9736 53.7344 28.9736C53.4785 28.9736 53.2251 28.9501 52.9739 28.9043C52.9223 28.895 52.8718 28.9231 52.8522 28.9736L52.4462 30.061C52.3763 30.2476 52.2019 30.3626 52.0173 30.3626C51.9564 30.3626 51.8945 30.3496 51.8349 30.3238C51.6077 30.223 51.5068 29.9473 51.5963 29.7103L51.8933 28.915C51.9564 28.746 51.8854 28.556 51.7271 28.475C51.6318 28.4269 51.5378 28.3753 51.4437 28.319C51.2992 28.2334 51.1145 28.2685 51.0078 28.3999L50.3081 29.2645C50.2175 29.3759 50.0867 29.4346 49.9548 29.4346C49.8516 29.4346 49.7483 29.3994 49.6624 29.3266C49.4674 29.1624 49.4399 28.8657 49.6015 28.6662L50.3242 27.7735C50.4045 27.6737 50.3953 27.5283 50.3047 27.4391C50.1946 27.3324 50.0902 27.2256 49.9927 27.1189C49.9147 27.0333 49.7897 27.0168 49.6922 27.079L48.8961 27.5858C48.8215 27.6327 48.7379 27.6562 48.6552 27.6562C48.4981 27.6562 48.3432 27.574 48.2584 27.4228C48.1322 27.201 48.2147 26.9159 48.427 26.7798L49.0762 26.3669C49.1897 26.2942 49.2242 26.1405 49.1507 26.0244C49.0384 25.8496 48.9776 25.7358 48.9695 25.7229C48.8479 25.4953 48.9305 25.2102 49.1519 25.0858C49.3733 24.9616 49.652 25.0448 49.7747 25.2712C49.7828 25.2865 50.2943 26.2215 51.1982 26.998C51.6892 27.4192 52.1951 27.7113 52.7147 27.8767C52.7318 27.8814 52.7501 27.8861 52.7674 27.8932L52.7686 27.8943C53.4625 28.102 54.1783 28.0832 54.9113 27.8356C55.1602 27.7523 55.4297 27.8967 55.4985 28.1595C55.5593 28.4046 55.4102 28.6545 55.175 28.7331ZM56.0285 25.9669C56.0216 25.9669 56.0147 25.9669 56.0078 25.9669C55.7646 25.9669 55.5616 25.7698 55.5501 25.5188C55.518 24.7668 55.2508 24.2061 54.7357 23.8013C53.0748 22.498 49.5041 23.2864 49.4685 23.2945C49.2219 23.3497 48.9764 23.1913 48.9214 22.9379C48.8675 22.6845 49.0223 22.4346 49.2701 22.3783C49.4329 22.342 53.2927 21.4879 55.2932 23.0564C56.0262 23.6312 56.4208 24.4454 56.4654 25.4765C56.4781 25.7358 56.282 25.9552 56.0285 25.9669Z" fill="#C28565"/>
<path d="M48.7726 58.5889C46.1608 58.7027 42.4042 58.2862 39.368 55.6292C34.6616 51.5092 33.4101 43.5144 37.0165 36.5379C37.1874 36.2071 37.6635 36.2458 37.7827 36.6C38.4526 38.5873 40.258 42.2158 44.8623 44.3884C43.5501 43.9601 42.3216 43.8687 41.4166 44.7345C38.8736 47.1663 35.7065 58.1866 48.6155 58.4716C48.6992 58.4728 48.7531 58.5256 48.7726 58.5889Z" fill="#AB6A49"/>
<path d="M41.382 59.9989C38.9995 59.5718 36.6079 58.6768 35.0125 57.6902C34.0867 57.1177 33.2505 56.4209 32.4453 55.6807C30.8028 53.7872 29.338 51.7296 27.7528 49.7834C25.7557 47.3316 23.4984 45.0053 20.6904 43.6117C17.7333 42.1441 14.2979 41.7781 11.3557 40.3598C12.372 41.2208 13.6165 41.8356 14.8656 42.3071C16.748 43.018 18.7266 43.4826 20.5126 44.4188C23.106 45.7796 25.1295 48.0495 26.8936 50.4251C27.1047 50.709 27.3123 50.9952 27.5188 51.2827C27.552 51.3296 27.4981 51.3894 27.45 51.3578C24.3506 49.3094 20.7271 48.1481 17.1758 47.0407C13.8563 46.0059 10.4713 44.9525 7.48669 43.1894C6.78011 42.7729 6.09648 42.3165 5.44037 41.8097C2.38005 39.4495 0.0285794 35.7635 0.00219727 31.9098C2.04968 33.3 4.59154 34.2092 6.82828 34.7452C10.7902 35.6954 14.9803 35.8726 18.6761 37.6147C22.4258 39.3814 25.4059 42.5195 27.8067 45.9801C28.035 46.3098 28.2586 46.6418 28.4766 46.9761C29.4331 48.4425 30.3256 49.9335 31.2547 51.3566C31.2558 51.3589 31.257 51.3613 31.2593 51.3624V51.3636C32.9099 53.894 34.6764 56.2109 37.1275 57.8052C38.0188 58.3847 39.081 58.9607 40.2567 59.4557C40.6295 59.6129 41.0149 59.7619 41.4084 59.8992C41.4634 59.9227 41.4416 60.0106 41.382 59.9989Z" fill="#C28565"/>
<path d="M31.9498 57.2045C29.1361 55.5129 26.1951 53.9715 23.0854 53.609C20.3244 53.2875 17.4982 52.979 15.001 51.7847C16.3167 52.7596 18.0969 53.3379 19.6282 53.6582C21.4773 54.0453 23.3962 54.2717 25.2086 54.8114C26.4784 55.1903 28.2677 56.0877 30.0274 57.0673C30.079 57.0966 30.0572 57.1787 29.9987 57.1752C29.2921 57.1412 28.5809 57.1599 27.8824 57.2115C25.664 57.377 23.4548 57.8298 21.2329 57.7172C18.2919 57.5682 15.4117 56.3904 13.1738 54.4336C13.051 54.3269 12.9306 54.2166 12.8113 54.1052C10.9187 52.3209 9.55372 49.9629 8.91138 47.4149C9.16483 47.5509 9.42412 47.6777 9.69018 47.795C11.3316 48.5211 13.1727 48.8942 14.9563 49.1147C18.1049 49.5054 21.3763 49.5758 24.2577 50.9295C24.9471 51.2533 25.5963 51.6428 26.2192 52.0757C27.8273 53.1972 29.2542 54.6178 30.6938 55.9739C31.1159 56.3716 31.5461 56.7681 31.9853 57.1506C32.0141 57.1787 31.983 57.2245 31.9498 57.2045Z" fill="#C28565"/>
<path d="M33.6198 21.1372C33.528 22.0804 32.8937 22.9203 31.952 23.216C30.8749 23.5526 29.744 23.0681 29.2037 22.1108C29.1143 21.9548 29.042 21.7848 28.9881 21.6041C28.6049 20.3219 29.3104 18.9646 30.5641 18.5728C31.8179 18.1809 33.145 18.9024 33.528 20.1847C33.6233 20.5026 33.6508 20.8251 33.6198 21.1372Z" fill="#C28565"/>
<path d="M39.9176 10.6296C39.7995 10.9733 39.6596 11.2971 39.4955 11.5904C37.916 14.4141 35.5611 15.5156 33.7202 16.1573C33.298 14.5654 32.9344 12.4984 33.6238 10.1744C33.766 9.69576 33.953 9.20659 34.1927 8.70688C35.537 5.91602 40.1287 3.4032 40.4006 3.30701C40.4671 3.5604 40.8961 7.79886 39.9176 10.6296Z" fill="#C28565"/>
<path d="M33.9838 4.57515C33.9642 4.63263 33.9448 4.6913 33.9218 4.7476C33.6385 5.45499 33.0776 6.00753 32.6038 6.60346C32.2505 5.9254 31.8021 5.27433 31.6564 4.52471C31.5543 4.00033 31.6082 3.47008 31.7516 2.95509C31.8916 2.45181 32.1164 1.96381 32.3664 1.50747C32.5774 1.12385 32.8069 0.746099 33.0248 0.364837C33.0936 0.244006 33.1613 0.122004 33.2255 0C33.1923 0.351934 33.159 0.714429 33.1234 1.08748C33.0592 1.78197 32.9904 2.50929 32.9193 3.26127C32.8975 3.49237 32.8757 3.72581 32.8539 3.96161C32.8768 3.72581 32.8975 3.49237 32.9193 3.26127C32.9904 2.50929 33.058 1.78079 33.1234 1.08748C33.159 0.714429 33.1923 0.351934 33.2255 0C33.2657 0.132562 33.3093 0.265125 33.354 0.397688C33.4962 0.815316 33.6522 1.22943 33.7864 1.64823C34.0916 2.59376 34.2888 3.64017 33.9838 4.57515Z" fill="#C28565"/>
<path d="M49.8829 15.0698C49.7544 15.2974 47.1173 18.616 44.4642 19.9054C44.1465 20.0602 43.8288 20.1845 43.5156 20.2725C40.4461 21.1277 38.0201 20.2033 36.2743 19.3258C36.8123 18.3662 37.5178 17.2728 38.5558 16.312C39.384 15.546 40.4232 14.8633 41.7595 14.3999C44.6398 13.398 49.6237 14.9419 49.8829 15.0698Z" fill="#C28565"/>
<path d="M46.6988 7.6558C46.2813 7.76842 45.8581 7.86814 45.444 7.9878C44.4495 8.27404 43.4309 8.72916 42.8563 9.6079C42.7083 9.83428 42.5959 10.0794 42.503 10.3364L42.5018 10.3375C42.3344 10.7986 42.2288 11.2912 42.0889 11.764C42.8356 11.6854 43.6145 11.7007 44.3038 11.4051C44.7351 11.2198 45.101 10.9276 45.413 10.5733C45.7927 10.1464 46.0967 9.6325 46.3514 9.11633C46.5452 8.72333 46.7218 8.31743 46.91 7.91975C46.9696 7.79422 47.0304 7.66871 47.0923 7.54553C46.9627 7.58308 46.832 7.61944 46.6988 7.6558ZM46.3857 8.1403C46.5062 8.03824 46.6266 7.93618 46.7448 7.83764C46.6266 7.93735 46.5074 8.03824 46.3857 8.1403Z" fill="#C28565"/>
<path d="M28.3228 33.0807C26.9784 35.8715 22.3856 38.3844 22.1149 38.4805C22.0415 38.1966 21.5104 32.8977 23.02 30.1972C24.5994 27.3735 26.9531 26.2719 28.7942 25.6314L28.7953 25.6302C29.3046 27.5506 29.7279 30.162 28.3228 33.0807Z" fill="#C28565"/>
<path d="M17.2848 19.5171C16.6218 19.8796 15.9852 20.3371 15.2522 20.4861C14.2394 20.6926 13.2047 20.2773 12.3032 19.7599C11.9269 19.5453 11.5587 19.3095 11.1859 19.0866C11.0678 19.0162 10.9485 18.947 10.8292 18.8813C10.9588 18.8391 11.0884 18.7945 11.218 18.7488C11.6264 18.6033 12.0313 18.4437 12.4396 18.3065C13.4204 17.9756 14.5147 17.7692 15.4701 18.1693C16.1607 18.459 16.7009 19.0315 17.2825 19.5159C17.2848 19.5171 17.2848 19.5171 17.2848 19.5171Z" fill="#C28565"/>
<path d="M26.241 22.4627C25.2752 24.1883 23.768 26.3423 20.7558 27.3887C17.8756 28.3893 12.8916 26.8455 12.6335 26.7176C12.7769 26.463 16.0655 22.3325 19.0008 21.5148C22.0692 20.6597 24.4952 21.5829 26.2398 22.4615L26.241 22.4627Z" fill="#C28565"/>
<path d="M18.2119 30.3836C17.2587 30.7919 16.6278 31.7281 16.1633 32.6724C15.9695 33.0654 15.7928 33.4713 15.6047 33.869C15.545 33.9945 15.4842 34.12 15.4211 34.2432C15.5519 34.2045 15.6838 34.167 15.8157 34.1318C16.2332 34.0191 16.6565 33.9182 17.0705 33.7998C18.0651 33.5124 19.0836 33.0584 19.6571 32.1797C20.0724 31.5439 20.2066 30.7603 20.4245 30.0247V30.0236C19.6789 30.1045 18.9001 30.0892 18.2119 30.3836ZM15.8868 33.8526C16.044 33.72 16.2035 33.5851 16.3663 33.4478C16.2035 33.5863 16.0428 33.7212 15.8868 33.8526Z" fill="#C28565"/>
<path d="M26.6265 18.3744C24.7499 18.8953 22.1954 19.3294 19.3416 17.8912C18.276 17.355 17.2528 16.3109 16.3937 15.2223V15.2212C15.0551 13.5213 14.1202 11.7124 14.0629 11.5422C14.3405 11.4671 19.5217 10.924 22.1622 12.4678C22.8883 12.8925 23.4974 13.3711 24.0123 13.8814C25.4565 15.3138 26.1643 16.9867 26.6265 18.3744Z" fill="#C28565"/>
<path d="M22.053 7.75665C22.0301 7.68744 22.006 7.6194 21.9785 7.55136C21.5793 6.57767 20.6639 5.93246 19.7406 5.45735C19.3564 5.25909 18.9594 5.07843 18.5706 4.88605C18.4479 4.82504 18.3251 4.76287 18.2047 4.69952C18.2426 4.83326 18.2793 4.96816 18.3149 5.10307C18.4249 5.53008 18.5225 5.96297 18.6395 6.38763C18.7541 6.80644 18.8987 7.2311 19.0879 7.62526C19.3564 8.18719 19.7177 8.68928 20.2223 9.03419C20.844 9.4577 21.6114 9.59493 22.3295 9.81899V9.81779C22.2595 9.12565 22.2641 8.4089 22.053 7.75665Z" fill="#C28565"/>
<path d="M29.7236 15.7631C28.0363 14.7741 25.9303 13.2339 24.9071 10.1533C24.7098 9.55971 24.6135 8.88042 24.5871 8.16954C24.4804 5.35054 25.4634 2.05644 25.5632 1.84528C25.8064 1.98957 29.6869 5.21916 30.5965 8.17072C30.6148 8.23289 30.6332 8.29506 30.6492 8.35606C31.4854 11.4965 30.5827 13.9776 29.7236 15.7631Z" fill="#C28565"/>
<path d="M27.8045 45.9814C23.4652 40.2929 18.7267 37.84 13.4422 37.0727C11.5336 36.7959 8.1773 36.2011 6.26631 35.9301C4.82218 35.726 3.3723 35.3905 2.04862 34.7805C3.0821 38.0112 4.99769 40.9335 7.48449 43.1905C6.77791 42.774 6.09426 42.3177 5.43815 41.8109C2.37782 39.4506 0.0263821 35.7647 0 31.911C2.04749 33.3011 4.58931 34.2103 6.82606 34.7464C10.7879 35.6967 14.9782 35.8738 18.6739 37.6159C22.4248 39.3826 25.4037 42.5194 27.8045 45.9814Z" fill="#AB6A49"/>
<path d="M31.2572 51.366C31.256 51.3637 31.2536 51.3614 31.2524 51.359C31.2536 51.3614 31.2548 51.3637 31.2572 51.3649V51.366Z" fill="#AB6A49"/>
<path d="M22.8251 50.7209C18.6865 49.6463 14.1637 50.4182 10.1789 48.8978C10.6859 50.7737 11.67 52.4946 12.8492 54.0255C12.9547 54.1628 13.0637 54.3 13.1727 54.4349C13.0499 54.3281 12.9295 54.2179 12.8102 54.1065C10.9176 52.3222 9.55262 49.9642 8.91028 47.4161C9.16374 47.5523 9.42302 47.6789 9.68908 47.7963C11.3305 48.5224 13.1715 48.8955 14.9552 49.116C18.1038 49.5067 21.3752 49.5771 24.2566 50.9309C24.946 51.2546 25.5952 51.6441 26.2181 52.0769C25.1478 51.4857 24.0054 51.027 22.8251 50.7209Z" fill="#AB6A49"/>
<path d="M58.8645 15.1342C58.7441 15.0674 58.6202 15.0075 58.4928 14.9524C56.9501 14.2908 55.0529 14.6017 53.7876 15.7232C52.6142 16.7637 51.9363 18.257 51.0726 19.578C49.4151 22.1143 46.6806 23.8153 43.6741 24.0405C40.8857 24.2493 38.1258 24.3432 35.7641 25.8741C33.1993 27.5376 31.536 30.3788 30.6597 33.3527C30.1011 35.2449 29.6767 37.2826 29.3969 39.3133C29.4587 35.5793 30.1424 31.6752 31.9673 28.3106C33.0525 26.3105 34.7455 24.2998 36.8113 23.4247C38.8772 22.5506 41.4167 23.0633 43.6065 22.5987C45.7962 22.1342 47.6601 21.1394 49.251 19.5322C50.1182 18.6571 50.7411 17.5731 51.419 16.5326C51.6461 16.1842 51.879 15.8405 52.1302 15.5108C53.1282 14.1969 54.5975 13.0426 56.2182 13.1881C57.2736 13.2854 58.2026 14.1031 58.8645 15.1342Z" fill="#AB6A49"/>
<path d="M28.7931 25.6314C28.6968 25.6936 22.4855 29.6962 22.1138 38.4806C22.0404 38.1967 21.5094 32.8977 23.0189 30.1972C24.5995 27.3735 26.9532 26.272 28.7931 25.6314Z" fill="#AB6A49"/>
<path d="M20.4268 30.0248C20.4268 30.0248 17.5661 31.2777 15.4222 34.2445C15.4853 34.1213 15.5461 33.9958 15.6058 33.8703C15.7939 33.4726 15.9706 33.0667 16.1644 32.6737C16.6289 31.7305 17.2598 30.7943 18.213 30.385C18.9001 30.0893 19.679 30.1046 20.4268 30.0248Z" fill="#AB6A49"/>
<path d="M26.2397 22.4616C26.1136 22.4416 19.2978 21.3658 12.6346 26.7176C12.778 26.4631 16.0666 22.3325 19.0018 21.5149C22.0691 20.6608 24.4951 21.5841 26.2397 22.4616Z" fill="#AB6A49"/>
<path d="M17.2836 19.5171C15.4071 18.4953 10.8292 18.8825 10.8292 18.8825C10.9588 18.8402 11.0884 18.7957 11.218 18.7499C11.6264 18.6044 12.0313 18.4449 12.4396 18.3076C13.4204 17.9768 14.5147 17.7704 15.4701 18.1704C16.1607 18.459 16.7021 19.0326 17.2836 19.5171Z" fill="#AB6A49"/>
<path d="M30.5968 8.17195C29.491 6.11665 27.8117 4.38162 25.8021 3.24722C25.2183 4.83444 24.811 6.48971 24.5862 8.1696C24.4795 5.35061 25.4626 2.0565 25.5623 1.84534C25.8078 1.9908 29.6872 5.21922 30.5968 8.17195Z" fill="#AB6A49"/>
<path d="M39.9171 10.6296C40.1248 8.69512 40.0686 6.73134 39.7485 4.81212C37.1952 5.82218 35.0055 7.75782 33.6244 10.1733C33.7667 9.69464 33.9536 9.20547 34.1934 8.70567C35.5377 5.91486 40.1293 3.40204 40.4012 3.30585C40.4665 3.56041 40.8955 7.79887 39.9171 10.6296Z" fill="#AB6A49"/>
<path d="M49.8829 15.07C49.7544 15.2975 47.1174 18.6163 44.4642 19.9055C45.0962 19.4961 45.6812 19.0034 46.2077 18.4602C47.0691 17.5757 47.793 16.5634 48.456 15.511C46.3144 14.711 43.9458 14.5526 41.7216 15.0676C40.6158 15.3233 39.5468 15.7456 38.5558 16.3111C39.384 15.5451 40.4232 14.8623 41.7594 14.3989C44.6397 13.3983 49.6237 14.9421 49.8829 15.07Z" fill="#AB6A49"/>
<path d="M24.0112 13.8826C23.3942 13.5342 22.7966 13.1764 22.1278 12.9089C20.5403 12.2743 18.8289 11.9634 17.1255 11.9998C16.3834 12.015 15.6435 12.0983 14.9163 12.2485C15.1583 13.1119 15.6746 13.9706 16.1013 14.7238C16.1953 14.8915 16.2928 15.0569 16.3926 15.2212C15.054 13.5213 14.1191 11.7124 14.0618 11.5422C14.3394 11.4671 19.5206 10.924 22.1611 12.4678C22.8861 12.8937 23.4963 13.3723 24.0112 13.8826Z" fill="#AB6A49"/>
<path d="M18.8035 5.44207C18.7577 5.428 18.7106 5.41391 18.6636 5.39984C18.7978 6.1084 18.9331 6.81579 19.0674 7.52434C19.0731 7.5572 19.08 7.59004 19.0868 7.62288C18.8976 7.22872 18.7542 6.80406 18.6384 6.38526C18.5214 5.96059 18.4238 5.5277 18.3138 5.10069C18.2793 4.96578 18.2426 4.83087 18.2036 4.69714C18.324 4.76049 18.4468 4.82266 18.5695 4.88367C18.9584 5.07605 19.3553 5.25671 19.7395 5.45497C20.6617 5.93008 21.5782 6.57531 21.9774 7.549C22.005 7.61704 22.0302 7.68508 22.0519 7.75429C21.2376 6.66915 20.0859 5.84562 18.8035 5.44207Z" fill="#AB6A49"/>
<path d="M33.787 1.64933C33.6528 1.23053 33.4968 0.816415 33.3546 0.398786C33.3099 0.267397 33.2662 0.134834 33.2261 0.00109863L33.225 0.00344715V0.00109863C33.1607 0.123103 33.0931 0.245104 33.0243 0.365936C32.8075 0.747197 32.5769 1.12494 32.3658 1.50854C32.1169 1.96371 31.8909 2.45291 31.751 2.95618C32.0527 2.23354 32.5252 1.58363 33.1217 1.08858C33.1309 1.08037 33.1401 1.07333 33.1493 1.06512C33.7308 2.12913 34.021 3.35738 33.982 4.57507C34.2883 3.6401 34.091 2.59369 33.787 1.64933Z" fill="#AB6A49"/>
<path d="M47.0932 7.54309C47.0313 7.66627 46.9706 7.79179 46.9109 7.91731C46.7228 8.315 46.5461 8.7209 46.3522 9.1139C46.0977 9.63007 45.7936 10.1438 45.414 10.5709C45.8464 9.81187 46.1745 8.99073 46.3856 8.1402V8.13903C46.3913 8.11557 46.397 8.09211 46.4039 8.06865C46.3982 8.09093 45.7719 8.29389 45.7088 8.30914C45.4909 8.36075 45.1101 8.50622 44.9001 8.58367C44.1408 8.86516 43.6418 9.10687 43.0614 9.67936C42.9146 9.82361 42.7758 9.9773 42.645 10.138C42.6037 10.1885 42.5567 10.2752 42.5039 10.3328C42.5968 10.077 42.7093 9.83064 42.8572 9.60427C43.4319 8.72561 44.4505 8.2716 45.4449 7.98419C45.859 7.86453 46.2823 7.76481 46.6998 7.65219C46.8317 7.61933 46.9625 7.58298 47.0932 7.54309Z" fill="#AB6A49"/>
<path d="M33.6202 21.1372C33.5927 21.0222 33.5835 20.8791 33.5594 20.7888C33.5136 20.6163 33.4597 20.4462 33.3919 20.2808C33.2406 19.9089 33.0157 19.5593 32.6991 19.32C32.3952 19.0889 32.019 18.9692 31.6416 18.9446C30.709 18.8836 29.7638 19.4373 29.344 20.2925C29.0699 20.8509 29.0309 21.5149 29.2041 22.112C29.1146 21.956 29.0424 21.7859 28.9885 21.6052C28.6053 20.323 29.3107 18.9657 30.5645 18.5739C31.8182 18.1821 33.1453 18.9036 33.5285 20.1858C33.6236 20.5025 33.6512 20.8251 33.6202 21.1372Z" fill="#AB6A49"/>
<path d="M31.2568 22.5613C32.3629 22.5613 33.2595 21.6443 33.2595 20.5131C33.2595 19.3818 32.3629 18.4648 31.2568 18.4648C30.1508 18.4648 29.254 19.3818 29.254 20.5131C29.254 21.6443 30.1508 22.5613 31.2568 22.5613Z" fill="#AB6A49"/>
</svg>
