<svg width="37" height="48" viewBox="0 0 37 48" fill="none" xmlns="http://www.w3.org/2000/svg">
<path d="M17.2568 44.1597C16.5998 44.7681 15.5614 44.7417 14.9377 44.1007C14.314 43.4598 14.341 42.447 14.9982 41.8387C15.6552 41.2303 16.6935 41.2567 17.3172 41.8977C17.941 42.5385 17.9139 43.5513 17.2568 44.1597Z" stroke="#C28565" stroke-width="1.2" stroke-miterlimit="10" stroke-linecap="round" stroke-linejoin="round"/>
<path d="M21.1262 38.463L17.317 41.8973" stroke="#C28565" stroke-width="1.2" stroke-miterlimit="10" stroke-linecap="round" stroke-linejoin="round"/>
<path d="M19.8259 44.1597C20.4829 44.7681 21.5212 44.7417 22.145 44.1007C22.7687 43.4598 22.7416 42.447 22.0845 41.8387C21.4275 41.2303 20.3892 41.2567 19.7654 41.8977C19.1418 42.5385 19.1688 43.5513 19.8259 44.1597Z" stroke="#C28565" stroke-width="1.2" stroke-miterlimit="10" stroke-linecap="round" stroke-linejoin="round"/>
<path d="M15.9556 38.463L19.7647 41.8973" stroke="#C28565" stroke-width="1.2" stroke-miterlimit="10" stroke-linecap="round" stroke-linejoin="round"/>
<path d="M26.5902 12.4973C26.3824 12.637 26.1312 12.7193 25.8611 12.7193C25.6867 12.7193 25.5166 12.7011 25.3522 12.667V17.4444C25.3522 17.5021 25.3492 17.5592 25.3477 17.6165C27.0826 17.8148 28.5264 16.5794 28.5264 15.0677C28.5264 13.9062 27.7363 12.8163 26.5902 12.4973Z" stroke="#C28565" stroke-width="1.2" stroke-miterlimit="10" stroke-linecap="round" stroke-linejoin="round"/>
<path d="M11.6485 17.4444V12.7193H10.8043C10.5902 12.7193 10.3841 12.6858 10.1905 12.6253C9.22373 13.0256 8.47437 13.9978 8.47437 15.0676C8.47437 16.5774 9.91511 17.8151 11.6528 17.6163C11.6513 17.559 11.6485 17.5019 11.6485 17.4444Z" stroke="#C28565" stroke-width="1.2" stroke-miterlimit="10" stroke-linecap="round" stroke-linejoin="round"/>
<path d="M23.3985 10.3163C23.3985 10.1876 23.2218 10.1433 23.1594 10.2567C22.3564 11.722 20.7736 12.7192 18.9513 12.7192H11.6479V17.4444C11.6479 20.8879 14.4141 24.033 18.5981 24.033C22.3228 24.033 25.3529 21.0773 25.3529 17.4444V12.667C24.2401 12.4365 23.3985 11.4678 23.3985 10.3163Z" stroke="#C28565" stroke-width="1.2" stroke-miterlimit="10" stroke-linecap="round" stroke-linejoin="round"/>
<path d="M6.81226 36.1146V47" stroke="#C28565" stroke-width="1.2" stroke-miterlimit="10" stroke-linecap="round" stroke-linejoin="round"/>
<path d="M30.2698 36.1146V47" stroke="#C28565" stroke-width="1.2" stroke-miterlimit="10" stroke-linecap="round" stroke-linejoin="round"/>
<path d="M30.2698 39.861V47H34.7647C35.4464 47 35.9991 46.4609 35.9991 45.7959V39.861H30.2698Z" stroke="#C28565" stroke-width="1.2" stroke-miterlimit="10" stroke-linecap="round" stroke-linejoin="round"/>
<path d="M6.81167 39.861H1V45.7959C1 46.4609 1.55275 47 2.23445 47H6.81167V39.861Z" stroke="#C28565" stroke-width="1.2" stroke-miterlimit="10" stroke-linecap="round" stroke-linejoin="round"/>
<path d="M22.2864 26.0248C22.2864 25.98 22.2921 25.9371 22.3004 25.8952L18.6049 29.6082C18.4629 29.7509 18.4654 29.9785 18.6103 30.1182L20.4586 31.8993C20.8196 32.2473 21.413 32.2014 21.7136 31.8026L22.2864 31.0423V26.0248Z" stroke="#C28565" stroke-width="1.2" stroke-miterlimit="10" stroke-linecap="round" stroke-linejoin="round"/>
<path d="M14.6934 25.889C14.7025 25.9328 14.7085 25.9778 14.7085 26.0249V31.0358L15.2863 31.8026C15.5869 32.2015 16.1803 32.2472 16.5413 31.8994L18.3896 30.1181C18.5345 29.9785 18.537 29.7509 18.395 29.6083L14.6934 25.889Z" stroke="#C28565" stroke-width="1.2" stroke-miterlimit="10" stroke-linecap="round" stroke-linejoin="round"/>
<path d="M32.2958 29.393L25.749 26.9199V36.1146H22.2865V26.0248C22.2865 25.8543 22.3507 25.7035 22.453 25.5879C22.3497 25.4699 22.2879 25.3186 22.2874 25.1563L22.2853 22.9604C21.2242 23.6376 19.9578 24.0331 18.5978 24.0331C17.0981 24.0331 15.782 23.6275 14.7087 22.9503V25.1522C14.7087 25.3488 14.6394 25.4876 14.5429 25.5887C14.6449 25.7042 14.7087 25.8546 14.7087 26.0248V36.1146H11.2461V26.9192L4.70433 29.393C3.12068 30.0288 1.00012 32.0291 1.00012 34.9974V45.7959C1.00012 46.4609 1.55277 47 2.23448 47H34.7656C35.4474 47 36.0001 46.4609 36.0001 45.7959V34.9974C36.0001 32.4412 34.3222 30.2065 32.2958 29.393Z" stroke="#C28565" stroke-width="1.2" stroke-miterlimit="10" stroke-linecap="round" stroke-linejoin="round"/>
<path d="M25.2672 26.1832L23.2258 25.4C22.7742 25.2268 22.2855 25.5515 22.2855 26.0248V36.1146H25.7481V26.8718C25.7481 26.5676 25.5574 26.2945 25.2672 26.1832Z" stroke="#C28565" stroke-width="1.2" stroke-miterlimit="10" stroke-linecap="round" stroke-linejoin="round"/>
<path d="M13.7674 25.4L11.726 26.1832C11.4359 26.2945 11.2451 26.5676 11.2451 26.8718V36.1146H14.7077V26.0248C14.7077 25.5515 14.219 25.2268 13.7674 25.4Z" stroke="#C28565" stroke-width="1.2" stroke-miterlimit="10" stroke-linecap="round" stroke-linejoin="round"/>
<path d="M27.1519 6.85969V6.13059C27.1519 4.87519 26.029 3.96263 24.9128 4.0463C24.2675 4.09471 23.6753 3.69892 23.551 3.07922C23.3419 2.03569 22.8122 1.00003 20.7431 1.00003H13.5645C10.9298 1.00003 8.79407 3.0833 8.79407 5.65325V10.7601C8.79407 11.8422 9.69336 12.7194 10.8027 12.7194H18.9502C20.7725 12.7194 22.3552 11.722 23.1584 10.2569C23.2205 10.1434 23.3973 10.1876 23.3973 10.3165C23.3973 11.6381 24.5058 12.7194 25.8606 12.7194H25.8607C26.5708 12.7194 27.1519 12.1526 27.1519 11.4598V10.0993" stroke="#C28565" stroke-width="1.2" stroke-miterlimit="10" stroke-linecap="round" stroke-linejoin="round"/>
<path d="M16.8384 36.1146H10.8464C10.1835 36.1146 9.64614 36.6388 9.64614 37.2854V38.2189C9.64614 40.3068 8.58496 42.2589 6.81323 43.4305V47H27.3569H30.2722V43.4305L30.2609 43.4232C28.4481 42.2584 27.3569 40.2828 27.3569 38.1653V37.2854C27.3569 36.6388 26.8194 36.1146 26.1565 36.1146H20.1596" stroke="#C28565" stroke-width="1.2" stroke-miterlimit="10" stroke-linecap="round" stroke-linejoin="round"/>
</svg>
