<svg width="60" height="58" viewBox="0 0 60 58" fill="none" xmlns="http://www.w3.org/2000/svg">
<path d="M46.3449 17.3545C42.2859 15.6158 37.5858 17.4967 35.847 21.5557H35.8525C35.0131 23.5014 34.9838 25.7015 35.7711 27.6689C36.5582 29.6402 38.0969 31.2176 40.0482 32.0535C44.1072 33.7923 48.8073 31.9114 50.546 27.8524C52.2848 23.7934 50.4038 19.0933 46.3449 17.3545ZM45.5573 30.6149C42.2977 31.9197 38.5975 30.3351 37.2926 27.0756C35.9878 23.816 37.5724 20.1158 40.8319 18.811C42.4024 18.179 44.1606 18.2025 45.7138 18.8761C47.256 19.5418 48.4722 20.7907 49.0965 22.3502C50.4015 25.6098 48.8169 29.31 45.5573 30.6149Z" fill="#C28565"/>
<path d="M5.36756 12.611L0.724331 13.1534C0.274925 13.2059 -0.0468733 13.6126 0.00560709 14.062C0.0580875 14.5114 0.464777 14.8332 0.914182 14.7807L5.55741 14.2383C6.00681 14.1858 6.32861 13.7791 6.27613 13.3297C6.22379 12.8803 5.81696 12.5585 5.36756 12.611Z" fill="#C28565"/>
<path d="M6.45247 8.03283L2.1564 6.18856C1.73995 6.01037 1.25786 6.20334 1.07967 6.61979C0.901481 7.03624 1.09445 7.51833 1.5109 7.69652L5.80697 9.54079C6.22343 9.71898 6.70551 9.52601 6.8837 9.10956C7.06203 8.69311 6.86892 8.21102 6.45247 8.03283Z" fill="#C28565"/>
<path d="M9.70704 4.61011L6.88639 0.86732C6.61531 0.504839 6.10163 0.430797 5.73915 0.701878C5.37667 0.972959 5.30262 1.48664 5.5737 1.84912L8.39436 5.59191C8.66544 5.95439 9.17912 6.02843 9.5416 5.75735C9.90408 5.48627 9.97826 4.97259 9.70704 4.61011Z" fill="#C28565"/>
<path d="M55.1845 28.9599C57.4196 22.6632 54.3975 15.7112 48.2685 13.0504L48.1926 13.0178L48.1709 13.0233C42.1065 10.4304 33.7313 8.61871 26.0884 6.93717C23.1322 6.2971 20.2844 5.68415 17.8272 5.08205H17.7946C16.8895 4.84378 15.9326 4.89111 15.0554 5.21765C14.2211 5.5381 13.5532 6.1844 13.2057 7.00768L9.72324 15.1442C9.3735 15.9656 9.3735 16.8939 9.72324 17.7153C10.0909 18.5776 10.716 19.3052 11.5133 19.7983C13.683 21.2086 16.0806 22.8359 18.5649 24.5283C23.0562 27.593 27.8568 30.8693 32.4186 33.4513L28.0087 43.7195C26.5991 46.9984 28.1146 50.7991 31.3934 52.2086C34.6723 53.6181 38.473 52.1027 39.8825 48.8238L44.8295 37.308C48.9893 36.766 52.615 34.2095 54.5228 30.4733C58.5151 32.3556 58.8188 34.6609 57.7774 37.167C56.9597 38.8809 55.9845 40.5153 54.8645 42.0489C51.3821 47.2182 47.7261 52.6371 54.6801 57.3563C55.0283 57.5521 55.467 57.4682 55.7183 57.1576C56.0028 56.806 55.9484 56.2903 55.5968 56.0056C49.9935 52.2086 53.183 47.4949 56.226 42.9873C57.4106 41.3564 58.4367 39.6164 59.2908 37.7908C60.6957 34.4168 60.3431 31.3521 55.1845 28.9599ZM12.3812 18.4476C11.871 18.1407 11.4677 17.6843 11.2258 17.1403C11.047 16.7191 11.047 16.2434 11.2258 15.8222L14.7082 7.68572C14.8853 7.26466 15.2259 6.93364 15.652 6.76901C16.2137 6.56872 16.8235 6.54594 17.3987 6.70392H17.4312L18.3316 6.92089L13.1677 18.9412L12.3812 18.4476ZM38.4288 48.2272C37.3618 50.5831 34.6262 51.6779 32.2284 50.7084C29.7594 49.71 28.5671 46.8992 29.5654 44.4301L33.9049 34.3138C35.1959 35.0189 36.4706 35.6644 37.7019 36.2068H37.7399L37.8158 36.2394H37.8538H37.8918L38.1522 36.3533L38.2227 36.3859C38.4251 36.469 38.6277 36.5486 38.8302 36.6245L38.9821 36.7222H39.0363H39.0851C40.346 37.1573 41.6678 37.3899 43.0015 37.411L38.4288 48.2272ZM53.3131 29.1118C51.716 32.8287 48.217 35.3769 44.1894 35.7566H44.0864L44.1298 35.7349C42.3106 35.8872 40.4822 35.5852 38.8085 34.8562H38.7705C32.8526 32.3013 25.8443 27.5116 19.4653 23.1722C17.8001 22.0277 16.1511 20.8994 14.5834 19.8579L19.9806 7.30602C21.8412 7.73454 23.7777 8.15222 25.763 8.58074C33.3299 10.208 41.64 12.0035 47.5634 14.5475C47.5739 14.5521 47.5845 14.5566 47.5951 14.5612C53.1921 17.0002 55.7522 23.5147 53.3131 29.1118Z" fill="#C28565"/>
</svg>
