<svg width="62" height="62" viewBox="0 0 62 62" fill="none" xmlns="http://www.w3.org/2000/svg">
<path d="M38.9766 38.6575V48.5195C38.9766 48.6426 39.1395 48.6873 39.201 48.5799L41.2812 44.9776C42.1032 43.553 43.9249 43.0653 45.3496 43.8873C46.3044 44.4391 46.8393 45.4399 46.8393 46.4696C46.8393 46.9744 46.7102 47.4861 46.4396 47.9558L41.0953 57.2129C39.742 59.5561 37.2417 61 34.5351 61H20.3114C17.4671 61 15.1611 58.6943 15.1611 55.8499V38.6575" stroke="#C28565" stroke-width="1.7" stroke-miterlimit="10" stroke-linecap="round" stroke-linejoin="round"/>
<path d="M24.4217 1.00003H46.6133C54.5595 1.00003 61 7.44067 61 15.3868V31.9019V37.1485C61 37.9815 60.3252 38.6576 59.4922 38.6576H2.50785C1.67485 38.6576 1 37.9815 1 37.1485V31.9019V15.3868C1 7.44067 7.44065 1.00003 15.3867 1.00003H20.1964" stroke="#C28565" stroke-width="1.7" stroke-miterlimit="10" stroke-linecap="round" stroke-linejoin="round"/>
<path d="M60.9994 31.9019H50.5918" stroke="#C28565" stroke-width="1.7" stroke-miterlimit="10" stroke-linecap="round" stroke-linejoin="round"/>
<path d="M46.367 31.9018H1" stroke="#C28565" stroke-width="1.7" stroke-miterlimit="10" stroke-linecap="round" stroke-linejoin="round"/>
<path d="M38.0791 26.8188H23.9209C23.3875 26.8188 22.9551 26.3865 22.9551 25.8531V20.8495C22.9551 20.3161 23.3875 19.8837 23.9209 19.8837H38.0791C38.6124 19.8837 39.0449 20.3161 39.0449 20.8495V25.8531C39.0449 26.3865 38.6124 26.8188 38.0791 26.8188Z" stroke="#C28565" stroke-width="1.7" stroke-miterlimit="10" stroke-linecap="round" stroke-linejoin="round"/>
<path d="M24.7235 14.2355C24.7235 15.5689 23.6425 16.65 22.309 16.65C20.9755 16.65 19.8945 15.5689 19.8945 14.2355C19.8945 12.902 20.9755 11.821 22.309 11.821C23.6425 11.821 24.7235 12.902 24.7235 14.2355Z" stroke="#C28565" stroke-width="1.7" stroke-miterlimit="10" stroke-linecap="round" stroke-linejoin="round"/>
<path d="M33.7792 14.2355C33.7792 15.5689 32.6982 16.65 31.3647 16.65C30.0312 16.65 28.9502 15.5689 28.9502 14.2355C28.9502 12.902 30.0312 11.821 31.3647 11.821C32.6982 11.821 33.7792 12.902 33.7792 14.2355Z" stroke="#C28565" stroke-width="1.7" stroke-miterlimit="10" stroke-linecap="round" stroke-linejoin="round"/>
<path d="M42.8329 14.2355C42.8329 15.5689 41.7519 16.65 40.4184 16.65C39.0849 16.65 38.0039 15.5689 38.0039 14.2355C38.0039 12.902 39.0849 11.821 40.4184 11.821C41.7519 11.821 42.8329 12.902 42.8329 14.2355Z" stroke="#C28565" stroke-width="1.7" stroke-miterlimit="10" stroke-linecap="round" stroke-linejoin="round"/>
<path d="M21.1152 43.9454V38.6575" stroke="#C28565" stroke-width="1.7" stroke-miterlimit="10" stroke-linecap="round" stroke-linejoin="round"/>
<path d="M27.0674 43.9454V38.6575" stroke="#C28565" stroke-width="1.7" stroke-miterlimit="10" stroke-linecap="round" stroke-linejoin="round"/>
<path d="M33.0215 43.9454V38.6575" stroke="#C28565" stroke-width="1.7" stroke-miterlimit="10" stroke-linecap="round" stroke-linejoin="round"/>
</svg>
