<svg width="50" height="60" viewBox="0 0 50 60" fill="none" xmlns="http://www.w3.org/2000/svg">
<path d="M36.7164 20.5145L48.8447 8.26203C49.5856 7.50671 50.0009 6.48616 50 5.42285C49.9991 4.35955 49.582 3.33973 48.8397 2.58574L47.4328 1.17268C46.6887 0.421786 45.6798 0 44.628 0C43.5761 0 42.5673 0.421786 41.8231 1.17268L23.2496 19.9283C19.5061 19.9804 0 20.4915 0 25.4252C0 25.4402 0 25.4542 0 25.4683V53.1201C0.00396869 57.1749 13.0639 60 24.7855 60C36.507 60 49.569 57.1749 49.569 53.1201V25.4693C49.569 25.4633 49.569 25.4582 49.569 25.4522C49.569 25.4462 49.569 25.4342 49.569 25.4252C49.569 22.567 43.0018 21.183 36.7164 20.5145ZM47.5846 31.9393C47.5846 33.1028 39.5957 35.9479 24.7855 35.9479C9.97531 35.9479 1.98832 33.1028 1.98832 31.9393V27.8304C6.89561 30.444 19.1519 30.9371 24.7845 30.9371C25.1992 30.9371 25.605 30.9371 25.994 30.9271C27.9525 30.91 42.2656 30.6856 47.5846 27.8494V31.9393ZM41.5324 23.2344C39.9449 24.0432 38.3207 24.9241 36.6707 24.9241C35.4091 24.902 34.1572 24.6958 32.9541 24.3118L34.8987 22.3475C37.5806 22.588 39.7752 22.8987 41.5324 23.2344ZM43.229 2.58975C43.6011 2.214 44.1058 2.00291 44.6319 2.00291C45.1581 2.00291 45.6628 2.214 46.0349 2.58975L47.4418 3.9998C47.8128 4.37781 48.021 4.88857 48.021 5.42088C48.021 5.95319 47.8128 6.46394 47.4418 6.84195L30.7633 23.6914C28.8068 23.165 26.7893 22.9055 24.7647 22.9197C24.1426 22.9197 23.574 22.9468 23.0293 22.9839L43.229 2.58975ZM19.7591 23.4519C18.8483 23.6523 18.0367 23.8888 17.2718 24.1123C15.8497 24.6063 14.3618 24.88 12.8586 24.9241C11.1449 24.7459 9.49442 24.1738 8.03363 23.2515C12.391 22.4796 16.8014 22.052 21.2246 21.9727L19.7591 23.4519ZM4.91225 23.9881C5.74766 24.3378 6.5414 24.7327 7.30339 25.1215C8.98459 26.1657 10.8901 26.7855 12.8586 26.9284C14.5473 26.8865 16.2199 26.5861 17.8194 26.0375C22.3296 24.5529 27.1898 24.5529 31.6999 26.0375C33.3026 26.5871 34.9787 26.8875 36.6707 26.9284C38.6367 26.7858 40.5398 26.167 42.219 25.1245C42.9939 24.7287 43.8005 24.3228 44.6528 23.974C46.5925 24.5483 47.4775 25.0935 47.5846 25.3941C47.1788 26.5967 39.6096 28.8015 25.9553 28.9227C25.5673 28.9328 25.1972 28.9227 24.7785 28.9328C21.8705 28.9328 19.0706 28.8325 16.4542 28.6451C6.24871 27.9176 2.26315 26.1267 1.98732 25.4663C1.98732 25.4602 1.98732 25.4552 1.98732 25.4502C2.1292 25.0383 3.13527 24.5102 4.91225 23.9881ZM24.7855 57.9957C11.0727 57.9957 2.10341 54.5662 1.98832 53.1201V34.4798C6.35388 36.9852 17.0396 37.9543 24.7855 37.9543C32.5314 37.9543 43.2191 36.9832 47.5846 34.4778V53.1181C47.4696 54.5662 38.4993 57.9957 24.7855 57.9957Z" fill="#C28565"/>
<path d="M20.0191 41.9841C19.7622 41.9289 19.4941 41.9778 19.2726 42.1202C19.051 42.2627 18.8937 42.4873 18.8344 42.7457L17.3898 49.3129L15.6932 46.4557C15.5984 46.3164 15.4714 46.2025 15.3233 46.1238C15.1751 46.0451 15.0103 46.004 14.8429 46.004C14.6755 46.004 14.5106 46.0451 14.3625 46.1238C14.2144 46.2025 14.0874 46.3164 13.9926 46.4557L12.296 49.3129L10.8514 42.7457C10.7943 42.486 10.6374 42.2599 10.4152 42.1171C10.193 41.9742 9.9238 41.9264 9.66672 41.9841C9.40963 42.0417 9.18575 42.2002 9.04434 42.4246C8.90293 42.649 8.85556 42.921 8.91266 43.1807L10.897 52.2002C10.9397 52.3961 11.0396 52.5746 11.1838 52.7126C11.328 52.8505 11.5099 52.9416 11.7059 52.974C11.9019 53.0064 12.103 52.9786 12.2832 52.8942C12.4634 52.8099 12.6144 52.6728 12.7167 52.5008L14.8429 48.9191L16.9691 52.4988C17.0714 52.6708 17.2224 52.8079 17.4026 52.8922C17.5828 52.9766 17.7839 53.0044 17.9799 52.972C18.1759 52.9396 18.3578 52.8485 18.502 52.7106C18.6462 52.5726 18.7461 52.3941 18.7888 52.1982L20.7731 43.1787C20.8298 42.9193 20.7823 42.6477 20.6409 42.4237C20.4995 42.1997 20.2758 42.0416 20.0191 41.9841Z" fill="#C28565"/>
<path d="M29.3226 48.5993L29.3107 48.5712L26.6636 42.5582C26.5857 42.381 26.4586 42.2303 26.2976 42.1246C26.1366 42.0189 25.9488 41.9626 25.7568 41.9626C25.5648 41.9626 25.3769 42.0189 25.2159 42.1246C25.0549 42.2303 24.9278 42.381 24.8499 42.5582L22.2028 48.5712L22.1909 48.5983L20.8812 51.5747C20.7744 51.8177 20.7675 52.0935 20.862 52.3416C20.9565 52.5897 21.1447 52.7897 21.3852 52.8976C21.6258 53.0055 21.8989 53.0125 22.1445 52.917C22.3901 52.8215 22.5881 52.6314 22.6949 52.3885L23.7555 49.9783H27.758L28.8186 52.3895C28.9254 52.6324 29.1234 52.8225 29.3691 52.918C29.6147 53.0135 29.8878 53.0065 30.1283 52.8986C30.3688 52.7907 30.557 52.5907 30.6515 52.3426C30.7461 52.0945 30.7391 51.8187 30.6323 51.5757L29.3226 48.5993ZM24.6376 47.9739L25.7568 45.4304L26.8759 47.9739H24.6376Z" fill="#C28565"/>
<path d="M40.1979 42.1292C40.0895 42.0562 39.9679 42.0054 39.8401 41.9798C39.7123 41.9542 39.5807 41.9543 39.4529 41.9801C39.3251 42.0059 39.2036 42.0568 39.0953 42.1301C38.987 42.2033 38.8941 42.2973 38.8218 42.4068L36.6707 45.6689L34.5197 42.4098C34.3737 42.1887 34.1466 42.0352 33.8885 41.9832C33.6305 41.9311 33.3625 41.9847 33.1436 42.1322C32.9246 42.2798 32.7727 42.5091 32.7211 42.7697C32.6696 43.0304 32.7227 43.3011 32.8687 43.5222L35.4801 47.4728L32.8707 51.4264C32.7247 51.6475 32.6716 51.9182 32.7231 52.1788C32.7747 52.4395 32.9266 52.6688 33.1455 52.8164C33.3645 52.9639 33.6324 53.0175 33.8905 52.9654C34.1486 52.9134 34.3756 52.7599 34.5217 52.5388L36.6707 49.2767L38.8218 52.5358C38.8941 52.6452 38.987 52.7393 39.0953 52.8125C39.2036 52.8857 39.3251 52.9367 39.4529 52.9624C39.5807 52.9882 39.7123 52.9883 39.8401 52.9627C39.9679 52.9372 40.0895 52.8864 40.1979 52.8134C40.3063 52.7403 40.3994 52.6464 40.4719 52.537C40.5444 52.4277 40.5948 52.3049 40.6203 52.1758C40.6459 52.0468 40.646 51.9139 40.6206 51.7848C40.5953 51.6557 40.5451 51.5328 40.4727 51.4233L37.8613 47.4728L40.4708 43.5192C40.617 43.2984 40.6704 43.0278 40.6193 42.7672C40.5681 42.5065 40.4165 42.277 40.1979 42.1292Z" fill="#C28565"/>
</svg>
