<svg width="60" height="60" viewBox="0 0 60 60" fill="none" xmlns="http://www.w3.org/2000/svg">
<g clip-path="url(#clip0_786_12355)">
<path d="M59.9895 39.0077C60.0049 36.1718 58.0146 33.7198 55.2361 33.1516L52.1711 28.2333C50.5516 25.6299 47.5986 24.0132 44.465 24.0132H39.5107C39.5481 22.3372 39.3505 20.6642 38.9234 19.0431C40.7257 18.1873 41.4977 16.0359 40.6509 14.2293L39.9031 12.644C39.1447 11.0379 37.3321 10.2203 35.6261 10.7147C34.743 8.65587 33.2533 6.91514 31.3555 5.7247C30.0774 4.9105 28.6415 4.37544 27.1422 4.1549C26.9956 4.12991 26.8248 4.12678 26.6696 4.10954C25.6342 0.97194 22.2514 -0.73231 19.1136 0.303061C15.9759 1.33843 14.2718 4.72132 15.3072 7.85904C15.4783 8.37773 15.7198 8.87067 16.0246 9.32388C15.2039 10.6425 14.6728 12.1205 14.4662 13.6598C14.3989 14.1456 14.3654 14.6356 14.3663 15.1261C14.3628 16.8692 14.7773 18.5877 15.5752 20.1375C14.2859 21.0268 13.7117 22.6425 14.1507 24.1459C11.5242 24.5757 9.18652 26.1151 7.84964 28.3898L4.65219 33.7657C4.39216 33.844 4.13 33.9156 3.87235 34.002C0.917681 34.9828 -0.682233 38.1733 0.298658 41.1278C0.616041 42.0837 1.18371 42.9372 1.9428 43.5994C0.747493 44.3184 0.0150118 45.6101 0.011513 47.0049V51.0035C0.011763 52.1422 0.49671 53.227 1.34502 53.9868L2.67654 52.4952C2.25269 52.1152 2.01066 51.5728 2.01078 51.0035V47.0049C2.01228 45.9013 2.90645 45.0072 4.01005 45.0057H55.991C57.0946 45.0072 57.9888 45.9013 57.9903 47.0049V51.0035C57.9888 52.1071 57.0946 53.0012 55.991 53.0027H20.0042V55.002H55.991C58.1984 54.9998 59.9873 53.2109 59.9895 51.0035V47.0049C59.9846 45.5648 59.2032 44.2393 57.9454 43.538C59.2472 42.3924 59.992 40.7416 59.9895 39.0077ZM50.4745 29.2906L52.858 33.116L42.3517 34.0268L38.5974 31.2106C38.4244 31.0807 38.2139 31.0104 37.9976 31.0107H37.5446C38.3866 29.7896 38.9637 28.4059 39.2394 26.9485C39.2967 26.6469 39.3448 26.333 39.3848 26.0124H44.465C46.9133 26.0125 49.2161 27.2679 50.4745 29.2906ZM38.0933 13.4936L38.843 15.0839C39.1759 15.7981 38.9464 16.6482 38.2994 17.0979C38.2289 16.9162 38.1744 16.723 38.0982 16.5472L36.4218 12.5799C37.1184 12.4886 37.7942 12.858 38.0933 13.4936ZM33.8292 11.5793L36.26 17.3331C36.4659 17.8096 36.6442 18.2978 36.7939 18.795C37.4194 20.7803 37.6525 22.8684 37.4802 24.9428C37.4442 25.4927 37.3753 26.04 37.2742 26.5818C37.0207 27.9512 36.4417 29.2395 35.586 30.338C35.3922 30.5788 35.1799 30.8043 34.951 31.0121L26.0673 31.0995C24.0527 29.8481 22.3406 28.1658 21.0538 26.1736C20.7698 25.745 20.5091 25.3015 20.2728 24.8449L17.3911 19.3108C16.7233 18.0379 16.3728 16.6227 16.3695 15.1852L17.0934 15.4461L17.7709 13.5659L16.5987 13.1434C16.7359 12.5261 16.9378 11.925 17.2012 11.3503L19.4504 12.8497L20.5595 11.1863L18.2205 9.62714C18.9006 8.7246 19.7448 7.95825 20.7087 7.36835L22.1187 10.3672L23.9285 9.51593L22.5179 6.51566C23.546 6.16254 24.6304 6.00147 25.7167 6.04083L25.0327 8.77658L26.9715 9.2609L27.7101 6.30611C28.363 6.47242 28.9946 6.71321 29.5925 7.02372L29.1659 8.20854L31.0461 8.88604L31.3052 8.16668C32.4059 9.08747 33.2711 10.2573 33.8292 11.5793ZM16.5062 21.939L18.5009 25.77C18.5971 25.952 18.6883 26.1176 18.7764 26.2755C18.0174 26.4835 17.2195 26.1112 16.8911 25.3961L16.1423 23.8217C15.8466 23.1812 15.993 22.4232 16.5062 21.939ZM21.0038 2.02131C22.451 2.02455 23.7833 2.81027 24.4864 4.07518C21.7485 4.30397 19.1955 5.54964 17.3302 7.56677C16.4606 5.55339 17.3878 3.21624 19.4012 2.34669C19.9071 2.12814 20.4529 2.01743 21.0038 2.02131ZM9.57051 29.4078C10.6932 27.496 12.7336 26.2572 14.9899 26.0545L15.0812 26.2468C15.9192 28.0536 18.0631 28.8392 19.8701 28.0013C19.8794 27.997 19.8886 27.9927 19.8977 27.9883L19.9041 27.9854C20.8126 29.2551 21.8816 30.4019 23.0844 31.3973L9.86727 32.719C9.03271 32.8023 8.20276 32.9337 7.37794 33.0932L9.57051 29.4078ZM4.50499 35.8975C6.3092 35.2969 8.17439 34.898 10.0665 34.7086L27.0016 33.0099H37.6647L39.4658 34.3609L27.8597 36.0176C27.7901 36.0276 27.7216 36.045 27.6556 36.0693L8.82953 43.0053H5.65794C3.64356 43.0053 2.01053 41.3721 2.01065 39.3577C2.01078 37.7877 3.01554 36.3938 4.50499 35.8975ZM54.0917 43.0063H52.0363L29.0884 40.9709C28.9497 40.9572 28.8097 40.9743 28.6784 41.0209L22.8381 43.0063H14.6103L28.2473 37.9817L41.192 36.1338L53.8918 35.0092H54.0812C54.2218 35.0087 54.3623 35.0168 54.5019 35.0336C56.4908 35.2522 57.9903 36.9606 57.9903 39.0077C57.9903 41.2129 56.2409 43.0063 54.0917 43.0063Z" fill="#C28565"/>
<path d="M20.6672 22.4162L21.9207 23.9742C23.0038 23.105 24.2779 22.5058 25.638 22.2257L25.2382 20.2675C23.5658 20.6112 21.9991 21.3478 20.6672 22.4162Z" fill="#C28565"/>
<path d="M30.5687 25.5918C29.858 25.9267 29.0855 26.1105 28.3 26.1316L28.136 26.1355L28.1828 28.1347L28.3459 28.1309C30.081 28.0848 31.7497 27.4544 33.0817 26.3415L31.799 24.8088C31.4244 25.1217 31.0108 25.3849 30.5687 25.5918Z" fill="#C28565"/>
<path d="M24.8815 19.5666L25.4476 17.6493C22.6225 16.8166 19.7818 18.157 18.6934 20.8396L20.5462 21.5912C21.251 19.8536 23.0316 19.0228 24.8815 19.5666Z" fill="#C28565"/>
<path d="M27.4141 16.7248L29.2509 17.5121C30.0094 15.7422 31.7851 14.9026 33.5764 15.4649L34.1778 13.5594C31.4181 12.6853 28.5734 14.0178 27.4141 16.7248Z" fill="#C28565"/>
<path d="M26.2263 19.0674L28.0363 18.2154L30.646 23.7594L28.836 24.6114L26.2263 19.0674Z" fill="#C28565"/>
<path d="M30.8685 19.9015C31.9519 19.0324 33.2263 18.4331 34.5865 18.1529L34.1843 16.1946C32.5124 16.5386 30.9463 17.2751 29.6147 18.3432L30.8685 19.9015Z" fill="#C28565"/>
<path d="M17.5537 51.1003C17.1021 50.3743 16.3776 49.8605 15.5432 49.6743C15.0527 49.5607 14.5468 49.529 14.046 49.5802C14.0347 49.5157 14.022 49.4514 14.0062 49.387C13.8029 48.5652 13.2705 47.8633 12.5338 47.4462C11.0517 46.5879 9.11904 47.0313 8.22674 48.435C7.97933 48.8235 7.79989 49.2513 7.69618 49.7C6.79014 49.5472 5.8621 49.791 5.14812 50.3694L5.11663 50.3944C4.47736 50.9041 4.07926 51.6571 4.01803 52.4724C3.95805 53.2786 4.23645 54.0733 4.78662 54.6657L4.89283 54.7822C5.19472 55.1114 5.54672 55.3911 5.93583 55.6106C5.5406 56.4041 5.52498 57.3335 5.89322 58.1398C6.62607 59.6765 8.41792 60.3906 10.007 59.7794C10.4603 59.6042 10.881 59.3544 11.2518 59.0402C11.8634 59.6545 12.6945 59.9999 13.5613 60C13.6373 60 13.7136 59.9974 13.7905 59.992C14.6378 59.9394 15.4271 59.5439 15.9764 58.8966C16.4977 58.2854 16.7474 57.4881 16.6679 56.6887C16.6224 56.2244 16.4987 55.7709 16.302 55.3479C17.1166 54.9621 17.7129 54.2286 17.9242 53.3525C18.1081 52.5824 17.9745 51.7708 17.5537 51.1003ZM15.0935 51.6225C15.4079 51.6899 15.682 51.881 15.8541 52.1526C15.993 52.3706 16.0385 52.6352 15.9801 52.887C15.8719 53.3393 15.429 53.6526 14.9215 53.6658C14.1878 53.125 13.3083 52.8175 12.3975 52.7833C12.8597 51.8712 13.9723 51.3631 15.0935 51.6225ZM9.91412 49.5074C10.2335 49.005 10.9744 48.8536 11.5318 49.1764C11.7958 49.3222 11.9884 49.5701 12.0642 49.862C12.0971 49.9963 12.0997 50.1363 12.0718 50.2717C11.3206 50.7524 10.7448 51.4629 10.4299 52.2973C10.0458 51.9911 9.77305 51.5672 9.65347 51.0908C9.51902 50.5496 9.61336 49.9769 9.91412 49.5074ZM6.0118 52.6207C6.03442 52.3547 6.16687 52.1103 6.37729 51.946L6.4089 51.921C6.80426 51.6081 7.35156 51.5711 7.78552 51.8276C8.0513 52.6687 8.57286 53.4059 9.2776 53.9365C8.30359 54.4314 7.12002 54.2269 6.36842 53.4339L6.26208 53.3176C6.0854 53.1302 5.99468 52.8778 6.0118 52.6207ZM9.28223 57.9167C8.68445 58.1489 7.96696 57.8743 7.71493 57.3169C7.53412 56.9258 7.64045 56.4619 7.97346 56.1885C8.03656 56.1912 8.09953 56.1932 8.16264 56.1932C9.04319 56.1963 9.90487 55.9386 10.6392 55.4529C10.7419 55.8689 10.7098 56.3068 10.5476 56.7034C10.3123 57.2656 9.85402 57.7051 9.28223 57.9167ZM14.4497 57.6058C14.2475 57.8397 13.9588 57.9811 13.65 57.9976C13.1496 58.0355 12.676 57.7665 12.4522 57.3171C12.75 56.5079 12.7784 55.6241 12.5334 54.7973C13.6533 54.9315 14.5717 55.7874 14.6778 56.8817C14.7035 57.1439 14.6211 57.4055 14.4497 57.6058Z" fill="#C28565"/>
</g>
<defs>
<clipPath id="clip0_786_12355">
<rect width="60" height="60" fill="white"/>
</clipPath>
</defs>
</svg>
