<svg width="58" height="62" viewBox="0 0 58 62" fill="none" xmlns="http://www.w3.org/2000/svg">
<path d="M53.3855 26.3085V30.3574C53.3855 31.0134 52.7612 31.4899 52.1243 31.3215C49.1507 30.5356 46.1772 30.5356 43.2037 31.3215C42.5668 31.4899 41.9424 31.0134 41.9424 30.3574V26.3085" stroke="#C28565" stroke-width="1.7" stroke-miterlimit="10" stroke-linecap="round" stroke-linejoin="round"/>
<path d="M43.6101 9.68371L44.595 3.92045C44.7017 3.29148 45.2499 2.8314 45.8903 2.8314H49.4392C50.0808 2.8314 50.6279 3.29148 50.7346 3.92045L53.3435 19.1847C53.3726 19.3513 53.3864 19.5192 53.3864 19.6881V26.3085H41.9434V19.6881C41.9434 19.5192 41.9582 19.3513 41.9861 19.1847L42.4021 16.7474" stroke="#C28565" stroke-width="1.7" stroke-miterlimit="10" stroke-linecap="round" stroke-linejoin="round"/>
<path d="M11.7549 23.5761C14.6479 26.8944 17.4232 30.1677 19.0504 33.5077C19.3342 34.0902 19.3355 34.7693 19.0636 35.3574C18.8112 35.9035 18.5115 36.5397 18.2182 37.1568C17.4503 38.7734 17.6907 40.6858 18.8359 42.0635C19.7152 43.1213 21.0227 43.7338 22.4021 43.7338C26.1985 43.7338 31.5691 42.481 34.6447 42.5195C37.0993 42.5504 41.1857 43.7338 44.3883 43.7338H50.317C52.542 43.7338 54.3458 41.9384 54.3458 39.7235V39.1149C54.3458 38.5927 53.9206 38.1695 53.396 38.1695H49.2814C48.9507 38.1695 48.6236 38.1002 48.3213 37.9662L28.5588 29.2025C28.0692 28.9855 27.6814 28.5902 27.4748 28.0978L16.111 1.00001" stroke="#C28565" stroke-width="1.7" stroke-miterlimit="10" stroke-linecap="round" stroke-linejoin="round"/>
<path d="M1.52775 0.999981C-0.550892 8.11402 3.84157 14.3419 8.92368 20.3118" stroke="#C28565" stroke-width="1.7" stroke-miterlimit="10" stroke-linecap="round" stroke-linejoin="round"/>
<path d="M49.25 19.1388L49.358 17.7783C49.3701 17.6189 49.3252 17.4595 49.2294 17.3292L42.1898 7.7509C41.7532 7.15693 40.9357 6.98551 40.2953 7.35371L39.7823 7.64828C39.1406 8.01649 38.8811 8.80724 39.1807 9.48088L43.9946 20.3376C44.0589 20.4849 44.1753 20.6044 44.3209 20.6732L45.5568 21.2599" stroke="#C28565" stroke-width="1.7" stroke-miterlimit="10" stroke-linecap="round" stroke-linejoin="round"/>
<path d="M47.6644 18.4637C46.4518 18.4637 45.4688 19.442 45.4688 20.6491C45.4688 21.8562 46.4518 22.8346 47.6644 22.8346C48.8772 22.8346 49.8602 21.8562 49.8602 20.6491C49.8602 19.442 48.8772 18.4637 47.6644 18.4637Z" stroke="#C28565" stroke-width="1.7" stroke-miterlimit="10" stroke-linecap="round" stroke-linejoin="round"/>
<path d="M41.3003 61H49.7381C52.5983 61 54.9171 58.6921 54.9171 55.8452V52.7377C54.9171 52.4041 55.1242 52.1084 55.4353 51.9842C56.3524 51.6185 57.0004 50.7274 57.0004 49.6839C57.0004 48.3138 55.8846 47.2031 54.5081 47.2031H9.0158C7.63929 47.2031 6.52344 48.3138 6.52344 49.6839C6.52344 50.7274 7.17148 51.6185 8.08854 51.9842C8.39965 52.1084 8.60681 52.4041 8.60681 52.7377V55.8452C8.60681 58.6921 10.9255 61 13.7857 61H37.0552" stroke="#C28565" stroke-width="1.7" stroke-miterlimit="10" stroke-linecap="round" stroke-linejoin="round"/>
</svg>
