<svg width="60" height="60" viewBox="0 0 60 60" fill="none" xmlns="http://www.w3.org/2000/svg">
<path d="M37.122 8.80948C36.5955 8.83323 36.0957 9.0477 35.7157 9.41287C35.6911 9.43631 35.6669 9.45975 35.6454 9.48237C35.6214 9.50674 35.5986 9.53147 35.5741 9.55772C35.2129 9.94949 35.0042 10.4577 34.9857 10.9902C34.32 10.9512 33.6575 11.1088 33.0806 11.4434C32.5038 11.778 32.0381 12.2749 31.7416 12.8721C31.5468 13.2758 31.4767 13.7284 31.5405 14.1721C31.6042 14.6157 31.7988 15.0303 32.0993 15.3628C32.379 15.6693 32.5459 15.9694 32.5459 16.1658C32.5459 16.3812 32.3911 16.6723 32.1215 16.9643C31.8138 17.297 31.6137 17.7148 31.5474 18.163C31.481 18.6112 31.5515 19.0691 31.7497 19.4766C32.0258 20.04 32.4544 20.5147 32.9868 20.8469C33.5191 21.1791 34.1339 21.3554 34.7614 21.3558C34.8317 21.3558 34.9034 21.3528 34.9747 21.3482C34.9951 21.8785 35.2039 22.3841 35.5636 22.7742C35.586 22.7986 35.6086 22.8225 35.632 22.8464C35.6553 22.8703 35.6802 22.8946 35.7052 22.9183C36.0879 23.2853 36.5918 23.4993 37.1216 23.5199C37.0843 24.1788 37.2421 24.8341 37.5753 25.4037C37.9085 25.9734 38.4023 26.4322 38.9949 26.7226C39.4025 26.921 39.8605 26.9916 40.3089 26.9253C40.7573 26.8589 41.1752 26.6587 41.5079 26.3508C41.7998 26.0813 42.0909 25.9265 42.3063 25.9265C42.5025 25.9265 42.8027 26.0935 43.1092 26.3731C43.5242 26.7487 44.0643 26.9563 44.6241 26.9553C44.9622 26.9558 45.296 26.8791 45.5999 26.7308C46.1922 26.4368 46.6859 25.9764 47.0204 25.406C47.355 24.8356 47.5159 24.18 47.4835 23.5196C47.9946 23.495 48.4808 23.2911 48.8564 22.9436C48.8815 22.9207 48.9062 22.8967 48.9286 22.8751C48.9537 22.8505 48.9782 22.8256 49.0009 22.8013C49.377 22.4082 49.5959 21.8908 49.6161 21.3471C49.6942 21.3526 49.7723 21.3562 49.8504 21.3562C50.4779 21.3557 51.0927 21.1794 51.625 20.8472C52.1574 20.5151 52.586 20.0404 52.8621 19.4769C53.0603 19.0695 53.1309 18.6117 53.0646 18.1635C52.9983 17.7153 52.7982 17.2975 52.4905 16.9649C52.221 16.6729 52.0662 16.3818 52.0662 16.1664C52.0662 15.97 52.2332 15.6699 52.5127 15.3633C52.8132 15.0308 53.0078 14.6162 53.0715 14.1726C53.1352 13.7289 53.0652 13.2764 52.8703 12.8727C52.574 12.2754 52.1085 11.7785 51.5317 11.4438C50.955 11.1091 50.2926 10.9515 49.627 10.9906C49.6084 10.4453 49.3898 9.92585 49.0129 9.53135C48.9895 9.50592 48.9646 9.48096 48.9415 9.45834C48.9184 9.43573 48.8924 9.41147 48.8668 9.38803C48.4889 9.03768 47.9988 8.83304 47.4839 8.81065C47.516 8.15045 47.3547 7.49524 47.02 6.92527C46.6854 6.35529 46.1917 5.89529 45.5996 5.60159C45.1959 5.40677 44.7434 5.33674 44.2997 5.40045C43.8561 5.46416 43.4415 5.65871 43.109 5.95924C42.8024 6.23873 42.5022 6.40573 42.3059 6.40573C42.0906 6.40573 41.7995 6.25104 41.5075 5.98139C41.1748 5.67384 40.757 5.47384 40.3088 5.40755C39.8606 5.34125 39.4029 5.41173 38.9954 5.60979C38.4033 5.90006 37.9098 6.35834 37.5766 6.9274C37.2435 7.49646 37.0853 8.15108 37.122 8.80948ZM35.3759 19.6031C34.9744 19.7538 34.5312 19.7495 34.1326 19.5913C33.734 19.433 33.4085 19.1321 33.2197 18.7471C33.1681 18.6376 33.1508 18.5152 33.1699 18.3957C33.189 18.2763 33.2437 18.1654 33.3269 18.0775C33.8894 17.4681 34.1868 16.8074 34.1868 16.1658C34.1868 15.5358 33.8923 14.8937 33.3118 14.2571C33.2315 14.1686 33.1794 14.0581 33.1622 13.9399C33.1451 13.8216 33.1636 13.701 33.2154 13.5933C33.4067 13.2091 33.7326 12.9086 34.1311 12.7491C34.5296 12.5896 34.9728 12.5823 35.3764 12.7285L39.3071 14.6918C39.201 14.9063 39.1185 15.1316 39.061 15.3639L38.1154 15.3726C37.8978 15.3735 37.6896 15.4609 37.5364 15.6154C37.3833 15.7699 37.2978 15.9789 37.2987 16.1965C37.2997 16.4141 37.387 16.6223 37.5416 16.7755C37.6961 16.9286 37.9051 17.0141 38.1227 17.0132H38.1303L39.0698 17.0046C39.1268 17.2239 39.2062 17.4368 39.3066 17.6399L35.3759 19.6031ZM38.2306 20.7012L38.2284 20.7L37.8961 21.3242C37.8844 21.3467 37.8727 21.3696 37.8633 21.3933C37.8175 21.51 37.7446 21.6141 37.6505 21.697C37.5565 21.7799 37.444 21.8392 37.3225 21.87C37.2354 21.8898 37.1448 21.887 37.0591 21.8618C36.9734 21.8367 36.8956 21.79 36.8331 21.7262C36.8234 21.717 36.8138 21.7076 36.8042 21.6979C36.7946 21.6881 36.7844 21.6772 36.7759 21.6681C36.7077 21.5963 36.6585 21.5085 36.633 21.4127C36.6074 21.3169 36.6063 21.2163 36.6298 21.12C36.659 20.9999 36.7167 20.8886 36.798 20.7954C36.8793 20.7023 36.9818 20.6301 37.0969 20.5849C37.1179 20.5763 37.1388 20.5667 37.159 20.5563L37.7933 20.2319L37.7924 20.2301L38.6899 19.7819L38.2306 20.7012ZM44.8783 25.2572C44.7706 25.309 44.6499 25.3275 44.5316 25.3104C44.4134 25.2932 44.3029 25.2411 44.2144 25.1608C43.5776 24.5802 42.9356 24.2858 42.3058 24.2858C41.6642 24.2858 41.0032 24.5831 40.3942 25.1456C40.3063 25.2288 40.1954 25.2835 40.0759 25.3027C39.9564 25.3218 39.834 25.3044 39.7245 25.2529C39.3395 25.064 39.0385 24.7386 38.8803 24.34C38.7221 23.9414 38.7178 23.4982 38.8684 23.0966L40.8319 19.1657C41.0476 19.272 41.2743 19.3545 41.5079 19.4118L41.5124 20.3531C41.5135 20.57 41.6004 20.7776 41.7541 20.9306C41.9078 21.0836 42.1159 21.1695 42.3327 21.1695H42.3368C42.4446 21.169 42.5512 21.1472 42.6505 21.1055C42.7498 21.0638 42.84 21.0029 42.9158 20.9264C42.9916 20.8498 43.0516 20.7591 43.0923 20.6593C43.133 20.5596 43.1537 20.4528 43.1532 20.3451L43.1486 19.401C43.3664 19.344 43.5779 19.265 43.7798 19.1653L44.9112 21.4307L44.9077 21.4326L45.0797 21.7681L45.2478 22.1046C45.2741 22.1622 45.3019 22.2188 45.3322 22.2736L45.7431 23.0964C45.8893 23.4999 45.8819 23.9431 45.7225 24.3416C45.563 24.74 45.2626 25.0659 44.8784 25.2572H44.8783ZM40.6035 16.1658C40.6035 15.8291 40.7034 15.5 40.8904 15.2201C41.0775 14.9401 41.3433 14.722 41.6544 14.5931C41.9654 14.4643 42.3077 14.4306 42.6379 14.4962C42.9681 14.5619 43.2714 14.7241 43.5095 14.9621C43.7475 15.2002 43.9097 15.5035 43.9753 15.8337C44.041 16.1639 44.0073 16.5062 43.8785 16.8172C43.7496 17.1283 43.5315 17.3941 43.2515 17.5812C42.9716 17.7682 42.6425 17.8681 42.3058 17.8681C41.8545 17.8676 41.4218 17.6881 41.1027 17.3689C40.7836 17.0498 40.6041 16.6171 40.6036 16.1658H40.6035ZM47.8064 21.6761C47.798 21.685 47.7893 21.6939 47.7783 21.7047C47.7673 21.7155 47.759 21.7233 47.7498 21.7316C47.6859 21.7948 47.6069 21.8405 47.5202 21.8643C47.4336 21.8882 47.3423 21.8894 47.2551 21.8678C47.1543 21.8414 47.0599 21.7947 46.9777 21.7305C46.8956 21.6664 46.8273 21.5863 46.7772 21.4949L46.7268 21.3942C46.7253 21.3904 46.7232 21.3867 46.7215 21.3825C46.7122 21.3586 46.7016 21.3351 46.6899 21.3122L46.5503 21.04L45.9215 19.781L46.8461 20.2428L47.4421 20.5592C47.4624 20.5699 47.4829 20.5798 47.5039 20.5888C47.6182 20.6357 47.7196 20.7094 47.7995 20.8037C47.8793 20.8981 47.9353 21.0103 47.9625 21.1308C47.9845 21.2275 47.9817 21.3281 47.9545 21.4234C47.9272 21.5188 47.8763 21.6056 47.8066 21.6761H47.8064ZM49.2361 12.7285C49.6397 12.5824 50.0829 12.5899 50.4813 12.7494C50.8797 12.909 51.2055 13.2095 51.3967 13.5938C51.4485 13.7014 51.467 13.8221 51.4498 13.9403C51.4327 14.0585 51.3807 14.169 51.3005 14.2575C50.72 14.8942 50.4255 15.5363 50.4255 16.1663C50.4255 16.8078 50.7227 17.4687 51.2853 18.078C51.3684 18.1658 51.4232 18.2767 51.4423 18.3961C51.4614 18.5156 51.4441 18.638 51.3925 18.7474C51.2037 19.1325 50.8782 19.4335 50.4796 19.5917C50.081 19.75 49.6378 19.7542 49.2362 19.6036L47.5945 18.7833L47.5827 18.7773L45.3047 17.6399C45.4103 17.4259 45.4925 17.2011 45.5499 16.9695L46.4972 16.9593C46.7148 16.9581 46.923 16.8706 47.076 16.716C47.2291 16.5614 47.3144 16.3523 47.3133 16.1347C47.3121 15.9171 47.2246 15.7089 47.07 15.5559C46.9153 15.4029 46.7062 15.3175 46.4887 15.3187H46.4797L45.5422 15.3287C45.4851 15.1089 45.4055 14.8954 45.3048 14.6918L47.5913 13.5497L47.5933 13.5532L47.7333 13.4788L49.2361 12.7285ZM46.3745 11.6441L46.3788 11.6464L46.701 11.0174C46.7127 10.994 46.7233 10.9714 46.7327 10.9477C46.7767 10.8303 46.848 10.725 46.9408 10.6407C47.0336 10.5563 47.1451 10.4953 47.2662 10.4626C47.3533 10.4411 47.4445 10.4423 47.531 10.4661C47.6175 10.4898 47.6965 10.5353 47.7604 10.5982C47.7701 10.6072 47.78 10.6164 47.7913 10.6276C47.8005 10.6365 47.8091 10.6455 47.8186 10.6555C47.8879 10.7258 47.9384 10.8123 47.9655 10.9072C47.9926 11.0021 47.9954 11.1022 47.9737 11.1985C47.9464 11.319 47.8904 11.4312 47.8106 11.5255C47.7307 11.6198 47.6294 11.6936 47.515 11.7405C47.494 11.7495 47.4734 11.7593 47.4534 11.77L46.9805 12.0211L45.9218 12.5499L46.3745 11.6441ZM39.7247 7.0792C39.8342 7.02762 39.9567 7.01028 40.0762 7.02943C40.1957 7.04858 40.3066 7.10334 40.3945 7.18655C41.0038 7.74905 41.6645 8.04623 42.3059 8.04623C42.9357 8.04623 43.5779 7.75186 44.2145 7.17131C44.3031 7.0911 44.4135 7.0391 44.5318 7.02194C44.65 7.00479 44.7707 7.02325 44.8784 7.07498C45.2626 7.26622 45.5631 7.59211 45.7226 7.99058C45.8821 8.38905 45.8894 8.83227 45.7432 9.2358L43.7799 13.1666C43.5641 13.0603 43.3373 12.9778 43.1036 12.9205L43.0991 11.9794C43.0981 11.7625 43.0112 11.5549 42.8575 11.4018C42.7038 11.2488 42.4957 11.163 42.2788 11.163H42.2748C42.1671 11.1635 42.0606 11.1852 41.9612 11.2269C41.8619 11.2686 41.7717 11.3294 41.6959 11.4059C41.6201 11.4825 41.5601 11.5732 41.5194 11.6729C41.4786 11.7726 41.4579 11.8794 41.4584 11.9871L41.4629 12.9314C41.245 12.9883 41.0336 13.0673 40.8318 13.1671L39.6811 10.8633L39.6874 10.86L39.5614 10.6232L38.8687 9.23627C38.7178 8.83464 38.7219 8.39121 38.8802 7.99243C39.0384 7.59364 39.3395 7.26808 39.7247 7.0792ZM37.8004 12.1055L37.8041 12.0983L37.1698 11.774C37.1494 11.7636 37.1287 11.754 37.1076 11.7454C36.9925 11.7002 36.8901 11.6281 36.8088 11.5349C36.7275 11.4418 36.6699 11.3305 36.6407 11.2104C36.6173 11.1145 36.6182 11.0143 36.6435 10.9189C36.6687 10.8234 36.7174 10.7358 36.7852 10.6641C36.7941 10.6544 36.8034 10.6445 36.8146 10.633C36.8241 10.6233 36.8337 10.6139 36.843 10.6051C36.9054 10.5412 36.9833 10.4943 37.0691 10.469C37.1548 10.4438 37.2457 10.441 37.3328 10.461C37.4544 10.4918 37.5669 10.5511 37.661 10.634C37.755 10.7169 37.828 10.8211 37.8738 10.9378C37.8836 10.9613 37.8945 10.9847 37.9066 11.0069L38.0995 11.3692L38.6893 12.5502L37.8004 12.1055Z" fill="#C28565"/>
<path d="M20.3964 17.7129C20.6707 19.055 21.2417 21.8474 24.4757 22.3942C24.5025 22.3987 24.5294 22.4018 24.5565 22.4037L27.5585 22.609C27.5773 22.6103 27.596 22.6109 27.6147 22.6109C27.7688 22.6109 27.9199 22.5674 28.0504 22.4854C28.181 22.4034 28.2859 22.2864 28.3529 22.1475L29.6622 19.4384C29.672 19.4179 29.681 19.3969 29.6894 19.3758C30.8653 16.3161 28.707 14.4262 27.6696 13.518L27.5582 13.4202C26.0271 12.0726 21.1024 8.8988 20.8936 8.76427C20.7666 8.68253 20.6194 8.63745 20.4684 8.634C20.3174 8.63056 20.1683 8.66888 20.0377 8.74476C19.9071 8.82063 19.7999 8.9311 19.7281 9.06398C19.6563 9.19687 19.6225 9.34702 19.6306 9.49787C19.6438 9.74595 19.9596 15.5959 20.3719 17.5939L20.3964 17.7129ZM26.4741 14.6515L26.5889 14.7523C27.8122 15.8234 28.8531 16.9361 28.1697 18.7567L27.5497 20.039L24.7569 15.2306C24.6477 15.0424 24.4681 14.9054 24.2578 14.8497C24.0475 14.7939 23.8237 14.824 23.6356 14.9333C23.4474 15.0425 23.3104 15.2221 23.2547 15.4324C23.1989 15.6427 23.229 15.8665 23.3383 16.0546L26.1333 20.8672L24.7109 20.7699C22.7803 20.4257 22.3283 18.9722 22.0038 17.3845L21.9788 17.2626C21.7195 16.0058 21.4908 12.9411 21.3668 11.0333C22.9624 12.0862 25.5116 13.8036 26.4741 14.6515Z" fill="#C28565"/>
<path d="M56.8849 25.0718C56.6527 25.1597 51.1744 27.2364 49.3967 28.2359L49.2912 28.2951C48.222 28.8928 46.1167 30.0726 46.0177 32.6437H32.7046L12.2841 18.3423C12.597 17.9039 12.7321 17.3631 12.6621 16.8291C12.5921 16.295 12.3223 15.8073 11.907 15.4643L11.2589 14.931C11.0433 14.7534 10.7947 14.62 10.5274 14.5385C10.2602 14.4569 9.97951 14.4289 9.70142 14.4559C9.42333 14.4829 9.15327 14.5644 8.90669 14.6958C8.66011 14.8271 8.44183 15.0058 8.26433 15.2216L2.48909 22.238C2.31151 22.4536 2.17817 22.7022 2.09667 22.9694C2.01517 23.2367 1.98711 23.5173 2.0141 23.7954C2.04109 24.0735 2.12259 24.3435 2.25396 24.5901C2.38532 24.8367 2.56398 25.0549 2.77972 25.2325L3.42776 25.766C3.80677 26.0797 4.28342 26.2513 4.77542 26.251C4.84487 26.251 4.91468 26.2476 4.98483 26.2409C5.49651 26.1919 5.97275 25.958 6.32417 25.5828L13.6582 32.6434H12.9161C12.6985 32.6434 12.4899 32.7298 12.336 32.8837C12.1822 33.0375 12.0958 33.2461 12.0958 33.4637V37.059C12.0997 40.1821 13.2538 43.1944 15.3377 45.5205C17.4217 47.8467 20.2894 49.3238 23.3932 49.6698V53.8052C23.3932 54.0228 23.4797 54.2314 23.6335 54.3853C23.7873 54.5391 23.996 54.6255 24.2135 54.6255H45.4316C45.6492 54.6255 45.8578 54.5391 46.0117 54.3853C46.1655 54.2314 46.2519 54.0228 46.2519 53.8052V49.6698C49.3557 49.3236 52.2232 47.8465 54.307 45.5203C56.3908 43.1942 57.5449 40.182 57.5488 37.059V33.4637C57.5488 33.2461 57.4624 33.0375 57.3086 32.8837C57.1547 32.7298 56.9461 32.6434 56.7285 32.6434H56.0003C56.8316 30.2519 57.9127 26.2527 57.9667 26.0526C58.0061 25.9068 58.0044 25.7529 57.9618 25.6079C57.9193 25.463 57.8375 25.3326 57.7256 25.2312C57.6136 25.1297 57.4758 25.0611 57.3274 25.033C57.179 25.0049 57.0257 25.0183 56.8844 25.0718H56.8849ZM5.15546 24.4328C5.07338 24.5324 4.95512 24.5954 4.82664 24.6079C4.69816 24.6203 4.56998 24.5813 4.47026 24.4993L3.82233 23.9659C3.7228 23.8837 3.6599 23.7655 3.64743 23.637C3.63495 23.5085 3.67391 23.3804 3.75577 23.2806L9.53112 16.2641C9.57161 16.2146 9.62153 16.1736 9.67798 16.1436C9.73443 16.1135 9.79628 16.095 9.85995 16.089C9.87583 16.0874 9.89179 16.0866 9.90776 16.0866C10.0204 16.0865 10.1296 16.1259 10.2163 16.1978L10.8644 16.731C10.9639 16.8131 11.0268 16.9314 11.0393 17.0599C11.0518 17.1883 11.0128 17.3165 10.9309 17.4163L5.15546 24.4328ZM7.37546 24.3172L11.2443 19.6172L29.8448 32.6434H16.0241L7.37546 24.3172ZM44.6113 52.9849H25.0343V49.7461H44.6113V52.9849ZM55.9082 37.0591C55.9048 39.9877 54.74 42.7954 52.6692 44.8662C50.5984 46.9371 47.7908 48.102 44.8622 48.1055H24.7833C21.8546 48.1021 19.0468 46.9372 16.9759 44.8663C14.905 42.7954 13.7402 39.9876 13.7369 37.0589V34.2839H54.8077H54.8123H54.8155H55.9088L55.9082 37.0591ZM54.2577 32.6434H52.1202L52.9785 31.6963C53.0527 31.6168 53.1103 31.5233 53.148 31.4214C53.1857 31.3194 53.2028 31.211 53.1983 31.1023C53.1937 30.9937 53.1676 30.8871 53.1215 30.7886C53.0753 30.6902 53.0101 30.6019 52.9295 30.5289C52.8489 30.4559 52.7547 30.3996 52.6522 30.3633C52.5497 30.3271 52.441 30.3116 52.3324 30.3177C52.2239 30.3238 52.1176 30.3515 52.0199 30.399C51.9221 30.4466 51.8348 30.5131 51.7629 30.5947L49.9062 32.6435H47.6591C47.7489 31.1698 48.8563 30.4169 50.0911 29.7267L50.1996 29.6659C51.3183 29.0375 54.169 27.8893 55.9491 27.1922C55.4944 28.8039 54.776 31.2664 54.2577 32.6434Z" fill="#C28565"/>
</svg>
