<svg width="60" height="60" viewBox="0 0 60 60" fill="none" xmlns="http://www.w3.org/2000/svg">
<path d="M15 14C14.4067 14 13.8266 14.1759 13.3333 14.5056C12.8399 14.8352 12.4554 15.3038 12.2284 15.8519C12.0013 16.4001 11.9419 17.0033 12.0576 17.5853C12.1734 18.1672 12.4591 18.7018 12.8787 19.1213C13.2982 19.5409 13.8328 19.8266 14.4147 19.9424C14.9967 20.0581 15.5999 19.9987 16.1481 19.7716C16.6962 19.5446 17.1648 19.1601 17.4944 18.6667C17.8241 18.1734 18 17.5933 18 17C18 16.2044 17.6839 15.4413 17.1213 14.8787C16.5587 14.3161 15.7957 14 15 14ZM15 18C14.8022 18 14.6089 17.9414 14.4444 17.8315C14.28 17.7216 14.1518 17.5654 14.0761 17.3827C14.0004 17.2 13.9806 16.9989 14.0192 16.8049C14.0578 16.6109 14.153 16.4327 14.2929 16.2929C14.4327 16.153 14.6109 16.0578 14.8049 16.0192C14.9989 15.9806 15.2 16.0004 15.3827 16.0761C15.5654 16.1518 15.7216 16.28 15.8315 16.4444C15.9414 16.6089 16 16.8022 16 17C16 17.2652 15.8946 17.5196 15.7071 17.7071C15.5196 17.8946 15.2652 18 15 18Z" fill="#C28565"/>
<path d="M57.331 5.573L43.331 4.018C42.9117 3.97145 42.4872 4.01387 42.0854 4.14251C41.6835 4.27114 41.3134 4.48308 40.999 4.7645C40.6847 5.04592 40.4332 5.39049 40.2611 5.77569C40.0889 6.1609 40 6.57808 40 7V11H28.722C28.5479 10.697 28.2971 10.445 27.9948 10.2695C27.6926 10.094 27.3495 10.0011 27 10H25.234C23.092 3.816 19.217 0 15 0C9.112 0 4.34 7.063 3.24 16.718C1.14843 19.3604 0.00716148 22.63 0 26L0 57C0 57.7957 0.316071 58.5587 0.87868 59.1213C1.44129 59.6839 2.20435 60 3 60H27C27.7957 60 28.5587 59.6839 29.1213 59.1213C29.6839 58.5587 30 57.7957 30 57V26C29.9926 23.1258 29.1595 20.3143 27.6 17.9C28.0727 17.7495 28.4726 17.4288 28.722 17H40V21C40 21.7956 40.3161 22.5587 40.8787 23.1213C41.4413 23.6839 42.2044 24 43 24C43.1675 24 43.3347 23.9863 43.5 23.959L57.5 21.625C58.2002 21.5089 58.8362 21.1474 59.2942 20.6053C59.7523 20.0632 60.0024 19.3757 60 18.666V8.555C60.0001 7.81661 59.7278 7.10412 59.2354 6.55393C58.743 6.00373 58.0649 5.65447 57.331 5.573ZM27 16H23C22.7348 16 22.4804 15.8946 22.2929 15.7071C22.1054 15.5196 22 15.2652 22 15V13C22 12.7348 22.1054 12.4804 22.2929 12.2929C22.4804 12.1054 22.7348 12 23 12H27V16ZM19.255 19.657C19.3788 20.0595 19.3716 20.491 19.2344 20.8891C19.0972 21.2873 18.8371 21.6316 18.4917 21.8724C18.1462 22.1132 17.7332 22.2381 17.3121 22.229C16.8911 22.22 16.4838 22.0774 16.149 21.822C15.8118 21.5802 15.4068 21.451 14.9919 21.4528C14.5769 21.4546 14.1731 21.5873 13.838 21.832C13.5021 22.0841 13.0951 22.2233 12.6752 22.2298C12.2554 22.2362 11.8442 22.1096 11.5008 21.8679C11.1573 21.6263 10.8992 21.2821 10.7635 20.8848C10.6277 20.4874 10.6212 20.0573 10.745 19.656C10.8846 19.2534 10.892 18.8168 10.7661 18.4097C10.6402 18.0027 10.3875 17.6464 10.045 17.393C9.6976 17.1507 9.43653 16.8039 9.29973 16.403C9.16293 16.0022 9.15754 15.5681 9.28433 15.164C9.41113 14.7598 9.6635 14.4067 10.0048 14.1558C10.3461 13.9049 10.7584 13.7694 11.182 13.769H11.212C11.63 13.7743 12.0387 13.6457 12.3784 13.4021C12.7181 13.1585 12.9709 12.8126 13.1 12.415C13.2238 12.0054 13.4763 11.6465 13.8201 11.3917C14.1639 11.137 14.5807 10.9998 15.0086 11.0006C15.4365 11.0013 15.8528 11.1401 16.1957 11.3961C16.5385 11.6522 16.7897 12.0119 16.912 12.422C17.0445 12.8123 17.2951 13.1517 17.6291 13.3932C17.9631 13.6347 18.3639 13.7664 18.776 13.77C19.2181 13.7676 19.6485 13.9118 20 14.18V15C20.0004 15.6156 20.1919 16.2159 20.548 16.718C20.4072 16.9846 20.2058 17.2144 19.96 17.389C19.6156 17.6421 19.3613 17.9989 19.2344 18.407C19.1075 18.8152 19.1147 19.2532 19.255 19.657ZM15 2C18.2 2 21.235 5.033 23.111 10H23C22.3757 10.0019 21.7675 10.199 21.2608 10.5638C20.754 10.9285 20.3741 11.4426 20.174 12.034C19.74 11.8725 19.2775 11.8014 18.815 11.825C18.5672 11.0066 18.0622 10.2899 17.3751 9.78107C16.6879 9.27222 15.8551 8.99833 15 9C14.1589 8.98874 13.3373 9.25355 12.6611 9.75386C11.9848 10.2542 11.4913 10.9624 11.256 11.77C10.4011 11.7598 9.56511 12.0223 8.86954 12.5195C8.17398 13.0168 7.65501 13.7228 7.388 14.535C7.12339 15.3319 7.12208 16.1928 7.38426 16.9905C7.64645 17.7882 8.15822 18.4805 8.844 18.965C8.84988 18.9985 8.84677 19.033 8.835 19.065C8.5864 19.8601 8.59409 20.7133 8.857 21.5038C9.1199 22.2943 9.62471 22.9821 10.3 23.47C10.973 23.9744 11.7931 24.2436 12.6341 24.236C13.4751 24.2284 14.2903 23.9445 14.954 23.428C15.6274 23.9355 16.4445 24.2165 17.2876 24.2304C18.1308 24.2444 18.9566 23.9907 19.6465 23.5057C20.3364 23.0207 20.8547 22.3295 21.127 21.5315C21.3993 20.7334 21.4116 19.8695 21.162 19.064C21.152 19.033 21.15 19.005 21.136 19.005C21.5561 18.7006 21.9117 18.3158 22.182 17.873C22.4473 17.9538 22.7227 17.9965 23 18H24.859C24.944 19.011 25 20.018 25 21C25.0982 23.6751 24.6536 26.3424 23.693 28.841C20.9631 27.6041 17.9969 26.976 15 27C12.0031 26.976 9.03686 27.6041 6.307 28.841C5.34643 26.3424 4.90183 23.6751 5 21C5 10.7 9.579 2 15 2ZM22.724 30.593C20.668 33.51 17.58 34 15 34C12.42 34 9.332 33.51 7.276 30.593C9.70797 29.5184 12.3413 28.9753 15 29C17.6587 28.9753 20.292 29.5184 22.724 30.593ZM28 57C28 57.2652 27.8946 57.5196 27.7071 57.7071C27.5196 57.8946 27.2652 58 27 58H3C2.73478 58 2.48043 57.8946 2.29289 57.7071C2.10536 57.5196 2 57.2652 2 57V26C2.00474 24.2977 2.34453 22.613 3 21.042C3.013 30.966 7.049 36 15 36C22.951 36 26.987 30.966 27 21.042C27.6555 22.613 27.9953 24.2977 28 26V57ZM29 15V13H40V15H29ZM58 18.666C57.9999 18.9026 57.916 19.1314 57.7631 19.312C57.6103 19.4925 57.3983 19.613 57.165 19.652L43.165 21.986C43.0218 22.012 42.8745 22.0055 42.7341 21.9669C42.5937 21.9283 42.4638 21.8586 42.354 21.763C42.2425 21.6697 42.153 21.5529 42.0918 21.421C42.0307 21.2891 41.9993 21.1454 42 21V7C42 6.73478 42.1054 6.48043 42.2929 6.29289C42.4804 6.10536 42.7348 6 43 6C43.0381 5.99984 43.0762 6.00218 43.114 6.007L57.114 7.563C57.3585 7.59006 57.5845 7.7063 57.7487 7.8895C57.9129 8.0727 58.0038 8.30999 58.004 8.556L58 18.666Z" fill="#C28565"/>
<path d="M20 54H10C9.73478 54 9.48043 54.1054 9.29289 54.2929C9.10536 54.4804 9 54.7348 9 55C9 55.2652 9.10536 55.5196 9.29289 55.7071C9.48043 55.8946 9.73478 56 10 56H20C20.2652 56 20.5196 55.8946 20.7071 55.7071C20.8946 55.5196 21 55.2652 21 55C21 54.7348 20.8946 54.4804 20.7071 54.2929C20.5196 54.1054 20.2652 54 20 54Z" fill="#C28565"/>
</svg>
