<svg width="60" height="60" viewBox="0 0 60 60" fill="none" xmlns="http://www.w3.org/2000/svg">
<path fill-rule="evenodd" clip-rule="evenodd" d="M50.753 60H4.56985C2.18799 60 0.235416 57.984 0.235416 55.4929V52.4402C0.0969361 52.2962 0 52.0802 0 51.8354C0 51.3746 0.373896 50.9858 0.817033 50.9858H9.4028V22.1C9.4028 20.444 10.4829 19.0472 12.0893 18.6296L20.8967 16.3689V13.9065C18.4317 13.5033 16.5484 11.2858 16.5484 8.60743C16.5484 6.11628 19.4288 2.76114 21.0351 0.356393C21.3536 -0.118798 22.0599 -0.118798 22.3784 0.356393C23.9986 2.76114 26.879 6.10188 26.879 8.60743C26.879 11.2858 24.9957 13.5033 22.5307 13.9065V15.9513L29.8425 14.0649C31.9335 13.5321 34.0107 15.3177 34.0107 17.5496V24.3463C34.5647 24.4615 35.0909 24.6199 35.6033 24.8359C36.4618 23.7127 37.5558 22.7767 38.7883 22.1432C39.0237 22.028 39.2868 22.028 39.5222 22.1432C40.7547 22.7767 41.8487 23.7127 42.7073 24.8503C43.9675 24.3175 45.3523 24.0727 46.7648 24.1591C47.014 24.1879 47.2494 24.3175 47.3879 24.5479C48.1496 25.7431 48.6619 27.1111 48.8558 28.5222C50.2129 28.7238 51.5285 29.2422 52.6917 30.0486C52.8994 30.207 53.0379 30.4374 53.0518 30.711C53.2179 33.2597 52.3732 35.7653 50.7807 37.666C56.0014 40.0276 56.9015 47.3283 52.4701 50.9858H59.2003C60.2666 50.9858 60.2666 52.6993 59.2003 52.6993H55.0874V55.4929C55.0874 57.984 53.1348 60 50.753 60ZM49.1189 38.8756L47.7895 38.7172H32.6536C30.9088 38.7172 29.4963 40.2004 29.4963 42.0148C29.4963 43.8291 30.9088 45.2979 32.6536 45.2979H46.7648C47.8311 45.2979 47.8311 47.0115 46.7648 47.0115H32.6536C28.4715 47.0115 26.4082 41.8564 29.0393 38.7172C25.2726 38.7172 22.8354 41.7412 22.8769 44.9379C22.9046 48.2642 25.5773 50.9858 28.7762 50.9858H47.7895C51.0438 50.9858 53.6888 48.2354 53.6888 44.8515C53.6888 41.9428 51.7362 39.5092 49.1189 38.8756ZM1.88333 52.6993V55.4929C1.88333 57.0337 3.08811 58.2864 4.56985 58.2864H50.753C52.2347 58.2864 53.4395 57.0337 53.4395 55.4929V52.6993H1.88333ZM21.6029 42.4612C22.4061 39.8404 24.5664 37.7956 27.156 37.2053C25.8127 35.3621 25.1065 33.0437 25.2588 30.711C25.2726 30.4374 25.4111 30.207 25.6188 30.0486C26.7821 29.2422 28.0838 28.7238 29.4547 28.5222C29.6348 27.2407 30.1333 25.5415 30.9919 24.4471C31.2965 24.0583 31.9335 24.1303 32.3767 24.1447V17.5496C32.3767 16.4121 31.2965 15.4473 30.2302 15.7209L12.4771 20.2856C11.6323 20.5016 11.0507 21.236 11.0507 22.1V50.9858H24.0956C21.686 48.9842 20.6335 45.5283 21.6029 42.4612ZM29.1916 37.0181H38.2898C37.7497 32.8277 34.0107 29.7462 29.981 30.1782C28.887 30.3078 27.8207 30.6678 26.879 31.2438C26.8513 33.3893 27.7099 35.5205 29.1916 37.0181ZM40.0208 37.0181C42.4996 37.0181 45.6431 36.9461 48.0388 37.0181L49.0081 37.1189C50.573 35.6069 51.4454 33.4613 51.4315 31.2438C46.7648 28.3638 40.727 31.431 40.0208 37.0181ZM21.7137 2.28595C20.3981 4.10032 18.1824 6.99466 18.1824 8.60743C18.1824 10.6378 19.775 12.2794 21.7137 12.2794C23.6524 12.2794 25.2311 10.6378 25.2311 8.60743C25.2311 6.99466 23.0154 4.10032 21.7137 2.28595ZM38.1651 28.9254C36.7249 26.9959 34.4816 25.8439 32.072 25.8439C31.615 26.6503 31.2965 27.5287 31.1303 28.4358C33.4153 28.5366 35.6171 29.5302 37.2373 31.2006C37.4589 30.4086 37.7635 29.6454 38.1651 28.9254ZM38.5944 32.9573C38.8021 33.3029 38.9822 33.6629 39.1483 34.0373C40.5885 30.7542 43.732 28.5942 47.1802 28.4358C47.014 27.5287 46.6955 26.6503 46.2385 25.8439C42.2642 25.8151 38.9683 28.9686 38.5944 32.9573ZM39.1483 27.4855C39.7438 26.7655 40.4362 26.1463 41.2117 25.6279C40.6301 24.9223 39.9377 24.3319 39.1483 23.8711C38.3729 24.3319 37.6805 24.9223 37.0988 25.6279C37.8882 26.2039 38.5113 26.6935 39.1483 27.4855Z" fill="#C28565"/>
</svg>
