<svg width="60" height="60" viewBox="0 0 60 60" fill="none" xmlns="http://www.w3.org/2000/svg">
<path d="M28.3281 17.3652C29.0157 17.0401 29.7481 16.8197 30.501 16.7115C31.1303 16.6299 31.7374 16.4249 32.2873 16.1081C32.8373 15.7914 33.3192 15.3692 33.7056 14.8657C34.0919 14.3622 34.3751 13.7874 34.5387 13.1742C34.7024 12.5611 34.7433 11.9216 34.6592 11.2926C34.5751 10.6635 34.3677 10.0573 34.0487 9.50866C33.7297 8.96001 33.3056 8.47975 32.8005 8.09543C32.2955 7.71112 31.7196 7.43031 31.1057 7.26914C30.4919 7.10796 29.8523 7.06959 29.2236 7.15622C26.752 7.48668 24.3521 8.40379 22.0986 9.81204C20.672 7.99326 19.541 5.96103 18.7471 3.79012L18.0474 1.87997C17.9601 1.64904 17.7852 1.46189 17.5606 1.35917C17.3361 1.25644 17.0802 1.24643 16.8483 1.33131C16.6165 1.41618 16.4274 1.5891 16.3223 1.8125C16.2172 2.0359 16.2044 2.29175 16.2868 2.5245L16.9864 4.43465C17.8337 6.75289 19.0355 8.92565 20.5489 10.8754C14.4285 15.4585 9.6076 23.7454 7.76952 33.6613C6.29518 41.6191 6.94323 49.4752 9.59471 55.7825C10.0943 56.9549 11.0378 57.8817 12.2189 58.3603C13.4 58.8389 14.7226 58.8304 15.8974 58.3365C17.0722 57.8426 18.0036 56.9036 18.4879 55.7248C18.9723 54.5461 18.9701 53.2235 18.482 52.0463C16.5789 47.5197 16.1294 41.4589 17.2489 35.4181C18.2059 30.2546 20.2348 25.475 22.9616 21.9598C23.1606 21.7034 23.3616 21.4557 23.5648 21.2168L25.2801 23.2339C25.5305 23.5282 25.7203 23.8691 25.8388 24.2369C25.9573 24.6047 26.0021 24.9922 25.9707 25.3774C25.9393 25.7625 25.8323 26.1377 25.6558 26.4814C25.4793 26.8252 25.2368 27.1307 24.9421 27.3807C24.8482 27.4603 24.7709 27.5577 24.7146 27.6672C24.6583 27.7767 24.6242 27.8962 24.6141 28.0189C24.604 28.1416 24.6182 28.2651 24.6559 28.3823C24.6935 28.4995 24.7539 28.6082 24.8335 28.7021L46.9343 54.76C47.0139 54.8539 47.1113 54.9312 47.2208 54.9875C47.3303 55.0437 47.4498 55.0779 47.5725 55.0879C47.6952 55.098 47.8187 55.0838 47.9359 55.0462C48.0531 55.0085 48.1618 54.9482 48.2557 54.8685L51.1158 52.4427C51.6517 51.9907 52.0928 51.437 52.4137 50.8137C52.7347 50.1903 52.929 49.5096 52.9856 48.8107C53.1001 47.3936 52.6493 45.9887 51.7317 44.9027L28.3281 17.3652ZM15.4053 35.0764C14.2209 41.4677 14.7123 47.9178 16.753 52.773C17.0454 53.4911 17.0429 54.2956 16.7459 55.0118C16.449 55.7281 15.8815 56.2983 15.1668 56.5989C14.452 56.8994 13.6476 56.9059 12.928 56.6171C12.2084 56.3282 11.6318 55.7672 11.3232 55.0559C8.81178 49.0819 8.20475 41.6052 9.61358 34.0031C11.4165 24.2748 16.1698 16.2172 22.1304 12.0214C22.2512 11.997 22.3661 11.9488 22.4682 11.8797C22.5702 11.8105 22.6576 11.7218 22.7251 11.6186C24.8564 10.2286 27.1307 9.3277 29.4718 9.01469C29.6029 8.99708 29.7351 8.98823 29.8673 8.98821C30.6143 8.98938 31.3329 9.27431 31.8777 9.78533C32.4225 10.2963 32.7528 10.9953 32.8018 11.7406C32.8507 12.486 32.6146 13.2221 32.1413 13.8C31.668 14.3778 30.9928 14.7543 30.2524 14.8531C27.2659 15.2525 24.1505 17.3682 21.4801 20.8106C18.5733 24.5577 16.4158 29.6241 15.4053 35.0764ZM51.1172 48.6545C51.0805 49.1083 50.9543 49.5503 50.746 49.955C50.5376 50.3598 50.2512 50.7193 49.9032 51.0128L47.7581 52.8322L26.8112 28.1351C27.5046 27.2613 27.8734 26.174 27.8546 25.0587C27.8359 23.9434 27.4307 22.8691 26.7083 22.0191L24.8524 19.837C25.4197 19.2833 26.0305 18.776 26.6788 18.3198L50.3027 46.1168C50.8987 46.822 51.1916 47.7343 51.1172 48.6545Z" fill="#C28565"/>
<path d="M13.0168 47.2007C12.46 47.0975 11.8847 47.1905 11.3888 47.464C10.893 47.7374 10.5073 48.1743 10.2974 48.7003C10.0876 49.2262 10.0666 49.8086 10.2381 50.3483C10.4095 50.888 10.7628 51.3515 11.2377 51.66C11.7126 51.9684 12.2798 52.1026 12.8425 52.0397C13.4053 51.9768 13.9288 51.7208 14.324 51.3151C14.7191 50.9095 14.9614 50.3794 15.0095 49.8152C15.0576 49.251 14.9086 48.6876 14.5878 48.2209C14.4063 47.9555 14.174 47.7287 13.9044 47.5536C13.6348 47.3785 13.3331 47.2585 13.0168 47.2007ZM13.134 49.7115C13.1099 49.8417 13.0413 49.9595 12.9401 50.0448C12.8388 50.1301 12.7111 50.1777 12.5787 50.1794C12.4463 50.1812 12.3174 50.1369 12.214 50.0542C12.1105 49.9716 12.0389 49.8556 12.0114 49.7261C11.9839 49.5966 12.0021 49.4615 12.063 49.3439C12.1239 49.2264 12.2237 49.1335 12.3454 49.0813C12.467 49.029 12.603 49.0205 12.7302 49.0573C12.8574 49.0941 12.968 49.1738 13.043 49.283C13.1288 49.4082 13.1614 49.5623 13.1337 49.7115H13.134Z" fill="#C28565"/>
<path d="M27.3117 14.8131C27.8685 14.9161 28.4437 14.8229 28.9394 14.5493C29.4351 14.2757 29.8206 13.8387 30.0302 13.3128C30.2399 12.7868 30.2606 12.2045 30.089 11.6649C29.9174 11.1254 29.564 10.662 29.0891 10.3538C28.6141 10.0456 28.047 9.91164 27.4843 9.97471C26.9217 10.0378 26.3983 10.294 26.0034 10.6997C25.6084 11.1054 25.3664 11.6355 25.3185 12.1996C25.2706 12.7638 25.4197 13.3271 25.7406 13.7936C25.9226 14.0585 26.155 14.2849 26.4246 14.4598C26.6942 14.6348 26.9957 14.7548 27.3117 14.8131ZM27.1946 12.3024C27.2187 12.1721 27.2872 12.0542 27.3885 11.9688C27.4897 11.8834 27.6175 11.8358 27.7499 11.834C27.8824 11.8323 28.0114 11.8765 28.1149 11.9592C28.2184 12.0418 28.29 12.1578 28.3176 12.2874C28.3452 12.417 28.327 12.5521 28.2661 12.6698C28.2052 12.7874 28.1054 12.8803 27.9837 12.9326C27.862 12.9849 27.7259 12.9934 27.5986 12.9566C27.4713 12.9198 27.3608 12.8401 27.2857 12.7309C27.1999 12.6057 27.1672 12.4516 27.1948 12.3024H27.1946Z" fill="#C28565"/>
</svg>
