<svg width="60" height="40" viewBox="0 0 60 40" fill="none" xmlns="http://www.w3.org/2000/svg">
<path d="M59.8974 18.0888C59.6608 17.64 59.1005 17.4702 58.6398 17.7007C58.341 17.8462 51.2686 21.4118 47.8693 24.1407C46.3876 25.3413 44.246 25.8992 42.1542 25.6445C40.8966 25.4869 40.0499 25.0745 39.7884 24.7471C39.9876 23.5706 43.5985 21.1086 44.7067 20.8782C46.2258 20.478 47.7075 20.8782 47.7199 20.8782C48.0437 20.9631 48.3799 20.8903 48.6164 20.6599L56.8219 13.0313C57.1954 12.6796 57.2079 12.1096 56.8592 11.7458C56.4982 11.3819 55.9129 11.3698 55.5394 11.7094L49.9612 16.8881C46.3876 16.1604 43.3868 15.8572 40.0125 15.8814C40.0997 15.6389 40.2117 15.4085 40.3612 15.2024C40.9464 14.4988 44.7814 10.7998 46.2133 9.42931C46.5744 9.0776 46.5744 8.49545 46.2009 8.14373C45.8398 7.79202 45.267 7.79202 44.9059 8.13161C44.3705 8.64099 39.6763 13.1405 38.9168 14.0622C38.0328 15.1052 37.2483 18.8286 36.302 19.9929C35.5798 20.9267 35.1316 20.9631 34.6335 20.7569C34.7829 20.2839 35.3931 19.3258 36.053 18.5496C36.3767 18.1615 36.3145 17.5915 35.916 17.2762C35.53 16.973 34.9822 17.0094 34.646 17.3611C32.8654 19.2409 30.5993 21.3997 29.9643 21.7272C29.0678 21.8242 28.2335 21.8485 27.8475 21.2299C27.4615 20.6114 27.337 20.4295 29.1798 18.6224C29.5534 18.2585 29.9643 17.9311 30.4001 17.6279C32.218 16.3302 34.5588 15.2993 34.5713 15.2993C34.7456 15.2265 34.8826 15.1052 34.9822 14.9476L40.0623 7.07646C40.6849 6.03345 39.1783 5.11172 38.481 6.10622L33.5503 13.7469C32.1432 14.3897 30.786 15.1416 29.5036 16.0027C27.1627 16.4272 24.5728 16.8517 24.1619 16.8517C24.0374 16.8396 23.8008 16.7304 23.5269 16.5606C25.2576 13.6984 24.66 9.53846 21.0491 8.59247C17.5627 7.695 15.4957 7.93756 11.449 5.58471C10.3782 5.00256 9.44438 6.48219 10.4903 7.14923C14.8234 9.65974 16.965 9.4657 20.5386 10.351C23.1907 11.0423 23.0164 14.4261 21.5222 16.1968C21.1985 16.5727 21.2483 17.1306 21.6218 17.4581C21.958 17.7492 23.1284 18.6709 24.1495 18.6709C24.5355 18.6709 25.681 18.5011 26.8888 18.3071C25.7308 19.5805 25.2701 20.6478 26.2413 22.1759C27.2623 23.7162 28.8436 23.6677 30.2382 23.5221C30.4748 23.4979 30.9728 23.4372 32.8903 21.6908C33.0148 21.9212 33.2141 22.1032 33.4506 22.2366C35.0942 23.1098 36.5137 22.7459 37.7837 21.0965C38.4187 20.2597 38.9168 18.9498 39.3401 17.7249C42.3409 17.6521 45.3417 17.8947 48.3051 18.4405L47.6826 19.0105C45.1798 18.586 43.3121 19.0954 40.7845 20.9752C39.4024 22.0304 37.0366 23.9709 38.2444 25.7901C38.867 26.6148 40.2366 27.2333 41.9051 27.4395C44.4328 27.767 47.1721 27.0635 49.0522 25.5354C52.2896 22.9279 59.4118 19.3501 59.4865 19.3137C59.9472 19.0954 60.134 18.5496 59.8974 18.0888Z" fill="#C28565"/>
<path d="M53.2483 32.3877C53.1238 32.3877 40.4483 33.0305 36.3767 32.9577C33.7494 32.9092 31.0724 32.3756 29.3043 32.0239C28.221 31.8056 27.4988 31.66 27.0381 31.66C26.5276 31.66 25.7805 31.9632 22.842 33.2609C19.0568 34.8618 8.84665 39.7131 5.60929 37.7241C5.21084 37.2996 5.39761 36.3536 5.63419 35.4682C6.1696 33.4671 7.76338 31.1506 7.77583 31.1264C8.02486 30.6898 7.86299 30.1319 7.41474 29.8893C7.01629 29.671 6.50579 29.768 6.23186 30.1197C6.20695 30.1561 5.95793 30.5078 5.63419 31.0536C3.86609 29.7074 1.87387 27.7426 1.83652 26.6026C1.78671 25.2443 3.79139 24.177 5.19839 23.6312C5.11123 25.0502 5.34781 25.4747 6.50579 25.9234C7.01629 26.1296 7.5019 26.3237 7.88789 27.0513C8.47311 28.1671 8.80929 29.6104 10.154 30.0349C11.2 30.3017 11.9844 29.9985 13.1797 29.3314C15.3587 28.058 16.6288 26.8088 17.1891 26.1781L19.7541 26.36C17.9486 28.3005 15.7198 29.5255 13.0054 30.0955C11.9221 30.3381 12.084 31.8783 13.2046 31.8904C17.0023 31.2113 20.1027 29.1859 22.3688 26.0932C22.6677 25.6809 22.5681 25.1109 22.1447 24.8198C22.0078 24.7228 21.8459 24.6742 21.684 24.6621L16.8529 24.3347C16.5291 24.3104 16.2054 24.4559 16.0186 24.7228C16.0062 24.7349 14.9354 26.2024 12.2334 27.779C11.2 28.3854 10.8264 28.3369 10.7268 28.3005C10.4778 28.2278 10.2038 27.6214 9.96727 27.0877C9.25754 25.3049 8.33614 24.6379 7.07855 24.1891C7.091 22.382 7.26532 20.0656 6.38127 17.361C5.82096 15.7116 5.64664 14.2441 5.84586 13.1647C6.46843 13.3709 7.11591 13.4194 7.76338 13.3224C15.9564 12.3885 19.1688 15.2992 19.1937 15.3235C19.5673 15.6752 20.1525 15.6631 20.5136 15.2992C20.8622 14.9475 20.8622 14.3896 20.5136 14.0379C20.3891 13.8924 16.6537 10.448 7.51435 11.5153C5.09878 11.9034 5.16104 9.0169 6.04509 7.30684C6.29411 6.83384 7.00384 5.73019 8.17427 5.73019C8.54781 5.73019 8.884 5.51188 9.03342 5.1723C10.2412 2.52838 11.5486 1.31557 15.284 2.03113C17.2887 2.41922 19.6171 3.46224 19.2685 6.23957C19.1564 7.44025 20.9369 7.64643 21.1237 6.45787C21.5222 3.30457 19.4801 0.975983 15.6451 0.236171C11.0132 -0.649179 9.00852 1.03663 7.56416 3.92311C4.28944 4.3961 2.62096 9.51415 4.28944 11.9034C3.70423 13.4194 3.81629 15.5175 4.62563 17.9068C5.04898 19.1681 5.19839 20.5264 5.23575 21.6907C2.44664 22.5518 -0.143252 24.3953 0.00616503 26.6511C-0.0809947 28.5188 2.79528 31.2355 4.75014 32.6545C2.24741 37.7847 3.36804 40.9137 10.042 39.7616C15.1719 38.9611 22.456 35.2378 27.0879 33.4671C27.3868 33.4792 28.1463 33.6369 28.9432 33.7824C30.7735 34.1463 33.5502 34.7042 36.3518 34.7527C40.4856 34.8376 52.8249 34.2069 53.3479 34.1827C54.5681 34.0978 54.5059 32.3756 53.2483 32.3877Z" fill="#C28565"/>
</svg>
