<svg width="60" height="60" viewBox="0 0 60 60" fill="none" xmlns="http://www.w3.org/2000/svg">
<path d="M11.226 41.7179C10.542 41.7659 9.86999 41.9999 9.30599 42.3839C8.18399 43.1459 7.16999 44.3939 7.17599 45.8879C7.17599 47.4059 8.36399 48.5939 10.002 48.5939C11.466 48.5939 12.618 47.6939 13.362 46.5779C14.172 45.3599 14.4 43.6499 13.32 42.5519C12.834 42.0659 11.886 41.6759 11.226 41.7179ZM11.82 45.6539C11.196 46.5599 9.89399 47.1539 9.32399 46.6379C8.62799 46.0019 9.25199 44.7599 9.81599 44.2379C10.32 43.7759 11.226 43.2299 11.886 43.6859C12.438 44.0699 12.246 45.0299 11.82 45.6539Z" fill="#C28565"/>
<path d="M54.252 45.336C52.698 45.48 51.3 46.398 49.734 46.392C49.698 43.908 48.81 41.544 46.962 39.804C44.904 37.866 42.39 37.014 39.654 37.524C37.224 35.4 34.896 33.144 32.592 30.864C35.634 27.336 43.704 17.52 44.766 16.2C46.014 14.658 47.172 13.074 47.868 11.196C48.324 9.966 48.708 8.016 47.118 7.458C46.212 7.14 45.27 7.476 44.466 7.902C43.008 8.682 41.73 9.858 40.524 10.974C39.204 12.198 29.922 21.51 26.538 24.87C23.244 21.612 12.768 10.962 10.542 9.21C9.354 8.274 6.45 6.114 5.136 8.082C4.248 9.408 5.286 11.508 5.916 12.72C6.648 14.124 7.644 15.342 8.634 16.566C10.764 19.194 20.022 30.294 20.496 30.852C18.186 33.114 15.888 35.4 13.452 37.53C10.506 36.972 7.686 38.064 5.676 40.314C3.942 42.258 2.868 44.922 3.45 47.538C4.062 50.304 6.726 52.482 9.522 52.704C12.336 52.926 14.784 51.006 16.386 48.876C18.048 46.662 18.666 43.35 17.844 40.656C20.634 38.292 23.676 36.198 26.238 33.588C26.49 33.33 26.952 33.66 27.276 33.918C29.268 35.532 31.212 37.206 33.156 38.874C33.942 39.546 34.728 40.212 35.514 40.878C33.93 43.89 34.74 47.502 37.08 49.926C39.618 52.548 43.188 52.716 46.476 51.606C48.288 52.35 50.502 52.146 52.326 51.63C54.132 51.12 56.292 50.088 56.652 48.024C56.928 46.488 55.824 45.192 54.252 45.336ZM36.54 17.466C38.898 15.114 41.154 12.6 43.776 10.536C44.25 10.158 45.312 9.132 46.476 9.132C46.884 10.506 44.598 13.56 43.494 14.928C42.534 16.116 41.574 17.298 40.608 18.474C37.548 22.212 34.464 25.938 31.314 29.604C30.468 28.764 28.14 26.454 27.816 26.136C30.732 23.25 33.642 20.364 36.54 17.466ZM16.164 39.732C15.942 39.918 15.828 40.338 15.93 40.608C16.68 42.54 16.506 45.072 15.534 46.902C14.616 48.63 12.894 50.31 10.956 50.796C8.76 51.348 6.264 49.902 5.424 47.832C4.668 45.966 5.286 43.884 6.39 42.3C8.01 39.966 10.638 38.808 13.482 39.372C13.794 39.432 14.064 39.414 14.358 39.138C16.848 36.828 19.278 34.572 21.672 32.226C22.044 32.664 22.704 33.51 23.352 33.648C20.934 35.652 18.564 37.71 16.164 39.732ZM54.54 48.432C53.712 49.488 52.116 49.884 50.868 50.112C49.65 50.34 48.264 50.394 47.1 49.926C46.338 49.62 45.786 49.968 45.018 50.172C44.304 50.364 43.584 50.484 42.84 50.496C40.914 50.532 39.264 49.716 38.016 48.27C36.276 46.254 35.94 43.398 37.446 41.13C37.65 40.824 37.596 40.284 37.308 40.038C35.43 38.46 29.808 33.672 28.86 32.898C28.14 32.31 27.492 31.692 26.502 31.722C25.8 31.74 25.122 32.142 24.432 32.1C23.652 32.052 23.076 31.08 22.602 30.54C21.372 29.124 14.226 20.592 11.892 17.73C10.074 15.504 8.4 12.936 6.882 10.446C6.744 10.218 6.498 9.666 6.648 9.144C7.446 8.97 8.694 10.044 9.144 10.392C11.334 12.078 13.23 14.118 15.168 16.074C18.9 19.842 37.824 38.382 38.952 39.27C39.12 39.402 39.366 39.438 39.63 39.372C41.988 38.796 44.1 39.522 45.816 41.202C47.46 42.81 48.06 44.94 47.928 47.202C47.904 47.568 48.222 48 48.588 48.072C49.584 48.258 50.538 48.198 51.522 47.97C52.17 47.82 52.806 47.622 53.436 47.412C53.784 47.298 54.354 47.016 54.69 47.142C54.852 47.202 54.9 47.31 54.912 47.484C54.93 47.82 54.75 48.168 54.54 48.432Z" fill="#C28565"/>
<path d="M25.008 28.4399C23.85 28.4399 23.85 30.2399 25.008 30.2399C26.166 30.2399 26.166 28.4399 25.008 28.4399Z" fill="#C28565"/>
<path d="M41.364 41.568C39.846 41.574 38.658 42.762 38.664 44.4C38.67 45.864 39.576 47.016 40.686 47.754C41.904 48.564 43.62 48.786 44.712 47.706C45.204 47.22 45.594 46.272 45.546 45.612C45.498 44.928 45.264 44.256 44.874 43.692C44.112 42.57 42.864 41.562 41.364 41.568ZM43.584 46.278C43.206 46.83 42.246 46.644 41.622 46.212C40.71 45.588 40.116 44.292 40.626 43.722C41.262 43.02 42.504 43.644 43.026 44.208C43.482 44.712 44.034 45.618 43.584 46.278Z" fill="#C28565"/>
</svg>
