<svg width="50" height="60" viewBox="0 0 50 60" fill="none" xmlns="http://www.w3.org/2000/svg">
<path d="M39.8208 42.3368C39.7036 41.8663 39.2365 41.5818 38.7764 41.7018L36.62 42.2646C36.1913 41.4901 35.4722 40.9057 34.6148 40.668V38.3906C34.6148 37.905 34.2302 37.5112 33.7559 37.5112C33.2816 37.5112 32.897 37.905 32.897 38.3906V40.6678C32.077 40.8951 31.3829 41.4391 30.949 42.1638L28.8131 41.5251C28.3579 41.3892 27.8808 41.6565 27.7478 42.1228C27.6148 42.589 27.8761 43.0773 28.3316 43.2134L30.4672 43.8521C30.4668 43.8746 30.4655 43.8968 30.4655 43.9194C30.4655 44.7001 30.727 45.419 31.1641 45.9909L29.8281 47.8141C29.5434 48.2026 29.6204 48.7538 29.9997 49.0453C30.1542 49.164 30.335 49.2213 30.5145 49.2213C30.7756 49.2213 31.0335 49.0999 31.2024 48.8696L32.5374 47.0476C32.9145 47.2021 33.3254 47.288 33.7558 47.288C34.2078 47.288 34.6387 47.1942 35.0312 47.0246L36.3985 48.8203C36.5679 49.0427 36.8209 49.1591 37.0766 49.1591C37.2612 49.1591 37.4472 49.0984 37.6041 48.9732C37.9782 48.6746 38.045 48.122 37.7534 47.739L36.3851 45.9422C36.7908 45.3908 37.0345 44.7082 37.0449 43.9687L39.2007 43.4061C39.6604 43.2862 39.9381 42.8074 39.8208 42.3368ZM33.7558 45.5293C32.8887 45.5293 32.1833 44.8071 32.1833 43.9194C32.1833 43.0317 32.8887 42.3095 33.7558 42.3095C34.6228 42.3095 35.3282 43.0317 35.3282 43.9194C35.3282 44.8071 34.6228 45.5293 33.7558 45.5293Z" fill="#C28565"/>
<path d="M46.7056 53.2539H42.3747C43.6719 51.5289 43.8551 49.0831 42.8014 47.0314C43.8526 46.5267 44.7308 45.7285 45.3296 44.7182C46.1131 43.3966 46.3265 41.8722 45.9306 40.426C45.1454 37.5575 42.1676 35.8764 39.1997 36.5689C39.0501 33.4563 36.6656 30.974 33.7558 30.974C33.5154 30.974 33.279 30.9925 33.0466 31.0253C32.5435 30.427 32.0027 29.8626 31.4298 29.3464L31.4297 29.3463C31.3187 29.2463 31.2096 29.1446 31.1013 29.0421C28.2407 26.3312 26.2718 22.6609 25.5398 18.6559C25.4526 18.1786 25.0044 17.8637 24.5376 17.9532C24.0713 18.0425 23.7641 18.502 23.8513 18.9793C24.4933 22.4918 26.0083 25.7701 28.2003 28.4615C27.8969 28.3729 27.609 28.2732 27.3163 28.1715C26.3221 27.826 25.2939 27.4687 23.592 27.4687C21.8623 27.4687 20.95 27.8524 20.1453 28.1908C19.3922 28.5076 18.7419 28.781 17.3513 28.781C15.9606 28.781 15.3101 28.5076 14.5569 28.1908C14.1885 28.0359 13.793 27.8704 13.3067 27.7369C14.8543 25.6546 16.0107 23.2691 16.7047 20.6847C16.8648 20.0891 17.001 19.4778 17.1095 18.8683C17.2572 18.0382 17.3575 17.1893 17.4075 16.3449C17.4328 15.9166 17.4458 15.4822 17.4458 15.0539V11.8567H23.4982V14.6981C23.4982 15.1837 23.8828 15.5775 24.3571 15.5775C24.8315 15.5775 25.216 15.1837 25.216 14.6981V11.7944C26.469 11.5219 27.4121 10.3806 27.4121 9.0178C27.4121 7.46108 26.1817 6.19358 24.6645 6.17952L25.1454 2.51578C25.2287 1.88109 25.0403 1.24066 24.6286 0.758553C24.2166 0.276445 23.6217 0 22.9962 0H17.9471C17.3217 0 16.7267 0.276445 16.315 0.758436C15.9032 1.24054 15.7149 1.88097 15.7982 2.51566L16.2792 6.1794C14.7619 6.19346 13.5316 7.46096 13.5316 9.01768C13.5316 10.3806 14.4746 11.5219 15.7276 11.7944V15.0539C15.7276 15.4468 15.7158 15.8455 15.6926 16.2385C15.6467 17.013 15.5548 17.7917 15.4193 18.5531C15.3198 19.112 15.1949 19.6722 15.0482 20.2183C14.0889 23.7896 12.1727 26.9483 9.50675 29.3526C5.92109 32.5863 3.86906 37.2448 3.87673 42.1337C3.88085 44.7005 4.45658 47.1831 5.58813 49.5127C6.31322 51.0056 7.369 52.2809 8.65105 53.254H3.29448C1.4779 53.254 0 54.7671 0 56.627C0 58.4869 1.4779 60 3.29448 60H46.7055C48.5221 60 50 58.4869 50 56.6269C50 54.767 48.5221 53.2539 46.7056 53.2539ZM17.6081 1.91636C17.6583 1.85754 17.7692 1.75886 17.9471 1.75886H22.9962C23.1741 1.75886 23.285 1.85754 23.3352 1.91636C23.3855 1.97519 23.4663 2.10093 23.4426 2.2814L22.931 6.17882H18.0123L17.5007 2.2814C17.477 2.10082 17.5578 1.97519 17.6081 1.91636ZM15.2494 9.01768C15.2494 8.42213 15.7227 7.93745 16.3045 7.93745H24.6389C25.2206 7.93745 25.694 8.42202 25.694 9.01768C25.694 9.61322 25.2207 10.0978 24.6389 10.0978H16.3045C15.7227 10.0979 15.2494 9.61334 15.2494 9.01768ZM33.7557 32.7327C35.8144 32.7327 37.4893 34.5931 37.4893 36.8797C37.4893 37.1171 37.4368 37.3956 37.3336 37.7078C37.215 38.0662 37.3336 38.4622 37.6281 38.6907C37.9226 38.9193 38.3269 38.9295 38.632 38.7157C38.8977 38.5297 39.1456 38.4029 39.3689 38.3388C41.5193 37.7219 43.7209 38.8709 44.2765 40.9005C44.5427 41.8729 44.395 42.9046 43.861 43.8055C43.3157 44.7255 42.436 45.3983 41.3833 45.7003C41.3556 45.7083 41.3274 45.7153 41.2988 45.7219C41.0047 45.7893 40.7666 46.0095 40.6713 46.3023C40.5761 46.5951 40.6378 46.9176 40.8339 47.1519C40.8561 47.1785 40.8778 47.2053 40.8976 47.2322C42.2437 49.0568 42.0025 51.5747 40.3598 52.8452C40.1503 53.0072 39.9238 53.1442 39.6846 53.2538H36.7095C36.0156 52.9588 35.4059 52.4725 34.9393 51.8404C34.8063 51.66 34.6888 51.4193 34.59 51.1249C34.4708 50.7699 34.1445 50.5313 33.7777 50.5313C33.4109 50.5313 33.0845 50.7697 32.9654 51.1249C32.8666 51.4193 32.7491 51.66 32.6161 51.8404C32.1495 52.4726 31.5399 52.9588 30.8459 53.2538H27.8708C27.6316 53.1442 27.4051 53.0072 27.1956 52.8452C26.4086 52.2366 25.9156 51.3242 25.8076 50.276C25.6973 49.2059 25.9993 48.1249 26.6578 47.2324C26.6765 47.2071 26.6966 47.1822 26.7171 47.1573C26.9132 46.9208 26.9732 46.596 26.8749 46.3026C26.7766 46.0091 26.5344 45.7905 26.2377 45.7271C26.2005 45.7191 26.1635 45.7108 26.1278 45.7005C26.1278 45.7005 26.1276 45.7005 26.1274 45.7003C23.9769 45.0832 22.6793 42.9302 23.2348 40.9006C23.7903 38.871 25.9918 37.7218 28.1423 38.3389C28.3656 38.403 28.6136 38.5298 28.8792 38.7159C29.1842 38.9294 29.5886 38.9194 29.8831 38.6907C30.1776 38.462 30.2962 38.0661 30.1775 37.7077C30.0743 37.3959 30.0218 37.1173 30.0218 36.8798C30.0222 34.593 31.6971 32.7327 33.7557 32.7327ZM46.7056 58.2411H3.29448C2.42516 58.2411 1.71792 57.5169 1.71792 56.6269C1.71792 55.7368 2.42516 55.0127 3.29448 55.0127H14.4279C14.9022 55.0127 15.2868 54.619 15.2868 54.1334C15.2868 53.6477 14.9022 53.254 14.4279 53.254H12.5103C10.1634 52.5947 8.20512 50.9508 7.12623 48.7296C6.11361 46.6446 5.5982 44.4245 5.59465 42.1309C5.58778 37.7481 7.4276 33.5717 10.6423 30.6725C11.1321 30.2307 11.5965 29.7639 12.039 29.2776C12.8377 29.3701 13.3379 29.5799 13.9043 29.818C14.7093 30.1563 15.6216 30.5398 17.3512 30.5398C19.0809 30.5398 19.993 30.1562 20.7978 29.8177C21.5508 29.501 22.2012 29.2276 23.5919 29.2276C25.0102 29.2276 25.862 29.5236 26.764 29.8371C27.6905 30.1591 28.6465 30.4913 30.15 30.535C30.1981 30.5792 30.2464 30.6233 30.2949 30.667L30.2951 30.6671C30.6311 30.9699 30.9548 31.2918 31.2657 31.6278C29.589 32.5646 28.4153 34.4156 28.3118 36.569C25.3441 35.8763 22.3661 37.5575 21.5808 40.4261C20.8546 43.0797 22.2472 45.8633 24.7452 47.0474C24.2054 48.1021 23.9779 49.2837 24.0993 50.4608C24.2071 51.5071 24.581 52.4639 25.1775 53.2541H18.4244C17.9501 53.2541 17.5655 53.6479 17.5655 54.1335C17.5655 54.6191 17.9501 55.0129 18.4244 55.0129H46.7056C47.575 55.0129 48.2822 55.737 48.2822 56.6271C48.2822 57.5169 47.575 58.2411 46.7056 58.2411Z" fill="#C28565"/>
</svg>
