<svg width="62" height="62" viewBox="0 0 62 62" fill="none" xmlns="http://www.w3.org/2000/svg">
<path d="M25.0724 34.332C19.3425 34.4685 11.1067 33.907 5.08326 33.0028C4.60138 32.9305 4.14642 33.2382 4.03879 33.7092C3.99966 33.8818 3.96174 34.0579 3.92383 34.2342C3.38936 36.7985 5.17498 39.2673 7.80694 39.5823C8.22888 39.633 8.67162 39.685 9.13392 39.7369" stroke="#C28565" stroke-width="1.5" stroke-miterlimit="10" stroke-linecap="round" stroke-linejoin="round"/>
<path d="M57.5341 34.2176L60.7843 37.438C60.9223 37.5751 61 37.7604 61 37.9535V60.634C61 60.9572 60.6062 61.1212 60.3717 60.8955L45.0199 46.1255C44.4268 45.5545 43.4612 45.63 42.9654 46.2862L38.1595 52.6563C37.284 53.8165 36.2468 54.8499 35.0777 55.7239L29.4678 59.9187C28.6577 60.5249 27.7043 60.8184 26.7572 60.8184C25.445 60.8184 24.1453 60.2535 23.2586 59.17C22.8133 58.626 22.8343 57.842 23.3079 57.3223L28.9634 51.1115C29.4283 50.6015 29.7366 49.9721 29.8538 49.2954L30.3742 46.3068C30.394 46.1961 30.4025 46.0853 30.4025 45.9757C30.4025 45.1882 29.9154 44.4626 29.1521 44.1681C28.5947 43.9538 27.9707 43.9977 27.4515 44.2899C25.899 45.1653 15.0408 50.7838 8.97425 54.0171C6.55988 55.3038 3.5604 54.7126 1.83116 52.61L1.24166 51.8931C0.813604 51.3728 0.972841 50.5963 1.57212 50.2811L21.9222 39.6328" stroke="#C28565" stroke-width="1.5" stroke-miterlimit="10" stroke-linecap="round" stroke-linejoin="round"/>
<path d="M9.55293 46.1062L8.314 46.4612C5.55118 47.2531 2.61714 45.9348 1.40756 43.3586C1.18987 42.8974 1.42591 42.3505 1.91267 42.1852L47.2458 26.8141C48.5728 26.4111 50.0157 26.7679 50.9959 27.7381L54.5143 31.2243" stroke="#C28565" stroke-width="1.5" stroke-miterlimit="10" stroke-linecap="round" stroke-linejoin="round"/>
<path d="M27.1473 19.8308C29.9179 20.7357 31.1164 21.9188 32.0331 24.6535C32.2825 25.3976 33.3399 25.3976 33.5894 24.6535C34.5061 21.9188 35.7046 20.7357 38.4751 19.8308C39.2289 19.5846 39.2289 18.5408 38.4751 18.2946C35.7046 17.3897 34.5061 16.2067 33.5894 13.4719C33.3399 12.7279 32.2825 12.7279 32.0331 13.4719C31.1164 16.2067 29.9179 17.3897 27.1473 18.2946C26.3936 18.5408 26.3936 19.5846 27.1473 19.8308Z" stroke="#C28565" stroke-width="1.5" stroke-miterlimit="10" stroke-linecap="round" stroke-linejoin="round"/>
<path d="M41.6934 8.74664C43.5072 9.33916 44.2919 10.1137 44.8922 11.9042C45.0555 12.3913 45.7477 12.3913 45.911 11.9042C46.5114 10.1137 47.2959 9.33916 49.1099 8.74664C49.6033 8.58547 49.6033 7.90217 49.1099 7.74101C47.2959 7.14849 46.5114 6.37392 45.911 4.58346C45.7477 4.09622 45.0555 4.09622 44.8922 4.58346C44.2919 6.37392 43.5072 7.14849 41.6934 7.74101C41.1999 7.90217 41.1999 8.58547 41.6934 8.74664Z" stroke="#C28565" stroke-width="1.5" stroke-miterlimit="10" stroke-linecap="round" stroke-linejoin="round"/>
<path d="M20.6411 21.3218V24.5775C20.6411 27.4091 18.3156 29.7047 15.447 29.7047C12.5784 29.7047 10.2529 27.4091 10.2529 24.5775V6.12711C10.2529 3.29552 12.5784 1.00007 15.447 1.00007C18.3156 1.00007 20.6411 3.29552 20.6411 6.12711V17.0966" stroke="#C28565" stroke-width="1.5" stroke-miterlimit="10" stroke-linecap="round" stroke-linejoin="round"/>
<path d="M19.6738 3.14983L10.252 8.51941" stroke="#C28565" stroke-width="1.5" stroke-miterlimit="10" stroke-linecap="round" stroke-linejoin="round"/>
<path d="M20.6403 7.73049L10.2529 13.6502" stroke="#C28565" stroke-width="1.5" stroke-miterlimit="10" stroke-linecap="round" stroke-linejoin="round"/>
<path d="M20.6403 12.8626L10.2529 18.7823" stroke="#C28565" stroke-width="1.5" stroke-miterlimit="10" stroke-linecap="round" stroke-linejoin="round"/>
</svg>
