<svg width="60" height="60" viewBox="0 0 60 60" fill="none" xmlns="http://www.w3.org/2000/svg">
<g clip-path="url(#clip0_446_33810)">
<path d="M35.3637 41.9091L15.6364 56.7273C14.5455 57.5455 13 57.3637 12 56.4546L3.63639 48C2.63639 46.9091 2.54548 45.4546 3.36366 44.3637L18.1818 24.6364C18.4546 24.2727 18.3637 23.6364 18 23.3637C17.6364 23.0909 17 23.1818 16.7273 23.5455L1.81821 43.2727C0.454569 45.0909 0.636387 47.5455 2.27275 49.2727L10.7273 57.7273C11.6364 58.6364 12.8182 59.0909 14 59.0909C15 59.0909 15.9091 58.8182 16.7273 58.1818L36.4546 43.3637C36.8182 43.0909 36.9091 42.4546 36.6364 42.0909C36.3637 41.7273 35.7273 41.6364 35.3637 41.9091Z" fill="#C28565"/>
<path d="M16 44C16.8182 44.8182 17.8182 45.1818 18.9091 45.1818C20 45.1818 21 44.7273 21.8182 44L22.3636 43.4545C22.4545 43.4545 22.4545 43.3636 22.5454 43.3636L25.5454 40.3636C25.6363 40.2727 25.6363 40.2727 25.6363 40.1818L26.1818 39.6364C26.9091 38.9091 27.3636 37.8182 27.3636 36.7273C27.3636 35.6364 26.9091 34.5454 26.1818 33.8182C25.3636 33 24.3636 32.6364 23.2727 32.6364C22.1818 32.6364 21.1818 33.0909 20.3636 33.8182L16 38.1818C14.3636 39.8182 14.3636 42.3636 16 44ZM17.2727 42.7273C16.3636 41.8182 16.3636 40.3636 17.2727 39.4545L17.3636 39.3636L20.6363 42.6364L20.5454 42.7273C19.6363 43.6364 18.1818 43.6364 17.2727 42.7273ZM21.9091 41.3636L18.6363 38.0909L20.2727 36.4545L23.5454 39.7273L21.9091 41.3636ZM23.2727 34.4545C23.9091 34.4545 24.4545 34.7273 24.9091 35.1818C25.4545 35.7273 25.5454 36.3636 25.5454 36.8182C25.5454 37.2727 25.4545 37.9091 24.9091 38.4545L21.6363 35.1818C22.0909 34.6364 22.6363 34.4545 23.2727 34.4545Z" fill="#C28565"/>
<path d="M58.8182 18.5454C58.4545 18.1818 57.9091 18.1818 57.5454 18.5454L54.2727 21.7272L52.0909 19.5454L55.3636 16.3636C55.7273 16 55.7273 15.4545 55.3636 15.0909C55 14.7272 54.4545 14.7272 54.0909 15.0909L50.8182 18.2727L48.6363 16.0909L51.9091 12.8181C52.2727 12.4545 52.2727 11.9091 51.9091 11.5454C51.5454 11.1818 51 11.1818 50.6363 11.5454L47.3636 14.8181L45.1818 12.6363L48.4545 9.3636C48.8182 8.99997 48.8182 8.45451 48.4545 8.09088C48.0909 7.72724 47.5454 7.72724 47.1818 8.09088L43.9091 11.3636L41.7273 9.18179L44.9091 5.90906C45.2727 5.54542 45.2727 4.99997 44.9091 4.63633C44.5454 4.27269 44 4.27269 43.6363 4.63633L40.4545 7.90906L38.2727 5.72724L41.4545 2.45451C41.8182 2.09088 41.8182 1.54542 41.4545 1.18178C41.0909 0.818149 40.5454 0.818149 40.1818 1.18178L36.3636 5.09088L33.1818 8.27269C32.3636 7.63633 31.3636 7.27269 30.3636 7.27269C29.1818 7.27269 28 7.72724 27.0909 8.63633L19.6363 16.0909C17.8182 17.9091 17.8182 20.7272 19.6363 22.5454L37.4545 40.4545C38.3636 41.3636 39.4545 41.8181 40.7273 41.8181C42 41.8181 43.0909 41.3636 44 40.4545L51.4545 33C53 31.3636 53.0909 28.8181 51.8182 27L55 23.8181C55.0909 23.7272 55.1818 23.5454 55.1818 23.4545L58.8182 19.9091C59.1818 19.4545 59.1818 18.9091 58.8182 18.5454ZM36.7273 14.4545L45.5454 23.2727L44.8182 24C43.7273 25.0909 42 25.0909 40.9091 24L36 19.0909C34.9091 18 34.9091 16.2727 36 15.1818L36.7273 14.4545ZM50.0909 31.7272L42.6363 39.1818C41.5454 40.2727 39.8182 40.2727 38.7273 39.1818L20.9091 21.2727C19.8182 20.1818 19.8182 18.4545 20.9091 17.3636L28.3636 9.90906C28.9091 9.3636 29.5454 9.09088 30.2727 9.09088C31 9.09088 31.7273 9.3636 32.1818 9.90906C32.1818 9.99997 32.2727 10.1818 32.3636 10.2727L35.2727 13.1818L34.5454 13.9091C32.7273 15.7272 32.7273 18.5454 34.5454 20.3636L39.4545 25.2727C40.3636 26.1818 41.4545 26.6363 42.7273 26.6363C43.9091 26.6363 45.0909 26.1818 46 25.2727L46.7273 24.5454L49.7273 27.5454C49.8182 27.6363 49.9091 27.7272 50.0909 27.7272C51.0909 28.9091 51.0909 30.6363 50.0909 31.7272ZM50.5454 25.6363L34.4545 9.54542L37 6.99997L53.0909 23.0909L50.5454 25.6363Z" fill="#C28565"/>
</g>
<defs>
<clipPath id="clip0_446_33810">
<rect width="60" height="60" fill="white"/>
</clipPath>
</defs>
</svg>
