<svg width="60" height="60" viewBox="0 0 60 60" fill="none" xmlns="http://www.w3.org/2000/svg">
<path d="M49.8366 8.96719C44.5313 4.39371 37.4866 1.875 30 1.875C22.5134 1.875 15.4687 4.39371 10.1634 8.96719C4.81852 13.5748 1.875 19.7126 1.875 26.25C1.875 33.4392 5.4975 40.204 11.8201 44.8489C12.1653 45.5657 12.5446 46.271 12.9581 46.965L10.8307 48.0287C10.675 48.1066 10.5441 48.2263 10.4525 48.3744C10.361 48.5225 10.3126 48.6931 10.3126 48.8672C10.3126 49.0413 10.361 49.2119 10.4525 49.36C10.5441 49.5081 10.675 49.6278 10.8307 49.7057L13.4626 51.0217C14.0062 51.2948 14.4473 51.7359 14.7205 52.2795L16.0365 54.9115C16.1144 55.0672 16.2341 55.1981 16.3822 55.2896C16.5303 55.3812 16.7009 55.4296 16.875 55.4296C17.0491 55.4296 17.2197 55.3812 17.3678 55.2896C17.5159 55.1981 17.6356 55.0672 17.7135 54.9115L18.4298 53.4787C21.9727 56.4833 26.0391 58.125 30 58.125H43.125C43.2654 58.125 43.4039 58.0935 43.5304 58.0328C43.657 57.9721 43.7683 57.8837 43.8561 57.7743L52.1024 47.4996C52.9612 46.6258 53.4409 45.4486 53.4375 44.2234V39.7302C56.5045 35.7322 58.125 31.0781 58.125 26.25C58.125 19.7126 55.1815 13.5748 49.8366 8.96719ZM3.75 26.25C3.75 13.8435 15.5257 3.75 30 3.75C33.1702 3.74435 36.3213 4.24114 39.336 5.22188C39.0937 7.00488 37.7414 9.72879 35.8178 12.2461C33.7011 15.0145 31.3632 16.875 30 16.875C24.3132 16.875 19.1607 18.4968 15.4922 21.4414C11.4902 24.6534 9.375 29.2338 9.375 34.6875C9.38932 36.8973 9.73124 39.0928 10.3896 41.2024C6.13441 37.1067 3.75 31.8102 3.75 26.25ZM47.0918 31.0731C46.7279 31.431 46.4386 31.8574 46.2405 32.3277C46.0423 32.7981 45.9394 33.303 45.9375 33.8134V42.8033L44.2784 44.9361C44.0422 44.3666 43.6692 43.8641 43.1925 43.4731C42.7158 43.0821 42.1501 42.8147 41.5454 42.6945C40.9406 42.5744 40.3156 42.6051 39.7256 42.7841C39.1357 42.9631 38.5989 43.2849 38.1629 43.7208C38.1227 43.761 38.0862 43.8048 38.0539 43.8517L29.5148 56.2395C26.0414 56.1057 22.4719 54.5436 19.3439 51.7912C19.5988 51.4693 19.9208 51.2067 20.2874 51.0217L22.9193 49.7057C23.075 49.6278 23.2059 49.5081 23.2974 49.36C23.389 49.2119 23.4374 49.0413 23.4374 48.8672C23.4374 48.6931 23.389 48.5225 23.2974 48.3744C23.2059 48.2263 23.075 48.1066 22.9193 48.0287L20.2874 46.7127C19.7438 46.4395 19.3027 45.9985 19.0295 45.4549L17.7135 42.8229C17.6356 42.6672 17.5159 42.5363 17.3678 42.4447C17.2197 42.3532 17.0491 42.3048 16.875 42.3048C16.7009 42.3048 16.5303 42.3532 16.3822 42.4447C16.2341 42.5363 16.1144 42.6672 16.0365 42.8229L14.7205 45.4548C14.6509 45.5936 14.5698 45.7263 14.478 45.8516C12.3907 42.2985 11.25 38.3735 11.25 34.6875C11.25 29.8222 13.1227 25.7474 16.6657 22.9037C20.0027 20.2252 24.7383 18.75 30 18.75C34.6429 18.75 38.8099 19.8653 42.0505 21.9751C45.1518 23.9944 47.2623 26.867 48.1948 30.3189C47.7851 30.5026 47.4116 30.758 47.0918 31.0731V31.0731ZM16.875 52.3958L16.3976 51.4409C15.9422 50.535 15.2071 49.7999 14.3012 49.3446L13.3464 48.8672L14.3012 48.3898C15.2072 47.9345 15.9423 47.1993 16.3976 46.2934L16.875 45.3386L17.3524 46.2935C17.8078 47.1994 18.5429 47.9345 19.4488 48.3898L20.4036 48.8672L19.4488 49.3446C18.5428 49.7999 17.8077 50.535 17.3524 51.441L16.875 52.3958ZM51.5625 44.2234C51.5635 44.5929 51.4913 44.9589 51.3499 45.3003C51.2085 45.6416 51.0008 45.9515 50.7388 46.2121C50.7146 46.2362 50.6918 46.2616 50.6705 46.2882L42.6754 56.25H31.7849L39.5442 44.9938C39.9048 44.6599 40.3821 44.481 40.8733 44.4955C41.3645 44.51 41.8304 44.7167 42.1707 45.0712C42.511 45.4258 42.6985 45.8997 42.6929 46.3911C42.6873 46.8825 42.489 47.3521 42.1406 47.6987C42.1059 47.7335 42.074 47.7709 42.0451 47.8106L39.5543 51.2389C39.4138 51.4403 39.358 51.6888 39.3987 51.931C39.4395 52.1731 39.5737 52.3896 39.7723 52.5339C39.971 52.6781 40.2184 52.7387 40.4613 52.7026C40.7041 52.6664 40.9231 52.5364 41.0712 52.3405L43.5217 48.9677C43.7055 48.7759 43.8683 48.565 44.0074 48.3387L47.6152 43.7V43.6989C47.7431 43.535 47.8126 43.333 47.8125 43.125V33.8134C47.8138 33.5522 47.8668 33.2938 47.9684 33.0532C48.0701 32.8126 48.2185 32.5945 48.4049 32.4115C48.5777 32.2384 48.7835 32.1017 49.0101 32.0096C49.2367 31.9174 49.4795 31.8717 49.7241 31.875C50.2142 31.8869 50.6805 32.0893 51.0238 32.4394C51.367 32.7896 51.5603 33.2597 51.5625 33.75V44.2234ZM50.0552 30.0192C49.0294 26.0314 46.6277 22.7184 43.0737 20.4039C40.436 18.6866 37.2587 17.572 33.7433 17.1135C35.2853 15.8978 36.6088 14.298 37.3072 13.3841C39.6383 10.3346 40.7653 7.6848 41.1207 5.87238C50.0508 9.46688 56.25 17.2489 56.25 26.25C56.242 29.8211 55.2703 33.3239 53.4375 36.3888V33.75C53.4327 32.8206 53.0847 31.9257 52.4605 31.2372C51.8363 30.5486 50.9797 30.1149 50.0552 30.0192V30.0192Z" fill="#C28565"/>
<path d="M23.4375 34.6875C23.6861 34.6875 23.9246 34.5887 24.1004 34.4129C24.2762 34.2371 24.375 33.9986 24.375 33.75C24.375 33.0041 24.0787 32.2887 23.5512 31.7613C23.0238 31.2338 22.3084 30.9375 21.5625 30.9375C20.8166 30.9375 20.1012 31.2338 19.5738 31.7613C19.0463 32.2887 18.75 33.0041 18.75 33.75C18.75 33.9986 18.8488 34.2371 19.0246 34.4129C19.2004 34.5887 19.4389 34.6875 19.6875 34.6875C19.9361 34.6875 20.1746 34.5887 20.3504 34.4129C20.5262 34.2371 20.625 33.9986 20.625 33.75C20.625 33.5014 20.7238 33.2629 20.8996 33.0871C21.0754 32.9113 21.3139 32.8125 21.5625 32.8125C21.8111 32.8125 22.0496 32.9113 22.2254 33.0871C22.4012 33.2629 22.5 33.5014 22.5 33.75C22.5 33.9986 22.5988 34.2371 22.7746 34.4129C22.9504 34.5887 23.1889 34.6875 23.4375 34.6875Z" fill="#C28565"/>
<path d="M38.4375 30.9375C37.6918 30.9383 36.977 31.2349 36.4497 31.7622C35.9224 32.2895 35.6258 33.0043 35.625 33.75C35.625 33.9986 35.7238 34.2371 35.8996 34.4129C36.0754 34.5887 36.3139 34.6875 36.5625 34.6875C36.8111 34.6875 37.0496 34.5887 37.2254 34.4129C37.4012 34.2371 37.5 33.9986 37.5 33.75C37.5 33.5014 37.5988 33.2629 37.7746 33.0871C37.9504 32.9113 38.1889 32.8125 38.4375 32.8125C38.6861 32.8125 38.9246 32.9113 39.1004 33.0871C39.2762 33.2629 39.375 33.5014 39.375 33.75C39.375 33.9986 39.4738 34.2371 39.6496 34.4129C39.8254 34.5887 40.0639 34.6875 40.3125 34.6875C40.5611 34.6875 40.7996 34.5887 40.9754 34.4129C41.1512 34.2371 41.25 33.9986 41.25 33.75C41.2492 33.0043 40.9526 32.2895 40.4253 31.7622C39.898 31.2349 39.1832 30.9383 38.4375 30.9375V30.9375Z" fill="#C28565"/>
<path d="M36.9384 40.3911C36.7107 40.2915 36.4526 40.2864 36.2211 40.3769C35.9895 40.4675 35.8034 40.6464 35.7038 40.8742C35.6898 40.906 34.2597 44.0625 30.0001 44.0625C25.797 44.0625 24.3599 41.0136 24.2946 40.8699C24.1934 40.6439 24.0069 40.4671 23.7757 40.3781C23.5446 40.2892 23.2877 40.2953 23.061 40.3951C22.8344 40.495 22.6565 40.6804 22.5661 40.911C22.4757 41.1416 22.4803 41.3986 22.5788 41.6258C22.6557 41.8018 24.5281 45.9375 30.0001 45.9375C35.4722 45.9375 37.3445 41.8018 37.4215 41.6258C37.5212 41.398 37.5263 41.14 37.4357 40.9084C37.3451 40.6769 37.1662 40.4908 36.9384 40.3911Z" fill="#C28565"/>
<path d="M28.125 38.4375H31.875C32.1236 38.4375 32.3621 38.3387 32.5379 38.1629C32.7137 37.9871 32.8125 37.7486 32.8125 37.5C32.8125 37.2514 32.7137 37.0129 32.5379 36.8371C32.3621 36.6613 32.1236 36.5625 31.875 36.5625H29.0625V33.75C29.0625 33.5014 28.9637 33.2629 28.7879 33.0871C28.6121 32.9113 28.3736 32.8125 28.125 32.8125C27.8764 32.8125 27.6379 32.9113 27.4621 33.0871C27.2863 33.2629 27.1875 33.5014 27.1875 33.75V37.5C27.1875 37.7486 27.2863 37.9871 27.4621 38.1629C27.6379 38.3387 27.8764 38.4375 28.125 38.4375Z" fill="#C28565"/>
</svg>
