<svg width="138" height="227" viewBox="0 0 138 227" fill="none" xmlns="http://www.w3.org/2000/svg">
<g opacity="0.3">
<path d="M135.923 22.171C135.814 24.0077 136.739 25.8792 137.306 27.581C137.906 29.3828 138.155 31.0478 137.763 32.9269C137.385 34.7183 136.623 36.4361 136.47 38.2737C136.31 40.2065 136.659 42.1459 136.429 44.0778C136.008 47.5663 133.833 50.2628 131.191 52.4181C128.727 54.4283 126.116 56.263 124.579 59.1302C123.679 60.8081 123.122 62.648 122.94 64.543C122.886 65.0983 122.711 70.9901 122.508 70.9599C122.383 70.9411 122.239 66.1694 122.226 65.6678C122.164 63.8547 122.374 62.0775 122.974 60.3606C124.2 56.8598 126.651 54.6036 129.566 52.4634C132.418 50.3675 135.048 47.9642 135.702 44.3107C136.028 42.4901 135.786 40.6336 135.88 38.7998C135.974 36.9349 136.701 35.2387 137.205 33.4643C137.782 31.4297 137.677 29.6703 137.06 27.6611C136.741 26.6174 136.374 25.5869 136.109 24.5262C135.988 24.0876 135.901 23.6403 135.85 23.1883C135.781 22.4784 135.934 21.989 135.923 22.171Z" fill="#C28565"/>
<path d="M135.374 26.8469C135.7 29.5585 135.313 32.3521 133.646 34.5781C132.004 36.7768 129.539 38.275 127.506 40.0777C125.607 41.7491 124.007 43.7324 122.776 45.9421C122.08 47.1928 121.537 48.5222 121.158 49.902C121.072 50.2188 120.457 53.8836 120.545 53.8846C120.233 53.8846 120.795 50.1764 120.872 49.8304C121.172 48.5132 121.618 47.2336 122.202 46.0157C123.34 43.6209 124.973 41.475 126.877 39.6364C128.878 37.7027 131.199 36.0037 132.911 33.7909C133.69 32.7699 134.27 31.611 134.618 30.375C134.796 29.7446 134.936 29.1047 135.04 28.4582C135.1 28.0999 135.152 27.7407 135.202 27.3815C135.212 27.2777 135.349 26.6621 135.374 26.8469Z" fill="#C28565"/>
<path d="M135.898 23.7958C135.912 23.7383 136.351 26.4744 136.327 27.5606C136.277 29.8422 135.811 32.1003 135.102 34.2613C133.544 38.9943 130.902 42.9052 127.748 46.7067C124.761 50.3084 122.114 54.0825 121.345 58.7816C121.022 60.7512 121.126 62.7415 121.388 64.714C121.483 65.4032 122.531 72.9732 122.076 72.9487C122.076 72.9487 121.05 67.0352 120.929 66.4988C120.41 64.1879 120.01 61.8609 120.21 59.484C120.367 57.7594 120.789 56.0692 121.46 54.4729C122.506 51.9432 124.122 49.738 125.883 47.6571C127.391 45.8657 128.994 44.1507 130.389 42.2669C131.709 40.484 132.786 38.5352 133.702 36.5156C134.826 34.0369 135.667 31.4403 135.985 28.7316C136.125 27.5398 136.079 26.4084 135.985 25.2204C135.953 24.7716 135.898 23.9052 135.898 23.7958Z" fill="#C28565"/>
<path d="M75.0234 30.406C77.8519 31.6449 79.896 34.0642 81.3404 36.7947C82.8631 39.6751 83.6475 42.8967 85.1033 45.8224C86.3704 48.368 88.2599 50.7722 90.9781 51.9508C92.4263 52.5778 93.9424 52.5985 95.5188 52.4222C95.8676 52.3836 100.092 51.9291 100.044 52.2638C100.062 52.1422 95.7271 52.69 95.3858 52.7352C93.6765 52.9879 92.0359 52.9521 90.4661 52.2638C87.6272 51.0127 85.6388 48.55 84.2585 45.8978C82.7556 43.0118 81.7345 39.8995 80.3155 36.9861C79.6843 35.6556 78.8995 34.4035 77.9773 33.2553C77.5126 32.6893 77.0054 32.1594 76.4603 31.6704C76.1473 31.3875 75.821 31.1235 75.4873 30.869C75.4675 30.8567 74.833 30.324 75.0234 30.406Z" fill="#C28565"/>
<path d="M73.2803 30.0684C76.3143 30.0401 78.8835 30.6086 81.4443 32.2793C83.9268 33.8982 85.7597 36.0441 87.7406 38.2494C89.6262 40.3491 91.7419 42.2093 94.3762 43.4265C96.7333 44.5117 99.1988 45.0859 101.379 46.6057C102.775 47.5787 103.977 48.7743 105.317 49.8283C105.941 50.3196 106.605 50.7844 107.35 51.1068C107.556 51.2011 109.801 51.7668 109.81 51.6942C109.794 51.9167 108.162 51.7225 107.946 51.6848C107.137 51.5307 106.36 51.2395 105.649 50.824C104.311 50.0697 103.157 49.058 101.927 48.1756C99.9748 46.7754 97.8987 45.942 95.6887 45.0934C92.7527 43.962 90.2815 42.1065 88.2205 39.8503C86.1594 37.5941 84.4491 35.0494 82.009 33.1939C80.7136 32.2096 79.3257 31.3082 77.7785 30.7887C76.9519 30.5228 76.098 30.3507 75.2329 30.2758C74.8557 30.2381 74.473 30.2155 74.0921 30.1975C73.8193 30.1696 73.5483 30.1265 73.2803 30.0684Z" fill="#C28565"/>
<path d="M75.0337 30.3594C77.7359 31.0043 80.0996 32.6872 81.8872 34.8124C83.8671 37.1648 85.2192 39.9706 86.9889 42.5012C88.6275 44.8432 90.6584 46.8232 93.4313 47.8603C96.3767 48.9559 99.5936 49.4075 102.644 50.406C104.435 50.9905 106.241 51.5534 108.09 52.0173C109.015 52.266 109.955 52.4531 110.904 52.5773C111.375 52.6311 111.948 52.7027 112.421 52.5849C112.674 52.5141 112.909 52.3929 113.114 52.2285C113.471 52.0305 113.163 52.6537 111.941 52.9101C111.074 53.0912 110.15 52.9554 109.285 52.8554C107.476 52.6442 105.702 52.2388 103.97 51.7891C102.265 51.346 100.599 50.8123 98.9006 50.4022C97.2978 50.0166 95.695 49.6555 94.1629 49.1256C91.2146 48.1101 88.9292 46.3499 87.1293 43.8966C85.1984 41.2652 83.9011 38.2321 81.9909 35.6147C81.0282 34.2948 79.9166 33.1285 78.5731 32.2149C77.5916 31.5398 75.9888 30.5857 75.0337 30.3594Z" fill="#C28565"/>
<path d="M64.2437 0C65.4194 1.35768 66.8007 2.37972 68.33 3.35178C69.7555 4.25785 71.2405 5.1526 72.4049 6.4688C74.5348 8.87774 74.6564 12.5359 75.5804 15.7303C76.8655 20.1673 80.5227 22.9901 83.8189 25.9921C87.2216 29.094 92.0451 30.1755 96.3426 32.0263C98.5413 32.9747 100.723 34.1005 102.62 35.7269C103.169 36.1977 103.681 36.711 104.15 37.2618C104.339 37.489 106.546 40.5768 106.224 40.7173C106.285 40.6909 104.539 38.0453 104.381 37.853C103.864 37.2218 103.291 36.6375 102.671 36.1068C101.199 34.8425 99.5067 33.9016 97.8021 33.1294C93.3302 31.1042 88.4341 30.1877 84.5468 27.4724C82.6281 26.1335 80.8848 24.4034 79.2178 22.8279C77.6744 21.3675 76.2291 19.7713 75.3343 17.7998C73.8512 14.5357 74.1086 10.3608 72.1343 7.53609C71.1123 6.07752 69.6735 5.07434 68.3083 4.07305C67.4117 3.41306 66.5254 2.75308 65.7372 1.97996C65.5005 1.75556 64.1325 0.0292279 64.2437 0Z" fill="#C28565"/>
<path d="M64.5363 0.177424C66.7925 1.43422 69.5795 1.62939 72.1799 2.19415C74.9141 2.78814 77.6069 3.80546 79.7999 5.70056C81.9929 7.59566 83.509 10.2837 85.0317 12.8935C85.851 14.2992 86.6807 15.7163 87.6471 17.0485C87.8555 17.3314 90.452 20.4154 90.5162 20.3371C90.3012 20.603 87.5293 17.3889 87.3105 17.1136C86.33 15.8549 85.4626 14.518 84.6178 13.1848C83.0432 10.7023 81.5121 8.10384 79.304 6.33037C77.0478 4.51824 74.2701 3.74983 71.5878 3.03987C70.2028 2.67311 68.814 2.345 67.4949 1.86321C66.9104 1.65656 66.3429 1.40436 65.7978 1.10895C65.4909 0.940633 65.1957 0.751629 64.9144 0.543245C64.8927 0.523445 64.3921 0.095397 64.5363 0.177424Z" fill="#C28565"/>
<path d="M64.6851 0.368164C65.0952 0.853725 65.9183 1.2714 66.533 1.60516C67.3523 2.05018 68.2028 2.45372 69.0598 2.84877C70.7994 3.65489 72.5964 4.40445 74.3397 5.30014C76.6374 6.48246 78.2053 8.51615 79.6083 10.8308C81.4694 13.9082 82.9516 17.4062 85.5613 20.0612C88.6369 23.1905 93.0795 24.6462 96.6378 27.5096C98.7012 29.1719 100.567 31.0652 102.2 33.1525C102.626 33.6974 106.837 40.2086 106.306 40.4208C106.237 40.4481 104.642 37.614 104.446 37.3207C103.734 36.2548 102.966 35.2272 102.146 34.2424C100.564 32.3492 98.8039 30.6127 96.8895 29.0568C93.3067 26.134 89.031 24.4595 85.7641 21.4999C82.8799 18.8873 81.3101 15.1914 79.5055 11.8943C78.2525 9.60513 76.7713 7.23578 74.6131 5.95447C72.768 4.86172 70.8126 4.00845 68.9448 3.07222C68.0189 2.60834 67.0987 2.1407 66.2238 1.61271C65.7967 1.36003 64.7511 0.618958 64.6851 0.368164Z" fill="#C28565"/>
<path d="M111.11 3.56543C112.186 9.93146 107.627 15.6111 106.934 21.7226C106.575 24.8962 107.24 27.8746 108.543 30.7663C109.221 32.2511 110 33.6878 110.874 35.0665C111.105 35.4342 113.586 39.0029 113.586 39.0029C113.094 39.396 108.287 31.299 107.915 30.5117C106.543 27.6068 105.896 24.5322 106.203 21.3181C106.521 17.9776 107.806 14.7739 108.968 11.6568C109.502 10.2322 110.005 8.80194 110.388 7.32735C110.564 6.63907 110.721 5.94326 110.835 5.24179C110.892 4.89389 111.127 3.66537 111.11 3.56543Z" fill="#C28565"/>
<path d="M111.51 3.08354C111.711 6.05158 113.454 8.87349 114.375 11.9462C115.252 14.869 115.079 18.0699 114.96 21.087C114.898 22.671 114.829 24.2568 114.89 25.8417C114.956 27.5454 115.467 29.0785 116.006 30.6804C117.068 33.8351 117.797 37.0058 117.725 40.3614C117.684 42.1696 117.445 43.968 117.013 45.7243C116.897 46.1957 115.543 50.6081 115.302 50.4997C115.314 50.5054 116.511 46.5492 116.596 46.1768C116.953 44.6123 117.157 43.0167 117.204 41.4127C117.298 37.9826 116.626 34.6865 115.479 31.4733C114.993 30.1118 114.422 28.7475 114.165 27.3163C113.876 25.7041 113.919 23.989 113.923 22.3561C113.932 19.1683 114.258 15.8024 113.591 12.6618C113.214 10.8704 112.425 9.21857 111.894 7.47621C111.637 6.65212 111.466 5.80335 111.385 4.94375C111.292 3.83781 111.51 2.9506 111.51 3.08354Z" fill="#C28565"/>
<path d="M111.44 6.63281C111.911 8.02727 111.432 9.27275 111.376 10.7106C111.312 12.3851 111.369 13.9162 111.748 15.5662C112.119 17.1813 112.297 18.7209 112.117 20.368C111.928 22.0878 111.489 23.7717 111.242 25.4848C110.805 28.5123 111.728 31.1569 113.042 33.927C114.133 36.2266 114.963 38.4158 115.399 40.8823C115.712 42.6388 115.954 44.4066 115.835 46.1876C115.806 46.6355 114.97 51.3487 114.601 51.2242C114.573 51.2148 115.145 47.1267 115.153 46.6986C115.186 45.0147 114.917 43.3506 114.567 41.7016C114.237 40.144 113.891 38.6072 113.311 37.1081C112.731 35.609 112.02 34.1646 111.425 32.6721C110.459 30.2273 110.075 27.857 110.524 25.3019C110.807 23.6831 111.259 22.0963 111.498 20.467C111.731 18.8803 111.636 17.3727 111.333 15.8C110.997 14.0567 110.963 12.4737 111.093 10.7143C111.198 9.42643 111.804 7.69539 111.44 6.63281Z" fill="#C28565"/>
<path d="M107.395 41.9805C110.373 44.8156 112.523 48.5266 114.34 52.1791C116.242 56.0004 117.734 60.0367 118.88 64.1456C120.417 69.6414 121.354 75.2616 121.216 80.9865C121.185 82.2895 120.21 91.0824 119.723 90.9485C119.584 90.9099 120.066 84.7749 120.076 84.1828C120.116 81.9643 120.04 79.7514 119.874 77.5358C119.541 73.1044 118.965 68.691 117.894 64.3719C116.827 60.0406 115.346 55.8221 113.471 51.7746C112.584 49.8441 111.572 47.9739 110.44 46.1761C109.612 44.8797 108.301 42.8394 107.395 41.9805Z" fill="#C28565"/>
<path d="M3.97376 199.605C5.33993 200.642 6.10551 202.434 6.96726 203.861C7.87993 205.377 8.90668 206.564 10.4765 207.422C11.9737 208.242 13.652 208.742 15.0464 209.746C16.5116 210.802 17.6713 212.226 19.1808 213.234C21.9103 215.052 25.1338 215.14 28.2603 214.576C31.1765 214.048 34.0568 213.309 37.0183 213.957C38.7515 214.337 40.3921 215.057 41.8447 216.076C42.2699 216.374 46.5494 219.818 46.6531 219.659C46.7154 219.559 43.4239 216.566 43.0788 216.25C41.8315 215.109 40.4464 214.181 38.8672 213.567C35.6465 212.314 32.5624 212.684 29.2814 213.452C26.0701 214.206 22.7758 214.61 19.7917 212.86C18.3049 211.988 17.1376 210.691 15.7818 209.648C14.4034 208.586 12.7648 208.074 11.2006 207.355C9.40921 206.532 8.22878 205.391 7.17846 203.739C6.63255 202.88 6.12436 201.996 5.53415 201.167C5.2965 200.816 5.03203 200.483 4.74311 200.173C4.27735 199.69 3.83799 199.503 3.97376 199.605Z" fill="#C28565"/>
<path d="M7.61789 202.048C9.34045 203.922 11.5542 205.34 14.1433 205.51C16.6946 205.678 19.2487 204.841 21.7576 204.492C24.0909 204.159 26.4639 204.227 28.7742 204.694C30.0826 204.959 31.3544 205.381 32.5625 205.949C32.8388 206.08 35.8059 207.865 35.754 207.929C35.9426 207.705 32.9764 205.86 32.686 205.706C31.5713 205.121 30.395 204.662 29.1787 204.337C26.7933 203.694 24.2844 203.551 21.8302 203.785C19.2487 204.031 16.6399 204.647 14.0358 204.513C12.841 204.447 11.6696 204.155 10.5831 203.654C10.0294 203.397 9.4908 203.109 8.96992 202.791C8.68047 202.617 8.39479 202.437 8.11005 202.254C8.02048 202.195 7.50192 201.92 7.61789 202.048Z" fill="#C28565"/>
<path d="M5.13928 200.572C5.08931 200.547 6.7619 202.516 7.54445 203.156C9.19065 204.503 11.0725 205.539 13.0346 206.344C17.3302 208.108 21.6993 208.607 26.3012 208.675C30.66 208.742 34.9357 209.152 38.7297 211.454C40.3203 212.418 41.6685 213.698 42.9046 215.077C43.3373 215.56 48.0619 220.889 48.3202 220.551C48.3202 220.551 44.7544 216.243 44.4471 215.837C43.1271 214.069 41.7194 212.377 39.9148 211.079C38.5986 210.146 37.1466 209.421 35.6099 208.93C33.1839 208.139 30.643 207.947 28.1039 207.934C25.9222 207.923 23.7367 208.013 21.5569 207.861C19.494 207.716 17.4621 207.295 15.4775 206.724C13.0421 206.019 10.6945 205.042 8.58252 203.627C7.65382 203.005 6.88541 202.285 6.09626 201.5C5.79927 201.199 5.21565 200.638 5.13928 200.572Z" fill="#C28565"/>
<path d="M39.7948 156.236C39.1961 159.24 40.0022 162.276 41.4032 165C42.8816 167.873 45.0548 170.34 46.6077 173.185C47.9607 175.664 48.8394 178.56 48.2539 181.442C47.9418 182.976 47.097 184.22 46.059 185.402C45.828 185.664 43.0598 188.84 43.3606 188.99C43.2521 188.936 46.158 185.722 46.3937 185.473C47.5694 184.226 48.4679 182.872 48.8007 181.203C49.3957 178.186 48.5226 175.169 47.1498 172.54C45.6564 169.679 43.7047 167.082 42.1424 164.273C41.4193 163.004 40.8469 161.654 40.4368 160.253C40.2404 159.553 40.0973 158.84 40.0088 158.119C39.9588 157.705 39.9277 157.289 39.9145 156.873C39.9098 156.853 39.8362 156.034 39.7948 156.236Z" fill="#C28565"/>
<path d="M40.5105 154.626C38.7653 157.077 37.7678 159.489 37.6716 162.52C37.5773 165.458 38.2835 168.167 38.951 171.029C39.5874 173.756 39.9014 176.535 39.3923 179.365C38.9378 181.896 38.0035 184.229 38.0007 186.865C38.0007 188.553 38.2835 190.209 38.3844 191.897C38.4306 192.684 38.4315 193.488 38.2703 194.276C38.2251 194.496 37.4142 196.649 37.3501 196.611C37.5387 196.725 38.309 195.291 38.4014 195.091C38.7357 194.345 38.9401 193.548 39.0057 192.734C39.1528 191.217 38.9859 189.705 38.9661 188.208C38.9359 185.825 39.4375 183.662 40.0032 181.384C40.7575 178.356 40.6453 175.291 39.9816 172.332C39.315 169.361 38.2175 166.542 38.0959 163.501C38.0318 161.889 38.0865 160.248 38.5428 158.692C38.7965 157.871 39.1415 157.08 39.5714 156.335C39.76 156.005 39.9542 155.683 40.156 155.363C40.2879 155.124 40.4063 154.878 40.5105 154.626Z" fill="#C28565"/>
<path d="M39.7512 156.219C38.7405 158.782 38.7678 161.66 39.4806 164.321C40.2698 167.265 41.7821 169.96 42.8352 172.834C43.812 175.499 44.2665 178.275 43.5301 181.116C42.7475 184.133 41.288 187.005 40.3678 190.052C39.8285 191.837 39.2581 193.629 38.5849 195.396C38.2623 196.289 37.8805 197.16 37.4422 198.002C37.2178 198.417 36.9519 198.922 36.5871 199.24C36.3857 199.405 36.1533 199.528 35.9035 199.601C35.5396 199.78 36.2222 199.884 37.1245 199.036C37.7637 198.434 38.1804 197.603 38.5878 196.846C39.4438 195.254 40.1208 193.583 40.7384 191.918C41.3474 190.28 41.8594 188.618 42.4902 187.009C43.0851 185.49 43.7008 183.982 44.1429 182.431C44.9915 179.458 44.8576 176.599 43.8856 173.742C42.8418 170.678 41.1127 167.897 40.0699 164.861C39.5438 163.33 39.2261 161.762 39.2459 160.151C39.26 158.967 39.3929 157.125 39.7512 156.219Z" fill="#C28565"/>
<path d="M24.0068 136.422C24.3472 137.992 24.3368 139.534 24.2114 141.145C24.0945 142.654 23.9371 144.193 24.2539 145.733C24.8337 148.55 27.386 150.6 29.1745 152.976C31.6589 156.276 31.7126 160.406 32.0973 164.378C32.4895 168.477 30.6746 172.508 29.6931 176.577C29.1915 178.658 28.8257 180.82 28.9709 183.052C29.013 183.698 29.1054 184.34 29.2471 184.971C29.3065 185.231 30.3333 188.465 30.6039 188.313C30.5529 188.342 29.5979 185.673 29.5441 185.457C29.3712 184.745 29.2614 184.019 29.216 183.288C29.1019 181.556 29.3367 179.841 29.6997 178.206C30.651 173.921 32.6225 169.926 32.7696 165.689C32.8412 163.599 32.5395 161.423 32.3076 159.385C32.0917 157.5 31.7249 155.605 30.799 153.907C29.2603 151.095 26.1329 149.04 25.175 146.109C24.68 144.595 24.7338 143.028 24.7507 141.514C24.7611 140.52 24.7639 139.534 24.6338 138.55C24.5876 138.264 24.0879 136.358 24.0068 136.422Z" fill="#C28565"/>
<path d="M23.9778 136.727C23.6648 139.016 22.309 141.114 21.3171 143.277C20.2734 145.554 19.5568 148.024 19.736 150.61C19.9151 153.197 21.021 155.722 22.0733 158.214C22.639 159.555 23.2047 160.909 23.6412 162.315C23.7355 162.618 24.5435 166.13 24.4539 166.132C24.7594 166.121 23.9476 162.414 23.8665 162.112C23.4894 160.735 23.002 159.397 22.5013 158.077C21.5698 155.618 20.5336 153.129 20.4497 150.596C20.3648 148.01 21.3067 145.611 22.2411 143.31C22.7229 142.123 23.2339 140.953 23.5969 139.751C23.7624 139.222 23.8863 138.68 23.9674 138.132C24.0118 137.822 24.0351 137.51 24.0372 137.197C24.0381 137.168 23.9976 136.582 23.9778 136.727Z" fill="#C28565"/>
<path d="M24.0383 136.937C24.1656 137.49 24.0223 138.303 23.9308 138.922C23.8101 139.747 23.6404 140.571 23.4651 141.397C23.1077 143.074 22.6797 144.762 22.3855 146.488C21.998 148.767 22.6099 150.982 23.5169 153.226C24.719 156.209 26.4256 159.148 26.9243 162.439C27.5117 166.319 26.1701 170.278 26.3096 174.362C26.3892 176.729 26.7404 179.079 27.3562 181.366C27.5174 181.964 29.9141 188.471 30.3515 188.205C30.4081 188.17 29.2362 185.508 29.1315 185.212C28.7512 184.129 28.4283 183.028 28.1642 181.912C27.6599 179.765 27.3635 177.574 27.2788 175.37C27.111 171.235 28.2085 167.282 27.8445 163.354C27.524 159.889 25.7222 156.782 24.3325 153.721C23.368 151.596 22.4666 149.268 22.7108 147.034C22.9192 145.128 23.3585 143.27 23.6914 141.433C23.8563 140.521 24.0166 139.612 24.1081 138.699C24.1458 138.263 24.1779 137.118 24.0383 136.937Z" fill="#C28565"/>
<path d="M0.956543 166.79C5.05882 171.707 12.2781 171.935 17.3308 175.355C19.9537 177.13 21.7696 179.552 23.1075 182.399C23.7893 183.866 24.3699 185.378 24.8452 186.924C24.9743 187.335 26.0614 191.507 26.0614 191.507C26.6762 191.389 23.6751 182.55 23.3216 181.757C22.0176 178.85 20.1159 176.382 17.4986 174.538C14.7766 172.622 11.537 171.521 8.43606 170.39C7.02181 169.872 5.61321 169.332 4.25741 168.666C3.62477 168.356 2.99967 168.025 2.39814 167.659C2.09926 167.482 1.0216 166.867 0.956543 166.79Z" fill="#C28565"/>
<path d="M0.336186 166.781C2.44248 168.846 3.44755 171.979 5.16822 174.657C6.80876 177.203 9.32896 179.136 11.6785 180.993C12.9117 181.968 14.1516 182.939 15.3056 184.01C16.5473 185.158 17.3732 186.531 18.2284 187.97C19.9198 190.805 21.8404 193.399 24.4143 195.513C25.8033 196.648 27.3124 197.628 28.9145 198.435C29.3463 198.653 33.5419 200.478 33.6155 200.227C33.6155 200.239 29.8592 198.59 29.5236 198.414C28.1157 197.671 26.7838 196.793 25.5467 195.792C22.9001 193.651 20.8523 191.018 19.1703 188.082C18.4584 186.838 17.7985 185.527 16.8858 184.411C15.8572 183.153 14.5372 182.079 13.303 181.03C10.896 178.979 8.14947 177.056 6.21288 174.524C5.10882 173.082 4.37153 171.424 3.39852 169.904C2.94337 169.179 2.41377 168.502 1.81832 167.887C1.0452 167.103 0.235302 166.696 0.336186 166.781Z" fill="#C28565"/>
<path d="M3.05322 169.021C3.79806 170.277 5.04921 170.718 6.16458 171.603C7.46758 172.635 8.58579 173.665 9.58425 175.014C10.561 176.334 11.6066 177.465 12.9634 178.389C14.3776 179.357 15.9342 180.111 17.3834 181.028C19.946 182.653 21.3433 185.053 22.5841 187.83C23.6146 190.135 24.729 192.173 26.3007 194.095C27.4227 195.464 28.5994 196.786 30.0174 197.845C30.3747 198.112 34.4638 200.522 34.609 200.163C34.6203 200.136 31.1705 197.931 30.8433 197.662C29.5535 196.6 28.474 195.325 27.4557 193.996C26.495 192.743 25.5597 191.491 24.8045 190.087C24.0492 188.683 23.4185 187.216 22.6746 185.81C21.4564 183.504 19.9177 181.687 17.703 180.377C16.3001 179.546 14.8113 178.861 13.432 177.992C12.0856 177.143 11.0117 176.106 10.0217 174.858C8.92521 173.481 7.7542 172.435 6.34466 171.397C5.31603 170.637 3.61798 169.976 3.05322 169.021Z" fill="#C28565"/>
<path d="M30.8262 189.131C31.4409 193.163 33.237 197.02 35.1755 200.57C37.2035 204.287 39.6398 207.79 42.3269 211.057C45.9229 215.429 49.9639 219.383 54.695 222.521C55.7717 223.235 63.4756 227.437 63.6435 226.964C63.6906 226.83 58.4286 223.737 57.9412 223.41C56.1149 222.184 54.3584 220.864 52.6509 219.47C49.236 216.681 45.9757 213.708 43.0727 210.384C40.1568 207.058 37.5677 203.458 35.3414 199.636C34.2753 197.819 33.3304 195.934 32.5129 193.993C31.9227 192.581 31.0072 190.357 30.8262 189.131Z" fill="#C28565"/>
<path d="M42.6118 106.592C42.8947 106.033 43.169 105.467 43.4707 104.914C43.7725 104.36 44.0996 103.812 44.5361 103.329C44.7563 103.084 45.0084 102.871 45.2857 102.694L45.5016 102.569L45.7288 102.464C45.8947 102.399 46.0703 102.362 46.2483 102.354C46.5745 102.339 46.9013 102.359 47.2232 102.414C47.5394 102.462 47.8526 102.529 48.1614 102.612L47.8917 102.673C48.3158 102.282 48.7775 101.935 49.2701 101.636C49.5209 101.485 49.7821 101.353 50.0517 101.24C50.3329 101.123 50.6269 101.041 50.9276 100.995C51.5537 100.918 52.1184 100.995 52.6813 101.069C53.2393 101.15 53.7918 101.265 54.336 101.413C54.8743 101.565 55.408 101.735 55.9284 101.936C56.4489 102.136 56.9656 102.346 57.4728 102.58C57.98 102.815 58.4798 103.065 58.9663 103.34C59.458 103.612 59.9306 103.917 60.3805 104.254C60.3901 104.262 60.3963 104.273 60.3979 104.285C60.3995 104.297 60.3963 104.309 60.389 104.319C60.3835 104.327 60.3755 104.333 60.3663 104.336C60.3571 104.339 60.3471 104.338 60.3381 104.335C59.2953 103.958 58.2638 103.605 57.2192 103.274C56.1745 102.943 55.1346 102.631 54.0956 102.332C53.5761 102.185 53.0584 102.036 52.538 101.922C52.2768 101.859 52.0204 101.82 51.7611 101.778L51.384 101.745C51.2586 101.736 51.1426 101.745 51.021 101.745C50.5496 101.781 50.0574 101.975 49.5945 102.216C49.1267 102.467 48.6846 102.764 48.2745 103.101L48.2603 103.113C48.2252 103.142 48.1835 103.162 48.1388 103.17C48.0942 103.179 48.0481 103.176 48.0048 103.162C47.721 103.07 47.4324 102.992 47.1403 102.93C46.8564 102.866 46.5666 102.832 46.2757 102.828H46.172L46.0777 102.841C46.0458 102.843 46.0142 102.849 45.9834 102.858C45.9513 102.864 45.9198 102.873 45.8891 102.884L45.6892 102.959L45.496 103.054C45.2391 103.196 45.0023 103.371 44.7917 103.575C44.3608 103.991 44.0063 104.504 43.6716 105.027C43.3369 105.55 43.021 106.094 42.6957 106.63C42.6927 106.635 42.6888 106.639 42.684 106.643C42.6793 106.646 42.6739 106.649 42.6682 106.65C42.6625 106.652 42.6566 106.652 42.6508 106.651C42.645 106.65 42.6395 106.648 42.6344 106.645C42.6254 106.64 42.6183 106.632 42.6142 106.622C42.6101 106.613 42.6092 106.602 42.6118 106.592Z" fill="#C28565"/>
<path d="M44.3195 110.843C45.6395 111.624 47.148 111.974 48.6471 112.068C49.3949 112.116 50.1454 112.099 50.8901 112.015C51.6297 111.938 52.3615 111.798 53.0775 111.597C53.7905 111.395 54.4823 111.125 55.1433 110.79C55.8033 110.462 56.4444 110.109 57.0742 109.728C57.7088 109.343 58.317 108.915 58.8948 108.449C59.4831 107.977 60.046 107.468 60.623 106.93C60.6284 106.924 60.6348 106.92 60.642 106.917C60.6491 106.914 60.6568 106.912 60.6645 106.912C60.6723 106.912 60.6799 106.914 60.6871 106.917C60.6942 106.92 60.7006 106.924 60.706 106.93C60.7136 106.938 60.7187 106.949 60.7207 106.96C60.7227 106.972 60.7215 106.983 60.7173 106.994C60.3985 107.733 59.9763 108.423 59.4633 109.044C58.9509 109.67 58.3617 110.229 57.7097 110.709C57.059 111.187 56.3463 111.574 55.5911 111.86C54.8421 112.136 54.0726 112.354 53.2897 112.51C52.5134 112.671 51.7249 112.766 50.9326 112.793C50.1442 112.814 49.3554 112.766 48.5755 112.649C47.7987 112.531 47.036 112.334 46.2995 112.061C45.5678 111.786 44.8795 111.407 44.2554 110.937C44.2431 110.927 44.2349 110.914 44.2326 110.898C44.2303 110.883 44.2341 110.867 44.2431 110.855C44.2514 110.843 44.2637 110.835 44.2777 110.832C44.2917 110.829 44.3063 110.831 44.3186 110.839L44.3195 110.843Z" fill="#C28565"/>
<path d="M43.272 108.31C43.5548 108.122 43.8377 107.923 44.1366 107.744L44.5854 107.49C44.7362 107.405 44.8852 107.316 45.0408 107.244C45.6545 106.929 46.2839 106.646 46.9264 106.395C47.5713 106.151 48.2275 105.937 48.8904 105.748C49.2241 105.664 49.556 105.566 49.8926 105.492C50.2292 105.419 50.5648 105.338 50.9033 105.275L51.9216 105.087L52.9455 104.926C53.2887 104.888 53.6328 104.853 53.9779 104.826C54.323 104.8 54.669 104.809 55.015 104.809C55.361 104.808 55.7071 104.841 56.0521 104.863C56.3972 104.886 56.7404 104.94 57.0836 104.986C57.4268 105.032 57.7653 105.115 58.1037 105.184C58.4403 105.271 58.775 105.365 59.1032 105.476C59.1149 105.48 59.1245 105.489 59.13 105.5C59.1354 105.511 59.1363 105.524 59.1324 105.535C59.1297 105.544 59.1245 105.552 59.1174 105.557C59.1104 105.563 59.1018 105.566 59.0928 105.567C58.7458 105.592 58.4055 105.591 58.066 105.6C57.7266 105.608 57.3872 105.623 57.0506 105.632C56.714 105.64 56.3765 105.659 56.0408 105.672C55.7052 105.685 55.3705 105.708 55.0358 105.724C54.7011 105.74 54.3673 105.768 54.0326 105.779C53.6979 105.789 53.3641 105.818 53.0285 105.83L52.0234 105.892C51.6887 105.918 51.3549 105.962 51.0212 105.998C50.6874 106.035 50.3612 106.1 50.0236 106.15C49.6861 106.2 49.3637 106.277 49.0318 106.339C48.3718 106.474 47.7165 106.636 47.0697 106.828C45.7615 107.202 44.5013 107.727 43.3144 108.392C43.3093 108.395 43.3037 108.397 43.2978 108.397C43.292 108.398 43.2861 108.398 43.2805 108.396C43.2749 108.394 43.2697 108.391 43.2651 108.388C43.2606 108.384 43.2568 108.379 43.2541 108.374C43.248 108.363 43.2464 108.351 43.2498 108.339C43.2531 108.327 43.2611 108.316 43.272 108.31Z" fill="#C28565"/>
<path d="M43.4603 69.25C44.2809 71.8512 44.6971 74.563 44.6945 77.2905C44.6877 78.6603 44.5765 80.0277 44.3617 81.3805C44.1416 82.7332 43.8364 84.0706 43.448 85.3848C43.0662 86.6981 42.6268 87.9964 42.178 89.2702C41.9537 89.9066 41.7217 90.5364 41.5181 91.1502C41.4191 91.4419 41.3385 91.7395 41.2767 92.0412L41.2541 92.1468L41.2418 92.2411C41.2324 92.2997 41.227 92.3589 41.2258 92.4183C41.2242 92.464 41.2264 92.5097 41.2324 92.555C41.2424 92.602 41.2553 92.6483 41.271 92.6936C41.3593 92.9184 41.4999 93.1188 41.6812 93.2782C41.8991 93.4767 42.1378 93.6512 42.393 93.7986C42.95 94.1149 43.5355 94.3779 44.142 94.584C45.3818 95.0149 46.6933 95.3091 48.0246 95.5768C48.0326 95.5784 48.0403 95.5816 48.0471 95.5861C48.054 95.5907 48.0598 95.5965 48.0644 95.6034C48.069 95.6102 48.0721 95.6179 48.0737 95.626C48.0753 95.634 48.0752 95.6423 48.0736 95.6504C48.0708 95.6639 48.0637 95.6762 48.0533 95.6854C48.0429 95.6946 48.0299 95.7001 48.0161 95.7013C46.6404 95.7963 45.2582 95.7043 43.9072 95.4279C43.2066 95.29 42.525 95.0684 41.8773 94.7679C41.5316 94.6055 41.2058 94.404 40.9062 94.1673C40.7454 94.0353 40.5979 93.8878 40.4659 93.727C40.3954 93.6415 40.3302 93.5517 40.2707 93.4583C40.2106 93.3581 40.1577 93.2538 40.1123 93.1462C40.0663 93.0344 40.0297 92.919 40.0029 92.8011C39.978 92.6807 39.9638 92.5583 39.9605 92.4353C39.9573 92.3261 39.9617 92.2168 39.9737 92.1081C39.9784 92.0563 39.9822 92.0035 39.9878 91.9535L40.0114 91.8111C40.0764 91.4492 40.1678 91.0925 40.2848 90.7438C40.5055 90.0735 40.7647 89.4446 41.024 88.8195C41.5511 87.575 42.0706 86.3446 42.4939 85.0783C42.9242 83.8213 43.2746 82.5384 43.5433 81.2372C44.092 78.6176 44.2461 75.9307 44.0005 73.2656C43.9402 72.5971 43.8478 71.9314 43.7366 71.2686C43.6753 70.9377 43.6244 70.6086 43.5546 70.2758L43.3377 69.2877C43.3351 69.2724 43.3382 69.2567 43.3466 69.2436C43.355 69.2305 43.3679 69.221 43.3829 69.217C43.398 69.2129 43.4139 69.2147 43.4277 69.2219C43.4415 69.229 43.4521 69.2411 43.4575 69.2557L43.4603 69.25Z" fill="#C28565"/>
<path d="M29.1294 82.0026C28.8927 84.157 28.9512 86.3397 29.4462 88.4262C29.6814 89.4677 30.0008 90.4884 30.4012 91.4781C30.796 92.4666 31.2582 93.4267 31.7844 94.3519C32.3143 95.2742 32.8989 96.164 33.5352 97.0164L35.4341 99.5903C36.0668 100.454 36.7107 101.317 37.3358 102.205C37.9609 103.093 38.5803 103.996 39.098 104.968C39.1057 104.983 39.1074 105 39.1027 105.016C39.0979 105.032 39.0871 105.046 39.0725 105.054C39.061 105.06 39.0479 105.062 39.035 105.061C39.0221 105.059 39.0102 105.053 39.0009 105.044C38.2126 104.289 37.4424 103.546 36.6853 102.771C35.9282 101.997 35.1899 101.203 34.4875 100.368C33.7792 99.53 33.1302 98.6434 32.5453 97.715C31.9626 96.7797 31.4261 95.8133 30.9302 94.8252C30.4316 93.8362 30.0019 92.8139 29.6442 91.7657C29.2917 90.7147 29.0259 89.6365 28.8493 88.5422C28.8135 88.2678 28.7683 87.9953 28.74 87.72L28.6655 86.895L28.6334 86.0681C28.624 85.7928 28.6334 85.5175 28.6381 85.2422C28.6429 84.9669 28.6617 84.6935 28.6777 84.4191L28.7051 84.009L28.7522 83.6008L28.8031 83.1934L28.8295 82.9898L28.8654 82.788L29.0096 81.9819C29.0109 81.974 29.0137 81.9663 29.018 81.9595C29.0222 81.9527 29.0279 81.9468 29.0345 81.9422C29.0411 81.9376 29.0486 81.9344 29.0564 81.9328C29.0643 81.9312 29.0725 81.9312 29.0803 81.9329C29.0956 81.9359 29.1091 81.9445 29.1182 81.9571C29.1274 81.9697 29.1313 81.9853 29.1294 82.0008V82.0026Z" fill="#C28565"/>
<path d="M60.6878 124.442C61.8379 124.214 62.9745 123.921 64.0924 123.567C65.2125 123.221 66.3213 122.841 67.4188 122.426C69.6127 121.598 71.7681 120.667 73.8885 119.666C76.0089 118.665 78.102 117.609 80.1574 116.488C81.1851 115.927 82.2037 115.351 83.2131 114.76C84.2226 114.169 85.2164 113.557 86.1944 112.922C87.1702 112.284 88.13 111.624 89.0502 110.926C89.9641 110.247 90.8289 109.504 91.6383 108.704C92.0189 108.315 92.3676 107.897 92.6811 107.453L92.8018 107.288L92.9159 107.116L93.1421 106.771C93.2817 106.532 93.425 106.299 93.5608 106.053C94.1026 105.064 94.5657 104.034 94.9458 102.972C95.3446 101.905 95.6755 100.803 95.9716 99.6843C96.1234 99.1271 96.2545 98.5624 96.3912 97.9976C96.5279 97.4329 96.6467 96.8662 96.7683 96.2911C97.2397 94.0047 97.6055 91.6806 98.0675 89.3593C98.0705 89.3382 98.0816 89.319 98.0984 89.3058C98.1152 89.2926 98.1364 89.2864 98.1577 89.2885C98.1789 89.2905 98.1986 89.3007 98.2125 89.3169C98.2265 89.3331 98.2336 89.354 98.2325 89.3754C98.2448 91.7381 98.175 94.1037 97.9223 96.4693C97.8048 97.6529 97.6326 98.8336 97.4057 100.012C97.2963 100.6 97.1596 101.185 97.0182 101.771C96.8767 102.356 96.7061 102.937 96.5185 103.515C96.3308 104.093 96.114 104.663 95.8849 105.231C95.6439 105.799 95.3736 106.354 95.075 106.893C94.4728 108.001 93.7021 109.008 92.7905 109.879C91.8856 110.692 90.9247 111.44 89.9148 112.118C88.9248 112.794 87.9198 113.432 86.9034 114.048C85.887 114.663 84.8556 115.247 83.8175 115.818C82.7794 116.39 81.7291 116.933 80.6731 117.466C78.5536 118.517 76.4078 119.51 74.2289 120.425C72.05 121.339 69.8381 122.175 67.5922 122.91C65.3464 123.646 63.06 124.275 60.718 124.607C60.6974 124.609 60.677 124.602 60.6608 124.589C60.6446 124.577 60.6338 124.558 60.6305 124.538C60.6272 124.517 60.6316 124.496 60.6429 124.479C60.6542 124.462 60.6716 124.449 60.6916 124.444L60.6878 124.442Z" fill="#C28565"/>
<path d="M35.0485 156.821C35.337 155.297 35.6736 153.781 36.0715 152.278C36.4694 150.775 36.9578 149.297 37.5065 147.838C38.6011 144.922 40.0267 142.113 41.8388 139.548C43.651 136.984 45.8732 134.688 48.4519 132.854C51.041 131.019 53.9217 129.636 56.9723 128.762C58.4915 128.318 60.0404 127.982 61.6073 127.757C63.1719 127.528 64.7491 127.396 66.33 127.361C69.4853 127.31 72.6364 127.612 75.7244 128.263C77.2618 128.59 78.7826 128.975 80.2868 129.419C81.7859 129.877 83.2699 130.372 84.7247 130.945C87.6338 132.067 90.451 133.414 93.1508 134.974C93.17 134.985 93.1841 135.003 93.1899 135.024C93.1957 135.046 93.1928 135.068 93.1819 135.088C93.1717 135.105 93.1558 135.118 93.137 135.124C93.1183 135.131 93.0978 135.13 93.0792 135.123C90.1884 133.992 87.2854 132.944 84.3428 132.049C82.8692 131.609 81.3946 131.187 79.903 130.834C78.4115 130.48 76.9199 130.148 75.4142 129.891C72.4176 129.354 69.3831 129.057 66.3394 129.002C64.8219 128.976 63.3044 129.047 61.7958 129.214C60.2891 129.383 58.7963 129.658 57.3287 130.039C54.3899 130.804 51.6018 132.061 49.0826 133.757C46.5577 135.443 44.3506 137.599 42.5083 140.036C40.666 142.472 39.1621 145.182 37.9826 148.025C37.3905 149.447 36.8691 150.9 36.409 152.374C35.9489 153.847 35.5605 155.344 35.2116 156.852C35.2067 156.872 35.1942 156.89 35.1767 156.902C35.1592 156.913 35.138 156.918 35.1174 156.914C35.0961 156.911 35.077 156.899 35.0642 156.881C35.0514 156.864 35.0458 156.842 35.0485 156.821Z" fill="#C28565"/>
<path d="M106.225 116.884C106.122 117.297 106.161 117.733 106.217 118.163C106.281 118.593 106.372 119.019 106.489 119.438C106.72 120.28 107.015 121.109 107.328 121.931C107.953 123.577 108.648 125.199 109.364 126.818C110.789 130.055 112.262 133.277 113.674 136.529C115.085 139.781 116.438 143.054 117.699 146.363C118.961 149.672 120.117 153.02 121.143 156.409C122.168 159.798 123.092 163.217 123.844 166.679C124.594 170.145 125.089 173.66 125.326 177.198C125.565 180.74 125.508 184.296 125.154 187.828C124.966 189.594 124.711 191.353 124.356 193.096C123.996 194.838 123.541 196.56 122.993 198.253C122.985 198.274 122.969 198.292 122.949 198.302C122.928 198.313 122.904 198.315 122.882 198.31C122.862 198.305 122.844 198.292 122.832 198.275C122.821 198.257 122.816 198.236 122.82 198.215C123.113 196.475 123.37 194.737 123.551 192.995L123.677 191.688C123.717 191.252 123.74 190.816 123.771 190.381C123.802 189.947 123.827 189.509 123.848 189.074C123.868 188.638 123.898 188.203 123.903 187.767C123.958 186.024 123.953 184.283 123.889 182.543C123.867 182.108 123.866 181.673 123.837 181.24L123.766 179.937C123.7 179.069 123.641 178.202 123.549 177.336C123.511 176.902 123.472 176.47 123.421 176.038C123.371 175.606 123.327 175.172 123.274 174.741C123.222 174.309 123.169 173.877 123.115 173.445C123.061 173.013 122.996 172.583 122.937 172.152C122.877 171.722 122.814 171.29 122.748 170.86C122.682 170.43 122.622 169.998 122.547 169.568L122.336 168.278L122.107 166.99C121.797 165.273 121.448 163.562 121.06 161.857C120.665 160.153 120.229 158.457 119.764 156.765C118.821 153.387 117.742 150.044 116.576 146.724C115.409 143.404 114.152 140.109 112.841 136.832C111.53 133.555 110.173 130.29 108.85 127.008C108.19 125.366 107.542 123.719 106.964 122.045C106.681 121.207 106.415 120.362 106.21 119.5C106.107 119.068 106.031 118.63 105.982 118.188C105.941 117.746 105.917 117.293 106.044 116.845C106.052 116.823 106.067 116.806 106.087 116.795C106.107 116.784 106.13 116.781 106.153 116.785C106.173 116.789 106.192 116.802 106.204 116.819C106.216 116.837 106.22 116.859 106.217 116.88L106.225 116.884Z" fill="#C28565"/>
<path d="M54.503 74.2532C55.4242 74.224 56.3132 74.2532 57.2071 74.2353C58.1009 74.2174 58.9852 74.1807 59.8649 74.1005C60.7446 74.0204 61.6167 73.9195 62.4775 73.7705C63.3383 73.6215 64.1916 73.4575 65.0298 73.2406C65.8613 73.0151 66.676 72.7315 67.4679 72.3921C68.2618 72.0706 69.0491 71.7689 69.858 71.5002C70.667 71.2315 71.4807 70.9514 72.3151 70.6723C73.1495 70.3933 73.9924 70.0906 74.9314 69.8606C74.9653 69.8519 75.0012 69.857 75.0314 69.8746C75.0616 69.8923 75.0836 69.9211 75.0927 69.9549C75.0971 69.9722 75.0978 69.9903 75.0949 70.008C75.092 70.0257 75.0854 70.0426 75.0757 70.0576C74.9475 70.2622 74.8098 70.4593 74.6646 70.6497C74.5939 70.744 74.5185 70.8383 74.4449 70.9326L74.2092 71.1994C74.0489 71.3738 73.8868 71.5492 73.718 71.7161C73.5492 71.883 73.371 72.0366 73.1919 72.1931C72.4716 72.8098 71.6837 73.3428 70.8433 73.7818L70.5284 73.9449C70.4218 73.9977 70.3125 74.0392 70.205 74.092C69.9881 74.1863 69.7713 74.2806 69.545 74.3588C69.3187 74.4371 69.0962 74.5078 68.8699 74.5757C68.6437 74.6436 68.4117 74.6926 68.1817 74.7463C67.2567 74.9425 66.3233 75.0688 65.4003 75.1951C64.4773 75.3215 63.5486 75.3837 62.6246 75.4176C61.7006 75.4516 60.7776 75.4082 59.8621 75.3422C58.9466 75.2762 58.0396 75.1612 57.1429 75.0103C56.6942 74.9349 56.2482 74.851 55.8051 74.7633C55.3619 74.6756 54.9207 74.5748 54.4851 74.4993H54.4785C54.4623 74.4967 54.4468 74.4909 54.4329 74.4823C54.419 74.4736 54.4069 74.4623 54.3973 74.449C54.3878 74.4357 54.381 74.4206 54.3773 74.4047C54.3735 74.3887 54.373 74.3722 54.3757 74.356C54.3806 74.3262 54.3962 74.2992 54.4197 74.2803C54.4432 74.2613 54.4729 74.2517 54.503 74.2532Z" fill="#C28565"/>
<path d="M26.3461 76.1026C26.9415 76.4045 27.5616 76.6549 28.1997 76.8512C28.7941 77.0279 29.3995 77.1659 30.0118 77.2641C30.6218 77.3584 31.2328 77.4602 31.8607 77.5677C32.497 77.6868 33.1425 77.7499 33.7897 77.7563C34.4477 77.7566 35.105 77.7178 35.7584 77.6403C36.4194 77.5723 37.0758 77.4652 37.7242 77.3198C38.378 77.1814 39.0216 76.9983 39.6504 76.772C39.8069 76.7135 39.9641 76.6532 40.1218 76.591C40.2727 76.5221 40.4311 76.4608 40.5791 76.3845C40.8837 76.2423 41.1768 76.0768 41.4559 75.8895C41.4665 75.882 41.4784 75.8768 41.491 75.8741C41.5036 75.8714 41.5166 75.8714 41.5293 75.874C41.5419 75.8765 41.5539 75.8816 41.5645 75.889C41.5751 75.8964 41.584 75.9059 41.5908 75.9168C41.6035 75.935 41.6094 75.957 41.6075 75.9791C41.6056 76.0011 41.596 76.0218 41.5804 76.0375C41.0848 76.5394 40.5234 76.9717 39.9116 77.3226C39.3013 77.6767 38.6661 77.9859 38.0108 78.2475C37.3518 78.5061 36.6785 78.7265 35.9941 78.9075C35.3016 79.0803 34.5996 79.2122 33.8916 79.3026C33.1725 79.4017 32.4486 79.4622 31.7231 79.4836C30.9759 79.4966 30.2322 79.3808 29.5244 79.1413C28.7982 78.8978 28.1215 78.5261 27.5265 78.0439C26.9391 77.5564 26.4451 76.9408 26.198 76.2299C26.191 76.2102 26.19 76.189 26.1952 76.1688C26.2004 76.1486 26.2116 76.1305 26.2272 76.1167C26.2429 76.103 26.2624 76.0943 26.2831 76.0918C26.3037 76.0892 26.3247 76.093 26.3432 76.1026H26.3461Z" fill="#C28565"/>
<path d="M36.064 19.1391C36.7476 21.8149 37.615 24.4473 38.7662 26.9515C39.9174 29.4556 41.3392 31.8307 43.1032 33.9351C44.8642 36.0405 46.9127 37.8877 49.1883 39.4224C51.4511 40.9705 53.9025 42.2386 56.4104 43.3597C58.9184 44.4807 61.5017 45.465 64.0936 46.4201C66.6854 47.3752 69.2962 48.3058 71.8918 49.2788C74.4874 50.2518 77.0708 51.2776 79.623 52.3901C80.8987 52.9483 82.1583 53.5215 83.4189 54.1325C84.6795 54.7435 85.9108 55.4223 87.1101 56.1521C91.9309 59.0811 96.1589 62.8891 99.5744 67.3784C103.004 71.8782 105.519 77.006 106.978 82.4723C107.704 85.1996 108.152 87.9938 108.313 90.8117C108.386 92.2208 108.379 93.6329 108.293 95.0412C108.209 96.4503 108.03 97.852 107.756 99.2368C107.485 100.623 107.107 101.986 106.625 103.314C106.142 104.641 105.538 105.92 104.818 107.136C104.096 108.347 103.236 109.47 102.257 110.484C101.765 110.985 101.242 111.455 100.691 111.89C100.138 112.316 99.5569 112.706 98.9521 113.055C98.9337 113.065 98.9124 113.067 98.8923 113.062C98.8723 113.056 98.855 113.043 98.8439 113.026C98.8328 113.008 98.8286 112.987 98.8322 112.967C98.8359 112.946 98.847 112.928 98.8635 112.916C101.126 111.337 102.902 109.172 104.143 106.761C104.77 105.556 105.285 104.296 105.679 102.997C106.079 101.701 106.381 100.378 106.583 99.037C106.784 97.6939 106.904 96.3401 106.944 94.9828C106.981 93.6258 106.941 92.2678 106.825 90.9154C106.602 88.2076 106.112 85.5285 105.362 82.9173C103.871 77.6828 101.472 72.7511 98.2733 68.3476C95.0625 63.9312 91.0373 60.1691 86.4143 57.2637C85.2603 56.5358 84.0738 55.8629 82.8551 55.245C81.6294 54.6313 80.3848 54.0392 79.1328 53.4697C76.6267 52.3289 74.0763 51.2766 71.5062 50.264C68.936 49.2514 66.3441 48.2897 63.7579 47.2951C61.1717 46.3004 58.5903 45.2736 56.0672 44.096C53.5442 42.9184 51.0853 41.5805 48.8074 39.9598C46.5168 38.3521 44.4637 36.4303 42.7082 34.2509C40.9545 32.0758 39.5534 29.6386 38.4447 27.091C37.3359 24.5435 36.5251 21.8743 35.899 19.1712C35.8949 19.1502 35.8991 19.1284 35.9106 19.1104C35.9222 19.0924 35.9403 19.0795 35.9611 19.0746C35.9819 19.0696 36.0038 19.0728 36.0223 19.0836C36.0408 19.0944 36.0544 19.1119 36.0602 19.1325L36.064 19.1391Z" fill="#C28565"/>
<path d="M109.717 66.1999C112.97 70.6897 115.292 75.9451 116.257 81.5031C116.737 84.2853 116.849 87.1187 116.59 89.9302C116.315 92.7324 115.719 95.4938 114.814 98.1602C113.006 103.479 110.034 108.327 106.116 112.352C104.17 114.352 101.985 116.106 99.61 117.572C97.2416 119.028 94.6535 120.158 91.9335 120.723C91.9245 120.725 91.9153 120.725 91.9063 120.724C91.8974 120.722 91.8888 120.718 91.8812 120.713C91.8736 120.708 91.867 120.702 91.8619 120.694C91.8568 120.687 91.8532 120.678 91.8514 120.669C91.848 120.652 91.8513 120.634 91.8608 120.619C91.8702 120.604 91.8851 120.593 91.9023 120.588C93.2383 120.256 94.5394 119.796 95.7878 119.216C97.0361 118.642 98.2383 117.973 99.3837 117.215C101.672 115.698 103.765 113.906 105.615 111.878C109.342 107.855 112.125 103.053 113.762 97.8189C114.163 96.5188 114.488 95.1966 114.735 93.859C114.979 92.5239 115.142 91.1754 115.224 89.8208C115.388 87.1137 115.276 84.3969 114.891 81.7124C114.839 81.3768 114.796 81.0402 114.738 80.7064L114.558 79.7042L114.346 78.7076C114.275 78.3757 114.183 78.0476 114.109 77.7157C113.786 76.3958 113.382 75.0918 112.939 73.7982C112.479 72.511 111.971 71.2391 111.413 69.9826C110.855 68.7267 110.233 67.4982 109.601 66.2659C109.592 66.2503 109.589 66.2315 109.593 66.2138C109.598 66.196 109.609 66.1807 109.624 66.1712C109.64 66.1617 109.659 66.1588 109.677 66.1631C109.694 66.1674 109.71 66.1786 109.719 66.1943L109.717 66.1999Z" fill="#C28565"/>
<path d="M30.8924 26.7833L30.2126 27.6036C29.9911 27.8864 29.7827 28.1693 29.5668 28.4521C29.1491 29.0272 28.7447 29.6118 28.3722 30.219C27.6216 31.4317 26.9578 32.6961 26.3857 34.0026C25.8054 35.3075 25.3082 36.6477 24.8969 38.0153C24.4806 39.3833 24.1416 40.7737 23.8815 42.1798C23.6251 43.5875 23.4535 45.0094 23.3677 46.4377C23.2753 47.8632 23.2275 49.2888 23.2243 50.7144C23.2205 52.1429 23.2907 53.5707 23.4346 54.992C23.5876 56.4233 23.8457 57.8414 24.2068 59.2348C24.2115 59.251 24.2095 59.2685 24.2014 59.2833C24.1933 59.2981 24.1796 59.3092 24.1634 59.314C24.1499 59.3179 24.1353 59.3169 24.1224 59.3112C24.1095 59.3055 24.099 59.2955 24.0927 59.2829C23.3884 57.9987 22.9047 56.5807 22.571 55.1344C22.2448 53.6863 22.0467 52.2123 21.9789 50.7294C21.9081 49.2504 21.962 47.7681 22.1401 46.2981C22.3226 44.837 22.5784 43.3861 22.9066 41.9507C23.2277 40.5207 23.63 39.1101 24.1116 37.7258C24.5989 36.3515 25.1727 35.0094 25.8294 33.7075C26.4834 32.4171 27.2283 31.1748 28.0583 29.9899C28.4693 29.3987 28.9068 28.8311 29.365 28.2777C29.6007 28.008 29.8289 27.7327 30.0693 27.4687L30.8048 26.6928C30.8105 26.6868 30.8174 26.682 30.825 26.6788C30.8326 26.6755 30.8408 26.6738 30.8491 26.6738C30.8573 26.6738 30.8655 26.6755 30.8732 26.6788C30.8808 26.682 30.8877 26.6868 30.8934 26.6928C30.9041 26.7049 30.91 26.7205 30.91 26.7366C30.91 26.7528 30.9041 26.7684 30.8934 26.7805L30.8924 26.7833Z" fill="#C28565"/>
<path d="M22.6596 33.9072C21.6803 35.8074 20.7884 37.7465 19.9839 39.7245C19.1793 41.7026 18.4631 43.7105 17.8351 45.7483C16.5856 49.8236 15.7167 54.006 15.2395 58.2418C14.2591 66.7062 14.8378 75.2786 16.947 83.5343C17.4769 85.5878 18.1023 87.6124 18.8232 89.6081C19.5442 91.6038 20.3638 93.5548 21.2821 95.4612C23.1 99.2802 25.2757 102.918 27.7802 106.326C30.2818 109.741 33.1599 112.863 36.36 115.633C39.583 118.413 43.1283 120.795 46.9197 122.728C46.9342 122.737 46.945 122.751 46.9501 122.767C46.9551 122.783 46.9541 122.801 46.9471 122.816C46.9402 122.832 46.9278 122.844 46.9124 122.851C46.8969 122.858 46.8794 122.859 46.8632 122.854C42.8778 121.269 39.1319 119.054 35.7377 116.385C34.0412 115.048 32.4323 113.603 30.9208 112.06C29.4094 110.511 27.9908 108.874 26.6723 107.157C24.0449 103.716 21.8195 99.9865 20.0395 96.0401C19.1495 94.0702 18.3581 92.062 17.6654 90.0154C16.9728 87.9688 16.3756 85.8977 15.874 83.8021C13.8713 75.4061 13.4239 66.7142 14.5541 58.157C15.6948 49.6299 18.4019 41.3871 22.5389 33.8441C22.5476 33.8279 22.5623 33.8159 22.5798 33.8106C22.5973 33.8053 22.6162 33.8071 22.6323 33.8158C22.6484 33.8244 22.6605 33.8391 22.6658 33.8566C22.6711 33.8741 22.6692 33.893 22.6606 33.9091L22.6596 33.9072Z" fill="#C28565"/>
<path d="M77.3781 59.8284L77.0009 59.5333C76.8746 59.439 76.7549 59.3325 76.6238 59.2401L76.2363 58.9639C76.1081 58.8696 75.9799 58.7753 75.845 58.697C75.5782 58.5273 75.3199 58.3491 75.0436 58.2002L74.6363 57.9682L74.2177 57.7599C73.9424 57.6147 73.652 57.5025 73.3691 57.378C73.2296 57.3129 73.0863 57.2668 72.9383 57.213C72.7902 57.1593 72.6498 57.1074 72.5046 57.0584C71.9238 56.8739 71.3296 56.7345 70.7273 56.6417C70.1317 56.5457 69.5298 56.4937 68.9265 56.4861L68.4749 56.4946C68.324 56.4946 68.1741 56.4946 68.0242 56.5106C67.7234 56.5361 67.4236 56.5474 67.1247 56.5945L66.6769 56.6501C66.5279 56.6728 66.3799 56.7029 66.2309 56.7284C66.082 56.7538 65.9349 56.7774 65.7869 56.8104L65.3447 56.9122C64.7554 57.0461 64.1727 57.2196 63.5957 57.4119C62.4388 57.7957 61.3329 58.3463 60.2524 58.929C59.9799 59.0676 59.7112 59.2194 59.4387 59.3636C59.302 59.4343 59.1672 59.5088 59.0296 59.5767C58.8919 59.6446 58.759 59.7247 58.6213 59.7936C58.0716 60.0764 57.5201 60.3593 56.9572 60.6232C55.8343 61.1644 54.7019 61.7169 53.5385 62.2468C52.375 62.7767 51.1965 63.3113 49.918 63.7355C49.8878 63.7454 49.8552 63.7455 49.825 63.7358C49.7947 63.7261 49.7683 63.7071 49.7495 63.6815C49.7307 63.6559 49.7204 63.625 49.7202 63.5932C49.72 63.5615 49.7298 63.5304 49.7483 63.5046C49.9444 63.2305 50.1487 62.9653 50.3611 62.7088C50.4658 62.5787 50.5733 62.4523 50.6817 62.326L51.0145 61.9583C51.2398 61.716 51.4661 61.4737 51.7009 61.2417C51.9357 61.0098 52.1723 60.7845 52.4165 60.5601C53.393 59.6706 54.437 58.8583 55.5392 58.1304C56.6534 57.399 57.848 56.7979 59.0993 56.339C60.3676 55.885 61.6619 55.5072 62.9753 55.2076C63.6353 55.0567 64.2953 54.9247 64.9732 54.8408L65.4795 54.7786C65.6483 54.7597 65.8189 54.7522 65.9886 54.7381C66.1583 54.7239 66.328 54.7126 66.4987 54.7051L67.0107 54.6956C67.351 54.6834 67.6942 54.7088 68.0346 54.7211C68.2043 54.7211 68.3749 54.7466 68.5447 54.7626L69.0538 54.8163C69.7293 54.9115 70.3971 55.0558 71.0517 55.2481C71.2138 55.3 71.3779 55.3424 71.5372 55.4009L72.0143 55.5781C72.0925 55.6083 72.1727 55.6366 72.2509 55.6724L72.4819 55.7752L72.9439 55.9817C73.0948 56.0561 73.2419 56.1363 73.3908 56.2136C73.5398 56.2909 73.6897 56.3654 73.8311 56.4559C74.114 56.6294 74.4053 56.7953 74.6731 56.9933L75.0804 57.2762L75.4698 57.5835C75.7328 57.7825 75.9742 58.0069 76.2241 58.2237C76.3485 58.3303 76.4645 58.4462 76.5795 58.5622L76.9265 58.9082C77.1518 59.143 77.3658 59.3891 77.5864 59.6286C77.6118 59.655 77.6261 59.6901 77.6264 59.7268C77.6266 59.7634 77.6129 59.7987 77.5879 59.8255C77.5629 59.8523 77.5286 59.8685 77.492 59.8708C77.4555 59.8731 77.4194 59.8613 77.3913 59.8379L77.3781 59.8284Z" fill="#C28565"/>
<path d="M23.8903 63.8054C24.4079 63.2661 25.0302 62.6645 25.6901 62.3251C26.3541 62.0106 27.0571 61.7861 27.7804 61.6576C28.5128 61.5266 29.2524 61.4394 29.9951 61.3964C30.7426 61.3425 31.4928 61.3372 32.241 61.3804L32.801 61.4162C32.8953 61.4228 32.9896 61.4247 33.0839 61.4294L33.3667 61.4511L33.9324 61.4907L34.4925 61.5539C34.8632 61.5994 35.23 61.6725 35.5899 61.7726C35.9458 61.8774 36.2944 62.0053 36.6336 62.1554C36.9665 62.3157 37.2936 62.4826 37.6161 62.6702C37.7745 62.7664 37.9316 62.8663 38.0875 62.97C38.2412 63.0728 38.3949 63.1756 38.5419 63.2906C38.8378 63.519 39.121 63.7633 39.3905 64.0222C39.6656 64.2939 39.9179 64.5878 40.1448 64.901C40.1562 64.9174 40.1642 64.9359 40.1684 64.9554C40.1726 64.975 40.1728 64.9952 40.1691 65.0148C40.1655 65.0345 40.1579 65.0532 40.1469 65.0699C40.1359 65.0866 40.1217 65.101 40.1052 65.1121C40.0823 65.1271 40.056 65.1362 40.0288 65.1385C39.6452 65.1614 39.2605 65.1567 38.8776 65.1244C38.5071 65.1008 38.1478 65.0669 37.798 65.0179C37.4482 64.9688 37.1003 64.9236 36.7609 64.8623C36.4215 64.801 36.0868 64.7444 35.7596 64.6681C35.4326 64.6039 35.1091 64.523 34.7904 64.4258C34.4717 64.339 34.1625 64.2146 33.8476 64.1052L33.3761 63.9251L32.9047 63.7601C32.5896 63.6512 32.2689 63.5593 31.944 63.4848C30.6485 63.2086 29.3229 63.0341 27.9841 63.0756C27.3114 63.0936 26.6418 63.1747 25.9843 63.3179C25.6521 63.3904 25.3247 63.4829 25.0038 63.5951C24.6817 63.7031 24.3699 63.8398 24.0722 64.0034L24.059 64.0109C24.0435 64.0203 24.0263 64.0264 24.0084 64.0291C23.9905 64.0317 23.9722 64.0308 23.9547 64.0263C23.9372 64.0218 23.9207 64.0139 23.9062 64.003C23.8918 63.9921 23.8796 63.9785 23.8705 63.9628C23.8562 63.938 23.8505 63.9092 23.8541 63.8808C23.8576 63.8524 23.8703 63.8259 23.8903 63.8054Z" fill="#C28565"/>
<path d="M114.4 184.948C115.505 186.029 113.701 187.611 112.626 186.591C111.439 185.474 113.325 183.892 114.4 184.948Z" fill="#C28565"/>
<path d="M96.7308 208.719C97.5445 208.046 98.6495 209.197 97.801 209.924C96.9929 210.628 95.8521 209.439 96.7308 208.719Z" fill="#C28565"/>
<path d="M33.1395 129.517C32.5511 130.218 31.3179 129.284 31.8846 128.53C32.1891 128.126 32.6775 128.207 33.0405 128.442C33.4921 128.734 33.4035 129.094 33.1395 129.517Z" fill="#C28565"/>
</g>
</svg>
