<svg width="50" height="50" viewBox="0 0 50 50" fill="none" xmlns="http://www.w3.org/2000/svg">
<g clip-path="url(#clip0_799_1964)">
<path d="M36.7188 33.5938C35.4677 33.5947 34.2351 33.8965 33.1251 34.4737C32.015 35.0509 31.06 35.8865 30.3407 36.9102C30.076 35.4103 29.3778 34.0208 28.3323 32.9133C27.2869 31.8058 25.9399 31.0288 24.4578 30.6782C22.9757 30.3276 21.4233 30.4188 19.9924 30.9405C18.5616 31.4623 17.3149 32.3917 16.4063 33.6141V21.2055C16.4095 20.0763 16.1887 18.9578 15.7566 17.9146C15.3245 16.8714 14.6898 15.9243 13.8891 15.1281L13.2813 14.5203V12.5C13.2813 11.8784 13.0344 11.2823 12.5948 10.8427C12.1553 10.4032 11.5591 10.1563 10.9375 10.1563H6.25003C5.62843 10.1563 5.03229 10.4032 4.59275 10.8427C4.15322 11.2823 3.90629 11.8784 3.90629 12.5V14.5203L3.29847 15.1281C2.49779 15.9243 1.86303 16.8714 1.43095 17.9146C0.998866 18.9578 0.778048 20.0763 0.781285 21.2055V48.4375C0.781285 48.6447 0.863595 48.8434 1.01011 48.9899C1.15662 49.1364 1.35533 49.2188 1.56254 49.2188H43.75C43.9572 49.2188 44.156 49.1364 44.3025 48.9899C44.449 48.8434 44.5313 48.6447 44.5313 48.4375V41.4062C44.529 39.3349 43.7052 37.3491 42.2405 35.8845C40.7759 34.4199 38.7901 33.596 36.7188 33.5938ZM11.7188 12.5V15.9992C10.6153 16.7465 9.69485 17.7333 9.02593 18.886C8.35701 20.0386 7.95692 21.3274 7.8555 22.6562H7.81253C7.19093 22.6562 6.59479 22.4093 6.15525 21.9698C5.71572 21.5302 5.46878 20.9341 5.46878 20.3125V18.3758C6.57222 17.6285 7.49272 16.6417 8.16164 15.489C8.83056 14.3364 9.23065 13.0476 9.33207 11.7188H10.9375C11.1447 11.7188 11.3434 11.8011 11.49 11.9476C11.6365 12.0941 11.7188 12.2928 11.7188 12.5ZM11.7188 17.9844V20.3125C11.7177 20.9259 11.4761 21.5144 11.0459 21.9518C10.6158 22.3891 10.0313 22.6403 9.418 22.6516C9.58539 20.866 10.4044 19.2045 11.7188 17.9844ZM6.25003 11.7188H7.76957C7.60323 13.506 6.78411 15.1692 5.46878 16.3906V12.5C5.46878 12.2928 5.5511 12.0941 5.69761 11.9476C5.84412 11.8011 6.04283 11.7188 6.25003 11.7188ZM2.34379 21.2055C2.33972 19.5967 2.8917 18.036 3.90629 16.7875V20.3125C3.90753 21.3481 4.31947 22.341 5.05177 23.0733C5.78406 23.8056 6.77691 24.2175 7.81253 24.2188H9.37504C10.4107 24.2175 11.4035 23.8056 12.1358 23.0733C12.8681 22.341 13.28 21.3481 13.2813 20.3125V16.7875C14.2959 18.036 14.8478 19.5967 14.8438 21.2055V47.6562H2.34379V21.2055ZM16.4063 38.2812C16.4063 36.6236 17.0648 35.0339 18.2369 33.8618C19.409 32.6897 20.9987 32.0312 22.6563 32.0312C24.3139 32.0312 25.9036 32.6897 27.0757 33.8618C28.2478 35.0339 28.9063 36.6236 28.9063 38.2812V47.6562H16.4063V38.2812ZM42.9688 47.6562H30.4688V41.4062C30.4688 39.7486 31.1273 38.1589 32.2994 36.9868C33.4715 35.8147 35.0612 35.1562 36.7188 35.1562C38.3764 35.1562 39.9661 35.8147 41.1382 36.9868C42.3103 38.1589 42.9688 39.7486 42.9688 41.4062V47.6562Z" fill="white"/>
<path d="M3.90625 27.3438H13.2812V28.9062H3.90625V27.3438Z" fill="white"/>
<path d="M3.90625 30.4688H13.2812V32.0312H3.90625V30.4688Z" fill="white"/>
<path d="M17.9688 36.7188H27.3438V38.2812H17.9688V36.7188Z" fill="white"/>
<path d="M17.9688 39.8438H27.3438V41.4062H17.9688V39.8438Z" fill="white"/>
<path d="M32.0312 39.8438H41.4062V41.4062H32.0312V39.8438Z" fill="white"/>
<path d="M32.0312 42.9688H41.4062V44.5312H32.0312V42.9688Z" fill="white"/>
<path d="M43.4656 0.781271C42.7098 0.779201 41.9611 0.927076 41.2628 1.21633C40.5645 1.50559 39.9306 1.93049 39.3976 2.46643L31.4789 10.3852L30.2398 11.6242C29.8004 12.0638 29.5536 12.6598 29.5536 13.2813C29.5536 13.9027 29.8004 14.4988 30.2398 14.9383L30.9265 15.625L25.2836 21.268L20.6601 24.35C20.564 24.4142 20.4833 24.4988 20.4238 24.5979C20.3644 24.697 20.3276 24.8081 20.3163 24.9231C20.3049 25.0381 20.3192 25.1542 20.3581 25.263C20.3971 25.3718 20.4596 25.4707 20.5414 25.5524L24.4476 29.4586C24.5941 29.6051 24.7928 29.6875 25 29.6875C25.0258 29.6875 25.0507 29.6875 25.0781 29.6836C25.193 29.6722 25.304 29.6355 25.403 29.576C25.502 29.5166 25.5866 29.4359 25.6508 29.3399L28.7328 24.7164L34.375 19.0735L35.0609 19.7602C35.2785 19.9779 35.5369 20.1505 35.8213 20.2683C36.1057 20.3862 36.4105 20.4468 36.7183 20.4468C37.0261 20.4468 37.331 20.3862 37.6153 20.2683C37.8997 20.1505 38.1581 19.9779 38.3757 19.7602L39.6148 18.5211L47.5336 10.6024C48.3381 9.79778 48.886 8.77269 49.108 7.65672C49.3299 6.54075 49.216 5.38402 48.7806 4.3328C48.3452 3.28158 47.6078 2.38308 46.6617 1.75091C45.7157 1.11875 44.6034 0.781313 43.4656 0.781271ZM24.8789 27.6805L22.3203 25.1211L25.6797 22.8805L27.1172 24.318L24.8789 27.6805ZM28.125 23.1141L26.8859 21.875L32.0312 16.7297L33.2703 17.9688L28.125 23.1141ZM36.1664 18.6555L31.3453 13.8336C31.1988 13.6871 31.1165 13.4884 31.1165 13.2813C31.1165 13.0741 31.1988 12.8754 31.3453 12.7289L32.0312 12.0422L37.9578 17.9688L37.2711 18.6555C37.1225 18.7981 36.9246 18.8777 36.7187 18.8777C36.5128 18.8777 36.3149 18.7981 36.1664 18.6555ZM39.0625 16.8641L33.1359 10.9375L39.0625 5.01096L44.989 10.9375L39.0625 16.8641ZM46.4289 9.49768L46.0937 9.83283L40.1672 3.90627L40.5023 3.57112C41.2882 2.7852 42.3542 2.34368 43.4656 2.34368C44.577 2.34368 45.643 2.7852 46.4289 3.57112C47.2148 4.35703 47.6563 5.42295 47.6563 6.5344C47.6563 7.64584 47.2148 8.71177 46.4289 9.49768Z" fill="white"/>
<path d="M12.5 7.03125C13.5356 7.03249 14.5285 7.44444 15.2608 8.17673C15.9931 8.90903 16.405 9.90188 16.4062 10.9375C16.4062 11.1447 16.4886 11.3434 16.6351 11.4899C16.7816 11.6364 16.9803 11.7188 17.1875 11.7188C17.3947 11.7188 17.5934 11.6364 17.7399 11.4899C17.8864 11.3434 17.9688 11.1447 17.9688 10.9375C17.97 9.90188 18.3819 8.90903 19.1142 8.17673C19.8465 7.44444 20.8394 7.03249 21.875 7.03125C22.0822 7.03125 22.2809 6.94894 22.4274 6.80243C22.5739 6.65591 22.6562 6.4572 22.6562 6.25C22.6562 6.0428 22.5739 5.84409 22.4274 5.69757C22.2809 5.55106 22.0822 5.46875 21.875 5.46875C20.8394 5.46751 19.8465 5.05556 19.1142 4.32327C18.3819 3.59097 17.97 2.59812 17.9688 1.5625C17.9688 1.3553 17.8864 1.15659 17.7399 1.01007C17.5934 0.86356 17.3947 0.78125 17.1875 0.78125C16.9803 0.78125 16.7816 0.86356 16.6351 1.01007C16.4886 1.15659 16.4062 1.3553 16.4062 1.5625C16.405 2.59812 15.9931 3.59097 15.2608 4.32327C14.5285 5.05556 13.5356 5.46751 12.5 5.46875C12.2928 5.46875 12.0941 5.55106 11.9476 5.69757C11.8011 5.84409 11.7188 6.0428 11.7188 6.25C11.7188 6.4572 11.8011 6.65591 11.9476 6.80243C12.0941 6.94894 12.2928 7.03125 12.5 7.03125ZM17.1875 4.375C17.6509 5.14305 18.2944 5.78662 19.0625 6.25C18.2944 6.71338 17.6509 7.35695 17.1875 8.125C16.7241 7.35695 16.0806 6.71338 15.3125 6.25C16.0806 5.78662 16.7241 5.14305 17.1875 4.375Z" fill="white"/>
<path d="M3.125 8.59375H4.6875V7.03125H6.25V5.46875H4.6875V3.90625H3.125V5.46875H1.5625V7.03125H3.125V8.59375Z" fill="white"/>
<path d="M21.0938 18.75V17.1875H22.6562V15.625H21.0938V14.0625H19.5312V15.625H17.9688V17.1875H19.5312V18.75H21.0938Z" fill="white"/>
</g>
<defs>
<clipPath id="clip0_799_1964">
<rect width="50" height="50" fill="white"/>
</clipPath>
</defs>
</svg>
