<svg width="50" height="50" viewBox="0 0 50 50" fill="none" xmlns="http://www.w3.org/2000/svg">
<path d="M19.947 25.0656C19.7303 24.7238 19.2775 24.6227 18.9357 24.8394C15.4617 27.0423 13.1442 24.1844 13.0428 24.0554C12.7944 23.7373 12.3355 23.6797 12.0162 23.9269C11.6966 24.1748 11.6382 24.6349 11.8858 24.9549C11.9186 24.9969 12.6983 25.991 14.0453 26.6223C14.6526 26.9069 15.4323 27.1438 16.3455 27.1438C17.3316 27.1438 18.4734 26.8676 19.7204 26.0768C20.0622 25.8602 20.1636 25.4074 19.947 25.0656Z" fill="white"/>
<path d="M33.1879 24.9551C33.4347 24.6362 33.3767 24.1788 33.0589 23.9305C32.7408 23.6817 32.2811 23.7386 32.0312 24.0552C31.9344 24.1784 29.615 27.0448 26.1379 24.8395C25.7961 24.6228 25.3437 24.7239 25.1267 25.0657C24.91 25.4075 25.0115 25.8603 25.3529 26.077C26.6007 26.8682 27.7416 27.1443 28.7281 27.1443C29.641 27.1443 30.4211 26.9071 31.0284 26.6225C32.3753 25.9912 33.1554 24.9971 33.1879 24.9551Z" fill="white"/>
<path d="M26.1505 37.1323H18.9224C17.9779 37.1323 17.5644 38.3278 18.3017 38.9149C20.9884 41.0531 24.0802 41.0565 26.7711 38.9149C27.5108 38.3271 27.0935 37.1323 26.1505 37.1323ZM20.5391 38.5975H24.5342C23.2223 39.2026 21.8505 39.2026 20.5391 38.5975Z" fill="white"/>
<path d="M22.537 34.0779C23.9843 34.0779 25.1619 32.9003 25.1619 31.453C25.1619 31.0483 24.8342 30.7202 24.4295 30.7202C24.0247 30.7202 23.6967 31.0483 23.6967 31.453C23.6967 32.0924 23.1767 32.6127 22.537 32.6127C21.8977 32.6127 21.3773 32.0924 21.3773 31.453C21.3773 31.0483 21.0496 30.7202 20.6449 30.7202C20.2402 30.7202 19.9121 31.0483 19.9121 31.453C19.9121 32.9003 21.0897 34.0779 22.537 34.0779Z" fill="white"/>
<path d="M42.1307 40.0526C42.5355 40.0526 42.8632 39.7245 42.8632 39.3198V37.039H45.5022C46.2468 37.039 46.8522 36.4332 46.8522 35.689V34.5167C46.8522 33.7721 46.2468 33.1667 45.5022 33.1667H44.0552C44.0552 32.4484 44.0552 16.6216 44.0552 15.9064C44.0552 14.3843 43.0264 13.0988 41.6276 12.707V12.0692C41.6276 11.2727 41.1088 10.5964 40.392 10.3564V4.27161C40.392 3.86687 40.0639 3.5388 39.6592 3.5388C39.2545 3.5388 38.9268 3.86687 38.9268 4.27161V9.08917C37.6649 7.11927 36.0501 5.31721 34.1058 3.71695C31.2574 1.37244 27.9481 0.121991 24.27 0.000302095C23.8641 -0.0111419 23.5269 0.303951 23.5136 0.708308C23.5002 1.11266 23.8172 1.45141 24.2216 1.46476C27.5693 1.57539 30.5814 2.71369 33.1746 4.84839C35.2929 6.59208 36.9931 8.58411 38.2363 10.7779C38.2359 10.7779 38.2356 10.7783 38.2352 10.7787C37.8999 11.1071 37.6908 11.5638 37.6908 12.0692V12.707C37.2689 12.8253 36.881 13.0248 36.5445 13.2876C32.5921 7.64989 25.2946 4.05417 18.6361 2.19794C19.2896 2.00683 20.0693 1.81762 20.9425 1.678C21.3422 1.6143 21.6142 1.23855 21.5505 0.83877C21.4868 0.439372 21.1111 0.167004 20.7113 0.231091C18.3855 0.602641 16.6792 1.29729 16.0715 1.56966C15.8354 1.52122 15.6938 1.49566 15.6664 1.4907C15.6542 1.48841 15.6419 1.4865 15.6297 1.48498C12.961 1.15157 11.4683 3.10012 11.0441 3.76082C10.0584 4.29259 5.82638 6.84385 3.97931 12.3046C2.28597 17.3106 3.11262 23.1955 6.43521 29.7968C6.73161 30.863 7.01504 31.6023 7.13253 31.8922C7.16305 32.8875 7.3904 35.9289 8.94374 39.3255C11.0838 44.005 14.9587 47.6987 20.7307 49.6946C21.9083 50.1016 23.2061 50.102 24.3837 49.6946C31.4008 47.2677 34.8062 42.6687 36.4549 38.6225V44.6294H35.8117C35.0675 44.6294 34.4617 45.2348 34.4617 45.9795V47.1517C34.4617 47.896 35.0675 48.5017 35.8117 48.5017H43.5063C44.2506 48.5017 44.8559 47.896 44.8559 47.1517V45.9795C44.8559 45.2348 44.2506 44.6294 43.5063 44.6294H42.8632V42.7389C42.8632 42.3345 42.5351 42.0065 42.1304 42.0065C41.7256 42.0065 41.3979 42.3345 41.3979 42.7389V44.6294H40.3916V37.039H41.3979V39.3202C41.3979 39.7245 41.726 40.0526 42.1307 40.0526ZM39.156 12.0688C39.156 11.8762 39.3201 11.7278 39.4971 11.7278H39.8213C40.0094 11.7278 40.1624 11.8808 40.1624 12.0688V12.5834H39.156V12.0688ZM36.7284 32.2249H42.59V33.1667H36.7284V32.2249ZM42.59 15.9064V16.1418H42.038C41.6333 16.1418 41.3052 16.4698 41.3052 16.8746C41.3052 17.2789 41.6333 17.607 42.038 17.607H42.59V19.155H42.038C41.6333 19.155 41.3052 19.483 41.3052 19.8874C41.3052 20.2921 41.6333 20.6202 42.038 20.6202H42.59V22.1678H42.038C41.6333 22.1678 41.3052 22.4959 41.3052 22.9006C41.3052 23.305 41.6333 23.633 42.038 23.633H42.59V25.181H42.038C41.6333 25.181 41.3052 25.5091 41.3052 25.9135C41.3052 26.3182 41.6333 26.6463 42.038 26.6463H42.59V28.1939H42.038C41.6333 28.1939 41.3052 28.5219 41.3052 28.9267C41.3052 29.331 41.6333 29.6591 42.038 29.6591H42.59V30.7596H36.7284C36.7284 30.2725 36.7284 16.1563 36.7284 15.9064C36.7284 14.8936 37.5615 14.0486 38.5861 14.0486H40.7323C41.7565 14.0486 42.59 14.8822 42.59 15.9064ZM15.4287 2.93647C22.2524 4.20142 31.5023 8.34531 35.5847 14.4816C35.3761 14.9195 35.2632 15.4139 35.2632 15.9064V19.2275C34.0436 17.5959 32.4803 16.0475 30.9419 14.7376C28.1217 12.3301 24.2246 9.83532 22.8643 9.14982L12.6627 4.04616C13.1651 3.48731 14.0848 2.77625 15.4287 2.93647ZM7.14703 25.5846C7.14474 25.6216 7.14092 25.659 7.1394 25.696C6.86436 23.1909 6.96011 20.1582 8.13465 17.2125C9.70172 13.2827 12.8832 10.2355 17.5935 8.15152L20.9993 9.85516C15.4936 13.1655 7.56779 19.1313 7.14703 25.5846ZM5.35908 12.799C6.92768 8.13321 10.5131 5.76162 11.5793 5.1425C12.4132 5.55944 15.0896 6.8984 15.9242 7.3161C11.434 9.5435 8.35704 12.6891 6.76861 16.6827C5.80388 19.1077 5.51739 21.5624 5.54448 23.7074C4.3398 19.6757 4.27533 16.0224 5.35908 12.799ZM23.9053 48.3095C23.036 48.6101 22.0788 48.6101 21.2099 48.3095C16.0505 46.5257 12.3716 43.2977 10.2762 38.7163C9.27982 36.537 8.66985 34.0673 8.59394 31.7301C8.59355 30.1272 8.59355 27.7384 8.59355 26.124C8.59355 19.945 17.1667 13.7591 22.5366 10.6498C27.0105 13.2369 32.7703 17.3823 35.2632 21.9069V33.1667H33.8163C33.0716 33.1667 32.4662 33.7721 32.4662 34.5167V35.689C32.4662 36.4332 33.0716 37.039 33.8163 37.039H35.4833C34.1291 40.999 31.0189 45.8494 23.9053 48.3095ZM43.3911 46.0943V47.0361H35.9273V46.0943H43.3911ZM38.9264 44.6291H37.9201V37.039H38.9264V44.6291ZM33.9315 35.5738V34.6319H45.387V35.5738C42.7537 35.5738 36.2351 35.5738 33.9315 35.5738Z" fill="white"/>
</svg>
