<svg width="50" height="50" viewBox="0 0 50 50" fill="none" xmlns="http://www.w3.org/2000/svg">
<path d="M38.2813 40.1328C38.25 39.1406 38.0156 36.836 36.5235 35.3516C34.586 33.4141 31.25 33.5938 31.25 33.5938C31.25 33.5938 31.0625 36.9219 33.0078 38.8672C34.9453 40.8047 38.2813 40.625 38.2813 40.625C38.2813 40.625 41.6094 40.8125 43.5547 38.8672C45.4922 36.9297 45.3125 33.5938 45.3125 33.5938C45.3125 33.5938 41.9844 33.4063 40.0391 35.3516C38.5469 36.8438 38.3125 39.1406 38.2813 40.1328Z" fill="white"/>
<path d="M35.9453 33.0312C36.5391 33.3359 37.1172 33.7266 37.6328 34.2422C37.875 34.4844 38.0938 34.75 38.2813 35.0234C38.4766 34.75 38.6875 34.4922 38.9297 34.2422C39.4453 33.7266 40.0234 33.3359 40.6172 33.0312C39.8516 31.0312 38.2813 29.6172 38.2813 29.6172C38.2813 29.6172 36.7109 31.0234 35.9453 33.0312Z" fill="white"/>
<path d="M46.0938 40.625H32.6875C32.4141 40.4297 32.1562 40.2188 31.9062 39.9688C29.5 37.5625 29.6875 33.6719 29.6953 33.5078L29.7734 32.1172L31.1719 32.0313C31.1719 32.0313 31.2891 32.0313 31.4922 32.0313C32.125 32.0313 33.2656 32.1016 34.4922 32.4688C35.3906 30.1484 37.1406 28.5547 37.2422 28.4609L38.2812 27.5313V16.5078C38.2812 16.0391 37.875 15.6797 37.4141 15.7344L32.0312 16.3359V12.4141C33.5 12.0625 34.6016 10.7422 34.6016 9.16406C34.6016 6.28125 31.25 3.14062 31.25 3.14062C31.25 3.14062 27.8984 6.28125 27.8984 9.16406C27.8984 10.7422 28.9922 12.0547 30.4688 12.4141V16.5078L24.9141 17.125C24.5156 17.1719 24.2188 17.5 24.2188 17.8984V25.0078C26.8047 25.0078 28.9062 27.1094 28.9062 29.6953C28.9062 31.3281 28.0703 32.7578 26.8047 33.6016C28.0703 34.4453 28.9062 35.875 28.9062 37.5078C28.9062 38.7109 28.4453 39.8047 27.7031 40.6328H24.2188C25.9453 40.6328 27.3438 39.2344 27.3438 37.5078C27.3438 35.7812 25.9453 34.3828 24.2188 34.3828H10.5469C9.89844 34.3828 9.375 34.9062 9.375 35.5547C9.375 36.2031 9.89844 36.7266 10.5469 36.7266H23.4375C23.8672 36.7266 24.2188 37.0781 24.2188 37.5078C24.2188 37.9375 23.8672 38.2891 23.4375 38.2891H10.5469C9.03906 38.2891 7.8125 37.0625 7.8125 35.5547C7.8125 35.1562 7.90625 34.7813 8.05469 34.4375C6.58594 34.6953 5.46875 35.9688 5.46875 37.5078C5.46875 39.2344 6.86719 40.6328 8.59375 40.6328H3.90625C3.47656 40.6328 3.125 40.9844 3.125 41.4141V42.9766C3.125 43.4062 3.47656 43.7578 3.90625 43.7578H6.25V46.8828H9.375V43.7578H40.625V46.8828H43.75V43.7578H46.0938C46.5234 43.7578 46.875 43.4062 46.875 42.9766V41.4141C46.875 40.9844 46.5234 40.6328 46.0938 40.6328V40.625Z" fill="white"/>
<path d="M8.59375 32.8125H24.2188C25.9453 32.8125 27.3438 31.4141 27.3438 29.6875C27.3438 27.9609 25.9453 26.5625 24.2188 26.5625H10.5469C9.89844 26.5625 9.375 27.0859 9.375 27.7344C9.375 28.3828 9.89844 28.9062 10.5469 28.9062H23.4375C23.8672 28.9062 24.2188 29.2578 24.2188 29.6875C24.2188 30.1172 23.8672 30.4688 23.4375 30.4688H10.5469C9.03906 30.4688 7.8125 29.2422 7.8125 27.7344C7.8125 27.3359 7.90625 26.9609 8.05469 26.6172C6.58594 26.875 5.46875 28.1484 5.46875 29.6875C5.46875 31.4141 6.86719 32.8125 8.59375 32.8125Z" fill="white"/>
</svg>
