<svg width="50" height="50" viewBox="0 0 50 50" fill="none" xmlns="http://www.w3.org/2000/svg">
<path d="M48.3942 22.4921C47.6918 20.1593 44.9348 18.6698 42.5234 19.4986C42.3645 19.5501 42.192 19.6158 42.009 19.6937C42.3993 16.6393 39.5693 13.967 36.5459 14.5599C35.7654 14.0656 34.9504 13.6171 34.1068 13.2174C39.453 10.4074 38.0526 5.87799 33.2288 2.77457C27.6401 -0.924824 19.5987 -0.924922 14.0101 2.77467C9.18703 5.87711 7.78607 10.4066 13.1305 13.2165C9.05058 15.0318 4.61477 19.0814 4.74535 22.482C4.72777 25.2163 7.23434 27.5929 11.1128 29.112C10.0797 29.6074 9.08203 30.1635 8.13045 30.7791C3.90032 33.5156 1.375 36.9114 1.375 39.863C1.94734 47.8237 15.8154 49.9853 23.6192 49.9862C32.3543 50.2707 51.5527 46.17 44.2057 35.4244C46.2722 33.9097 46.7274 30.9972 45.2183 28.9242C45.122 28.7918 45.0086 28.6511 44.8807 28.5044C45.0703 28.4607 45.2448 28.4134 45.4005 28.3629C47.7334 27.6605 49.2226 24.9036 48.3942 22.4921ZM42.8494 30.6485C43.4107 31.4197 43.2401 32.5036 42.4689 33.0649C41.6979 33.6264 40.6138 33.4556 40.0525 32.6844C39.8149 32.3581 39.4497 31.6467 39.1141 30.7903C39.9972 30.4656 40.7643 29.8999 41.3379 29.1745C42.05 29.7559 42.6064 30.3147 42.8494 30.6485ZM30.2559 25.5759C29.435 25.3181 28.8539 24.3708 29.1447 23.3966C29.4555 22.5897 30.2558 21.9744 31.3239 22.2854C31.7136 22.4119 32.408 22.7625 33.1731 23.2519C32.6674 24.0093 32.3618 24.9105 32.3298 25.8799C31.4198 25.8269 30.6462 25.7026 30.2559 25.5759ZM39.4961 26.0484C39.4961 27.2175 38.5451 28.1686 37.3759 28.1686C34.567 28.0621 34.5678 24.0343 37.3759 23.9281C38.5451 23.9281 39.4961 24.8792 39.4961 26.0484ZM31.9023 30.6485C32.1453 30.3148 32.7017 29.756 33.4138 29.1745C33.9874 29.8999 34.7545 30.4656 35.6377 30.7903C35.3022 31.6465 34.9369 32.358 34.6993 32.6844C34.1379 33.4555 33.0538 33.6262 32.2829 33.0649C31.5117 32.5036 31.341 31.4196 31.9023 30.6485ZM39.1057 19.144C39.1057 19.5523 38.9874 20.3172 38.7596 21.1923C37.8871 20.9351 36.865 20.9351 35.9924 21.1923C35.7645 20.3173 35.6462 19.5524 35.6462 19.144C35.7331 16.8523 39.0191 16.8533 39.1057 19.144ZM15.3694 11.0357C14.0277 10.4766 13.2587 9.87957 12.8914 9.38244C15.6899 7.85109 19.0469 7.59305 22.0654 8.71732L26.1983 10.2566C27.8665 10.8935 29.9703 11.2056 31.6563 11.1202C27.3859 12.8969 19.5769 12.8742 15.3694 11.0357ZM23.6194 2.90984C27.4181 2.87654 32.2602 4.66934 34.2704 7.73516C31.971 8.42705 29.4718 8.34901 27.2211 7.51082L23.0882 5.97156C20.5948 5.04302 17.9191 4.86048 15.3765 5.38438C17.6238 3.85068 20.7488 2.89783 23.6194 2.90984ZM12.1051 17.132C13.2064 16.4196 15.0034 15.4316 17.3712 14.7151C21.1502 15.5896 26.0884 15.5896 29.8675 14.7151C31.3912 15.1762 32.679 15.7495 33.6966 16.2898C32.967 17.2117 32.6055 18.4593 32.7429 19.6936C32.5599 19.6157 32.3873 19.5499 32.2284 19.4984C30.5318 18.9235 28.4678 19.469 27.2493 20.8975C21.0189 18.396 16.1831 16.7793 9.57292 19.1482C10.233 18.4855 11.0724 17.8 12.1051 17.132ZM7.8348 23.2015C11.9905 20.72 17.088 20.2399 21.6519 21.9396L26.1395 23.6109C25.9969 25.232 26.9282 27.1368 28.4748 27.9754C22.6788 28.8024 10.6624 28.0373 7.8348 23.2015ZM9.72196 33.2392C10.9918 32.4177 13.0289 31.2932 15.6995 30.4403C19.6696 31.2638 24.5476 31.4194 28.7043 30.8948C28.408 32.459 29.1291 34.4566 30.5584 35.4339C32.4751 36.9013 35.6264 36.4967 37.0682 34.4088C37.1683 34.271 37.2715 34.1132 37.3758 33.9388C37.4802 34.1133 37.5833 34.271 37.6835 34.4088C38.4785 35.4899 39.7498 36.2335 41.1693 36.3173C41.9635 37.2287 42.4791 38.092 42.737 38.8324C38.4251 40.3458 33.5491 40.3913 29.2825 38.7702C20.926 35.506 14.6967 32.9004 5.83904 36.5889C6.72363 35.5095 8.00446 34.3503 9.72196 33.2392ZM37.7493 44.6328C30.4102 47.8398 16.8287 47.8398 9.4896 44.6327C6.72695 43.4817 4.91256 42.0188 4.43301 40.6013C9.50269 37.4899 15.7679 36.8635 21.37 38.9499L28.2601 41.5159C32.5451 43.1228 37.3902 43.3335 41.7324 42.1881C40.8407 43.0669 39.4813 43.9111 37.7493 44.6328ZM44.496 25.5759C44.1056 25.7026 43.3321 25.827 42.422 25.88C42.3901 24.9106 42.0845 24.0094 41.5787 23.252C42.3438 22.7625 43.0382 22.4119 43.4279 22.2854C44.1813 22.0227 45.319 22.4361 45.6071 23.3967C45.898 24.3708 45.3168 25.3181 44.496 25.5759Z" fill="white"/>
</svg>
