<svg width="50" height="50" viewBox="0 0 50 50" fill="none" xmlns="http://www.w3.org/2000/svg">
<path d="M31.1459 43.5458C29.4697 43.5458 27.7936 42.9078 26.5176 41.6318C23.9655 39.0796 23.9655 34.9271 26.5175 32.3751C27.7539 31.1388 29.3976 30.458 31.1459 30.458C32.8942 30.458 34.538 31.1388 35.7742 32.3751C37.0105 33.6114 37.6914 35.2551 37.6914 37.0035C37.6914 38.7517 37.0105 40.3956 35.7742 41.6318C34.4982 42.9078 32.8221 43.5458 31.1459 43.5458ZM31.1459 31.9126C29.7861 31.9126 28.5076 32.442 27.546 33.4036C25.5611 35.3886 25.5611 38.6183 27.546 40.6032C29.5311 42.5883 32.7609 42.5882 34.7456 40.6032C35.7072 39.6416 36.2368 38.3632 36.2368 37.0034C36.2368 35.6436 35.7072 34.3651 34.7457 33.4036C34.7456 33.4036 34.7456 33.4036 34.7456 33.4036C33.7842 32.442 32.5057 31.9126 31.1459 31.9126Z" fill="white"/>
<path d="M31.1461 40.6383C30.215 40.6383 29.2839 40.2839 28.5749 39.575C27.888 38.8882 27.5098 37.975 27.5098 37.0037C27.5098 36.0325 27.888 35.1193 28.5749 34.4324C29.9929 33.0147 32.2997 33.0147 33.7174 34.4324C33.7175 34.4324 33.7175 34.4324 33.7175 34.4325C35.1352 35.8503 35.1352 38.1573 33.7175 39.575C33.0086 40.2838 32.0774 40.6383 31.1461 40.6383ZM31.1461 34.8229C30.5874 34.8229 30.0288 35.0355 29.6033 35.4609C29.1913 35.873 28.9643 36.4209 28.9643 37.0037C28.9643 37.5865 29.1913 38.1345 29.6033 38.5465C30.4541 39.3971 31.8382 39.3972 32.6889 38.5465C33.5395 37.6959 33.5395 36.3116 32.6889 35.4609C32.2636 35.0355 31.7049 34.8229 31.1461 34.8229Z" fill="white"/>
<path d="M38.3422 36.3495C37.7405 36.3495 37.1342 36.2666 36.5396 36.0965C36.1535 35.9858 35.93 35.5832 36.0406 35.197C36.1512 34.8109 36.5535 34.5876 36.94 34.698C38.7199 35.2077 40.6383 34.7117 41.946 33.4038C43.931 31.4189 43.931 28.1892 41.946 26.2043C40.9844 25.2426 39.7059 24.713 38.3462 24.713C36.9865 24.713 35.708 25.2426 34.7464 26.2043C34.6366 26.3139 34.4947 26.3856 34.3414 26.409L26.306 27.6305C26.0819 27.664 25.8557 27.5924 25.6927 27.4357L5.76528 8.27945C5.47565 8.00109 5.46665 7.54072 5.74492 7.25109C6.02337 6.96145 6.48374 6.95254 6.77328 7.23072L26.4422 26.1384L33.8942 25.0056C35.1084 23.8769 36.6799 23.2583 38.3463 23.2583C40.0945 23.2583 41.7383 23.9392 42.9746 25.1755C44.211 26.412 44.8919 28.0557 44.8919 29.8039C44.8919 31.5521 44.211 33.1959 42.9746 34.4323C41.7301 35.6767 40.0557 36.3495 38.3422 36.3495Z" fill="white"/>
<path d="M38.3456 33.4385C37.4144 33.4385 36.4832 33.0841 35.7743 32.3752C34.3565 30.9573 34.3565 28.6503 35.7742 27.2326C36.4611 26.5458 37.3743 26.1675 38.3456 26.1675C39.3169 26.1675 40.23 26.5458 40.9169 27.2327L40.9168 27.2326C40.9169 27.2327 40.9169 27.2327 40.9169 27.2327C41.6037 27.9194 41.9819 28.8326 41.9819 29.8038C41.9819 30.7751 41.6037 31.6883 40.9169 32.3752C40.2079 33.084 39.2768 33.4385 38.3456 33.4385ZM38.3456 27.622C37.7628 27.622 37.2149 27.849 36.8028 28.2611C35.9521 29.1117 35.9521 30.4959 36.8028 31.3467C37.6532 32.1972 39.0376 32.1973 39.8882 31.3466C40.3003 30.9345 40.5273 30.3866 40.5273 29.8038C40.5273 29.221 40.3003 28.673 39.8883 28.261C39.8882 28.261 39.8882 28.261 39.8882 28.2609C39.4762 27.849 38.9283 27.622 38.3456 27.622Z" fill="white"/>
<path d="M25.8362 35.3503C25.6223 35.3503 25.4103 35.2564 25.2667 35.0761L5.65298 10.4431C4.86243 9.47025 4.9348 8.06043 5.82589 7.16934C6.21098 6.78425 6.72207 6.53561 7.26507 6.46925C7.80889 6.40443 8.36434 6.52525 8.83116 6.80852C8.8458 6.81743 8.86016 6.82688 8.87416 6.83679L34.6521 25.0962C34.9798 25.3284 35.0573 25.7823 34.8252 26.1101C34.5929 26.4377 34.1391 26.5152 33.8113 26.2832L8.05716 8.04061C7.86852 7.93161 7.65507 7.88761 7.43898 7.91343C7.21616 7.94061 7.01316 8.03907 6.85434 8.19788C6.49216 8.56016 6.4628 9.13343 6.78625 9.53143L26.4046 34.17C26.6548 34.4842 26.6029 34.9417 26.2887 35.192C26.1549 35.2985 25.995 35.3503 25.8362 35.3503Z" fill="white"/>
<path d="M5.26884 40.9666C5.08275 40.9666 4.89656 40.8956 4.75456 40.7536L3.91911 39.9183C1.82775 37.8268 1.82775 34.4238 3.91911 32.3325L15.0464 21.2052C15.3304 20.9212 15.7908 20.9212 16.0748 21.2052C16.3589 21.4892 16.3589 21.9496 16.0748 22.2336L4.94756 33.3609C3.42338 34.8852 3.42338 37.3655 4.94756 38.8897L5.26875 39.2108L18.6945 25.785C18.9785 25.5011 19.4389 25.5011 19.7229 25.785C20.007 26.0691 20.007 26.5295 19.7229 26.8136L5.78293 40.7536C5.64111 40.8956 5.45493 40.9666 5.26884 40.9666Z" fill="white"/>
<path d="M25.7955 20.4401C25.6093 20.4401 25.4232 20.3691 25.2812 20.2271C24.9972 19.9431 24.9972 19.4827 25.2812 19.1987L39.2106 5.26923L38.8894 4.94805C37.3652 3.42378 34.8849 3.42378 33.3606 4.94805L21.4925 16.8162C21.2085 17.1002 20.748 17.1002 20.464 16.8162C20.18 16.5322 20.18 16.0718 20.464 15.7878L32.3321 3.9196C34.4236 1.82823 37.8267 1.82823 39.918 3.9196L40.7534 4.75505C41.0374 5.03905 41.0374 5.49951 40.7534 5.78351L26.3098 20.2271C26.1678 20.3691 25.9817 20.4401 25.7955 20.4401Z" fill="white"/>
<path d="M44.8667 14.7389C44.6806 14.7389 44.4945 14.6679 44.3525 14.5259L37.6671 7.84058C37.3831 7.55658 37.3831 7.09612 37.6671 6.81212C37.9512 6.52812 38.4116 6.52812 38.6956 6.81212L45.381 13.4975C45.665 13.7815 45.665 14.2419 45.381 14.5259C45.239 14.6679 45.0529 14.7389 44.8667 14.7389Z" fill="white"/>
<path d="M42.8101 16.7961C42.6239 16.7961 42.4378 16.7251 42.2958 16.5831L35.6105 9.8977C35.3265 9.6137 35.3265 9.15325 35.6105 8.86925C35.8946 8.58525 36.3549 8.58525 36.639 8.86925L43.3244 15.5546C43.6084 15.8386 43.6084 16.2991 43.3244 16.5831C43.1824 16.7251 42.9963 16.7961 42.8101 16.7961Z" fill="white"/>
<path d="M40.7525 18.8532C40.5663 18.8532 40.3802 18.7822 40.2382 18.6402L33.5528 11.9548C33.2688 11.6708 33.2688 11.2104 33.5528 10.9264C33.8369 10.6424 34.2973 10.6424 34.5814 10.9264L41.2668 17.6117C41.5508 17.8957 41.5508 18.3562 41.2668 18.6402C41.1248 18.7822 40.9387 18.8532 40.7525 18.8532Z" fill="white"/>
<path d="M38.6958 20.9103C38.5097 20.9103 38.3236 20.8393 38.1816 20.6973L31.4962 14.012C31.2122 13.728 31.2122 13.2675 31.4962 12.9835C31.7803 12.6995 32.2407 12.6995 32.5247 12.9835L39.2101 19.6689C39.4941 19.9529 39.4941 20.4133 39.2101 20.6973C39.0681 20.8393 38.882 20.9103 38.6958 20.9103Z" fill="white"/>
<path d="M36.6392 22.9675C36.453 22.9675 36.2669 22.8965 36.1249 22.7545L29.4396 16.0691C29.1556 15.7851 29.1556 15.3246 29.4396 15.0406C29.7237 14.7566 30.184 14.7566 30.4681 15.0406L37.1535 21.726C37.4375 22.01 37.4375 22.4705 37.1535 22.7545C37.0115 22.8964 36.8254 22.9675 36.6392 22.9675Z" fill="white"/>
<path d="M14.0113 45.5949C13.8252 45.5949 13.6391 45.5239 13.4971 45.3819L6.8117 38.6966C6.52761 38.4125 6.52761 37.9521 6.8117 37.668C7.0957 37.3841 7.55616 37.3841 7.84016 37.668L14.5255 44.3534C14.8096 44.6375 14.8096 45.0978 14.5255 45.3819C14.3836 45.5239 14.1974 45.5949 14.0113 45.5949Z" fill="white"/>
<path d="M16.069 43.5378C15.8829 43.5378 15.6967 43.4668 15.5547 43.3248L8.86932 36.6394C8.58523 36.3553 8.58523 35.895 8.86932 35.6109C9.15332 35.327 9.61377 35.327 9.89777 35.6109L16.5831 42.2962C16.8672 42.5803 16.8672 43.0407 16.5831 43.3248C16.4412 43.4668 16.2551 43.5378 16.069 43.5378Z" fill="white"/>
<path d="M18.1256 41.4807C17.9395 41.4807 17.7533 41.4097 17.6113 41.2677L10.926 34.5823C10.6419 34.2982 10.6419 33.8378 10.926 33.5538C11.21 33.2698 11.6704 33.2698 11.9544 33.5538L18.6398 40.2391C18.9239 40.5232 18.9239 40.9836 18.6398 41.2677C18.4979 41.4097 18.3117 41.4807 18.1256 41.4807Z" fill="white"/>
<path d="M20.1822 39.4235C19.9961 39.4235 19.81 39.3525 19.668 39.2105L12.9826 32.5252C12.6985 32.2411 12.6985 31.7807 12.9826 31.4966C13.2666 31.2127 13.7271 31.2127 14.0111 31.4966L20.6964 38.182C20.9805 38.4661 20.9805 38.9264 20.6964 39.2105C20.5545 39.3525 20.3684 39.4235 20.1822 39.4235Z" fill="white"/>
<path d="M22.2399 37.3664C22.0538 37.3664 21.8676 37.2954 21.7256 37.1534L15.0402 30.468C14.7561 30.1839 14.7561 29.7236 15.0402 29.4395C15.3242 29.1556 15.7847 29.1556 16.0687 29.4395L22.754 36.1249C23.0381 36.4089 23.0381 36.8693 22.754 37.1534C22.612 37.2954 22.4259 37.3664 22.2399 37.3664Z" fill="white"/>
<path d="M11.9547 47.6516C11.7686 47.6516 11.5824 47.5806 11.4404 47.4386L4.75506 40.7532C4.47097 40.4691 4.47097 40.0087 4.75506 39.7247C5.03906 39.4407 5.49951 39.4407 5.78351 39.7247L12.4689 46.41C12.753 46.6941 12.753 47.1545 12.4689 47.4386C12.327 47.5806 12.1409 47.6516 11.9547 47.6516Z" fill="white"/>
<path d="M46.9243 12.6821C46.7381 12.6821 46.552 12.6111 46.41 12.4691L39.6603 5.71948C39.3763 5.43548 39.3763 4.97503 39.6603 4.69103C39.9444 4.40703 40.4047 4.40703 40.6888 4.69103L47.4385 11.4407C47.7225 11.7247 47.7225 12.1851 47.4385 12.4691C47.2965 12.6111 47.1104 12.6821 46.9243 12.6821Z" fill="white"/>
</svg>
