<svg width="50" height="50" viewBox="0 0 50 50" fill="none" xmlns="http://www.w3.org/2000/svg">
<g clip-path="url(#clip0_799_2376)">
<path d="M42.4724 20.9722C42.4555 20.962 42.4377 20.953 42.4195 20.9455L42.0685 20.768C41.0995 20.2687 39.9235 20.4126 39.1035 21.131C37.598 22.3659 35.492 22.5593 33.7868 21.6192C33.5786 21.5396 33.3454 21.6439 33.2659 21.8519C33.2045 22.0125 33.2517 22.1944 33.3834 22.3049C34.1951 22.7847 35.1231 23.0318 36.066 23.0189C36.2435 23.0189 36.425 23.0189 36.6025 22.9947C37.316 22.9341 38.0114 22.7384 38.6517 22.4179C38.6517 22.4179 38.68 22.4179 38.6921 22.4179C39.287 22.3181 39.8896 22.5463 40.2694 23.0149C40.3455 23.1165 40.4651 23.1763 40.5921 23.1763C40.6793 23.1763 40.7643 23.1479 40.8341 23.0956C41.0123 22.962 41.0484 22.709 40.9148 22.5308C40.6102 22.132 40.1863 21.8408 39.7046 21.6998C40.2713 21.2401 41.0558 21.1579 41.7055 21.4901L42.0564 21.6635C42.2473 21.7784 42.4952 21.7168 42.6101 21.5259C42.7249 21.335 42.6633 21.0871 42.4724 20.9722Z" fill="white"/>
<path d="M42.0723 15.1848C37.6632 13.9746 34.0044 14.733 32.9878 17.0485C32.8976 17.2522 32.9894 17.4905 33.1931 17.5808C33.1933 17.5809 33.1934 17.5809 33.1936 17.581C33.2443 17.6037 33.2994 17.6147 33.3549 17.6133C33.5135 17.6129 33.6571 17.5198 33.722 17.3752C34.5691 15.4712 37.9133 14.8903 41.8585 15.9634C42.0735 16.0224 42.2957 15.896 42.3547 15.681C42.4138 15.466 42.2874 15.2438 42.0723 15.1848Z" fill="white"/>
<path d="M25.614 21.7543C25.6129 21.7523 25.6116 21.7504 25.6105 21.7484C25.4928 21.5611 25.2464 21.5035 25.0579 21.6193C23.3459 22.5645 21.2295 22.3645 19.725 21.115C18.9052 20.408 17.7376 20.2706 16.7761 20.7681L16.4252 20.9456C16.2195 21.0312 16.1222 21.2674 16.2078 21.473C16.2935 21.6787 16.5297 21.776 16.7353 21.6904C16.7535 21.6828 16.7713 21.6738 16.7882 21.6637L17.1392 21.4902C17.7936 21.1508 18.5874 21.235 19.1562 21.704C18.6757 21.8429 18.2528 22.1329 17.95 22.531C17.8163 22.7092 17.8525 22.962 18.0307 23.0957C18.1005 23.1481 18.1855 23.1764 18.2727 23.1764C18.3997 23.1764 18.5193 23.1166 18.5955 23.015C18.9729 22.5505 19.5697 22.3229 20.1606 22.418C20.1606 22.418 20.1848 22.418 20.1969 22.418C20.8385 22.7389 21.5354 22.9348 22.2502 22.9949C22.4277 22.9949 22.6093 23.0191 22.7868 23.0191C23.7283 23.0324 24.6553 22.7853 25.4653 22.3051C25.6584 22.194 25.725 21.9474 25.614 21.7543Z" fill="white"/>
<path d="M25.8562 17.049C25.8561 17.0488 25.8561 17.0487 25.856 17.0485C24.8314 14.733 21.1806 13.9867 16.7715 15.1848C16.5565 15.2438 16.4301 15.466 16.4891 15.681C16.5481 15.896 16.7703 16.0224 16.9853 15.9634C20.9305 14.8903 24.2747 15.4712 25.1178 17.3753C25.1833 17.5212 25.329 17.6145 25.4889 17.6133C25.5444 17.6137 25.5992 17.6027 25.6503 17.581C25.8541 17.491 25.9463 17.2528 25.8562 17.049Z" fill="white"/>
<path d="M33.9522 34.7739C33.3398 33.7127 32.3727 32.9014 31.2212 32.4826C30.736 32.3091 30.1985 32.3623 29.7569 32.6279C29.5588 32.7385 29.3176 32.7385 29.1195 32.6279C28.6791 32.3593 28.1408 32.3044 27.6552 32.4786C26.5037 32.8973 25.5367 33.7087 24.9242 34.7699C24.8521 34.8948 24.8521 35.0485 24.9242 35.1733C25.8611 36.7796 27.5787 37.7696 29.4382 37.7752C31.297 37.7705 33.0143 36.7821 33.9522 35.1773C34.0243 35.0525 34.0243 34.8987 33.9522 34.7739ZM27.003 36.2477C26.4961 35.9155 26.0632 35.4825 25.731 34.9756C26.25 34.175 27.0163 33.5659 27.9134 33.241C28.1705 33.1502 28.4549 33.1798 28.6879 33.3217C29.1422 33.584 29.7019 33.584 30.1563 33.3217C30.3892 33.1798 30.6736 33.1502 30.9308 33.241C31.8272 33.567 32.5933 34.1758 33.1132 34.9756C31.7772 37.0141 29.0416 37.5837 27.003 36.2477Z" fill="white"/>
<path d="M31.3425 29.4369C31.1914 29.3075 30.9688 29.3075 30.8177 29.4369C30.0478 30.2078 28.7989 30.2086 28.028 29.4387C28.0274 29.4381 28.0268 29.4375 28.0262 29.4369C27.857 29.292 27.6023 29.3116 27.4574 29.4809C27.328 29.6319 27.328 29.8546 27.4574 30.0057C28.5401 31.0906 30.2974 31.0925 31.3824 30.0098C31.3838 30.0084 31.3851 30.0071 31.3865 30.0057C31.5314 29.8364 31.5117 29.5818 31.3425 29.4369Z" fill="white"/>
<path d="M42.2782 11.3648C40.9711 10.3281 36.6306 7.00412 35.372 6.04807C35.5414 5.85444 35.7068 5.64467 35.8641 5.44297C36.7839 4.23278 37.6875 1.8124 37.7238 1.71558C37.7835 1.50097 37.6578 1.2785 37.4432 1.2189C37.2531 1.16605 37.0527 1.25843 36.9694 1.43724C36.9694 1.46144 36.0699 3.85762 35.2227 4.95486C32.8629 8.03279 29.2605 10.0498 24.5125 10.905L15.6096 12.7445C9.49939 14.0014 5.56496 19.9734 6.82174 26.0837C7.17623 27.8069 7.92826 29.4235 9.01804 30.8046C9.02732 30.8144 9.03549 30.8251 9.04224 30.8368C9.80466 31.7364 10.5994 32.636 11.3658 33.4993C15.3514 38.0012 19.1151 42.253 16.9408 45.7424C16.6261 46.2466 15.1093 47.6706 13.2658 47.5657C13.043 47.5535 12.8524 47.7242 12.8402 47.9469C12.8279 48.1697 12.9987 48.3603 13.2214 48.3725C13.3062 48.3725 13.3909 48.3725 13.4756 48.3725C15.1222 48.3086 16.6495 47.4959 17.6225 46.1659C20.1195 42.1642 16.1582 37.6946 11.9749 32.9627C11.2085 32.0995 10.4178 31.208 9.65541 30.3003C6.07112 25.7499 6.85432 19.1555 11.4047 15.5711C12.2199 14.929 13.1257 14.4114 14.0928 14.0353V26.5407C14.0997 29.8539 15.4748 33.0171 17.8928 35.2823L25.3193 42.2127C26.2301 43.0599 27.4277 43.5312 28.6716 43.5318H30.1722C31.426 43.5332 32.6332 43.0572 33.5486 42.2006L38.2079 37.8842V39.7035C38.2018 42.9018 39.1962 46.0218 41.0518 48.6267C41.128 48.7336 41.2513 48.7968 41.3826 48.7961C41.4652 48.7981 41.5461 48.7726 41.6125 48.7235C41.7936 48.5951 41.8368 48.3445 41.7094 48.1628C39.9499 45.689 39.0077 42.7271 39.0147 39.6914V37.3719C39.0128 37.3005 38.9918 37.2309 38.9542 37.1702L40.9711 35.2863C41.1338 35.1337 41.1419 34.8782 40.9893 34.7155C40.8367 34.5528 40.5812 34.5448 40.4185 34.6974L32.996 41.6277C32.2303 42.3441 31.2207 42.7422 30.1722 42.7411H28.6716C27.623 42.7422 26.6134 42.3441 25.8478 41.6277L18.4212 34.6974C16.1649 32.5855 14.8817 29.6351 14.8754 26.5447V13.7651C15.1698 13.6763 15.4684 13.5956 15.7709 13.5351L24.6699 11.6997C28.9701 10.8929 32.3788 9.21071 34.8274 6.64913C36.0013 7.54467 40.475 10.9493 41.7779 11.9982C42.5866 12.6417 43.3273 13.3662 43.9886 14.1604C43.9748 14.1952 43.9667 14.232 43.9644 14.2693V26.5447C43.9644 26.7675 44.145 26.9481 44.3678 26.9481C44.5905 26.9481 44.7711 26.7675 44.7711 26.5447V15.1931C48.0193 19.8999 48.4683 25.9953 45.945 31.1273C45.8493 31.3268 45.932 31.5661 46.1306 31.6638C46.1848 31.6941 46.2461 31.7094 46.3081 31.7082C46.4609 31.707 46.5999 31.6195 46.6671 31.4823C50.0839 24.5721 48.2363 16.1007 42.2782 11.3648Z" fill="white"/>
<path d="M9.79267 3.55488C9.61759 3.41853 9.36527 3.44919 9.22791 3.62346C6.80289 6.84055 5.85581 10.9351 6.62196 14.8903C6.65565 15.086 6.82679 15.2281 7.02536 15.2252H7.09797C7.31732 15.1863 7.46365 14.977 7.42483 14.7575L7.42472 14.7572C6.69094 11.0263 7.5767 7.15923 9.86124 4.11964C9.99769 3.94456 9.96704 3.69224 9.79267 3.55488Z" fill="white"/>
<path d="M9.61267 11.914C9.61217 11.9138 9.61177 11.9136 9.61126 11.9134C9.40533 11.8285 9.16944 11.9266 9.08453 12.1325C9.08251 12.1375 9.08059 12.1424 9.07878 12.1473C8.67851 13.1051 8.37707 14.1013 8.1792 15.1204C8.13725 15.3386 8.27975 15.5497 8.49788 15.5924C8.5233 15.5963 8.54912 15.5963 8.57453 15.5924C8.77048 15.5959 8.94071 15.458 8.97793 15.2656C9.16591 14.2981 9.45111 13.3521 9.8291 12.4418C9.91502 12.2363 9.8182 12 9.61267 11.914Z" fill="white"/>
<path d="M29.7059 5.26316C29.5664 5.0894 29.3124 5.06167 29.1388 5.20124C29.1264 5.21123 29.1146 5.22192 29.1034 5.23331C27.5623 6.59498 25.6698 7.49647 23.6414 7.83523C23.4223 7.87587 23.2777 8.08634 23.3184 8.30549C23.3185 8.30609 23.3186 8.3067 23.3187 8.3072C23.3559 8.49962 23.5261 8.63748 23.7221 8.63395L23.7906 8.62992C25.9659 8.26474 27.9943 7.29457 29.6439 5.83034C29.8176 5.69077 29.8453 5.43683 29.7059 5.26316Z" fill="white"/>
<path d="M31.7091 2.47384C31.5153 2.3624 31.2679 2.42927 31.1564 2.6231C30.9277 3.02559 30.6745 3.41356 30.3981 3.78488C30.2644 3.96308 30.3005 4.21601 30.4787 4.34964C30.549 4.40057 30.6339 4.4275 30.7208 4.42629C30.8492 4.43072 30.972 4.37384 31.0516 4.27299C31.3473 3.87545 31.6167 3.45904 31.8584 3.0265C31.9698 2.83266 31.9029 2.58518 31.7091 2.47384Z" fill="white"/>
<path d="M8.53421 38.2633L4.66563 36.5811C2.57603 35.6614 1.24079 34.1648 0.79705 32.2607C0.746928 32.0435 0.530203 31.9081 0.312973 31.9582C0.0957437 32.0083 -0.039697 32.225 0.0104251 32.4423C0.361381 33.951 1.39408 36.0204 4.33485 37.3234L8.20746 39.0096C12.3705 40.8208 14.3149 42.9306 13.9881 45.2784C13.9573 45.499 14.1111 45.7029 14.3317 45.7338C14.3328 45.734 14.334 45.7341 14.3351 45.7342H14.3915C14.5954 45.7359 14.7684 45.5853 14.7949 45.3832C15.1741 42.6321 13.0684 40.2359 8.53421 38.2633Z" fill="white"/>
<path d="M40.6528 27.0487C40.528 26.8637 40.277 26.815 40.092 26.9397C39.971 27.0244 39.85 27.1092 39.733 27.1979C39.5561 27.3328 39.5218 27.5855 39.6564 27.7627C39.7334 27.8627 39.8528 27.9209 39.9791 27.92C40.0663 27.92 40.1513 27.8916 40.2211 27.8393C40.326 27.7586 40.4349 27.682 40.5438 27.6094C40.7288 27.4846 40.7776 27.2336 40.6528 27.0487Z" fill="white"/>
<path d="M45.2471 35.7258L46.3564 34.5156L49.3214 37.291C49.4851 37.4424 49.7407 37.4326 49.8922 37.2688C50.0436 37.105 50.0338 36.8494 49.87 36.698L46.784 33.85L44.5895 31.3933L42.4596 24.9389C42.4019 24.7674 42.237 24.6551 42.0562 24.6646C38.1406 24.9908 35.1235 28.2549 35.1056 32.1839C35.1001 32.3738 35.2278 32.5419 35.4122 32.5873L41.9715 34.2009L44.5855 36.2179L49.3214 40.619C49.3958 40.6887 49.4937 40.7275 49.5957 40.7279C49.8185 40.7271 49.9985 40.5459 49.9977 40.3231C49.9973 40.212 49.9511 40.106 49.87 40.03L45.2471 35.7258ZM42.0158 33.382L37.6107 32.2929C37.7857 31.0165 38.325 29.8175 39.1638 28.8398C39.3097 28.6705 39.2908 28.4149 39.1215 28.269C38.9521 28.123 38.6966 28.142 38.5507 28.3113C37.6315 29.3857 37.0333 30.6969 36.8241 32.0952L35.9205 31.8733C36.0829 28.6064 38.5555 25.9217 41.798 25.4916L43.7787 31.4861L43.3309 31.9661L42.6008 29.7555C42.5306 29.5438 42.3022 29.4291 42.0905 29.4993C41.8788 29.5695 41.7641 29.798 41.8343 30.0096L42.7057 32.6398L42.0158 33.382ZM42.75 33.7814L44.2345 32.1678L45.8078 33.9266L44.6178 35.2215L42.75 33.7814Z" fill="white"/>
</g>
<defs>
<clipPath id="clip0_799_2376">
<rect width="50" height="50" fill="white"/>
</clipPath>
</defs>
</svg>
