<svg width="784" height="617" viewBox="0 0 784 617" fill="none" xmlns="http://www.w3.org/2000/svg">
<path d="M777.107 329.997C766.274 305.692 745.62 283.568 737.18 257.453C722.855 213.082 745.761 164.204 736.524 118.396C728.44 78.2826 693.442 45.7803 655.199 42.853C623.41 40.4224 593.288 56.2655 561.747 60.3638C508.842 67.2297 457.125 40.9547 404.326 31.4985C356.794 22.9826 307.346 28.3938 262.809 46.9867C233.839 59.0864 204.178 80.9083 199.941 113.925C196.696 139.242 209.426 165.57 203.203 190.195C198.54 208.7 183.824 222.449 167.797 231C151.77 239.534 134.093 243.916 117.303 250.622C81.3124 264.975 48.4951 291.57 32.3081 328.738C16.121 365.906 19.4896 414.145 45.942 444.625C58.5655 459.19 75.2667 468.895 89.273 481.935C107.463 498.878 107.091 526.306 117.835 547.684C128.898 569.719 148.844 584.214 168.896 595.87C193.966 610.436 223.06 617.284 251.268 613.718C291.584 608.608 328.054 584.64 368.495 580.63C409.486 576.55 449.679 593.262 489.747 604.368C534.036 616.627 580.877 622.11 625.077 610.932C669.276 599.755 710.568 570.056 729.592 526.129C743.793 493.342 744.964 455.198 759.697 422.679C768.526 403.181 782.337 385.262 783.862 363.564C784.678 351.606 781.823 340.589 777.107 329.997Z" fill="url(#paint0_linear_1044_12049)"/>
<path d="M637.18 110.762C616.65 102.956 635.159 93.801 648.049 90.164C658.474 87.219 684.571 82.3933 673.987 64.5987C662.888 45.9525 652.268 68.9808 643.439 71.5888C623.706 77.408 644.237 52.641 649.148 46.0412C655.867 36.9931 669.98 18.5065 652.552 15.4373C638.439 12.9535 623.848 32.6109 617.997 42.4042C613.831 49.3943 603.565 82.1094 592.892 74.8709C584.807 69.3711 593.176 36.6028 573.886 60.0391C566.05 69.5663 567.308 84.8593 563.763 95.7526C558.586 111.702 556.405 118.32 542.239 114.221C534.899 112.092 534.668 102.885 525.609 109.112C520.946 112.323 519.563 127.066 519.598 132.176C519.953 179.208 538.746 210.699 547.611 214.762C559.614 220.262 581.918 212.314 592.183 206.423C597.289 203.496 606.597 198.653 605.941 191.201C605.196 182.863 592.325 184.051 591.864 179.155C590.516 165.263 616.065 178.534 623.139 176.547C632.305 173.974 647.481 157.599 637.872 148.941C636.879 148.054 596.952 145.162 619.788 132.442C632.429 125.398 645.992 144.949 658.19 131.058C675.724 111.081 644.875 113.689 637.18 110.762Z" fill="#27AE60"/>
<path d="M633.778 118.16C624.967 114.434 615.836 111.064 606.244 110.247C612.999 101.803 620.074 93.4286 625.215 84.0612C626.669 81.4177 622.343 79.5903 620.907 82.2161C620.286 83.3515 619.577 84.4692 618.903 85.587C618.159 82.7128 619.045 78.4372 619.311 76.1485C620.003 70.2406 622.219 64.936 624.541 59.5248C625.729 56.7572 621.421 54.8943 620.233 57.6797C617.219 64.7053 614.843 71.4116 614.311 79.0936C614.045 82.8725 613.833 86.953 616.013 90.0933C608.744 100.88 599.702 110.815 592.132 121.283C588.887 116.155 586.512 110.797 585.43 104.712C584.242 98.0946 585.04 91.3529 584.366 84.6821C584.065 81.6838 579.402 82.2516 579.721 85.2676C580.554 93.2867 579.615 101.164 581.618 109.059C583.143 115.02 585.856 120.289 589.242 125.381C580.537 137.977 572.487 151.07 565.892 164.891C563.694 169.486 561.69 174.17 559.758 178.871C555.378 172.325 551.762 165.512 549.244 157.99C547.843 153.803 546.283 149.385 545.734 145.003C545.308 141.685 545.663 138.563 544.351 135.405C543.198 132.619 538.837 134.358 540.007 137.143C541.603 140.993 541.071 146.014 542.081 150.13C543.056 154.104 544.28 158.061 545.645 161.91C548.464 169.805 552.613 176.955 557.417 183.786C557.488 183.892 557.577 183.927 557.648 184.016C554.368 192.16 551.177 200.321 547.524 208.286C547.241 208.517 546.975 208.801 546.797 209.227C546.443 210.114 545.751 211.356 545.521 212.438C539.014 228.884 532.454 245.313 526.16 261.83C525.097 264.651 529.387 266.496 530.469 263.675C536.745 247.211 543.287 230.836 549.758 214.46C549.794 214.389 549.847 214.354 549.882 214.265C551.957 209.972 553.871 205.607 555.715 201.19C564.243 203.354 573.729 200.871 581.671 197.677C584.473 196.559 582.735 192.195 579.934 193.33C573.019 196.116 565.006 198.263 557.541 196.79C561.637 186.713 565.502 176.529 570.183 166.701C572.044 162.798 574.03 158.965 576.104 155.169C576.264 155.275 576.388 155.399 576.583 155.488C588.214 160.207 600.766 162.106 613.212 160.154C616.191 159.693 615.623 155.027 612.627 155.506C600.961 157.333 589.331 155.612 578.427 151.195C578.409 151.177 578.391 151.195 578.356 151.177C584.756 140 591.972 129.284 599.56 118.87C600.855 117.096 602.202 115.339 603.55 113.601C603.816 114.239 604.365 114.772 605.305 114.842C614.631 115.588 623.371 118.834 631.917 122.454C634.7 123.642 636.562 119.331 633.778 118.16Z" fill="white"/>
<path d="M511.231 316.154C523.199 303.309 533.429 289.63 546.105 277.726C535.148 260.357 530.858 227.766 533.641 224.36C539.9 216.713 547.807 228.635 549.367 234.437C552.186 244.94 550.679 266.903 548.835 275.224C550.342 273.876 551.867 272.563 553.463 271.268C556.938 268.447 560.413 265.608 563.888 262.77C560.643 256.613 553.091 243.875 557.292 223.118C558.002 219.64 559.26 215.081 562.966 213.732C568.107 211.87 568.498 217.636 568.622 221.29C568.852 227.553 568.196 249.056 568.444 259.062C575.394 253.384 582.38 247.707 589.365 242.065C585.447 229.185 580.749 213.555 586.511 200.48C590.287 191.928 597.007 199.06 598.514 204.72C601.191 214.85 599.205 226.737 595.606 237.08C598.921 234.437 602.219 231.793 605.552 229.167C606.137 228.706 606.758 228.245 607.343 227.784C604.878 221.627 601.829 215.95 601.599 209.084C601.368 202.325 604.311 196.168 608.655 191.148C610.57 188.93 612.591 185.985 615.8 185.612C620.303 185.08 618.406 189.906 617.573 192.833C615.782 199.078 614.293 205.554 613.194 211.923C612.591 215.453 611.899 218.735 611.013 222.071C610.782 222.94 610.641 224.129 610.499 225.371C615.268 221.716 620.108 218.15 625.037 214.655C624.736 203.283 624.434 189.533 632.058 180.201C637.058 174.063 640.94 181.408 640.887 186.357C640.816 194.039 637.589 202.005 633.299 208.942C635.48 207.47 637.66 206.015 639.859 204.578C643.6 191.786 648.032 175.89 659.929 168.261C667.499 163.4 669.13 172.892 667.34 178.303C665.567 183.643 662.358 188.628 658.457 193.117C659.503 192.514 660.531 191.875 661.577 191.29C664.042 189.888 666.524 188.575 669.042 187.351C670.726 176.067 672.818 162.389 681.984 154.476C687.977 149.313 690.53 157.208 689.608 162.069C688.154 169.787 683.402 177.238 677.818 183.412C681.754 181.78 685.743 180.29 689.75 178.871C692.533 169.982 695.955 159.266 704.323 154.05C709.819 150.626 710.883 157.333 709.536 161.165C707.568 166.718 703.419 171.721 698.668 175.819C703.082 174.329 707.515 172.874 711.929 171.33C714.482 167.995 717.425 164.695 720.067 161.874C723.17 158.539 727.141 155.31 732.017 155.718C738.453 156.268 739.711 160.828 736.095 165.831C734.446 168.119 732.247 169.645 729.765 170.727C732.265 171.189 734.588 172.147 736.13 173.601C740.367 177.558 736.485 181.39 731.893 182.259C726.787 183.235 721.521 181.301 716.557 180.343C712.887 179.633 709.004 179.988 705.316 179.651C702.391 180.645 699.465 181.621 696.54 182.632C704.146 182.153 712.514 183.058 718.791 186.783C722.283 188.841 725.758 194.678 719.34 195.583C709.057 197.02 699.075 190.261 691.026 185.098L690.938 184.601C682.729 187.546 674.644 190.775 666.825 194.944C669.449 194.944 672.038 195.21 674.485 195.831C678.952 196.967 684.626 202.201 677.924 205.252C669.308 209.173 659.219 207.275 650.177 204.808C642.04 209.9 634.044 215.276 626.207 220.864C634.735 217.866 644.451 216.234 652.819 218.327C657.606 219.534 663.705 225.158 656.507 228.422C644.965 233.674 630.959 229.203 619.754 225.956L619.612 225.655C615.977 228.351 612.378 231.066 608.85 233.851C607.13 235.2 605.464 236.583 603.762 237.932C615.445 233.55 628.636 230.871 639.823 233.248C646.224 234.596 654.149 241.711 644.291 246.377C628.53 253.846 609.931 248.736 595.021 245.011C590.163 248.985 585.323 252.994 580.465 256.968C592.042 256.56 616.013 254.289 623.796 254.201C627.448 254.165 635.994 255.017 633.937 260.889C632.802 264.136 626.207 266.903 623.034 267.649C615.959 269.334 589.95 266.921 572.965 263.089C569.508 265.892 566.033 268.677 562.523 271.427C561.228 272.439 559.952 273.468 558.711 274.514C575.802 272.403 609.417 270.54 617.52 273.202C621.633 274.55 628.015 277.832 627.005 283.084C625.941 288.53 617.626 288.211 613.353 289.08C603.513 291.103 572.38 285.816 566.76 284.006C562.416 282.605 558.197 280.209 554.013 278.613C551.229 281.114 548.57 283.704 545.981 286.33C559.42 289.098 590.163 293.303 599.79 295.432C604.169 296.407 614.151 299.849 610.055 306.289C607.786 309.855 599.116 311.31 595.11 311.328C586.617 311.363 558.746 302.156 539.457 293.214C531.478 301.889 523.943 310.955 515.646 319.861C513.128 322.523 508.714 318.85 511.231 316.154Z" fill="#27AE60"/>
<path d="M169.957 95.5395C190.488 87.7333 171.978 78.5787 159.089 74.9417C148.664 71.9967 122.566 67.171 133.151 49.3764C144.249 30.7302 154.869 53.7585 163.699 56.3665C183.432 62.1857 162.901 37.4187 157.99 30.8189C151.27 21.7708 137.157 3.28426 154.586 0.214995C168.698 -2.2688 183.29 17.3887 189.14 27.1819C193.307 34.172 203.572 66.8871 214.245 59.6486C222.33 54.1488 213.962 21.3805 233.251 44.8169C241.088 54.344 239.829 69.6371 243.375 80.5303C248.552 96.4798 250.733 103.097 264.899 98.9991C272.239 96.8701 272.469 87.6623 281.529 93.8895C286.192 97.1007 287.575 111.844 287.539 116.953C287.185 163.986 268.391 195.477 259.527 199.54C247.524 205.039 225.22 197.091 214.955 191.201C209.848 188.274 200.541 183.43 201.196 175.979C201.941 167.641 214.813 168.829 215.274 163.933C216.621 150.041 191.073 163.312 183.999 161.325C174.833 158.752 159.656 142.377 169.266 133.719C170.258 132.832 210.185 129.94 187.332 117.219C174.691 110.176 161.128 129.727 148.93 115.836C131.413 95.8589 162.262 98.4668 169.957 95.5395Z" fill="#27AE60"/>
<path d="M173.356 102.938C182.167 99.2121 191.298 95.8412 200.89 95.0251C194.135 86.5802 187.061 78.2063 181.919 68.8388C180.465 66.1954 184.791 64.368 186.227 66.9938C186.848 68.1292 187.557 69.2469 188.231 70.3646C188.975 67.4905 188.089 63.2148 187.823 60.9262C187.132 55.0183 184.915 49.7136 182.593 44.3025C181.405 41.5348 185.713 39.672 186.901 42.4574C189.915 49.483 192.291 56.1892 192.823 63.8712C193.089 67.6502 193.301 71.7307 191.121 74.8532C198.39 85.6399 207.432 95.5751 215.002 106.043C218.247 100.915 220.623 95.5574 221.704 89.4721C222.892 82.8546 222.094 76.1128 222.768 69.442C223.069 66.4437 227.732 67.0115 227.413 70.0275C226.58 78.0466 227.519 85.9238 225.516 93.8187C223.991 99.7798 221.279 105.049 217.892 110.141C226.597 122.737 234.647 135.83 241.242 149.651C243.441 154.246 245.444 158.93 247.376 163.631C251.756 157.085 255.372 150.272 257.89 142.749C259.291 138.563 260.851 134.145 261.401 129.763C261.826 126.445 261.471 123.323 262.783 120.165C263.936 117.379 268.297 119.118 267.127 121.903C265.532 125.753 266.063 130.774 265.053 134.89C264.078 138.864 262.854 142.82 261.489 146.67C258.67 154.565 254.521 161.715 249.717 168.545C249.646 168.652 249.557 168.687 249.486 168.776C252.766 176.919 255.958 185.08 259.61 193.046C259.894 193.277 260.159 193.561 260.337 193.987C260.691 194.874 261.383 196.116 261.613 197.198C268.12 213.644 274.68 230.073 280.974 246.59C282.038 249.411 277.747 251.256 276.666 248.435C270.389 231.971 263.847 215.596 257.376 199.22C257.34 199.149 257.287 199.114 257.252 199.025C255.177 194.732 253.263 190.367 251.419 185.95C242.891 188.114 233.406 185.63 225.463 182.437C222.662 181.319 224.399 176.955 227.2 178.09C234.115 180.876 242.129 183.04 249.593 181.55C245.497 171.473 241.632 161.289 236.952 151.46C235.09 147.557 233.104 143.725 231.03 139.929C230.87 140.035 230.746 140.159 230.551 140.248C218.921 144.967 206.368 146.865 193.922 144.914C190.943 144.453 191.511 139.787 194.507 140.266C206.173 142.093 217.804 140.372 228.707 135.955C228.725 135.937 228.743 135.955 228.778 135.937C222.378 124.76 215.162 114.044 207.574 103.63C206.279 101.856 204.932 100.099 203.585 98.3605C203.319 98.9992 202.769 99.5314 201.829 99.6024C192.504 100.348 183.763 103.594 175.217 107.213C172.434 108.42 170.572 104.109 173.356 102.938Z" fill="white"/>
<path d="M295.911 300.931C283.944 288.087 273.714 274.408 261.037 262.504C271.994 245.135 276.285 212.544 273.501 209.137C267.243 201.491 259.335 213.413 257.775 219.215C254.956 229.717 256.481 251.681 258.307 260.002C256.8 258.654 255.275 257.341 253.68 256.046C250.205 253.225 246.73 250.386 243.255 247.548C246.499 241.391 254.052 228.653 249.85 207.896C249.141 204.418 247.882 199.859 244.177 198.51C239.035 196.647 238.645 202.413 238.521 206.068C238.29 212.331 238.946 233.833 238.698 243.84C231.748 238.162 224.763 232.485 217.777 226.843C221.696 213.963 226.394 198.333 220.632 185.257C216.855 176.706 210.136 183.838 208.629 189.498C205.952 199.628 207.938 211.515 211.537 221.858C208.221 219.215 204.923 216.571 201.59 213.945C201.005 213.484 200.385 213.023 199.8 212.561C202.264 206.405 205.314 200.728 205.544 193.862C205.775 187.103 202.831 180.946 198.488 175.908C196.573 173.69 194.552 170.745 191.343 170.372C186.839 169.84 188.736 174.666 189.57 177.593C191.36 183.838 192.85 190.314 193.949 196.683C194.552 200.213 195.243 203.496 196.13 206.831C196.36 207.7 196.502 208.889 196.644 210.131C191.875 206.476 187.034 202.91 182.106 199.415C182.407 188.043 182.708 174.293 175.085 164.961C170.085 158.823 166.202 166.168 166.255 171.118C166.326 178.8 169.553 186.766 173.844 193.702C171.663 192.23 169.482 190.775 167.284 189.338C163.543 176.546 159.11 160.65 147.214 153.021C139.643 148.16 138.012 157.652 139.803 163.063C141.576 168.403 144.785 173.389 148.685 177.877C147.639 177.274 146.611 176.635 145.565 176.05C143.101 174.648 140.619 173.335 138.101 172.111C136.417 160.828 134.325 147.149 125.158 139.236C119.166 134.074 116.613 141.969 117.535 146.83C118.989 154.547 123.74 161.999 129.325 168.173C125.389 166.54 121.4 165.05 117.393 163.631C114.609 154.742 111.188 144.026 102.819 138.811C97.3231 135.386 96.2593 142.093 97.6067 145.925C99.5747 151.478 103.723 156.481 108.475 160.579C104.06 159.089 99.6279 157.634 95.2133 156.091C92.6602 152.755 89.7171 149.455 87.0754 146.634C83.9727 143.299 80.0013 140.07 75.1257 140.478C68.6899 141.028 67.4311 145.588 71.0479 150.591C72.6968 152.879 74.8952 154.405 77.3774 155.487C74.8775 155.949 72.5549 156.907 71.0125 158.362C66.7751 162.318 70.6579 166.15 75.2498 167.019C80.3559 167.995 85.6216 166.061 90.5858 165.103C94.2559 164.394 98.1386 164.748 101.826 164.411C104.752 165.405 107.677 166.381 110.602 167.392C102.997 166.913 94.6282 167.818 88.3519 171.543C84.8592 173.601 81.3842 179.438 87.8023 180.343C98.0854 181.78 108.067 175.021 116.116 169.858L116.205 169.361C124.414 172.306 132.498 175.535 140.317 179.704C137.693 179.704 135.105 179.971 132.658 180.592C128.19 181.727 122.517 186.961 129.218 190.012C137.835 193.933 147.923 192.035 156.965 189.569C165.103 194.66 173.099 200.036 180.935 205.625C172.408 202.626 162.692 200.994 154.323 203.088C149.536 204.294 143.438 209.918 150.636 213.182C162.178 218.434 176.184 213.963 187.389 210.716L187.531 210.415C191.165 213.111 194.764 215.826 198.293 218.611C200.012 219.96 201.679 221.343 203.381 222.692C191.697 218.31 178.507 215.631 167.319 218.008C160.919 219.356 152.994 226.471 162.851 231.137C178.613 238.606 197.211 233.496 212.122 229.771C216.98 233.745 221.82 237.754 226.678 241.728C215.1 241.32 191.13 239.049 183.347 238.961C179.694 238.925 171.149 239.777 173.205 245.649C174.34 248.896 180.935 251.664 184.109 252.409C191.183 254.094 217.192 251.681 234.177 247.849C237.634 250.652 241.109 253.438 244.62 256.188C245.914 257.199 247.191 258.228 248.432 259.275C231.34 257.163 197.725 255.301 189.623 257.962C185.51 259.31 179.127 262.592 180.138 267.844C181.201 273.29 189.517 272.971 193.789 273.84C203.629 275.863 234.762 270.576 240.383 268.766C244.726 267.365 248.946 264.97 253.13 263.373C255.914 265.874 258.573 268.465 261.161 271.09C247.723 273.858 216.98 278.063 207.352 280.192C202.973 281.167 192.992 284.609 197.087 291.049C199.356 294.615 208.026 296.07 212.033 296.088C220.525 296.123 248.396 286.916 267.686 277.974C275.664 286.65 283.199 295.715 291.497 304.622C294.014 307.301 298.429 303.646 295.911 300.931Z" fill="#27AE60"/>
<path d="M568.283 300.861C568.283 333.363 549.738 362.831 519.687 384.352C517.187 386.126 514.634 387.882 511.974 389.532C510.414 390.508 508.872 391.448 507.258 392.353C506.762 392.69 506.265 392.956 505.733 393.276C502.79 394.961 499.794 396.576 496.691 398.101C494.369 399.272 491.975 400.372 489.564 401.437C486.018 403.051 482.384 404.541 478.678 405.925C472.969 408.125 467.03 410.059 460.913 411.727C460.31 411.922 459.672 412.082 459.052 412.259C452.261 414.086 445.24 415.612 438.042 416.783C432.546 417.723 426.926 418.451 421.235 419.001C417.547 419.338 413.841 419.604 410.083 419.746C409.551 419.781 409.054 419.799 408.522 419.835C405.225 419.994 401.892 420.065 398.541 420.065H396.537C303.759 419.32 228.852 366.256 228.852 300.878C228.852 235.076 304.84 181.745 398.523 181.745C492.312 181.71 568.283 235.058 568.283 300.861Z" fill="#C28565"/>
<path d="M510.487 300.861C510.487 322.293 498.254 341.72 478.45 355.913C476.801 357.084 475.117 358.237 473.361 359.337C472.333 359.975 471.322 360.596 470.259 361.2C469.922 361.412 469.603 361.608 469.248 361.803C467.316 362.92 465.33 363.985 463.291 364.979C461.748 365.741 460.188 366.487 458.593 367.178C456.252 368.243 453.859 369.219 451.412 370.141C447.653 371.578 443.735 372.873 439.693 373.956C439.285 374.08 438.877 374.186 438.47 374.311C433.984 375.517 429.374 376.528 424.623 377.291C421.006 377.912 417.301 378.391 413.542 378.746C411.113 378.959 408.666 379.154 406.202 379.243C405.847 379.26 405.528 379.278 405.174 379.296C402.993 379.402 400.812 379.438 398.596 379.438H397.284C336.099 378.941 286.723 343.955 286.723 300.843C286.723 257.466 336.826 222.284 398.614 222.284C460.383 222.302 510.487 257.483 510.487 300.861Z" fill="#653937"/>
<path d="M427.527 278.542L475.734 312.446L482.471 311.577L435.506 278.542H427.527Z" fill="#F4E8E1"/>
<path d="M423.129 319.028L471.335 352.932L478.073 352.063L431.089 319.028H423.129Z" fill="#F4E8E1"/>
<path d="M477.051 280.582L472.051 304.072L471.129 308.365L428.738 278.56L434.73 251.877L425.99 244.567L397.25 379.473H398.562C400.778 379.473 402.959 379.437 405.14 379.331C405.494 379.313 405.813 379.296 406.168 379.278L409.146 365.954L424.589 377.309C429.34 376.546 433.968 375.534 438.436 374.328C438.843 374.221 439.251 374.115 439.659 373.973L411.735 354.333L417.586 328.307L460.225 359.603L458.594 367.196C460.19 366.504 461.75 365.777 463.292 364.996C465.331 363.985 468.328 362.317 470.26 361.217L485.791 287.91L477.051 280.582ZM462.973 346.758L420.245 316.686L426.167 290.127L468.434 321.192L462.973 346.758Z" fill="white"/>
<path d="M492.796 287.892L478.453 355.912C476.804 357.083 475.12 358.236 473.364 359.336C472.336 359.975 471.325 360.596 470.262 361.199L485.793 287.892H492.796Z" fill="#F4E8E1"/>
<path d="M485.795 287.892L477.055 280.582H484.076L492.799 287.892H485.795Z" fill="#F4E8E1"/>
<path d="M434.727 251.859H441.748L433.007 244.532H426.004L434.727 251.859Z" fill="#F4E8E1"/>
<path d="M434.729 251.859H441.75L435.757 278.542H428.754L434.729 251.859Z" fill="#F4E8E1"/>
<mask id="mask0_1044_12049" style="mask-type:luminance" maskUnits="userSpaceOnUse" x="284" y="128" width="235" height="252">
<path d="M513.339 298.271C508.251 319.809 500.875 340.477 480.681 355.132C478.997 356.338 477.295 357.527 475.504 358.662C474.458 359.319 473.412 359.958 472.331 360.596C471.994 360.827 471.657 361.004 471.303 361.217C469.335 362.37 467.313 363.47 465.221 364.499C463.661 365.298 462.048 366.043 460.434 366.77C458.041 367.87 455.612 368.881 453.112 369.839C449.282 371.33 445.293 372.66 441.162 373.796C440.755 373.92 440.329 374.044 439.921 374.151C435.365 375.393 430.649 376.439 425.791 377.238C422.103 377.876 418.327 378.373 414.497 378.746C412.015 378.976 409.515 379.154 407.015 379.26C406.661 379.278 406.324 379.296 405.969 379.313C403.753 379.42 401.519 379.473 399.268 379.473H397.92C335.565 378.959 287.731 342.748 285.214 298.288C279.611 199.362 346.185 128.184 409.161 128.184C472.171 128.166 537.398 196.24 513.339 298.271Z" fill="white"/>
</mask>
<g mask="url(#mask0_1044_12049)">
<path d="M433.99 186.022C431.082 176.583 425.125 168.99 420.498 160.439C419.31 158.239 417.856 156.127 416.775 153.856C416.349 152.952 414.097 148.552 411.775 144.028C408.548 137.747 401.651 135.015 395.499 137.588C391.794 139.131 388.886 142.396 387.539 146.512C385.376 153.165 381.032 161.947 378.603 164.767C374.1 170.001 368.603 175.004 365.253 181.231C363.32 184.833 363.302 188.86 362.203 192.746C363.32 189.392 367.203 186.767 369.845 184.815C370.235 187.743 368.71 192.107 368.408 195.123C367.912 200.108 368.639 204.739 370.27 209.405C373.922 219.837 381.369 226.969 387.379 235.804C388.797 237.88 389.737 240.133 391.297 242.12C391.847 242.812 392.822 244.604 393.638 244.568C394.772 244.533 397.627 240.807 398.407 240.062C405.924 232.788 415.498 228.441 420.994 219.003C424.682 212.669 425.746 205.573 428.21 198.831C429.522 202.628 428.972 206.939 429.983 210.789C433.334 202.663 436.667 194.697 433.99 186.022Z" fill="#0D0D0D"/>
<path d="M449.387 328.29C447.897 326.179 446.461 324.351 445.167 322.772C442.153 318.124 440.611 313.44 441.426 308.703L400.028 308.473L380.312 305.705C380.561 306.592 380.791 307.479 381.039 308.366H381.022C381.022 308.366 379.479 318.851 388.965 341.986C401.446 405.11 401.216 470.203 391.535 539.022L405.134 539.448C422.349 464.881 423.253 398.28 417.527 335.546L418.307 335.369C456.106 375.305 441.515 415.329 418.573 460.126L429.317 468.926C485.697 399.646 464.723 349.97 449.387 328.29Z" fill="#0D0D0D"/>
<path d="M426.531 200.392C423.871 202.343 423.783 205.821 424.226 208.535C424.527 210.398 425.166 212.154 425.999 213.84C428.783 219.464 439.119 239.707 447.221 247.726C450.785 251.256 456.246 251.913 460.554 249.358C470.075 243.681 486.013 233.746 490.304 228.476C489.719 227.714 489.932 227.962 489.152 226.968C488.371 225.993 486.74 223.704 485.677 222.551C479.666 227.376 456.37 231.634 456.37 231.634C456.37 231.634 442.7 211.161 439.828 203.053C438.126 198.511 433.286 195.424 426.531 200.392Z" fill="url(#paint1_linear_1044_12049)"/>
<path d="M490.304 228.459C498.159 224.254 504.559 219.091 506.35 209.83C506.669 208.198 503.619 206.353 501.173 208.02C498.726 209.688 495.127 213.769 493.815 217.015C493.478 215.809 494.063 213.662 493.655 212.58C493.265 211.498 492.999 209.937 491.014 211.657C489.028 213.396 486.51 219.215 485.766 222.444C487.202 224.555 488.815 226.383 490.304 228.459Z" fill="white"/>
<path d="M400.29 199.097C402.737 201.297 402.489 204.774 401.779 207.435C401.301 209.245 400.485 210.948 399.492 212.545C396.159 217.867 383.89 236.993 375.043 244.178C371.16 247.336 365.647 247.46 361.622 244.479C352.704 237.88 337.829 226.436 334.07 220.777C334.726 220.085 334.496 220.298 335.365 219.393C336.233 218.488 338.077 216.377 339.247 215.33C344.761 220.724 367.526 227.252 367.526 227.252C367.526 227.252 383.146 208.216 386.798 200.428C388.943 196.099 394.049 193.491 400.29 199.097Z" fill="url(#paint2_linear_1044_12049)"/>
<path d="M334.072 220.759C326.679 215.792 320.81 210.043 319.924 200.658C319.764 199.008 322.973 197.465 325.243 199.363C327.512 201.261 330.685 205.679 331.678 209.032C332.139 207.861 331.767 205.679 332.263 204.632C332.76 203.603 333.185 202.06 334.994 203.976C336.802 205.892 338.735 211.942 339.16 215.224C337.547 217.175 335.756 218.843 334.072 220.759Z" fill="white"/>
<path d="M442.755 312.553C437.755 315.959 432.241 318.053 426.355 319.135C410.416 322.062 392.031 317.556 375.613 311.116C375.613 311.116 378.432 300.861 382.705 291.512C387.545 280.813 393.307 270.382 392.722 258.335C392.439 252.729 390.666 246.874 388.574 241.747C386.854 237.578 386.251 233.355 386.978 228.884C387.51 225.567 388.538 222.338 389.194 219.056C390.222 213.503 397.048 196.773 397.048 196.773L400.789 198.564L404.778 200.445C405.576 200.356 407.314 199.806 407.686 199.043C407.739 198.937 407.775 198.831 407.775 198.706L407.651 196.364L420.079 196.524L420.274 198.476C420.434 199.93 420.203 201.048 421.745 201.119C422.951 201.172 424.44 200.8 425.859 200.321C428.181 199.522 430.309 198.405 430.61 198.422C430.681 198.422 439.351 229.168 437.915 236.975C436.266 246.04 431.621 252.764 430.681 262.238C430.38 265.148 430.947 269.832 431.887 272.582C437.578 289.773 442.755 312.553 442.755 312.553Z" fill="url(#paint3_linear_1044_12049)"/>
<path d="M413.536 222.196C413.536 222.196 399.849 222.622 400.771 198.547L404.76 200.427C405.558 200.339 407.296 199.789 407.668 199.026C407.721 198.919 407.757 198.813 407.757 198.689L407.632 196.347L420.061 196.507L420.256 198.458C420.415 199.913 420.185 201.031 421.727 201.102C422.933 201.155 424.422 200.782 425.841 200.303C427.259 210.984 422.206 221.912 413.536 222.196Z" fill="white"/>
<path d="M407.759 198.689C413.308 200.037 417.191 199.008 420.046 196.489L419.372 187.086L406.926 189.96L407.759 198.689Z" fill="#F7ADAB"/>
<path d="M434.258 164.448C433.424 164.377 432.467 164.679 431.527 165.211C430.322 159.605 427.379 153.644 423.744 149.528C422.219 147.487 420.464 146.157 418.532 145.341C417.486 144.826 416.44 144.489 415.393 144.383C414.667 144.312 413.957 144.294 413.248 144.294C412.539 144.276 411.83 144.294 411.103 144.365C410.057 144.453 408.993 144.773 407.947 145.27C406.015 146.05 404.242 147.363 402.699 149.386C399.011 153.448 395.997 159.374 394.739 164.963C393.799 164.413 392.859 164.093 392.008 164.164C389.189 164.395 388.25 168.795 389.012 172.148C389.969 176.388 393.196 177.736 396.192 178.606C397.558 181.427 399.472 184.176 401.706 186.501C404.047 189.25 407.061 191.308 410.5 192.16C410.607 192.196 410.695 192.213 410.802 192.231C410.997 192.284 411.192 192.338 411.404 192.373C411.546 192.391 411.688 192.391 411.812 192.408C411.936 192.426 412.043 192.426 412.167 192.444C412.433 192.462 412.699 192.479 412.965 192.479C413.23 192.479 413.496 192.462 413.762 192.444C413.886 192.426 413.993 192.426 414.117 192.408C414.259 192.391 414.401 192.391 414.525 192.373C414.737 192.338 414.932 192.284 415.128 192.231C415.234 192.213 415.323 192.196 415.429 192.16C418.886 191.362 421.936 189.339 424.294 186.625C426.545 184.336 428.513 181.604 429.896 178.819C432.893 178.002 436.137 176.69 437.148 172.449C437.963 169.132 437.077 164.714 434.258 164.448Z" fill="white"/>
<path d="M404.827 171.101C404.88 172.041 405.696 172.769 406.653 172.698C407.593 172.645 408.32 171.829 408.267 170.888C408.213 169.948 407.398 169.221 406.44 169.292C405.483 169.363 404.774 170.161 404.827 171.101Z" fill="#0D0D0D"/>
<path d="M418.759 171.208C418.812 172.148 419.627 172.875 420.585 172.804C421.524 172.751 422.251 171.935 422.198 170.995C422.145 170.054 421.329 169.327 420.372 169.398C419.415 169.451 418.688 170.25 418.759 171.208Z" fill="#0D0D0D"/>
<path d="M403.119 167.872C403.101 167.872 403.084 167.854 403.066 167.854C402.818 167.748 402.694 167.446 402.8 167.198C404.147 164.182 406.913 164.306 408.207 164.785C408.473 164.892 408.598 165.175 408.491 165.424C408.385 165.69 408.137 165.814 407.835 165.725C407.746 165.69 405.016 164.714 403.722 167.624C403.633 167.837 403.367 167.961 403.119 167.872Z" fill="#0D0D0D"/>
<path d="M417.853 163.773C417.835 163.756 417.835 163.738 417.818 163.72C417.694 163.472 417.8 163.17 418.048 163.046C421.027 161.556 423.101 163.401 423.775 164.572C423.917 164.82 423.828 165.122 423.58 165.246C423.332 165.388 423.048 165.317 422.888 165.069C422.835 164.98 421.364 162.514 418.491 163.933C418.261 164.057 417.977 163.986 417.853 163.773Z" fill="#0D0D0D"/>
<path d="M407.519 180.522C407.501 180.504 407.501 180.486 407.483 180.468C407.324 180.167 407.448 179.794 407.767 179.635C411.437 177.807 413.955 180.06 414.806 181.515C414.983 181.817 414.877 182.189 414.575 182.349C414.274 182.526 413.919 182.438 413.724 182.118C413.671 182.012 411.845 178.978 408.335 180.735C408.051 180.876 407.696 180.788 407.519 180.522Z" fill="#0D0D0D"/>
<path d="M414.875 178.18C414.609 178.18 414.379 177.967 414.379 177.701C414.379 177.435 414.592 177.222 414.875 177.222C414.893 177.222 415.815 177.204 416.063 176.707C416.17 176.477 416.294 175.767 414.929 174.064C414.769 173.851 414.804 173.549 415.017 173.372C415.23 173.212 415.531 173.248 415.709 173.461C416.985 175.04 417.393 176.246 416.95 177.133C416.435 178.18 414.946 178.18 414.875 178.18Z" fill="#0D0D0D"/>
<path d="M433.073 153.909C431.761 148.143 427.311 142.857 421.212 140.781C415.22 138.741 407.525 139.166 402.064 142.307C395.167 146.281 390.097 156.163 393.643 164.111C394.777 166.648 395.611 170.409 397.632 172.396C398.571 169.486 398.04 166.311 399.227 163.561C401.373 163.224 403.553 162.514 405.539 161.822C408.553 160.775 411.674 158.806 414.103 156.748C416.071 155.08 417.365 153.306 418.819 151.266C417.666 153.75 419.457 158.398 421.177 160.261C422.684 161.875 424.971 162.443 426.495 164.146C427.79 165.601 428.162 167.393 428.233 169.309C428.286 170.888 428.091 172.449 427.648 173.922C427.79 173.425 428.818 172.662 429.137 172.183C429.651 171.456 430.077 170.675 430.467 169.877C431.247 168.244 431.832 166.488 432.204 164.714C432.931 161.449 433.782 157.014 433.073 153.909Z" fill="#0D0D0D"/>
</g>
<path d="M746.857 358.981L781.145 251.521L699.501 244.602L570.377 345.515L558.25 376.208L676.417 391.075L668.138 417.244L664.804 427.729L724.535 433.424L736.325 398.881L764.497 400.336L777.564 362.547L757.636 360.241L746.857 358.981ZM696.008 326.922L687.782 351.654L668.315 349.347L636.597 345.586L709.394 286.614L696.008 326.922Z" fill="#C28565"/>
<path d="M558.25 376.226L560.643 403.742L668.138 417.261L676.417 391.093L558.25 376.226ZM636.597 345.604L668.315 349.365L696.008 326.922L709.394 286.614L636.597 345.604ZM764.48 400.336L736.308 398.881L724.517 433.424L664.787 427.729L667.18 455.246L726.911 460.941L738.701 426.398L766.873 427.853L779.94 390.064L777.546 362.547L764.48 400.336ZM746.857 358.981L757.618 360.241L783.521 279.038L781.128 251.521L746.857 358.981Z" fill="#653937"/>
<path d="M186.975 344.22L213.765 234.649L131.837 233.39L9.98171 342.978L0 374.434L118.912 381.105L112.441 407.788L109.834 418.486L169.813 420.047L179.192 384.777L207.4 384.28L217.843 345.675L197.808 344.752L186.975 344.22ZM134.035 315.745L127.528 340.991L107.955 340.033L76.0596 338.472L144.62 274.603L134.035 315.745Z" fill="#C28565"/>
<path d="M0 374.434L4.29054 401.72L112.458 407.788L118.93 381.105L0 374.434ZM76.0596 338.49L107.955 340.051L134.035 315.763L144.62 274.638L76.0596 338.49ZM207.4 384.263L179.192 384.759L169.813 420.029L109.834 418.468L114.125 445.754L174.104 447.315L183.483 412.046L211.69 411.549L222.133 372.944L217.843 345.657L207.4 384.263ZM186.975 344.22L197.808 344.735L218.055 261.936L213.765 234.649L186.975 344.22Z" fill="#653937"/>
<defs>
<linearGradient id="paint0_linear_1044_12049" x1="403.248" y1="27.5716" x2="403.248" y2="617" gradientUnits="userSpaceOnUse">
<stop offset="0.21875" stop-color="#F4E8E1"/>
<stop offset="1" stop-color="#F4E8E1" stop-opacity="0"/>
</linearGradient>
<linearGradient id="paint1_linear_1044_12049" x1="457.17" y1="296.423" x2="457.17" y2="171.029" gradientUnits="userSpaceOnUse">
<stop stop-color="#FFAE2A"/>
<stop offset="0.3827" stop-color="#FFCC16"/>
<stop offset="0.7627" stop-color="#FFE306"/>
<stop offset="1" stop-color="#FFEC00"/>
</linearGradient>
<linearGradient id="paint2_linear_1044_12049" x1="368.168" y1="296.424" x2="368.168" y2="171.029" gradientUnits="userSpaceOnUse">
<stop stop-color="#FFAE2A"/>
<stop offset="0.3827" stop-color="#FFCC16"/>
<stop offset="0.7627" stop-color="#FFE306"/>
<stop offset="1" stop-color="#FFEC00"/>
</linearGradient>
<linearGradient id="paint3_linear_1044_12049" x1="409.181" y1="296.423" x2="409.181" y2="171.029" gradientUnits="userSpaceOnUse">
<stop stop-color="#FFAE2A"/>
<stop offset="0.3827" stop-color="#FFCC16"/>
<stop offset="0.7627" stop-color="#FFE306"/>
<stop offset="1" stop-color="#FFEC00"/>
</linearGradient>
</defs>
</svg>
