<svg width="270" height="16" viewBox="0 0 270 16" fill="none" xmlns="http://www.w3.org/2000/svg">
<path d="M114.468 8.80652H0.518483C0.233317 8.80652 0 8.57237 0 8.28619C0 8.00001 0.233317 7.76587 0.518483 7.76587H114.468C114.753 7.76587 114.987 8.00001 114.987 8.28619C114.987 8.57237 114.753 8.80652 114.468 8.80652Z" fill="#C28565"/>
<path d="M0.829573 12.9041C0.699953 12.9041 0.557371 12.8521 0.466637 12.748C0.259244 12.5399 0.259244 12.2147 0.466637 12.0195L4.32933 8.14312L0.155545 3.9545C-0.0518483 3.74637 -0.0518483 3.42117 0.155545 3.22604C0.362938 3.01791 0.686992 3.01791 0.894385 3.22604L5.43111 7.77889C5.6385 7.98702 5.6385 8.31222 5.43111 8.50735L1.20547 12.748C1.10178 12.8651 0.959194 12.9041 0.829573 12.9041Z" fill="#C28565"/>
<path d="M5.36619 12.9041C5.23657 12.9041 5.10695 12.8521 5.00326 12.748C4.79586 12.5399 4.79586 12.2147 5.00326 12.0195L8.86595 8.14312L4.69217 3.9545C4.48477 3.74637 4.48477 3.42117 4.69217 3.22604C4.89956 3.01791 5.22361 3.01791 5.41804 3.22604L9.95477 7.77889C10.0585 7.86995 10.1103 8.01303 10.1103 8.14312C10.1103 8.2862 10.0585 8.41629 9.95477 8.50735L5.72913 12.748C5.6384 12.8651 5.49582 12.9041 5.36619 12.9041Z" fill="#C28565"/>
<path d="M9.90306 12.9041C9.77344 12.9041 9.64382 12.8521 9.54012 12.748C9.33273 12.5399 9.33273 12.2147 9.54012 12.0195L13.4028 8.14312L9.22903 3.9545C9.02164 3.74637 9.02164 3.42117 9.22903 3.22604C9.43642 3.01791 9.76048 3.01791 9.96787 3.22604L14.5046 7.77889C14.712 7.98702 14.712 8.31222 14.5046 8.50735L10.279 12.748C10.1753 12.8651 10.0456 12.9041 9.90306 12.9041Z" fill="#C28565"/>
<path d="M14.4397 12.9041C14.3101 12.9041 14.1675 12.8521 14.0767 12.748C13.8694 12.5399 13.8694 12.2147 14.0767 12.0195L17.9394 8.14312L13.7657 3.9545C13.5583 3.74637 13.5583 3.42117 13.7657 3.22604C13.973 3.01791 14.2971 3.01791 14.4915 3.22604L19.0283 7.77889C19.132 7.86995 19.1838 8.01303 19.1838 8.14312C19.1838 8.2862 19.132 8.41629 19.0283 8.50735L14.8026 12.748C14.7119 12.8651 14.5823 12.9041 14.4397 12.9041Z" fill="#C28565"/>
<path d="M108.155 4.74792L103.269 8.28614L108.155 11.8244L118.733 8.28614L108.155 4.74792Z" fill="#C28565"/>
<path d="M269.482 8.80652H155.532C155.247 8.80652 155.013 8.57237 155.013 8.28619C155.013 8.00001 155.247 7.76587 155.532 7.76587H269.482C269.767 7.76587 270 8.00001 270 8.28619C270 8.57237 269.767 8.80652 269.482 8.80652Z" fill="#C28565"/>
<path d="M269.17 12.9041C269.041 12.9041 268.911 12.8521 268.807 12.748L264.582 8.50735C264.478 8.40328 264.426 8.2732 264.426 8.14312C264.426 8.00003 264.478 7.86995 264.582 7.77889L269.119 3.22604C269.326 3.01791 269.65 3.01791 269.844 3.22604C270.052 3.43417 270.052 3.75938 269.844 3.9545L265.671 8.14312L269.533 12.0195C269.741 12.2277 269.741 12.5529 269.533 12.748C269.443 12.8651 269.313 12.9041 269.17 12.9041Z" fill="#C28565"/>
<path d="M264.634 12.9041C264.504 12.9041 264.375 12.8521 264.271 12.748L260.045 8.50735C259.838 8.29922 259.838 7.97401 260.045 7.77889L264.582 3.22604C264.789 3.01791 265.113 3.01791 265.308 3.22604C265.515 3.43417 265.515 3.75938 265.308 3.9545L261.134 8.14312L264.997 12.0195C265.204 12.2277 265.204 12.5529 264.997 12.748C264.906 12.8651 264.763 12.9041 264.634 12.9041Z" fill="#C28565"/>
<path d="M260.097 12.9041C259.967 12.9041 259.838 12.8521 259.734 12.748L255.508 8.50735C255.418 8.40328 255.353 8.2732 255.353 8.14312C255.353 8.00003 255.405 7.86995 255.508 7.77889L260.045 3.22604C260.252 3.01791 260.577 3.01791 260.784 3.22604C260.991 3.43417 260.991 3.75938 260.784 3.9545L256.61 8.14312L260.473 12.0195C260.68 12.2277 260.68 12.5529 260.473 12.748C260.369 12.8651 260.227 12.9041 260.097 12.9041Z" fill="#C28565"/>
<path d="M255.56 12.9041C255.431 12.9041 255.301 12.8521 255.197 12.748L250.972 8.50735C250.764 8.29922 250.764 7.97401 250.972 7.77889L255.508 3.22604C255.716 3.01791 256.04 3.01791 256.247 3.22604C256.455 3.43417 256.455 3.75938 256.247 3.9545L252.073 8.14312L255.936 12.0195C256.144 12.2277 256.144 12.5529 255.936 12.748C255.832 12.8651 255.69 12.9041 255.56 12.9041Z" fill="#C28565"/>
<path d="M161.857 4.74792L166.731 8.28614L161.857 11.8244L151.267 8.28614L161.857 4.74792Z" fill="#C28565"/>
<path d="M135 16C130.606 16 127.028 12.4098 127.028 8C127.028 3.59024 130.606 0 135 0C139.394 0 142.972 3.59024 142.972 8C142.972 12.4098 139.394 16 135 16ZM135 1.45691C131.41 1.45691 128.48 4.39675 128.48 8C128.48 11.6032 131.397 14.5431 135 14.5431C138.591 14.5431 141.52 11.6032 141.52 8C141.52 4.38374 138.591 1.45691 135 1.45691Z" fill="#C28565"/>
<path d="M123.49 12.891C120.794 12.891 118.603 10.6926 118.603 7.98695C118.603 5.28126 120.794 3.08289 123.49 3.08289C126.186 3.08289 128.376 5.28126 128.376 7.98695C128.376 10.6926 126.186 12.891 123.49 12.891ZM123.49 4.55281C121.597 4.55281 120.068 6.10077 120.068 7.99996C120.068 9.89914 121.61 11.4471 123.49 11.4471C125.382 11.4471 126.925 9.89914 126.925 7.99996C126.925 6.10077 125.382 4.55281 123.49 4.55281Z" fill="#C28565"/>
<path d="M125.214 7.98698C125.214 8.93657 124.449 9.71706 123.49 9.71706C122.544 9.71706 121.766 8.93657 121.766 7.98698C121.766 7.03738 122.544 6.2569 123.49 6.2569C124.436 6.2569 125.214 7.03738 125.214 7.98698Z" fill="#C28565"/>
<path d="M146.523 12.891C143.827 12.891 141.636 10.6926 141.636 7.98695C141.636 5.28126 143.827 3.08289 146.523 3.08289C149.219 3.08289 151.41 5.28126 151.41 7.98695C151.41 10.6926 149.219 12.891 146.523 12.891ZM146.523 4.55281C144.631 4.55281 143.101 6.10077 143.101 7.99996C143.101 9.89914 144.644 11.4471 146.523 11.4471C148.416 11.4471 149.958 9.89914 149.958 7.99996C149.958 6.10077 148.416 4.55281 146.523 4.55281Z" fill="#C28565"/>
<path d="M148.247 7.98698C148.247 8.93657 147.47 9.71706 146.523 9.71706C145.577 9.71706 144.799 8.93657 144.799 7.98698C144.799 7.03738 145.577 6.2569 146.523 6.2569C147.47 6.2569 148.247 7.03738 148.247 7.98698Z" fill="#C28565"/>
<path d="M139.446 7.98694C139.446 10.4455 137.45 12.4487 135 12.4487C132.55 12.4487 130.554 10.4455 130.554 7.98694C130.554 5.5284 132.55 3.52515 135 3.52515C137.45 3.52515 139.446 5.5284 139.446 7.98694Z" fill="#C28565"/>
</svg>
