<svg width="21" height="21" viewBox="0 0 21 21" fill="none" xmlns="http://www.w3.org/2000/svg">
<path d="M18.4765 17.7658L12.1874 12.5314L13.6718 11.3205L19.6484 16.3595C20.065 16.7502 20.1041 17.1798 19.7656 17.6486C19.3749 18.0653 18.9453 18.1043 18.4765 17.7658ZM4.37494 0.500153C5.62494 0.526194 6.65358 0.955882 7.46088 1.78922C8.29421 2.59651 8.7239 3.62515 8.74994 4.87515C8.74994 5.57828 8.59369 6.22932 8.28119 6.82828L11.2499 9.28922L18.4765 3.23453C18.9453 2.89599 19.3749 2.93505 19.7656 3.35172C20.1041 3.82047 20.065 4.25015 19.6484 4.64078L8.28119 14.172C8.59369 14.771 8.74994 15.422 8.74994 16.1252C8.7239 17.3752 8.29421 18.4038 7.46088 19.2111C6.65358 20.0444 5.62494 20.4741 4.37494 20.5002C3.12494 20.4741 2.09629 20.0444 1.289 19.2111C0.455668 18.4038 0.0259806 17.3752 -6.10352e-05 16.1252C0.0259806 14.8752 0.455668 13.8465 1.289 13.0392C2.09629 12.2059 3.12494 11.7762 4.37494 11.7502C5.44265 11.7762 6.35411 12.1017 7.10931 12.7267L9.76556 10.5002L7.10931 8.27359C6.35411 8.89859 5.44265 9.22411 4.37494 9.25015C3.12494 9.22411 2.09629 8.79442 1.289 7.96109C0.455668 7.1538 0.0259806 6.12515 -6.10352e-05 4.87515C0.0259806 3.62515 0.455668 2.59651 1.289 1.78922C2.09629 0.955882 3.12494 0.526194 4.37494 0.500153ZM1.87494 4.87515C1.90098 5.57828 2.14838 6.16422 2.61713 6.63297C3.08588 7.10172 3.67181 7.34911 4.37494 7.37515C5.07806 7.34911 5.664 7.10172 6.13275 6.63297C6.6015 6.16422 6.8489 5.57828 6.87494 4.87515C6.8489 4.17203 6.6015 3.58609 6.13275 3.11734C5.664 2.64859 5.07806 2.40119 4.37494 2.37515C3.67181 2.40119 3.08588 2.64859 2.61713 3.11734C2.14838 3.58609 1.90098 4.17203 1.87494 4.87515ZM4.37494 13.6252C3.67181 13.6512 3.08588 13.8986 2.61713 14.3673C2.14838 14.8361 1.90098 15.422 1.87494 16.1252C1.90098 16.8283 2.14838 17.4142 2.61713 17.883C3.08588 18.3517 3.67181 18.5991 4.37494 18.6252C5.07806 18.5991 5.664 18.3517 6.13275 17.883C6.6015 17.4142 6.8489 16.8283 6.87494 16.1252C6.8489 15.422 6.6015 14.8361 6.13275 14.3673C5.664 13.8986 5.07806 13.6512 4.37494 13.6252Z" fill="#C28565"/>
</svg>
