<svg width="118" height="10" viewBox="0 0 118 10" fill="none" xmlns="http://www.w3.org/2000/svg">
<path d="M117.485 5.8331H4.2382C3.95479 5.8331 3.7229 5.59501 3.7229 5.304C3.7229 5.01299 3.95479 4.7749 4.2382 4.7749H117.485C117.768 4.7749 118 5.01299 118 5.304C118 5.59501 117.768 5.8331 117.485 5.8331Z" fill="white"/>
<path d="M117.176 10C117.047 10 116.918 9.94709 116.815 9.84127L112.615 5.5291C112.512 5.42328 112.461 5.291 112.461 5.15873C112.461 5.01323 112.512 4.88095 112.615 4.78836L117.124 0.15873C117.33 -0.0529101 117.652 -0.0529101 117.845 0.15873C118.052 0.37037 118.052 0.70106 117.845 0.899473L113.697 5.15873L117.536 9.10053C117.742 9.31217 117.742 9.64286 117.536 9.84127C117.446 9.96032 117.317 10 117.176 10Z" fill="white"/>
<path d="M112.667 10C112.538 10 112.409 9.94709 112.306 9.84127L108.107 5.5291C107.9 5.31746 107.9 4.98677 108.107 4.78836L112.615 0.15873C112.821 -0.0529101 113.143 -0.0529101 113.337 0.15873C113.543 0.37037 113.543 0.70106 113.337 0.899473L109.189 5.15873L113.027 9.10053C113.234 9.31217 113.234 9.64286 113.027 9.84127C112.937 9.96032 112.796 10 112.667 10Z" fill="white"/>
<path d="M108.158 10C108.029 10 107.9 9.94709 107.797 9.84127L103.598 5.5291C103.508 5.42328 103.443 5.291 103.443 5.15873C103.443 5.01323 103.495 4.88095 103.598 4.78836L108.107 0.15873C108.313 -0.0529101 108.635 -0.0529101 108.841 0.15873C109.047 0.37037 109.047 0.70106 108.841 0.899473L104.693 5.15873L108.532 9.10053C108.738 9.31217 108.738 9.64286 108.532 9.84127C108.429 9.96032 108.287 10 108.158 10Z" fill="white"/>
<path d="M103.649 10C103.521 10 103.392 9.94709 103.289 9.84127L99.0891 5.5291C98.883 5.31746 98.883 4.98677 99.0891 4.78836L103.598 0.15873C103.804 -0.0529101 104.126 -0.0529101 104.332 0.15873C104.538 0.37037 104.538 0.70106 104.332 0.899473L100.184 5.15873L104.023 9.10053C104.229 9.31217 104.229 9.64286 104.023 9.84127C103.92 9.96032 103.778 10 103.649 10Z" fill="white"/>
<path d="M10.5247 1.70654L15.3683 5.30443L10.5247 8.90231L0 5.30443L10.5247 1.70654Z" fill="white"/>
</svg>
