<svg width="270" height="21" viewBox="0 0 270 21" fill="none" xmlns="http://www.w3.org/2000/svg">
<path d="M114.468 10.8065H0.518483C0.233317 10.8065 0 10.5724 0 10.2862C0 10 0.233317 9.76587 0.518483 9.76587H114.468C114.753 9.76587 114.987 10 114.987 10.2862C114.987 10.5724 114.753 10.8065 114.468 10.8065Z" fill="#C28565"/>
<path d="M0.829573 14.9041C0.699953 14.9041 0.557371 14.8521 0.466637 14.748C0.259244 14.5399 0.259244 14.2147 0.466637 14.0195L4.32933 10.1431L0.155545 5.9545C-0.0518483 5.74637 -0.0518483 5.42117 0.155545 5.22604C0.362938 5.01791 0.686992 5.01791 0.894385 5.22604L5.43111 9.77889C5.6385 9.98702 5.6385 10.3122 5.43111 10.5073L1.20547 14.748C1.10178 14.8651 0.959194 14.9041 0.829573 14.9041Z" fill="#C28565"/>
<path d="M5.36632 14.9041C5.2367 14.9041 5.10708 14.8521 5.00338 14.748C4.79599 14.5399 4.79599 14.2147 5.00338 14.0195L8.86608 10.1431L4.69229 5.9545C4.48489 5.74637 4.48489 5.42117 4.69229 5.22604C4.89968 5.01791 5.22373 5.01791 5.41817 5.22604L9.95489 9.77889C10.0586 9.86995 10.1104 10.013 10.1104 10.1431C10.1104 10.2862 10.0586 10.4163 9.95489 10.5073L5.72925 14.748C5.63852 14.8651 5.49594 14.9041 5.36632 14.9041Z" fill="#C28565"/>
<path d="M9.90306 14.9041C9.77344 14.9041 9.64382 14.8521 9.54012 14.748C9.33273 14.5399 9.33273 14.2147 9.54012 14.0195L13.4028 10.1431L9.22903 5.9545C9.02164 5.74637 9.02164 5.42117 9.22903 5.22604C9.43642 5.01791 9.76048 5.01791 9.96787 5.22604L14.5046 9.77889C14.712 9.98702 14.712 10.3122 14.5046 10.5073L10.279 14.748C10.1753 14.8651 10.0456 14.9041 9.90306 14.9041Z" fill="#C28565"/>
<path d="M14.4398 14.9041C14.3102 14.9041 14.1676 14.8521 14.0769 14.748C13.8695 14.5399 13.8695 14.2147 14.0769 14.0195L17.9396 10.1431L13.7658 5.9545C13.5584 5.74637 13.5584 5.42117 13.7658 5.22604C13.9732 5.01791 14.2972 5.01791 14.4917 5.22604L19.0284 9.77889C19.1321 9.86995 19.1839 10.013 19.1839 10.1431C19.1839 10.2862 19.1321 10.4163 19.0284 10.5073L14.8027 14.748C14.712 14.8651 14.5824 14.9041 14.4398 14.9041Z" fill="#C28565"/>
<path d="M108.155 6.74792L103.269 10.2861L108.155 13.8244L118.733 10.2861L108.155 6.74792Z" fill="#C28565"/>
<path d="M269.482 10.8065H155.532C155.247 10.8065 155.013 10.5724 155.013 10.2862C155.013 10 155.247 9.76587 155.532 9.76587H269.482C269.767 9.76587 270 10 270 10.2862C270 10.5724 269.767 10.8065 269.482 10.8065Z" fill="#C28565"/>
<path d="M269.171 14.9041C269.041 14.9041 268.911 14.8521 268.808 14.748L264.582 10.5073C264.478 10.4033 264.426 10.2732 264.426 10.1431C264.426 10 264.478 9.86995 264.582 9.77889L269.119 5.22604C269.326 5.01791 269.65 5.01791 269.845 5.22604C270.052 5.43417 270.052 5.75938 269.845 5.9545L265.671 10.1431L269.533 14.0195C269.741 14.2277 269.741 14.5529 269.533 14.748C269.443 14.8651 269.313 14.9041 269.171 14.9041Z" fill="#C28565"/>
<path d="M264.634 14.9041C264.504 14.9041 264.375 14.8521 264.271 14.748L260.045 10.5073C259.838 10.2992 259.838 9.97401 260.045 9.77889L264.582 5.22604C264.789 5.01791 265.113 5.01791 265.308 5.22604C265.515 5.43417 265.515 5.75938 265.308 5.9545L261.134 10.1431L264.997 14.0195C265.204 14.2277 265.204 14.5529 264.997 14.748C264.906 14.8651 264.763 14.9041 264.634 14.9041Z" fill="#C28565"/>
<path d="M260.097 14.9041C259.967 14.9041 259.838 14.8521 259.734 14.748L255.508 10.5073C255.418 10.4033 255.353 10.2732 255.353 10.1431C255.353 10 255.405 9.86995 255.508 9.77889L260.045 5.22604C260.253 5.01791 260.577 5.01791 260.784 5.22604C260.991 5.43417 260.991 5.75938 260.784 5.9545L256.61 10.1431L260.473 14.0195C260.68 14.2277 260.68 14.5529 260.473 14.748C260.369 14.8651 260.227 14.9041 260.097 14.9041Z" fill="#C28565"/>
<path d="M255.56 14.9041C255.431 14.9041 255.301 14.8521 255.197 14.748L250.972 10.5073C250.764 10.2992 250.764 9.97401 250.972 9.77889L255.508 5.22604C255.716 5.01791 256.04 5.01791 256.247 5.22604C256.455 5.43417 256.455 5.75938 256.247 5.9545L252.073 10.1431L255.936 14.0195C256.144 14.2277 256.144 14.5529 255.936 14.748C255.832 14.8651 255.69 14.9041 255.56 14.9041Z" fill="#C28565"/>
<path d="M161.857 6.74792L166.731 10.2861L161.857 13.8244L151.267 10.2861L161.857 6.74792Z" fill="#C28565"/>
<path d="M143.477 17.7657L137.188 12.5314L138.672 11.3204L144.648 16.3595C145.065 16.7501 145.104 17.1798 144.766 17.6486C144.375 18.0652 143.945 18.1043 143.477 17.7657ZM129.375 0.500122C130.625 0.526164 131.654 0.955851 132.461 1.78918C133.294 2.59648 133.724 3.62512 133.75 4.87512C133.75 5.57825 133.594 6.22929 133.281 6.82825L136.25 9.28918L143.477 3.2345C143.945 2.89596 144.375 2.93502 144.766 3.35168C145.104 3.82043 145.065 4.25012 144.648 4.64075L133.281 14.172C133.594 14.771 133.75 15.422 133.75 16.1251C133.724 17.3751 133.294 18.4038 132.461 19.2111C131.654 20.0444 130.625 20.4741 129.375 20.5001C128.125 20.4741 127.096 20.0444 126.289 19.2111C125.456 18.4038 125.026 17.3751 125 16.1251C125.026 14.8751 125.456 13.8465 126.289 13.0392C127.096 12.2059 128.125 11.7762 129.375 11.7501C130.443 11.7762 131.354 12.1017 132.109 12.7267L134.766 10.5001L132.109 8.27356C131.354 8.89856 130.443 9.22408 129.375 9.25012C128.125 9.22408 127.096 8.79439 126.289 7.96106C125.456 7.15377 125.026 6.12512 125 4.87512C125.026 3.62512 125.456 2.59648 126.289 1.78918C127.096 0.955851 128.125 0.526164 129.375 0.500122ZM126.875 4.87512C126.901 5.57825 127.148 6.16418 127.617 6.63293C128.086 7.10168 128.672 7.34908 129.375 7.37512C130.078 7.34908 130.664 7.10168 131.133 6.63293C131.602 6.16418 131.849 5.57825 131.875 4.87512C131.849 4.172 131.602 3.58606 131.133 3.11731C130.664 2.64856 130.078 2.40116 129.375 2.37512C128.672 2.40116 128.086 2.64856 127.617 3.11731C127.148 3.58606 126.901 4.172 126.875 4.87512ZM129.375 13.6251C128.672 13.6512 128.086 13.8986 127.617 14.3673C127.148 14.8361 126.901 15.422 126.875 16.1251C126.901 16.8282 127.148 17.4142 127.617 17.8829C128.086 18.3517 128.672 18.5991 129.375 18.6251C130.078 18.5991 130.664 18.3517 131.133 17.8829C131.602 17.4142 131.849 16.8282 131.875 16.1251C131.849 15.422 131.602 14.8361 131.133 14.3673C130.664 13.8986 130.078 13.6512 129.375 13.6251Z" fill="#C28565"/>
</svg>
