<svg width="54" height="38" viewBox="0 0 54 38" fill="none" xmlns="http://www.w3.org/2000/svg">
<path d="M10.054 24.822C8.86913 27.8023 7.00198 30.7467 4.5064 33.5835C3.71643 34.4811 3.60871 35.7738 4.25503 36.7792C4.75779 37.5691 5.58358 38 6.48127 38C6.73264 38 6.98403 37.9821 7.2354 37.8923C12.5137 36.3483 24.848 30.8724 25.1891 13.3137C25.3147 6.54518 20.3596 0.728198 13.9141 0.0639108C10.3414 -0.295181 6.78655 0.871739 4.14731 3.24165C1.50817 5.62952 0 9.04076 0 12.5956C0 18.5203 4.20122 23.7089 10.054 24.822Z" fill="#C28565"/>
<path d="M42.5686 0.0639108C39.0137 -0.295181 35.4589 0.871739 32.8198 3.24165C30.1805 5.62952 28.6724 9.04076 28.6724 12.5956C28.6724 18.5203 32.8736 23.7089 38.7265 24.822C37.5415 27.8023 35.6744 30.7467 33.1788 33.5834C32.3888 34.4811 32.2811 35.7737 32.9275 36.7792C33.4301 37.5691 34.2561 38 35.1537 38C35.405 38 35.6564 37.9821 35.9078 37.8923C41.1861 36.3483 53.5203 30.8724 53.8615 13.3136V13.0624C53.8615 6.40151 48.9601 0.728198 42.5686 0.0639108Z" fill="#C28565"/>
</svg>
