<svg width="80" height="80" viewBox="0 0 80 80" fill="none" xmlns="http://www.w3.org/2000/svg">
<path opacity="0.931" fill-rule="evenodd" clip-rule="evenodd" d="M28.5158 4.76562C30.0747 4.80288 31.4028 5.3758 32.5002 6.48438C32.7937 6.80106 32.9761 7.16566 33.047 7.57812C29.503 7.931 26.5081 9.38933 24.0627 11.9531C22.9752 7.92597 24.4595 5.53012 28.5158 4.76562Z" fill="#AB6A49"/>
<path opacity="0.959" fill-rule="evenodd" clip-rule="evenodd" d="M32.4219 9.92188C33.1511 9.92188 33.8802 9.92188 34.6094 9.92188C34.3489 11.0677 34.0886 12.2135 33.8281 13.3594C34.6044 13.5404 35.3856 13.6967 36.1719 13.8281C36.4075 12.625 36.668 11.4271 36.9531 10.2344C37.8814 10.3606 38.7147 10.6992 39.4531 11.25C39.3269 11.6814 39.1706 12.0981 38.9844 12.5C39.6497 12.8004 40.3269 13.0868 41.0156 13.3594C41.2239 13.099 41.4323 12.8385 41.6406 12.5781C42.8275 13.5985 43.7911 14.7964 44.5312 16.1719C45.9719 19.4697 47.3259 22.8031 48.5938 26.1719C49.7394 29.9761 49.7394 33.7783 48.5938 37.5781C48.0848 38.9181 47.3297 40.09 46.3281 41.0938C42.7064 41.127 39.0867 41.2052 35.4688 41.3281C35.1094 41.3291 34.7709 41.2509 34.4531 41.0938C31.6898 39.1642 29.4763 36.7423 27.8125 33.8281C26.5105 31.3281 25.2083 28.8281 23.9062 26.3281C23.1872 24.7381 22.7966 23.0716 22.7344 21.3281C23.0947 21.4052 23.4592 21.4572 23.8281 21.4844C24.0675 20.7661 24.2758 20.0369 24.4531 19.2969C23.9844 19.1927 23.5156 19.0886 23.0469 18.9844C23.147 18.0572 23.4595 17.2238 23.9844 16.4844C24.9094 17.09 25.8209 17.715 26.7188 18.3594C27.1422 17.6948 27.5848 17.0437 28.0469 16.4062C27.0573 15.7552 26.0677 15.1042 25.0781 14.4531C25.9222 13.2183 26.9898 12.2287 28.2812 11.4844C28.9037 12.7295 29.5287 13.9795 30.1562 15.2344C30.8666 14.9184 31.5697 14.5798 32.2656 14.2188C31.5413 13.0048 30.9683 11.7287 30.5469 10.3906C31.2011 10.2792 31.8261 10.1229 32.4219 9.92188ZM41.7969 19.1406C42.8441 19.115 43.8858 19.167 44.9219 19.2969C44.8563 20.1333 44.6219 20.9145 44.2188 21.6406C41.7855 21.1061 39.9886 21.9394 38.8281 24.1406C38.1511 23.8542 37.4739 23.5677 36.7969 23.2812C37.8367 21.1197 39.5034 19.7395 41.7969 19.1406ZM44.7656 22.7344C44.9609 22.7464 45.0911 22.8506 45.1562 23.0469C45.2969 23.7241 45.4272 24.4012 45.5469 25.0781C43.8755 25.3541 42.3911 26.0311 41.0938 27.1094C40.5252 26.5948 40.0303 26.0219 39.6094 25.3906C41.138 24.1316 42.8567 23.2461 44.7656 22.7344ZM30.8594 24.2969C31.7463 24.2709 32.6317 24.297 33.5156 24.375C33.7403 24.4092 33.9486 24.4873 34.1406 24.6094C33.8592 25.3233 33.6248 26.0523 33.4375 26.7969C30.9481 26.1928 29.1252 27.0263 27.9688 29.2969C27.2766 29.0161 26.6255 28.6775 26.0156 28.2812C27.0064 26.1686 28.6211 24.8405 30.8594 24.2969ZM37.1094 25.3906C37.265 25.3772 37.3952 25.4294 37.5 25.5469C38.5156 27.6823 39.5312 29.8177 40.5469 31.9531C39.9464 32.3894 39.2953 32.7541 38.5938 33.0469C37.4647 30.8667 36.397 28.6533 35.3906 26.4062C35.942 26.0236 36.5148 25.6852 37.1094 25.3906ZM33.3594 27.8906C33.5677 27.8906 33.7761 27.8906 33.9844 27.8906C34.095 28.6228 34.1731 29.352 34.2188 30.0781C32.6119 30.5169 31.1536 31.2461 29.8438 32.2656C29.3489 31.6667 28.8542 31.0677 28.3594 30.4688C29.8855 29.3153 31.552 28.4559 33.3594 27.8906ZM41.9531 33.6719C42.0686 33.6514 42.1728 33.6775 42.2656 33.75C42.7709 34.2414 43.2397 34.7622 43.6719 35.3125C41.9309 36.6828 39.9519 37.3859 37.7344 37.4219C37.7344 36.6406 37.7344 35.8594 37.7344 35.0781C39.3309 35.1362 40.7372 34.6675 41.9531 33.6719Z" fill="#AB6A49"/>
<path opacity="0.86" fill-rule="evenodd" clip-rule="evenodd" d="M47.8906 18.0468C48.7789 17.952 49.482 18.2645 50 18.9843C50.3125 19.6093 50.625 20.2343 50.9375 20.8593C51.1652 21.522 51.2173 22.199 51.0938 22.8906C50.9716 23.2931 50.7372 23.6056 50.3906 23.8281C49.4388 21.9653 48.6055 20.0382 47.8906 18.0468Z" fill="#AB6A49"/>
<path opacity="0.849" fill-rule="evenodd" clip-rule="evenodd" d="M22.8906 29.7656C23.0275 29.7451 23.1317 29.7971 23.2031 29.9218C24.1406 31.6926 25.0781 33.4635 26.0156 35.2343C25.0147 35.5517 24.2073 35.2912 23.5938 34.4531C23.0205 33.4632 22.5778 32.4215 22.2656 31.3281C22.333 30.7412 22.5414 30.2203 22.8906 29.7656Z" fill="#AB6A49"/>
<path opacity="0.955" fill-rule="evenodd" clip-rule="evenodd" d="M20.2344 34.9219C21.0363 34.7692 21.5309 35.0817 21.7188 35.8594C23.2327 37.6636 25.0816 38.1323 27.2656 37.2656C28.4564 38.8731 29.8105 40.3314 31.3281 41.6406C24.7625 42.3492 18.2 43.0784 11.6406 43.8281C12.6514 41.85 13.7712 39.9228 15 38.0469C16.4089 36.4189 18.1536 35.3772 20.2344 34.9219Z" fill="#AB6A49"/>
<path opacity="0.972" fill-rule="evenodd" clip-rule="evenodd" d="M51.4844 34.9219C54.2453 34.8958 57.0056 34.9219 59.7656 35C61.8294 35.4719 63.5742 36.4875 65 38.0469C66.2109 39.8956 67.3828 41.7706 68.5156 43.6719C68.3787 43.7892 68.2225 43.8674 68.0469 43.9063C63.7658 44.3003 59.495 44.6649 55.2344 45C53.752 43.8163 52.2416 42.6705 50.7031 41.5625C50.2558 41.3439 49.787 41.1877 49.2969 41.0938C50.5692 39.2299 51.2984 37.1727 51.4844 34.9219Z" fill="#AB6A49"/>
<path opacity="0.974" fill-rule="evenodd" clip-rule="evenodd" d="M34.7654 43.6719C39.7657 43.6458 44.7657 43.6719 49.7654 43.75C50.4707 44.233 51.1477 44.7539 51.7966 45.3125C51.7446 45.3646 51.6924 45.4167 51.6404 45.4688C46.6849 46.1544 41.7371 46.8835 36.7966 47.6563C29.1924 50.4688 21.5884 53.2813 13.9841 56.0938C11.8899 56.2413 9.80658 56.1892 7.73414 55.9375C4.81931 54.2772 4.11619 51.9594 5.62477 48.9844C6.44555 47.8305 7.56534 47.1274 8.98414 46.875C10.7753 46.3502 12.5982 45.9855 14.4529 45.7813C21.2523 45.1275 28.023 44.4244 34.7654 43.6719Z" fill="#AB6A49"/>
<path opacity="0.973" fill-rule="evenodd" clip-rule="evenodd" d="M68.0469 46.1719C73.1719 45.6974 75.3855 47.9891 74.6875 53.0469C74.0636 54.6083 72.9437 55.6239 71.3281 56.0938C69.4531 56.198 67.5781 56.198 65.7031 56.0938C56.7422 55.3099 47.7839 54.5027 38.8281 53.6719C36.378 54.4625 33.93 55.2699 31.4844 56.0938C27.8386 56.198 24.1927 56.198 20.5469 56.0938C26.2359 54.0411 31.913 51.9578 37.5781 49.8438C42.995 49.0625 48.4116 48.2813 53.8281 47.5C58.5969 47.116 63.3364 46.6731 68.0469 46.1719Z" fill="#AB6A49"/>
<path opacity="0.098" fill-rule="evenodd" clip-rule="evenodd" d="M38.6719 56.1718C38.7892 56.0042 38.9455 55.9781 39.1406 56.0937C38.9925 56.1692 38.8363 56.1951 38.6719 56.1718Z" fill="#AB6A49"/>
<path opacity="0.994" fill-rule="evenodd" clip-rule="evenodd" d="M6.48438 58.6719C28.7761 58.6458 51.0678 58.6719 73.3594 58.75C74.0625 59.0364 74.5574 59.5313 74.8438 60.2344C74.948 62.5261 74.948 64.8177 74.8438 67.1094C74.5574 67.8125 74.0625 68.3074 73.3594 68.5938C57.1616 68.6719 40.9636 68.698 24.7656 68.6719C24.8373 66.7063 23.952 65.3781 22.1094 64.6875C21.39 64.5217 20.6608 64.4177 19.9219 64.375C18.6891 61.3424 16.6056 60.5611 13.6719 62.0313C12.9307 62.6947 12.4099 63.5021 12.1094 64.4531C9.2171 64.4299 7.70669 65.8361 7.57813 68.6719C6.34147 68.7699 5.4821 68.2491 5 67.1094C4.89583 64.8177 4.89583 62.5261 5 60.2344C5.31599 59.5281 5.81079 59.0074 6.48438 58.6719Z" fill="#AB6A49"/>
<path opacity="0.882" fill-rule="evenodd" clip-rule="evenodd" d="M15.2343 63.672C15.8807 63.6167 16.5057 63.6948 17.1093 63.9064C17.5302 64.3209 17.6604 64.8157 17.4999 65.3907C16.5363 65.9898 15.8593 66.8232 15.4687 67.8907C14.0227 66.5496 13.9446 65.1434 15.2343 63.672Z" fill="#AB6A49"/>
<path opacity="0.881" fill-rule="evenodd" clip-rule="evenodd" d="M19.7656 66.7971C20.7767 66.6166 21.6361 66.877 22.3438 67.5784C22.6737 68.6906 22.2831 69.3676 21.1719 69.6096C20.175 68.9648 19.0812 68.6002 17.8906 68.5159C17.983 68.0293 18.2434 67.6387 18.6719 67.344C19.0508 67.1545 19.4155 66.9723 19.7656 66.7971Z" fill="#AB6A49"/>
<path opacity="0.876" fill-rule="evenodd" clip-rule="evenodd" d="M10.7034 66.9532C11.1844 66.9157 11.6532 66.9677 12.1096 67.1094C12.5374 68.1965 13.2145 69.108 14.1409 69.8438C12.5488 70.5624 11.1686 70.276 10.0002 68.9844C9.7257 68.0977 9.96008 67.4207 10.7034 66.9532Z" fill="#AB6A49"/>
<path opacity="0.883" fill-rule="evenodd" clip-rule="evenodd" d="M18.0469 70.8594C19.6244 71.1086 20.5619 72.0202 20.8594 73.5938C20.8737 74.0334 20.7175 74.398 20.3906 74.6875C19.4864 75.0909 18.6791 74.9608 17.9688 74.2969C18.0556 73.6573 18.1337 73.0064 18.2031 72.3438C18.165 71.8459 18.113 71.3511 18.0469 70.8594Z" fill="#AB6A49"/>
<path opacity="0.874" fill-rule="evenodd" clip-rule="evenodd" d="M15.5469 71.6406C16.132 73.482 15.4289 74.5758 13.4375 74.9219C12.5182 74.9402 11.9714 74.4975 11.7969 73.5938C11.8647 73.2319 12.021 72.9194 12.2656 72.6562C13.4731 72.6288 14.5669 72.2902 15.5469 71.6406Z" fill="#AB6A49"/>
</svg>
