<svg width="80" height="62" viewBox="0 0 80 62" fill="none" xmlns="http://www.w3.org/2000/svg">
<path d="M14.759 10.1118C17.5505 10.1118 19.8134 7.84883 19.8134 5.05735C19.8134 2.26587 17.5505 0.00292969 14.759 0.00292969C11.9675 0.00292969 9.70459 2.26587 9.70459 5.05735C9.70459 7.84883 11.9675 10.1118 14.759 10.1118Z" fill="#AB6A49"/>
<path d="M15.9123 35.2871L16.6954 25.762L16.4327 25.9148C15.04 26.7257 13.2855 26.3571 12.3258 25.1156L7.57561 18.9838L13.5777 23.4228C14.3663 24.0061 15.4266 24.0644 16.2744 23.5706L27.1412 17.2432C28.3135 16.5606 28.7105 15.0569 28.0279 13.8845C27.3453 12.7122 25.8414 12.315 24.6692 12.9978L15.1995 18.5118L10.4969 15.0341L14.4305 16.5234L17.1942 14.9142C16.6889 13.6546 15.5103 12.7193 14.0659 12.6004L7.49155 12.06C5.45558 11.8926 3.66936 13.4075 3.50193 15.4436L2.33375 34.3902L3.88309 44.4921L0.105632 58.269C-0.324779 59.8388 0.599048 61.4606 2.16893 61.891C3.73985 62.3214 5.36073 61.3967 5.79114 59.8277L9.73446 45.4452C9.84393 45.0459 9.86813 44.6282 9.8053 44.219L8.37396 34.8866L9.52073 34.981L13.037 44.5677L10.0996 58.4376C9.76231 60.0301 10.7801 61.5948 12.3726 61.9321C13.9653 62.2692 15.5298 61.2516 15.8671 59.659L18.98 44.9594C19.0947 44.4175 19.0545 43.8539 18.8638 43.3337L15.9123 35.2871Z" fill="#AB6A49"/>
<path d="M36.9504 33.2564L50.2826 42.062C51.331 42.7545 52.7239 42.6534 53.662 41.7953C54.1596 41.6392 53.4262 42.0727 64.2474 34.931L75.5836 36.6125C77.0022 36.8236 78.3236 35.8432 78.534 34.4242C78.7444 33.0052 77.7647 31.6842 76.3457 31.4738L64.0269 29.6467C63.3937 29.5525 62.7489 29.6958 62.2151 30.0482L56.8183 33.61L54.642 31.9136C52.6978 33.948 53.2991 33.3187 52.4362 34.2218C51.5561 35.1428 50.209 35.3524 49.1158 34.8396L41.2935 31.156L49.5112 32.6194C50.2231 32.7461 50.9535 32.5092 51.4555 31.9839L57.4306 25.7319C58.2566 24.8676 58.2254 23.4975 57.3613 22.6715C56.497 21.8455 55.1269 21.8766 54.3009 22.7408L49.1276 28.1539L42.0526 26.894L47.5802 26.4082L44.0901 23.6874C42.6843 22.5914 40.6564 22.8426 39.5604 24.2483L36.184 28.5794C35.0278 30.0618 35.3799 32.2191 36.9504 33.2564Z" fill="#AB6A49"/>
<path d="M32.1131 26.8723C34.7518 26.8723 36.8908 24.7332 36.8908 22.0946C36.8908 19.4559 34.7518 17.3169 32.1131 17.3169C29.4745 17.3169 27.3354 19.4559 27.3354 22.0946C27.3354 24.7332 29.4745 26.8723 32.1131 26.8723Z" fill="#AB6A49"/>
<path d="M76.9848 45.4394C78.1529 45.8625 79.4423 45.2582 79.865 44.0904C80.2879 42.9226 79.6838 41.6329 78.516 41.2101L67.0552 37.0607C66.398 36.8228 65.6674 36.9039 65.0784 37.2804L52.0881 45.5825L25.6721 28.2092C24.6343 27.5264 23.2397 27.8146 22.5573 28.8525C21.8747 29.8901 22.1627 31.2849 23.2005 31.9673L50.8348 50.1417C51.576 50.6292 52.534 50.6355 53.2818 50.1578L54.6074 49.3107L58.4779 57.4986H52.0559C50.8137 57.4986 49.8069 58.5056 49.8069 59.7476C49.8069 60.9898 50.8139 61.9966 52.0559 61.9966H77.392C78.6342 61.9966 79.641 60.9896 79.641 59.7476C79.641 58.5054 78.634 57.4986 77.392 57.4986H70.506L64.2532 43.146L66.5665 41.6675L76.9848 45.4394Z" fill="#AB6A49"/>
</svg>
