<svg width="80" height="80" viewBox="0 0 80 80" fill="none" xmlns="http://www.w3.org/2000/svg">
<path opacity="0.914" fill-rule="evenodd" clip-rule="evenodd" d="M25.3906 11.797C27.2634 11.6365 29.0342 11.975 30.7031 12.8127C32.2261 13.9055 32.9812 15.3899 32.9688 17.2658C32.1925 16.8125 31.3852 16.4219 30.5469 16.0939C28.593 15.4884 26.6659 14.8113 24.7656 14.0627C24.1109 13.6423 23.59 13.0954 23.2031 12.422C23.9369 12.1611 24.6659 11.9528 25.3906 11.797Z" fill="#AB6A49"/>
<path opacity="0.963" fill-rule="evenodd" clip-rule="evenodd" d="M18.8281 13.3594C19.6163 13.3082 20.3975 13.3603 21.1719 13.5156C21.827 14.7176 22.7645 15.629 23.9844 16.25C26.0442 17.0408 28.1275 17.77 30.2344 18.4375C31.9552 19.127 33.4395 20.1426 34.6875 21.4844C35.3973 22.7351 35.5277 24.0373 35.0781 25.3906C33.5711 24.4811 31.9566 23.8301 30.2344 23.4375C26.0112 22.7895 21.7925 22.1125 17.5781 21.4062C15.34 20.7303 13.3609 19.6104 11.6406 18.0469C12.5747 16.2536 13.9809 14.9775 15.8594 14.2187C16.8481 13.8551 17.8378 13.5687 18.8281 13.3594Z" fill="#AB6A49"/>
<path opacity="0.966" fill-rule="evenodd" clip-rule="evenodd" d="M10.078 20.0781C10.2423 20.0548 10.3986 20.0807 10.5467 20.1562C13.2094 22.3981 16.2823 23.7523 19.7655 24.2187C23.4373 24.6385 27.0831 25.2115 30.703 25.9375C32.7398 26.617 34.5628 27.6587 36.1717 29.0625C36.0398 31.1232 35.1805 32.8159 33.5936 34.1406C32.4653 32.1026 30.7206 30.9829 28.3592 30.7812C26.5492 30.482 24.7264 30.3518 22.8905 30.3906C19.9956 30.4631 17.105 30.6193 14.2186 30.8593C12.4231 30.8598 10.6784 30.5732 8.98422 30C7.07797 28.8153 6.42692 27.1225 7.03109 24.9218C7.73186 23.1025 8.74748 21.4878 10.078 20.0781Z" fill="#AB6A49"/>
<path opacity="0.962" fill-rule="evenodd" clip-rule="evenodd" d="M57.2657 21.6406C61.2764 21.6146 65.2868 21.6406 69.2969 21.7188C65.3082 25.7597 61.2718 29.7441 57.1875 33.6719C57.0269 34.9435 56.7666 36.1935 56.4063 37.4219C54.9739 39.0625 53.4375 40.5989 51.7969 42.0313C50.0674 42.6392 49.3122 42.0403 49.5313 40.2344C50.3346 39.2961 51.0118 38.3066 51.5625 37.2656C48.528 40.3072 44.9602 42.4947 40.8594 43.8281C40.0902 43.8142 39.7257 43.4236 39.7657 42.6563C40.6544 39.2671 42.5294 36.5588 45.3907 34.5313C47.1191 33.3544 48.9421 32.3388 50.8594 31.4844C53.0371 28.221 55.1724 24.9397 57.2657 21.6406Z" fill="#AB6A49"/>
<path opacity="0.963" fill-rule="evenodd" clip-rule="evenodd" d="M78.6721 28.6719C78.8801 32.2244 78.8801 35.792 78.6721 39.375C74.8696 41.3794 71.2237 43.6191 67.7346 46.0938C63.7191 47.8978 59.5524 48.3666 55.2346 47.5C54.0451 46.8463 53.6545 45.8828 54.0627 44.6094C54.9709 43.6495 55.9343 42.738 56.9534 41.875C57.9951 41.1458 59.0366 40.4167 60.0784 39.6875C61.2826 38.8869 62.6107 38.4963 64.0627 38.5156C65.3401 38.6397 66.616 38.7178 67.8909 38.75C71.4684 35.3542 75.0621 31.9948 78.6721 28.6719Z" fill="#AB6A49"/>
<path opacity="0.981" fill-rule="evenodd" clip-rule="evenodd" d="M7.10931 31.6406C8.73702 32.4347 10.4558 32.9295 12.2656 33.125C15.8857 33.0502 19.5056 32.92 23.1249 32.7344C25.5721 32.5564 27.9418 32.8948 30.2343 33.75C30.5662 33.9253 30.8526 34.1597 31.0937 34.4531C31.4843 35.5989 31.8749 36.7448 32.2656 37.8906C33.2854 37.1052 34.327 36.35 35.3906 35.625C37.4026 35.1717 39.4338 34.9113 41.4843 34.8438C39.887 36.552 38.6631 38.5052 37.8124 40.7031C36.8102 43.6456 37.7998 45.4686 40.7812 46.1719C43.3471 45.6959 45.6909 44.7063 47.8124 43.2031C48.7857 44.3005 50.0098 44.7692 51.4843 44.6094C51.5651 47.7152 53.1276 49.5641 56.1718 50.1562C60.0949 50.6 63.8971 50.1313 67.5781 48.75C69.4552 47.7598 71.2262 46.6141 72.8906 45.3125C74.5307 44.4144 76.1452 43.4769 77.7343 42.5C78.0702 42.2795 78.4349 42.1492 78.8281 42.1094C78.8281 48.0469 78.8281 53.9844 78.8281 59.9219C69.0341 60.7678 59.2424 60.7417 49.4531 59.8438C47.0415 59.5811 44.6457 59.2166 42.2656 58.75C41.6926 58.6458 41.1198 58.6458 40.5468 58.75C36.7631 60.4597 32.961 62.1262 29.1406 63.75C24.9215 65.4689 20.5985 66.8752 16.1718 67.9688C13.5197 68.5981 10.8635 68.6502 8.20306 68.125C7.38577 67.7762 6.8389 67.1773 6.56243 66.3281C6.41684 63.1489 6.93766 60.0759 8.12493 57.1094C8.96193 54.7591 9.92548 52.4673 11.0156 50.2344C11.1979 50.4948 11.3801 50.7552 11.5624 51.0156C11.9334 53.6783 13.4438 55.1887 16.0937 55.5469C17.7971 55.302 19.2034 54.5208 20.3124 53.2031C20.2688 54.0822 20.0865 54.9416 19.7656 55.7812C19.8176 55.8594 19.8698 55.9375 19.9218 56.0156C23.5541 54.7467 26.8876 52.9498 29.9218 50.625C30.9456 49.6798 31.8831 48.6642 32.7343 47.5781C29.3479 47.5459 25.9626 47.6761 22.5781 47.9688C20.854 49.6409 19.0832 51.2556 17.2656 52.8125C16.1579 53.4139 15.1944 53.2316 14.3749 52.2656C13.806 50.4508 13.0248 48.732 12.0312 47.1094C11.2917 46.7411 10.5365 46.4027 9.76556 46.0938C9.31873 45.5186 9.18851 44.8675 9.37493 44.1406C9.58459 42.9375 9.81896 41.7395 10.0781 40.5469C9.11838 37.5638 8.12881 34.595 7.10931 31.6406Z" fill="#AB6A49"/>
<path opacity="0.945" fill-rule="evenodd" clip-rule="evenodd" d="M7.10929 39.6093C7.24622 39.5888 7.3504 39.6409 7.42179 39.7656C7.54133 40.046 7.6455 40.3324 7.73429 40.6249C7.08088 42.4882 6.89858 44.3892 7.18741 46.3281C7.38599 46.7863 7.64641 47.2029 7.96866 47.5781C8.38565 47.8656 8.77627 48.1781 9.14054 48.5156C8.54094 50.0263 7.86386 51.4846 7.10929 52.8906C4.75468 51.3434 2.85363 49.3642 1.40616 46.9531C1.05493 46.0398 1.10702 45.1543 1.56241 44.2968C3.25796 42.5207 5.10691 40.9582 7.10929 39.6093Z" fill="#AB6A49"/>
</svg>
