<svg width="80" height="80" viewBox="0 0 80 80" fill="none" xmlns="http://www.w3.org/2000/svg">
<g clip-path="url(#clip0_681_1675)">
<path d="M44.7967 55.4719C43.7326 53.9424 42.7257 52.0087 42.0762 49.644V57.0513C42.6505 56.1363 43.6499 55.5176 44.7967 55.4719Z" fill="#AB6A49"/>
<path d="M52.8189 54.9064V47.6382C51.4879 47.885 49.9191 48.069 48.1152 48.1058C48.7012 50.1677 49.7507 51.9897 51.2517 53.5385C51.8265 54.1291 52.3796 54.5825 52.8189 54.9064Z" fill="#AB6A49"/>
<path d="M23.605 43.6798V37.1974H24.7538V43.9264C27.7787 44.8383 29.9888 47.6488 29.9888 50.967C29.9888 52.6603 29.4116 54.2207 28.4459 55.4654H30.8843V35.2812V30.5863V22.4013C31.031 22.7026 31.1791 23.048 31.325 23.4507C32.0236 25.3875 32.6117 28.5652 32.6093 33.5253C32.6098 34.8927 32.5652 36.394 32.47 38.0429C32.4056 39.1373 33.2407 40.0747 34.334 40.1388C34.3732 40.1408 34.4124 40.1419 34.4511 40.1419C35.4943 40.1419 36.3681 39.3286 36.4296 38.2736C36.4735 37.5192 36.5051 36.7965 36.529 36.095C37.6223 29.561 39.4408 25.9851 40.9677 24.0645L36.7052 45.0145C36.7052 45.0145 36.7595 45.0469 36.8638 45.1022C37.3431 45.357 38.9155 46.1172 41.5122 46.6601C41.4808 45.1014 42.6237 43.7268 44.2041 43.5114C44.344 43.4922 44.4865 43.4823 44.6271 43.4823C46.1754 43.4823 47.5005 44.6403 47.7099 46.1743C47.7597 46.5363 47.8225 46.8918 47.8978 47.2411C50.9969 47.1983 53.4257 46.7236 55.1426 46.2225C55.9108 45.3155 56.8941 44.5975 58.0136 44.1462L53.9278 24.0681C53.9478 24.093 53.967 24.1151 53.9873 24.1405C55.6526 26.2685 57.6482 30.3761 58.6681 38.1166C58.7841 38.9987 59.5936 39.62 60.4764 39.5037C61.3582 39.3869 61.9795 38.5775 61.8635 37.6954C60.7211 29.0339 58.3694 24.2794 56.1023 21.6388C54.0887 19.2809 52.153 18.7029 51.5323 18.5867C50.4748 19.6289 49.03 20.2559 47.4517 20.2559C47.0077 20.2559 46.5621 20.2042 46.1269 20.103C45.0686 19.8565 44.1263 19.3278 43.3719 18.5849C42.7618 18.6967 40.8159 19.2684 38.7915 21.6388C37.8616 22.722 36.9178 24.1623 36.0487 26.0812C35.5462 23.0129 34.7228 20.9122 33.7408 19.4124C32.9262 18.1756 31.974 17.383 31.0935 16.9442C30.2433 16.5152 29.4965 16.4197 29.0504 16.4148C29.0231 16.4138 28.9956 16.4106 28.9681 16.4106H28.5887C27.4808 17.5813 25.9144 18.3139 24.1795 18.3139C22.4444 18.3139 20.8778 17.5813 19.7701 16.4106H19.3905C19.3604 16.4106 19.3311 16.4138 19.3012 16.4153C18.8543 16.4202 18.1098 16.517 17.2632 16.9437C15.9299 17.6049 14.4922 19.0517 13.486 21.6144C12.468 24.1872 11.7841 27.9071 11.7808 33.5243C11.7813 34.9765 11.828 36.5554 11.9292 38.2747C11.991 39.3288 12.865 40.1419 13.907 40.1419C13.9456 40.1419 13.9853 40.1408 14.0245 40.1382C15.1184 40.0739 15.953 39.1357 15.8883 38.0424C15.7913 36.3935 15.7474 34.8916 15.7474 33.5243C15.7386 27.5194 16.6145 24.1475 17.4745 22.3878V30.5863V35.2812V45.7357C18.8029 44.4249 20.626 43.6139 22.6354 43.6139C22.9642 43.6139 23.2873 43.6378 23.605 43.6798Z" fill="#AB6A49"/>
<path d="M24.1795 17.8186C27.2602 17.8186 29.7575 15.3212 29.7575 12.2406C29.7575 9.15995 27.2602 6.6626 24.1795 6.6626C21.0989 6.6626 18.6016 9.15995 18.6016 12.2406C18.6016 15.3212 21.0989 17.8186 24.1795 17.8186Z" fill="#AB6A49"/>
<path d="M52.6464 15.6378C53.3146 12.7711 51.5325 9.9057 48.6661 9.23766C45.7997 8.56962 42.9345 10.352 42.2663 13.2186C41.5982 16.0853 43.3803 18.9507 46.2467 19.6188C49.1131 20.2868 51.9783 18.5045 52.6464 15.6378Z" fill="#AB6A49"/>
<path d="M51.8414 55.4656C51.4316 55.1414 50.9754 54.7433 50.5075 54.263C48.9089 52.613 47.2013 50.0902 46.6817 46.3159C46.5265 45.1797 45.4804 44.3846 44.344 44.5393C43.2086 44.6942 42.4135 45.7403 42.5674 46.8767C43.0646 50.5467 44.5021 53.3863 46.0763 55.4656H51.8414Z" fill="#AB6A49"/>
<path d="M54.438 50.9668C54.438 52.7279 55.1597 54.3203 56.3226 55.4655H65.1837C66.3463 54.3203 67.0683 52.7279 67.0683 50.9668C67.0683 47.4795 64.2409 44.6523 60.7533 44.6523C57.2654 44.6523 54.438 47.4795 54.438 50.9668Z" fill="#AB6A49"/>
<path d="M44.9321 56.2437C43.4988 56.2437 42.3369 57.406 42.3369 58.8388V73.3376H80.0004V58.8388C80.0004 57.406 78.8385 56.2437 77.4053 56.2437H44.9321Z" fill="#AB6A49"/>
<path d="M18.2046 55.4655H27.0657C28.2286 54.3203 28.9503 52.7279 28.9503 50.9668C28.9503 47.4795 26.1229 44.6523 22.6353 44.6523C19.1477 44.6523 16.3203 47.4797 16.3203 50.9668C16.3201 52.7279 17.0418 54.3203 18.2046 55.4655Z" fill="#AB6A49"/>
<path d="M38.456 56.2437H5.98332C4.55003 56.2437 3.38818 57.406 3.38818 58.8388V73.3376H41.0511V58.8388C41.0511 57.4058 39.8895 56.2437 38.456 56.2437Z" fill="#AB6A49"/>
<path d="M70.5937 42.5435C71.0533 42.4745 70.6028 42.0949 70.3235 42.1366C66.5575 42.7003 67.075 36.0477 70.6783 37.5804C70.7933 37.6291 71.1947 37.6878 71.1584 37.4542C70.8335 35.3649 72.0003 33.6734 74.2456 34.1615C75.0267 34.3307 75.7681 34.7859 76.1631 35.492C76.6557 36.3754 76.0733 37.3198 75.4531 37.9473C75.252 38.1505 75.8535 38.32 75.9854 38.2691C77.402 37.7228 78.7795 38.008 78.9155 39.7029C79.0165 40.9675 78.0508 41.9726 76.7888 41.5732C76.4603 41.4689 76.2511 41.7497 76.6079 41.9163C77.7109 42.4333 77.9821 43.4871 77.2526 44.4486C76.2874 45.7208 74.693 45.3442 73.7029 44.3467C73.6183 44.2605 73.411 44.2239 73.2594 44.2439C73.4668 44.0407 73.6609 43.8237 73.8353 43.5896C73.9225 43.4731 73.4517 42.9982 73.4592 42.9881C72.5717 44.1819 71.1981 44.978 69.7601 45.3684C70.6158 44.4686 71.5241 43.3423 71.5072 42.2622C71.5046 42.0686 71.1244 41.7609 71.1234 41.6949C71.1446 43.1168 69.496 44.6575 68.5627 45.6009C68.5044 45.6598 68.8482 46.2126 68.9388 46.2024C70.4219 46.033 71.9567 45.4291 73.09 44.4045C73.1006 44.4305 73.1188 44.4582 73.1507 44.4907C74.2806 45.6292 76.167 46.2364 77.5235 45.0741C78.6552 44.105 78.527 42.8848 77.6156 42.079C78.8392 42.0396 79.7073 41.0612 79.5934 39.638C79.4595 37.9644 77.9582 37.4581 76.5568 37.638C77.6263 35.9901 76.4021 34.3697 74.4654 33.8203C73.5088 33.5496 72.4025 33.5958 71.5368 34.1117C70.4933 34.734 70.3121 35.975 70.4307 37.087C68.7428 36.6163 67.1671 37.3694 66.9997 39.35C66.8217 41.4658 68.5882 42.843 70.5937 42.5435Z" fill="#AB6A49"/>
<path d="M71.7212 40.9286C72.7865 40.2469 74.2717 40.652 74.7168 41.8961C74.812 42.1626 75.1639 42.4284 74.9991 41.969C74.4765 40.5069 72.9093 39.3324 71.4116 40.2892C71.2559 40.3894 71.5959 41.0078 71.7212 40.9286Z" fill="#AB6A49"/>
<path d="M1.98805 48.2709C1.07664 49.0767 0.948437 50.2969 2.08018 51.266C3.43639 52.4281 5.32306 51.8211 6.45298 50.6826C6.4849 50.6501 6.50307 50.6224 6.51371 50.5964C7.647 51.6207 9.18177 52.2246 10.6649 52.3943C10.7557 52.4044 11.0993 51.8514 11.0409 51.7928C10.1077 50.8494 8.45902 49.3087 8.4803 47.8868C8.47926 47.9528 8.09908 48.2603 8.09648 48.4541C8.07961 49.5342 8.98817 50.6605 9.84353 51.5603C8.40556 51.1699 7.03196 50.3738 6.14442 49.18C6.15195 49.1901 5.68119 49.665 5.76838 49.7815C5.94278 50.0156 6.13689 50.2326 6.34424 50.4358C6.19269 50.4161 5.98534 50.4524 5.90074 50.5385C4.91095 51.5361 3.31624 51.9127 2.35111 50.6405C1.62162 49.679 1.89281 48.6252 2.99574 48.1082C3.35257 47.9413 3.14314 47.6605 2.81486 47.7651C1.55284 48.1645 0.587194 47.1594 0.688145 45.8948C0.823871 44.1999 2.20163 43.9145 3.61831 44.461C3.75015 44.5116 4.3517 44.3424 4.15058 44.1392C3.53008 43.5117 2.94773 42.5673 3.44055 41.6839C3.83527 40.9778 4.57696 40.5226 5.35809 40.3534C7.6034 39.865 8.77018 41.5568 8.44527 43.6461C8.40868 43.8797 8.81014 43.821 8.92537 43.7722C12.5287 42.2396 13.0462 48.8919 9.28012 48.3285C9.00089 48.287 8.55011 48.6667 9.00997 48.7354C11.0157 49.0349 12.782 47.6579 12.6037 45.5419C12.4363 43.5613 10.8606 42.8082 9.17268 43.2789C9.29128 42.1669 9.1104 40.9262 8.06664 40.3036C7.2009 39.7877 6.09433 39.7415 5.13803 40.0122C3.20128 40.5615 1.97715 42.1819 3.0466 43.8299C1.64523 43.65 0.143686 44.1563 0.0100361 45.8299C-0.10389 47.2531 0.764442 48.2315 1.98805 48.2709Z" fill="#AB6A49"/>
<path d="M4.60483 48.1609C4.44004 48.62 4.79194 48.3545 4.88718 48.088C5.33224 46.8436 6.81744 46.4388 7.88274 47.1203C8.00809 47.1994 8.34805 46.581 8.19234 46.4811C6.69469 45.5243 5.12749 46.6988 4.60483 48.1609Z" fill="#AB6A49"/>
</g>
<defs>
<clipPath id="clip0_681_1675">
<rect width="80" height="80" fill="white"/>
</clipPath>
</defs>
</svg>
