<svg width="80" height="80" viewBox="0 0 80 80" fill="none" xmlns="http://www.w3.org/2000/svg">
<path opacity="0.893" fill-rule="evenodd" clip-rule="evenodd" d="M43.0469 2.42168C44.0655 2.16473 44.5342 2.55535 44.4531 3.59356C44.295 5.16189 43.8522 6.64626 43.125 8.04668C42.8125 9.2446 42.8125 10.4425 43.125 11.6404C43.9341 13.1561 44.3769 14.7707 44.4531 16.4842C44.4245 18.2131 43.9819 19.8276 43.125 21.3279C42.8931 22.3068 42.8409 23.2964 42.9688 24.2967C43.2098 25.3326 43.5745 26.3222 44.0625 27.2654C44.355 28.2381 44.4592 29.2278 44.375 30.2342C43.8467 30.8568 43.3259 30.8568 42.8125 30.2342C42.7652 29.5476 42.6609 28.8706 42.5 28.2029C42.1355 27.2654 41.7708 26.3279 41.4062 25.3904C41.0938 23.9322 41.0938 22.4737 41.4062 21.0154C41.7708 20.0779 42.1355 19.1404 42.5 18.2029C42.8125 17.0572 42.8125 15.9112 42.5 14.7654C40.7348 11.4856 40.7348 8.20435 42.5 4.92168C42.6497 4.19931 42.7539 3.47014 42.8125 2.73418C42.9245 2.64915 43.0027 2.54498 43.0469 2.42168Z" fill="#AB6A49"/>
<path opacity="0.887" fill-rule="evenodd" clip-rule="evenodd" d="M31.6406 12.1092C32.6279 11.8488 33.0967 12.2133 33.0468 13.203C32.9443 14.3454 32.5017 15.335 31.7187 16.1717C31.4062 16.7967 31.4062 17.4217 31.7187 18.0467C33.4887 20.2802 33.4887 22.5197 31.7187 24.7655C31.6087 25.0433 31.5306 25.3299 31.4843 25.6249C31.9051 26.7239 32.3998 27.7917 32.9687 28.828C33.0729 29.3488 33.0729 29.8697 32.9687 30.3905C31.772 30.9178 31.1992 30.5013 31.25 29.1405C30.9243 28.5411 30.5598 27.9681 30.1562 27.4217C29.6354 26.2238 29.6354 25.026 30.1562 23.828C31.0559 22.9677 31.4204 21.926 31.25 20.703C30.8332 19.9738 30.4167 19.2447 30 18.5155C29.6637 17.4553 29.7157 16.4136 30.1562 15.3905C30.5207 14.8176 30.8854 14.2447 31.25 13.6717C31.2728 13.1159 31.4029 12.595 31.6406 12.1092Z" fill="#AB6A49"/>
<path opacity="0.892" fill-rule="evenodd" clip-rule="evenodd" d="M54.453 12.1095C55.2231 11.9227 55.6919 12.2092 55.8592 12.9689C55.7437 13.5137 55.6134 14.0606 55.4686 14.6095C55.1041 15.1824 54.7394 15.7553 54.3748 16.3282C54.2706 16.9012 54.2706 17.474 54.3748 18.047C55.708 19.5235 56.0725 21.1903 55.4686 23.047C55.1041 23.62 54.7394 24.1928 54.3748 24.7657C54.2706 25.3387 54.2706 25.9115 54.3748 26.4845C55.2331 27.4456 55.7278 28.5654 55.8592 29.8439C55.5526 30.7415 55.0058 30.9237 54.2186 30.3907C54.0945 29.9265 53.9903 29.4578 53.9061 28.9845C52.5895 27.5351 52.225 25.8684 52.8123 23.9845C53.4037 23.1921 53.8464 22.3328 54.1405 21.4064C54.0234 21.1354 53.9453 20.849 53.9061 20.547C52.1353 18.3074 52.1353 16.0678 53.9061 13.8282C53.9239 13.1917 54.1061 12.6188 54.453 12.1095Z" fill="#AB6A49"/>
<path opacity="0.971" fill-rule="evenodd" clip-rule="evenodd" d="M41.1719 34.1408C44.0204 33.9286 46.6766 34.5275 49.1407 35.9376C51.6286 37.9875 51.7329 40.1228 49.4532 42.3439C46.3708 44.262 43.0375 44.8348 39.4532 44.0626C37.499 43.6979 35.8583 42.7864 34.5313 41.3283C33.5465 39.7425 33.6505 38.2322 34.8438 36.797C36.6846 35.2551 38.794 34.3697 41.1719 34.1408Z" fill="#AB6A49"/>
<path opacity="0.962" fill-rule="evenodd" clip-rule="evenodd" d="M33.6721 42.4219C36.1508 44.7144 39.0936 45.8603 42.5002 45.8594C44.9001 45.7867 47.1657 45.1877 49.2971 44.0625C50.0396 43.6331 50.6907 43.0862 51.2502 42.4219C52.7854 43.1762 54.0876 44.2178 55.1565 45.5469C56.7513 48.6808 56.1004 51.2589 53.2033 53.2812C48.9702 55.8572 44.3869 56.7947 39.4533 56.0938C35.8421 55.733 32.743 54.3006 30.1565 51.7969C28.3196 48.9373 28.658 46.3592 31.1721 44.0625C31.9888 43.4731 32.8222 42.9262 33.6721 42.4219ZM31.4846 49.6094C31.6991 49.5848 31.9076 49.6109 32.1096 49.6875C32.8908 50.1823 33.6721 50.677 34.4533 51.1719C34.6724 51.7141 34.4902 52.0786 33.9065 52.2656C32.758 51.8653 31.8466 51.1883 31.1721 50.2344C31.2115 49.9886 31.3155 49.7803 31.4846 49.6094ZM36.6408 52.1094C39.9322 53.1223 43.2655 53.2786 46.6408 52.5781C47.4257 52.7161 47.6341 53.1067 47.2658 53.75C43.6329 54.7664 40.0391 54.6362 36.4846 53.3594C36.3201 53.2128 36.2158 53.0305 36.1721 52.8125C36.2994 52.5558 36.4557 52.3214 36.6408 52.1094Z" fill="#AB6A49"/>
<path opacity="0.972" fill-rule="evenodd" clip-rule="evenodd" d="M28.0469 51.6406C28.8827 52.3975 29.7159 53.2047 30.5469 54.0625C34.1267 56.5402 38.1111 57.7641 42.5 57.7344C46.8889 57.7641 50.8733 56.5402 54.4531 54.0625C55.2764 53.2922 56.0316 52.485 56.7188 51.6406C58.9938 52.5617 60.6605 54.1242 61.7188 56.3281C62.1306 57.858 61.8702 59.2642 60.9375 60.5469C59.4525 62.1362 57.7078 63.3602 55.7031 64.2188C48.2819 66.9252 40.7297 67.3417 33.0469 65.4688C33.3389 64.9005 33.4691 64.3014 33.4375 63.6719C33.055 63.3389 32.6644 63.0264 32.2656 62.7344C32.488 62.3683 32.6442 61.9777 32.7344 61.5625C32.7439 61.2952 32.6397 61.0869 32.4219 60.9375C30.4142 59.8078 28.2789 59.4692 26.0156 59.9219C26.0702 59.0086 25.94 58.1231 25.625 57.2656C25.188 56.4166 24.6933 55.6094 24.1406 54.8438C24.4972 54.3303 24.9139 53.8616 25.3906 53.4375C26.2862 52.835 27.1717 52.2359 28.0469 51.6406ZM36.6406 52.1094C36.4555 52.3214 36.2992 52.5558 36.1719 52.8125C36.2156 53.0305 36.3198 53.2128 36.4844 53.3594C40.0389 54.6363 43.6327 54.7664 47.2656 53.75C47.6339 53.1067 47.4255 52.7161 46.6406 52.5781C43.2653 53.2786 39.932 53.1223 36.6406 52.1094Z" fill="#AB6A49"/>
<path opacity="0.942" fill-rule="evenodd" clip-rule="evenodd" d="M19.9218 55.5469C20.3881 56.0111 20.9089 56.4278 21.4843 56.7969C21.9942 56.522 22.437 56.1575 22.8125 55.7031C24.3031 56.9705 24.8761 58.585 24.5312 60.5469C22.9439 61.6923 21.7198 63.1506 20.8593 64.9219C18.7981 63.4031 17.9387 61.3719 18.2812 58.8281C18.6675 57.6389 19.2143 56.5452 19.9218 55.5469Z" fill="#AB6A49"/>
<path opacity="0.94" fill-rule="evenodd" clip-rule="evenodd" d="M13.9844 60.8591C14.9635 60.7901 15.9009 60.9463 16.7969 61.3279C17.4066 63.1601 18.4222 64.7226 19.8438 66.0154C19.9658 66.241 19.9397 66.4493 19.7656 66.6404C16.0911 68.549 13.1744 67.7416 11.0156 64.2185C11.5433 63.9021 12.0121 63.5115 12.4219 63.0466C12.2205 62.5654 11.9601 62.1226 11.6406 61.7185C12.3913 61.3109 13.1726 61.0245 13.9844 60.8591Z" fill="#AB6A49"/>
<path opacity="0.945" fill-rule="evenodd" clip-rule="evenodd" d="M26.6406 61.1718C27.5275 61.1459 28.413 61.172 29.2969 61.2499C29.9691 61.3351 30.5941 61.5434 31.1719 61.8749C30.9008 62.287 30.6925 62.7296 30.5469 63.2031C30.9589 63.7187 31.4277 64.1615 31.9531 64.5312C31.3423 66.3918 30.0662 67.4596 28.125 67.7343C26.5002 66.376 24.6252 65.5948 22.5 65.3906C22.5803 64.7068 22.8408 64.0818 23.2812 63.5156C23.7761 63.0207 24.2708 62.526 24.7656 62.0312C25.3877 61.6934 26.0127 61.407 26.6406 61.1718Z" fill="#AB6A49"/>
<path opacity="0.979" fill-rule="evenodd" clip-rule="evenodd" d="M61.6406 61.6407C65.1572 61.4042 67.5269 62.9146 68.75 66.172C69.1823 69.082 68.2188 71.3996 65.8594 73.1251C63.0622 74.8043 60.0414 75.8981 56.7969 76.4063C50.6341 77.361 44.4361 77.6735 38.2031 77.3438C34.7572 77.1232 31.3717 76.5763 28.0469 75.7032C28.4342 75.5199 28.8248 75.5199 29.2188 75.7032C29.5144 75.6599 29.7227 75.5037 29.8438 75.2345C30.1414 73.116 29.8548 71.0848 28.9844 69.1407C30.2613 68.6743 31.355 67.9192 32.2656 66.8751C33.77 67.1071 35.2805 67.3676 36.7969 67.6563C43.6238 68.6109 50.2383 67.8296 56.6406 65.3126C58.6355 64.5012 60.302 63.2773 61.6406 61.6407Z" fill="#AB6A49"/>
<path opacity="0.944" fill-rule="evenodd" clip-rule="evenodd" d="M22.5781 66.9531C26.8703 67.3942 28.8495 69.79 28.5156 74.1406C27.2058 73.7811 26.5808 74.3019 26.6406 75.7031C24.7863 75.6747 23.3539 74.8934 22.3438 73.3594C22.5695 72.3377 22.7519 71.2961 22.8906 70.2344C22.8187 69.3341 22.6625 68.4486 22.4219 67.5781C22.4759 67.3673 22.528 67.1589 22.5781 66.9531Z" fill="#AB6A49"/>
<path opacity="0.94" fill-rule="evenodd" clip-rule="evenodd" d="M20.5467 67.7343C20.8005 67.7124 20.9827 67.8166 21.0936 68.0468C22.0102 70.6594 21.3591 72.7688 19.1405 74.3749C18.2473 74.8723 17.3098 75.2629 16.328 75.5468C16.28 74.1426 15.6028 73.6738 14.2967 74.1405C13.8401 72.641 13.9703 71.1826 14.6873 69.7655C14.9478 69.5051 15.2082 69.2448 15.4686 68.9843C17.3208 69.2179 19.0136 68.8012 20.5467 67.7343Z" fill="#AB6A49"/>
</svg>
