<svg width="80" height="80" viewBox="0 0 80 80" fill="none" xmlns="http://www.w3.org/2000/svg">
<path opacity="0.957" fill-rule="evenodd" clip-rule="evenodd" d="M26.6406 5.54688C28.1772 6.16669 29.7137 6.16669 31.25 5.54688C31.7264 5.72033 32.2213 5.82448 32.7344 5.85938C32.5439 9.09097 32.3095 12.3201 32.0312 15.5469C29.9864 15.7014 27.9291 15.7536 25.8594 15.7031C25.5731 12.4249 25.3128 9.14361 25.0781 5.85938C25.6313 5.81991 26.152 5.71575 26.6406 5.54688Z" fill="#AB6A49"/>
<path opacity="0.906" fill-rule="evenodd" clip-rule="evenodd" d="M23.9842 17.1094C27.2654 17.1094 30.5467 17.1094 33.8279 17.1094C33.8743 17.7761 33.8223 18.4272 33.6717 19.0625C30.4946 19.1667 27.3175 19.1667 24.1404 19.0625C23.9898 18.4272 23.9378 17.7761 23.9842 17.1094Z" fill="#AB6A49"/>
<path opacity="0.917" fill-rule="evenodd" clip-rule="evenodd" d="M24.1405 20.5469C27.3697 20.5469 30.5988 20.5469 33.828 20.5469C33.8744 21.2136 33.8224 21.8647 33.6717 22.5C30.4947 22.6042 27.3175 22.6042 24.1405 22.5C23.9369 21.8491 23.9369 21.198 24.1405 20.5469Z" fill="#AB6A49"/>
<path opacity="0.902" fill-rule="evenodd" clip-rule="evenodd" d="M24.1405 23.9844C27.3697 23.9844 30.5988 23.9844 33.828 23.9844C33.8744 24.6511 33.8224 25.3022 33.6717 25.9375C30.4947 26.0417 27.3175 26.0417 24.1405 25.9375C23.9369 25.2866 23.9369 24.6355 24.1405 23.9844Z" fill="#AB6A49"/>
<path opacity="0.975" fill-rule="evenodd" clip-rule="evenodd" d="M24.1405 27.4217C24.355 27.3972 24.5634 27.4233 24.7655 27.4999C22.6575 30.3364 21.1992 33.4875 20.3905 36.953C20.6817 37.6417 21.1244 37.746 21.7186 37.2655C22.5033 34.0213 23.8575 31.0525 25.7811 28.3592C26.0675 28.0728 26.3541 27.7863 26.6405 27.4999C27.0666 27.3721 27.4833 27.398 27.8905 27.578C28.9533 29.5944 29.6564 31.7299 29.9998 33.9842C30.4166 34.6092 30.8331 34.6092 31.2498 33.9842C31.2567 32.9756 31.1005 31.986 30.7811 31.0155C30.352 29.806 29.9094 28.6081 29.453 27.4217C30.0283 27.396 30.6011 27.4219 31.1717 27.4999C32.3103 28.8644 33.2739 30.3488 34.0623 31.953C34.8812 33.7866 35.6364 35.6355 36.328 37.4999C36.7225 37.6399 37.0611 37.5617 37.3436 37.2655C36.5559 33.7621 35.1236 30.5328 33.0467 27.578C33.1509 27.526 33.255 27.4738 33.3592 27.4217C37.9266 29.1519 41.5984 32.0166 44.3748 36.0155C44.808 36.7094 45.1726 37.4386 45.4686 38.203C45.5856 38.3803 45.5597 38.5366 45.3905 38.6717C43.677 37.5447 41.802 36.8155 39.7655 36.4842C39.5705 36.5686 39.3881 36.6728 39.2186 36.7967C38.4245 38.6963 38.0861 40.6755 38.203 42.7342C35.9987 42.6436 33.8634 42.9822 31.7967 43.7499C31.6025 43.9302 31.4462 44.1386 31.328 44.3749C32.0401 48.678 34.2797 51.9072 38.0467 54.0624C31.328 54.1666 24.6092 54.1666 17.8905 54.0624C12.7918 51.4966 10.6304 47.356 11.4061 41.6405C12.0714 37.8877 13.8162 34.7366 16.6405 32.1874C18.9178 30.2417 21.4178 28.6533 24.1405 27.4217Z" fill="#AB6A49"/>
<path opacity="0.968" fill-rule="evenodd" clip-rule="evenodd" d="M50.5469 37.1094C53.0302 39.725 54.9311 42.7458 56.25 46.1719C57.78 50.2392 56.5039 52.9214 52.4219 54.2188C50.3781 54.5602 48.4511 54.2477 46.6406 53.2812C45.2153 52.3058 44.4861 50.9517 44.4531 49.2188C44.7164 46.9706 45.4195 44.8612 46.5625 42.8906C47.7422 40.8533 49.0703 38.9262 50.5469 37.1094Z" fill="#AB6A49"/>
<path opacity="0.939" fill-rule="evenodd" clip-rule="evenodd" d="M40.2344 38.0469C42.111 38.4548 43.8297 39.2102 45.3907 40.3125C45.6605 40.5295 45.8689 40.79 46.0157 41.0938C44.7369 43.1564 43.8255 45.37 43.2813 47.7344C43.1736 48.5405 43.1216 49.3217 43.125 50.0781C39.6893 46.6783 38.7258 42.6678 40.2344 38.0469Z" fill="#AB6A49"/>
<path opacity="0.937" fill-rule="evenodd" clip-rule="evenodd" d="M60.7031 38.0468C60.9569 38.0249 61.1391 38.1291 61.25 38.3593C62.5336 42.8605 61.5441 46.7668 58.2812 50.078C58.0936 46.7807 57.078 43.7599 55.2344 41.0155C56.8188 39.5726 58.6417 38.5829 60.7031 38.0468Z" fill="#AB6A49"/>
<path opacity="0.94" fill-rule="evenodd" clip-rule="evenodd" d="M35.7031 44.1406C36.4342 44.1146 37.1633 44.1407 37.8906 44.2187C38.0662 44.2576 38.2225 44.3357 38.3594 44.4531C38.7533 46.0742 39.4042 47.5846 40.3125 48.9843C41.9095 50.7896 43.6022 52.4823 45.3906 54.0624C38.685 54.3332 34.5183 51.2343 32.8906 44.7656C33.8417 44.534 34.7792 44.3257 35.7031 44.1406Z" fill="#AB6A49"/>
<path opacity="0.941" fill-rule="evenodd" clip-rule="evenodd" d="M63.5156 44.1407C65.2206 44.1052 66.8873 44.3396 68.5156 44.8438C66.7625 51.2827 62.5437 54.3555 55.8594 54.0626C56.6959 53.1223 57.6334 52.2888 58.6719 51.5626C60.9453 49.646 62.3516 47.2241 62.8906 44.297C63.1405 44.3388 63.3488 44.2866 63.5156 44.1407Z" fill="#AB6A49"/>
<path opacity="0.987" fill-rule="evenodd" clip-rule="evenodd" d="M9.29688 55.7031C29.7136 55.6771 50.1303 55.7031 70.5469 55.7813C70.7645 55.9642 70.8948 56.1986 70.9375 56.4844C71.0417 59.0364 71.0417 61.5886 70.9375 64.1406C70.8753 64.5675 70.6409 64.8539 70.2344 65C49.9739 65.1042 29.7136 65.1042 9.45313 65C9.14258 64.7939 8.9603 64.5075 8.90625 64.1406C8.80208 61.5886 8.80208 59.0364 8.90625 56.4844C8.96346 56.1794 9.09368 55.9191 9.29688 55.7031Z" fill="#AB6A49"/>
<path opacity="0.96" fill-rule="evenodd" clip-rule="evenodd" d="M13.9844 66.4844C16.3802 66.4844 18.7761 66.4844 21.1719 66.4844C20.6205 68.0597 20.0216 69.6222 19.375 71.1719C19.4256 72.1589 19.5037 73.1486 19.6094 74.1406C17.5261 74.1406 15.4427 74.1406 13.3594 74.1406C13.416 72.9244 13.5983 71.7264 13.9062 70.5469C13.9843 69.1937 14.0104 67.8395 13.9844 66.4844Z" fill="#AB6A49"/>
<path opacity="0.961" fill-rule="evenodd" clip-rule="evenodd" d="M58.6719 66.4844C61.0677 66.4844 63.4636 66.4844 65.8594 66.4844C65.8334 67.8395 65.8594 69.1937 65.9375 70.5469C66.2455 71.7264 66.4278 72.9244 66.4844 74.1406C64.4011 74.1406 62.3177 74.1406 60.2344 74.1406C60.1917 73.2698 60.348 72.4366 60.7031 71.6406C59.9797 69.9344 59.3027 68.2156 58.6719 66.4844Z" fill="#AB6A49"/>
</svg>
