<svg width="139" height="283" viewBox="0 0 139 283" fill="none" xmlns="http://www.w3.org/2000/svg">
<g opacity="0.2">
<path d="M80.9336 117.013C84.1683 112.426 87.7846 108.121 91.7441 104.143L97.5057 98.1939L98.9218 96.7111L100.245 95.1539C101.116 94.1062 102.038 93.0949 102.876 92.0275C106.212 87.7488 109.093 83.0819 110.732 78.0132C112.371 72.9446 112.562 67.4953 111.338 62.2447C110.095 56.9956 107.784 51.9831 105.264 47.1024L103.32 43.4544L101.31 39.8307C100.02 37.3593 98.6944 34.8651 97.7619 32.2133C95.8545 26.9475 94.8053 21.2966 95.2617 15.7109C95.6408 10.1586 97.2783 4.62594 100.341 0C98.8915 2.36073 97.9151 4.97618 97.1994 7.62499C96.5096 10.2844 96.0259 13.0075 95.9986 15.7518C95.7575 21.239 96.9902 26.6913 99.031 31.7296C100.017 34.2799 101.337 36.6603 102.67 39.0604L104.77 42.6508L106.815 46.2897C109.473 51.1688 111.97 56.236 113.415 61.755C113.682 63.1544 114.022 64.5448 114.205 65.9624L114.381 68.1079L114.467 69.1829C114.487 69.5407 114.446 69.9 114.437 70.2594C114.352 71.6952 114.38 73.1493 114.043 74.5533L113.652 76.6759C113.533 77.3886 113.245 78.0511 113.045 78.7425C111.335 84.2312 108.345 89.1649 104.946 93.6392C104.091 94.7567 103.157 95.8074 102.259 96.8885L100.894 98.5002L99.451 100.016L93.6894 106.021C89.851 109.906 86.3464 114.107 83.2125 118.579C80.0648 122.996 77.5585 127.854 76.1712 133.004C74.7566 138.152 74.655 143.581 75.686 148.841C76.717 154.101 78.7002 159.209 81.1125 164.102C82.418 166.505 83.6461 168.954 85.1016 171.283L87.2107 174.841C87.9203 176.071 88.648 177.287 89.2333 178.58C91.7502 183.664 93.1936 189.193 93.9168 194.759C94.2406 197.545 94.3976 200.347 94.3869 203.152C94.3574 205.945 94.1803 208.735 93.8562 211.51C93.1541 217.035 91.9819 222.49 90.3522 227.816C88.7451 233.122 86.7695 238.337 84.2798 243.281C85.4109 240.753 86.3722 238.158 87.2577 235.548C88.1431 232.939 88.9543 230.292 89.6502 227.622C91.0653 222.298 92.024 216.862 92.5159 211.376C92.7615 208.646 92.8601 205.897 92.8373 203.161C92.7849 200.429 92.5692 197.702 92.1914 194.996C91.3666 189.613 89.8504 184.323 87.3396 179.531C86.7558 178.318 86.0326 177.167 85.3336 176.015L83.1291 172.48C81.6022 170.145 80.3271 167.644 78.9595 165.203C76.4244 160.199 74.2593 154.936 73.1221 149.343C71.9399 143.708 72.0915 137.876 73.5648 132.31C75.0356 126.755 77.692 121.613 80.9336 117.013Z" fill="#C28565"/>
<path d="M60.4209 41.7712C61.3807 42.9462 62.6027 43.9045 63.6914 44.9688C64.8892 45.9301 66.0946 46.8868 67.35 47.7768L71.2406 50.3696C72.6339 51.2582 73.9524 52.2592 75.1827 53.3625C77.6086 55.6156 79.7313 58.3281 81.0049 61.456C82.2789 64.5509 82.8397 67.8929 82.6454 71.234C82.4938 74.5303 81.6933 77.7249 80.5349 80.7255C79.334 83.7094 77.8254 86.5613 75.8771 89.0752C78.6806 83.4228 80.5334 77.2761 80.4864 71.1961C80.4851 68.2059 79.8453 65.2505 78.6098 62.5275C77.3743 59.8044 75.5716 57.3766 73.3223 55.4064C72.2127 54.385 71.0216 53.456 69.7607 52.6287L65.811 49.8829C64.5313 48.8928 63.2956 47.8314 62.0766 46.7625C60.9395 45.5875 59.7295 44.4882 58.7713 43.1448C56.7305 40.6007 55.0899 37.5986 54.5259 34.3221C53.9755 31.085 54.4774 27.584 56.3984 25.002C55.0247 27.8827 55.002 31.1426 55.8435 34.0234C56.6562 36.9512 58.3922 39.5226 60.4209 41.7712Z" fill="#C28565"/>
<path d="M0.950974 140.135C1.54836 136.787 2.8811 133.767 4.36546 130.918C5.86577 128.1 7.51573 125.364 9.30828 122.721C12.8335 117.457 16.6073 112.411 19.8641 107.133C20.6222 105.843 21.5077 104.347 22.5296 103.074C23.5709 101.8 24.7507 100.645 26.0472 99.6312C28.6353 97.6643 31.5538 96.1753 34.6653 95.2342C37.7214 94.3048 40.8769 93.7409 44.0657 93.5542C47.2235 93.34 50.3948 93.4507 53.5299 93.8847C50.3935 93.7426 47.2508 93.8847 44.14 94.3093C41.0455 94.7278 37.9903 95.4131 35.1035 96.5078C32.209 97.5691 29.4935 99.0686 27.1874 101.026C26.0503 102.01 25.0151 103.106 24.0973 104.297C23.1876 105.52 22.5099 106.759 21.723 108.21C18.5859 113.788 14.8455 118.872 11.4916 124.153C9.8056 126.783 8.16507 129.426 6.75955 132.161C5.35402 134.897 4.16078 137.726 3.67407 140.593C3.10701 143.456 3.60736 146.298 5.37525 148.389C7.10372 150.568 9.92386 151.666 12.8046 153.089C18.4616 155.888 24.0943 158.774 29.5375 162.011C31.7663 163.325 33.9623 164.701 36.1254 166.138L36.6106 165.284C37.0927 164.434 37.631 163.606 38.0222 162.719C38.8697 160.974 39.5277 159.142 39.7719 157.261C40.0382 155.39 39.9195 153.484 39.4231 151.661C38.9228 149.842 38.0449 148.095 36.9517 146.473C34.7532 143.208 31.7618 140.449 28.8264 137.58C27.3723 136.12 25.8652 134.674 24.6629 132.856C24.067 131.957 23.5288 130.942 23.3423 129.773C23.2452 129.204 23.2452 128.623 23.3423 128.054C23.4438 127.519 23.4529 126.949 23.6455 126.447C24.2004 124.344 25.3133 122.53 26.4338 120.793C27.5543 119.055 28.9295 117.484 30.2895 115.941C33.0618 112.912 36.0925 110.13 39.3473 107.626C36.3024 110.347 33.4596 113.286 30.8414 116.42C29.5769 118.008 28.326 119.615 27.3087 121.354C26.2913 123.093 25.3376 124.879 24.954 126.779C24.8024 127.244 24.8251 127.722 24.7432 128.189C24.6733 128.63 24.683 129.08 24.7721 129.517C24.9237 130.375 25.3891 131.211 25.9426 131.988C27.0479 133.561 28.5504 134.939 30.0227 136.323C33.0081 139.074 36.186 141.8 38.6878 145.269C39.9311 146.996 40.9894 148.92 41.6368 151.03C42.2681 153.154 42.4488 155.386 42.1675 157.583C41.9127 159.777 41.1956 161.858 40.2919 163.8C39.8674 164.793 39.3064 165.697 38.7924 166.631L38.2678 167.592C40.6376 169.236 42.9513 170.961 45.1604 172.826L46.9647 174.38L48.6902 176.024C49.8667 177.085 50.8932 178.315 51.9743 179.47C54.0029 181.916 55.8087 184.549 57.1157 187.422C55.5464 184.681 53.5572 182.249 51.4087 179.993C49.1617 177.82 46.8495 175.725 44.3129 173.892C42.0916 172.203 39.7764 170.644 37.4157 169.152L37.355 169.264L36.6379 170.573L36.0405 171.937L34.8518 174.667L33.9148 177.499C33.7631 177.973 33.5797 178.437 33.4599 178.921L33.1218 180.375C32.0877 184.225 31.7799 188.232 31.648 192.214C31.598 200.207 33.0505 208.213 35.6099 215.856C38.1374 223.523 41.7035 230.837 45.7609 237.86L47.2907 240.499L48.7902 243.238L49.5392 244.603C49.8042 245.051 50.0333 245.52 50.2246 246.004L51.4284 248.885C51.6195 249.37 51.8484 249.837 52.0076 250.336L52.4413 251.841C52.7172 252.85 53.0477 253.843 53.2752 254.86L53.771 257.959L53.8923 258.732L53.9226 259.516L53.9711 261.087C54.1333 269.444 50.3883 277.797 43.9566 282.911C49.9532 277.332 53.2054 269.114 52.6156 261.134L52.514 259.638L52.464 258.892L52.3215 258.155L51.7574 255.209C51.5103 254.241 51.151 253.298 50.8674 252.342L50.4126 250.915C50.2473 250.442 50.0093 249.996 49.8061 249.535L48.5658 246.797C48.3674 246.336 48.1321 245.891 47.8623 245.467L47.1042 244.166L45.5789 241.569L43.9384 238.963C39.517 231.966 35.891 224.496 33.1278 216.694C30.4199 208.857 28.8734 200.553 28.8825 192.177C29.0341 188.002 29.3919 183.791 30.5003 179.729L30.8687 178.198C30.9945 177.688 31.1917 177.199 31.3493 176.698L32.3576 173.713L33.6282 170.832L34.2756 169.396L35.0519 168.032L35.1914 167.788C32.9747 166.449 30.7322 165.155 28.464 163.905C22.9572 160.928 17.3573 158.115 11.6645 155.467C10.221 154.783 8.86707 154.204 7.34025 153.367C5.87863 152.528 4.42914 151.528 3.29957 150.134C2.13712 148.754 1.33536 147.107 0.966133 145.34C0.59163 143.574 0.658347 141.798 0.950974 140.135Z" fill="#C28565"/>
<path d="M43.7734 48.3284C42.0555 51.8384 41.5203 55.7684 42.4755 59.5271L42.8 60.9387C42.9152 61.4209 43.0744 61.9576 43.2094 62.4549C43.5126 63.4768 43.7597 64.5109 43.9553 65.5601C44.3789 67.6526 44.6164 69.7786 44.6649 71.913C44.7359 74.0482 44.564 76.1846 44.1524 78.281C43.7082 80.3567 43.0775 82.4339 41.9221 84.1942C42.5074 82.1883 42.7439 80.146 42.803 78.1158C42.871 76.0926 42.7736 74.0673 42.5119 72.0601C42.4634 71.5582 42.3845 71.0594 42.2921 70.562C42.1996 70.0647 42.1511 69.5659 42.054 69.0701C41.8387 68.083 41.6795 67.0884 41.3975 66.1165C41.2641 65.6283 41.1549 65.1355 41.0351 64.6458L40.6091 63.1903C40.4665 62.6975 40.3195 62.2411 40.1815 61.718L39.7767 60.1063C39.4643 59.045 39.4522 57.9078 39.3385 56.7995C39.2566 56.246 39.3597 55.6805 39.3703 55.121C39.4249 54.5631 39.3825 53.996 39.5326 53.4532C39.9169 51.2559 40.7205 49.1532 41.8994 47.2595C44.2418 43.6341 47.6528 40.826 51.6607 39.2236C48.3569 41.7724 45.5564 44.8381 43.7734 48.3284Z" fill="#C28565"/>
<path d="M97.9152 61.7191C97.2375 56.5837 96.2065 51.5681 94.4795 46.8452C94.2812 46.2496 94.0488 45.6659 93.7836 45.097L93.0634 43.3715C92.4948 42.2571 91.9808 41.1215 91.3137 40.0677C90.7178 38.9761 90.0082 37.9572 89.3229 36.9246C88.5754 35.9361 87.834 34.943 86.997 34.0287C83.7599 30.2791 79.7481 27.2058 75.3223 24.8299C70.8166 22.4428 66.0018 20.6916 61.0154 19.6263C66.2114 19.5641 71.4256 20.7998 76.2638 22.8952C81.1696 25.0154 85.5446 28.1963 89.0742 32.2092C92.5803 36.2461 95.1316 41.0211 96.5385 46.1795C97.9362 51.233 98.4027 56.4986 97.9152 61.7191Z" fill="#C28565"/>
<path d="M146.344 180.099C145.109 178.959 143.765 177.943 142.331 177.066C139.462 175.247 136.381 173.73 133.259 172.284C126.988 169.45 120.596 166.791 114.224 164.039C111.04 162.647 107.884 161.248 104.72 159.693C101.556 158.139 98.4702 156.358 95.641 154.102C94.2018 152.963 92.8943 151.667 91.7428 150.238C90.5247 148.751 89.6303 147.026 89.1167 145.173C88.6066 143.251 88.6466 141.225 89.232 139.325C89.8021 137.449 90.8149 135.798 92.0006 134.374C93.1753 132.973 94.5083 131.712 95.973 130.617C97.3947 129.527 98.8924 128.54 100.455 127.664C103.537 125.884 106.823 124.545 110.14 123.4C113.485 122.201 116.963 121.744 119.467 119.719C120.732 118.782 121.67 117.47 122.149 115.971C122.62 114.473 122.59 112.808 122.278 111.186C121.654 107.909 120.049 104.799 118.234 101.9C116.366 98.9936 114.268 96.2419 111.958 93.6719C114.5 96.0522 116.804 98.6733 118.839 101.499C120.851 104.337 122.699 107.392 123.595 110.907C124.027 112.655 124.133 114.562 123.641 116.401C123.148 118.24 122.006 119.889 120.561 121.077C119.119 122.29 117.447 123.114 115.746 123.699C114.877 124.02 114.078 124.275 113.265 124.54C112.453 124.806 111.657 125.11 110.856 125.401C107.672 126.634 104.565 128.038 101.668 129.762C98.7704 131.486 96.0367 133.504 94.0247 136.021C93.0301 137.275 92.2158 138.642 91.7883 140.087C91.353 141.518 91.3314 143.042 91.7261 144.484C92.5115 147.4 94.8131 149.911 97.38 151.952C102.567 156.129 109.02 158.749 115.288 161.648C121.556 164.547 127.963 167.214 134.184 170.372C137.294 171.949 140.38 173.617 143.298 175.614C144.784 176.602 146.17 177.733 147.434 178.992C148.691 180.27 149.86 181.75 150.467 183.551C151.048 185.352 150.967 187.301 150.238 189.047C149.533 190.739 148.446 192.171 147.284 193.49C144.881 196.067 142.038 198.11 139.127 199.984L141.165 198.372C141.841 197.835 142.475 197.242 143.136 196.683C143.797 196.123 144.385 195.497 145.012 194.91C145.638 194.324 146.17 193.646 146.737 193.009C147.783 191.67 148.723 190.243 149.263 188.689C149.803 187.17 149.778 185.508 149.195 184.006C148.613 182.518 147.551 181.228 146.344 180.099Z" fill="#C28565"/>
<path d="M103.495 195.287C104.989 193.853 106.65 192.794 108.292 191.8C111.604 189.86 114.923 188.171 118.014 186.152C118.783 185.645 119.591 185.154 120.193 184.649C120.795 184.144 121.329 183.552 121.574 182.981C121.692 182.708 121.752 182.414 121.752 182.116C121.752 181.819 121.692 181.525 121.574 181.251C121.252 180.556 120.808 179.922 120.264 179.382C119.089 178.178 117.579 177.143 116.019 176.216C114.459 175.29 112.797 174.447 111.12 173.649C104.361 170.524 97.2347 168.039 90.0828 165.627C97.5288 166.934 104.879 168.852 111.981 171.678C113.773 172.385 115.521 173.198 117.215 174.113C118.918 175.052 120.598 176.093 122.116 177.535C122.938 178.302 123.596 179.226 124.052 180.254C124.291 180.847 124.423 181.477 124.443 182.116C124.443 182.771 124.315 183.42 124.067 184.026C123.006 186.36 121.016 187.439 119.509 188.478C116.257 190.546 112.838 192.259 109.607 194.065C107.994 194.959 106.423 195.904 105.158 197.047C103.894 198.19 103.008 199.535 102.872 201.123C102.685 202.712 103.251 204.445 103.933 206.09C104.681 207.77 105.577 209.381 106.611 210.902C108.627 214.038 110.984 216.987 113.322 219.956C110.504 217.411 107.891 214.649 105.507 211.694C104.292 210.188 103.217 208.573 102.297 206.871C101.817 205.991 101.43 205.064 101.143 204.104C100.965 203.628 100.91 203.094 100.79 202.587C100.752 202.057 100.655 201.526 100.711 200.982C100.742 198.774 101.999 196.661 103.495 195.287Z" fill="#C28565"/>
<path d="M51.888 81.5713C51.3619 81.0998 50.9783 80.463 50.5234 79.9141C50.1777 79.2712 49.7577 78.6663 49.5424 77.9567C49.0524 76.5951 48.843 75.1484 48.9269 73.7037C48.9784 72.3073 49.1422 70.9746 49.2301 69.6737C49.4666 67.0704 48.9087 64.6217 47.4774 62.4308C47.1408 61.8122 46.7496 61.2284 46.5146 60.5613C46.3857 60.2353 46.2341 59.9184 46.1279 59.5833L45.852 58.5705C45.5317 57.2172 45.4233 55.8224 45.5306 54.4358C45.7665 51.7152 46.6554 49.0918 48.1217 46.7881C46.9846 49.214 46.3023 51.8492 46.325 54.4677C46.3019 57.0626 47.0739 59.6023 48.5372 61.7454C48.8753 62.311 49.2953 62.9205 49.6167 63.5467C49.9325 64.1891 50.1829 64.8616 50.3642 65.5541C50.7162 66.9251 50.8502 68.3429 50.7615 69.7555C50.6402 72.4968 50.1277 75.1229 51.0647 77.3957C51.8228 79.7443 53.9455 81.3651 55.9256 83.1694C57.8967 84.9358 59.9451 86.6567 62.3134 87.4299C63.4991 87.7953 64.753 87.762 65.9857 87.5118C66.6109 87.371 67.2204 87.1678 67.8051 86.9053C68.4083 86.6574 68.9909 86.3618 69.5472 86.0214C71.8412 84.7174 73.8775 82.9541 75.9244 81.218C74.1337 83.2179 72.2021 85.1132 69.9718 86.6961C69.4123 87.0998 68.8193 87.4549 68.1993 87.7574C67.5805 88.0837 66.931 88.3478 66.2601 88.5459C64.8693 88.9513 63.3971 88.9889 61.9874 88.655C59.1582 87.8969 56.984 86.0426 54.9234 84.3354C53.8864 83.4469 52.8978 82.6175 51.888 81.5713Z" fill="#C28565"/>
</g>
</svg>
