<svg width="50" height="60" viewBox="0 0 50 60" fill="none" xmlns="http://www.w3.org/2000/svg">
<path d="M24.2775 1.61897V3.9668C24.2775 4.3268 24.5696 4.61897 24.9296 4.61897C25.2896 4.61897 25.5818 4.3268 25.5818 3.9668V1.61897C25.5818 1.25897 25.2896 0.966797 24.9296 0.966797C24.5696 0.966797 24.2775 1.25897 24.2775 1.61897Z" fill="#C28565"/>
<path d="M11.0313 25.5919L13.1209 23.5545C13.4687 23.2162 13.5922 22.7197 13.4418 22.2589C13.2922 21.798 12.9009 21.4684 12.4218 21.3997L9.53221 20.9797L8.24003 18.3606C8.02525 17.9267 7.59134 17.6562 7.10612 17.6562C6.62177 17.6562 6.18786 17.9267 5.97307 18.3606L4.68177 20.9797L1.7922 21.3997C1.31307 21.4684 0.922639 21.798 0.772204 22.2589C0.621769 22.7189 0.744378 23.2163 1.09133 23.5536L3.18264 25.5919L2.68873 28.471C2.60699 28.9484 2.79916 29.4215 3.19046 29.7058C3.58177 29.991 4.0922 30.0284 4.52264 29.8032L7.10699 28.4441L9.69221 29.8032C10.1339 30.0336 10.6418 29.9841 11.0226 29.7067C11.4139 29.4215 11.6061 28.9484 11.5244 28.471L11.0313 25.5919ZM10.2992 28.6476L7.41134 27.1284C7.2209 27.0284 6.99394 27.0284 6.80351 27.1284L3.97481 28.691L4.52699 25.4745C4.56351 25.2632 4.49307 25.0467 4.33916 24.8971L1.98003 22.6902L5.2096 22.2206C5.42177 22.1902 5.60525 22.0562 5.70003 21.8641L7.09481 18.9858L8.51481 21.8641C8.6096 22.0571 8.79308 22.1902 9.00525 22.2206L12.2122 22.6197L9.87568 24.8971C9.72177 25.0467 9.65134 25.2632 9.68786 25.4745L10.2992 28.6476Z" fill="#AB6A49"/>
<path d="M48.2088 21.3988L45.3183 20.9788L44.0262 18.3596C43.8114 17.9257 43.3775 17.6553 42.8931 17.6553C42.4088 17.6553 41.9749 17.9257 41.7601 18.3596L40.4679 20.9788L37.5783 21.3988C37.0992 21.4674 36.7088 21.797 36.5583 22.2579C36.4079 22.7179 36.5305 23.2153 36.8775 23.5527L38.9688 25.5909L38.4749 28.4709C38.3001 29.4961 39.374 30.2892 40.3088 29.8022L42.8931 28.4431L45.4783 29.8022C46.4088 30.2883 47.487 29.4988 47.3114 28.4701L46.8175 25.5909L48.9088 23.5527C49.2557 23.2144 49.3783 22.7179 49.2279 22.2579C49.0775 21.797 48.687 21.4674 48.2088 21.3988ZM45.6609 24.897C45.507 25.0466 45.4366 25.2631 45.4731 25.4744L46.0844 28.6474L43.1966 27.1283C43.0062 27.0283 42.7792 27.0283 42.5888 27.1283L39.7601 28.6909L40.3123 25.4744C40.3488 25.2631 40.2783 25.0466 40.1244 24.897L37.7653 22.6901L40.9949 22.2205C41.207 22.1901 41.3905 22.057 41.4853 21.864L42.8801 18.9866L44.3001 21.864C44.3949 22.057 44.5783 22.1901 44.7905 22.2205L47.9975 22.6196L45.6609 24.897Z" fill="#AB6A49"/>
<path d="M34.874 7.151L32.954 9.12057C32.7027 9.37883 32.7079 9.791 32.9662 10.0432C33.2183 10.2901 33.6314 10.2936 33.8888 10.031L35.8088 8.06143C36.0601 7.80317 36.0548 7.391 35.7966 7.13883C35.5392 6.88839 35.1262 6.89274 34.874 7.151Z" fill="#C28565"/>
<path d="M13.8409 7.13883C13.5826 7.39013 13.5774 7.80317 13.8287 8.06143L15.7487 10.031C16.0018 10.2901 16.414 10.2927 16.6713 10.0432C16.9296 9.79187 16.9348 9.37883 16.6835 9.12057L14.7635 7.151C14.5122 6.89274 14.0992 6.88839 13.8409 7.13883Z" fill="#C28565"/>
<path d="M16.5505 45.8407L13.3722 40.7998C13.18 40.4955 12.7783 40.405 12.4722 40.5963C12.1679 40.7894 12.0766 41.192 12.2687 41.4963L15.447 46.5372C15.6374 46.8381 16.0374 46.9346 16.347 46.7407C16.6505 46.5477 16.7418 46.145 16.5505 45.8407Z" fill="#C28565"/>
<path d="M17.8349 47.8788C17.6427 47.5745 17.2418 47.4832 16.9349 47.6753C16.6305 47.8684 16.5392 48.271 16.7314 48.5753L17.0922 49.1475C17.2827 49.4484 17.6827 49.5449 17.9922 49.351C18.2966 49.158 18.3879 48.7553 18.1957 48.451L17.8349 47.8788Z" fill="#C28565"/>
<path d="M44.0756 37.5562C43.7156 37.5562 43.4235 37.8483 43.4235 38.2083V39.6762C43.4235 40.0362 43.7156 40.3283 44.0756 40.3283C44.4356 40.3283 44.7278 40.0362 44.7278 39.6762V38.2083C44.7278 37.8483 44.4356 37.5562 44.0756 37.5562Z" fill="#C28565"/>
<path d="M43.9817 36.0486C44.3234 35.9321 44.5043 35.5608 44.3869 35.2208C43.7817 33.4547 42.4391 32.1086 40.8521 31.4365C40.5208 31.2982 40.1374 31.4521 39.9974 31.7834C39.8582 32.1156 40.0139 32.4982 40.3443 32.6382C41.613 33.173 42.6756 34.2512 43.1539 35.6425C43.2721 35.9912 43.6513 36.1651 43.9817 36.0486Z" fill="#C28565"/>
<path d="M40.2635 50.0676C40.8722 49.3981 41.2461 48.5198 41.2461 47.5459V37.285C41.2461 35.6937 39.9678 34.4242 38.3852 34.4242C37.8113 34.4242 37.2809 34.5894 36.8287 34.885C36.7243 33.4068 35.4896 32.2329 33.9765 32.2329C33.307 32.2329 32.6896 32.459 32.2026 32.8503C31.4896 31.1285 29.3678 30.659 28.0026 31.5459V27.9894L30.8287 29.4677C31.2635 29.7024 31.7678 29.6677 32.1678 29.3894C32.5591 29.1024 32.7504 28.6242 32.6722 28.1459L31.5504 21.6416L36.2809 17.0416C36.2809 17.0416 36.2896 17.0416 36.2896 17.0329C36.6287 16.6937 36.7504 16.1981 36.5939 15.7285C36.4374 15.2763 36.0548 14.9546 35.5852 14.885L29.0548 13.9372L26.133 8.02417C25.9156 7.58939 25.4809 7.31982 25.0026 7.31982C24.5156 7.31982 24.0809 7.58939 23.8722 8.02417L20.9504 13.9372L14.4287 14.885C13.9417 14.9546 13.5504 15.2763 13.4026 15.7372C13.2461 16.1981 13.3678 16.7024 13.7243 17.0416L18.4374 21.6416L17.3243 28.1546C17.2461 28.6416 17.4461 29.1111 17.8461 29.3981C18.2374 29.6677 18.7417 29.7024 19.1591 29.4763L22.2809 27.8329V37.1894L20.8722 35.6068C19.6287 34.2329 17.5243 34.059 16.0809 35.2242C14.7417 36.3024 14.3852 38.2329 15.2635 39.7372L21.4635 49.5633C21.5852 49.7546 21.7243 49.9285 21.8722 50.0937C21.1156 50.3024 20.5504 50.9981 20.5504 51.8242V57.2329C20.5504 58.2242 21.3591 59.0329 22.3591 59.0329H39.8548C40.8548 59.0329 41.6635 58.2242 41.6635 57.2329V51.8242C41.6635 50.972 41.0635 50.2503 40.2635 50.0676ZM24.653 54.9937C24.653 55.3537 24.3609 55.6459 24.0009 55.6459C23.6409 55.6459 23.3487 55.3537 23.3487 54.9937V54.0581C23.3487 53.6981 23.6409 53.4059 24.0009 53.4059C24.3609 53.4059 24.653 53.6981 24.653 54.0581V54.9937ZM39.9417 47.5459C39.9417 48.9024 38.8548 49.9981 37.5069 50.0155H24.6374C23.7939 50.0068 23.02 49.5807 22.5678 48.8677L16.3765 39.059C15.8374 38.1285 16.0548 36.9111 16.8983 36.2416C17.8113 35.5024 19.1243 35.6242 19.8983 36.485L22.4548 39.3198C22.6287 39.5285 22.9156 39.5981 23.1678 39.4937C23.42 39.3981 23.5852 39.1546 23.5852 38.885C23.5852 38.7285 23.5852 38.6763 23.5852 38.6763C23.5939 37.9807 23.5852 35.2677 23.5939 26.1285C23.5939 25.1633 24.3678 24.3372 25.3504 24.4677H25.3591C26.0635 24.5633 26.6983 25.1807 26.6983 26.0068V33.9372V33.9633V40.5807C26.6983 40.9372 26.9939 41.2329 27.3504 41.2329C27.7156 41.2329 28.0026 40.9372 28.0026 40.5807V33.9372C28.0026 33.085 28.6983 32.3894 29.5591 32.3894C30.42 32.3894 31.1156 33.0763 31.1156 33.9372C31.1156 34.0937 31.0896 40.5981 31.0896 40.5981C31.0983 40.9459 31.3852 41.2329 31.7417 41.2329C32.0983 41.2329 32.3939 40.9372 32.3939 40.5807C32.3939 40.4503 32.42 35.2155 32.42 35.085C32.42 34.2329 33.1156 33.5372 33.9765 33.5372C34.8113 33.5372 35.533 34.2068 35.533 35.085C35.5243 35.6677 35.4983 40.5807 35.4983 40.5807C35.4983 40.9372 35.7939 41.2329 36.1504 41.2329C36.5156 41.2329 36.8026 40.9372 36.8026 40.5807C36.8113 40.4416 36.8374 37.4155 36.8374 37.285C36.8374 36.4242 37.533 35.7285 38.3852 35.7285C39.2461 35.7285 39.9417 36.4242 39.9417 37.285V47.5459Z" fill="#C28565"/>
</svg>
