<svg width="60" height="60" viewBox="0 0 60 60" fill="none" xmlns="http://www.w3.org/2000/svg">
<path d="M17.1094 42.7734C10.3246 42.7734 4.80469 48.2933 4.80469 55.0781V58.2422C4.80469 59.213 5.59172 60 6.5625 60H11.8359V56.8359C11.8359 55.8652 12.623 55.0781 13.5938 55.0781C14.5645 55.0781 15.3516 55.8652 15.3516 56.8359V60H28.2422V52.1989L20.3876 42.7734H17.1094Z" fill="#C28565"/>
<path d="M42.8906 42.7734H39.6124L31.7578 52.1989V60H44.6484V56.8359C44.6484 55.8652 45.4355 55.0781 46.4062 55.0781C47.377 55.0781 48.1641 55.8652 48.1641 56.8359V60H53.4375C54.4083 60 55.1953 59.213 55.1953 58.2422V55.0781C55.1953 48.2933 49.6754 42.7734 42.8906 42.7734Z" fill="#C28565"/>
<path d="M35.036 40.6685C33.4717 41.2706 31.7739 41.6016 30 41.6016C28.2261 41.6016 26.5283 41.2706 24.964 40.6686V42.7735L30 48.8167L35.036 42.7735V40.6685Z" fill="#AB6A49"/>
<path d="M13.0078 29.883C12.8464 29.883 12.687 29.8747 12.5289 29.8618C13.0421 34.0267 15.3756 37.6276 18.7098 39.844H21.4482V38.6924C18.6894 36.5723 16.7365 33.4543 16.1342 29.883H13.0078Z" fill="#AB6A49"/>
<path d="M17.6953 15.8203H21.2109H22.1991C25.5349 15.8203 28.6711 14.5213 31.0296 12.1625L32.7543 10.4379C33.6027 9.58945 35.033 9.8216 35.5695 10.8948L36.9075 13.5712C37.6013 14.9585 38.9958 15.8203 40.5469 15.8203H42.3047H46.9922C47.1609 15.8203 47.3277 15.8291 47.4929 15.8432C46.6215 6.94945 39.1226 0 30 0C20.8774 0 13.3785 6.94945 12.5071 15.8432C12.6723 15.8291 12.839 15.8203 13.0078 15.8203H17.6953Z" fill="#AB6A49"/>
<path d="M13.0078 26.3672H15.9375V19.3359H13.0078C11.7134 19.3359 10.6641 20.3852 10.6641 21.6797V24.0234C10.6641 25.3179 11.7134 26.3672 13.0078 26.3672Z" fill="#AB6A49"/>
<path d="M31.7578 32.2266C31.7578 31.2558 32.5448 30.4688 33.5156 30.4688H40.1341C40.4026 29.5385 40.5469 28.5557 40.5469 27.5391V19.3359C37.674 19.3359 35.0479 17.7128 33.763 15.1433L33.5156 14.6484C30.5142 17.6498 26.4436 19.3359 22.1991 19.3359H19.4531V27.5391C19.4531 33.364 24.1751 38.0859 30 38.0859C33.3975 38.0859 36.4192 36.4791 38.3481 33.9844H33.5156C32.5448 33.9844 31.7578 33.1973 31.7578 32.2266Z" fill="#C28565"/>
<path d="M38.5518 39.8438H41.2902C42.2891 39.1796 43.1974 38.3905 43.9948 37.5H39.9122C39.4847 37.9253 39.0307 38.3241 38.5519 38.6921V39.8438H38.5518Z" fill="#AB6A49"/>
<path d="M44.0626 19.3359V26.3672H45.8204V29.8828C45.8204 30.2059 45.5575 30.4688 45.2344 30.4688H40.1342C39.7617 31.7596 39.1491 32.9484 38.3481 33.9844H45.2344C47.496 33.9844 49.336 32.1444 49.336 29.8828V21.6797C49.336 20.3852 48.2867 19.3359 46.9922 19.3359H44.0626Z" fill="#AB6A49"/>
</svg>
