<svg width="60" height="60" viewBox="0 0 60 60" fill="none" xmlns="http://www.w3.org/2000/svg">
<g clip-path="url(#clip0_42_21857)">
<path d="M29.9998 46.0798L38.0366 60L43.6015 53.2122L52.2623 51.7868L45.4031 39.9062L29.9998 46.0798Z" fill="#C28565"/>
<path d="M29.9998 46.0798L21.9629 60L16.398 53.2122L7.73718 51.7868L14.5964 39.9062L29.9998 46.0798Z" fill="#AB6A49"/>
<path d="M29.9997 1.16875e-06C27.6068 -0.00117071 25.2103 0.878908 23.3657 2.65899C18.3478 1.95234 13.5407 5.39531 12.6665 10.4484C8.1841 12.825 6.32199 18.4348 8.57785 23.0414C6.33722 27.6094 8.15597 33.225 12.6689 35.6426C13.5431 40.6547 18.3196 44.1223 23.3892 43.4297C25.2138 45.1957 27.6044 46.0805 29.9997 46.0793L45.682 23.9542L29.9997 1.16875e-06Z" fill="#C28565"/>
<path d="M47.3318 35.6285C46.4587 40.6816 41.6505 44.1258 36.6337 43.4191C34.7916 45.1934 32.3927 46.0781 29.9998 46.0793V0C32.4033 0.00234375 34.8021 0.895313 36.6337 2.65898C41.7091 1.95352 46.4341 5.38828 47.3294 10.4344C51.8435 12.8531 53.6623 18.4699 51.4205 23.0391C53.681 27.6445 51.8119 33.2531 47.3318 35.6285Z" fill="#AB6A49"/>
<path d="M41.1311 23.039C41.1311 31.5222 29.9998 38.3987 29.9998 38.3987C21.5166 38.3987 14.64 31.5222 14.64 23.039C14.64 14.5558 21.5166 7.6792 29.9998 7.6792C29.9998 7.6792 41.1311 14.5558 41.1311 23.039Z" fill="white"/>
<path d="M45.3595 23.039C45.3595 31.5222 38.4818 38.3987 29.9998 38.3987V7.6792C38.4818 7.6792 45.3595 14.5558 45.3595 23.039Z" fill="#F9F3F0"/>
<path d="M31.6681 24.706L29.9997 28.1146L28.6684 29.4458L22.2489 23.0263L24.7344 20.5396L28.6684 24.4735L29.9997 23.1423L31.6681 24.706Z" fill="#AB6A49"/>
<path d="M37.7505 20.3625L29.9998 28.1145V23.1422L35.265 17.877L37.7505 20.3625Z" fill="#C28565"/>
</g>
<defs>
<clipPath id="clip0_42_21857">
<rect width="60" height="60" fill="white"/>
</clipPath>
</defs>
</svg>
