<svg width="33" height="43" viewBox="0 0 33 43" fill="none" xmlns="http://www.w3.org/2000/svg">
<path d="M30.2617 30.8049C29.8495 28.7773 28.3467 27.9466 27.4877 27.6317C27.4736 27.6267 27.4594 27.622 27.445 27.6178C27.2784 27.5696 22.5879 26.2109 22.0355 26.0509L20.3487 24.9307V23.8962C23.0689 22.4996 24.9066 19.7034 24.9066 16.4914V16.375C26.3029 16.1217 27.3539 15.0591 27.3539 13.7902C27.3539 13.1012 27.0437 12.473 26.5369 12.0022V6.56827C26.5369 3.55155 23.7559 1.2435 20.7118 1.77167C16.5767 -1.27209 10.6273 -0.309375 7.74212 4.00969C7.54782 4.30069 7.63043 4.69122 7.92667 4.8822C8.22292 5.07301 8.62059 4.9918 8.81515 4.70096C10.2543 2.54634 12.6774 1.26012 15.2968 1.26012C17.0829 1.26012 18.7612 1.84062 20.1504 2.93872C20.3057 3.0615 20.5106 3.10644 20.7042 3.06016C23.0315 2.50477 25.2539 4.24249 25.2539 6.56827V11.2873C25.1256 11.2501 24.9935 11.2196 24.8582 11.197C24.7623 10.7817 24.5116 10.4217 24.3227 10.2769L21.6554 8.23746C20.9989 7.73565 20.1525 7.66233 19.589 7.91387C13.1266 10.3671 9.25344 10.3671 9.06119 10.3942C8.57877 10.4395 8.10336 10.7191 7.94976 11.1964C7.81327 11.2191 7.67995 11.2496 7.55047 11.2872C7.58622 9.2556 7.44793 8.48009 7.73545 7.20949C7.81225 6.86986 7.59434 6.53325 7.24841 6.45783C6.90248 6.38216 6.55971 6.5964 6.483 6.93612C6.14511 8.42928 6.31136 9.31372 6.2674 12.002C5.76069 12.4728 5.4506 13.1008 5.4506 13.7898C5.4506 15.0588 6.50156 16.1213 7.89777 16.3747V16.3813C7.89777 19.4586 9.61528 22.3661 12.4328 23.8594V24.9402L10.7721 26.043C10.6409 26.081 5.33471 27.6168 5.29366 27.6315C4.43461 27.9463 2.93193 28.7772 2.51963 30.805L0.649981 40.0246C0.647672 40.036 0.645619 40.0475 0.643994 40.059C0.396669 41.7717 1.33252 43 3.24493 43H10.0799C10.4343 43 10.7215 42.718 10.7215 42.37C10.7215 42.0219 10.4343 41.7399 10.0799 41.7399H7.76829V35.8016C7.76829 35.4536 7.48111 35.1716 7.12671 35.1716C6.77232 35.1716 6.48514 35.4536 6.48514 35.8016V41.7399H3.24476C2.36929 41.7399 1.89619 41.451 1.88952 40.5912C1.88593 40.1627 1.86685 40.5895 3.77747 31.0516C4.06473 29.6386 5.10954 29.0484 5.72161 28.8198C5.94003 28.7566 10.5404 27.4239 10.6356 27.3964L11.8118 30.6333C12.0427 31.2685 12.7005 31.5694 13.2892 31.4493L15.3024 33.1838C15.9199 33.716 16.8555 33.7204 17.4785 33.1864L19.5051 31.4491C20.11 31.5728 20.7579 31.2545 20.9836 30.6332L22.1584 27.4002C22.7618 27.575 25.7398 28.4377 27.0592 28.8198C27.6712 29.0484 28.716 29.6385 29.0032 31.0513C30.9459 40.7491 30.9086 40.1983 30.8897 40.6575C30.859 41.4161 30.4542 41.7398 29.5361 41.7398H26.3187V35.8016C26.3187 35.4536 26.0316 35.1716 25.6772 35.1716C25.3228 35.1716 25.0356 35.4536 25.0356 35.8016V41.7399H13.074C12.7196 41.7399 12.4324 42.0219 12.4324 42.37C12.4324 42.718 12.7196 43 13.074 43H29.5362C31.1211 43 32.1601 42.1436 32.1746 40.601C32.1764 40.3562 32.2256 40.6018 30.2617 30.8049ZM24.9066 12.4979C26.4598 12.9512 26.4523 14.6314 24.9066 15.0824V12.4979ZM7.89751 15.0824C6.34882 14.6304 6.34754 12.9504 7.89751 12.4979V15.0824ZM9.18066 16.3815C9.18066 15.8173 9.18066 12.2522 9.18066 11.6503C9.18921 11.6488 13.8795 11.5139 20.0532 9.08872L20.1029 9.06974C20.2274 9.03002 20.5315 8.97534 20.8671 9.23183L23.4972 11.2428C23.6795 11.4616 23.6236 11.312 23.6236 16.4914C23.6236 19.2932 21.976 21.7208 19.5623 22.8716C19.4077 22.9005 16.8578 24.2227 13.8807 23.1285C11.0768 22.0795 9.18066 19.3715 9.18066 16.3815ZM19.0656 24.4275V25.1387L17.4292 28.9792L15.3721 28.9793C14.9713 28.0422 13.6306 24.9069 13.7156 25.1045V24.4095C15.4864 24.9984 17.3767 24.9709 19.0656 24.4275ZM13.0301 30.2154C13.0122 30.2146 13.0722 30.3354 11.8088 26.8757L12.7991 26.2181C13.1539 27.051 13.9837 28.9983 14.1536 29.3972L13.0301 30.2154ZM16.6348 32.2372C16.4963 32.3561 16.2872 32.3559 16.1489 32.2367L14.4373 30.7621L15.1588 30.2393H17.6444L18.3585 30.7595L16.6348 32.2372ZM19.7741 30.2128C19.7626 30.2241 19.7829 30.2217 18.6422 29.3972C19.1472 28.2119 19.7234 26.8596 19.9967 26.2181L20.987 26.8757L19.7741 30.2128Z" fill="#C28565"/>
</svg>
