<svg width="32" height="43" viewBox="0 0 32 43" fill="none" xmlns="http://www.w3.org/2000/svg">
<path d="M7.11506 28.7817L2.2866 39.9118C2.25101 39.9935 2.24124 40.084 2.25859 40.1714C2.27594 40.2587 2.31959 40.3387 2.38374 40.4008C2.4479 40.4629 2.52953 40.5041 2.61779 40.5189C2.70605 40.5338 2.79678 40.5216 2.87791 40.484L8.29857 37.983L11.1801 42.7841C11.2192 42.8493 11.2746 42.9033 11.341 42.9409C11.4074 42.9784 11.4824 42.9982 11.5587 42.9982H11.6002C11.6833 42.9905 11.7624 42.9595 11.8285 42.9089C11.8946 42.8583 11.9449 42.7901 11.9735 42.7122L15.8568 32.1656L20.3393 42.7315C20.373 42.8111 20.4296 42.879 20.502 42.9268C20.5743 42.9746 20.6593 43 20.7461 43C20.8336 42.9994 20.9188 42.9729 20.9911 42.924C21.0634 42.8751 21.1194 42.8059 21.1521 42.7253L23.3029 37.4038L29.4234 40.4779C29.5042 40.5184 29.5956 40.5333 29.6852 40.5205C29.7748 40.5076 29.8583 40.4677 29.9243 40.4061C29.9903 40.3445 30.0356 40.2642 30.0542 40.1761C30.0727 40.088 30.0636 39.9964 30.028 39.9136L25.076 28.4078C27.8011 26.4465 29.8247 23.6707 30.8516 20.4853C31.8785 17.2999 31.8551 13.8716 30.7846 10.7004C29.7142 7.52924 27.6527 4.78109 24.901 2.85682C22.1493 0.932554 18.8513 -0.0671585 15.4879 0.00350392C12.1246 0.0741663 8.87198 1.21151 6.20446 3.24963C3.53694 5.28775 1.5941 8.12003 0.659314 11.3333C-0.275469 14.5467 -0.153289 17.9729 1.00804 21.1123C2.16936 24.2517 4.30907 26.9401 7.11506 28.7852V28.7817ZM11.4634 41.5441L8.85282 37.194C8.79724 37.1002 8.70856 37.0302 8.604 36.9978C8.49944 36.9654 8.38649 36.9727 8.2871 37.0185L3.55572 39.2045L7.88024 29.2459C10.1106 30.5469 12.6303 31.2783 15.2143 31.3749L11.4634 41.5441ZM28.735 39.1501L23.2791 36.4025C23.2246 36.3757 23.1652 36.3603 23.1045 36.3571C23.0438 36.3539 22.9831 36.3631 22.9261 36.384C22.8688 36.4054 22.8167 36.4383 22.7729 36.4808C22.7292 36.5232 22.6948 36.5743 22.6719 36.6306L20.7417 41.4072L16.4834 31.374C19.275 31.2654 21.9868 30.417 24.3381 28.9168L28.735 39.1501ZM15.8321 0.875088C18.782 0.875088 21.6657 1.7449 24.1185 3.37454C26.5713 5.00417 28.483 7.32044 29.6119 10.0304C30.7408 12.7404 31.0362 15.7224 30.4607 18.5993C29.8852 21.4762 28.4646 24.1188 26.3787 26.193C24.2928 28.2671 21.6351 29.6796 18.7419 30.2518C15.8486 30.8241 12.8497 30.5304 10.1243 29.4079C7.39888 28.2854 5.06944 26.3845 3.43054 23.9455C1.79164 21.5066 0.916875 18.6392 0.916875 15.7059C0.920381 11.7736 2.49292 8.00337 5.28931 5.2228C8.08569 2.44222 11.8774 0.878573 15.8321 0.875088Z" fill="#AB6A49"/>
<path d="M12.0414 16.9267L11.2965 21.2346C11.2827 21.3154 11.2919 21.3984 11.3231 21.4743C11.3543 21.5501 11.4062 21.6158 11.473 21.6638C11.5392 21.7126 11.618 21.7416 11.7002 21.7475C11.7825 21.7534 11.8646 21.7359 11.9372 21.6971L15.832 19.6647L19.7267 21.7006C19.7898 21.7347 19.8605 21.7522 19.9323 21.7515C20.0258 21.7507 20.1164 21.7199 20.1909 21.6638C20.2577 21.6158 20.3096 21.5501 20.3408 21.4743C20.372 21.3984 20.3812 21.3154 20.3674 21.2346L19.6269 16.9267L22.7777 13.8736C22.8369 13.8166 22.8789 13.7442 22.8989 13.6646C22.9188 13.585 22.9159 13.5015 22.8906 13.4235C22.8652 13.3455 22.8184 13.2761 22.7554 13.2232C22.6924 13.1703 22.6157 13.136 22.5341 13.1242L18.1787 12.495L16.2318 8.57225C16.1913 8.50324 16.1333 8.44598 16.0636 8.40619C15.9939 8.3664 15.915 8.34546 15.8346 8.34546C15.7542 8.34546 15.6753 8.3664 15.6056 8.40619C15.5359 8.44598 15.4779 8.50324 15.4374 8.57225L13.4905 12.495L9.13512 13.1242C9.05351 13.136 8.97685 13.1703 8.91383 13.2232C8.85082 13.2761 8.80398 13.3455 8.77862 13.4235C8.75326 13.5015 8.75039 13.585 8.77035 13.6646C8.79031 13.7442 8.83229 13.8166 8.89153 13.8736L12.0414 16.9267ZM13.8462 13.3287C13.9169 13.3184 13.984 13.2913 14.0418 13.2495C14.0996 13.2078 14.1464 13.1527 14.178 13.0891L15.832 9.75784L17.4859 13.0926C17.5175 13.1563 17.5643 13.2113 17.6221 13.253C17.6799 13.2948 17.747 13.3219 17.8177 13.3322L21.5174 13.8666L18.8406 16.4607C18.7893 16.5104 18.7509 16.5717 18.7287 16.6395C18.7066 16.7072 18.7014 16.7793 18.7135 16.8495L19.3454 20.5124L16.0367 18.7775C15.9735 18.7446 15.9033 18.7274 15.832 18.7274C15.7606 18.7274 15.6904 18.7446 15.6272 18.7775L12.3185 20.5071L12.9504 16.8442C12.9625 16.774 12.9573 16.7019 12.9352 16.6342C12.913 16.5665 12.8746 16.5051 12.8233 16.4554L10.1465 13.8631L13.8462 13.3287Z" fill="#AB6A49"/>
</svg>
