<svg width="34" height="40" viewBox="0 0 34 40" fill="none" xmlns="http://www.w3.org/2000/svg">
<path d="M32.9173 40C32.5936 40 32.3313 39.7377 32.3313 39.414C32.3313 36.3456 31.2586 34.4286 28.5056 32.5767C28.3438 32.4678 28.2467 32.2855 28.2467 32.0905V27.0752L27.2321 27.3828C26.9227 27.4766 26.5952 27.3018 26.5012 26.992C26.4074 26.6823 26.5823 26.3552 26.892 26.2612L27.7943 25.9876C26.5728 24.8184 25.1741 23.8781 23.6253 23.1861C21.7339 22.3411 19.7157 21.9125 17.6266 21.9125C17.624 21.9125 17.6215 21.9125 17.6187 21.9125C15.5346 21.9136 13.521 22.3467 11.6338 23.1999C10.0992 23.8937 8.71107 24.8348 7.49586 26.0039L8.34478 26.2612C8.6545 26.3552 8.82944 26.6824 8.7356 26.9921C8.64169 27.3017 8.31454 27.4767 8.00475 27.3829L6.99003 27.0752V32.0905C6.99003 32.2856 6.89299 32.4678 6.73117 32.5768C3.97815 34.4287 2.90554 36.3457 2.90554 39.414C2.90554 39.7377 2.64324 40 2.31954 40C1.99583 40 1.73354 39.7377 1.73354 39.414V31.6206C1.73354 30.4161 2.15796 27.4561 6.05798 25.7948C7.5111 24.2352 9.22401 23.0032 11.151 22.132C13.1908 21.2098 15.3666 20.7417 17.6182 20.7405H17.6267C19.8816 20.7405 22.0605 21.2033 24.1035 22.116C26.077 22.9978 27.8246 24.2528 29.2978 25.8463C30.8496 26.5299 31.9962 27.49 32.7082 28.7027C33.3654 29.822 33.5034 30.9073 33.5034 31.6206C33.5034 31.9443 33.2411 32.2066 32.9174 32.2066C32.5937 32.2066 32.3314 31.9443 32.3314 31.6206C32.3314 30.5116 31.9312 28.5542 29.4188 27.2074V31.782C30.7176 32.691 31.6727 33.6408 32.3314 34.7164V33.9646C32.3314 33.6409 32.5937 33.3786 32.9174 33.3786C33.2411 33.3786 33.5034 33.6409 33.5034 33.9646V39.414C33.5033 39.7376 33.2409 40 32.9173 40ZM5.81803 27.2073C3.30573 28.5541 2.90554 30.5115 2.90554 31.6205V34.7162C3.56428 33.6406 4.51922 32.6908 5.81803 31.7818V27.2073ZM17.6183 30.2713C17.5611 30.2713 17.5037 30.2629 17.4483 30.2461L15.6777 29.7093C15.4248 29.6326 15.2618 29.4004 15.2615 29.1492C15.2614 29.0927 15.2697 29.0353 15.2868 28.9784C15.3808 28.6687 15.708 28.4938 16.0177 28.5876L17.6183 29.0729L19.2191 28.5876C19.5284 28.4938 19.8558 28.6686 19.9499 28.9784C19.9672 29.0353 19.9753 29.0927 19.9752 29.1492C19.975 29.4004 19.8119 29.6326 19.5591 29.7093L17.7884 30.2461C17.733 30.2629 17.6756 30.2713 17.6183 30.2713ZM22.34 28.8398C22.0886 28.8398 21.8562 28.6767 21.7794 28.4237C21.6856 28.1139 21.8605 27.7868 22.1702 27.6928L23.9409 27.1559C24.2502 27.0621 24.5777 27.237 24.6717 27.5468C24.7656 27.8565 24.5906 28.1836 24.2809 28.2776L22.5103 28.8145C22.4536 28.8316 22.3963 28.8398 22.34 28.8398ZM12.8967 28.8398C12.8404 28.8398 12.7832 28.8317 12.7265 28.8145L10.9558 28.2776C10.6461 28.1837 10.4712 27.8565 10.565 27.5468C10.6589 27.237 10.9861 27.0621 11.2959 27.1559L13.0665 27.6928C13.3763 27.7867 13.5512 28.1139 13.4574 28.4237C13.3806 28.6767 13.1482 28.8398 12.8967 28.8398ZM6.40403 21.7925C6.25401 21.7925 6.10408 21.7353 5.98961 21.6209L4.54438 20.1757C4.42999 20.0612 4.3728 19.9112 4.3728 19.7613C4.3728 19.6113 4.42999 19.4613 4.54438 19.3468C4.77331 19.1181 5.14429 19.1181 5.37314 19.3468L5.81795 19.7917V11.5731L0.91267 10.0859C0.675613 10.014 0.509346 9.80083 0.497392 9.55339C0.485437 9.30602 0.630296 9.07779 0.859305 8.98333L5.21398 7.18775L3.51599 6.67293C3.27894 6.60104 3.11267 6.38797 3.10071 6.14053C3.08876 5.89316 3.23354 5.66493 3.46255 5.57047L14.2766 1.10812C14.2774 1.10781 14.2782 1.1075 14.2789 1.1071C14.2797 1.10679 14.2803 1.10656 14.281 1.10625C14.2925 1.10148 14.304 1.09679 14.3156 1.09203C18.3176 -0.540413 22.5969 -0.335079 26.0625 1.65724C26.3431 1.81851 26.4397 2.17667 26.2785 2.45733C26.1173 2.7379 25.7591 2.83463 25.4784 2.67329C23.8153 1.71717 21.9409 1.21563 20.0031 1.17532C20.7311 1.5034 21.4144 1.95766 22.0254 2.5328C24.1312 4.51528 24.8555 7.4459 23.9154 10.181C23.75 10.6623 23.6012 11.0943 23.4687 11.4784C23.183 12.3075 22.9765 12.9066 22.8428 13.3082C22.7827 13.4886 22.6389 13.6287 22.4568 13.684L17.7883 15.0994C17.6775 15.133 17.559 15.133 17.4482 15.0994L6.98987 11.9285V19.7919L7.43484 19.3469C7.66369 19.1181 8.03475 19.1181 8.26352 19.347C8.37791 19.4614 8.4351 19.6114 8.4351 19.7613C8.4351 19.9114 8.37791 20.0613 8.26344 20.1758L6.81814 21.621C6.70398 21.7352 6.55397 21.7925 6.40403 21.7925ZM13.4825 12.6722L17.2442 13.8128C17.475 13.1319 17.9242 11.826 18.5802 9.92038C19.2525 7.96752 18.7362 5.87472 17.2327 4.45863C15.7295 3.0427 13.6099 2.65266 11.7012 3.44016C11.6884 3.44548 11.6755 3.45024 11.6626 3.45462L5.42697 6.0277L6.93026 6.48345C8.36369 5.94097 9.79243 5.92535 10.974 6.44368C11.2704 6.5737 11.4053 6.91936 11.2752 7.21572C11.1453 7.51208 10.7998 7.64701 10.5032 7.51692C9.56171 7.10391 8.38111 7.14954 7.17888 7.64529L2.82436 9.4408L6.56116 10.5738C6.56991 10.5762 6.57866 10.5789 6.58725 10.5818L12.3105 12.317V10.5408C12.3105 9.8867 12.1711 9.29922 11.8962 8.79471C11.7414 8.51046 11.8462 8.15457 12.1303 7.99971C12.4146 7.84477 12.7704 7.9497 12.9253 8.23395C13.295 8.91246 13.4825 9.68856 13.4825 10.5407V12.6722ZM15.1459 2.03423C16.2024 2.28574 17.1974 2.81533 18.0362 3.60542C19.8795 5.34161 20.5126 7.90751 19.6884 10.3018C19.1776 11.7856 18.7924 12.905 18.5387 13.6472L21.8277 12.6499C21.9587 12.263 22.1351 11.7511 22.3607 11.0964C22.493 10.7125 22.6418 10.2809 22.8071 9.79997C23.5954 7.5063 22.988 5.04854 21.2221 3.38602C19.5663 1.8271 17.2735 1.32728 15.1459 2.03423ZM28.8326 21.7925C28.6827 21.7925 28.5327 21.7353 28.4183 21.6209L26.973 20.1757C26.7441 19.9468 26.7441 19.5758 26.9729 19.347C27.2018 19.1181 27.5728 19.1181 27.8016 19.3469L28.2466 19.7919V11.9285L25.0659 12.8929C24.7565 12.9866 24.4291 12.8119 24.3351 12.5021C24.2412 12.1923 24.4162 11.8652 24.7259 11.7712L28.3764 10.6644L29.1393 8.45796C29.5794 7.18485 28.8754 5.48093 27.3019 4.01124C27.0654 3.79036 27.0528 3.41954 27.2737 3.18303C27.4945 2.9466 27.8654 2.9337 28.1019 3.15482C30.0186 4.94509 30.8406 7.12399 30.2469 8.84089L29.4186 11.2368V19.7917L29.8635 19.3468C30.0924 19.1181 30.4634 19.118 30.6922 19.3469C30.9211 19.5758 30.9211 19.9468 30.6921 20.1756L29.2468 21.6208C29.1326 21.7352 28.9826 21.7925 28.8326 21.7925Z" fill="#C28565"/>
</svg>
