<svg width="32" height="34" viewBox="0 0 32 34" fill="none" xmlns="http://www.w3.org/2000/svg">
<path d="M14.0598 32.8816C14.0598 33.1762 13.821 33.415 13.5265 33.415C13.232 33.415 12.9932 33.1762 12.9932 32.8816C12.9932 32.5871 13.232 32.3483 13.5265 32.3483C13.821 32.3483 14.0598 32.5871 14.0598 32.8816ZM29.5265 17.9483C29.232 17.9483 28.9932 18.1871 28.9932 18.4816C28.9932 18.7762 29.232 19.015 29.5265 19.015C29.821 19.015 30.0598 18.7762 30.0598 18.4816C30.0598 18.1871 29.8212 17.9483 29.5265 17.9483ZM26.2422 18.0556C26.7136 15.7639 25.051 13.9783 23.4433 12.2515C22.5668 11.3099 22.1017 9.02392 22.1782 7.92525C22.199 7.63152 21.9777 7.37658 21.684 7.35592C21.385 7.33458 21.1345 7.55698 21.1146 7.85072C21.022 9.16765 21.5204 11.7515 22.663 12.9786C24.1516 14.5775 25.5578 16.0879 25.1974 17.8411C24.8688 19.4398 23.5724 21.1484 20.9198 21.1484C18.7725 21.1484 17.2157 20.3719 16.0198 18.7044C15.8485 18.4654 15.5157 18.4096 15.2756 18.5818C15.0365 18.7534 14.9813 19.0864 15.1532 19.3258C16.5469 21.27 18.4334 22.2151 20.9198 22.2151C21.2932 22.2151 21.6533 22.1814 22.0005 22.1214C20.4562 26.1175 22.6241 32.3854 22.726 32.6758C22.803 32.8951 23.0093 33.0323 23.229 33.0323C23.2878 33.0323 23.3478 33.0224 23.4061 33.0018C23.6837 32.9039 23.8301 32.5994 23.7321 32.3215C23.7068 32.2491 21.2268 25.0864 23.4082 21.6848C24.8592 21.0112 25.8977 19.7322 26.2422 18.0556ZM23.1265 18.4816C23.1265 18.1871 22.8877 17.9483 22.5932 17.9483C22.2986 17.9483 22.0598 18.1871 22.0598 18.4816C22.0598 18.7762 22.2986 19.015 22.5932 19.015C22.8877 19.015 23.1265 18.7762 23.1265 18.4816ZM10.9562 18.7043C9.76038 20.3718 8.20358 21.1483 6.05624 21.1483C3.40358 21.1483 2.10731 19.4398 1.77865 17.841C1.41824 16.0879 2.82451 14.5774 4.31305 12.9784C5.45571 11.7514 5.95425 9.16751 5.86144 7.85058C5.84118 7.55685 5.59118 7.33392 5.29211 7.35578C4.99838 7.37632 4.77705 7.63125 4.79785 7.92512C4.87438 9.02378 4.40931 11.3098 3.53278 12.2514C1.92491 13.9782 0.262512 15.7639 0.733845 18.0555C1.08958 19.787 2.18318 21.0979 3.70905 21.752C5.81331 25.1774 3.36891 32.2498 3.34371 32.3216C3.24638 32.5992 3.39211 32.9039 3.66971 33.0016C3.72851 33.0222 3.78798 33.0319 3.84678 33.0319C4.06651 33.0319 4.27278 32.895 4.34985 32.6756C4.45158 32.387 6.61224 26.1384 5.08211 22.1412C5.39611 22.1896 5.72131 22.2148 6.05611 22.2148C8.54251 22.2148 10.429 21.2698 11.8228 19.3255C11.9946 19.0862 11.9394 18.7531 11.7004 18.5815C11.4604 18.4087 11.1276 18.4652 10.9562 18.7043ZM3.84958 18.4816C3.84958 18.7762 4.08838 19.015 4.38291 19.015C4.67745 19.015 4.91625 18.7762 4.91625 18.4816C4.91625 18.1871 4.67745 17.9483 4.38291 17.9483C4.08825 17.9483 3.84958 18.1871 3.84958 18.4816ZM13.5265 14.7483C13.2317 14.7483 12.9932 14.9871 12.9932 15.2816V16.8816C12.9932 17.1762 13.2317 17.415 13.5265 17.415C13.8213 17.415 14.0598 17.1762 14.0598 16.8816V15.2816C14.0598 14.9871 13.8213 14.7483 13.5265 14.7483ZM28.05 24.6608C28.05 25.5682 27.312 26.3062 26.4046 26.3062C25.4978 26.3062 24.7598 25.5682 24.7598 24.6608C24.7598 23.7538 25.4978 23.0158 26.4046 23.0158C27.312 23.0158 28.05 23.7538 28.05 24.6608ZM26.9833 24.6608C26.9833 24.3418 26.724 24.0824 26.4046 24.0824C26.0858 24.0824 25.8265 24.3418 25.8265 24.6608C25.8265 24.9799 26.0858 25.2395 26.4046 25.2395C26.724 25.2395 26.9833 24.9799 26.9833 24.6608ZM30.8141 13.1483L31.1912 12.7712C31.3994 12.563 31.3994 12.2254 31.1912 12.0171C30.9829 11.8088 30.6453 11.8088 30.437 12.0171L30.06 12.3942L29.6829 12.0171C29.4746 11.8088 29.137 11.8088 28.9288 12.0171C28.7205 12.2254 28.7205 12.563 28.9288 12.7712L29.3058 13.1483L28.9288 13.5254C28.7205 13.7336 28.7205 14.0712 28.9288 14.2795C29.0329 14.3836 29.1694 14.4358 29.3058 14.4358C29.4422 14.4358 29.5788 14.3836 29.6829 14.2795L30.06 13.9024L30.437 14.2795C30.5412 14.3836 30.6777 14.4358 30.8141 14.4358C30.9505 14.4358 31.087 14.3836 31.1912 14.2795C31.3994 14.0712 31.3994 13.7336 31.1912 13.5254L30.8141 13.1483ZM16.764 9.41538L14.8786 11.3007C14.7786 11.4007 14.6432 11.457 14.5016 11.457C14.3598 11.457 14.2245 11.4007 14.1245 11.3007L13.7474 10.9236L12.6161 12.055C12.5161 12.155 12.3806 12.2112 12.239 12.2112C12.0974 12.2112 11.962 12.155 11.862 12.055L11.4849 11.6779L8.78798 14.3747C8.68385 14.4788 8.54731 14.531 8.41091 14.531C8.27451 14.531 8.13798 14.4788 8.03384 14.3747C7.82558 14.1664 7.82558 13.8288 8.03384 13.6206L10.7308 10.9236L10.3536 10.5464C10.1453 10.3382 10.1453 10.0006 10.3536 9.79232L11.4849 8.66098L11.1077 8.28378C10.8994 8.07552 10.8994 7.73792 11.1077 7.52965L17.8957 0.741649C18.104 0.533383 18.4416 0.533383 18.6498 0.741649C18.8581 0.949916 18.8581 1.28752 18.6498 1.49578L12.2389 7.90672L14.5014 10.1698L15.633 9.03818L14.8785 8.28378C14.6702 8.07565 14.6702 7.73792 14.8785 7.52965C15.0868 7.32138 15.4244 7.32138 15.6326 7.52965L16.3872 8.28405L16.7644 7.90672L16.0102 7.15258C15.802 6.94432 15.802 6.60672 16.0102 6.39845C16.2185 6.19018 16.5561 6.19018 16.7644 6.39845L17.5186 7.15272L17.8957 6.77565L17.1414 6.02125C16.9332 5.81298 16.9332 5.47512 17.1414 5.26712C17.3497 5.05885 17.6873 5.05885 17.8956 5.26712L18.6498 6.02152L19.027 5.64432L18.2726 4.88992C18.0644 4.68165 18.0644 4.34405 18.2726 4.13578C18.4809 3.92752 18.8185 3.92752 19.0268 4.13578L19.7812 4.89018L20.9128 3.75872C21.121 3.55045 21.4586 3.55045 21.6669 3.75872C21.8752 3.96698 21.8752 4.30458 21.6669 4.51285L16.7646 9.41485C16.7645 9.41498 16.7645 9.41525 16.7642 9.41538C16.764 9.41551 16.7642 9.41525 16.764 9.41538Z" fill="#C28565"/>
</svg>
