<svg width="40" height="40" viewBox="0 0 40 40" fill="none" xmlns="http://www.w3.org/2000/svg">
<g clip-path="url(#clip0_569_2818)">
<path d="M22.3681 21.6612L22.4338 21.5293L21.3156 20.97L21.25 21.1025C21.0119 21.5787 20.5331 21.875 20 21.875C19.4669 21.875 18.9881 21.5787 18.75 21.1025L18.6844 20.9706L17.5663 21.53L17.6319 21.6618C18.0831 22.5643 18.9906 23.125 20 23.125C21.0094 23.125 21.9169 22.5643 22.3681 21.6612Z" fill="#C28565"/>
<path d="M13.6181 21.6612L13.6838 21.5293L12.5656 20.97L12.5 21.1025C12.2619 21.5787 11.7831 21.875 11.25 21.875C10.7169 21.875 10.2381 21.5787 10 21.1025L9.93438 20.9706L8.81625 21.53L8.88188 21.6618C9.33313 22.5643 10.2406 23.125 11.25 23.125C12.2594 23.125 13.1669 22.5643 13.6181 21.6612Z" fill="#C28565"/>
<path d="M15.1831 29.8169L16.0669 28.9331L15.3412 28.2075C15.9144 27.6712 16.25 26.9175 16.25 26.1025V23.125H15V26.1031C15 26.7269 14.6531 27.2875 14.0956 27.5662C13.9156 27.6562 13.7906 27.8269 13.7581 28.025C13.7263 28.2231 13.7912 28.425 13.9331 28.5669L15.1831 29.8169Z" fill="#C28565"/>
<path d="M18.7137 30.3144C16.8781 31.5381 14.3712 31.5381 12.5356 30.3144L12.2212 30.105L11.5281 31.145L11.8425 31.3544C12.9662 32.1037 14.2737 32.5 15.625 32.5C16.9762 32.5 18.2837 32.1037 19.4075 31.3544L19.7219 31.145L19.0287 30.105L18.7137 30.3144Z" fill="#C28565"/>
<path d="M36.0669 8.93313C35.8225 8.68875 35.4275 8.68875 35.1831 8.93313L33.3081 10.8081C33.0638 11.0525 33.0638 11.4475 33.3081 11.6919L33.4912 11.875L31.5625 13.8038L31.0669 13.3081C30.8225 13.0637 30.4275 13.0637 30.1831 13.3081L29.985 13.5063L29.75 9.98063C29.5156 6.4575 26.8337 3.60812 23.3481 3.1475L22.8431 2.81063C20.6987 1.38063 18.2025 0.625 15.625 0.625C13.0475 0.625 10.5513 1.38063 8.40688 2.81125L7.90187 3.14813C4.41625 3.6075 1.73438 6.4575 1.5 9.98063L1.25938 13.5869C0.844375 14.4606 0.625 15.43 0.625 16.3975V18.2437C0.625 21.1256 1.72875 23.8469 3.72875 25.9169C4.36875 27.1663 5.24125 28.2975 6.32937 29.2394C7.24 31.5956 8.70438 33.6931 10.625 35.3481V39.375H11.875V36.3244C12.9812 37.0931 14.2769 37.5 15.625 37.5C16.9731 37.5 18.2687 37.0931 19.375 36.3244V39.375H20.625V35.3481C22.5431 33.6944 24.0063 31.6 24.9175 29.2475C26.0094 28.3038 26.8925 27.1681 27.5381 25.8994C28.2463 25.1637 28.8469 24.3344 29.3269 23.4325L34.8175 17.9419C35.0619 17.6975 35.0619 17.3025 34.8175 17.0581L34.3213 16.5625L36.25 14.6337L36.4331 14.8169C36.555 14.9388 36.715 15 36.875 15C37.035 15 37.195 14.9388 37.3169 14.8169L39.1919 12.9419C39.4362 12.6975 39.4362 12.3025 39.1919 12.0581L36.0669 8.93313ZM26.1063 24.7775L26.5775 24.3062C26.6706 24.3263 26.7675 24.3319 26.8631 24.3431C26.5737 25.11 26.1906 25.8319 25.7244 26.4981L26.1063 24.7775ZM24.375 24.7412L23.3838 23.75L24.3962 22.7375C24.4619 22.8188 24.5206 22.905 24.5956 22.98L25.145 23.5294C25.22 23.6044 25.3062 23.6631 25.3875 23.7288L24.375 24.7412ZM25.5006 17.9906C23.3894 14.5837 19.6787 12.5 15.625 12.5C10.4887 12.5 6.02375 15.7981 4.51313 20.7069L4.4025 21.0662C4.37063 21.17 4.36625 21.28 4.39 21.3856L5.5225 26.4806C4.38625 24.8506 3.75 22.9062 3.75 20.8731C3.75 15.5669 8.06687 11.25 13.3731 11.25H17.8762C21.67 11.25 25.0556 13.4444 26.6225 16.8687L25.5006 17.9906ZM1.875 18.2437V16.3975C1.875 15.58 2.06813 14.7613 2.43438 14.0294C2.47125 13.955 2.49312 13.8744 2.49875 13.7913L2.74688 10.0631C2.945 7.09375 5.23562 4.7 8.19375 4.37125C8.29312 4.36 8.38812 4.32562 8.47125 4.27L9.1 3.85125C11.0388 2.55813 13.295 1.875 15.625 1.875C17.955 1.875 20.2113 2.55813 22.1494 3.85125L22.7781 4.27C22.8612 4.32562 22.9569 4.36 23.0556 4.37125C26.0138 4.7 28.3044 7.09375 28.5025 10.0637L28.7369 13.58L28.6444 13.7188C28.2469 14.3144 27.6406 14.7213 26.9556 14.8956C25.0138 11.9356 21.7394 10.0862 18.1119 10.0094C18.0819 8.51875 17.9494 7.02375 17.705 5.55687L17.4912 4.27312L16.2581 4.47875L16.4719 5.7625C16.705 7.15875 16.8313 8.58125 16.8612 10.0006H15.3337L15.3094 9.96375C14.6988 9.04563 14.375 7.97813 14.375 6.875H13.125C13.125 7.97062 13.39 9.03625 13.8881 10H13.3738C10.2031 10 7.35437 11.3725 5.365 13.545C5.13312 13.0575 5 12.525 5 11.9819V11.875H3.75V11.9819C3.75 12.9044 4.02938 13.8069 4.51937 14.585C3.25312 16.3625 2.5 18.5294 2.5 20.8731C2.5 21.1906 2.525 21.5044 2.55188 21.8181C2.11063 20.6931 1.875 19.4862 1.875 18.2437ZM18.6775 35.2875C16.8787 36.5469 14.3706 36.5469 12.5719 35.2875C9.66062 33.2494 7.6325 30.2162 6.86125 26.7469L5.64563 21.275L5.7075 21.0737C7.05562 16.6931 11.0413 13.75 15.625 13.75C19.3419 13.75 22.7325 15.7162 24.5869 18.9062C24.0475 19.4506 23.75 20.1706 23.75 20.9375C23.75 21.1456 23.7756 21.3494 23.8181 21.5481L22.0581 23.3081C21.8137 23.5525 21.8137 23.9475 22.0581 24.1919L22.5537 24.6875L20.1831 27.0581L21.0669 27.9419L23.4375 25.5713L23.9331 26.0669C24.055 26.1888 24.215 26.25 24.375 26.25C24.4188 26.25 24.4613 26.2337 24.5044 26.225L24.3881 26.7475C23.6169 30.2169 21.5888 33.25 18.6775 35.2875ZM28.3463 22.645C27.7275 23.2637 26.6481 23.2637 26.0294 22.645L25.48 22.0956C25.17 21.7863 25 21.375 25 20.9375C25 20.58 25.1188 20.2437 25.3288 19.9625L26.4331 21.0669L27.3169 20.1831L26.1963 19.0625L27.1875 18.0712L27.6831 18.5669L28.5669 17.6831L28.0713 17.1875L29.0625 16.1962L30.1831 17.3169L31.0669 16.4331L29.9463 15.3125L30.625 14.6337L33.4912 17.5L28.3463 22.645ZM33.4375 15.6788L32.4463 14.6875L34.375 12.7587L35.3662 13.75L33.4375 15.6788ZM36.875 13.4913L34.6338 11.25L35.625 10.2587L37.8662 12.5L36.875 13.4913Z" fill="#C28565"/>
</g>
<defs>
<clipPath id="clip0_569_2818">
<rect width="40" height="40" fill="white"/>
</clipPath>
</defs>
</svg>
