<svg width="30" height="36" viewBox="0 0 30 36" fill="none" xmlns="http://www.w3.org/2000/svg">
<path d="M2.86667 8.93335C3.74894 8.93335 4.46667 8.21562 4.46667 7.33335C4.46667 6.45108 3.74894 5.73335 2.86667 5.73335C1.98441 5.73335 1.26667 6.45108 1.26667 7.33335C1.26667 8.21562 1.98441 8.93335 2.86667 8.93335ZM2.86667 6.80002C3.16068 6.80002 3.40001 7.03935 3.40001 7.33335C3.40001 7.62735 3.16068 7.86668 2.86667 7.86668C2.57267 7.86668 2.33334 7.62735 2.33334 7.33335C2.33334 7.03935 2.57267 6.80002 2.86667 6.80002ZM23.1333 6.80002C23.1333 6.50548 23.3721 6.26668 23.6667 6.26668C23.9612 6.26668 24.2 6.50548 24.2 6.80002C24.2 7.09455 23.9612 7.33335 23.6667 7.33335C23.3721 7.33335 23.1333 7.09455 23.1333 6.80002ZM3.40001 29.7334C3.10547 29.7334 2.86667 29.4946 2.86667 29.2C2.86667 28.9055 3.10547 28.6667 3.40001 28.6667C3.69454 28.6667 3.93334 28.9055 3.93334 29.2C3.93334 29.4946 3.69454 29.7334 3.40001 29.7334ZM26.3333 34H16.2313C17.8925 31.853 22.0399 26.2714 22.9464 22.9401C23.0721 22.4781 23.1333 22.0836 23.1333 21.7334C23.1333 21.5 23.1333 15.1326 23.1333 15.1326C23.1333 13.2704 22.3041 11.6016 21 10.4643V7.86668C21 7.17135 20.5541 6.57815 19.9333 6.35815V5.63908C19.9333 3.04428 17.8224 0.93335 15.2276 0.93335H15.0391C12.9071 0.93335 11.0312 2.39122 10.4907 4.43308C10.0641 4.73415 9.80001 5.22948 9.80001 5.75788V7.30895C9.80001 7.77402 9.99481 8.20402 10.3333 8.50842V9.71122C8.42734 10.7699 7.13334 12.8021 7.13334 15.1327V21.7335C7.13334 22.0838 7.19454 22.4783 7.32028 22.9403C8.22681 26.2715 12.3741 31.8531 14.0353 34.0002H3.93334C3.63881 34.0002 3.40001 34.239 3.40001 34.5335C3.40001 34.828 3.63881 35.0668 3.93334 35.0668H26.3333C26.6279 35.0668 26.8667 34.828 26.8667 34.5335C26.8667 34.239 26.6279 34 26.3333 34ZM19.9333 15.1326V16.1931C19.7577 16.0787 19.5773 15.9707 19.3916 15.8694C19.6644 15.593 19.852 15.2303 19.8963 14.8166L19.9015 14.7683C19.9165 14.8891 19.9333 15.0099 19.9333 15.1326ZM17.2667 8.40002H16.7336C16.7335 8.40002 16.7335 8.40002 16.7333 8.40002C16.7332 8.40002 16.7332 8.40002 16.7331 8.40002L14.5875 8.40015C14.1632 8.40895 13.7596 8.26162 13.4677 7.98082C13.2013 7.72508 13.0513 7.37895 13.0451 7.00628L13.0044 4.61228C12.9853 3.48602 13.9093 2.55375 15.064 2.53442C15.0744 2.53415 15.0848 2.53415 15.0952 2.53415C15.6312 2.53415 16.1741 2.76562 16.5892 3.17215C17.0105 3.58495 17.2575 4.13282 17.2665 4.66642V8.40002H17.2667ZM14.0667 9.42375C14.2199 9.45082 14.3759 9.46748 14.5347 9.46748C14.5563 9.46748 14.5781 9.46722 14.6 9.46668H16.2V10C16.2 10.5883 15.7216 11.0667 15.1333 11.0667C14.5451 11.0667 14.0667 10.5883 14.0667 10V9.42375ZM13.0017 10.0168C13.0111 11.1852 13.9628 12.1334 15.1333 12.1334C16.3039 12.1334 17.2556 11.1852 17.2649 10.0168C17.2764 10.0176 17.2881 10.0177 17.2996 10.0185C17.7983 10.0631 18.2679 10.2847 18.6053 10.6601C18.9821 11.0795 19.1637 11.6416 19.1037 12.2024L18.8357 14.7028C18.7972 15.0622 18.4956 15.3334 18.1341 15.3334H12.132C11.7705 15.3334 11.4689 15.0623 11.4304 14.7028L11.1624 12.2024C11.1025 11.6416 11.284 11.0793 11.6608 10.6601C11.9983 10.2847 12.4679 10.0631 12.9665 10.0185C12.9785 10.0177 12.9901 10.0175 13.0017 10.0168ZM10.3652 14.7691L10.3703 14.8164C10.4145 15.2303 10.6023 15.593 10.8751 15.8694C10.6893 15.9707 10.5089 16.0788 10.3333 16.1932V15.1326C10.3333 15.0102 10.3503 14.8898 10.3652 14.7691ZM10.3333 20.6667V17.5092C10.8965 17.0506 11.5365 16.6755 12.2449 16.4H18.0204C18.7292 16.6756 19.3697 17.0501 19.9333 17.5091V20.6667C19.9333 21.549 20.6511 22.2667 21.5333 22.2667C21.7052 22.2667 21.8676 22.2324 22.0229 22.182C22.0185 22.2082 22.0093 22.2397 22.0043 22.2667H21.5333H8.73334H8.26254C8.25748 22.2397 8.24828 22.2082 8.24388 22.182C8.39921 22.2324 8.56147 22.2667 8.73334 22.2667C9.61548 22.2667 10.3333 21.549 10.3333 20.6667ZM21.6977 23.3334C20.5888 26.3287 17.3021 30.8363 15.6667 32.9794V23.3334H21.6977ZM14.6 23.3334V32.9795C12.9647 30.8367 9.67814 26.3295 8.56894 23.3334H14.6ZM22.0667 15.1326V20.6667C22.0667 20.9607 21.8273 21.2 21.5333 21.2C21.2393 21.2 21 20.9607 21 20.6667V15.1326C21 14.2252 20.6903 13.3408 20.1309 12.6272L20.1643 12.3159C20.2104 11.8856 20.1639 11.4548 20.0335 11.0511C21.2661 11.9894 22.0667 13.4674 22.0667 15.1326ZM8.20001 15.1326C8.20001 13.4674 9.00054 11.9894 10.2332 11.0511C10.1028 11.4548 10.0561 11.8856 10.1024 12.3159L10.1359 12.6281C9.57641 13.3413 9.26667 14.2247 9.26667 15.1326V20.6667C9.26667 20.9607 9.02734 21.2 8.73334 21.2C8.43934 21.2 8.20001 20.9607 8.20001 20.6667V15.1326ZM16.2 27.6C16.2 27.3055 16.4388 27.0667 16.7333 27.0667H17.2667C17.5612 27.0667 17.8 27.3055 17.8 27.6C17.8 27.8946 17.5612 28.1334 17.2667 28.1334H16.7333C16.4388 28.1334 16.2 27.8946 16.2 27.6ZM14.0667 27.6C14.0667 27.8946 13.8279 28.1334 13.5333 28.1334H13C12.7055 28.1334 12.4667 27.8946 12.4667 27.6C12.4667 27.3055 12.7055 27.0667 13 27.0667H13.5333C13.8279 27.0667 14.0667 27.3055 14.0667 27.6ZM29.5333 23.3334C29.5333 23.6279 29.2945 23.8667 29 23.8667H26.5541L27.2437 24.5563C27.452 24.7646 27.452 25.1022 27.2437 25.3104C27.1396 25.4146 27.0031 25.4667 26.8667 25.4667C26.7303 25.4667 26.5937 25.4146 26.4896 25.3104L24.8896 23.7104C24.6813 23.5022 24.6813 23.1646 24.8896 22.9563L26.4896 21.3563C26.6979 21.148 27.0355 21.148 27.2437 21.3563C27.452 21.5646 27.452 21.9022 27.2437 22.1104L26.5541 22.8H29C29.2945 22.8 29.5333 23.0388 29.5333 23.3334ZM24.8896 17.8438C24.6813 17.6355 24.6813 17.2979 24.8896 17.0896L26.4896 15.4896C26.6979 15.2814 27.0355 15.2814 27.2437 15.4896C27.452 15.6979 27.452 16.0355 27.2437 16.2438L26.5541 16.9333H29C29.2945 16.9333 29.5333 17.1721 29.5333 17.4667C29.5333 17.7612 29.2945 18 29 18H26.5541L27.2437 18.6896C27.452 18.8979 27.452 19.2355 27.2437 19.4438C27.1396 19.5479 27.0031 19.6 26.8667 19.6C26.7303 19.6 26.5937 19.5479 26.4896 19.4438L24.8896 17.8438ZM3.71254 23.8667H1.26667C0.972142 23.8667 0.733341 23.6279 0.733341 23.3334C0.733341 23.0388 0.972142 22.8 1.26667 22.8H3.71254L3.02294 22.1104C2.81468 21.9022 2.81468 21.5646 3.02294 21.3563C3.23121 21.148 3.56881 21.148 3.77708 21.3563L5.37708 22.9563C5.58534 23.1646 5.58534 23.5022 5.37708 23.7104L3.77708 25.3104C3.67294 25.4146 3.53641 25.4667 3.40001 25.4667C3.26361 25.4667 3.12707 25.4146 3.02294 25.3104C2.81468 25.1022 2.81468 24.7646 3.02294 24.5563L3.71254 23.8667ZM1.00001 18C0.705475 18 0.466675 17.7612 0.466675 17.4667C0.466675 17.1721 0.705475 16.9333 1.00001 16.9333H3.44588L2.75627 16.2438C2.54801 16.0355 2.54801 15.6979 2.75627 15.4896C2.96454 15.2814 3.30214 15.2814 3.51041 15.4896L5.11041 17.0896C5.31868 17.2979 5.31868 17.6355 5.11041 17.8438L3.51041 19.4438C3.40627 19.5479 3.26974 19.6 3.13334 19.6C2.99694 19.6 2.86041 19.5479 2.75627 19.4438C2.54801 19.2355 2.54801 18.8979 2.75627 18.6896L3.44588 18H1.00001Z" fill="#C28565"/>
</svg>
