<svg width="20" height="15" viewBox="0 0 20 15" fill="none" xmlns="http://www.w3.org/2000/svg">
<path d="M18.75 5C18.8958 5.02083 18.9792 5.10417 19 5.25C19.0208 5.5625 18.9688 6.0625 18.8438 6.75C18.7396 7.4375 18.4896 8.19792 18.0938 9.03125C17.6771 9.88542 17.0521 10.6979 16.2188 11.4688C14.9062 12.6771 13.6979 13.4167 12.5938 13.6875C11.4688 13.9375 10.625 14.0417 10.0625 14H9.9375C9.375 14.0417 8.54167 13.9375 7.4375 13.6875C6.3125 13.4167 5.09375 12.6771 3.78125 11.4688C2.94792 10.6979 2.33333 9.88542 1.9375 9.03125C1.52083 8.19792 1.26042 7.4375 1.15625 6.75C1.03125 6.0625 0.979167 5.5625 1 5.25C1.02083 5.10417 1.10417 5.02083 1.25 5C1.60417 4.97917 2.20833 5.04167 3.0625 5.1875C3.91667 5.33333 4.85417 5.64583 5.875 6.125C6.29167 4.89583 6.82292 3.77083 7.46875 2.75C8.11458 1.70833 8.84375 0.833333 9.65625 0.125C9.76042 0.0416667 9.875 0 10 0C10.125 0 10.2396 0.0416667 10.3438 0.125C11.1562 0.833333 11.8854 1.70833 12.5312 2.75C13.1771 3.77083 13.7188 4.89583 14.1562 6.125C15.1562 5.64583 16.0833 5.33333 16.9375 5.1875C17.7917 5.04167 18.3958 4.97917 18.75 5ZM4.8125 10.4062C5.66667 11.1979 6.46875 11.7396 7.21875 12.0312C7.98958 12.3021 8.63542 12.4479 9.15625 12.4688L8.625 11.125C8.22917 10.1667 7.66667 9.36458 6.9375 8.71875L6.90625 8.6875L6.875 8.65625C6.1875 8.01042 5.46875 7.54167 4.71875 7.25C3.96875 6.9375 3.28125 6.72917 2.65625 6.625C2.76042 7.1875 2.97917 7.80208 3.3125 8.46875C3.625 9.11458 4.11458 9.73958 4.78125 10.3438L4.8125 10.375V10.4062ZM10 10.5625C10.375 9.54167 11.0625 8.55208 12.0625 7.59375C12.3125 7.36458 12.5729 7.14583 12.8438 6.9375C12.1979 4.89583 11.25 3.20833 10 1.875C8.75 3.20833 7.80208 4.89583 7.15625 6.9375C7.42708 7.14583 7.6875 7.36458 7.9375 7.59375C8.9375 8.55208 9.625 9.54167 10 10.5625ZM15.2188 10.3438C15.8854 9.73958 16.375 9.11458 16.6875 8.46875C17.0208 7.80208 17.2396 7.1875 17.3438 6.625C16.7188 6.72917 16.0312 6.9375 15.2812 7.25C14.5312 7.54167 13.8125 8.01042 13.125 8.65625L13.0938 8.6875L13.0625 8.71875C12.3333 9.36458 11.7708 10.1667 11.375 11.125L10.8125 12.4688C11.3542 12.4479 12.0104 12.3021 12.7812 12.0312C13.5312 11.7396 14.3333 11.1979 15.1875 10.4062L15.2188 10.375V10.3438Z" fill="#C28565"/>
</svg>
