<svg width="119" height="10" viewBox="0 0 119 10" fill="none" xmlns="http://www.w3.org/2000/svg">
<path d="M114.468 5.80652H0.518483C0.233317 5.80652 0 5.57237 0 5.28619C0 5.00001 0.233317 4.76587 0.518483 4.76587H114.468C114.753 4.76587 114.987 5.00001 114.987 5.28619C114.987 5.57237 114.753 5.80652 114.468 5.80652Z" fill="#C28565"/>
<path d="M0.829573 9.90409C0.699953 9.90409 0.557371 9.85206 0.466637 9.748C0.259244 9.53986 0.259244 9.21466 0.466637 9.01954L4.32933 5.14312L0.155545 0.954501C-0.0518483 0.746371 -0.0518483 0.421166 0.155545 0.226044C0.362938 0.0179138 0.686992 0.0179138 0.894385 0.226044L5.43111 4.77889C5.6385 4.98702 5.6385 5.31222 5.43111 5.50735L1.20547 9.748C1.10178 9.86507 0.959194 9.90409 0.829573 9.90409Z" fill="#C28565"/>
<path d="M5.36619 9.90409C5.23657 9.90409 5.10695 9.85206 5.00326 9.748C4.79586 9.53986 4.79586 9.21466 5.00326 9.01954L8.86595 5.14312L4.69217 0.954501C4.48477 0.746371 4.48477 0.421166 4.69217 0.226044C4.89956 0.0179138 5.22361 0.0179138 5.41804 0.226044L9.95477 4.77889C10.0585 4.86995 10.1103 5.01303 10.1103 5.14312C10.1103 5.2862 10.0585 5.41629 9.95477 5.50735L5.72913 9.748C5.6384 9.86507 5.49582 9.90409 5.36619 9.90409Z" fill="#C28565"/>
<path d="M9.90306 9.90409C9.77344 9.90409 9.64382 9.85206 9.54012 9.748C9.33273 9.53986 9.33273 9.21466 9.54012 9.01954L13.4028 5.14312L9.22903 0.954501C9.02164 0.746371 9.02164 0.421166 9.22903 0.226044C9.43642 0.0179138 9.76048 0.0179138 9.96787 0.226044L14.5046 4.77889C14.712 4.98702 14.712 5.31222 14.5046 5.50735L10.279 9.748C10.1753 9.86507 10.0456 9.90409 9.90306 9.90409Z" fill="#C28565"/>
<path d="M14.4397 9.90409C14.3101 9.90409 14.1675 9.85206 14.0767 9.748C13.8694 9.53986 13.8694 9.21466 14.0767 9.01954L17.9394 5.14312L13.7657 0.954501C13.5583 0.746371 13.5583 0.421166 13.7657 0.226044C13.973 0.0179138 14.2971 0.0179138 14.4915 0.226044L19.0283 4.77889C19.132 4.86995 19.1838 5.01303 19.1838 5.14312C19.1838 5.2862 19.132 5.41629 19.0283 5.50735L14.8026 9.748C14.7119 9.86507 14.5823 9.90409 14.4397 9.90409Z" fill="#C28565"/>
<path d="M108.155 1.74792L103.269 5.28614L108.155 8.82435L118.733 5.28614L108.155 1.74792Z" fill="#C28565"/>
</svg>
