<svg width="168" height="60" viewBox="0 0 168 60" fill="none" xmlns="http://www.w3.org/2000/svg">
<path d="M51.2816 51.8239C51.8523 51.8921 52.3041 52.0829 52.637 52.3965C52.9768 52.71 53.1466 53.0985 53.1466 53.5621C53.1466 53.9165 53.0447 54.2369 52.8409 54.5231C52.637 54.8094 52.3551 55.0378 51.995 55.2082C51.6349 55.3718 51.234 55.4536 50.7924 55.4536C50.6022 55.4536 50.3848 55.4433 50.1402 55.4229C50.0451 55.4161 49.9262 55.4093 49.7835 55.4024C49.6476 55.3956 49.4947 55.3922 49.3249 55.3922L48.5809 55.4024C48.445 55.4093 48.2616 55.4127 48.0306 55.4127C48.0102 55.4127 48 55.3922 48 55.3513C48 55.3104 48.0102 55.29 48.0306 55.29C48.2276 55.29 48.3771 55.2729 48.479 55.2388C48.5809 55.198 48.6522 55.1298 48.693 55.0344C48.7406 54.9321 48.7643 54.7822 48.7643 54.5845V49.8506C48.7643 49.5643 48.7168 49.3769 48.6217 49.2883C48.5265 49.1928 48.3329 49.1451 48.0408 49.1451C48.0272 49.1451 48.0204 49.1247 48.0204 49.0838C48.0204 49.0429 48.0272 49.0224 48.0408 49.0224L48.5809 49.0327C48.8934 49.0463 49.1414 49.0531 49.3249 49.0531C49.5151 49.0531 49.7121 49.0429 49.916 49.0224C49.9839 49.0156 50.0858 49.0088 50.2217 49.002C50.3576 48.9952 50.4765 48.9918 50.5784 48.9918C51.1967 48.9918 51.6757 49.1042 52.0154 49.3292C52.3551 49.5541 52.5249 49.8813 52.5249 50.3107C52.5249 50.6379 52.4162 50.9344 52.1988 51.2002C51.9882 51.4661 51.6825 51.674 51.2816 51.8239ZM50.4255 49.2167C50.2285 49.2167 50.0926 49.2644 50.0179 49.3598C49.9431 49.4485 49.9058 49.6189 49.9058 49.8711V51.8137L50.3134 51.8239C50.6667 51.8239 50.9385 51.691 51.1287 51.4252C51.319 51.1593 51.4141 50.8185 51.4141 50.4027C51.4141 50.0142 51.3292 49.7211 51.1593 49.5234C50.9894 49.3189 50.7449 49.2167 50.4255 49.2167ZM50.6192 55.198C51.5092 55.198 51.9542 54.7344 51.9542 53.8074C51.9542 53.2826 51.8285 52.8668 51.5771 52.5601C51.3258 52.2533 50.9453 52.1 50.4357 52.1C50.2387 52.1 50.062 52.1068 49.9058 52.1204V54.5845C49.9058 54.8094 49.9499 54.9696 50.0383 55.065C50.1266 55.1537 50.3202 55.198 50.6192 55.198ZM57.628 54.7379C57.6416 54.7379 57.6551 54.7515 57.6687 54.7788C57.6891 54.806 57.6925 54.8265 57.6789 54.8401C57.4275 55.0855 57.1728 55.2627 56.9146 55.3718C56.6564 55.4808 56.3744 55.5354 56.0687 55.5354C55.6407 55.5354 55.2704 55.4467 54.9579 55.2695C54.6453 55.0855 54.4075 54.8435 54.2445 54.5436C54.0814 54.2369 53.9999 53.9063 53.9999 53.5518C53.9999 53.1565 54.0984 52.7918 54.2954 52.4578C54.4924 52.1238 54.7642 51.8614 55.1107 51.6705C55.464 51.4729 55.8615 51.374 56.3031 51.374C56.7243 51.374 57.0505 51.4695 57.2815 51.6603C57.5125 51.8512 57.628 52.1477 57.628 52.5498C57.628 52.7611 57.5906 52.8668 57.5159 52.8668L55.0394 52.877C55.0326 52.9247 55.0292 53.0031 55.0292 53.1122C55.0292 53.712 55.1651 54.1823 55.4368 54.5231C55.7154 54.864 56.1129 55.0344 56.6292 55.0344C56.8127 55.0344 56.9689 55.0139 57.098 54.973C57.2271 54.9321 57.397 54.8571 57.6076 54.7481L57.628 54.7379ZM55.9158 51.5785C55.6916 51.5785 55.5048 51.6774 55.3553 51.875C55.2058 52.0659 55.1073 52.3317 55.0598 52.6725L56.5375 52.6521C56.5307 52.3045 56.4798 52.0386 56.3846 51.8546C56.2895 51.6705 56.1333 51.5785 55.9158 51.5785ZM62.1837 54.8605C62.2108 54.8605 62.2278 54.8776 62.2346 54.9117C62.2482 54.9389 62.2414 54.9594 62.2142 54.973L61.1645 55.474C61.1373 55.4876 61.1034 55.4945 61.0626 55.4945C60.9539 55.4945 60.8486 55.4365 60.7467 55.3206C60.6516 55.2048 60.5836 55.048 60.5429 54.8503L60.1046 55.1571C59.9484 55.2729 59.8023 55.3581 59.6664 55.4127C59.5305 55.4604 59.3777 55.4842 59.2078 55.4842C58.9156 55.4842 58.6948 55.4195 58.5454 55.29C58.3959 55.1605 58.3212 54.9798 58.3212 54.7481C58.3212 54.564 58.3653 54.4175 58.4536 54.3084C58.542 54.1926 58.6507 54.1039 58.7798 54.0426C58.9156 53.9744 59.1025 53.8995 59.3403 53.8177L59.5951 53.7256L60.5123 53.3882V52.8055C60.5123 52.3692 60.4749 52.0523 60.4002 51.8546C60.3322 51.6569 60.2133 51.5581 60.0435 51.5581C59.6834 51.5581 59.4796 51.8375 59.432 52.3965C59.4116 52.601 59.3505 52.7475 59.2486 52.8361C59.1534 52.9247 59.0176 52.969 58.8409 52.969C58.6711 52.969 58.5454 52.935 58.4638 52.8668C58.3891 52.7918 58.3517 52.6964 58.3517 52.5805C58.3517 52.376 58.4706 52.1818 58.7084 51.9977C58.9462 51.8069 59.2316 51.6535 59.5645 51.5376C59.9042 51.4218 60.2031 51.3638 60.4613 51.3638C60.7603 51.3638 61.0015 51.4592 61.1849 51.6501C61.3751 51.8341 61.4703 52.117 61.4703 52.4987V54.3084C61.4703 54.5061 61.5042 54.6595 61.5722 54.7685C61.6469 54.8776 61.7488 54.9321 61.8779 54.9321C61.973 54.9321 62.0715 54.9083 62.1735 54.8605H62.1837ZM60.5225 54.6765C60.5157 54.6492 60.5123 54.6049 60.5123 54.5436V53.5621L60.0741 53.7665C60.0537 53.7734 59.9857 53.8006 59.8702 53.8483C59.7547 53.8892 59.6528 53.9608 59.5645 54.063C59.483 54.1653 59.4422 54.2846 59.4422 54.4209C59.4422 54.5845 59.4932 54.714 59.5951 54.8094C59.7038 54.898 59.8261 54.9423 59.962 54.9423C60.0707 54.9423 60.1828 54.9049 60.2983 54.8299L60.5225 54.6765ZM67.2885 54.7481C67.3089 54.7481 67.3258 54.7651 67.3394 54.7992C67.3598 54.8333 67.3598 54.8537 67.3394 54.8605L65.933 55.5456C65.9194 55.5524 65.9025 55.5558 65.8821 55.5558C65.8141 55.5558 65.753 55.4842 65.6986 55.3411C65.6511 55.1911 65.6239 54.9901 65.6171 54.7379C65.1687 55.2695 64.6829 55.5354 64.1597 55.5354C63.7861 55.5354 63.4905 55.4195 63.2731 55.1877C63.0625 54.9492 62.9572 54.639 62.9572 54.2573V52.7543C62.9572 52.3113 62.8519 52.0897 62.6412 52.0897C62.5665 52.0897 62.4816 52.1136 62.3865 52.1613H62.3763C62.3491 52.1613 62.3287 52.1443 62.3151 52.1102C62.3015 52.0693 62.3049 52.0454 62.3253 52.0386L63.6909 51.3843L63.7419 51.374C63.7759 51.374 63.8098 51.3911 63.8438 51.4252C63.8846 51.4524 63.905 51.4797 63.905 51.507V53.7665C63.905 54.5027 64.1869 54.8708 64.7508 54.8708C64.9003 54.8708 65.0498 54.8401 65.1993 54.7788C65.3555 54.7106 65.4948 54.6186 65.6171 54.5027V52.7543C65.6171 52.3113 65.5118 52.0897 65.3012 52.0897C65.2264 52.0897 65.1381 52.1136 65.0362 52.1613H65.026C65.0056 52.1613 64.9886 52.1443 64.9751 52.1102C64.9615 52.0693 64.9649 52.0454 64.9852 52.0386L66.3509 51.3843C66.3645 51.3774 66.3815 51.374 66.4018 51.374C66.4358 51.374 66.4698 51.3911 66.5037 51.4252C66.5445 51.4524 66.5649 51.4797 66.5649 51.507V54.2266C66.5649 54.4584 66.5853 54.622 66.626 54.7174C66.6736 54.8128 66.7483 54.8605 66.8503 54.8605C66.9454 54.8605 67.0847 54.8231 67.2681 54.7481H67.2885ZM70.6504 54.697C70.6776 54.697 70.698 54.7106 70.7116 54.7379C70.7319 54.7651 70.7319 54.7856 70.7116 54.7992C70.4602 55.0514 70.2156 55.2389 69.9778 55.3615C69.74 55.4774 69.4886 55.5354 69.2236 55.5354C68.9247 55.5354 68.6699 55.4638 68.4593 55.3206C68.2487 55.1775 68.1434 54.9355 68.1434 54.5947V52.3249C68.1434 52.1136 68.106 51.9671 68.0312 51.8853C67.9565 51.8035 67.8206 51.7626 67.6236 51.7626C67.6168 51.7626 67.6066 51.7523 67.593 51.7319C67.5862 51.7114 67.5828 51.691 67.5828 51.6705C67.5828 51.6433 67.5862 51.6228 67.593 51.6092C67.5998 51.5888 67.61 51.5785 67.6236 51.5785C67.9701 51.5649 68.2487 51.4899 68.4593 51.3536C68.6767 51.2173 68.8432 51.0094 68.9587 50.7299C68.9722 50.7026 68.9994 50.689 69.0402 50.689C69.0878 50.689 69.1115 50.7026 69.1115 50.7299V51.5479C69.5056 51.541 69.9472 51.5104 70.4364 51.4558C70.45 51.4558 70.4636 51.4831 70.4772 51.5376C70.4975 51.5853 70.5077 51.6399 70.5077 51.7012C70.5077 51.7694 70.4942 51.8375 70.467 51.9057C70.4466 51.9671 70.4228 51.9943 70.3956 51.9875C69.954 51.8921 69.526 51.841 69.1115 51.8341V54.2573C69.1115 54.5163 69.1761 54.7072 69.3052 54.8299C69.441 54.9526 69.6177 55.0139 69.8351 55.0139C70.1069 55.0139 70.3719 54.9117 70.63 54.7072L70.6504 54.697ZM75.2664 51.4661C75.28 51.4661 75.2868 51.4865 75.2868 51.5274C75.2868 51.5683 75.28 51.5888 75.2664 51.5888C75.049 51.5888 74.8587 51.6842 74.6957 51.875C74.5394 52.0591 74.3967 52.3283 74.2676 52.6828L73.1364 55.6989C72.7763 56.6532 72.4298 57.3212 72.0969 57.7029C71.7708 58.0915 71.4073 58.2857 71.0064 58.2857C70.8026 58.2857 70.6463 58.2414 70.5376 58.1528C70.4289 58.071 70.3746 57.9483 70.3746 57.7847C70.3746 57.6279 70.4221 57.5087 70.5172 57.4269C70.6124 57.3451 70.7279 57.3042 70.8638 57.3042C70.9385 57.3042 70.9996 57.3144 71.0472 57.3348C71.1015 57.3553 71.1661 57.3894 71.2408 57.4371C71.3699 57.5257 71.4922 57.57 71.6077 57.57C71.764 57.57 71.9033 57.5087 72.0256 57.386C72.1547 57.2701 72.2871 57.0724 72.423 56.793C72.5589 56.5203 72.722 56.1284 72.9122 55.6172L71.2816 52.3147C71.1321 52.0216 71.0132 51.8273 70.9249 51.7319C70.8434 51.6365 70.7415 51.5888 70.6192 51.5888C70.5988 51.5888 70.5886 51.5683 70.5886 51.5274C70.5886 51.4865 70.5988 51.4661 70.6192 51.4661C70.8094 51.4661 70.9555 51.4695 71.0574 51.4763L71.4854 51.4865L72.1886 51.4763C72.2973 51.4695 72.4434 51.4661 72.6268 51.4661C72.6472 51.4661 72.6574 51.4865 72.6574 51.5274C72.6574 51.5683 72.6472 51.5888 72.6268 51.5888C72.4502 51.5888 72.3211 51.6058 72.2396 51.6399C72.158 51.6671 72.1173 51.7149 72.1173 51.783C72.1173 51.8375 72.1377 51.9057 72.1784 51.9875L73.381 54.4516L73.9925 52.6725C74.0536 52.4953 74.0842 52.3351 74.0842 52.192C74.0842 52.0011 74.0299 51.8546 73.9211 51.7523C73.8124 51.6433 73.6562 51.5888 73.4523 51.5888C73.4388 51.5888 73.432 51.5683 73.432 51.5274C73.432 51.4865 73.4388 51.4661 73.4523 51.4661C73.6358 51.4661 73.7751 51.4695 73.8702 51.4763L74.4817 51.4865L74.8893 51.4763C74.9708 51.4695 75.0965 51.4661 75.2664 51.4661ZM79.2831 50.0551C79.2831 50.3005 79.3443 50.5186 79.4666 50.7095C79.5957 50.9003 79.7519 51.0673 79.9354 51.2105C80.1188 51.3536 80.3668 51.5274 80.6793 51.7319C81.019 51.95 81.2908 52.1409 81.4946 52.3045C81.6985 52.468 81.8717 52.6691 82.0144 52.9077C82.1571 53.1394 82.2284 53.4087 82.2284 53.7154C82.2284 54.0699 82.1333 54.3868 81.9431 54.6663C81.7528 54.9389 81.4878 55.1536 81.1481 55.3104C80.8152 55.4604 80.4415 55.5354 80.0271 55.5354C79.7214 55.5354 79.402 55.4945 79.0691 55.4127C78.7362 55.3241 78.512 55.2286 78.3965 55.1264C78.3625 55.0991 78.3353 55.0753 78.315 55.0548C78.3014 55.0275 78.2946 54.9866 78.2946 54.9321L78.264 53.3064V53.2962C78.264 53.269 78.281 53.2553 78.315 53.2553C78.3489 53.2485 78.3693 53.2587 78.3761 53.286C78.5799 53.7018 78.7566 54.0392 78.906 54.2982C79.0623 54.5572 79.2559 54.7856 79.4869 54.9832C79.7247 55.1809 79.9931 55.2797 80.2921 55.2797C80.5638 55.2797 80.788 55.2082 80.9647 55.065C81.1413 54.9151 81.2297 54.6629 81.2297 54.3084C81.2297 54.0085 81.1617 53.7461 81.0258 53.5212C80.8968 53.2962 80.7371 53.1054 80.5468 52.9486C80.3566 52.7918 80.095 52.6044 79.7621 52.3863C79.436 52.175 79.1812 51.9943 78.9978 51.8444C78.8211 51.6944 78.6683 51.5138 78.5392 51.3025C78.4101 51.0912 78.3455 50.8424 78.3455 50.5561C78.3455 50.1948 78.4474 49.8915 78.6513 49.6461C78.8619 49.3939 79.1303 49.2099 79.4564 49.094C79.7825 48.9713 80.1256 48.91 80.4857 48.91C80.7235 48.91 80.9647 48.9338 81.2093 48.9815C81.4539 49.0224 81.6509 49.0736 81.8004 49.1349C81.8615 49.1622 81.9023 49.1928 81.9227 49.2269C81.9431 49.2542 81.9532 49.2917 81.9532 49.3394V50.8424C81.9532 50.8628 81.9363 50.8799 81.9023 50.8935C81.8683 50.9003 81.8479 50.8935 81.8411 50.873L81.7596 50.6788C81.5898 50.2494 81.3893 49.8847 81.1583 49.5848C80.9341 49.2849 80.6182 49.1349 80.2105 49.1349C79.9388 49.1349 79.7146 49.2133 79.5379 49.3701C79.3681 49.5268 79.2831 49.7552 79.2831 50.0551ZM85.4147 55.5456C85.0818 55.5456 84.7897 55.5081 84.5383 55.4331V57.3962C84.5383 57.6007 84.5587 57.7506 84.5994 57.8461C84.647 57.9415 84.7319 58.0062 84.8542 58.0403C84.9833 58.0812 85.1803 58.1017 85.4453 58.1017C85.4657 58.1017 85.4759 58.1221 85.4759 58.163C85.4759 58.2039 85.4657 58.2244 85.4453 58.2244C85.1939 58.2244 84.9969 58.221 84.8542 58.2141L84.0491 58.2039L83.4478 58.2141C83.3459 58.221 83.2032 58.2244 83.0198 58.2244C82.9994 58.2244 82.9892 58.2039 82.9892 58.163C82.9892 58.1221 82.9994 58.1017 83.0198 58.1017C83.1828 58.1017 83.3017 58.0812 83.3765 58.0403C83.458 58.0062 83.5123 57.9415 83.5395 57.8461C83.5735 57.7506 83.5905 57.6007 83.5905 57.3962V52.6623C83.5905 52.4442 83.5667 52.2874 83.5191 52.192C83.4716 52.0966 83.3867 52.0488 83.2644 52.0488C83.1556 52.0488 82.9994 52.0966 82.7956 52.192H82.7752C82.7548 52.192 82.7378 52.1749 82.7242 52.1409C82.7038 52.1068 82.7004 52.0863 82.714 52.0795L84.1612 51.374C84.1748 51.3672 84.1918 51.3638 84.2122 51.3638C84.2801 51.3638 84.3412 51.4218 84.3956 51.5376C84.4567 51.6535 84.4975 51.8103 84.5179 52.008C85.0139 51.5581 85.5234 51.3331 86.0467 51.3331C86.332 51.3331 86.597 51.4081 86.8416 51.5581C87.093 51.708 87.2934 51.9262 87.4429 52.2124C87.5924 52.4987 87.6671 52.8327 87.6671 53.2144C87.6671 53.7597 87.555 54.2096 87.3308 54.564C87.1066 54.9117 86.8212 55.1639 86.4747 55.3206C86.135 55.4706 85.7816 55.5456 85.4147 55.5456ZM85.374 51.9057C85.0682 51.9057 84.7897 52.0148 84.5383 52.2329V52.3147V54.7788C84.6877 54.9492 84.844 55.0787 85.0071 55.1673C85.1701 55.2491 85.3706 55.29 85.6084 55.29C86.2947 55.29 86.6378 54.7038 86.6378 53.5314C86.6378 53.0133 86.5155 52.6146 86.2709 52.3351C86.0331 52.0488 85.734 51.9057 85.374 51.9057ZM92.2498 54.8605C92.2769 54.8605 92.2939 54.8776 92.3007 54.9117C92.3143 54.9389 92.3075 54.9594 92.2803 54.973L91.2306 55.474C91.2035 55.4876 91.1695 55.4945 91.1287 55.4945C91.02 55.4945 90.9147 55.4365 90.8128 55.3206C90.7177 55.2048 90.6497 55.048 90.609 54.8503L90.1707 55.1571C90.0145 55.2729 89.8684 55.3581 89.7325 55.4127C89.5966 55.4604 89.4438 55.4842 89.2739 55.4842C88.9818 55.4842 88.761 55.4195 88.6115 55.29C88.462 55.1605 88.3873 54.9798 88.3873 54.7481C88.3873 54.564 88.4314 54.4175 88.5198 54.3084C88.6081 54.1926 88.7168 54.1039 88.8459 54.0426C88.9818 53.9744 89.1686 53.8995 89.4064 53.8177L89.6612 53.7256L90.5784 53.3882V52.8055C90.5784 52.3692 90.541 52.0523 90.4663 51.8546C90.3983 51.6569 90.2795 51.5581 90.1096 51.5581C89.7495 51.5581 89.5457 51.8375 89.4981 52.3965C89.4777 52.601 89.4166 52.7475 89.3147 52.8361C89.2196 52.9247 89.0837 52.969 88.907 52.969C88.7372 52.969 88.6115 52.935 88.5299 52.8668C88.4552 52.7918 88.4178 52.6964 88.4178 52.5805C88.4178 52.376 88.5367 52.1818 88.7745 51.9977C89.0123 51.8069 89.2977 51.6535 89.6306 51.5376C89.9703 51.4218 90.2693 51.3638 90.5274 51.3638C90.8264 51.3638 91.0676 51.4592 91.251 51.6501C91.4413 51.8341 91.5364 52.117 91.5364 52.4987V54.3084C91.5364 54.5061 91.5703 54.6595 91.6383 54.7685C91.713 54.8776 91.8149 54.9321 91.944 54.9321C92.0392 54.9321 92.1377 54.9083 92.2396 54.8605H92.2498ZM90.5886 54.6765C90.5818 54.6492 90.5784 54.6049 90.5784 54.5436V53.5621L90.1402 53.7665C90.1198 53.7734 90.0518 53.8006 89.9363 53.8483C89.8208 53.8892 89.7189 53.9608 89.6306 54.063C89.5491 54.1653 89.5083 54.2846 89.5083 54.4209C89.5083 54.5845 89.5593 54.714 89.6612 54.8094C89.7699 54.898 89.8922 54.9423 90.0281 54.9423C90.1368 54.9423 90.2489 54.9049 90.3644 54.8299L90.5886 54.6765ZM99.01 48.91C99.3293 48.91 99.6521 48.9372 99.9782 48.9918C100.311 49.0395 100.576 49.1042 100.773 49.186C100.834 49.2065 100.872 49.2337 100.885 49.2678C100.906 49.2951 100.919 49.3462 100.926 49.4212L101.058 50.8424C101.058 50.8628 101.041 50.8765 101.007 50.8833C100.974 50.8901 100.95 50.8799 100.936 50.8526C100.746 50.2937 100.474 49.8677 100.121 49.5746C99.7676 49.2746 99.3429 49.1247 98.8469 49.1247C98.3849 49.1247 97.9705 49.2508 97.6036 49.503C97.2435 49.7484 96.9582 50.1028 96.7475 50.5663C96.5437 51.0298 96.4418 51.5717 96.4418 52.192C96.4418 52.8191 96.5471 53.3712 96.7577 53.8483C96.9751 54.3187 97.2707 54.6833 97.6444 54.9423C98.0248 55.1945 98.4597 55.3206 98.9488 55.3206C99.4176 55.3206 99.8117 55.1945 100.131 54.9423C100.45 54.6833 100.753 54.2607 101.038 53.6745C101.045 53.6541 101.065 53.6473 101.099 53.6541C101.133 53.6609 101.15 53.6745 101.15 53.695L100.997 54.9628C100.984 55.0446 100.97 55.0991 100.957 55.1264C100.943 55.1468 100.906 55.1707 100.844 55.198C100.219 55.4229 99.5875 55.5354 98.9488 55.5354C98.2219 55.5354 97.5696 55.399 96.9921 55.1264C96.4214 54.8469 95.973 54.4584 95.6469 53.9608C95.3207 53.4632 95.1577 52.8975 95.1577 52.2636C95.1577 51.616 95.3241 51.04 95.6571 50.5356C95.9968 50.0244 96.4588 49.6257 97.0431 49.3394C97.6342 49.0531 98.2898 48.91 99.01 48.91ZM105.865 54.8605C105.893 54.8605 105.91 54.8776 105.916 54.9117C105.93 54.9389 105.923 54.9594 105.896 54.973L104.846 55.474C104.819 55.4876 104.785 55.4945 104.744 55.4945C104.636 55.4945 104.53 55.4365 104.428 55.3206C104.333 55.2048 104.265 55.048 104.225 54.8503L103.786 55.1571C103.63 55.2729 103.484 55.3581 103.348 55.4127C103.212 55.4604 103.059 55.4842 102.889 55.4842C102.597 55.4842 102.377 55.4195 102.227 55.29C102.078 55.1605 102.003 54.9798 102.003 54.7481C102.003 54.564 102.047 54.4175 102.135 54.3084C102.224 54.1926 102.332 54.1039 102.461 54.0426C102.597 53.9744 102.784 53.8995 103.022 53.8177L103.277 53.7256L104.194 53.3882V52.8055C104.194 52.3692 104.157 52.0523 104.082 51.8546C104.014 51.6569 103.895 51.5581 103.725 51.5581C103.365 51.5581 103.161 51.8375 103.114 52.3965C103.093 52.601 103.032 52.7475 102.93 52.8361C102.835 52.9247 102.699 52.969 102.523 52.969C102.353 52.969 102.227 52.935 102.146 52.8668C102.071 52.7918 102.033 52.6964 102.033 52.5805C102.033 52.376 102.152 52.1818 102.39 51.9977C102.628 51.8069 102.913 51.6535 103.246 51.5376C103.586 51.4218 103.885 51.3638 104.142 51.3638C104.441 51.3638 104.683 51.4592 104.867 51.6501C105.057 51.8341 105.152 52.117 105.152 52.4987V54.3084C105.152 54.5061 105.186 54.6595 105.254 54.7685C105.329 54.8776 105.431 54.9321 105.56 54.9321C105.655 54.9321 105.753 54.9083 105.855 54.8605H105.865ZM104.204 54.6765C104.197 54.6492 104.194 54.6049 104.194 54.5436V53.5621L103.756 53.7665C103.735 53.7734 103.667 53.8006 103.552 53.8483C103.436 53.8892 103.335 53.9608 103.246 54.063C103.165 54.1653 103.124 54.2846 103.124 54.4209C103.124 54.5845 103.175 54.714 103.277 54.8094C103.385 54.898 103.508 54.9423 103.644 54.9423C103.752 54.9423 103.864 54.9049 103.98 54.8299L104.204 54.6765ZM108.931 51.3638C109.087 51.3638 109.237 51.4218 109.38 51.5376C109.529 51.6467 109.604 51.7796 109.604 51.9364C109.604 52.0795 109.56 52.1988 109.471 52.2942C109.383 52.3828 109.268 52.4271 109.125 52.4271C109.023 52.4271 108.938 52.4067 108.87 52.3658C108.809 52.3249 108.744 52.2636 108.676 52.1818C108.615 52.1136 108.561 52.0659 108.513 52.0386C108.473 52.0045 108.422 51.9875 108.361 51.9875C108.293 51.9875 108.218 52.0148 108.136 52.0693C108.062 52.117 107.943 52.2227 107.78 52.3863V54.5845C107.78 54.8571 107.844 55.0446 107.973 55.1468C108.102 55.2423 108.34 55.29 108.687 55.29C108.714 55.29 108.727 55.3104 108.727 55.3513C108.727 55.3922 108.714 55.4127 108.687 55.4127C108.449 55.4127 108.262 55.4093 108.126 55.4024L107.301 55.3922L106.699 55.4024C106.597 55.4093 106.458 55.4127 106.281 55.4127C106.261 55.4127 106.251 55.3922 106.251 55.3513C106.251 55.3104 106.261 55.29 106.281 55.29C106.492 55.29 106.635 55.2423 106.71 55.1468C106.784 55.0446 106.822 54.8571 106.822 54.5845V52.6623C106.822 52.451 106.794 52.2976 106.74 52.2022C106.693 52.1 106.614 52.0488 106.506 52.0488C106.39 52.0488 106.227 52.0966 106.017 52.192H105.996C105.976 52.192 105.959 52.1749 105.945 52.1409C105.938 52.1068 105.942 52.0863 105.955 52.0795L107.372 51.3843C107.413 51.3706 107.437 51.3638 107.443 51.3638C107.518 51.3638 107.586 51.4354 107.647 51.5785C107.715 51.7149 107.756 51.9023 107.769 52.1409C108.048 51.8546 108.276 51.6535 108.452 51.5376C108.636 51.4218 108.795 51.3638 108.931 51.3638ZM113.581 54.7379C113.595 54.7379 113.608 54.7515 113.622 54.7788C113.642 54.806 113.646 54.8265 113.632 54.8401C113.381 55.0855 113.126 55.2627 112.868 55.3718C112.609 55.4808 112.327 55.5354 112.022 55.5354C111.594 55.5354 111.223 55.4467 110.911 55.2695C110.598 55.0855 110.361 54.8435 110.197 54.5436C110.034 54.2369 109.953 53.9063 109.953 53.5518C109.953 53.1565 110.051 52.7918 110.248 52.4578C110.445 52.1238 110.717 51.8614 111.064 51.6705C111.417 51.4729 111.815 51.374 112.256 51.374C112.677 51.374 113.004 51.4695 113.235 51.6603C113.466 51.8512 113.581 52.1477 113.581 52.5498C113.581 52.7611 113.544 52.8668 113.469 52.8668L110.992 52.877C110.986 52.9247 110.982 53.0031 110.982 53.1122C110.982 53.712 111.118 54.1823 111.39 54.5231C111.668 54.864 112.066 55.0344 112.582 55.0344C112.766 55.0344 112.922 55.0139 113.051 54.973C113.18 54.9321 113.35 54.8571 113.561 54.7481L113.581 54.7379ZM111.869 51.5785C111.645 51.5785 111.458 51.6774 111.308 51.875C111.159 52.0659 111.06 52.3317 111.013 52.6725L112.491 52.6521C112.484 52.3045 112.433 52.0386 112.338 51.8546C112.243 51.6705 112.086 51.5785 111.869 51.5785ZM123.664 55.29C123.691 55.2968 123.701 55.3206 123.694 55.3615C123.694 55.3956 123.684 55.4127 123.664 55.4127H121.992C121.802 55.4127 121.476 55.2457 121.014 54.9117C120.504 55.3275 119.855 55.5354 119.067 55.5354C118.599 55.5354 118.204 55.4672 117.885 55.3309C117.566 55.1945 117.328 55.0139 117.172 54.789C117.015 54.564 116.937 54.3255 116.937 54.0733C116.937 53.7461 117.049 53.453 117.274 53.194C117.498 52.935 117.838 52.635 118.293 52.2942C118.184 52.1511 118.079 51.9875 117.977 51.8035C117.882 51.6126 117.807 51.432 117.753 51.2616C117.705 51.0912 117.681 50.9037 117.681 50.6992C117.681 50.1471 117.855 49.6938 118.201 49.3394C118.554 48.9849 119.033 48.8077 119.638 48.8077C120.059 48.8077 120.392 48.8997 120.637 49.0838C120.881 49.261 121.004 49.5098 121.004 49.8302C121.004 50.096 120.926 50.3414 120.769 50.5663C120.62 50.7844 120.447 50.9685 120.25 51.1184C120.052 51.2684 119.747 51.4831 119.332 51.7626C119.821 52.4919 120.504 53.2076 121.381 53.9097C121.442 53.6711 121.472 53.4019 121.472 53.102C121.472 52.7066 121.408 52.4203 121.279 52.2431C121.15 52.0591 120.939 51.9671 120.647 51.9671C120.633 51.9671 120.623 51.9466 120.616 51.9057C120.616 51.8648 120.627 51.8444 120.647 51.8444L123.073 51.8341C123.093 51.8341 123.103 51.8546 123.103 51.8955C123.103 51.9364 123.093 51.9568 123.073 51.9568C122.869 51.9568 122.716 51.9807 122.614 52.0284C122.519 52.0693 122.444 52.1409 122.39 52.2431C122.342 52.3454 122.288 52.5089 122.227 52.7339C122.152 53.0065 122.074 53.2553 121.992 53.4803C121.911 53.7052 121.805 53.9233 121.676 54.1346C122.118 54.4686 122.509 54.731 122.848 54.9219C123.195 55.1128 123.467 55.2354 123.664 55.29ZM118.639 49.8199C118.639 50.3516 118.826 50.9276 119.2 51.5479C119.682 51.0775 119.923 50.5765 119.923 50.0449C119.923 49.745 119.852 49.5098 119.709 49.3394C119.573 49.169 119.393 49.0838 119.169 49.0838C118.979 49.0838 118.843 49.1451 118.762 49.2678C118.68 49.3905 118.639 49.5746 118.639 49.8199ZM119.852 55.0344C120.246 55.0344 120.572 54.9458 120.83 54.7685C120.722 54.6936 120.576 54.5811 120.392 54.4311C120.046 54.1517 119.696 53.8415 119.342 53.5007C118.996 53.1531 118.69 52.8123 118.425 52.4783C118.12 52.7986 117.967 53.136 117.967 53.4905C117.967 53.7563 118.041 54.0085 118.191 54.2471C118.347 54.4788 118.568 54.6697 118.853 54.8197C119.139 54.9628 119.472 55.0344 119.852 55.0344ZM133.327 49.0224C133.34 49.0224 133.347 49.0429 133.347 49.0838C133.347 49.1247 133.34 49.1451 133.327 49.1451C133.055 49.1451 132.841 49.2542 132.685 49.4723C132.528 49.6836 132.45 49.9699 132.45 50.3312V55.566C132.45 55.5865 132.433 55.6001 132.399 55.6069C132.372 55.6137 132.352 55.6103 132.338 55.5967L127.558 50.1369V54.1142C127.558 54.4754 127.633 54.7617 127.783 54.973C127.932 55.1843 128.139 55.29 128.404 55.29C128.418 55.29 128.425 55.3104 128.425 55.3513C128.425 55.3922 128.418 55.4127 128.404 55.4127C128.214 55.4127 128.068 55.4093 127.966 55.4024L127.416 55.3922L126.784 55.4024C126.668 55.4093 126.502 55.4127 126.284 55.4127C126.264 55.4127 126.254 55.3922 126.254 55.3513C126.254 55.3104 126.264 55.29 126.284 55.29C126.583 55.29 126.818 55.1843 126.988 54.973C127.164 54.7617 127.253 54.4754 127.253 54.1142V49.7893C127.028 49.5439 126.835 49.3769 126.672 49.2883C126.515 49.1928 126.352 49.1451 126.183 49.1451C126.169 49.1451 126.162 49.1247 126.162 49.0838C126.162 49.0429 126.169 49.0224 126.183 49.0224L126.611 49.0327C126.699 49.0395 126.828 49.0429 126.998 49.0429L127.772 49.0327C127.868 49.0258 127.983 49.0224 128.119 49.0224C128.173 49.0224 128.214 49.0361 128.241 49.0633C128.268 49.0906 128.316 49.1485 128.384 49.2371C128.499 49.3939 128.581 49.4996 128.628 49.5541L132.155 53.6336V50.3312C132.155 49.9631 132.08 49.6734 131.93 49.4621C131.781 49.2508 131.574 49.1451 131.309 49.1451C131.295 49.1451 131.288 49.1247 131.288 49.0838C131.288 49.0429 131.295 49.0224 131.309 49.0224L131.747 49.0327C131.964 49.0463 132.148 49.0531 132.297 49.0531C132.433 49.0531 132.623 49.0463 132.868 49.0327L133.327 49.0224ZM137.723 54.8605C137.75 54.8605 137.767 54.8776 137.773 54.9117C137.787 54.9389 137.78 54.9594 137.753 54.973L136.703 55.474C136.676 55.4876 136.642 55.4945 136.601 55.4945C136.493 55.4945 136.387 55.4365 136.286 55.3206C136.19 55.2048 136.122 55.048 136.082 54.8503L135.643 55.1571C135.487 55.2729 135.341 55.3581 135.205 55.4127C135.069 55.4604 134.917 55.4842 134.747 55.4842C134.454 55.4842 134.234 55.4195 134.084 55.29C133.935 55.1605 133.86 54.9798 133.86 54.7481C133.86 54.564 133.904 54.4175 133.992 54.3084C134.081 54.1926 134.19 54.1039 134.319 54.0426C134.454 53.9744 134.641 53.8995 134.879 53.8177L135.134 53.7256L136.051 53.3882V52.8055C136.051 52.3692 136.014 52.0523 135.939 51.8546C135.871 51.6569 135.752 51.5581 135.582 51.5581C135.222 51.5581 135.018 51.8375 134.971 52.3965C134.95 52.601 134.889 52.7475 134.787 52.8361C134.692 52.9247 134.556 52.969 134.38 52.969C134.21 52.969 134.084 52.935 134.003 52.8668C133.928 52.7918 133.891 52.6964 133.891 52.5805C133.891 52.376 134.009 52.1818 134.247 51.9977C134.485 51.8069 134.77 51.6535 135.103 51.5376C135.443 51.4218 135.742 51.3638 136 51.3638C136.299 51.3638 136.54 51.4592 136.724 51.6501C136.914 51.8341 137.009 52.117 137.009 52.4987V54.3084C137.009 54.5061 137.043 54.6595 137.111 54.7685C137.186 54.8776 137.288 54.9321 137.417 54.9321C137.512 54.9321 137.61 54.9083 137.712 54.8605H137.723ZM136.061 54.6765C136.055 54.6492 136.051 54.6049 136.051 54.5436V53.5621L135.613 53.7665C135.593 53.7734 135.525 53.8006 135.409 53.8483C135.294 53.8892 135.192 53.9608 135.103 54.063C135.022 54.1653 134.981 54.2846 134.981 54.4209C134.981 54.5845 135.032 54.714 135.134 54.8094C135.243 54.898 135.365 54.9423 135.501 54.9423C135.609 54.9423 135.722 54.9049 135.837 54.8299L136.061 54.6765ZM139.118 50.3516C138.921 50.3516 138.768 50.2971 138.659 50.188C138.551 50.079 138.496 49.9256 138.496 49.7279C138.496 49.5507 138.551 49.411 138.659 49.3087C138.775 49.1997 138.928 49.1451 139.118 49.1451C139.308 49.1451 139.454 49.1963 139.556 49.2985C139.658 49.4007 139.709 49.5439 139.709 49.7279C139.709 49.9256 139.658 50.079 139.556 50.188C139.454 50.2971 139.308 50.3516 139.118 50.3516ZM138.139 55.4127C138.119 55.4127 138.109 55.3922 138.109 55.3513C138.109 55.3104 138.119 55.29 138.139 55.29C138.35 55.29 138.493 55.2423 138.568 55.1468C138.642 55.0446 138.68 54.8571 138.68 54.5845V52.7543C138.68 52.5226 138.656 52.3556 138.608 52.2533C138.561 52.1511 138.483 52.1 138.374 52.1C138.286 52.1 138.16 52.1375 137.997 52.2124H137.987C137.959 52.2124 137.939 52.1954 137.925 52.1613C137.912 52.1204 137.915 52.0966 137.936 52.0897L139.475 51.374L139.505 51.3638C139.539 51.3638 139.573 51.3809 139.607 51.4149C139.641 51.449 139.658 51.4797 139.658 51.507V51.7319C139.644 52.0045 139.638 52.3385 139.638 52.7339V54.5845C139.638 54.8571 139.675 55.0446 139.75 55.1468C139.831 55.2423 139.977 55.29 140.188 55.29C140.208 55.29 140.219 55.3104 140.219 55.3513C140.219 55.3922 140.208 55.4127 140.188 55.4127C140.011 55.4127 139.872 55.4093 139.77 55.4024L139.159 55.3922L138.557 55.4024C138.455 55.4093 138.316 55.4127 138.139 55.4127ZM140.776 55.4127C140.762 55.4127 140.755 55.3922 140.755 55.3513C140.755 55.3104 140.762 55.29 140.776 55.29C140.986 55.29 141.129 55.2423 141.204 55.1468C141.285 55.0446 141.326 54.8571 141.326 54.5845L141.336 49.3905C141.336 49.1519 141.312 48.9815 141.265 48.8793C141.224 48.7771 141.149 48.7259 141.041 48.7259C140.952 48.7259 140.823 48.7634 140.653 48.8384H140.643C140.623 48.8384 140.602 48.8214 140.582 48.7873C140.568 48.7464 140.568 48.7225 140.582 48.7157L142.08 48.0102L142.121 48C142.155 48 142.192 48.017 142.233 48.0511C142.274 48.0784 142.294 48.1057 142.294 48.1329V54.5845C142.294 54.8571 142.332 55.0446 142.406 55.1468C142.481 55.2423 142.624 55.29 142.834 55.29C142.861 55.29 142.875 55.3104 142.875 55.3513C142.875 55.3922 142.861 55.4127 142.834 55.4127C142.664 55.4127 142.529 55.4093 142.427 55.4024L141.805 55.3922L141.193 55.4024C141.092 55.4093 140.952 55.4127 140.776 55.4127ZM147.308 50.0551C147.308 50.3005 147.369 50.5186 147.492 50.7095C147.621 50.9003 147.777 51.0673 147.961 51.2105C148.144 51.3536 148.392 51.5274 148.704 51.7319C149.044 51.95 149.316 52.1409 149.52 52.3045C149.724 52.468 149.897 52.6691 150.04 52.9077C150.182 53.1394 150.254 53.4087 150.254 53.7154C150.254 54.0699 150.158 54.3868 149.968 54.6663C149.778 54.9389 149.513 55.1536 149.173 55.3104C148.84 55.4604 148.467 55.5354 148.052 55.5354C147.746 55.5354 147.427 55.4945 147.094 55.4127C146.761 55.3241 146.537 55.2286 146.422 55.1264C146.388 55.0991 146.36 55.0753 146.34 55.0548C146.326 55.0275 146.32 54.9866 146.32 54.9321L146.289 53.3064V53.2962C146.289 53.269 146.306 53.2553 146.34 53.2553C146.374 53.2485 146.394 53.2587 146.401 53.286C146.605 53.7018 146.782 54.0392 146.931 54.2982C147.087 54.5572 147.281 54.7856 147.512 54.9832C147.75 55.1809 148.018 55.2797 148.317 55.2797C148.589 55.2797 148.813 55.2082 148.99 55.065C149.166 54.9151 149.255 54.6629 149.255 54.3084C149.255 54.0085 149.187 53.7461 149.051 53.5212C148.922 53.2962 148.762 53.1054 148.572 52.9486C148.382 52.7918 148.12 52.6044 147.787 52.3863C147.461 52.175 147.206 51.9943 147.023 51.8444C146.846 51.6944 146.693 51.5138 146.564 51.3025C146.435 51.0912 146.371 50.8424 146.371 50.5561C146.371 50.1948 146.473 49.8915 146.676 49.6461C146.887 49.3939 147.155 49.2099 147.482 49.094C147.808 48.9713 148.151 48.91 148.511 48.91C148.749 48.91 148.99 48.9338 149.234 48.9815C149.479 49.0224 149.676 49.0736 149.826 49.1349C149.887 49.1622 149.927 49.1928 149.948 49.2269C149.968 49.2542 149.978 49.2917 149.978 49.3394V50.8424C149.978 50.8628 149.961 50.8799 149.927 50.8935C149.893 50.9003 149.873 50.8935 149.866 50.873L149.785 50.6788C149.615 50.2494 149.414 49.8847 149.183 49.5848C148.959 49.2849 148.643 49.1349 148.236 49.1349C147.964 49.1349 147.74 49.2133 147.563 49.3701C147.393 49.5268 147.308 49.7552 147.308 50.0551ZM155.05 54.8605C155.077 54.8605 155.094 54.8776 155.101 54.9117C155.115 54.9389 155.108 54.9594 155.081 54.973L154.031 55.474C154.004 55.4876 153.97 55.4945 153.929 55.4945C153.821 55.4945 153.715 55.4365 153.613 55.3206C153.518 55.2048 153.45 55.048 153.409 54.8503L152.971 55.1571C152.815 55.2729 152.669 55.3581 152.533 55.4127C152.397 55.4604 152.244 55.4842 152.074 55.4842C151.782 55.4842 151.561 55.4195 151.412 55.29C151.262 55.1605 151.188 54.9798 151.188 54.7481C151.188 54.564 151.232 54.4175 151.32 54.3084C151.409 54.1926 151.517 54.1039 151.646 54.0426C151.782 53.9744 151.969 53.8995 152.207 53.8177L152.462 53.7256L153.379 53.3882V52.8055C153.379 52.3692 153.342 52.0523 153.267 51.8546C153.199 51.6569 153.08 51.5581 152.91 51.5581C152.55 51.5581 152.346 51.8375 152.299 52.3965C152.278 52.601 152.217 52.7475 152.115 52.8361C152.02 52.9247 151.884 52.969 151.708 52.969C151.538 52.969 151.412 52.935 151.33 52.8668C151.256 52.7918 151.218 52.6964 151.218 52.5805C151.218 52.376 151.337 52.1818 151.575 51.9977C151.813 51.8069 152.098 51.6535 152.431 51.5376C152.771 51.4218 153.07 51.3638 153.328 51.3638C153.627 51.3638 153.868 51.4592 154.052 51.6501C154.242 51.8341 154.337 52.117 154.337 52.4987V54.3084C154.337 54.5061 154.371 54.6595 154.439 54.7685C154.514 54.8776 154.615 54.9321 154.745 54.9321C154.84 54.9321 154.938 54.9083 155.04 54.8605H155.05ZM153.389 54.6765C153.382 54.6492 153.379 54.6049 153.379 54.5436V53.5621L152.941 53.7665C152.92 53.7734 152.852 53.8006 152.737 53.8483C152.621 53.8892 152.519 53.9608 152.431 54.063C152.35 54.1653 152.309 54.2846 152.309 54.4209C152.309 54.5845 152.36 54.714 152.462 54.8094C152.57 54.898 152.693 54.9423 152.829 54.9423C152.937 54.9423 153.049 54.9049 153.165 54.8299L153.389 54.6765ZM155.426 55.4127C155.412 55.4127 155.405 55.3922 155.405 55.3513C155.405 55.3104 155.412 55.29 155.426 55.29C155.636 55.29 155.779 55.2423 155.854 55.1468C155.935 55.0446 155.976 54.8571 155.976 54.5845L155.986 49.3905C155.986 49.1519 155.962 48.9815 155.915 48.8793C155.874 48.7771 155.799 48.7259 155.691 48.7259C155.602 48.7259 155.473 48.7634 155.303 48.8384H155.293C155.273 48.8384 155.252 48.8214 155.232 48.7873C155.218 48.7464 155.218 48.7225 155.232 48.7157L156.73 48.0102L156.771 48C156.805 48 156.842 48.017 156.883 48.0511C156.924 48.0784 156.944 48.1057 156.944 48.1329V54.5845C156.944 54.8571 156.982 55.0446 157.056 55.1468C157.131 55.2423 157.274 55.29 157.484 55.29C157.511 55.29 157.525 55.3104 157.525 55.3513C157.525 55.3922 157.511 55.4127 157.484 55.4127C157.314 55.4127 157.179 55.4093 157.077 55.4024L156.455 55.3922L155.843 55.4024C155.742 55.4093 155.602 55.4127 155.426 55.4127ZM160.211 55.5456C159.79 55.5456 159.42 55.4502 159.1 55.2593C158.788 55.0616 158.547 54.7992 158.377 54.472C158.207 54.138 158.122 53.7768 158.122 53.3882C158.122 52.9452 158.234 52.5703 158.458 52.2636C158.683 51.95 158.968 51.7183 159.314 51.5683C159.661 51.4115 160.018 51.3331 160.385 51.3331C160.806 51.3331 161.173 51.432 161.485 51.6297C161.798 51.8273 162.036 52.0897 162.199 52.4169C162.368 52.7373 162.453 53.0815 162.453 53.4496C162.453 53.8586 162.351 54.2232 162.148 54.5436C161.944 54.8571 161.669 55.1025 161.322 55.2797C160.982 55.457 160.612 55.5456 160.211 55.5456ZM160.517 55.3309C160.782 55.3309 160.982 55.2014 161.118 54.9423C161.261 54.6765 161.332 54.2982 161.332 53.8074C161.332 53.3303 161.271 52.9213 161.149 52.5805C161.027 52.2397 160.867 51.9841 160.67 51.8137C160.473 51.6365 160.262 51.5479 160.038 51.5479C159.495 51.5479 159.223 52.0352 159.223 53.0099C159.223 53.4666 159.28 53.8722 159.396 54.2266C159.511 54.5743 159.668 54.8469 159.865 55.0446C160.062 55.2354 160.279 55.3309 160.517 55.3309ZM167.969 55.29C167.99 55.29 168 55.3104 168 55.3513C168 55.3922 167.99 55.4127 167.969 55.4127C167.793 55.4127 167.654 55.4093 167.552 55.4024L166.94 55.3922L166.349 55.4024C166.24 55.4093 166.098 55.4127 165.921 55.4127C165.901 55.4127 165.89 55.3922 165.89 55.3513C165.89 55.3104 165.901 55.29 165.921 55.29C166.132 55.29 166.274 55.2423 166.349 55.1468C166.424 55.0446 166.461 54.8571 166.461 54.5845V53.1122C166.461 52.7441 166.393 52.4715 166.257 52.2942C166.128 52.117 165.921 52.0284 165.636 52.0284C165.473 52.0284 165.303 52.0625 165.126 52.1306C164.956 52.1988 164.807 52.2908 164.678 52.4067V54.5845C164.678 54.8571 164.715 55.0446 164.79 55.1468C164.871 55.2423 165.017 55.29 165.228 55.29C165.248 55.29 165.259 55.3104 165.259 55.3513C165.259 55.3922 165.248 55.4127 165.228 55.4127C165.051 55.4127 164.912 55.4093 164.81 55.4024L164.199 55.3922L163.597 55.4024C163.495 55.4093 163.356 55.4127 163.18 55.4127C163.159 55.4127 163.149 55.3922 163.149 55.3513C163.149 55.3104 163.159 55.29 163.18 55.29C163.39 55.29 163.533 55.2423 163.608 55.1468C163.682 55.0446 163.72 54.8571 163.72 54.5845V52.6623C163.72 52.451 163.692 52.2976 163.638 52.2022C163.591 52.1 163.512 52.0488 163.404 52.0488C163.288 52.0488 163.125 52.0966 162.915 52.192H162.894C162.874 52.192 162.857 52.1749 162.843 52.1409C162.836 52.1068 162.84 52.0863 162.853 52.0795L164.27 51.3843C164.311 51.3706 164.335 51.3638 164.341 51.3638C164.416 51.3638 164.487 51.4388 164.555 51.5888C164.623 51.7319 164.664 51.9296 164.678 52.1818C165.146 51.6228 165.663 51.3434 166.227 51.3434C166.594 51.3434 166.882 51.4627 167.093 51.7012C167.31 51.933 167.419 52.2397 167.419 52.6214V54.5845C167.419 54.8571 167.456 55.0446 167.531 55.1468C167.613 55.2423 167.759 55.29 167.969 55.29Z" fill="#C28565"/>
<path d="M98.5212 40.0939C98.5825 40.0939 98.6131 40.1851 98.6131 40.3675C98.6131 40.55 98.5825 40.6412 98.5212 40.6412H90.3367C89.6623 40.6412 88.4055 39.4402 86.5663 37.0382C84.7271 34.6059 82.5047 31.2157 79.8991 26.8679C79.6539 26.8983 79.3014 26.9135 78.8416 26.9135C77.6461 26.9135 76.8031 26.8983 76.3127 26.8679V36.947C76.3127 37.8896 76.3893 38.5737 76.5426 38.9993C76.6958 39.425 76.9871 39.7138 77.4162 39.8659C77.876 40.0179 78.5964 40.0939 79.5773 40.0939C79.6386 40.0939 79.6692 40.1851 79.6692 40.3675C79.6692 40.55 79.6386 40.6412 79.5773 40.6412C78.5657 40.6412 77.7687 40.626 77.1863 40.5956L73.6918 40.55L70.3352 40.5956C69.7222 40.626 68.8945 40.6412 67.8523 40.6412C67.7603 40.6412 67.7144 40.55 67.7144 40.3675C67.7144 40.1851 67.7603 40.0939 67.8523 40.0939C68.8332 40.0939 69.5382 40.0179 69.9674 39.8659C70.4272 39.7138 70.7337 39.425 70.887 38.9993C71.0709 38.5433 71.1629 37.8592 71.1629 36.947V15.831C71.1629 14.9188 71.0862 14.2499 70.933 13.8243C70.7797 13.3986 70.4732 13.1098 70.0134 12.9577C69.5536 12.7753 68.8485 12.6841 67.8983 12.6841C67.837 12.6841 67.8063 12.5929 67.8063 12.4105C67.8063 12.228 67.837 12.1368 67.8983 12.1368L70.3352 12.1824C71.7453 12.2432 72.8642 12.2736 73.6918 12.2736C74.734 12.2736 75.8222 12.228 76.9564 12.1368C77.3549 12.1064 77.8454 12.076 78.4278 12.0456C79.0409 12.0152 79.7152 12 80.4509 12C83.2404 12 85.4015 12.5169 86.9341 13.5506C88.4668 14.554 89.2332 15.9678 89.2332 17.7921C89.2332 19.4643 88.7734 20.9846 87.8538 22.3528C86.9341 23.6906 85.708 24.77 84.1753 25.5909C86.6276 29.2394 88.6814 32.0975 90.3367 34.165C91.992 36.2325 93.4634 37.7375 94.7508 38.6801C96.0383 39.6226 97.2951 40.0939 98.5212 40.0939ZM76.3127 25.5909C77.0484 25.7125 77.9373 25.7733 78.9795 25.7733C80.7574 25.7733 82.0296 25.2868 82.7959 24.3139C83.5929 23.3105 83.9914 21.7143 83.9914 19.5251C83.9914 17.032 83.6236 15.3141 82.8879 14.3716C82.1522 13.429 81.0946 12.9577 79.7152 12.9577C78.4891 12.9577 77.6155 13.1858 77.0943 13.6419C76.5732 14.0979 76.3127 14.858 76.3127 15.9222V25.5909ZM117.338 38.1784C117.461 38.1784 117.537 38.2544 117.568 38.4064C117.629 38.5281 117.599 38.6193 117.476 38.6801L112.74 40.9148C112.618 40.9756 112.464 41.006 112.28 41.006C111.79 41.006 111.315 40.7476 110.855 40.2307C110.426 39.7138 110.119 39.0145 109.935 38.1328L107.958 39.501C107.253 40.0179 106.594 40.3979 105.981 40.6412C105.368 40.854 104.678 40.9604 103.912 40.9604C102.594 40.9604 101.598 40.6716 100.923 40.0939C100.249 39.5162 99.9117 38.7105 99.9117 37.6767C99.9117 36.8558 100.111 36.2021 100.509 35.7156C100.908 35.1987 101.398 34.8035 101.981 34.5298C102.594 34.2258 103.437 33.8913 104.51 33.5265L105.659 33.116L109.797 31.611V29.0114C109.797 27.0655 109.629 25.6517 109.292 24.77C108.985 23.8882 108.449 23.4473 107.682 23.4473C106.058 23.4473 105.138 24.6939 104.924 27.1871C104.832 28.0993 104.556 28.753 104.096 29.1482C103.667 29.5435 103.054 29.7411 102.257 29.7411C101.49 29.7411 100.923 29.5891 100.555 29.285C100.218 28.9506 100.05 28.5249 100.05 28.008C100.05 27.0959 100.586 26.2294 101.659 25.4085C102.732 24.5571 104.019 23.873 105.521 23.3561C107.054 22.8393 108.403 22.5808 109.568 22.5808C110.916 22.5808 112.005 23.0065 112.832 23.8578C113.69 24.6787 114.12 25.9405 114.12 27.6432V35.7156C114.12 36.5974 114.273 37.2815 114.579 37.7679C114.917 38.2544 115.376 38.4977 115.959 38.4977C116.388 38.4977 116.832 38.3912 117.292 38.1784H117.338ZM109.843 37.3575C109.813 37.2359 109.797 37.0382 109.797 36.7646V32.3863L107.82 33.2985C107.728 33.3289 107.422 33.4505 106.901 33.6633C106.38 33.8457 105.92 34.165 105.521 34.6211C105.153 35.0771 104.97 35.6092 104.97 36.2173C104.97 36.947 105.199 37.5247 105.659 37.9504C106.15 38.3456 106.701 38.5433 107.315 38.5433C107.805 38.5433 108.311 38.376 108.832 38.0416L109.843 37.3575ZM122.852 25.226C122.852 26.1078 123.158 26.8679 123.771 27.5064C124.415 28.1449 125.335 28.8138 126.53 29.5131C127.695 30.182 128.553 30.7141 129.105 31.1093C129.687 31.4742 130.208 32.0063 130.668 32.7056C131.128 33.3745 131.358 34.1954 131.358 35.1683C131.358 36.2021 131.097 37.175 130.576 38.0872C130.055 38.9993 129.274 39.7442 128.231 40.3219C127.189 40.8692 125.948 41.1429 124.507 41.1429C122.821 41.1429 121.227 40.7324 119.725 39.9115C119.541 39.729 119.449 39.5466 119.449 39.3642L119.357 34.8491C119.357 34.7579 119.434 34.7123 119.587 34.7123C119.771 34.6819 119.878 34.6971 119.909 34.7579C120.399 36.2781 121.212 37.5703 122.346 38.6345C123.48 39.6986 124.63 40.2307 125.794 40.2307C126.438 40.2307 126.944 40.0331 127.312 39.6378C127.71 39.2426 127.909 38.6649 127.909 37.9048C127.909 36.7798 127.588 35.8981 126.944 35.2596C126.3 34.5907 125.35 33.9065 124.093 33.2072C123.02 32.6296 122.208 32.1583 121.656 31.7934C121.104 31.4286 120.614 30.9117 120.185 30.2428C119.756 29.5739 119.541 28.753 119.541 27.78C119.541 25.9861 120.185 24.6787 121.472 23.8578C122.76 23.0065 124.338 22.5808 126.208 22.5808C126.913 22.5808 127.542 22.6264 128.093 22.7176C128.676 22.8089 129.32 22.9913 130.025 23.2649C130.3 23.3561 130.438 23.5234 130.438 23.7666C130.438 24.5267 130.423 25.1196 130.392 25.5453L130.346 27.8256C130.346 27.9168 130.254 27.9624 130.071 27.9624C129.887 27.9624 129.795 27.9168 129.795 27.8256C129.795 27.2479 129.549 26.6246 129.059 25.9557C128.568 25.2564 127.925 24.6635 127.128 24.1771C126.361 23.6906 125.564 23.4473 124.737 23.4473C123.48 23.4473 122.852 24.0402 122.852 25.226ZM167.816 40.0939C167.939 40.0939 168 40.1851 168 40.3675C168 40.55 167.939 40.6412 167.816 40.6412C167.019 40.6412 166.391 40.626 165.931 40.5956L163.172 40.55L160.505 40.5956C160.015 40.626 159.371 40.6412 158.574 40.6412C158.482 40.6412 158.436 40.55 158.436 40.3675C158.436 40.1851 158.482 40.0939 158.574 40.0939C159.524 40.0939 160.168 39.8811 160.505 39.4554C160.873 38.9993 161.057 38.1632 161.057 36.947V30.3796C161.057 28.7378 160.766 27.5216 160.183 26.7311C159.632 25.9405 158.773 25.5453 157.609 25.5453C156.812 25.5453 156.03 25.7125 155.264 26.0469C154.497 26.3814 153.838 26.8375 153.286 27.4152V27.6888V36.947C153.286 38.1632 153.455 38.9993 153.792 39.4554C154.16 39.8811 154.819 40.0939 155.769 40.0939C155.892 40.0939 155.953 40.1851 155.953 40.3675C155.953 40.55 155.892 40.6412 155.769 40.6412C154.972 40.6412 154.344 40.626 153.884 40.5956L151.125 40.55L148.458 40.5956C147.968 40.626 147.324 40.6412 146.527 40.6412C146.435 40.6412 146.389 40.55 146.389 40.3675C146.389 40.1851 146.435 40.0939 146.527 40.0939C147.477 40.0939 148.121 39.8811 148.458 39.4554C148.826 38.9993 149.01 38.1632 149.01 36.947V30.3796C149.01 28.7378 148.719 27.5216 148.137 26.7311C147.585 25.9405 146.726 25.5453 145.562 25.5453C144.826 25.5453 144.09 25.6973 143.355 26.0013C142.65 26.275 142.021 26.6702 141.469 27.1871V36.947C141.469 38.1632 141.638 38.9993 141.975 39.4554C142.343 39.8811 143.002 40.0939 143.952 40.0939C144.044 40.0939 144.09 40.1851 144.09 40.3675C144.09 40.55 144.044 40.6412 143.952 40.6412C143.155 40.6412 142.527 40.626 142.067 40.5956L139.308 40.55L136.595 40.5956C136.136 40.626 135.507 40.6412 134.71 40.6412C134.618 40.6412 134.572 40.55 134.572 40.3675C134.572 40.1851 134.618 40.0939 134.71 40.0939C135.661 40.0939 136.304 39.8811 136.641 39.4554C136.979 38.9993 137.147 38.1632 137.147 36.947V28.3729C137.147 27.4304 137.025 26.7463 136.779 26.3206C136.565 25.8645 136.212 25.6365 135.722 25.6365C135.201 25.6365 134.465 25.8493 133.515 26.275H133.423C133.331 26.275 133.254 26.199 133.193 26.0469C133.162 25.8949 133.178 25.8037 133.239 25.7733L139.63 22.672C139.814 22.6112 139.921 22.5808 139.952 22.5808C140.289 22.5808 140.611 22.9153 140.918 23.5842C141.224 24.2227 141.408 25.0892 141.469 26.1838C143.554 23.721 145.792 22.4896 148.183 22.4896C149.623 22.4896 150.773 22.8393 151.631 23.5386C152.489 24.2379 153.01 25.2412 153.194 26.5486C155.309 23.8426 157.654 22.4896 160.229 22.4896C161.885 22.4896 163.141 22.9609 164 23.9034C164.889 24.846 165.333 26.275 165.333 28.1905V36.947C165.333 38.1632 165.502 38.9993 165.839 39.4554C166.207 39.8811 166.866 40.0939 167.816 40.0939Z" fill="#0D0D0D"/>
<path d="M59.8357 17.5768C59.698 16.7837 59.355 15.9004 58.8641 15.1343V15.1332C58.2022 14.102 57.2732 13.2844 56.2178 13.1893C54.5971 13.0438 53.1277 14.1982 52.1298 15.5121C51.8798 15.8417 51.6457 16.1854 51.4186 16.5339C50.7407 17.5744 50.1178 18.6572 49.2506 19.5335C47.6597 21.1407 45.7957 22.1355 43.6061 22.6C41.4163 23.0646 38.8768 22.552 36.8109 23.4259C34.7451 24.2999 33.0521 26.3118 31.9669 28.312C30.142 31.6764 29.4583 35.5805 29.3964 39.3146V39.3169C29.3918 39.5785 29.3907 39.8378 29.393 40.0971C29.4171 44.0633 30.5251 48.0449 32.7171 51.3179C35.3646 55.2724 39.9768 59.2458 44.6625 59.2834C46.1422 59.2951 47.4647 59.125 48.6553 58.813C48.7655 58.7848 48.7999 58.6768 48.7723 58.59C48.7529 58.5267 48.699 58.4739 48.6152 58.4716C35.7063 58.1877 38.8733 47.1674 41.4163 44.7344C42.3213 43.8686 43.5499 43.9589 44.8621 44.3883C45.4321 44.5748 46.0171 44.8247 46.5987 45.0874L46.5998 45.0886C47.2801 45.396 47.9557 45.721 48.5934 45.9826C50.0169 46.5668 51.258 46.8366 51.9715 45.8981C53.9456 43.2985 53.9157 44.3684 54.7829 42.3506C55.2716 41.2126 53.8836 40.4924 52.7342 39.9023C52.6334 39.8507 52.6884 39.6946 52.7985 39.7181C57.4452 40.7235 56.5918 37.3496 56.5918 37.3496C58.2068 37.4411 59.9114 36.1108 59.0144 33.496C58.1174 30.8811 58.1174 28.6334 58.1174 28.6334C58.3043 25.8601 59.0557 25.1644 59.5982 22.4405C59.9653 20.5894 60.1591 19.4362 59.8357 17.5768ZM55.1751 28.7331C55.1064 28.7554 55.0364 28.7765 54.9676 28.7964C54.8471 28.8304 54.7622 28.9419 54.7622 29.0698V30.0763C54.7622 30.3449 54.5397 30.562 54.2725 30.5444C54.0293 30.5279 53.8446 30.3098 53.8446 30.0598V29.0862C53.8446 29.024 53.7953 28.9736 53.7345 28.9736C53.4787 28.9736 53.2252 28.9501 52.974 28.9043C52.9224 28.895 52.8719 28.9231 52.8524 28.9736L52.4463 30.061C52.3764 30.2476 52.202 30.3626 52.0174 30.3626C51.9566 30.3626 51.8946 30.3496 51.835 30.3238C51.6079 30.223 51.5069 29.9473 51.5964 29.7103L51.8935 28.915C51.9566 28.746 51.8855 28.556 51.7272 28.475C51.632 28.4269 51.5379 28.3753 51.4438 28.319C51.2993 28.2334 51.1147 28.2685 51.008 28.3999L50.3083 29.2645C50.2177 29.3759 50.0869 29.4346 49.955 29.4346C49.8517 29.4346 49.7485 29.3994 49.6625 29.3266C49.4675 29.1624 49.44 28.8657 49.6016 28.6662L50.3243 27.7735C50.4046 27.6737 50.3954 27.5283 50.3048 27.4391C50.1947 27.3324 50.0903 27.2256 49.9928 27.1189C49.9148 27.0333 49.7898 27.0168 49.6923 27.079L48.8962 27.5858C48.8216 27.6327 48.738 27.6562 48.6553 27.6562C48.4982 27.6562 48.3433 27.574 48.2585 27.4228C48.1323 27.201 48.2149 26.9159 48.4271 26.7798L49.0763 26.3669C49.1899 26.2942 49.2243 26.1405 49.1509 26.0244C49.0385 25.8496 48.9777 25.7358 48.9697 25.7229C48.848 25.4953 48.9307 25.2102 49.152 25.0858C49.3734 24.9616 49.6521 25.0448 49.7749 25.2712C49.7829 25.2865 50.2945 26.2215 51.1983 26.998C51.6893 27.4192 52.1952 27.7113 52.7148 27.8767C52.7319 27.8814 52.7503 27.8861 52.7675 27.8932L52.7687 27.8943C53.4626 28.102 54.1784 28.0832 54.9114 27.8356C55.1603 27.7523 55.4298 27.8967 55.4986 28.1595C55.5595 28.4046 55.4103 28.6545 55.1751 28.7331ZM56.0286 25.9669C56.0217 25.9669 56.0148 25.9669 56.0079 25.9669C55.7648 25.9669 55.5617 25.7698 55.5502 25.5188C55.5182 24.7668 55.2509 24.2061 54.7358 23.8013C53.075 22.498 49.5042 23.2864 49.4686 23.2945C49.222 23.3497 48.9765 23.1913 48.9215 22.9379C48.8676 22.6845 49.0224 22.4346 49.2702 22.3783C49.433 22.342 53.2928 21.4879 55.2933 23.0564C56.0263 23.6312 56.4209 24.4454 56.4656 25.4765C56.4782 25.7358 56.2821 25.9552 56.0286 25.9669Z" fill="#C28565"/>
<path d="M48.7724 58.5889C46.1606 58.7027 42.404 58.2862 39.3679 55.6292C34.6615 51.5092 33.41 43.5144 37.0164 36.5379C37.1873 36.2071 37.6633 36.2458 37.7826 36.6C38.4525 38.5873 40.2579 42.2158 44.8622 44.3884C43.55 43.9601 42.3215 43.8687 41.4164 44.7345C38.8735 47.1663 35.7064 58.1866 48.6153 58.4716C48.6991 58.4728 48.753 58.5256 48.7724 58.5889Z" fill="#AB6A49"/>
<path d="M41.3822 59.9989C38.9998 59.5719 36.6082 58.6769 35.0127 57.6902C34.087 57.1177 33.2508 56.421 32.4455 55.6807C30.803 53.7873 29.3382 51.7297 27.753 49.7834C25.756 47.3317 23.4986 45.0054 20.6906 43.6117C17.7335 42.1441 14.2981 41.7781 11.356 40.3598C12.3723 41.2209 13.6168 41.8357 14.8659 42.3072C16.7482 43.0181 18.7269 43.4827 20.5128 44.4188C23.1063 45.7796 25.1297 48.0496 26.8938 50.4252C27.1049 50.7091 27.3125 50.9953 27.519 51.2827C27.5523 51.3296 27.4984 51.3895 27.4502 51.3578C24.3509 49.3095 20.7274 48.1482 17.176 47.0407C13.8565 46.006 10.4716 44.9526 7.48693 43.1894C6.78035 42.7729 6.09673 42.3166 5.44062 41.8098C2.38029 39.4495 0.0288235 35.7636 0.00244141 31.9099C2.04992 33.3001 4.59178 34.2092 6.82852 34.7453C10.7904 35.6955 14.9806 35.8727 18.6764 37.6147C22.4261 39.3815 25.4062 42.5196 27.8069 45.9802C28.0352 46.3099 28.2588 46.6419 28.4768 46.9762C29.4334 48.4426 30.3258 49.9336 31.255 51.3566C31.2561 51.3589 31.2572 51.3613 31.2595 51.3624V51.3636C32.9101 53.894 34.6766 56.211 37.1278 57.8053C38.019 58.3848 39.0812 58.9608 40.257 59.4558C40.6297 59.613 41.0152 59.7619 41.4086 59.8993C41.4636 59.9227 41.4419 60.0107 41.3822 59.9989Z" fill="#C28565"/>
<path d="M31.95 57.2045C29.1364 55.5129 26.1953 53.9715 23.0856 53.609C20.3247 53.2875 17.4984 52.979 15.0013 51.7847C16.3169 52.7596 18.0971 53.3379 19.6285 53.6582C21.4775 54.0453 23.3965 54.2717 25.2088 54.8114C26.4786 55.1903 28.268 56.0877 30.0276 57.0673C30.0792 57.0966 30.0574 57.1787 29.9989 57.1752C29.2924 57.1412 28.5812 57.1599 27.8826 57.2115C25.6642 57.377 23.455 57.8298 21.2331 57.7172C18.2921 57.5682 15.4119 56.3904 13.174 54.4336C13.0513 54.3269 12.9309 54.2166 12.8115 54.1052C10.919 52.3209 9.55396 49.9629 8.91162 47.4149C9.16508 47.5509 9.42436 47.6777 9.69042 47.795C11.3319 48.5211 13.1729 48.8942 14.9565 49.1147C18.1052 49.5054 21.3765 49.5758 24.2579 50.9295C24.9473 51.2533 25.5965 51.6428 26.2194 52.0757C27.8276 53.1972 29.2545 54.6178 30.694 55.9739C31.1161 56.3716 31.5463 56.7681 31.9856 57.1506C32.0143 57.1787 31.9833 57.2245 31.95 57.2045Z" fill="#C28565"/>
<path d="M33.6198 21.1372C33.528 22.0804 32.8937 22.9203 31.952 23.216C30.8749 23.5526 29.744 23.0681 29.2037 22.1108C29.1143 21.9548 29.042 21.7848 28.9881 21.6041C28.6049 20.3219 29.3104 18.9646 30.5641 18.5728C31.8179 18.1809 33.145 18.9024 33.528 20.1847C33.6233 20.5026 33.6508 20.8251 33.6198 21.1372Z" fill="#C28565"/>
<path d="M39.9172 10.6296C39.799 10.9733 39.6591 11.2971 39.495 11.5904C37.9156 14.4141 35.5606 15.5156 33.7197 16.1573C33.2975 14.5654 32.9339 12.4984 33.6233 10.1744C33.7655 9.69576 33.9525 9.20659 34.1922 8.70688C35.5366 5.91602 40.1282 3.4032 40.4001 3.30701C40.4666 3.5604 40.8956 7.79886 39.9172 10.6296Z" fill="#C28565"/>
<path d="M33.9836 4.57515C33.9641 4.63263 33.9446 4.6913 33.9217 4.7476C33.6384 5.45499 33.0775 6.00753 32.6037 6.60346C32.2504 5.9254 31.8019 5.27433 31.6562 4.52471C31.5541 4.00033 31.6081 3.47008 31.7515 2.95509C31.8914 2.45181 32.1163 1.96381 32.3663 1.50747C32.5773 1.12385 32.8068 0.746099 33.0247 0.364837C33.0935 0.244006 33.1612 0.122004 33.2254 0C33.1921 0.351934 33.1589 0.714429 33.1233 1.08748C33.0591 1.78197 32.9903 2.50929 32.9191 3.26127C32.8974 3.49237 32.8756 3.72581 32.8537 3.96161C32.8767 3.72581 32.8974 3.49237 32.9191 3.26127C32.9903 2.50929 33.0579 1.78079 33.1233 1.08748C33.1589 0.714429 33.1921 0.351934 33.2254 0C33.2656 0.132562 33.3091 0.265125 33.3539 0.397688C33.4961 0.815316 33.6521 1.22943 33.7863 1.64823C34.0915 2.59376 34.2887 3.64017 33.9836 4.57515Z" fill="#C28565"/>
<path d="M49.8828 15.0698C49.7543 15.2974 47.1172 18.616 44.4641 19.9054C44.1463 20.0602 43.8287 20.1845 43.5155 20.2725C40.446 21.1277 38.02 20.2033 36.2742 19.3258C36.8122 18.3662 37.5176 17.2728 38.5557 16.312C39.3839 15.546 40.4231 14.8633 41.7594 14.3999C44.6396 13.398 49.6236 14.9419 49.8828 15.0698Z" fill="#C28565"/>
<path d="M46.6984 7.6558C46.2808 7.76842 45.8576 7.86814 45.4435 7.9878C44.449 8.27404 43.4304 8.72916 42.8558 9.6079C42.7078 9.83428 42.5954 10.0794 42.5025 10.3364L42.5014 10.3375C42.3339 10.7986 42.2284 11.2912 42.0884 11.764C42.8351 11.6854 43.614 11.7007 44.3033 11.4051C44.7346 11.2198 45.1006 10.9276 45.4126 10.5733C45.7922 10.1464 46.0962 9.6325 46.3509 9.11633C46.5447 8.72333 46.7213 8.31743 46.9095 7.91975C46.9691 7.79422 47.0299 7.66871 47.0918 7.54553C46.9622 7.58308 46.8315 7.61944 46.6984 7.6558ZM46.3852 8.1403C46.5057 8.03824 46.6261 7.93618 46.7443 7.83764C46.6261 7.93735 46.5069 8.03824 46.3852 8.1403Z" fill="#C28565"/>
<path d="M28.3229 33.0807C26.9785 35.8715 22.3857 38.3844 22.115 38.4805C22.0417 38.1966 21.5106 32.8977 23.0201 30.1972C24.5995 27.3735 26.9533 26.2719 28.7943 25.6314L28.7954 25.6302C29.3047 27.5506 29.728 30.162 28.3229 33.0807Z" fill="#C28565"/>
<path d="M17.2849 19.5171C16.6219 19.8796 15.9853 20.3371 15.2523 20.4861C14.2395 20.6926 13.2048 20.2773 12.3033 19.7599C11.927 19.5453 11.5588 19.3095 11.186 19.0866C11.0679 19.0162 10.9486 18.947 10.8293 18.8813C10.9589 18.8391 11.0885 18.7945 11.2181 18.7488C11.6265 18.6033 12.0314 18.4437 12.4397 18.3065C13.4205 17.9756 14.5148 17.7692 15.4703 18.1693C16.1608 18.459 16.701 19.0315 17.2826 19.5159C17.2849 19.5171 17.2849 19.5171 17.2849 19.5171Z" fill="#C28565"/>
<path d="M26.2407 22.4627C25.275 24.1883 23.7678 26.3423 20.7556 27.3887C17.8753 28.3893 12.8914 26.8455 12.6333 26.7176C12.7767 26.463 16.0653 22.3325 19.0006 21.5148C22.0689 20.6597 24.495 21.5829 26.2396 22.4615L26.2407 22.4627Z" fill="#C28565"/>
<path d="M18.2117 30.3836C17.2584 30.7919 16.6276 31.7281 16.163 32.6724C15.9692 33.0654 15.7926 33.4713 15.6044 33.869C15.5448 33.9945 15.484 34.12 15.4209 34.2432C15.5516 34.2045 15.6835 34.167 15.8154 34.1318C16.233 34.0191 16.6562 33.9182 17.0703 33.7998C18.0648 33.5124 19.0834 33.0584 19.6569 32.1797C20.0722 31.5439 20.2063 30.7603 20.4243 30.0247V30.0236C19.6787 30.1045 18.8999 30.0892 18.2117 30.3836ZM15.8866 33.8526C16.0438 33.72 16.2032 33.5851 16.3661 33.4478C16.2032 33.5863 16.0426 33.7212 15.8866 33.8526Z" fill="#C28565"/>
<path d="M26.6267 18.3744C24.75 18.8953 22.1956 19.3294 19.3417 17.8912C18.2761 17.355 17.2529 16.3109 16.3938 15.2223V15.2212C15.0552 13.5213 14.1203 11.7124 14.063 11.5422C14.3406 11.4671 19.5218 10.924 22.1623 12.4678C22.8884 12.8925 23.4975 13.3711 24.0125 13.8814C25.4567 15.3138 26.1644 16.9867 26.6267 18.3744Z" fill="#C28565"/>
<path d="M22.0532 7.75665C22.0302 7.68744 22.0061 7.6194 21.9786 7.55136C21.5794 6.57767 20.6641 5.93246 19.7408 5.45735C19.3565 5.25909 18.9595 5.07843 18.5707 4.88605C18.448 4.82504 18.3253 4.76287 18.2048 4.69952C18.2427 4.83326 18.2794 4.96816 18.315 5.10307C18.425 5.53008 18.5226 5.96297 18.6396 6.38763C18.7543 6.80644 18.8988 7.23109 19.088 7.62526C19.3565 8.18719 19.7178 8.68927 20.2225 9.03419C20.8442 9.4577 21.6116 9.59493 22.3296 9.81899V9.81779C22.2596 9.12565 22.2642 8.4089 22.0532 7.75665Z" fill="#C28565"/>
<path d="M29.7235 15.7631C28.0362 14.7741 25.9302 13.2339 24.907 10.1533C24.7097 9.55971 24.6133 8.88042 24.5869 8.16954C24.4803 5.35054 25.4633 2.05644 25.563 1.84528C25.8063 1.98957 29.6868 5.21916 30.5964 8.17072C30.6147 8.23289 30.633 8.29506 30.6491 8.35606C31.4853 11.4965 30.5826 13.9776 29.7235 15.7631Z" fill="#C28565"/>
<path d="M27.8045 45.9814C23.4652 40.2929 18.7267 37.84 13.4422 37.0727C11.5336 36.7959 8.1773 36.2011 6.26631 35.9301C4.82218 35.726 3.3723 35.3905 2.04862 34.7805C3.0821 38.0112 4.99769 40.9335 7.48449 43.1905C6.77791 42.774 6.09426 42.3177 5.43815 41.8109C2.37782 39.4506 0.0263821 35.7647 0 31.911C2.04749 33.3011 4.58931 34.2103 6.82606 34.7464C10.7879 35.6967 14.9782 35.8738 18.6739 37.6159C22.4248 39.3826 25.4037 42.5194 27.8045 45.9814Z" fill="#AB6A49"/>
<path d="M31.2572 51.366C31.256 51.3637 31.2536 51.3614 31.2524 51.359C31.2536 51.3614 31.2548 51.3637 31.2572 51.3649V51.366Z" fill="#AB6A49"/>
<path d="M22.8249 50.7209C18.6864 49.6463 14.1636 50.4182 10.1787 48.8978C10.6857 50.7737 11.6699 52.4946 12.8491 54.0255C12.9546 54.1628 13.0636 54.3 13.1726 54.4349C13.0498 54.3281 12.9294 54.2179 12.8101 54.1065C10.9175 52.3222 9.5525 49.9642 8.91016 47.4161C9.16361 47.5523 9.4229 47.6789 9.68896 47.7963C11.3304 48.5224 13.1714 48.8955 14.9551 49.116C18.1037 49.5067 21.3751 49.5771 24.2565 50.9309C24.9459 51.2546 25.5951 51.6441 26.2179 52.0769C25.1477 51.4857 24.0053 51.027 22.8249 50.7209Z" fill="#AB6A49"/>
<path d="M58.8644 15.1342C58.744 15.0674 58.6201 15.0075 58.4927 14.9524C56.95 14.2908 55.0527 14.6017 53.7875 15.7232C52.6141 16.7637 51.9362 18.257 51.0725 19.578C49.415 22.1143 46.6804 23.8153 43.674 24.0405C40.8855 24.2493 38.1257 24.3432 35.7639 25.8741C33.1992 27.5376 31.5359 30.3788 30.6596 33.3527C30.101 35.2449 29.6766 37.2826 29.3967 39.3133C29.4586 35.5793 30.1423 31.6752 31.9672 28.3106C33.0524 26.3105 34.7454 24.2998 36.8112 23.4247C38.8771 22.5506 41.4166 23.0633 43.6064 22.5987C45.796 22.1342 47.66 21.1394 49.2509 19.5322C50.1181 18.6571 50.741 17.5731 51.4189 16.5326C51.6459 16.1842 51.8788 15.8405 52.1301 15.5108C53.128 14.1969 54.5974 13.0426 56.2181 13.1881C57.2734 13.2854 58.2025 14.1031 58.8644 15.1342Z" fill="#AB6A49"/>
<path d="M28.7931 25.6314C28.6968 25.6936 22.4855 29.6962 22.1138 38.4806C22.0404 38.1967 21.5094 32.8977 23.0189 30.1972C24.5995 27.3735 26.9532 26.272 28.7931 25.6314Z" fill="#AB6A49"/>
<path d="M20.4267 30.0248C20.4267 30.0248 17.566 31.2777 15.4221 34.2445C15.4852 34.1213 15.546 33.9958 15.6056 33.8703C15.7938 33.4726 15.9704 33.0667 16.1643 32.6737C16.6288 31.7305 17.2597 30.7943 18.2129 30.385C18.9 30.0893 19.6789 30.1046 20.4267 30.0248Z" fill="#AB6A49"/>
<path d="M26.2399 22.4616C26.1137 22.4416 19.2979 21.3658 12.6348 26.7176C12.7782 26.4631 16.0667 22.3325 19.002 21.5149C22.0693 20.6608 24.4952 21.5841 26.2399 22.4616Z" fill="#AB6A49"/>
<path d="M17.2837 19.5171C15.4072 18.4953 10.8293 18.8825 10.8293 18.8825C10.9589 18.8402 11.0885 18.7957 11.2181 18.7499C11.6265 18.6044 12.0314 18.4449 12.4397 18.3076C13.4205 17.9768 14.5148 17.7704 15.4703 18.1704C16.1608 18.459 16.7022 19.0326 17.2837 19.5171Z" fill="#AB6A49"/>
<path d="M30.5963 8.17189C29.4905 6.11659 27.8112 4.38156 25.8016 3.24716C25.2178 4.83438 24.8106 6.48964 24.5857 8.16954C24.479 5.35054 25.4621 2.05644 25.5618 1.84528C25.8073 1.99074 29.6867 5.21916 30.5963 8.17189Z" fill="#AB6A49"/>
<path d="M39.9172 10.6296C40.1249 8.69512 40.0687 6.73134 39.7486 4.81212C37.1953 5.82218 35.0056 7.75782 33.6245 10.1733C33.7668 9.69464 33.9537 9.20547 34.1935 8.70567C35.5378 5.91486 40.1295 3.40204 40.4013 3.30585C40.4667 3.56041 40.8957 7.79887 39.9172 10.6296Z" fill="#AB6A49"/>
<path d="M49.8827 15.07C49.7542 15.2975 47.1172 18.6163 44.464 19.9055C45.0961 19.4961 45.6811 19.0034 46.2076 18.4602C47.069 17.5757 47.7928 16.5634 48.4558 15.511C46.3143 14.711 43.9456 14.5526 41.7215 15.0676C40.6157 15.3233 39.5467 15.7456 38.5557 16.3111C39.3838 15.5451 40.423 14.8623 41.7593 14.3989C44.6396 13.3983 49.6235 14.9421 49.8827 15.07Z" fill="#AB6A49"/>
<path d="M24.011 13.8826C23.3939 13.5342 22.7963 13.1764 22.1276 12.9089C20.5401 12.2743 18.8287 11.9634 17.1253 11.9998C16.3832 12.015 15.6433 12.0983 14.9161 12.2485C15.1581 13.1119 15.6743 13.9706 16.101 14.7238C16.195 14.8915 16.2926 15.0569 16.3924 15.2212C15.0538 13.5213 14.1189 11.7124 14.0615 11.5422C14.3392 11.4671 19.5203 10.924 22.1608 12.4678C22.8858 12.8937 23.496 13.3723 24.011 13.8826Z" fill="#AB6A49"/>
<path d="M18.8035 5.44207C18.7577 5.428 18.7106 5.41391 18.6636 5.39984C18.7978 6.1084 18.9331 6.81579 19.0674 7.52434C19.0731 7.5572 19.08 7.59004 19.0868 7.62288C18.8976 7.22872 18.7542 6.80406 18.6384 6.38526C18.5214 5.96059 18.4238 5.5277 18.3138 5.10069C18.2793 4.96578 18.2426 4.83087 18.2036 4.69714C18.324 4.76049 18.4468 4.82266 18.5695 4.88367C18.9584 5.07605 19.3553 5.25671 19.7395 5.45497C20.6617 5.93008 21.5782 6.57531 21.9774 7.549C22.005 7.61704 22.0302 7.68508 22.0519 7.75429C21.2376 6.66915 20.0859 5.84562 18.8035 5.44207Z" fill="#AB6A49"/>
<path d="M33.7875 1.64939C33.6533 1.23059 33.4973 0.816476 33.3551 0.398847C33.3104 0.267458 33.2667 0.134895 33.2266 0.00115967L33.2255 0.00350819V0.00115967C33.1612 0.123164 33.0936 0.245165 33.0248 0.365997C32.808 0.747258 32.5774 1.125 32.3663 1.50861C32.1174 1.96377 31.8914 2.45297 31.7515 2.95624C32.0532 2.2336 32.5257 1.58369 33.1222 1.08864C33.1314 1.08043 33.1406 1.07339 33.1498 1.06518C33.7313 2.12919 34.0215 3.35744 33.9825 4.57513C34.2888 3.64016 34.0915 2.59375 33.7875 1.64939Z" fill="#AB6A49"/>
<path d="M47.0932 7.54309C47.0313 7.66627 46.9706 7.79179 46.9109 7.91731C46.7228 8.315 46.5461 8.7209 46.3522 9.1139C46.0977 9.63007 45.7936 10.1438 45.414 10.5709C45.8464 9.81187 46.1745 8.99073 46.3856 8.1402V8.13903C46.3913 8.11557 46.397 8.09211 46.4039 8.06865C46.3982 8.09093 45.7719 8.29389 45.7088 8.30914C45.4909 8.36075 45.1101 8.50622 44.9001 8.58367C44.1408 8.86516 43.6418 9.10687 43.0614 9.67936C42.9146 9.82361 42.7758 9.9773 42.645 10.138C42.6037 10.1885 42.5567 10.2752 42.5039 10.3328C42.5968 10.077 42.7093 9.83064 42.8572 9.60427C43.4319 8.72561 44.4505 8.2716 45.4449 7.98419C45.859 7.86453 46.2823 7.76481 46.6998 7.65219C46.8317 7.61933 46.9625 7.58298 47.0932 7.54309Z" fill="#AB6A49"/>
<path d="M33.6201 21.1372C33.5926 21.0222 33.5834 20.8791 33.5593 20.7888C33.5135 20.6163 33.4595 20.4462 33.3918 20.2808C33.2404 19.9089 33.0156 19.5593 32.699 19.32C32.395 19.0889 32.0188 18.9692 31.6414 18.9446C30.7089 18.8836 29.7637 19.4373 29.3439 20.2925C29.0698 20.8509 29.0308 21.5149 29.204 22.112C29.1145 21.956 29.0422 21.7859 28.9883 21.6052C28.6052 20.323 29.3106 18.9657 30.5644 18.5739C31.8181 18.1821 33.1452 18.9036 33.5284 20.1858C33.6235 20.5025 33.6511 20.8251 33.6201 21.1372Z" fill="#AB6A49"/>
<path d="M31.257 22.5613C32.363 22.5613 33.2597 21.6443 33.2597 20.5131C33.2597 19.3818 32.363 18.4648 31.257 18.4648C30.1509 18.4648 29.2542 19.3818 29.2542 20.5131C29.2542 21.6443 30.1509 22.5613 31.257 22.5613Z" fill="#AB6A49"/>
</svg>
