<svg width="196" height="70" viewBox="0 0 196 70" fill="none" xmlns="http://www.w3.org/2000/svg">
<path d="M59.828 60.4612C60.4938 60.5407 61.021 60.7634 61.4094 61.1292C61.8057 61.495 62.0039 61.9483 62.0039 62.489C62.0039 62.9025 61.885 63.2763 61.6472 63.6103C61.4094 63.9443 61.0804 64.2107 60.6603 64.4095C60.2402 64.6004 59.7725 64.6958 59.2573 64.6958C59.0354 64.6958 58.7817 64.6839 58.4964 64.66C58.3854 64.652 58.2467 64.6441 58.0802 64.6361C57.9217 64.6282 57.7433 64.6242 57.5452 64.6242L56.6772 64.6361C56.5187 64.6441 56.3047 64.6481 56.0352 64.6481C56.0114 64.6481 55.9995 64.6242 55.9995 64.5765C55.9995 64.5288 56.0114 64.5049 56.0352 64.5049C56.265 64.5049 56.4394 64.485 56.5583 64.4453C56.6772 64.3976 56.7605 64.318 56.808 64.2067C56.8635 64.0874 56.8912 63.9125 56.8912 63.6819V58.159C56.8912 57.825 56.8358 57.6064 56.7248 57.503C56.6138 57.3916 56.3879 57.336 56.0471 57.336C56.0312 57.336 56.0233 57.3121 56.0233 57.2644C56.0233 57.2167 56.0312 57.1928 56.0471 57.1928L56.6772 57.2048C57.0418 57.2207 57.3312 57.2286 57.5452 57.2286C57.7671 57.2286 57.997 57.2167 58.2348 57.1928C58.3141 57.1849 58.433 57.1769 58.5915 57.169C58.75 57.161 58.8887 57.1571 59.0076 57.1571C59.7289 57.1571 60.2878 57.2883 60.6841 57.5507C61.0804 57.8131 61.2786 58.1948 61.2786 58.6958C61.2786 59.0775 61.1518 59.4234 60.8981 59.7336C60.6524 60.0437 60.2957 60.2863 59.828 60.4612ZM58.8293 57.4195C58.5994 57.4195 58.4409 57.4751 58.3537 57.5865C58.2665 57.6899 58.2229 57.8887 58.2229 58.1829V60.4493L58.6985 60.4612C59.1107 60.4612 59.4277 60.3061 59.6497 59.996C59.8716 59.6859 59.9826 59.2883 59.9826 58.8032C59.9826 58.3499 59.8835 58.0079 59.6853 57.7773C59.4872 57.5388 59.2018 57.4195 58.8293 57.4195ZM59.0552 64.3976C60.0936 64.3976 60.6127 63.8568 60.6127 62.7753C60.6127 62.163 60.4661 61.6779 60.1728 61.3201C59.8795 60.9622 59.4357 60.7833 58.8412 60.7833C58.6113 60.7833 58.4052 60.7912 58.2229 60.8071V63.6819C58.2229 63.9443 58.2744 64.1312 58.3775 64.2425C58.4805 64.3459 58.7064 64.3976 59.0552 64.3976ZM67.2321 63.8608C67.2479 63.8608 67.2638 63.8767 67.2796 63.9085C67.3034 63.9403 67.3074 63.9642 67.2915 63.9801C66.9983 64.2664 66.701 64.4731 66.3998 64.6004C66.0986 64.7276 65.7696 64.7912 65.413 64.7912C64.9136 64.7912 64.4816 64.6878 64.117 64.4811C63.7523 64.2664 63.4749 63.9841 63.2847 63.6342C63.0944 63.2763 62.9993 62.8906 62.9993 62.4771C62.9993 62.0159 63.1143 61.5904 63.3441 61.2008C63.574 60.8111 63.8911 60.5049 64.2953 60.2823C64.7075 60.0517 65.1712 59.9364 65.6864 59.9364C66.1779 59.9364 66.5583 60.0477 66.8278 60.2704C67.0973 60.493 67.2321 60.8389 67.2321 61.3081C67.2321 61.5546 67.1885 61.6779 67.1013 61.6779L64.2121 61.6898C64.2042 61.7455 64.2002 61.8369 64.2002 61.9642C64.2002 62.664 64.3587 63.2127 64.6758 63.6103C65.0008 64.0079 65.4645 64.2067 66.0669 64.2067C66.2809 64.2067 66.4632 64.1829 66.6138 64.1351C66.7644 64.0874 66.9626 64 67.2083 63.8727L67.2321 63.8608ZM65.2346 60.1749C64.973 60.1749 64.755 60.2902 64.5807 60.5209C64.4063 60.7435 64.2913 61.0537 64.2359 61.4513L65.9599 61.4274C65.952 61.0218 65.8925 60.7117 65.7815 60.497C65.6706 60.2823 65.4883 60.1749 65.2346 60.1749ZM72.547 64.0039C72.5787 64.0039 72.5985 64.0238 72.6065 64.0636C72.6223 64.0954 72.6144 64.1192 72.5827 64.1351L71.358 64.7196C71.3263 64.7355 71.2867 64.7435 71.2391 64.7435C71.1123 64.7435 70.9895 64.6759 70.8706 64.5407C70.7596 64.4055 70.6803 64.2226 70.6328 63.992L70.1215 64.3499C69.9392 64.485 69.7688 64.5844 69.6102 64.6481C69.4517 64.7037 69.2734 64.7316 69.0752 64.7316C68.7344 64.7316 68.4768 64.656 68.3024 64.5049C68.128 64.3538 68.0408 64.1431 68.0408 63.8727C68.0408 63.658 68.0923 63.487 68.1954 63.3598C68.2984 63.2246 68.4252 63.1212 68.5758 63.0497C68.7344 62.9701 68.9523 62.8827 69.2298 62.7872L69.527 62.6799L70.5971 62.2862V61.6063C70.5971 61.0974 70.5535 60.7276 70.4663 60.497C70.387 60.2664 70.2483 60.1511 70.0502 60.1511C69.6301 60.1511 69.3923 60.4771 69.3368 61.1292C69.313 61.3678 69.2417 61.5387 69.1228 61.6421C69.0118 61.7455 68.8533 61.7972 68.6472 61.7972C68.449 61.7972 68.3024 61.7574 68.2072 61.6779C68.1201 61.5904 68.0765 61.4791 68.0765 61.3439C68.0765 61.1053 68.2152 60.8787 68.4926 60.664C68.77 60.4413 69.1029 60.2624 69.4913 60.1272C69.8877 59.992 70.2364 59.9244 70.5376 59.9244C70.8864 59.9244 71.1678 60.0358 71.3818 60.2584C71.6038 60.4731 71.7147 60.8032 71.7147 61.2485V63.3598C71.7147 63.5904 71.7544 63.7693 71.8336 63.8966C71.9208 64.0238 72.0397 64.0874 72.1903 64.0874C72.3013 64.0874 72.4162 64.0596 72.5351 64.0039H72.547ZM70.609 63.7892C70.6011 63.7574 70.5971 63.7057 70.5971 63.6342V62.489L70.0858 62.7276C70.0621 62.7356 69.9828 62.7674 69.848 62.823C69.7133 62.8707 69.5944 62.9542 69.4913 63.0735C69.3962 63.1928 69.3487 63.332 69.3487 63.491C69.3487 63.6819 69.4081 63.833 69.527 63.9443C69.6538 64.0477 69.7965 64.0994 69.955 64.0994C70.0819 64.0994 70.2127 64.0556 70.3474 63.9681L70.609 63.7892ZM78.5026 63.8727C78.5264 63.8727 78.5462 63.8926 78.5621 63.9324C78.5858 63.9721 78.5858 63.996 78.5621 64.0039L76.9213 64.8031C76.9054 64.8111 76.8856 64.8151 76.8618 64.8151C76.7826 64.8151 76.7112 64.7316 76.6478 64.5646C76.5923 64.3896 76.5606 64.155 76.5527 63.8608C76.0295 64.4811 75.4628 64.7912 74.8525 64.7912C74.4165 64.7912 74.0717 64.656 73.818 64.3856C73.5723 64.1073 73.4495 63.7455 73.4495 63.3002V61.5467C73.4495 61.0298 73.3266 60.7713 73.0809 60.7713C72.9937 60.7713 72.8946 60.7992 72.7836 60.8548H72.7717C72.74 60.8548 72.7163 60.835 72.7004 60.7952C72.6845 60.7475 72.6885 60.7197 72.7123 60.7117L74.3055 59.9483L74.365 59.9364C74.4046 59.9364 74.4442 59.9562 74.4839 59.996C74.5314 60.0278 74.5552 60.0596 74.5552 60.0914V62.7276C74.5552 63.5864 74.8842 64.0159 75.5421 64.0159C75.7164 64.0159 75.8908 63.9801 76.0652 63.9085C76.2475 63.829 76.41 63.7216 76.5527 63.5864V61.5467C76.5527 61.0298 76.4298 60.7713 76.1841 60.7713C76.0969 60.7713 75.9939 60.7992 75.875 60.8548H75.8631C75.8393 60.8548 75.8195 60.835 75.8036 60.7952C75.7878 60.7475 75.7917 60.7197 75.8155 60.7117L77.4088 59.9483C77.4246 59.9403 77.4444 59.9364 77.4682 59.9364C77.5078 59.9364 77.5475 59.9562 77.5871 59.996C77.6347 60.0278 77.6584 60.0596 77.6584 60.0914V63.2644C77.6584 63.5348 77.6822 63.7256 77.7298 63.8369C77.7853 63.9483 77.8725 64.0039 77.9914 64.0039C78.1023 64.0039 78.2648 63.9602 78.4788 63.8727H78.5026ZM82.4249 63.8131C82.4566 63.8131 82.4803 63.829 82.4962 63.8608C82.52 63.8926 82.52 63.9165 82.4962 63.9324C82.2029 64.2266 81.9176 64.4453 81.6401 64.5884C81.3627 64.7236 81.0694 64.7912 80.7603 64.7912C80.4115 64.7912 80.1143 64.7077 79.8686 64.5407C79.6228 64.3737 79.5 64.0914 79.5 63.6938V61.0457C79.5 60.7992 79.4564 60.6282 79.3692 60.5328C79.282 60.4374 79.1235 60.3896 78.8936 60.3896C78.8857 60.3896 78.8738 60.3777 78.8579 60.3539C78.85 60.33 78.846 60.3061 78.846 60.2823C78.846 60.2505 78.85 60.2266 78.8579 60.2107C78.8658 60.1869 78.8777 60.1749 78.8936 60.1749C79.2978 60.159 79.6228 60.0715 79.8686 59.9125C80.1222 59.7535 80.3164 59.5109 80.4512 59.1849C80.467 59.1531 80.4987 59.1372 80.5463 59.1372C80.6018 59.1372 80.6295 59.1531 80.6295 59.1849V60.1391C81.0892 60.1312 81.6045 60.0954 82.1752 60.0318C82.191 60.0318 82.2069 60.0636 82.2227 60.1272C82.2465 60.1829 82.2584 60.2465 82.2584 60.3181C82.2584 60.3976 82.2425 60.4771 82.2108 60.5566C82.1871 60.6282 82.1593 60.66 82.1276 60.6521C81.6124 60.5407 81.113 60.4811 80.6295 60.4731V63.3002C80.6295 63.6023 80.7048 63.825 80.8554 63.9681C81.0139 64.1113 81.22 64.1829 81.4737 64.1829C81.7907 64.1829 82.0999 64.0636 82.4011 63.825L82.4249 63.8131ZM87.8101 60.0437C87.826 60.0437 87.8339 60.0676 87.8339 60.1153C87.8339 60.163 87.826 60.1869 87.8101 60.1869C87.5565 60.1869 87.3345 60.2982 87.1443 60.5209C86.962 60.7356 86.7955 61.0497 86.6449 61.4632L85.3252 64.9821C84.9051 66.0954 84.5008 66.8747 84.1124 67.32C83.7319 67.7733 83.3079 67.9999 82.8402 67.9999C82.6024 67.9999 82.4201 67.9482 82.2933 67.8449C82.1665 67.7494 82.103 67.6063 82.103 67.4154C82.103 67.2325 82.1585 67.0934 82.2695 66.998C82.3805 66.9025 82.5152 66.8548 82.6738 66.8548C82.7609 66.8548 82.8323 66.8667 82.8878 66.8906C82.9512 66.9144 83.0265 66.9542 83.1137 67.0099C83.2643 67.1133 83.407 67.1649 83.5417 67.1649C83.724 67.1649 83.8865 67.0934 84.0292 66.9502C84.1798 66.8151 84.3344 66.5844 84.4929 66.2584C84.6514 65.9403 84.8417 65.483 85.0636 64.8866L83.1612 61.0338C82.9868 60.6918 82.8481 60.4652 82.7451 60.3539C82.65 60.2425 82.5311 60.1869 82.3884 60.1869C82.3646 60.1869 82.3527 60.163 82.3527 60.1153C82.3527 60.0676 82.3646 60.0437 82.3884 60.0437C82.6103 60.0437 82.7808 60.0477 82.8997 60.0556L83.399 60.0676L84.2194 60.0556C84.3462 60.0477 84.5167 60.0437 84.7307 60.0437C84.7545 60.0437 84.7664 60.0676 84.7664 60.1153C84.7664 60.163 84.7545 60.1869 84.7307 60.1869C84.5246 60.1869 84.374 60.2067 84.2789 60.2465C84.1838 60.2783 84.1362 60.334 84.1362 60.4135C84.1362 60.4771 84.16 60.5566 84.2075 60.6521L85.6105 63.5268L86.3239 61.4513C86.3953 61.2445 86.4309 61.0576 86.4309 60.8906C86.4309 60.668 86.3675 60.497 86.2407 60.3777C86.1139 60.2505 85.9315 60.1869 85.6938 60.1869C85.6779 60.1869 85.67 60.163 85.67 60.1153C85.67 60.0676 85.6779 60.0437 85.6938 60.0437C85.9078 60.0437 86.0703 60.0477 86.1812 60.0556L86.8946 60.0676L87.3702 60.0556C87.4653 60.0477 87.612 60.0437 87.8101 60.0437ZM92.4963 58.3976C92.4963 58.6839 92.5676 58.9384 92.7103 59.161C92.8609 59.3837 93.0432 59.5785 93.2572 59.7455C93.4713 59.9125 93.7606 60.1153 94.1252 60.3539C94.5215 60.6083 94.8386 60.831 95.0764 61.0218C95.3142 61.2127 95.5163 61.4473 95.6828 61.7256C95.8492 61.996 95.9324 62.3101 95.9324 62.668C95.9324 63.0815 95.8215 63.4513 95.5995 63.7773C95.3776 64.0954 95.0685 64.3459 94.6721 64.5288C94.2837 64.7037 93.8478 64.7912 93.3643 64.7912C93.0076 64.7912 92.635 64.7435 92.2466 64.6481C91.8582 64.5447 91.5966 64.4334 91.4619 64.3141C91.4223 64.2823 91.3905 64.2544 91.3668 64.2306C91.3509 64.1988 91.343 64.151 91.343 64.0874L91.3073 62.1908V62.1789C91.3073 62.1471 91.3271 62.1312 91.3668 62.1312C91.4064 62.1232 91.4302 62.1352 91.4381 62.167C91.6759 62.6521 91.882 63.0457 92.0564 63.3479C92.2387 63.6501 92.4646 63.9165 92.7341 64.1471C93.0115 64.3777 93.3246 64.493 93.6734 64.493C93.9904 64.493 94.252 64.4095 94.4581 64.2425C94.6642 64.0676 94.7672 63.7733 94.7672 63.3598C94.7672 63.0099 94.688 62.7037 94.5295 62.4413C94.3788 62.1789 94.1926 61.9562 93.9706 61.7733C93.7487 61.5904 93.4435 61.3717 93.0551 61.1173C92.6746 60.8708 92.3774 60.66 92.1634 60.4851C91.9573 60.3101 91.7789 60.0994 91.6283 59.8529C91.4777 59.6063 91.4024 59.3161 91.4024 58.9821C91.4024 58.5606 91.5213 58.2067 91.7591 57.9205C92.0048 57.6262 92.318 57.4115 92.6984 57.2763C93.0789 57.1332 93.4792 57.0616 93.8993 57.0616C94.1767 57.0616 94.4581 57.0895 94.7435 57.1451C95.0288 57.1928 95.2587 57.2525 95.4331 57.324C95.5044 57.3559 95.552 57.3916 95.5758 57.4314C95.5995 57.4632 95.6114 57.507 95.6114 57.5626V59.3161C95.6114 59.3399 95.5916 59.3598 95.552 59.3757C95.5123 59.3837 95.4886 59.3757 95.4806 59.3519L95.3855 59.1252C95.1874 58.6242 94.9535 58.1988 94.684 57.8489C94.4224 57.499 94.0539 57.324 93.5783 57.324C93.2612 57.324 92.9996 57.4155 92.7935 57.5984C92.5954 57.7813 92.4963 58.0477 92.4963 58.3976ZM99.6498 64.8031C99.2614 64.8031 98.9205 64.7594 98.6273 64.6719V66.9622C98.6273 67.2007 98.651 67.3757 98.6986 67.487C98.7541 67.5983 98.8532 67.6739 98.9958 67.7137C99.1465 67.7614 99.3763 67.7852 99.6855 67.7852C99.7092 67.7852 99.7211 67.8091 99.7211 67.8568C99.7211 67.9045 99.7092 67.9284 99.6855 67.9284C99.3922 67.9284 99.1623 67.9244 98.9958 67.9164L98.0566 67.9045L97.3551 67.9164C97.2362 67.9244 97.0697 67.9284 96.8557 67.9284C96.8319 67.9284 96.82 67.9045 96.82 67.8568C96.82 67.8091 96.8319 67.7852 96.8557 67.7852C97.0459 67.7852 97.1846 67.7614 97.2718 67.7137C97.3669 67.6739 97.4304 67.5983 97.4621 67.487C97.5017 67.3757 97.5215 67.2007 97.5215 66.9622V61.4393C97.5215 61.1849 97.4938 61.002 97.4383 60.8906C97.3828 60.7793 97.2837 60.7236 97.141 60.7236C97.0142 60.7236 96.8319 60.7793 96.5941 60.8906H96.5703C96.5466 60.8906 96.5267 60.8707 96.5109 60.831C96.4871 60.7912 96.4831 60.7674 96.499 60.7594L98.1873 59.9364C98.2032 59.9284 98.223 59.9244 98.2468 59.9244C98.3261 59.9244 98.3974 59.992 98.4608 60.1272C98.5321 60.2624 98.5797 60.4453 98.6035 60.6759C99.1821 60.1511 99.7766 59.8886 100.387 59.8886C100.72 59.8886 101.029 59.9761 101.314 60.1511C101.608 60.326 101.842 60.5805 102.016 60.9145C102.19 61.2485 102.278 61.6381 102.278 62.0835C102.278 62.7196 102.147 63.2445 101.885 63.658C101.624 64.0636 101.291 64.3578 100.886 64.5407C100.49 64.7157 100.078 64.8031 99.6498 64.8031ZM99.6022 60.5566C99.2455 60.5566 98.9205 60.6839 98.6273 60.9383V61.0338V63.9085C98.8016 64.1073 98.984 64.2584 99.1742 64.3618C99.3644 64.4572 99.5983 64.5049 99.8757 64.5049C100.676 64.5049 101.077 63.821 101.077 62.4532C101.077 61.8489 100.934 61.3837 100.649 61.0576C100.371 60.7236 100.022 60.5566 99.6022 60.5566ZM107.624 64.0039C107.656 64.0039 107.675 64.0238 107.683 64.0636C107.699 64.0954 107.691 64.1192 107.66 64.1351L106.435 64.7196C106.403 64.7355 106.364 64.7435 106.316 64.7435C106.189 64.7435 106.066 64.6759 105.948 64.5407C105.837 64.4055 105.757 64.2226 105.71 63.992L105.198 64.3499C105.016 64.485 104.846 64.5844 104.687 64.6481C104.529 64.7037 104.35 64.7316 104.152 64.7316C103.811 64.7316 103.554 64.656 103.379 64.5049C103.205 64.3538 103.118 64.1431 103.118 63.8727C103.118 63.658 103.169 63.487 103.272 63.3598C103.375 63.2246 103.502 63.1212 103.653 63.0497C103.811 62.9701 104.029 62.8827 104.307 62.7872L104.604 62.6799L105.674 62.2862V61.6063C105.674 61.0974 105.63 60.7276 105.543 60.497C105.464 60.2664 105.325 60.1511 105.127 60.1511C104.707 60.1511 104.469 60.4771 104.414 61.1292C104.39 61.3678 104.319 61.5387 104.2 61.6421C104.089 61.7455 103.93 61.7972 103.724 61.7972C103.526 61.7972 103.379 61.7574 103.284 61.6779C103.197 61.5904 103.153 61.4791 103.153 61.3439C103.153 61.1053 103.292 60.8787 103.57 60.664C103.847 60.4413 104.18 60.2624 104.568 60.1272C104.965 59.992 105.313 59.9244 105.615 59.9244C105.963 59.9244 106.245 60.0358 106.459 60.2584C106.681 60.4731 106.792 60.8032 106.792 61.2485V63.3598C106.792 63.5904 106.831 63.7693 106.911 63.8966C106.998 64.0238 107.117 64.0874 107.267 64.0874C107.378 64.0874 107.493 64.0596 107.612 64.0039H107.624ZM105.686 63.7892C105.678 63.7574 105.674 63.7057 105.674 63.6342V62.489L105.163 62.7276C105.139 62.7356 105.06 62.7674 104.925 62.823C104.79 62.8707 104.671 62.9542 104.568 63.0735C104.473 63.1928 104.426 63.332 104.426 63.491C104.426 63.6819 104.485 63.833 104.604 63.9443C104.731 64.0477 104.873 64.0994 105.032 64.0994C105.159 64.0994 105.29 64.0556 105.424 63.9681L105.686 63.7892ZM115.511 57.0616C115.883 57.0616 116.26 57.0934 116.64 57.1571C117.029 57.2127 117.338 57.2883 117.568 57.3837C117.639 57.4075 117.683 57.4394 117.699 57.4791C117.722 57.5109 117.738 57.5706 117.746 57.658L117.901 59.3161C117.901 59.3399 117.881 59.3558 117.841 59.3638C117.802 59.3717 117.774 59.3598 117.758 59.328C117.536 58.6759 117.219 58.1789 116.807 57.837C116.395 57.4871 115.899 57.3121 115.321 57.3121C114.782 57.3121 114.298 57.4592 113.87 57.7535C113.45 58.0398 113.117 58.4533 112.871 58.994C112.634 59.5348 112.515 60.167 112.515 60.8906C112.515 61.6222 112.637 62.2664 112.883 62.823C113.137 63.3717 113.482 63.7972 113.918 64.0994C114.362 64.3936 114.869 64.5407 115.44 64.5407C115.986 64.5407 116.446 64.3936 116.819 64.0994C117.191 63.7972 117.544 63.3041 117.877 62.6202C117.885 62.5964 117.909 62.5884 117.948 62.5964C117.988 62.6043 118.008 62.6202 118.008 62.6441L117.829 64.1232C117.814 64.2186 117.798 64.2823 117.782 64.3141C117.766 64.3379 117.722 64.3658 117.651 64.3976C116.922 64.66 116.185 64.7912 115.44 64.7912C114.591 64.7912 113.83 64.6322 113.157 64.3141C112.491 63.988 111.968 63.5347 111.587 62.9542C111.207 62.3737 111.017 61.7137 111.017 60.9741C111.017 60.2187 111.211 59.5467 111.599 58.9582C111.995 58.3618 112.534 57.8966 113.216 57.5626C113.906 57.2286 114.671 57.0616 115.511 57.0616ZM123.509 64.0039C123.54 64.0039 123.56 64.0238 123.568 64.0636C123.584 64.0954 123.576 64.1192 123.544 64.1351L122.32 64.7196C122.288 64.7355 122.248 64.7435 122.201 64.7435C122.074 64.7435 121.951 64.6759 121.832 64.5407C121.721 64.4055 121.642 64.2226 121.594 63.992L121.083 64.3499C120.901 64.485 120.73 64.5844 120.572 64.6481C120.413 64.7037 120.235 64.7316 120.037 64.7316C119.696 64.7316 119.438 64.656 119.264 64.5049C119.09 64.3538 119.002 64.1431 119.002 63.8727C119.002 63.658 119.054 63.487 119.157 63.3598C119.26 63.2246 119.387 63.1212 119.538 63.0497C119.696 62.9701 119.914 62.8827 120.191 62.7872L120.489 62.6799L121.559 62.2862V61.6063C121.559 61.0974 121.515 60.7276 121.428 60.497C121.349 60.2664 121.21 60.1511 121.012 60.1511C120.592 60.1511 120.354 60.4771 120.298 61.1292C120.275 61.3678 120.203 61.5387 120.084 61.6421C119.973 61.7455 119.815 61.7972 119.609 61.7972C119.411 61.7972 119.264 61.7574 119.169 61.6779C119.082 61.5904 119.038 61.4791 119.038 61.3439C119.038 61.1053 119.177 60.8787 119.454 60.664C119.732 60.4413 120.065 60.2624 120.453 60.1272C120.849 59.992 121.198 59.9244 121.498 59.9244C121.847 59.9244 122.13 60.0358 122.344 60.2584C122.565 60.4731 122.676 60.8032 122.676 61.2485V63.3598C122.676 63.5904 122.716 63.7693 122.795 63.8966C122.883 64.0238 123.001 64.0874 123.152 64.0874C123.263 64.0874 123.378 64.0596 123.497 64.0039H123.509ZM121.571 63.7892C121.563 63.7574 121.559 63.7057 121.559 63.6342V62.489L121.048 62.7276C121.024 62.7356 120.944 62.7674 120.81 62.823C120.675 62.8707 120.556 62.9542 120.453 63.0735C120.358 63.1928 120.31 63.332 120.31 63.491C120.31 63.6819 120.37 63.833 120.489 63.9443C120.616 64.0477 120.758 64.0994 120.917 64.0994C121.044 64.0994 121.174 64.0556 121.309 63.9681L121.571 63.7892ZM127.086 59.9244C127.268 59.9244 127.442 59.992 127.609 60.1272C127.783 60.2545 127.87 60.4095 127.87 60.5924C127.87 60.7594 127.819 60.8986 127.716 61.0099C127.613 61.1133 127.478 61.165 127.311 61.165C127.193 61.165 127.093 61.1411 127.014 61.0934C126.943 61.0457 126.868 60.9741 126.788 60.8787C126.717 60.7992 126.654 60.7435 126.598 60.7117C126.551 60.6719 126.491 60.6521 126.42 60.6521C126.34 60.6521 126.253 60.6839 126.158 60.7475C126.071 60.8032 125.932 60.9264 125.742 61.1173V63.6819C125.742 64 125.817 64.2186 125.968 64.3379C126.119 64.4493 126.396 64.5049 126.8 64.5049C126.832 64.5049 126.848 64.5288 126.848 64.5765C126.848 64.6242 126.832 64.6481 126.8 64.6481C126.523 64.6481 126.305 64.6441 126.146 64.6361L125.183 64.6242L124.482 64.6361C124.363 64.6441 124.2 64.6481 123.994 64.6481C123.97 64.6481 123.959 64.6242 123.959 64.5765C123.959 64.5288 123.97 64.5049 123.994 64.5049C124.24 64.5049 124.406 64.4493 124.494 64.3379C124.581 64.2186 124.624 64 124.624 63.6819V61.4393C124.624 61.1928 124.593 61.0139 124.529 60.9026C124.474 60.7833 124.383 60.7236 124.256 60.7236C124.121 60.7236 123.931 60.7793 123.685 60.8906H123.661C123.638 60.8906 123.618 60.8707 123.602 60.831C123.594 60.7912 123.598 60.7674 123.614 60.7594L125.266 59.9483C125.314 59.9324 125.342 59.9244 125.35 59.9244C125.437 59.9244 125.516 60.0079 125.587 60.1749C125.667 60.334 125.714 60.5527 125.73 60.831C126.055 60.497 126.321 60.2624 126.527 60.1272C126.741 59.992 126.927 59.9244 127.086 59.9244ZM132.51 63.8608C132.526 63.8608 132.542 63.8767 132.558 63.9085C132.582 63.9403 132.586 63.9642 132.57 63.9801C132.276 64.2664 131.979 64.4731 131.678 64.6004C131.377 64.7276 131.048 64.7912 130.691 64.7912C130.192 64.7912 129.76 64.6878 129.395 64.4811C129.031 64.2664 128.753 63.9841 128.563 63.6342C128.373 63.2763 128.278 62.8906 128.278 62.4771C128.278 62.0159 128.392 61.5904 128.622 61.2008C128.852 60.8111 129.169 60.5049 129.574 60.2823C129.986 60.0517 130.449 59.9364 130.965 59.9364C131.456 59.9364 131.837 60.0477 132.106 60.2704C132.376 60.493 132.51 60.8389 132.51 61.3081C132.51 61.5546 132.467 61.6779 132.38 61.6779L129.49 61.6898C129.482 61.7455 129.478 61.8369 129.478 61.9642C129.478 62.664 129.637 63.2127 129.954 63.6103C130.279 64.0079 130.743 64.2067 131.345 64.2067C131.559 64.2067 131.741 64.1829 131.892 64.1351C132.043 64.0874 132.241 64 132.486 63.8727L132.51 63.8608ZM130.513 60.1749C130.251 60.1749 130.033 60.2902 129.859 60.5209C129.684 60.7435 129.57 61.0537 129.514 61.4513L131.238 61.4274C131.23 61.0218 131.171 60.7117 131.06 60.497C130.949 60.2823 130.766 60.1749 130.513 60.1749ZM144.273 64.5049C144.305 64.5129 144.317 64.5407 144.309 64.5884C144.309 64.6282 144.297 64.6481 144.273 64.6481H142.323C142.101 64.6481 141.721 64.4532 141.182 64.0636C140.587 64.5487 139.83 64.7912 138.911 64.7912C138.364 64.7912 137.904 64.7117 137.532 64.5526C137.159 64.3936 136.882 64.1829 136.699 63.9204C136.517 63.658 136.426 63.3797 136.426 63.0855C136.426 62.7037 136.557 62.3618 136.818 62.0596C137.08 61.7574 137.476 61.4075 138.007 61.0099C137.881 60.8429 137.758 60.6521 137.639 60.4374C137.528 60.2147 137.441 60.004 137.377 59.8051C137.322 59.6063 137.294 59.3877 137.294 59.1491C137.294 58.505 137.496 57.9761 137.9 57.5626C138.312 57.1491 138.871 56.9423 139.577 56.9423C140.068 56.9423 140.457 57.0497 140.742 57.2644C141.027 57.4712 141.17 57.7614 141.17 58.1352C141.17 58.4453 141.079 58.7316 140.897 58.994C140.722 59.2485 140.52 59.4632 140.29 59.6382C140.06 59.8131 139.704 60.0636 139.22 60.3896C139.791 61.2405 140.587 62.0755 141.61 62.8946C141.681 62.6163 141.717 62.3022 141.717 61.9523C141.717 61.491 141.642 61.157 141.491 60.9503C141.34 60.7356 141.095 60.6282 140.754 60.6282C140.738 60.6282 140.726 60.6043 140.718 60.5566C140.718 60.5089 140.73 60.4851 140.754 60.4851L143.584 60.4731C143.607 60.4731 143.619 60.497 143.619 60.5447C143.619 60.5924 143.607 60.6163 143.584 60.6163C143.346 60.6163 143.167 60.6441 143.049 60.6998C142.938 60.7475 142.85 60.831 142.787 60.9503C142.732 61.0696 142.668 61.2604 142.597 61.5228C142.51 61.8409 142.418 62.1312 142.323 62.3936C142.228 62.656 142.105 62.9105 141.955 63.157C142.47 63.5467 142.926 63.8528 143.322 64.0755C143.726 64.2982 144.043 64.4413 144.273 64.5049ZM138.412 58.1233C138.412 58.7435 138.63 59.4155 139.066 60.1391C139.628 59.5904 139.91 59.0059 139.91 58.3857C139.91 58.0358 139.826 57.7614 139.66 57.5626C139.501 57.3638 139.291 57.2644 139.03 57.2644C138.808 57.2644 138.649 57.336 138.554 57.4791C138.459 57.6223 138.412 57.837 138.412 58.1233ZM139.826 64.2067C140.286 64.2067 140.667 64.1033 140.968 63.8966C140.841 63.8091 140.671 63.6779 140.457 63.5029C140.052 63.1769 139.644 62.8151 139.232 62.4175C138.828 62.0119 138.471 61.6143 138.162 61.2246C137.805 61.5984 137.627 61.992 137.627 62.4055C137.627 62.7157 137.714 63.0099 137.888 63.2882C138.071 63.5586 138.328 63.7813 138.661 63.9562C138.994 64.1232 139.383 64.2067 139.826 64.2067ZM155.547 57.1928C155.563 57.1928 155.571 57.2167 155.571 57.2644C155.571 57.3121 155.563 57.336 155.547 57.336C155.23 57.336 154.98 57.4632 154.798 57.7177C154.615 57.9642 154.524 58.2982 154.524 58.7197V64.827C154.524 64.8508 154.504 64.8667 154.465 64.8747C154.433 64.8827 154.409 64.8787 154.393 64.8628L148.817 58.493V63.1332C148.817 63.5546 148.904 63.8886 149.079 64.1351C149.253 64.3817 149.495 64.5049 149.804 64.5049C149.82 64.5049 149.828 64.5288 149.828 64.5765C149.828 64.6242 149.82 64.6481 149.804 64.6481C149.582 64.6481 149.412 64.6441 149.293 64.6361L148.651 64.6242L147.913 64.6361C147.779 64.6441 147.585 64.6481 147.331 64.6481C147.307 64.6481 147.295 64.6242 147.295 64.5765C147.295 64.5288 147.307 64.5049 147.331 64.5049C147.68 64.5049 147.953 64.3817 148.151 64.1351C148.357 63.8886 148.46 63.5546 148.46 63.1332V58.0875C148.199 57.8012 147.973 57.6064 147.783 57.503C147.6 57.3916 147.41 57.336 147.212 57.336C147.196 57.336 147.188 57.3121 147.188 57.2644C147.188 57.2167 147.196 57.1928 147.212 57.1928L147.711 57.2048C147.814 57.2127 147.965 57.2167 148.163 57.2167L149.067 57.2048C149.178 57.1968 149.313 57.1928 149.471 57.1928C149.534 57.1928 149.582 57.2087 149.614 57.2406C149.645 57.2724 149.701 57.34 149.78 57.4433C149.915 57.6262 150.01 57.7495 150.066 57.8131L154.179 62.5725V58.7197C154.179 58.2902 154.092 57.9523 153.918 57.7058C153.743 57.4592 153.502 57.336 153.193 57.336C153.177 57.336 153.169 57.3121 153.169 57.2644C153.169 57.2167 153.177 57.1928 153.193 57.1928L153.704 57.2048C153.957 57.2207 154.171 57.2286 154.346 57.2286C154.504 57.2286 154.726 57.2207 155.012 57.2048L155.547 57.1928ZM160.675 64.0039C160.707 64.0039 160.727 64.0238 160.735 64.0636C160.751 64.0954 160.743 64.1192 160.711 64.1351L159.486 64.7196C159.455 64.7355 159.415 64.7435 159.367 64.7435C159.24 64.7435 159.118 64.6759 158.999 64.5407C158.888 64.4055 158.809 64.2226 158.761 63.992L158.25 64.3499C158.067 64.485 157.897 64.5844 157.738 64.6481C157.58 64.7037 157.402 64.7316 157.203 64.7316C156.863 64.7316 156.605 64.656 156.431 64.5049C156.256 64.3538 156.169 64.1431 156.169 63.8727C156.169 63.658 156.221 63.487 156.324 63.3598C156.427 63.2246 156.553 63.1212 156.704 63.0497C156.863 62.9701 157.081 62.8827 157.358 62.7872L157.655 62.6799L158.725 62.2862V61.6063C158.725 61.0974 158.682 60.7276 158.594 60.497C158.515 60.2664 158.377 60.1511 158.178 60.1511C157.758 60.1511 157.52 60.4771 157.465 61.1292C157.441 61.3678 157.37 61.5387 157.251 61.6421C157.14 61.7455 156.981 61.7972 156.775 61.7972C156.577 61.7972 156.431 61.7574 156.335 61.6779C156.248 61.5904 156.205 61.4791 156.205 61.3439C156.205 61.1053 156.343 60.8787 156.621 60.664C156.898 60.4413 157.231 60.2624 157.62 60.1272C158.016 59.992 158.365 59.9244 158.666 59.9244C159.015 59.9244 159.296 60.0358 159.51 60.2584C159.732 60.4731 159.843 60.8032 159.843 61.2485V63.3598C159.843 63.5904 159.883 63.7693 159.962 63.8966C160.049 64.0238 160.168 64.0874 160.319 64.0874C160.429 64.0874 160.544 64.0596 160.663 64.0039H160.675ZM158.737 63.7892C158.729 63.7574 158.725 63.7057 158.725 63.6342V62.489L158.214 62.7276C158.19 62.7356 158.111 62.7674 157.976 62.823C157.841 62.8707 157.723 62.9542 157.62 63.0735C157.524 63.1928 157.477 63.332 157.477 63.491C157.477 63.6819 157.536 63.833 157.655 63.9443C157.782 64.0477 157.925 64.0994 158.083 64.0994C158.21 64.0994 158.341 64.0556 158.476 63.9681L158.737 63.7892ZM162.303 58.7435C162.073 58.7435 161.895 58.6799 161.768 58.5527C161.641 58.4254 161.578 58.2465 161.578 58.0159C161.578 57.8091 161.641 57.6461 161.768 57.5268C161.903 57.3996 162.081 57.336 162.303 57.336C162.525 57.336 162.695 57.3956 162.814 57.5149C162.933 57.6342 162.993 57.8012 162.993 58.0159C162.993 58.2465 162.933 58.4254 162.814 58.5527C162.695 58.6799 162.525 58.7435 162.303 58.7435ZM161.162 64.6481C161.138 64.6481 161.126 64.6242 161.126 64.5765C161.126 64.5288 161.138 64.5049 161.162 64.5049C161.407 64.5049 161.574 64.4493 161.661 64.3379C161.748 64.2186 161.792 64 161.792 63.6819V61.5467C161.792 61.2763 161.764 61.0815 161.709 60.9622C161.653 60.8429 161.562 60.7833 161.435 60.7833C161.332 60.7833 161.185 60.827 160.995 60.9145H160.983C160.952 60.9145 160.928 60.8946 160.912 60.8548C160.896 60.8071 160.9 60.7793 160.924 60.7713L162.719 59.9364L162.755 59.9244C162.795 59.9244 162.834 59.9443 162.874 59.9841C162.913 60.0238 162.933 60.0596 162.933 60.0914V60.3539C162.917 60.6719 162.909 61.0616 162.909 61.5228V63.6819C162.909 64 162.953 64.2186 163.04 64.3379C163.135 64.4493 163.306 64.5049 163.552 64.5049C163.575 64.5049 163.587 64.5288 163.587 64.5765C163.587 64.6242 163.575 64.6481 163.552 64.6481C163.345 64.6481 163.183 64.6441 163.064 64.6361L162.351 64.6242L161.649 64.6361C161.53 64.6441 161.368 64.6481 161.162 64.6481ZM164.237 64.6481C164.221 64.6481 164.213 64.6242 164.213 64.5765C164.213 64.5288 164.221 64.5049 164.237 64.5049C164.483 64.5049 164.649 64.4493 164.737 64.3379C164.832 64.2186 164.879 64 164.879 63.6819L164.891 57.6223C164.891 57.3439 164.863 57.1451 164.808 57.0258C164.76 56.9066 164.673 56.8469 164.546 56.8469C164.443 56.8469 164.293 56.8907 164.094 56.9781H164.083C164.059 56.9781 164.035 56.9582 164.011 56.9185C163.995 56.8708 163.995 56.8429 164.011 56.835L165.759 56.0119L165.807 56C165.846 56 165.89 56.0199 165.937 56.0596C165.985 56.0915 166.009 56.1233 166.009 56.1551V63.6819C166.009 64 166.052 64.2186 166.14 64.3379C166.227 64.4493 166.393 64.5049 166.639 64.5049C166.671 64.5049 166.686 64.5288 166.686 64.5765C166.686 64.6242 166.671 64.6481 166.639 64.6481C166.441 64.6481 166.282 64.6441 166.163 64.6361L165.438 64.6242L164.725 64.6361C164.606 64.6441 164.443 64.6481 164.237 64.6481ZM171.859 58.3976C171.859 58.6839 171.93 58.9384 172.073 59.161C172.223 59.3837 172.405 59.5785 172.619 59.7455C172.833 59.9125 173.123 60.1153 173.487 60.3539C173.884 60.6083 174.201 60.831 174.439 61.0218C174.676 61.2127 174.879 61.4473 175.045 61.7256C175.211 61.996 175.295 62.3101 175.295 62.668C175.295 63.0815 175.184 63.4513 174.962 63.7773C174.74 64.0954 174.431 64.3459 174.034 64.5288C173.646 64.7037 173.21 64.7912 172.726 64.7912C172.37 64.7912 171.997 64.7435 171.609 64.6481C171.22 64.5447 170.959 64.4334 170.824 64.3141C170.784 64.2823 170.753 64.2544 170.729 64.2306C170.713 64.1988 170.705 64.151 170.705 64.0874L170.67 62.1908V62.1789C170.67 62.1471 170.689 62.1312 170.729 62.1312C170.769 62.1232 170.792 62.1352 170.8 62.167C171.038 62.6521 171.244 63.0457 171.419 63.3479C171.601 63.6501 171.827 63.9165 172.096 64.1471C172.374 64.3777 172.687 64.493 173.036 64.493C173.353 64.493 173.614 64.4095 173.82 64.2425C174.026 64.0676 174.129 63.7733 174.129 63.3598C174.129 63.0099 174.05 62.7037 173.892 62.4413C173.741 62.1789 173.555 61.9562 173.333 61.7733C173.111 61.5904 172.806 61.3717 172.417 61.1173C172.037 60.8708 171.74 60.66 171.526 60.4851C171.32 60.3101 171.141 60.0994 170.991 59.8529C170.84 59.6063 170.765 59.3161 170.765 58.9821C170.765 58.5606 170.884 58.2067 171.121 57.9205C171.367 57.6262 171.68 57.4115 172.061 57.2763C172.441 57.1332 172.841 57.0616 173.262 57.0616C173.539 57.0616 173.82 57.0895 174.106 57.1451C174.391 57.1928 174.621 57.2525 174.795 57.324C174.867 57.3559 174.914 57.3916 174.938 57.4314C174.962 57.4632 174.974 57.507 174.974 57.5626V59.3161C174.974 59.3399 174.954 59.3598 174.914 59.3757C174.875 59.3837 174.851 59.3757 174.843 59.3519L174.748 59.1252C174.55 58.6242 174.316 58.1988 174.046 57.8489C173.785 57.499 173.416 57.324 172.941 57.324C172.623 57.324 172.362 57.4155 172.156 57.5984C171.958 57.7813 171.859 58.0477 171.859 58.3976ZM180.891 64.0039C180.923 64.0039 180.942 64.0238 180.95 64.0636C180.966 64.0954 180.958 64.1192 180.926 64.1351L179.702 64.7196C179.67 64.7355 179.63 64.7435 179.583 64.7435C179.456 64.7435 179.333 64.6759 179.214 64.5407C179.103 64.4055 179.024 64.2226 178.977 63.992L178.465 64.3499C178.283 64.485 178.113 64.5844 177.954 64.6481C177.796 64.7037 177.617 64.7316 177.419 64.7316C177.078 64.7316 176.821 64.656 176.646 64.5049C176.472 64.3538 176.385 64.1431 176.385 63.8727C176.385 63.658 176.436 63.487 176.539 63.3598C176.642 63.2246 176.769 63.1212 176.92 63.0497C177.078 62.9701 177.296 62.8827 177.574 62.7872L177.871 62.6799L178.941 62.2862V61.6063C178.941 61.0974 178.897 60.7276 178.81 60.497C178.731 60.2664 178.592 60.1511 178.394 60.1511C177.974 60.1511 177.736 60.4771 177.681 61.1292C177.657 61.3678 177.585 61.5387 177.467 61.6421C177.356 61.7455 177.197 61.7972 176.991 61.7972C176.793 61.7972 176.646 61.7574 176.551 61.6779C176.464 61.5904 176.42 61.4791 176.42 61.3439C176.42 61.1053 176.559 60.8787 176.836 60.664C177.114 60.4413 177.447 60.2624 177.835 60.1272C178.231 59.992 178.58 59.9244 178.881 59.9244C179.23 59.9244 179.512 60.0358 179.726 60.2584C179.948 60.4731 180.059 60.8032 180.059 61.2485V63.3598C180.059 63.5904 180.098 63.7693 180.177 63.8966C180.265 64.0238 180.384 64.0874 180.534 64.0874C180.645 64.0874 180.76 64.0596 180.879 64.0039H180.891ZM178.953 63.7892C178.945 63.7574 178.941 63.7057 178.941 63.6342V62.489L178.43 62.7276C178.406 62.7356 178.327 62.7674 178.192 62.823C178.057 62.8707 177.938 62.9542 177.835 63.0735C177.74 63.1928 177.692 63.332 177.692 63.491C177.692 63.6819 177.752 63.833 177.871 63.9443C177.998 64.0477 178.14 64.0994 178.299 64.0994C178.426 64.0994 178.556 64.0556 178.691 63.9681L178.953 63.7892ZM181.329 64.6481C181.313 64.6481 181.305 64.6242 181.305 64.5765C181.305 64.5288 181.313 64.5049 181.329 64.5049C181.574 64.5049 181.741 64.4493 181.828 64.3379C181.923 64.2186 181.971 64 181.971 63.6819L181.983 57.6223C181.983 57.3439 181.955 57.1451 181.899 57.0258C181.852 56.9066 181.765 56.8469 181.638 56.8469C181.535 56.8469 181.384 56.8907 181.186 56.9781H181.174C181.15 56.9781 181.127 56.9582 181.103 56.9185C181.087 56.8708 181.087 56.8429 181.103 56.835L182.851 56.0119L182.898 56C182.938 56 182.981 56.0199 183.029 56.0596C183.077 56.0915 183.1 56.1233 183.1 56.1551V63.6819C183.1 64 183.144 64.2186 183.231 64.3379C183.318 64.4493 183.485 64.5049 183.73 64.5049C183.762 64.5049 183.778 64.5288 183.778 64.5765C183.778 64.6242 183.762 64.6481 183.73 64.6481C183.532 64.6481 183.374 64.6441 183.255 64.6361L182.53 64.6242L181.816 64.6361C181.697 64.6441 181.535 64.6481 181.329 64.6481ZM186.912 64.8031C186.421 64.8031 185.989 64.6918 185.616 64.4691C185.251 64.2385 184.97 63.9324 184.772 63.5507C184.574 63.161 184.475 62.7395 184.475 62.2862C184.475 61.7694 184.605 61.332 184.867 60.9741C185.129 60.6083 185.461 60.3379 185.866 60.163C186.27 59.9801 186.686 59.8886 187.114 59.8886C187.606 59.8886 188.034 60.004 188.398 60.2346C188.763 60.4652 189.04 60.7713 189.23 61.1531C189.429 61.5268 189.528 61.9284 189.528 62.3578C189.528 62.835 189.409 63.2604 189.171 63.6342C188.933 64 188.612 64.2862 188.208 64.493C187.812 64.6998 187.38 64.8031 186.912 64.8031ZM187.269 64.5526C187.578 64.5526 187.812 64.4015 187.97 64.0994C188.137 63.7892 188.22 63.3479 188.22 62.7753C188.22 62.2187 188.149 61.7415 188.006 61.3439C187.863 60.9463 187.677 60.6481 187.447 60.4493C187.217 60.2425 186.971 60.1391 186.71 60.1391C186.076 60.1391 185.759 60.7077 185.759 61.8449C185.759 62.3777 185.826 62.8509 185.961 63.2644C186.096 63.6699 186.278 63.988 186.508 64.2186C186.738 64.4413 186.991 64.5526 187.269 64.5526ZM195.963 64.5049C195.987 64.5049 195.999 64.5288 195.999 64.5765C195.999 64.6242 195.987 64.6481 195.963 64.6481C195.757 64.6481 195.595 64.6441 195.476 64.6361L194.762 64.6242L194.073 64.6361C193.946 64.6441 193.779 64.6481 193.573 64.6481C193.549 64.6481 193.538 64.6242 193.538 64.5765C193.538 64.5288 193.549 64.5049 193.573 64.5049C193.819 64.5049 193.985 64.4493 194.073 64.3379C194.16 64.2186 194.203 64 194.203 63.6819V61.9642C194.203 61.5348 194.124 61.2167 193.966 61.0099C193.815 60.8032 193.573 60.6998 193.24 60.6998C193.05 60.6998 192.852 60.7395 192.646 60.8191C192.448 60.8986 192.273 61.0059 192.123 61.1411V63.6819C192.123 64 192.166 64.2186 192.253 64.3379C192.349 64.4493 192.519 64.5049 192.765 64.5049C192.789 64.5049 192.8 64.5288 192.8 64.5765C192.8 64.6242 192.789 64.6481 192.765 64.6481C192.559 64.6481 192.396 64.6441 192.277 64.6361L191.564 64.6242L190.862 64.6361C190.743 64.6441 190.581 64.6481 190.375 64.6481C190.351 64.6481 190.339 64.6242 190.339 64.5765C190.339 64.5288 190.351 64.5049 190.375 64.5049C190.621 64.5049 190.787 64.4493 190.874 64.3379C190.961 64.2186 191.005 64 191.005 63.6819V61.4393C191.005 61.1928 190.973 61.0139 190.91 60.9026C190.854 60.7833 190.763 60.7236 190.636 60.7236C190.502 60.7236 190.311 60.7793 190.066 60.8906H190.042C190.018 60.8906 189.998 60.8707 189.983 60.831C189.975 60.7912 189.979 60.7674 189.994 60.7594L191.647 59.9483C191.695 59.9324 191.722 59.9244 191.73 59.9244C191.818 59.9244 191.901 60.0119 191.98 60.1869C192.059 60.3539 192.107 60.5845 192.123 60.8787C192.67 60.2266 193.272 59.9006 193.93 59.9006C194.358 59.9006 194.695 60.0397 194.941 60.3181C195.194 60.5884 195.321 60.9463 195.321 61.3916V63.6819C195.321 64 195.365 64.2186 195.452 64.3379C195.547 64.4493 195.717 64.5049 195.963 64.5049Z" fill="white"/>
<path d="M114.941 46.776C115.012 46.776 115.048 46.8825 115.048 47.0953C115.048 47.3081 115.012 47.4145 114.941 47.4145H105.392C104.606 47.4145 103.139 46.0134 100.994 43.2111C98.8478 40.3734 96.2551 36.4182 93.2153 31.3458C92.9292 31.3812 92.5179 31.399 91.9815 31.399C90.5867 31.399 89.6033 31.3812 89.0311 31.3458V43.1047C89.0311 44.2043 89.1205 45.0024 89.2993 45.4991C89.4781 45.9957 89.8179 46.3326 90.3185 46.51C90.855 46.6874 91.6954 46.776 92.8398 46.776C92.9113 46.776 92.9471 46.8825 92.9471 47.0953C92.9471 47.3081 92.9113 47.4145 92.8398 47.4145C91.6596 47.4145 90.7298 47.3968 90.0503 47.3613L85.9734 47.3081L82.0574 47.3613C81.3422 47.3968 80.3766 47.4145 79.1607 47.4145C79.0534 47.4145 78.9998 47.3081 78.9998 47.0953C78.9998 46.8825 79.0534 46.776 79.1607 46.776C80.3051 46.776 81.1276 46.6874 81.6283 46.51C82.1647 46.3326 82.5223 45.9957 82.7012 45.4991C82.9157 44.967 83.023 44.1689 83.023 43.1047V18.4695C83.023 17.4053 82.9336 16.6249 82.7548 16.1283C82.576 15.6317 82.2184 15.2947 81.6819 15.1174C81.1455 14.9045 80.323 14.7981 79.2143 14.7981C79.1428 14.7981 79.107 14.6917 79.107 14.4789C79.107 14.266 79.1428 14.1596 79.2143 14.1596L82.0574 14.2128C83.7025 14.2838 85.0078 14.3192 85.9734 14.3192C87.1893 14.3192 88.4589 14.266 89.7821 14.1596C90.247 14.1242 90.8192 14.0887 91.4987 14.0532C92.2139 14.0177 93.0007 14 93.859 14C97.1134 14 99.6346 14.603 101.423 15.8091C103.211 16.9796 104.105 18.6291 104.105 20.7574C104.105 22.7084 103.568 24.4819 102.496 26.0782C101.423 27.6389 99.9922 28.8982 98.2041 29.8559C101.065 34.1126 103.461 37.4469 105.392 39.859C107.324 42.2711 109.04 44.027 110.542 45.1266C112.044 46.2262 113.51 46.776 114.941 46.776ZM89.0311 29.8559C89.8894 29.9978 90.9265 30.0688 92.1424 30.0688C94.2166 30.0688 95.7008 29.5012 96.5948 28.3661C97.5246 27.1955 97.9895 25.3333 97.9895 22.7793C97.9895 19.8706 97.5604 17.8664 96.7021 16.7668C95.8438 15.6672 94.61 15.1174 93.0007 15.1174C91.5702 15.1174 90.551 15.3834 89.943 15.9155C89.3351 16.4476 89.0311 17.3344 89.0311 18.5759V29.8559ZM136.894 44.5413C137.037 44.5413 137.126 44.63 137.162 44.8073C137.234 44.9492 137.198 45.0557 137.055 45.1266L131.53 47.7338C131.387 47.8047 131.208 47.8402 130.993 47.8402C130.421 47.8402 129.867 47.5387 129.33 46.9357C128.83 46.3326 128.472 45.5168 128.257 44.4881L125.951 46.0843C125.128 46.6874 124.359 47.1308 123.644 47.4145C122.929 47.6628 122.124 47.787 121.23 47.787C119.692 47.787 118.53 47.45 117.743 46.776C116.956 46.1021 116.563 45.1621 116.563 43.956C116.563 42.9983 116.796 42.2356 117.26 41.6681C117.725 41.0651 118.298 40.6039 118.977 40.2847C119.692 39.93 120.676 39.5398 121.927 39.1141L123.269 38.6352L128.096 36.8794V33.8465C128.096 31.5763 127.9 29.9269 127.506 28.8982C127.149 27.8695 126.523 27.3552 125.629 27.3552C123.733 27.3552 122.661 28.8095 122.41 31.7182C122.303 32.7824 121.981 33.545 121.445 34.0062C120.944 34.4673 120.229 34.6979 119.299 34.6979C118.405 34.6979 117.743 34.5205 117.314 34.1658C116.921 33.7756 116.724 33.279 116.724 32.676C116.724 31.6118 117.35 30.6009 118.602 29.6431C119.853 28.6499 121.355 27.8518 123.108 27.2488C124.896 26.6457 126.469 26.3442 127.828 26.3442C129.402 26.3442 130.671 26.8408 131.637 27.834C132.638 28.7918 133.139 30.2639 133.139 32.2503V41.6681C133.139 42.6968 133.318 43.4949 133.675 44.0624C134.069 44.63 134.605 44.9138 135.285 44.9138C135.785 44.9138 136.304 44.7896 136.84 44.5413H136.894ZM128.15 43.5836C128.114 43.4417 128.096 43.2111 128.096 42.8919V37.7839L125.79 38.8481C125.682 38.8835 125.325 39.0254 124.717 39.2737C124.109 39.4866 123.573 39.859 123.108 40.3911C122.678 40.9232 122.464 41.5439 122.464 42.2534C122.464 43.1047 122.732 43.7787 123.269 44.2753C123.841 44.7364 124.484 44.967 125.2 44.967C125.772 44.967 126.362 44.7719 126.97 44.3817L128.15 43.5836ZM143.326 29.4303C143.326 30.459 143.684 31.3458 144.399 32.0907C145.15 32.8356 146.223 33.616 147.618 34.4318C148.977 35.2122 149.978 35.833 150.622 36.2941C151.301 36.7198 151.909 37.3405 152.446 38.1564C152.982 38.9367 153.25 39.8945 153.25 41.0296C153.25 42.2356 152.946 43.3707 152.338 44.4349C151.73 45.4991 150.818 46.3681 149.602 47.0421C148.387 47.6806 146.938 47.9998 145.257 47.9998C143.29 47.9998 141.431 47.521 139.678 46.5632C139.464 46.3504 139.357 46.1375 139.357 45.9247L139.249 40.6571C139.249 40.5507 139.339 40.4975 139.518 40.4975C139.732 40.462 139.857 40.4798 139.893 40.5507C140.465 42.3243 141.413 43.8319 142.736 45.0734C144.059 46.3149 145.4 46.9357 146.759 46.9357C147.51 46.9357 148.1 46.7051 148.53 46.244C148.995 45.7828 149.227 45.1089 149.227 44.2221C149.227 42.9096 148.851 41.8809 148.1 41.136C147.349 40.3556 146.241 39.5575 144.775 38.7417C143.523 38.0677 142.575 37.5179 141.931 37.0922C141.288 36.6665 140.716 36.0635 140.215 35.2831C139.714 34.5028 139.464 33.545 139.464 32.4099C139.464 30.3171 140.215 28.7918 141.717 27.834C143.219 26.8408 145.061 26.3442 147.242 26.3442C148.065 26.3442 148.798 26.3974 149.442 26.5038C150.121 26.6103 150.872 26.8231 151.695 27.1423C152.016 27.2488 152.177 27.4439 152.177 27.7276C152.177 28.6144 152.16 29.3061 152.124 29.8027L152.07 32.4631C152.07 32.5695 151.963 32.6227 151.748 32.6227C151.534 32.6227 151.426 32.5695 151.426 32.4631C151.426 31.7892 151.14 31.062 150.568 30.2816C149.996 29.4657 149.245 28.774 148.315 28.2065C147.421 27.6389 146.491 27.3552 145.526 27.3552C144.059 27.3552 143.326 28.0469 143.326 29.4303ZM195.785 46.776C195.928 46.776 195.999 46.8825 195.999 47.0953C195.999 47.3081 195.928 47.4145 195.785 47.4145C194.855 47.4145 194.122 47.3968 193.585 47.3613L190.367 47.3081L187.255 47.3613C186.683 47.3968 185.932 47.4145 185.002 47.4145C184.895 47.4145 184.841 47.3081 184.841 47.0953C184.841 46.8825 184.895 46.776 185.002 46.776C186.111 46.776 186.862 46.5277 187.255 46.0311C187.684 45.4991 187.899 44.5236 187.899 43.1047V35.4428C187.899 33.5273 187.559 32.1084 186.88 31.1861C186.236 30.2639 185.235 29.8027 183.876 29.8027C182.946 29.8027 182.034 29.9978 181.14 30.388C180.246 30.7782 179.477 31.3103 178.833 31.9843V32.3035V43.1047C178.833 44.5236 179.03 45.4991 179.423 46.0311C179.852 46.5277 180.621 46.776 181.73 46.776C181.873 46.776 181.945 46.8825 181.945 47.0953C181.945 47.3081 181.873 47.4145 181.73 47.4145C180.8 47.4145 180.067 47.3968 179.531 47.3613L176.312 47.3081L173.201 47.3613C172.628 47.3968 171.877 47.4145 170.948 47.4145C170.84 47.4145 170.787 47.3081 170.787 47.0953C170.787 46.8825 170.84 46.776 170.948 46.776C172.056 46.776 172.807 46.5277 173.201 46.0311C173.63 45.4991 173.844 44.5236 173.844 43.1047V35.4428C173.844 33.5273 173.505 32.1084 172.825 31.1861C172.181 30.2639 171.18 29.8027 169.821 29.8027C168.963 29.8027 168.105 29.9801 167.246 30.3348C166.424 30.6541 165.691 31.1152 165.047 31.7182V43.1047C165.047 44.5236 165.244 45.4991 165.637 46.0311C166.066 46.5277 166.835 46.776 167.944 46.776C168.051 46.776 168.105 46.8825 168.105 47.0953C168.105 47.3081 168.051 47.4145 167.944 47.4145C167.014 47.4145 166.281 47.3968 165.744 47.3613L162.526 47.3081L159.361 47.3613C158.824 47.3968 158.091 47.4145 157.161 47.4145C157.054 47.4145 157 47.3081 157 47.0953C157 46.8825 157.054 46.776 157.161 46.776C158.27 46.776 159.021 46.5277 159.414 46.0311C159.808 45.4991 160.004 44.5236 160.004 43.1047V33.1016C160.004 32.002 159.861 31.2039 159.575 30.7073C159.325 30.1752 158.914 29.9091 158.341 29.9091C157.733 29.9091 156.875 30.1575 155.767 30.6541H155.659C155.552 30.6541 155.463 30.5654 155.391 30.388C155.355 30.2107 155.373 30.1042 155.445 30.0688L162.901 26.4506C163.116 26.3797 163.241 26.3442 163.277 26.3442C163.67 26.3442 164.046 26.7344 164.403 27.5148C164.761 28.2597 164.975 29.2707 165.047 30.5476C167.479 27.6744 170.089 26.2378 172.879 26.2378C174.56 26.2378 175.901 26.6457 176.902 27.4616C177.903 28.2774 178.511 29.448 178.726 30.9733C181.194 27.8163 183.929 26.2378 186.933 26.2378C188.865 26.2378 190.331 26.7876 191.332 27.8872C192.369 28.9869 192.888 30.6541 192.888 32.8888V43.1047C192.888 44.5236 193.085 45.4991 193.478 46.0311C193.907 46.5277 194.676 46.776 195.785 46.776Z" fill="white"/>
<path d="M69.8081 20.5062C69.6475 19.581 69.2473 18.5504 68.6746 17.6567V17.6554C67.9024 16.4523 66.8186 15.4984 65.5874 15.3875C63.6965 15.2178 61.9822 16.5645 60.818 18.0974C60.5263 18.482 60.2532 18.883 59.9883 19.2895C59.1974 20.5035 58.4707 21.7667 57.459 22.7891C55.6029 24.6641 53.4283 25.8247 50.8737 26.3667C48.319 26.9087 45.3562 26.3106 42.9461 27.3302C40.536 28.3499 38.5608 30.6971 37.2948 33.0305C35.1657 36.9557 34.3681 41.5105 34.2959 45.8669V45.8696C34.2905 46.1748 34.2892 46.4773 34.2919 46.7798C34.32 51.407 35.6127 56.0522 38.17 59.8707C41.2587 64.4843 46.6395 69.1199 52.1062 69.1637C53.8325 69.1774 55.3754 68.9788 56.7645 68.6148C56.893 68.5819 56.9331 68.4561 56.901 68.3548C56.8783 68.2809 56.8154 68.2192 56.7177 68.2166C41.6574 67.8854 45.3521 55.0284 48.319 52.1899C49.3748 51.1798 50.8081 51.2852 52.339 51.7861C53.0041 52.0037 53.6866 52.2953 54.3651 52.6018L54.3664 52.6032C55.16 52.9618 55.9482 53.3409 56.6922 53.6461C58.353 54.3277 59.8009 54.6425 60.6333 53.5476C62.9364 50.5147 62.9016 51.7629 63.9133 49.4089C64.4834 48.0813 62.8641 47.241 61.5232 46.5526C61.4055 46.4924 61.4697 46.3103 61.5982 46.3377C67.0193 47.5106 66.0237 43.5744 66.0237 43.5744C67.9078 43.6812 69.8964 42.1292 68.8499 39.0785C67.8034 36.0278 67.8034 33.4055 67.8034 33.4055C68.0215 30.1701 68.8981 29.3585 69.531 26.1806C69.9593 24.0209 70.1854 22.6755 69.8081 20.5062ZM64.3709 33.5218C64.2907 33.5478 64.209 33.5725 64.1288 33.5957C63.9882 33.6354 63.8892 33.7654 63.8892 33.9146V35.0889C63.8892 35.4023 63.6296 35.6555 63.3178 35.635C63.0341 35.6158 62.8186 35.3613 62.8186 35.0697V33.9338C62.8186 33.8612 62.7611 33.8024 62.6902 33.8024C62.3917 33.8024 62.096 33.775 61.8029 33.7216C61.7427 33.7107 61.6838 33.7435 61.661 33.8024L61.1873 35.0711C61.1057 35.2887 60.9023 35.4229 60.6869 35.4229C60.6159 35.4229 60.5436 35.4078 60.4741 35.3777C60.2091 35.26 60.0913 34.9384 60.1957 34.6619L60.5423 33.734C60.6159 33.5369 60.533 33.3152 60.3483 33.2207C60.2372 33.1646 60.1275 33.1044 60.0177 33.0387C59.8491 32.9388 59.6337 32.9798 59.5092 33.1331L58.6929 34.1418C58.5872 34.2718 58.4346 34.3403 58.2807 34.3403C58.1603 34.3403 58.0398 34.2992 57.9395 34.2143C57.712 34.0227 57.6799 33.6765 57.8685 33.4438L58.7116 32.4023C58.8053 32.2859 58.7946 32.1162 58.6889 32.0122C58.5604 31.8877 58.4386 31.7631 58.3249 31.6386C58.2339 31.5387 58.088 31.5195 57.9743 31.5921L57.0455 32.1833C56.9585 32.238 56.8609 32.2654 56.7645 32.2654C56.5812 32.2654 56.4005 32.1696 56.3015 31.9931C56.1543 31.7344 56.2506 31.4018 56.4982 31.243L57.2556 30.7614C57.3881 30.6765 57.4283 30.4972 57.3426 30.3618C57.2115 30.1578 57.1406 30.0251 57.1312 30.01C56.9893 29.7445 57.0857 29.4119 57.3439 29.2668C57.6022 29.1218 57.9274 29.2189 58.0706 29.4831C58.08 29.5009 58.6768 30.5917 59.7313 31.4976C60.3041 31.9889 60.8943 32.3297 61.5005 32.5227C61.5205 32.5282 61.5419 32.5337 61.562 32.5419L61.5634 32.5432C62.373 32.7855 63.2081 32.7636 64.0632 32.4748C64.3536 32.3776 64.668 32.546 64.7483 32.8526C64.8193 33.1386 64.6453 33.4301 64.3709 33.5218ZM65.3666 30.2947C65.3586 30.2947 65.3505 30.2947 65.3425 30.2947C65.0588 30.2947 64.8219 30.0648 64.8085 29.7719C64.7711 28.8946 64.4593 28.2404 63.8584 27.7682C61.9207 26.2476 57.7548 27.1674 57.7133 27.1769C57.4256 27.2413 57.1392 27.0565 57.075 26.7609C57.0121 26.4652 57.1927 26.1737 57.4818 26.108C57.6718 26.0656 62.1749 25.0692 64.5088 26.8991C65.3639 27.5697 65.8243 28.5196 65.8764 29.7226C65.8912 30.0251 65.6624 30.281 65.3666 30.2947Z" fill="white"/>
<path d="M56.9009 68.3534C53.8538 68.4862 49.4712 68.0003 45.929 64.9005C40.4382 60.0938 38.9782 50.7666 43.1856 42.6274C43.385 42.2415 43.9404 42.2866 44.0795 42.6999C44.8611 45.0184 46.9674 49.2515 52.339 51.7862C50.8081 51.2866 49.3749 51.1799 48.319 52.19C45.3522 55.0271 41.6573 67.884 56.7176 68.2165C56.8153 68.2179 56.8782 68.2795 56.9009 68.3534Z" fill="#AB6A49"/>
<path d="M48.2791 69.9989C45.4996 69.5007 42.7094 68.4566 40.848 67.3055C39.768 66.6376 38.7924 65.8247 37.853 64.9611C35.9367 62.7521 34.2278 60.3515 32.3784 58.0809C30.0486 55.2205 27.415 52.5065 24.139 50.8806C20.6891 49.1685 16.6811 48.7415 13.2486 47.0868C14.4343 48.0914 15.8862 48.8086 17.3435 49.3587C19.5396 50.188 21.848 50.73 23.9316 51.8222C26.9573 53.4098 29.318 56.0581 31.376 58.8296C31.6223 59.1608 31.8645 59.4947 32.1054 59.8301C32.1442 59.8848 32.0813 59.9546 32.0251 59.9177C28.4093 57.528 24.1819 56.1731 20.0387 54.8811C16.1659 53.6739 12.2168 52.4449 8.73479 50.3879C7.91045 49.902 7.11289 49.3697 6.34744 48.7784C2.77707 46.0248 0.0337087 41.7245 0.00292969 37.2285C2.39164 38.8504 5.35713 39.9111 7.96665 40.5365C12.5888 41.6451 17.4773 41.8518 21.7891 43.8842C26.1637 45.9454 29.6405 49.6065 32.4413 53.6438C32.7076 54.0284 32.9685 54.4158 33.2228 54.8058C34.3388 56.5166 35.38 58.2561 36.464 59.9163C36.4653 59.919 36.4666 59.9218 36.4693 59.9231V59.9245C38.395 62.8766 40.4559 65.5797 43.3156 67.4397C44.3554 68.1158 45.5946 68.7877 46.9663 69.3652C47.4012 69.5486 47.8509 69.7224 48.3099 69.8826C48.3741 69.91 48.3487 70.0126 48.2791 69.9989Z" fill="white"/>
<path d="M37.2747 66.7385C33.9921 64.765 30.5609 62.9666 26.933 62.5437C23.7119 62.1687 20.4146 61.8087 17.5013 60.4155C19.0362 61.5528 21.1131 62.2275 22.8997 62.6011C25.0569 63.0528 27.2957 63.3169 29.41 63.9465C30.8914 64.3886 32.979 65.4356 35.0319 66.5784C35.0921 66.6126 35.0667 66.7084 34.9984 66.7043C34.1741 66.6646 33.3444 66.6865 32.5294 66.7467C29.9413 66.9397 27.364 67.468 24.7718 67.3366C21.3406 67.1628 17.9804 65.7887 15.3695 63.5058C15.2263 63.3813 15.0858 63.2526 14.9466 63.1226C12.7386 61.041 11.1461 58.2901 10.3967 55.3174C10.6924 55.4761 10.9949 55.624 11.3053 55.7608C13.2203 56.608 15.3682 57.0432 17.4491 57.3005C21.1225 57.7563 24.9391 57.8384 28.3006 59.4178C29.1049 59.7955 29.8623 60.2499 30.589 60.755C32.4652 62.0633 34.1299 63.7207 35.8094 65.3028C36.3018 65.7668 36.8037 66.2294 37.3162 66.6756C37.3497 66.7084 37.3135 66.7618 37.2747 66.7385Z" fill="white"/>
<path d="M39.2231 24.6592C39.116 25.7596 38.376 26.7395 37.2773 27.0844C36.0207 27.4772 34.7013 26.9119 34.0709 25.7951C33.9666 25.6131 33.8823 25.4147 33.8194 25.2039C33.3724 23.708 34.1954 22.1245 35.6581 21.6674C37.1208 21.2102 38.6691 22.0519 39.116 23.5479C39.2271 23.9188 39.2592 24.2951 39.2231 24.6592Z" fill="white"/>
<path d="M46.5699 12.4004C46.4321 12.8014 46.2688 13.1791 46.0774 13.5213C44.2347 16.8156 41.4873 18.1007 39.3395 18.8494C38.847 16.9921 38.4228 14.5806 39.2271 11.8693C39.393 11.3109 39.6111 10.7402 39.8908 10.1572C41.4592 6.90126 46.8161 3.96965 47.1333 3.85742C47.2109 4.15305 47.7114 9.09788 46.5699 12.4004Z" fill="white"/>
<path d="M39.6474 5.33764C39.6246 5.4047 39.6019 5.47315 39.5751 5.53884C39.2446 6.36413 38.5902 7.00874 38.0375 7.704C37.6253 6.91293 37.1021 6.15335 36.9321 5.2788C36.813 4.66703 36.8759 4.04841 37.0432 3.44758C37.2065 2.86043 37.4688 2.2911 37.7605 1.7587C38.0067 1.31115 38.2744 0.870444 38.5286 0.425641C38.6089 0.284672 38.6879 0.142337 38.7628 0C38.724 0.410588 38.6852 0.833496 38.6437 1.26872C38.5688 2.07895 38.4885 2.92749 38.4055 3.80479C38.3801 4.07441 38.3547 4.34676 38.3292 4.62186C38.356 4.34676 38.3801 4.07441 38.4055 3.80479C38.4885 2.92749 38.5674 2.07758 38.6437 1.26872C38.6852 0.833496 38.724 0.410588 38.7628 0C38.8097 0.154655 38.8605 0.309311 38.9127 0.463967C39.0786 0.951197 39.2606 1.43432 39.4172 1.92293C39.7732 3.02603 40.0033 4.24685 39.6474 5.33764Z" fill="white"/>
<path d="M58.1965 17.581C58.0466 17.8465 54.97 21.7183 51.8747 23.2225C51.504 23.4031 51.1334 23.5482 50.768 23.6508C47.1869 24.6486 44.3566 23.5701 42.3198 22.5463C42.9475 21.4268 43.7705 20.1512 44.9816 19.0303C45.9478 18.1366 47.1602 17.3401 48.7192 16.7995C52.0795 15.6306 57.8941 17.4318 58.1965 17.581Z" fill="white"/>
<path d="M54.4811 8.93235C53.994 9.06374 53.5002 9.18009 53.0171 9.31969C51.8569 9.65363 50.6685 10.1846 49.9981 11.2098C49.8255 11.4739 49.6943 11.7599 49.5859 12.0597L49.5846 12.061C49.3892 12.5989 49.2661 13.1737 49.1028 13.7253C49.974 13.6336 50.8827 13.6514 51.6869 13.3065C52.1901 13.0903 52.617 12.7495 52.981 12.3361C53.4239 11.838 53.7786 11.2385 54.0757 10.6363C54.3018 10.1778 54.5079 9.70426 54.7274 9.2403C54.797 9.09385 54.8679 8.94742 54.9401 8.80371C54.7889 8.84751 54.6364 8.88993 54.4811 8.93235ZM54.1158 9.4976C54.2563 9.37853 54.3968 9.25946 54.5347 9.1445C54.3968 9.26083 54.2577 9.37853 54.1158 9.4976Z" fill="white"/>
<path d="M33.0429 38.5935C31.4745 41.8494 26.1162 44.7811 25.8004 44.8933C25.7148 44.5621 25.0952 38.38 26.8563 35.2294C28.699 31.9352 31.445 30.65 33.5929 29.9027L33.5942 29.9014C34.1884 32.1418 34.6822 35.1883 33.0429 38.5935Z" fill="white"/>
<path d="M20.166 22.7695C19.3925 23.1924 18.6498 23.7262 17.7946 23.9C16.613 24.1409 15.4059 23.6564 14.3541 23.0528C13.9151 22.8024 13.4855 22.5273 13.0506 22.2672C12.9128 22.1851 12.7736 22.1044 12.6345 22.0277C12.7857 21.9785 12.9369 21.9264 13.0881 21.8731C13.5645 21.7034 14.0369 21.5172 14.5133 21.3571C15.6575 20.9711 16.9342 20.7303 18.0489 21.197C18.8545 21.535 19.4848 22.2029 20.1633 22.7681C20.166 22.7695 20.166 22.7695 20.166 22.7695Z" fill="white"/>
<path d="M30.614 26.2068C29.4873 28.2199 27.7289 30.7328 24.2147 31.9536C20.8544 33.121 15.0399 31.3199 14.7388 31.1707C14.9061 30.8737 18.7428 26.0549 22.1672 25.1009C25.7469 24.1032 28.5773 25.1803 30.6127 26.2054L30.614 26.2068Z" fill="white"/>
<path d="M21.2469 35.4474C20.1348 35.9237 19.3988 37.0159 18.8568 38.1176C18.6307 38.5761 18.4246 39.0497 18.2051 39.5136C18.1355 39.6601 18.0646 39.8065 17.991 39.9502C18.1435 39.9051 18.2974 39.8613 18.4513 39.8202C18.9384 39.6888 19.4322 39.5711 19.9153 39.4329C21.0756 39.0976 22.2638 38.5679 22.9329 37.5428C23.4174 36.801 23.5739 35.8868 23.8282 35.0286V35.0273C22.9583 35.1217 22.0497 35.1039 21.2469 35.4474ZM18.5343 39.4945C18.7177 39.3398 18.9037 39.1824 19.0937 39.0223C18.9037 39.1838 18.7163 39.3412 18.5343 39.4945Z" fill="white"/>
<path d="M31.0643 21.4369C28.8749 22.0446 25.8947 22.551 22.5652 20.8731C21.322 20.2476 20.1283 19.0295 19.126 17.7594V17.7581C17.5643 15.7749 16.4736 13.6645 16.4067 13.466C16.7306 13.3784 22.7753 12.7448 25.8559 14.5459C26.703 15.0413 27.4136 15.5997 28.0144 16.1951C29.6993 17.8662 30.525 19.8179 31.0643 21.4369Z" fill="white"/>
<path d="M25.7282 9.04905C25.7014 8.9683 25.6733 8.88892 25.6412 8.80954C25.1755 7.67358 24.1076 6.92084 23.0304 6.36655C22.5821 6.13525 22.119 5.92448 21.6654 5.70003C21.5222 5.62886 21.379 5.55632 21.2385 5.48242C21.2827 5.63844 21.3255 5.79583 21.367 5.95322C21.4954 6.4514 21.6092 6.95643 21.7457 7.45187C21.8795 7.94048 22.0481 8.43591 22.2689 8.89576C22.5821 9.55134 23.0036 10.1371 23.5924 10.5395C24.3177 11.0336 25.213 11.1937 26.0507 11.4551V11.4537C25.9691 10.6462 25.9744 9.81001 25.7282 9.04905Z" fill="white"/>
<path d="M34.6775 18.3907C32.709 17.2369 30.252 15.4399 29.0584 11.8459C28.8282 11.1534 28.7158 10.3609 28.685 9.53159C28.5606 6.24278 29.7074 2.39968 29.8238 2.15332C30.1076 2.32166 34.6347 6.0895 35.6959 9.53296C35.7173 9.6055 35.7387 9.67803 35.7574 9.7492C36.733 13.413 35.6798 16.3076 34.6775 18.3907Z" fill="white"/>
<path d="M32.4384 53.6448C27.3759 47.0083 21.8477 44.1466 15.6825 43.2515C13.4557 42.9285 9.54013 42.2346 7.31066 41.9184C5.62585 41.6803 3.93433 41.2889 2.39004 40.5772C3.59576 44.3464 5.83061 47.7556 8.73186 50.3888C7.90752 49.9029 7.10993 49.3705 6.34447 48.7793C2.77411 46.0256 0.030779 41.7255 0 37.2295C2.38872 38.8513 5.35417 39.912 7.9637 40.5375C12.5858 41.6461 17.4744 41.8527 21.7861 43.8852C26.1621 45.9462 29.6375 49.6059 32.4384 53.6448Z" fill="#AB6A49"/>
<path d="M36.4664 59.9271C36.465 59.9244 36.4623 59.9217 36.4609 59.9189C36.4623 59.9217 36.4636 59.9244 36.4664 59.9258V59.9271Z" fill="#AB6A49"/>
<path d="M26.6288 59.1738C21.8006 57.9201 16.524 58.8207 11.875 57.0469C12.4665 59.2354 13.6147 61.2432 14.9904 63.0292C15.1135 63.1894 15.2407 63.3495 15.3678 63.5069C15.2246 63.3823 15.0841 63.2537 14.9449 63.1237C12.7369 61.042 11.1444 58.291 10.395 55.3184C10.6907 55.4772 10.9932 55.625 11.3036 55.7619C13.2186 56.609 15.3664 57.0442 17.4474 57.3015C21.1208 57.7573 24.9374 57.8394 28.2989 59.4188C29.1032 59.7965 29.8606 60.2509 30.5873 60.7559C29.3387 60.0661 28.0059 59.531 26.6288 59.1738Z" fill="#AB6A49"/>
<path d="M68.6746 17.657C68.5341 17.579 68.3897 17.5092 68.2411 17.4449C66.4412 16.673 64.2278 17.0357 62.7517 18.3441C61.3827 19.5581 60.5918 21.3003 59.5842 22.8414C57.6504 25.8004 54.4601 27.7849 50.9526 28.0477C47.6994 28.2913 44.4797 28.4008 41.7243 30.1869C38.7321 32.1276 36.7916 35.4423 35.7692 38.9118C35.1175 41.1194 34.6224 43.4967 34.2959 45.8658C34.3681 41.5095 35.1657 36.9547 37.2948 33.0295C38.5608 30.696 40.536 28.3502 42.9461 27.3292C45.3563 26.3095 48.319 26.9076 50.8737 26.3656C53.4283 25.8237 55.6029 24.6631 57.459 22.788C58.4707 21.767 59.1974 20.5024 59.9883 19.2884C60.2532 18.882 60.5249 18.481 60.818 18.0964C61.9823 16.5636 63.6965 15.2169 65.5874 15.3866C66.8186 15.5002 67.9024 16.4541 68.6746 17.657Z" fill="#AB6A49"/>
<path d="M33.5919 29.9033C33.4795 29.9759 26.233 34.6456 25.7994 44.8939C25.7138 44.5627 25.0942 38.3806 26.8553 35.23C28.6994 31.9357 31.4454 30.6506 33.5919 29.9033Z" fill="#AB6A49"/>
<path d="M23.8309 35.0283C23.8309 35.0283 20.4934 36.49 17.9922 39.9513C18.0658 39.8076 18.1367 39.6612 18.2063 39.5147C18.4258 39.0507 18.6319 38.5772 18.8581 38.1187C19.4 37.0183 20.136 35.9261 21.2481 35.4485C22.0497 35.1036 22.9584 35.1214 23.8309 35.0283Z" fill="#AB6A49"/>
<path d="M30.613 26.2055C30.4658 26.1822 22.5141 24.9272 14.7405 31.1708C14.9078 30.8739 18.7444 26.0549 22.1688 25.1011C25.7473 24.1047 28.5776 25.1818 30.613 26.2055Z" fill="#AB6A49"/>
<path d="M20.1639 22.7691C17.9746 21.577 12.6338 22.0287 12.6338 22.0287C12.785 21.9794 12.9362 21.9274 13.0874 21.874C13.5638 21.7043 14.0362 21.5182 14.5126 21.358C15.6568 20.9721 16.9335 20.7312 18.0482 21.1979C18.8538 21.5346 19.4855 22.2038 20.1639 22.7691Z" fill="#AB6A49"/>
<path d="M35.6955 9.53433C34.4054 7.13649 32.4463 5.1123 30.1018 3.78884C29.4207 5.64059 28.9456 7.57172 28.6833 9.53159C28.5588 6.24278 29.7057 2.39968 29.8221 2.15332C30.1085 2.32303 34.6343 6.0895 35.6955 9.53433Z" fill="#AB6A49"/>
<path d="M46.5697 12.4008C46.812 10.1439 46.7464 7.85283 46.373 5.61376C43.3942 6.79215 40.8396 9.05039 39.2283 11.8684C39.3943 11.31 39.6124 10.7393 39.8921 10.1562C41.4605 6.90028 46.8173 3.96867 47.1345 3.85645C47.2107 4.15343 47.7112 9.09828 46.5697 12.4008Z" fill="#AB6A49"/>
<path d="M58.1963 17.5816C58.0464 17.8471 54.9699 21.719 51.8745 23.2231C52.6119 22.7454 53.2944 22.1706 53.9086 21.5369C54.9136 20.505 55.7581 19.3239 56.5316 18.0962C54.0331 17.1628 51.2697 16.978 48.6749 17.5789C47.3848 17.8772 46.1376 18.3699 44.9814 19.0296C45.9476 18.1359 47.16 17.3393 48.719 16.7987C52.0793 15.6313 57.8939 17.4324 58.1963 17.5816Z" fill="#AB6A49"/>
<path d="M28.0124 16.1965C27.2925 15.79 26.5953 15.3725 25.8151 15.0605C23.9631 14.3201 21.9665 13.9574 19.9792 13.9998C19.1134 14.0176 18.2502 14.1148 17.4018 14.29C17.6841 15.2973 18.2864 16.2991 18.7842 17.1778C18.8939 17.3735 19.0077 17.5665 19.1241 17.7581C17.5624 15.7749 16.4717 13.6645 16.4048 13.466C16.7287 13.3784 22.7734 12.7448 25.8539 14.5459C26.6997 15.0427 27.4116 15.6011 28.0124 16.1965Z" fill="#AB6A49"/>
<path d="M21.9372 6.34954C21.8837 6.33312 21.8288 6.31669 21.7739 6.30027C21.9305 7.12693 22.0884 7.95221 22.245 8.77885C22.2517 8.81718 22.2597 8.85549 22.2677 8.89381C22.0469 8.43395 21.8797 7.93853 21.7445 7.44993C21.608 6.95448 21.4942 6.44944 21.3658 5.95127C21.3256 5.79388 21.2828 5.63649 21.2373 5.48047C21.3778 5.55438 21.521 5.62691 21.6642 5.69808C22.1179 5.92253 22.5809 6.1333 23.0292 6.36459C24.1051 6.91889 25.1743 7.67165 25.64 8.80761C25.6722 8.88699 25.7016 8.96637 25.727 9.04712C24.7769 7.78114 23.4333 6.82035 21.9372 6.34954Z" fill="#AB6A49"/>
<path d="M39.4186 1.9239C39.262 1.43531 39.08 0.952174 38.9141 0.464942C38.8619 0.311656 38.811 0.157 38.7642 0.000976562L38.7629 0.00371649V0.000976562C38.6879 0.143314 38.609 0.285648 38.5287 0.426618C38.2758 0.87142 38.0068 1.31212 37.7605 1.75965C37.4701 2.29068 37.2065 2.86141 37.0432 3.44856C37.3952 2.60548 37.9465 1.84725 38.6424 1.2697C38.6531 1.26012 38.6638 1.25191 38.6746 1.24233C39.353 2.48367 39.6916 3.91661 39.6461 5.33724C40.0034 4.24645 39.7732 3.02565 39.4186 1.9239Z" fill="#AB6A49"/>
<path d="M54.9416 8.7998C54.8694 8.94351 54.7985 9.08995 54.7289 9.23639C54.5094 9.70036 54.3033 10.1739 54.0771 10.6324C53.7801 11.2346 53.4254 11.834 52.9825 12.3322C53.487 11.4467 53.8697 10.4887 54.116 9.49643V9.49506C54.1227 9.46769 54.1293 9.44032 54.1374 9.41295C54.1307 9.43895 53.4 9.67573 53.3264 9.69352C53.0722 9.75374 52.6279 9.92345 52.383 10.0138C51.4971 10.3422 50.9149 10.6242 50.2378 11.2921C50.0665 11.4604 49.9046 11.6397 49.752 11.8272C49.7038 11.8861 49.649 11.9873 49.5874 12.0544C49.6958 11.756 49.827 11.4686 49.9996 11.2045C50.67 10.1794 51.8584 9.64973 53.0186 9.31441C53.5017 9.17481 53.9955 9.05847 54.4826 8.92708C54.6365 8.88875 54.7891 8.84634 54.9416 8.7998Z" fill="#AB6A49"/>
<path d="M39.2231 24.6598C39.191 24.5256 39.1803 24.3587 39.1522 24.2533C39.0987 24.0521 39.0358 23.8536 38.9568 23.6606C38.7802 23.2268 38.5179 22.8189 38.1485 22.5397C37.7939 22.2701 37.355 22.1305 36.9147 22.1018C35.8267 22.0306 34.724 22.6766 34.2342 23.6743C33.9144 24.3258 33.8689 25.1004 34.071 25.7971C33.9666 25.6151 33.8823 25.4166 33.8194 25.2058C33.3724 23.7099 34.1954 22.1264 35.6581 21.6693C37.1208 21.2122 38.6691 22.0539 39.1161 23.5498C39.2271 23.9193 39.2593 24.2957 39.2231 24.6598Z" fill="#AB6A49"/>
<path d="M36.4665 26.3213C37.7569 26.3213 38.803 25.2514 38.803 23.9317C38.803 22.6119 37.7569 21.542 36.4665 21.542C35.1761 21.542 34.1299 22.6119 34.1299 23.9317C34.1299 25.2514 35.1761 26.3213 36.4665 26.3213Z" fill="#AB6A49"/>
</svg>
