<svg width="196" height="70" viewBox="0 0 196 70" fill="none" xmlns="http://www.w3.org/2000/svg">
<path d="M59.8285 60.4612C60.4944 60.5408 61.0215 60.7634 61.4099 61.1292C61.8062 61.495 62.0044 61.9483 62.0044 62.4891C62.0044 62.9026 61.8855 63.2763 61.6477 63.6103C61.4099 63.9443 61.0809 64.2107 60.6608 64.4095C60.2407 64.6004 59.773 64.6958 59.2578 64.6958C59.0359 64.6958 58.7822 64.6839 58.4969 64.66C58.3859 64.6521 58.2472 64.6441 58.0807 64.6362C57.9222 64.6282 57.7438 64.6243 57.5457 64.6243L56.6777 64.6362C56.5192 64.6441 56.3052 64.6481 56.0357 64.6481C56.0119 64.6481 56 64.6243 56 64.5765C56 64.5288 56.0119 64.505 56.0357 64.505C56.2655 64.505 56.4399 64.4851 56.5588 64.4453C56.6777 64.3976 56.7609 64.3181 56.8085 64.2068C56.864 64.0875 56.8917 63.9125 56.8917 63.6819V58.159C56.8917 57.8251 56.8363 57.6064 56.7253 57.503C56.6143 57.3917 56.3884 57.336 56.0476 57.336C56.0317 57.336 56.0238 57.3121 56.0238 57.2644C56.0238 57.2167 56.0317 57.1928 56.0476 57.1928L56.6777 57.2048C57.0423 57.2207 57.3317 57.2286 57.5457 57.2286C57.7676 57.2286 57.9975 57.2167 58.2353 57.1928C58.3146 57.1849 58.4335 57.1769 58.592 57.169C58.7505 57.161 58.8892 57.1571 59.0081 57.1571C59.7294 57.1571 60.2883 57.2883 60.6846 57.5507C61.0809 57.8131 61.2791 58.1948 61.2791 58.6958C61.2791 59.0775 61.1523 59.4235 60.8986 59.7336C60.6529 60.0437 60.2962 60.2863 59.8285 60.4612ZM58.8298 57.4195C58.5999 57.4195 58.4414 57.4751 58.3542 57.5865C58.267 57.6899 58.2234 57.8887 58.2234 58.1829V60.4493L58.699 60.4612C59.1112 60.4612 59.4282 60.3062 59.6502 59.996C59.8721 59.6859 59.9831 59.2883 59.9831 58.8032C59.9831 58.3499 59.884 58.008 59.6859 57.7773C59.4877 57.5388 59.2024 57.4195 58.8298 57.4195ZM59.0557 64.3976C60.0941 64.3976 60.6133 63.8569 60.6133 62.7753C60.6133 62.163 60.4666 61.6779 60.1733 61.3201C59.8801 60.9622 59.4362 60.7833 58.8417 60.7833C58.6118 60.7833 58.4057 60.7913 58.2234 60.8072V63.6819C58.2234 63.9443 58.2749 64.1312 58.378 64.2425C58.481 64.3459 58.7069 64.3976 59.0557 64.3976ZM67.2326 63.8608C67.2485 63.8608 67.2643 63.8767 67.2802 63.9085C67.304 63.9404 67.3079 63.9642 67.2921 63.9801C66.9988 64.2664 66.7016 64.4732 66.4003 64.6004C66.0991 64.7276 65.7702 64.7912 65.4135 64.7912C64.9141 64.7912 64.4821 64.6879 64.1175 64.4811C63.7529 64.2664 63.4754 63.9841 63.2852 63.6342C63.095 63.2763 62.9998 62.8907 62.9998 62.4771C62.9998 62.0159 63.1148 61.5905 63.3447 61.2008C63.5745 60.8111 63.8916 60.505 64.2958 60.2823C64.708 60.0517 65.1717 59.9364 65.687 59.9364C66.1784 59.9364 66.5589 60.0477 66.8284 60.2704C67.0979 60.493 67.2326 60.839 67.2326 61.3082C67.2326 61.5547 67.189 61.6779 67.1018 61.6779L64.2126 61.6899C64.2047 61.7455 64.2007 61.837 64.2007 61.9642C64.2007 62.664 64.3593 63.2127 64.6763 63.6103C65.0013 64.008 65.465 64.2068 66.0674 64.2068C66.2814 64.2068 66.4638 64.1829 66.6144 64.1352C66.765 64.0875 66.9631 64 67.2089 63.8728L67.2326 63.8608ZM65.2351 60.175C64.9736 60.175 64.7556 60.2903 64.5812 60.5209C64.4068 60.7435 64.2919 61.0537 64.2364 61.4513L65.9604 61.4274C65.9525 61.0219 65.893 60.7117 65.7821 60.497C65.6711 60.2823 65.4888 60.175 65.2351 60.175ZM72.5476 64.004C72.5793 64.004 72.5991 64.0239 72.607 64.0636C72.6229 64.0954 72.615 64.1193 72.5833 64.1352L71.3586 64.7197C71.3269 64.7356 71.2873 64.7435 71.2397 64.7435C71.1129 64.7435 70.99 64.6759 70.8711 64.5408C70.7602 64.4056 70.6809 64.2227 70.6333 63.992L70.1221 64.3499C69.9398 64.4851 69.7693 64.5845 69.6108 64.6481C69.4523 64.7038 69.2739 64.7316 69.0758 64.7316C68.7349 64.7316 68.4773 64.6561 68.3029 64.505C68.1285 64.3539 68.0413 64.1431 68.0413 63.8728C68.0413 63.6581 68.0929 63.4871 68.1959 63.3598C68.299 63.2247 68.4258 63.1213 68.5764 63.0497C68.7349 62.9702 68.9529 62.8827 69.2303 62.7873L69.5276 62.6799L70.5977 62.2863V61.6064C70.5977 61.0974 70.5541 60.7276 70.4669 60.497C70.3876 60.2664 70.2489 60.1511 70.0507 60.1511C69.6306 60.1511 69.3928 60.4771 69.3373 61.1292C69.3136 61.3678 69.2422 61.5388 69.1233 61.6421C69.0123 61.7455 68.8538 61.7972 68.6477 61.7972C68.4496 61.7972 68.3029 61.7575 68.2078 61.6779C68.1206 61.5905 68.077 61.4791 68.077 61.3439C68.077 61.1054 68.2157 60.8787 68.4932 60.664C68.7706 60.4414 69.1035 60.2624 69.4919 60.1272C69.8882 59.992 70.237 59.9245 70.5382 59.9245C70.887 59.9245 71.1684 60.0358 71.3824 60.2584C71.6043 60.4732 71.7153 60.8032 71.7153 61.2485V63.3598C71.7153 63.5905 71.7549 63.7694 71.8342 63.8966C71.9214 64.0239 72.0403 64.0875 72.1909 64.0875C72.3019 64.0875 72.4168 64.0596 72.5357 64.004H72.5476ZM70.6095 63.7893C70.6016 63.7575 70.5977 63.7058 70.5977 63.6342V62.4891L70.0864 62.7276C70.0626 62.7356 69.9834 62.7674 69.8486 62.8231C69.7138 62.8708 69.595 62.9543 69.4919 63.0736C69.3968 63.1928 69.3492 63.332 69.3492 63.4911C69.3492 63.6819 69.4087 63.833 69.5276 63.9443C69.6544 64.0477 69.7971 64.0994 69.9556 64.0994C70.0824 64.0994 70.2132 64.0557 70.348 63.9682L70.6095 63.7893ZM78.5032 63.8728C78.527 63.8728 78.5468 63.8926 78.5627 63.9324C78.5865 63.9722 78.5865 63.996 78.5627 64.004L76.9219 64.8032C76.906 64.8111 76.8862 64.8151 76.8624 64.8151C76.7832 64.8151 76.7118 64.7316 76.6484 64.5646C76.5929 64.3897 76.5612 64.1551 76.5533 63.8608C76.0301 64.4811 75.4634 64.7912 74.853 64.7912C74.4171 64.7912 74.0723 64.6561 73.8186 64.3857C73.5729 64.1074 73.45 63.7455 73.45 63.3002V61.5467C73.45 61.0298 73.3272 60.7714 73.0815 60.7714C72.9943 60.7714 72.8952 60.7992 72.7842 60.8549H72.7723C72.7406 60.8549 72.7168 60.835 72.701 60.7952C72.6851 60.7475 72.6891 60.7197 72.7129 60.7117L74.3061 59.9483L74.3656 59.9364C74.4052 59.9364 74.4448 59.9563 74.4845 59.996C74.532 60.0278 74.5558 60.0596 74.5558 60.0915V62.7276C74.5558 63.5865 74.8847 64.0159 75.5427 64.0159C75.717 64.0159 75.8914 63.9801 76.0658 63.9085C76.2481 63.829 76.4106 63.7217 76.5533 63.5865V61.5467C76.5533 61.0298 76.4304 60.7714 76.1847 60.7714C76.0975 60.7714 75.9945 60.7992 75.8756 60.8549H75.8637C75.8399 60.8549 75.8201 60.835 75.8042 60.7952C75.7884 60.7475 75.7923 60.7197 75.8161 60.7117L77.4094 59.9483C77.4252 59.9404 77.445 59.9364 77.4688 59.9364C77.5084 59.9364 77.5481 59.9563 77.5877 59.996C77.6353 60.0278 77.659 60.0596 77.659 60.0915V63.2644C77.659 63.5348 77.6828 63.7256 77.7304 63.837C77.7859 63.9483 77.8731 64.004 77.992 64.004C78.1029 64.004 78.2654 63.9602 78.4794 63.8728H78.5032ZM82.4255 63.8131C82.4572 63.8131 82.481 63.829 82.4968 63.8608C82.5206 63.8926 82.5206 63.9165 82.4968 63.9324C82.2035 64.2266 81.9182 64.4453 81.6408 64.5885C81.3633 64.7237 81.07 64.7912 80.7609 64.7912C80.4121 64.7912 80.1149 64.7078 79.8692 64.5408C79.6234 64.3738 79.5006 64.0915 79.5006 63.6938V61.0457C79.5006 60.7992 79.457 60.6282 79.3698 60.5328C79.2826 60.4374 79.1241 60.3897 78.8942 60.3897C78.8863 60.3897 78.8744 60.3777 78.8585 60.3539C78.8506 60.33 78.8466 60.3062 78.8466 60.2823C78.8466 60.2505 78.8506 60.2266 78.8585 60.2107C78.8665 60.1869 78.8783 60.175 78.8942 60.175C79.2985 60.159 79.6234 60.0716 79.8692 59.9125C80.1228 59.7535 80.317 59.5109 80.4518 59.1849C80.4676 59.1531 80.4993 59.1372 80.5469 59.1372C80.6024 59.1372 80.6301 59.1531 80.6301 59.1849V60.1392C81.0899 60.1312 81.6051 60.0954 82.1758 60.0318C82.1917 60.0318 82.2075 60.0636 82.2234 60.1272C82.2471 60.1829 82.259 60.2465 82.259 60.3181C82.259 60.3976 82.2432 60.4771 82.2115 60.5567C82.1877 60.6282 82.1599 60.66 82.1282 60.6521C81.613 60.5408 81.1136 60.4811 80.6301 60.4732V63.3002C80.6301 63.6024 80.7054 63.8251 80.856 63.9682C81.0146 64.1113 81.2206 64.1829 81.4743 64.1829C81.7914 64.1829 82.1005 64.0636 82.4017 63.825L82.4255 63.8131ZM87.8108 60.0437C87.8266 60.0437 87.8346 60.0676 87.8346 60.1153C87.8346 60.163 87.8266 60.1869 87.8108 60.1869C87.5571 60.1869 87.3352 60.2982 87.145 60.5209C86.9627 60.7356 86.7962 61.0497 86.6456 61.4632L85.3258 64.9821C84.9057 66.0954 84.5015 66.8748 84.1131 67.3201C83.7326 67.7734 83.3085 68 82.8408 68C82.603 68 82.4207 67.9483 82.2939 67.8449C82.1671 67.7495 82.1037 67.6064 82.1037 67.4155C82.1037 67.2326 82.1592 67.0934 82.2701 66.998C82.3811 66.9026 82.5159 66.8549 82.6744 66.8549C82.7616 66.8549 82.8329 66.8668 82.8884 66.8907C82.9518 66.9145 83.0271 66.9543 83.1143 67.0099C83.2649 67.1133 83.4076 67.165 83.5423 67.165C83.7247 67.165 83.8871 67.0934 84.0298 66.9503C84.1804 66.8151 84.335 66.5845 84.4935 66.2585C84.6521 65.9404 84.8423 65.4831 85.0642 64.8867L83.1619 61.0338C82.9875 60.6918 82.8488 60.4652 82.7457 60.3539C82.6506 60.2425 82.5317 60.1869 82.389 60.1869C82.3652 60.1869 82.3534 60.163 82.3534 60.1153C82.3534 60.0676 82.3652 60.0437 82.389 60.0437C82.611 60.0437 82.7814 60.0477 82.9003 60.0557L83.3997 60.0676L84.2201 60.0557C84.3469 60.0477 84.5173 60.0437 84.7313 60.0437C84.7551 60.0437 84.767 60.0676 84.767 60.1153C84.767 60.163 84.7551 60.1869 84.7313 60.1869C84.5252 60.1869 84.3746 60.2068 84.2795 60.2465C84.1844 60.2783 84.1368 60.334 84.1368 60.4135C84.1368 60.4771 84.1606 60.5567 84.2082 60.6521L85.6112 63.5268L86.3246 61.4513C86.3959 61.2445 86.4316 61.0577 86.4316 60.8907C86.4316 60.668 86.3682 60.497 86.2413 60.3777C86.1145 60.2505 85.9322 60.1869 85.6944 60.1869C85.6785 60.1869 85.6706 60.163 85.6706 60.1153C85.6706 60.0676 85.6785 60.0437 85.6944 60.0437C85.9084 60.0437 86.0709 60.0477 86.1819 60.0557L86.8953 60.0676L87.3709 60.0557C87.466 60.0477 87.6126 60.0437 87.8108 60.0437ZM92.497 58.3976C92.497 58.6839 92.5683 58.9384 92.711 59.161C92.8616 59.3837 93.0439 59.5785 93.2579 59.7455C93.4719 59.9125 93.7613 60.1153 94.1259 60.3539C94.5222 60.6084 94.8393 60.831 95.0771 61.0219C95.3149 61.2127 95.517 61.4473 95.6835 61.7256C95.8499 61.996 95.9331 62.3101 95.9331 62.668C95.9331 63.0815 95.8222 63.4513 95.6002 63.7773C95.3783 64.0954 95.0691 64.3459 94.6728 64.5288C94.2844 64.7038 93.8485 64.7912 93.3649 64.7912C93.0082 64.7912 92.6357 64.7435 92.2473 64.6481C91.8589 64.5447 91.5973 64.4334 91.4626 64.3141C91.4229 64.2823 91.3912 64.2545 91.3674 64.2306C91.3516 64.1988 91.3437 64.1511 91.3437 64.0875L91.308 62.1909V62.1789C91.308 62.1471 91.3278 62.1312 91.3674 62.1312C91.4071 62.1233 91.4309 62.1352 91.4388 62.167C91.6766 62.6521 91.8827 63.0457 92.0571 63.3479C92.2394 63.6501 92.4653 63.9165 92.7348 64.1471C93.0122 64.3777 93.3253 64.493 93.6741 64.493C93.9911 64.493 94.2527 64.4095 94.4588 64.2425C94.6649 64.0676 94.7679 63.7734 94.7679 63.3598C94.7679 63.0099 94.6887 62.7038 94.5301 62.4414C94.3795 62.1789 94.1933 61.9563 93.9713 61.7734C93.7494 61.5905 93.4442 61.3718 93.0558 61.1173C92.6753 60.8708 92.3781 60.66 92.1641 60.4851C91.958 60.3101 91.7796 60.0994 91.629 59.8529C91.4784 59.6064 91.4031 59.3161 91.4031 58.9821C91.4031 58.5606 91.522 58.2068 91.7598 57.9205C92.0055 57.6262 92.3186 57.4115 92.6991 57.2763C93.0796 57.1332 93.4799 57.0616 93.9 57.0616C94.1774 57.0616 94.4588 57.0895 94.7442 57.1451C95.0295 57.1928 95.2594 57.2525 95.4338 57.3241C95.5051 57.3559 95.5527 57.3917 95.5765 57.4314C95.6002 57.4632 95.6121 57.507 95.6121 57.5626V59.3161C95.6121 59.34 95.5923 59.3598 95.5527 59.3757C95.513 59.3837 95.4893 59.3757 95.4813 59.3519L95.3862 59.1252C95.188 58.6243 94.9542 58.1988 94.6847 57.8489C94.4231 57.499 94.0546 57.3241 93.579 57.3241C93.2619 57.3241 93.0003 57.4155 92.7942 57.5984C92.5961 57.7813 92.497 58.0477 92.497 58.3976ZM99.6505 64.8032C99.2621 64.8032 98.9213 64.7594 98.628 64.672V66.9622C98.628 67.2008 98.6518 67.3757 98.6993 67.4871C98.7548 67.5984 98.8539 67.674 98.9966 67.7137C99.1472 67.7614 99.377 67.7853 99.6862 67.7853C99.71 67.7853 99.7218 67.8091 99.7218 67.8569C99.7218 67.9046 99.71 67.9284 99.6862 67.9284C99.3929 67.9284 99.163 67.9245 98.9966 67.9165L98.0573 67.9046L97.3558 67.9165C97.2369 67.9245 97.0704 67.9284 96.8564 67.9284C96.8326 67.9284 96.8207 67.9046 96.8207 67.8569C96.8207 67.8091 96.8326 67.7853 96.8564 67.7853C97.0466 67.7853 97.1853 67.7614 97.2725 67.7137C97.3677 67.674 97.4311 67.5984 97.4628 67.4871C97.5024 67.3757 97.5222 67.2008 97.5222 66.9622V61.4394C97.5222 61.1849 97.4945 61.002 97.439 60.8907C97.3835 60.7793 97.2844 60.7237 97.1417 60.7237C97.0149 60.7237 96.8326 60.7793 96.5948 60.8907H96.571C96.5473 60.8907 96.5274 60.8708 96.5116 60.831C96.4878 60.7913 96.4838 60.7674 96.4997 60.7594L98.1881 59.9364C98.2039 59.9284 98.2237 59.9245 98.2475 59.9245C98.3268 59.9245 98.3981 59.992 98.4615 60.1272C98.5329 60.2624 98.5804 60.4453 98.6042 60.6759C99.1828 60.1511 99.7773 59.8887 100.388 59.8887C100.721 59.8887 101.03 59.9761 101.315 60.1511C101.608 60.326 101.842 60.5805 102.017 60.9145C102.191 61.2485 102.278 61.6382 102.278 62.0835C102.278 62.7197 102.147 63.2445 101.886 63.658C101.624 64.0636 101.291 64.3579 100.887 64.5408C100.491 64.7157 100.079 64.8032 99.6505 64.8032ZM99.6029 60.5567C99.2463 60.5567 98.9213 60.6839 98.628 60.9384V61.0338V63.9085C98.8024 64.1074 98.9847 64.2584 99.1749 64.3618C99.3652 64.4573 99.599 64.505 99.8764 64.505C100.677 64.505 101.077 63.8211 101.077 62.4533C101.077 61.8489 100.935 61.3837 100.649 61.0577C100.372 60.7237 100.023 60.5567 99.6029 60.5567ZM107.625 64.004C107.656 64.004 107.676 64.0239 107.684 64.0636C107.7 64.0954 107.692 64.1193 107.66 64.1352L106.436 64.7197C106.404 64.7356 106.364 64.7435 106.317 64.7435C106.19 64.7435 106.067 64.6759 105.948 64.5408C105.837 64.4056 105.758 64.2227 105.71 63.992L105.199 64.3499C105.017 64.4851 104.846 64.5845 104.688 64.6481C104.529 64.7038 104.351 64.7316 104.153 64.7316C103.812 64.7316 103.554 64.6561 103.38 64.505C103.206 64.3539 103.118 64.1431 103.118 63.8728C103.118 63.6581 103.17 63.4871 103.273 63.3598C103.376 63.2247 103.503 63.1213 103.654 63.0497C103.812 62.9702 104.03 62.8827 104.307 62.7873L104.605 62.6799L105.675 62.2863V61.6064C105.675 61.0974 105.631 60.7276 105.544 60.497C105.465 60.2664 105.326 60.1511 105.128 60.1511C104.708 60.1511 104.47 60.4771 104.414 61.1292C104.391 61.3678 104.319 61.5388 104.2 61.6421C104.089 61.7455 103.931 61.7972 103.725 61.7972C103.527 61.7972 103.38 61.7575 103.285 61.6779C103.198 61.5905 103.154 61.4791 103.154 61.3439C103.154 61.1054 103.293 60.8787 103.57 60.664C103.848 60.4414 104.181 60.2624 104.569 60.1272C104.965 59.992 105.314 59.9245 105.615 59.9245C105.964 59.9245 106.246 60.0358 106.46 60.2584C106.681 60.4732 106.792 60.8032 106.792 61.2485V63.3598C106.792 63.5905 106.832 63.7694 106.911 63.8966C106.999 64.0239 107.117 64.0875 107.268 64.0875C107.379 64.0875 107.494 64.0596 107.613 64.004H107.625ZM105.687 63.7893C105.679 63.7575 105.675 63.7058 105.675 63.6342V62.4891L105.164 62.7276C105.14 62.7356 105.06 62.7674 104.926 62.8231C104.791 62.8708 104.672 62.9543 104.569 63.0736C104.474 63.1928 104.426 63.332 104.426 63.4911C104.426 63.6819 104.486 63.833 104.605 63.9443C104.732 64.0477 104.874 64.0994 105.033 64.0994C105.16 64.0994 105.29 64.0557 105.425 63.9682L105.687 63.7893ZM115.512 57.0616C115.884 57.0616 116.261 57.0934 116.641 57.1571C117.03 57.2127 117.339 57.2883 117.569 57.3837C117.64 57.4076 117.684 57.4394 117.699 57.4791C117.723 57.5109 117.739 57.5706 117.747 57.6581L117.902 59.3161C117.902 59.34 117.882 59.3559 117.842 59.3638C117.802 59.3718 117.775 59.3598 117.759 59.328C117.537 58.6759 117.22 58.1789 116.808 57.837C116.395 57.4871 115.9 57.3121 115.321 57.3121C114.782 57.3121 114.299 57.4592 113.871 57.7535C113.451 58.0398 113.118 58.4533 112.872 58.994C112.634 59.5348 112.515 60.167 112.515 60.8907C112.515 61.6223 112.638 62.2664 112.884 62.8231C113.138 63.3718 113.482 63.7972 113.918 64.0994C114.362 64.3936 114.87 64.5408 115.44 64.5408C115.987 64.5408 116.447 64.3936 116.82 64.0994C117.192 63.7972 117.545 63.3042 117.878 62.6203C117.886 62.5964 117.909 62.5885 117.949 62.5964C117.989 62.6044 118.009 62.6203 118.009 62.6441L117.83 64.1233C117.814 64.2187 117.798 64.2823 117.783 64.3141C117.767 64.338 117.723 64.3658 117.652 64.3976C116.923 64.66 116.185 64.7912 115.44 64.7912C114.592 64.7912 113.831 64.6322 113.157 64.3141C112.492 63.9881 111.968 63.5348 111.588 62.9543C111.208 62.3738 111.017 61.7137 111.017 60.9742C111.017 60.2187 111.212 59.5467 111.6 58.9583C111.996 58.3618 112.535 57.8966 113.217 57.5626C113.907 57.2286 114.671 57.0616 115.512 57.0616ZM123.51 64.004C123.541 64.004 123.561 64.0239 123.569 64.0636C123.585 64.0954 123.577 64.1193 123.545 64.1352L122.321 64.7197C122.289 64.7356 122.249 64.7435 122.202 64.7435C122.075 64.7435 121.952 64.6759 121.833 64.5408C121.722 64.4056 121.643 64.2227 121.595 63.992L121.084 64.3499C120.902 64.4851 120.731 64.5845 120.573 64.6481C120.414 64.7038 120.236 64.7316 120.038 64.7316C119.697 64.7316 119.439 64.6561 119.265 64.505C119.091 64.3539 119.003 64.1431 119.003 63.8728C119.003 63.6581 119.055 63.4871 119.158 63.3598C119.261 63.2247 119.388 63.1213 119.538 63.0497C119.697 62.9702 119.915 62.8827 120.192 62.7873L120.49 62.6799L121.56 62.2863V61.6064C121.56 61.0974 121.516 60.7276 121.429 60.497C121.35 60.2664 121.211 60.1511 121.013 60.1511C120.593 60.1511 120.355 60.4771 120.299 61.1292C120.276 61.3678 120.204 61.5388 120.085 61.6421C119.974 61.7455 119.816 61.7972 119.61 61.7972C119.412 61.7972 119.265 61.7575 119.17 61.6779C119.083 61.5905 119.039 61.4791 119.039 61.3439C119.039 61.1054 119.178 60.8787 119.455 60.664C119.733 60.4414 120.065 60.2624 120.454 60.1272C120.85 59.992 121.199 59.9245 121.499 59.9245C121.848 59.9245 122.13 60.0358 122.344 60.2584C122.566 60.4732 122.677 60.8032 122.677 61.2485V63.3598C122.677 63.5905 122.717 63.7694 122.796 63.8966C122.883 64.0239 123.002 64.0875 123.153 64.0875C123.264 64.0875 123.379 64.0596 123.498 64.004H123.51ZM121.572 63.7893C121.564 63.7575 121.56 63.7058 121.56 63.6342V62.4891L121.048 62.7276C121.025 62.7356 120.945 62.7674 120.811 62.8231C120.676 62.8708 120.557 62.9543 120.454 63.0736C120.359 63.1928 120.311 63.332 120.311 63.4911C120.311 63.6819 120.371 63.833 120.49 63.9443C120.616 64.0477 120.759 64.0994 120.918 64.0994C121.044 64.0994 121.175 64.0557 121.31 63.9682L121.572 63.7893ZM127.086 59.9245C127.269 59.9245 127.443 59.992 127.61 60.1272C127.784 60.2545 127.871 60.4095 127.871 60.5924C127.871 60.7594 127.82 60.8986 127.717 61.0099C127.614 61.1133 127.479 61.165 127.312 61.165C127.193 61.165 127.094 61.1412 127.015 61.0934C126.944 61.0457 126.868 60.9742 126.789 60.8787C126.718 60.7992 126.654 60.7435 126.599 60.7117C126.551 60.672 126.492 60.6521 126.421 60.6521C126.341 60.6521 126.254 60.6839 126.159 60.7475C126.072 60.8032 125.933 60.9264 125.743 61.1173V63.6819C125.743 64 125.818 64.2187 125.969 64.338C126.119 64.4493 126.397 64.505 126.801 64.505C126.833 64.505 126.849 64.5288 126.849 64.5765C126.849 64.6243 126.833 64.6481 126.801 64.6481C126.524 64.6481 126.306 64.6441 126.147 64.6362L125.184 64.6243L124.483 64.6362C124.364 64.6441 124.201 64.6481 123.995 64.6481C123.971 64.6481 123.959 64.6243 123.959 64.5765C123.959 64.5288 123.971 64.505 123.995 64.505C124.241 64.505 124.407 64.4493 124.494 64.338C124.582 64.2187 124.625 64 124.625 63.6819V61.4394C124.625 61.1928 124.594 61.0139 124.53 60.9026C124.475 60.7833 124.383 60.7237 124.257 60.7237C124.122 60.7237 123.932 60.7793 123.686 60.8907H123.662C123.638 60.8907 123.619 60.8708 123.603 60.831C123.595 60.7913 123.599 60.7674 123.615 60.7594L125.267 59.9483C125.315 59.9324 125.343 59.9245 125.351 59.9245C125.438 59.9245 125.517 60.008 125.588 60.175C125.668 60.334 125.715 60.5527 125.731 60.831C126.056 60.497 126.322 60.2624 126.528 60.1272C126.742 59.992 126.928 59.9245 127.086 59.9245ZM132.511 63.8608C132.527 63.8608 132.543 63.8767 132.559 63.9085C132.583 63.9404 132.586 63.9642 132.571 63.9801C132.277 64.2664 131.98 64.4732 131.679 64.6004C131.378 64.7276 131.049 64.7912 130.692 64.7912C130.193 64.7912 129.761 64.6879 129.396 64.4811C129.031 64.2664 128.754 63.9841 128.564 63.6342C128.374 63.2763 128.278 62.8907 128.278 62.4771C128.278 62.0159 128.393 61.5905 128.623 61.2008C128.853 60.8111 129.17 60.505 129.574 60.2823C129.987 60.0517 130.45 59.9364 130.965 59.9364C131.457 59.9364 131.837 60.0477 132.107 60.2704C132.376 60.493 132.511 60.839 132.511 61.3082C132.511 61.5547 132.468 61.6779 132.38 61.6779L129.491 61.6899C129.483 61.7455 129.479 61.837 129.479 61.9642C129.479 62.664 129.638 63.2127 129.955 63.6103C130.28 64.008 130.744 64.2068 131.346 64.2068C131.56 64.2068 131.742 64.1829 131.893 64.1352C132.044 64.0875 132.242 64 132.487 63.8728L132.511 63.8608ZM130.514 60.175C130.252 60.175 130.034 60.2903 129.86 60.5209C129.685 60.7435 129.57 61.0537 129.515 61.4513L131.239 61.4274C131.231 61.0219 131.172 60.7117 131.061 60.497C130.95 60.2823 130.767 60.175 130.514 60.175ZM144.274 64.505C144.306 64.5129 144.318 64.5408 144.31 64.5885C144.31 64.6282 144.298 64.6481 144.274 64.6481H142.324C142.102 64.6481 141.722 64.4533 141.183 64.0636C140.588 64.5487 139.831 64.7912 138.912 64.7912C138.365 64.7912 137.905 64.7117 137.533 64.5527C137.16 64.3936 136.883 64.1829 136.7 63.9205C136.518 63.658 136.427 63.3797 136.427 63.0855C136.427 62.7038 136.558 62.3618 136.819 62.0596C137.081 61.7575 137.477 61.4076 138.008 61.0099C137.881 60.8429 137.759 60.6521 137.64 60.4374C137.529 60.2147 137.441 60.004 137.378 59.8052C137.323 59.6064 137.295 59.3877 137.295 59.1491C137.295 58.505 137.497 57.9761 137.901 57.5626C138.313 57.1491 138.872 56.9423 139.578 56.9423C140.069 56.9423 140.458 57.0497 140.743 57.2644C141.028 57.4712 141.171 57.7614 141.171 58.1352C141.171 58.4453 141.08 58.7316 140.897 58.994C140.723 59.2485 140.521 59.4632 140.291 59.6382C140.061 59.8131 139.705 60.0636 139.221 60.3897C139.792 61.2406 140.588 62.0755 141.611 62.8946C141.682 62.6163 141.718 62.3022 141.718 61.9523C141.718 61.4911 141.643 61.1571 141.492 60.9503C141.341 60.7356 141.096 60.6282 140.755 60.6282C140.739 60.6282 140.727 60.6044 140.719 60.5567C140.719 60.5089 140.731 60.4851 140.755 60.4851L143.585 60.4732C143.608 60.4732 143.62 60.497 143.62 60.5447C143.62 60.5924 143.608 60.6163 143.585 60.6163C143.347 60.6163 143.168 60.6441 143.05 60.6998C142.939 60.7475 142.851 60.831 142.788 60.9503C142.732 61.0696 142.669 61.2604 142.598 61.5229C142.511 61.841 142.419 62.1312 142.324 62.3936C142.229 62.6561 142.106 62.9105 141.956 63.1571C142.471 63.5467 142.927 63.8529 143.323 64.0755C143.727 64.2982 144.044 64.4414 144.274 64.505ZM138.413 58.1233C138.413 58.7435 138.63 59.4155 139.066 60.1392C139.629 59.5905 139.911 59.006 139.911 58.3857C139.911 58.0358 139.827 57.7614 139.661 57.5626C139.502 57.3638 139.292 57.2644 139.031 57.2644C138.809 57.2644 138.65 57.336 138.555 57.4791C138.46 57.6223 138.413 57.837 138.413 58.1233ZM139.827 64.2068C140.287 64.2068 140.668 64.1034 140.969 63.8966C140.842 63.8091 140.672 63.6779 140.458 63.503C140.053 63.1769 139.645 62.8151 139.233 62.4175C138.829 62.0119 138.472 61.6143 138.163 61.2247C137.806 61.5984 137.628 61.992 137.628 62.4056C137.628 62.7157 137.715 63.0099 137.889 63.2883C138.072 63.5587 138.329 63.7813 138.662 63.9563C138.995 64.1233 139.384 64.2068 139.827 64.2068ZM155.548 57.1928C155.564 57.1928 155.572 57.2167 155.572 57.2644C155.572 57.3121 155.564 57.336 155.548 57.336C155.231 57.336 154.981 57.4632 154.799 57.7177C154.616 57.9642 154.525 58.2982 154.525 58.7197V64.827C154.525 64.8509 154.505 64.8668 154.466 64.8747C154.434 64.8827 154.41 64.8787 154.394 64.8628L148.818 58.493V63.1332C148.818 63.5547 148.905 63.8887 149.08 64.1352C149.254 64.3817 149.496 64.505 149.805 64.505C149.821 64.505 149.829 64.5288 149.829 64.5765C149.829 64.6243 149.821 64.6481 149.805 64.6481C149.583 64.6481 149.413 64.6441 149.294 64.6362L148.652 64.6243L147.914 64.6362C147.78 64.6441 147.586 64.6481 147.332 64.6481C147.308 64.6481 147.296 64.6243 147.296 64.5765C147.296 64.5288 147.308 64.505 147.332 64.505C147.681 64.505 147.954 64.3817 148.152 64.1352C148.358 63.8887 148.461 63.5547 148.461 63.1332V58.0875C148.2 57.8012 147.974 57.6064 147.784 57.503C147.601 57.3917 147.411 57.336 147.213 57.336C147.197 57.336 147.189 57.3121 147.189 57.2644C147.189 57.2167 147.197 57.1928 147.213 57.1928L147.712 57.2048C147.815 57.2127 147.966 57.2167 148.164 57.2167L149.068 57.2048C149.179 57.1968 149.314 57.1928 149.472 57.1928C149.535 57.1928 149.583 57.2087 149.615 57.2406C149.646 57.2724 149.702 57.34 149.781 57.4433C149.916 57.6262 150.011 57.7495 150.067 57.8131L154.18 62.5726V58.7197C154.18 58.2903 154.093 57.9523 153.919 57.7058C153.744 57.4592 153.503 57.336 153.194 57.336C153.178 57.336 153.17 57.3121 153.17 57.2644C153.17 57.2167 153.178 57.1928 153.194 57.1928L153.705 57.2048C153.958 57.2207 154.173 57.2286 154.347 57.2286C154.505 57.2286 154.727 57.2207 155.013 57.2048L155.548 57.1928ZM160.676 64.004C160.708 64.004 160.728 64.0239 160.736 64.0636C160.752 64.0954 160.744 64.1193 160.712 64.1352L159.487 64.7197C159.456 64.7356 159.416 64.7435 159.368 64.7435C159.242 64.7435 159.119 64.6759 159 64.5408C158.889 64.4056 158.81 64.2227 158.762 63.992L158.251 64.3499C158.068 64.4851 157.898 64.5845 157.739 64.6481C157.581 64.7038 157.403 64.7316 157.204 64.7316C156.864 64.7316 156.606 64.6561 156.432 64.505C156.257 64.3539 156.17 64.1431 156.17 63.8728C156.17 63.6581 156.222 63.4871 156.325 63.3598C156.428 63.2247 156.554 63.1213 156.705 63.0497C156.864 62.9702 157.082 62.8827 157.359 62.7873L157.656 62.6799L158.726 62.2863V61.6064C158.726 61.0974 158.683 60.7276 158.596 60.497C158.516 60.2664 158.378 60.1511 158.179 60.1511C157.759 60.1511 157.521 60.4771 157.466 61.1292C157.442 61.3678 157.371 61.5388 157.252 61.6421C157.141 61.7455 156.982 61.7972 156.776 61.7972C156.578 61.7972 156.432 61.7575 156.336 61.6779C156.249 61.5905 156.206 61.4791 156.206 61.3439C156.206 61.1054 156.344 60.8787 156.622 60.664C156.899 60.4414 157.232 60.2624 157.621 60.1272C158.017 59.992 158.366 59.9245 158.667 59.9245C159.016 59.9245 159.297 60.0358 159.511 60.2584C159.733 60.4732 159.844 60.8032 159.844 61.2485V63.3598C159.844 63.5905 159.884 63.7694 159.963 63.8966C160.05 64.0239 160.169 64.0875 160.32 64.0875C160.431 64.0875 160.545 64.0596 160.664 64.004H160.676ZM158.738 63.7893C158.73 63.7575 158.726 63.7058 158.726 63.6342V62.4891L158.215 62.7276C158.191 62.7356 158.112 62.7674 157.977 62.8231C157.843 62.8708 157.724 62.9543 157.621 63.0736C157.525 63.1928 157.478 63.332 157.478 63.4911C157.478 63.6819 157.537 63.833 157.656 63.9443C157.783 64.0477 157.926 64.0994 158.084 64.0994C158.211 64.0994 158.342 64.0557 158.477 63.9682L158.738 63.7893ZM162.304 58.7435C162.074 58.7435 161.896 58.6799 161.769 58.5527C161.642 58.4254 161.579 58.2465 161.579 58.0159C161.579 57.8091 161.642 57.6461 161.769 57.5268C161.904 57.3996 162.082 57.336 162.304 57.336C162.526 57.336 162.697 57.3956 162.815 57.5149C162.934 57.6342 162.994 57.8012 162.994 58.0159C162.994 58.2465 162.934 58.4254 162.815 58.5527C162.697 58.6799 162.526 58.7435 162.304 58.7435ZM161.163 64.6481C161.139 64.6481 161.127 64.6243 161.127 64.5765C161.127 64.5288 161.139 64.505 161.163 64.505C161.408 64.505 161.575 64.4493 161.662 64.338C161.749 64.2187 161.793 64 161.793 63.6819V61.5467C161.793 61.2763 161.765 61.0815 161.71 60.9622C161.654 60.8429 161.563 60.7833 161.436 60.7833C161.333 60.7833 161.187 60.827 160.996 60.9145H160.984C160.953 60.9145 160.929 60.8946 160.913 60.8549C160.897 60.8072 160.901 60.7793 160.925 60.7714L162.72 59.9364L162.756 59.9245C162.796 59.9245 162.835 59.9443 162.875 59.9841C162.915 60.0239 162.934 60.0596 162.934 60.0915V60.3539C162.918 60.672 162.911 61.0616 162.911 61.5229V63.6819C162.911 64 162.954 64.2187 163.041 64.338C163.136 64.4493 163.307 64.505 163.553 64.505C163.576 64.505 163.588 64.5288 163.588 64.5765C163.588 64.6243 163.576 64.6481 163.553 64.6481C163.347 64.6481 163.184 64.6441 163.065 64.6362L162.352 64.6243L161.65 64.6362C161.531 64.6441 161.369 64.6481 161.163 64.6481ZM164.238 64.6481C164.222 64.6481 164.214 64.6243 164.214 64.5765C164.214 64.5288 164.222 64.505 164.238 64.505C164.484 64.505 164.65 64.4493 164.738 64.338C164.833 64.2187 164.88 64 164.88 63.6819L164.892 57.6223C164.892 57.3439 164.864 57.1451 164.809 57.0258C164.761 56.9066 164.674 56.8469 164.547 56.8469C164.444 56.8469 164.294 56.8907 164.096 56.9781H164.084C164.06 56.9781 164.036 56.9583 164.012 56.9185C163.996 56.8708 163.996 56.8429 164.012 56.835L165.76 56.0119L165.808 56C165.847 56 165.891 56.0199 165.938 56.0596C165.986 56.0915 166.01 56.1233 166.01 56.1551V63.6819C166.01 64 166.053 64.2187 166.141 64.338C166.228 64.4493 166.394 64.505 166.64 64.505C166.672 64.505 166.688 64.5288 166.688 64.5765C166.688 64.6243 166.672 64.6481 166.64 64.6481C166.442 64.6481 166.283 64.6441 166.164 64.6362L165.439 64.6243L164.726 64.6362C164.607 64.6441 164.444 64.6481 164.238 64.6481ZM171.86 58.3976C171.86 58.6839 171.931 58.9384 172.074 59.161C172.224 59.3837 172.407 59.5785 172.621 59.7455C172.835 59.9125 173.124 60.1153 173.489 60.3539C173.885 60.6084 174.202 60.831 174.44 61.0219C174.678 61.2127 174.88 61.4473 175.046 61.7256C175.213 61.996 175.296 62.3101 175.296 62.668C175.296 63.0815 175.185 63.4513 174.963 63.7773C174.741 64.0954 174.432 64.3459 174.035 64.5288C173.647 64.7038 173.211 64.7912 172.728 64.7912C172.371 64.7912 171.998 64.7435 171.61 64.6481C171.222 64.5447 170.96 64.4334 170.825 64.3141C170.786 64.2823 170.754 64.2545 170.73 64.2306C170.714 64.1988 170.706 64.1511 170.706 64.0875L170.671 62.1909V62.1789C170.671 62.1471 170.69 62.1312 170.73 62.1312C170.77 62.1233 170.794 62.1352 170.801 62.167C171.039 62.6521 171.245 63.0457 171.42 63.3479C171.602 63.6501 171.828 63.9165 172.097 64.1471C172.375 64.3777 172.688 64.493 173.037 64.493C173.354 64.493 173.615 64.4095 173.821 64.2425C174.028 64.0676 174.131 63.7734 174.131 63.3598C174.131 63.0099 174.051 62.7038 173.893 62.4414C173.742 62.1789 173.556 61.9563 173.334 61.7734C173.112 61.5905 172.807 61.3718 172.418 61.1173C172.038 60.8708 171.741 60.66 171.527 60.4851C171.321 60.3101 171.142 60.0994 170.992 59.8529C170.841 59.6064 170.766 59.3161 170.766 58.9821C170.766 58.5606 170.885 58.2068 171.122 57.9205C171.368 57.6262 171.681 57.4115 172.062 57.2763C172.442 57.1332 172.843 57.0616 173.263 57.0616C173.54 57.0616 173.821 57.0895 174.107 57.1451C174.392 57.1928 174.622 57.2525 174.796 57.3241C174.868 57.3559 174.915 57.3917 174.939 57.4314C174.963 57.4632 174.975 57.507 174.975 57.5626V59.3161C174.975 59.34 174.955 59.3598 174.915 59.3757C174.876 59.3837 174.852 59.3757 174.844 59.3519L174.749 59.1252C174.551 58.6243 174.317 58.1988 174.047 57.8489C173.786 57.499 173.417 57.3241 172.942 57.3241C172.625 57.3241 172.363 57.4155 172.157 57.5984C171.959 57.7813 171.86 58.0477 171.86 58.3976ZM180.892 64.004C180.924 64.004 180.943 64.0239 180.951 64.0636C180.967 64.0954 180.959 64.1193 180.928 64.1352L179.703 64.7197C179.671 64.7356 179.632 64.7435 179.584 64.7435C179.457 64.7435 179.334 64.6759 179.215 64.5408C179.105 64.4056 179.025 64.2227 178.978 63.992L178.466 64.3499C178.284 64.4851 178.114 64.5845 177.955 64.6481C177.797 64.7038 177.618 64.7316 177.42 64.7316C177.079 64.7316 176.822 64.6561 176.647 64.505C176.473 64.3539 176.386 64.1431 176.386 63.8728C176.386 63.6581 176.437 63.4871 176.54 63.3598C176.643 63.2247 176.77 63.1213 176.921 63.0497C177.079 62.9702 177.297 62.8827 177.575 62.7873L177.872 62.6799L178.942 62.2863V61.6064C178.942 61.0974 178.898 60.7276 178.811 60.497C178.732 60.2664 178.593 60.1511 178.395 60.1511C177.975 60.1511 177.737 60.4771 177.682 61.1292C177.658 61.3678 177.587 61.5388 177.468 61.6421C177.357 61.7455 177.198 61.7972 176.992 61.7972C176.794 61.7972 176.647 61.7575 176.552 61.6779C176.465 61.5905 176.421 61.4791 176.421 61.3439C176.421 61.1054 176.56 60.8787 176.838 60.664C177.115 60.4414 177.448 60.2624 177.836 60.1272C178.233 59.992 178.581 59.9245 178.883 59.9245C179.231 59.9245 179.513 60.0358 179.727 60.2584C179.949 60.4732 180.06 60.8032 180.06 61.2485V63.3598C180.06 63.5905 180.099 63.7694 180.179 63.8966C180.266 64.0239 180.385 64.0875 180.535 64.0875C180.646 64.0875 180.761 64.0596 180.88 64.004H180.892ZM178.954 63.7893C178.946 63.7575 178.942 63.7058 178.942 63.6342V62.4891L178.431 62.7276C178.407 62.7356 178.328 62.7674 178.193 62.8231C178.058 62.8708 177.939 62.9543 177.836 63.0736C177.741 63.1928 177.694 63.332 177.694 63.4911C177.694 63.6819 177.753 63.833 177.872 63.9443C177.999 64.0477 178.141 64.0994 178.3 64.0994C178.427 64.0994 178.558 64.0557 178.692 63.9682L178.954 63.7893ZM181.33 64.6481C181.314 64.6481 181.306 64.6243 181.306 64.5765C181.306 64.5288 181.314 64.505 181.33 64.505C181.576 64.505 181.742 64.4493 181.829 64.338C181.924 64.2187 181.972 64 181.972 63.6819L181.984 57.6223C181.984 57.3439 181.956 57.1451 181.901 57.0258C181.853 56.9066 181.766 56.8469 181.639 56.8469C181.536 56.8469 181.385 56.8907 181.187 56.9781H181.175C181.152 56.9781 181.128 56.9583 181.104 56.9185C181.088 56.8708 181.088 56.8429 181.104 56.835L182.852 56.0119L182.899 56C182.939 56 182.983 56.0199 183.03 56.0596C183.078 56.0915 183.101 56.1233 183.101 56.1551V63.6819C183.101 64 183.145 64.2187 183.232 64.338C183.319 64.4493 183.486 64.505 183.732 64.505C183.763 64.505 183.779 64.5288 183.779 64.5765C183.779 64.6243 183.763 64.6481 183.732 64.6481C183.534 64.6481 183.375 64.6441 183.256 64.6362L182.531 64.6243L181.817 64.6362C181.698 64.6441 181.536 64.6481 181.33 64.6481ZM186.913 64.8032C186.422 64.8032 185.99 64.6918 185.617 64.4692C185.253 64.2386 184.971 63.9324 184.773 63.5507C184.575 63.161 184.476 62.7396 184.476 62.2863C184.476 61.7694 184.607 61.332 184.868 60.9742C185.13 60.6084 185.463 60.338 185.867 60.163C186.271 59.9801 186.687 59.8887 187.115 59.8887C187.607 59.8887 188.035 60.004 188.399 60.2346C188.764 60.4652 189.041 60.7714 189.232 61.1531C189.43 61.5268 189.529 61.9284 189.529 62.3579C189.529 62.835 189.41 63.2604 189.172 63.6342C188.934 64 188.613 64.2863 188.209 64.493C187.813 64.6998 187.381 64.8032 186.913 64.8032ZM187.27 64.5527C187.579 64.5527 187.813 64.4016 187.971 64.0994C188.138 63.7893 188.221 63.3479 188.221 62.7753C188.221 62.2187 188.15 61.7415 188.007 61.3439C187.864 60.9463 187.678 60.6481 187.448 60.4493C187.218 60.2425 186.973 60.1392 186.711 60.1392C186.077 60.1392 185.76 60.7078 185.76 61.8449C185.76 62.3777 185.827 62.8509 185.962 63.2644C186.097 63.67 186.279 63.9881 186.509 64.2187C186.739 64.4414 186.992 64.5527 187.27 64.5527ZM195.964 64.505C195.988 64.505 196 64.5288 196 64.5765C196 64.6243 195.988 64.6481 195.964 64.6481C195.758 64.6481 195.596 64.6441 195.477 64.6362L194.763 64.6243L194.074 64.6362C193.947 64.6441 193.781 64.6481 193.574 64.6481C193.551 64.6481 193.539 64.6243 193.539 64.5765C193.539 64.5288 193.551 64.505 193.574 64.505C193.82 64.505 193.987 64.4493 194.074 64.338C194.161 64.2187 194.205 64 194.205 63.6819V61.9642C194.205 61.5348 194.125 61.2167 193.967 61.0099C193.816 60.8032 193.574 60.6998 193.242 60.6998C193.051 60.6998 192.853 60.7396 192.647 60.8191C192.449 60.8986 192.275 61.006 192.124 61.1412V63.6819C192.124 64 192.168 64.2187 192.255 64.338C192.35 64.4493 192.52 64.505 192.766 64.505C192.79 64.505 192.802 64.5288 192.802 64.5765C192.802 64.6243 192.79 64.6481 192.766 64.6481C192.56 64.6481 192.397 64.6441 192.278 64.6362L191.565 64.6243L190.864 64.6362C190.745 64.6441 190.582 64.6481 190.376 64.6481C190.352 64.6481 190.34 64.6243 190.34 64.5765C190.34 64.5288 190.352 64.505 190.376 64.505C190.622 64.505 190.788 64.4493 190.875 64.338C190.963 64.2187 191.006 64 191.006 63.6819V61.4394C191.006 61.1928 190.975 61.0139 190.911 60.9026C190.856 60.7833 190.765 60.7237 190.638 60.7237C190.503 60.7237 190.313 60.7793 190.067 60.8907H190.043C190.019 60.8907 190 60.8708 189.984 60.831C189.976 60.7913 189.98 60.7674 189.996 60.7594L191.648 59.9483C191.696 59.9324 191.724 59.9245 191.732 59.9245C191.819 59.9245 191.902 60.0119 191.981 60.1869C192.061 60.3539 192.108 60.5845 192.124 60.8787C192.671 60.2266 193.273 59.9006 193.931 59.9006C194.359 59.9006 194.696 60.0398 194.942 60.3181C195.195 60.5885 195.322 60.9463 195.322 61.3916V63.6819C195.322 64 195.366 64.2187 195.453 64.338C195.548 64.4493 195.719 64.505 195.964 64.505Z" fill="white"/>
<path d="M114.941 46.7762C115.013 46.7762 115.049 46.8826 115.049 47.0955C115.049 47.3083 115.013 47.4147 114.941 47.4147H105.393C104.606 47.4147 103.14 46.0136 100.994 43.2113C98.8482 40.3735 96.2554 36.4184 93.2156 31.3459C92.9295 31.3813 92.5182 31.3991 91.9818 31.3991C90.5871 31.3991 89.6036 31.3813 89.0314 31.3459V43.1048C89.0314 44.2045 89.1208 45.0026 89.2996 45.4992C89.4784 45.9958 89.8182 46.3328 90.3188 46.5102C90.8553 46.6875 91.6957 46.7762 92.8401 46.7762C92.9116 46.7762 92.9474 46.8826 92.9474 47.0955C92.9474 47.3083 92.9116 47.4147 92.8401 47.4147C91.6599 47.4147 90.7301 47.397 90.0506 47.3615L85.9737 47.3083L82.0577 47.3615C81.3424 47.397 80.3769 47.4147 79.1609 47.4147C79.0536 47.4147 79 47.3083 79 47.0955C79 46.8826 79.0536 46.7762 79.1609 46.7762C80.3053 46.7762 81.1279 46.6875 81.6285 46.5102C82.165 46.3328 82.5226 45.9958 82.7014 45.4992C82.916 44.9671 83.0233 44.169 83.0233 43.1048V18.4695C83.0233 17.4053 82.9339 16.6249 82.7551 16.1283C82.5762 15.6317 82.2186 15.2947 81.6822 15.1174C81.1457 14.9045 80.3232 14.7981 79.2146 14.7981C79.143 14.7981 79.1073 14.6917 79.1073 14.4789C79.1073 14.266 79.143 14.1596 79.2146 14.1596L82.0577 14.2128C83.7028 14.2838 85.0081 14.3192 85.9737 14.3192C87.1896 14.3192 88.4592 14.266 89.7824 14.1596C90.2473 14.1242 90.8195 14.0887 91.499 14.0532C92.2142 14.0177 93.001 14 93.8593 14C97.1137 14 99.635 14.603 101.423 15.8091C103.211 16.9797 104.105 18.6291 104.105 20.7574C104.105 22.7084 103.569 24.482 102.496 26.0782C101.423 27.639 99.9926 28.8983 98.2045 29.856C101.065 34.1127 103.462 37.4471 105.393 39.8592C107.324 42.2713 109.041 44.0271 110.543 45.1268C112.045 46.2264 113.511 46.7762 114.941 46.7762ZM89.0314 29.856C89.8897 29.9979 90.9268 30.0689 92.1427 30.0689C94.2169 30.0689 95.7011 29.5013 96.5951 28.3662C97.525 27.1956 97.9899 25.3333 97.9899 22.7793C97.9899 19.8706 97.5607 17.8665 96.7024 16.7668C95.8441 15.6672 94.6103 15.1174 93.001 15.1174C91.5705 15.1174 90.5513 15.3834 89.9433 15.9155C89.3354 16.4476 89.0314 17.3344 89.0314 18.5759V29.856ZM136.895 44.5415C137.038 44.5415 137.127 44.6301 137.163 44.8075C137.234 44.9494 137.198 45.0558 137.055 45.1268L131.53 47.734C131.387 47.8049 131.208 47.8404 130.994 47.8404C130.422 47.8404 129.867 47.5389 129.331 46.9358C128.83 46.3328 128.472 45.517 128.258 44.4883L125.951 46.0845C125.129 46.6875 124.36 47.1309 123.645 47.4147C122.929 47.663 122.125 47.7872 121.231 47.7872C119.693 47.7872 118.53 47.4502 117.744 46.7762C116.957 46.1022 116.564 45.1622 116.564 43.9562C116.564 42.9984 116.796 42.2358 117.261 41.6682C117.726 41.0652 118.298 40.6041 118.978 40.2848C119.693 39.9301 120.676 39.5399 121.928 39.1142L123.269 38.6354L128.097 36.8795V33.8466C128.097 31.5764 127.9 29.927 127.507 28.8983C127.149 27.8696 126.523 27.3552 125.629 27.3552C123.734 27.3552 122.661 28.8096 122.411 31.7183C122.303 32.7825 121.982 33.5451 121.445 34.0063C120.944 34.4674 120.229 34.698 119.299 34.698C118.405 34.698 117.744 34.5206 117.315 34.1659C116.921 33.7757 116.724 33.2791 116.724 32.6761C116.724 31.6119 117.35 30.6009 118.602 29.6432C119.854 28.65 121.356 27.8519 123.108 27.2488C124.896 26.6458 126.47 26.3443 127.829 26.3443C129.402 26.3443 130.672 26.8409 131.637 27.8341C132.639 28.7919 133.139 30.264 133.139 32.2504V41.6682C133.139 42.6969 133.318 43.495 133.676 44.0626C134.069 44.6301 134.606 44.9139 135.285 44.9139C135.786 44.9139 136.304 44.7898 136.841 44.5415H136.895ZM128.151 43.5837C128.115 43.4418 128.097 43.2113 128.097 42.892V37.784L125.79 38.8482C125.683 38.8837 125.325 39.0256 124.717 39.2739C124.109 39.4867 123.573 39.8592 123.108 40.3912C122.679 40.9233 122.464 41.5441 122.464 42.2535C122.464 43.1049 122.733 43.7788 123.269 44.2754C123.841 44.7366 124.485 44.9671 125.2 44.9671C125.772 44.9671 126.362 44.772 126.97 44.3818L128.151 43.5837ZM143.327 29.4304C143.327 30.459 143.684 31.3459 144.4 32.0908C145.151 32.8357 146.224 33.6161 147.618 34.4319C148.977 35.2123 149.979 35.8331 150.622 36.2942C151.302 36.7199 151.91 37.3406 152.446 38.1565C152.983 38.9369 153.251 39.8946 153.251 41.0297C153.251 42.2358 152.947 43.3709 152.339 44.4351C151.731 45.4992 150.819 46.3683 149.603 47.0423C148.387 47.6808 146.939 48 145.258 48C143.291 48 141.431 47.5211 139.679 46.5634C139.464 46.3505 139.357 46.1377 139.357 45.9249L139.25 40.6573C139.25 40.5509 139.339 40.4977 139.518 40.4977C139.733 40.4622 139.858 40.4799 139.894 40.5509C140.466 42.3245 141.414 43.832 142.737 45.0736C144.06 46.3151 145.401 46.9358 146.76 46.9358C147.511 46.9358 148.101 46.7053 148.53 46.2441C148.995 45.783 149.228 45.109 149.228 44.2222C149.228 42.9098 148.852 41.8811 148.101 41.1361C147.35 40.3558 146.241 39.5576 144.775 38.7418C143.524 38.0678 142.576 37.518 141.932 37.0923C141.288 36.6667 140.716 36.0636 140.215 35.2833C139.715 34.5029 139.464 33.5451 139.464 32.41C139.464 30.3172 140.215 28.7919 141.717 27.8341C143.22 26.8409 145.061 26.3443 147.243 26.3443C148.065 26.3443 148.798 26.3975 149.442 26.5039C150.122 26.6103 150.873 26.8232 151.695 27.1424C152.017 27.2488 152.178 27.4439 152.178 27.7277C152.178 28.6145 152.16 29.3062 152.124 29.8028L152.071 32.4632C152.071 32.5696 151.963 32.6228 151.749 32.6228C151.534 32.6228 151.427 32.5696 151.427 32.4632C151.427 31.7893 151.141 31.0621 150.569 30.2817C149.997 29.4658 149.246 28.7741 148.316 28.2066C147.422 27.639 146.492 27.3552 145.526 27.3552C144.06 27.3552 143.327 28.0469 143.327 29.4304ZM195.785 46.7762C195.928 46.7762 196 46.8826 196 47.0955C196 47.3083 195.928 47.4147 195.785 47.4147C194.856 47.4147 194.122 47.397 193.586 47.3615L190.367 47.3083L187.256 47.3615C186.684 47.397 185.933 47.4147 185.003 47.4147C184.896 47.4147 184.842 47.3083 184.842 47.0955C184.842 46.8826 184.896 46.7762 185.003 46.7762C186.112 46.7762 186.863 46.5279 187.256 46.0313C187.685 45.4992 187.9 44.5237 187.9 43.1048V35.4429C187.9 33.5274 187.56 32.1085 186.881 31.1862C186.237 30.264 185.235 29.8028 183.877 29.8028C182.947 29.8028 182.035 29.9979 181.141 30.3881C180.247 30.7783 179.478 31.3104 178.834 31.9844V32.3036V43.1048C178.834 44.5237 179.031 45.4992 179.424 46.0313C179.853 46.5279 180.622 46.7762 181.731 46.7762C181.874 46.7762 181.945 46.8826 181.945 47.0955C181.945 47.3083 181.874 47.4147 181.731 47.4147C180.801 47.4147 180.068 47.397 179.531 47.3615L176.313 47.3083L173.201 47.3615C172.629 47.397 171.878 47.4147 170.948 47.4147C170.841 47.4147 170.787 47.3083 170.787 47.0955C170.787 46.8826 170.841 46.7762 170.948 46.7762C172.057 46.7762 172.808 46.5279 173.201 46.0313C173.631 45.4992 173.845 44.5237 173.845 43.1048V35.4429C173.845 33.5274 173.505 32.1085 172.826 31.1862C172.182 30.264 171.181 29.8028 169.822 29.8028C168.964 29.8028 168.105 29.9802 167.247 30.3349C166.424 30.6541 165.691 31.1153 165.048 31.7183V43.1048C165.048 44.5237 165.244 45.4992 165.638 46.0313C166.067 46.5279 166.836 46.7762 167.944 46.7762C168.052 46.7762 168.105 46.8826 168.105 47.0955C168.105 47.3083 168.052 47.4147 167.944 47.4147C167.015 47.4147 166.281 47.397 165.745 47.3615L162.526 47.3083L159.361 47.3615C158.825 47.397 158.092 47.4147 157.162 47.4147C157.055 47.4147 157.001 47.3083 157.001 47.0955C157.001 46.8826 157.055 46.7762 157.162 46.7762C158.271 46.7762 159.022 46.5279 159.415 46.0313C159.808 45.4992 160.005 44.5237 160.005 43.1048V33.1017C160.005 32.0021 159.862 31.204 159.576 30.7074C159.326 30.1753 158.914 29.9092 158.342 29.9092C157.734 29.9092 156.876 30.1575 155.767 30.6541H155.66C155.553 30.6541 155.463 30.5655 155.392 30.3881C155.356 30.2107 155.374 30.1043 155.445 30.0689L162.902 26.4507C163.116 26.3798 163.242 26.3443 163.277 26.3443C163.671 26.3443 164.046 26.7345 164.404 27.5149C164.761 28.2598 164.976 29.2707 165.048 30.5477C167.479 27.6745 170.09 26.2379 172.88 26.2379C174.56 26.2379 175.901 26.6458 176.903 27.4617C177.904 28.2775 178.512 29.4481 178.727 30.9734C181.194 27.8164 183.93 26.2379 186.934 26.2379C188.865 26.2379 190.332 26.7877 191.333 27.8873C192.37 28.987 192.889 30.6541 192.889 32.8889V43.1048C192.889 44.5237 193.085 45.4992 193.479 46.0313C193.908 46.5279 194.677 46.7762 195.785 46.7762Z" fill="white"/>
<path d="M69.8083 20.5062C69.6477 19.581 69.2475 18.5504 68.6748 17.6567V17.6554C67.9026 16.4523 66.8187 15.4984 65.5875 15.3875C63.6966 15.2178 61.9823 16.5645 60.8181 18.0974C60.5264 18.482 60.2533 18.883 59.9884 19.2895C59.1975 20.5035 58.4708 21.7667 57.4591 22.7891C55.603 24.6641 53.4284 25.8247 50.8738 26.3667C48.3191 26.9087 45.3563 26.3106 42.9461 27.3302C40.536 28.3499 38.5608 30.6971 37.2948 33.0306C35.1657 36.9558 34.3681 41.5106 34.2959 45.867V45.8697C34.2905 46.1749 34.2892 46.4774 34.2919 46.7799C34.32 51.4072 35.6127 56.0524 38.17 59.8709C41.2587 64.4845 46.6396 69.1201 52.1063 69.1639C53.8326 69.1776 55.3755 68.9791 56.7646 68.6151C56.8931 68.5822 56.9332 68.4563 56.9011 68.355C56.8784 68.2811 56.8155 68.2195 56.7178 68.2168C41.6574 67.8856 45.3522 55.0286 48.3191 52.1901C49.3749 51.18 50.8082 51.2854 52.3391 51.7863C53.0042 52.0039 53.6867 52.2955 54.3652 52.602L54.3665 52.6034C55.1601 52.962 55.9483 53.3411 56.6923 53.6463C58.3531 54.3279 59.801 54.6427 60.6334 53.5478C62.9365 50.5149 62.9017 51.7631 63.9134 49.409C64.4835 48.0814 62.8642 47.2411 61.5233 46.5527C61.4056 46.4925 61.4698 46.3104 61.5983 46.3378C67.0194 47.5107 66.0238 43.5745 66.0238 43.5745C67.908 43.6813 69.8966 42.1293 68.8501 39.0786C67.8036 36.0279 67.8036 33.4056 67.8036 33.4056C68.0217 30.1701 68.8983 29.3585 69.5312 26.1806C69.9595 24.0209 70.1856 22.6755 69.8083 20.5062ZM64.371 33.5219C64.2908 33.5479 64.2091 33.5726 64.1289 33.5958C63.9883 33.6355 63.8893 33.7655 63.8893 33.9147V35.089C63.8893 35.4024 63.6297 35.6556 63.3179 35.6351C63.0342 35.6159 62.8187 35.3614 62.8187 35.0698V33.9339C62.8187 33.8613 62.7612 33.8025 62.6903 33.8025C62.3918 33.8025 62.0961 33.7751 61.803 33.7217C61.7428 33.7108 61.6839 33.7436 61.6611 33.8025L61.1874 35.0712C61.1058 35.2888 60.9024 35.423 60.687 35.423C60.616 35.423 60.5437 35.4079 60.4742 35.3778C60.2092 35.2601 60.0914 34.9385 60.1958 34.662L60.5424 33.7341C60.616 33.537 60.5331 33.3153 60.3484 33.2208C60.2373 33.1647 60.1276 33.1045 60.0178 33.0388C59.8492 32.9389 59.6338 32.9799 59.5093 33.1332L58.693 34.1419C58.5873 34.2719 58.4347 34.3404 58.2808 34.3404C58.1604 34.3404 58.0399 34.2993 57.9396 34.2144C57.7121 34.0228 57.68 33.6766 57.8686 33.4439L58.7117 32.4024C58.8054 32.286 58.7947 32.1163 58.689 32.0123C58.5605 31.8878 58.4387 31.7632 58.325 31.6387C58.234 31.5388 58.0881 31.5196 57.9744 31.5922L57.0456 32.1834C56.9586 32.2381 56.861 32.2655 56.7646 32.2655C56.5813 32.2655 56.4006 32.1697 56.3016 31.9932C56.1544 31.7345 56.2507 31.4019 56.4983 31.2431L57.2557 30.7614C57.3882 30.6765 57.4284 30.4972 57.3427 30.3618C57.2116 30.1578 57.1407 30.0251 57.1313 30.01C56.9894 29.7445 57.0858 29.4119 57.344 29.2668C57.6023 29.1218 57.9275 29.2189 58.0707 29.4831C58.0801 29.5009 58.6769 30.5917 59.7314 31.4977C60.3042 31.989 60.8944 32.3298 61.5006 32.5228C61.5206 32.5283 61.542 32.5338 61.5621 32.542L61.5635 32.5433C62.3731 32.7856 63.2082 32.7637 64.0633 32.4749C64.3537 32.3777 64.6681 32.5461 64.7484 32.8527C64.8194 33.1387 64.6454 33.4302 64.371 33.5219ZM65.3667 30.2947C65.3587 30.2947 65.3506 30.2947 65.3426 30.2947C65.0589 30.2947 64.822 30.0648 64.8086 29.7719C64.7712 28.8946 64.4594 28.2404 63.8585 27.7682C61.9208 26.2476 57.7549 27.1674 57.7134 27.1769C57.4257 27.2413 57.1393 27.0565 57.0751 26.7609C57.0122 26.4652 57.1928 26.1737 57.4819 26.108C57.6719 26.0656 62.175 25.0692 64.5089 26.8991C65.364 27.5697 65.8244 28.5196 65.8765 29.7226C65.8913 30.0251 65.6625 30.281 65.3667 30.2947Z" fill="white"/>
<path d="M56.9011 68.3537C53.854 68.4865 49.4713 68.0006 45.9291 64.9007C40.4383 60.094 38.9783 50.7668 43.1857 42.6275C43.3851 42.2416 43.9405 42.2867 44.0796 42.7C44.8612 45.0185 46.9675 49.2517 52.3391 51.7864C50.8082 51.2868 49.375 51.1801 48.3191 52.1902C45.3523 55.0273 41.6574 67.8843 56.7178 68.2168C56.8155 68.2182 56.8784 68.2798 56.9011 68.3537Z" fill="#8D411A"/>
<path d="M48.2791 69.9988C45.4996 69.5006 42.7094 68.4563 40.848 67.3052C39.768 66.6373 38.7924 65.8244 37.853 64.9608C35.9367 62.7519 34.2278 60.3512 32.3784 58.0807C30.0485 55.2203 27.4149 52.5062 24.1389 50.8803C20.689 49.1681 16.681 48.7411 13.2485 47.0864C14.4342 48.091 15.8861 48.8082 17.3434 49.3583C19.5395 50.1877 21.8479 50.7297 23.9315 51.8219C26.9572 53.4095 29.3179 56.0578 31.376 58.8293C31.6223 59.1605 31.8645 59.4944 32.1054 59.8298C32.1442 59.8846 32.0813 59.9543 32.0251 59.9174C28.4092 57.5278 24.1818 56.1728 20.0386 54.8808C16.1658 53.6736 12.2167 52.4446 8.73459 50.3876C7.91025 49.9017 7.11269 49.3693 6.34723 48.778C2.77684 46.0244 0.0334647 41.7241 0.00268555 37.2281C2.39141 38.85 5.35691 39.9107 7.96645 40.5361C12.5887 41.6447 17.4772 41.8514 21.789 43.8839C26.1636 45.9451 29.6404 49.6062 32.4413 53.6436C32.7076 54.0282 32.9685 54.4156 33.2228 54.8055C34.3388 56.5163 35.38 58.2558 36.464 59.916C36.4653 59.9188 36.4666 59.9215 36.4693 59.9228V59.9242C38.395 62.8763 40.4559 65.5794 43.3156 67.4394C44.3554 68.1155 45.5946 68.7875 46.9663 69.365C47.4012 69.5484 47.8509 69.7223 48.3099 69.8825C48.3741 69.9099 48.3487 70.0125 48.2791 69.9988Z" fill="white"/>
<path d="M37.2749 66.7386C33.9923 64.7651 30.561 62.9667 26.933 62.5438C23.7119 62.1688 20.4146 61.8088 17.5013 60.4155C19.0362 61.5529 21.1131 62.2276 22.8997 62.6012C25.0569 63.0529 27.2957 63.317 29.4101 63.9466C30.8915 64.3887 32.9792 65.4357 35.0321 66.5785C35.0923 66.6127 35.0669 66.7085 34.9986 66.7044C34.1743 66.6647 33.3445 66.6866 32.5295 66.7468C29.9414 66.9398 27.364 67.4681 24.7718 67.3367C21.3406 67.1629 17.9804 65.7888 15.3695 63.5059C15.2263 63.3814 15.0858 63.2527 14.9466 63.1227C12.7386 61.041 11.1461 58.2901 10.3967 55.3174C10.6924 55.4761 10.9949 55.624 11.3053 55.7608C13.2203 56.608 15.3682 57.0432 17.4491 57.3005C21.1225 57.7563 24.9391 57.8384 28.3007 59.4178C29.105 59.7955 29.8624 60.2499 30.5891 60.755C32.4653 62.0634 34.1301 63.7208 35.8096 65.3029C36.302 65.7669 36.8039 66.2295 37.3164 66.6757C37.3499 66.7085 37.3137 66.7619 37.2749 66.7386Z" fill="white"/>
<path d="M39.2233 24.6601C39.1162 25.7605 38.3762 26.7404 37.2775 27.0853C36.0209 27.4781 34.7015 26.9128 34.0711 25.796C33.9668 25.614 33.8825 25.4156 33.8196 25.2048C33.3726 23.7089 34.1956 22.1254 35.6583 21.6683C37.121 21.2111 38.6693 22.0528 39.1162 23.5488C39.2273 23.9197 39.2594 24.296 39.2233 24.6601Z" fill="white"/>
<path d="M46.5702 12.4012C46.4324 12.8022 46.2691 13.1799 46.0777 13.5221C44.235 16.8164 41.4876 18.1015 39.3398 18.8502C38.8473 16.9929 38.4231 14.5814 39.2274 11.8701C39.3933 11.3117 39.6114 10.741 39.8911 10.158C41.4595 6.902 46.8164 3.97038 47.1336 3.85815C47.2112 4.15378 47.7117 9.09865 46.5702 12.4012Z" fill="white"/>
<path d="M39.6475 5.33767C39.6247 5.40473 39.602 5.47318 39.5752 5.53887C39.2447 6.36416 38.5903 7.00878 38.0376 7.70404C37.6254 6.91297 37.1022 6.15338 36.9322 5.27883C36.8131 4.66705 36.876 4.04843 37.0433 3.4476C37.2066 2.86045 37.4689 2.29111 37.7606 1.75871C38.0068 1.31116 38.2745 0.870449 38.5287 0.425643C38.609 0.284674 38.688 0.142338 38.7629 0C38.7241 0.41059 38.6853 0.8335 38.6438 1.26873C38.5689 2.07896 38.4886 2.92751 38.4056 3.80481C38.3802 4.07443 38.3548 4.34678 38.3293 4.62188C38.3561 4.34678 38.3802 4.07443 38.4056 3.80481C38.4886 2.92751 38.5675 2.07759 38.6438 1.26873C38.6853 0.8335 38.7241 0.41059 38.7629 0C38.8098 0.154656 38.8606 0.309313 38.9128 0.463969C39.0787 0.951202 39.2607 1.43433 39.4173 1.92294C39.7733 3.02605 40.0034 4.24687 39.6475 5.33767Z" fill="white"/>
<path d="M58.1967 17.5814C58.0468 17.8469 54.9702 21.7187 51.8749 23.2229C51.5042 23.4035 51.1336 23.5486 50.7682 23.6512C47.1871 24.649 44.3567 23.5705 42.3199 22.5467C42.9476 21.4272 43.7706 20.1516 44.9817 19.0307C45.948 18.137 47.1604 17.3405 48.7194 16.7999C52.0797 15.631 57.8943 17.4322 58.1967 17.5814Z" fill="white"/>
<path d="M54.4816 8.93174C53.9945 9.06313 53.5007 9.17948 53.0176 9.31908C51.8574 9.65302 50.669 10.184 49.9986 11.2092C49.826 11.4733 49.6948 11.7593 49.5864 12.0591L49.5851 12.0604C49.3897 12.5983 49.2666 13.1731 49.1033 13.7247C49.9745 13.633 50.8832 13.6508 51.6874 13.3059C52.1906 13.0897 52.6175 12.7489 52.9815 12.3355C53.4244 11.8374 53.7791 11.2379 54.0762 10.6357C54.3023 10.1772 54.5084 9.70365 54.7279 9.23969C54.7975 9.09324 54.8684 8.94681 54.9406 8.8031C54.7894 8.8469 54.6369 8.88932 54.4816 8.93174ZM54.1163 9.49699C54.2568 9.37792 54.3973 9.25885 54.5352 9.14389C54.3973 9.26022 54.2582 9.37792 54.1163 9.49699Z" fill="white"/>
<path d="M33.0433 38.5942C31.4749 41.8501 26.1166 44.7818 25.8008 44.894C25.7152 44.5628 25.0956 38.3807 26.8567 35.2301C28.6994 31.9358 31.4454 30.6506 33.5933 29.9033L33.5946 29.902C34.1888 32.1424 34.6826 35.189 33.0433 38.5942Z" fill="white"/>
<path d="M20.1658 22.77C19.3923 23.1929 18.6496 23.7267 17.7944 23.9005C16.6128 24.1414 15.4057 23.6569 14.3539 23.0533C13.9149 22.8029 13.4853 22.5278 13.0504 22.2677C12.9126 22.1856 12.7734 22.1049 12.6343 22.0282C12.7855 21.979 12.9367 21.9269 13.0879 21.8736C13.5643 21.7039 14.0367 21.5177 14.5131 21.3576C15.6573 20.9716 16.934 20.7308 18.0487 21.1975C18.8543 21.5355 19.4846 22.2034 20.1631 22.7686C20.1658 22.77 20.1658 22.77 20.1658 22.77Z" fill="white"/>
<path d="M30.6145 26.2065C29.4878 28.2197 27.7293 30.7326 24.2151 31.9534C20.8548 33.1208 15.0402 31.3197 14.7391 31.1705C14.9064 30.8735 18.7431 26.0546 22.1676 25.1006C25.7473 24.1029 28.5778 25.18 30.6132 26.2051L30.6145 26.2065Z" fill="white"/>
<path d="M21.247 35.4476C20.1349 35.9239 19.3989 37.0161 18.8569 38.1178C18.6308 38.5763 18.4247 39.0499 18.2052 39.5138C18.1356 39.6603 18.0647 39.8067 17.9911 39.9504C18.1436 39.9053 18.2975 39.8615 18.4514 39.8204C18.9385 39.689 19.4323 39.5713 19.9154 39.4331C21.0757 39.0978 22.264 38.5681 22.9331 37.543C23.4176 36.8012 23.5741 35.887 23.8284 35.0288V35.0275C22.9585 35.1219 22.0499 35.1041 21.247 35.4476ZM18.5344 39.4947C18.7178 39.34 18.9038 39.1826 19.0938 39.0225C18.9038 39.184 18.7164 39.3414 18.5344 39.4947Z" fill="white"/>
<path d="M31.0642 21.4368C28.8748 22.0445 25.8946 22.5509 22.5651 20.873C21.3219 20.2475 20.1282 19.0294 19.1259 17.7593V17.758C17.5642 15.7748 16.4735 13.6644 16.4066 13.4659C16.7305 13.3783 22.7752 12.7447 25.8558 14.5458C26.7029 15.0412 27.4135 15.5996 28.0143 16.195C29.6992 17.8661 30.5249 19.8178 31.0642 21.4368Z" fill="white"/>
<path d="M25.7286 9.04944C25.7018 8.96869 25.6737 8.88931 25.6416 8.80993C25.1759 7.67396 24.108 6.92122 23.0308 6.36692C22.5825 6.13562 22.1194 5.92485 21.6658 5.7004C21.5226 5.62923 21.3794 5.55669 21.2389 5.48279C21.2831 5.63881 21.3259 5.7962 21.3674 5.95359C21.4958 6.45177 21.6096 6.95681 21.7461 7.45225C21.8799 7.94086 22.0485 8.43629 22.2693 8.89615C22.5825 9.55173 23.004 10.1375 23.5928 10.5399C24.3181 11.034 25.2134 11.1941 26.0511 11.4555V11.4541C25.9695 10.6466 25.9748 9.8104 25.7286 9.04944Z" fill="white"/>
<path d="M34.6773 18.3903C32.7088 17.2365 30.2518 15.4395 29.0581 11.8455C28.8279 11.153 28.7155 10.3605 28.6847 9.53114C28.5603 6.24231 29.7071 2.39919 29.8235 2.15283C30.1073 2.32117 34.6345 6.08903 35.6957 9.53251C35.7171 9.60505 35.7385 9.67758 35.7572 9.74875C36.7328 13.4126 35.6796 16.3072 34.6773 18.3903Z" fill="white"/>
<path d="M32.4385 53.6449C27.376 47.0084 21.8478 44.1466 15.6826 43.2515C13.4558 42.9285 9.54018 42.2346 7.3107 41.9184C5.62588 41.6803 3.93435 41.2889 2.39005 40.5772C3.59578 44.3464 5.83064 47.7557 8.73191 50.3889C7.90756 49.903 7.10997 49.3706 6.34451 48.7794C2.77412 46.0257 0.0307791 41.7255 0 37.2295C2.38873 38.8513 5.3542 39.912 7.96374 40.5375C12.5859 41.6461 17.4745 41.8527 21.7862 43.8852C26.1622 45.9463 29.6376 49.606 32.4385 53.6449Z" fill="#8D411A"/>
<path d="M36.4667 59.927C36.4653 59.9243 36.4626 59.9216 36.4612 59.9188C36.4626 59.9216 36.4639 59.9243 36.4667 59.9257V59.927Z" fill="#8D411A"/>
<path d="M26.6292 59.1743C21.8009 57.9206 16.5243 58.8212 11.8753 57.0474C12.4668 59.2359 13.615 61.2437 14.9907 63.0297C15.1138 63.1899 15.241 63.35 15.3681 63.5074C15.2249 63.3828 15.0844 63.2542 14.9452 63.1242C12.7372 61.0425 11.1447 58.2915 10.3953 55.3188C10.691 55.4776 10.9935 55.6254 11.3039 55.7623C13.2189 56.6095 15.3667 57.0447 17.4477 57.302C21.1211 57.7578 24.9377 57.8399 28.2993 59.4193C29.1036 59.797 29.861 60.2514 30.5877 60.7564C29.3391 60.0666 28.0063 59.5315 26.6292 59.1743Z" fill="#8D411A"/>
<path d="M68.6751 17.6566C68.5346 17.5786 68.3901 17.5088 68.2415 17.4445C66.4416 16.6726 64.2282 17.0353 62.7521 18.3437C61.3831 19.5577 60.5922 21.2999 59.5846 22.841C57.6508 25.8 54.4605 27.7845 50.953 28.0473C47.6998 28.2909 44.4799 28.4004 41.7245 30.1865C38.7323 32.1272 36.7918 35.442 35.7694 38.9115C35.1177 41.1191 34.6226 43.4964 34.2961 45.8655C34.3683 41.5092 35.1659 36.9544 37.295 33.0291C38.561 30.6956 40.5362 28.3498 42.9464 27.3288C45.3566 26.3091 48.3194 26.9072 50.8741 26.3652C53.4287 25.8233 55.6033 24.6627 57.4594 22.7876C58.4711 21.7666 59.1978 20.502 59.9887 19.288C60.2536 18.8816 60.5253 18.4806 60.8184 18.096C61.9827 16.5631 63.6969 15.2164 65.5878 15.3861C66.819 15.4997 67.9029 16.4536 68.6751 17.6566Z" fill="#8D411A"/>
<path d="M33.5921 29.9033C33.4797 29.9759 26.2332 34.6456 25.7996 44.894C25.714 44.5628 25.0944 38.3806 26.8555 35.23C28.6996 31.9357 31.4456 30.6506 33.5921 29.9033Z" fill="#8D411A"/>
<path d="M23.8311 35.0289C23.8311 35.0289 20.4936 36.4906 17.9924 39.9519C18.066 39.8082 18.1369 39.6618 18.2065 39.5153C18.426 39.0513 18.6321 38.5778 18.8583 38.1193C19.4002 37.0189 20.1362 35.9267 21.2483 35.4491C22.0499 35.1042 22.9586 35.122 23.8311 35.0289Z" fill="#8D411A"/>
<path d="M30.6131 26.2052C30.4659 26.1819 22.5142 24.9268 14.7405 31.1705C14.9078 30.8736 18.7444 26.0546 22.1689 25.1007C25.7474 24.1043 28.5777 25.1814 30.6131 26.2052Z" fill="#8D411A"/>
<path d="M20.1644 22.77C17.9751 21.5779 12.6343 22.0296 12.6343 22.0296C12.7855 21.9803 12.9367 21.9283 13.0879 21.8749C13.5643 21.7052 14.0367 21.5191 14.5131 21.3589C15.6573 20.973 16.934 20.7321 18.0487 21.1988C18.8543 21.5355 19.486 22.2047 20.1644 22.77Z" fill="#8D411A"/>
<path d="M35.6957 9.53388C34.4056 7.13603 32.4465 5.11183 30.1019 3.78836C29.4208 5.64012 28.9457 7.57126 28.6834 9.53114C28.5589 6.24231 29.7058 2.39919 29.8222 2.15283C30.1086 2.32254 34.6345 6.08903 35.6957 9.53388Z" fill="#8D411A"/>
<path d="M46.5701 12.4012C46.8124 10.1443 46.7468 7.85322 46.3734 5.61413C43.3945 6.79253 40.8399 9.05078 39.2286 11.8688C39.3946 11.3104 39.6127 10.7397 39.8924 10.1566C41.4608 6.90066 46.8177 3.96904 47.1349 3.85681C47.2111 4.1538 47.7116 9.09867 46.5701 12.4012Z" fill="#8D411A"/>
<path d="M58.1966 17.5816C58.0467 17.8471 54.9702 21.719 51.8748 23.2231C52.6122 22.7454 53.2947 22.1706 53.9089 21.5369C54.9139 20.505 55.7584 19.3239 56.5319 18.0962C54.0334 17.1628 51.27 16.978 48.6752 17.5789C47.3851 17.8772 46.1379 18.3699 44.9817 19.0296C45.9479 18.1359 47.1603 17.3393 48.7193 16.7987C52.0796 15.6313 57.8942 17.4324 58.1966 17.5816Z" fill="#8D411A"/>
<path d="M28.0129 16.1964C27.293 15.7899 26.5958 15.3724 25.8156 15.0604C23.9635 14.32 21.9669 13.9573 19.9796 13.9997C19.1138 14.0175 18.2506 14.1147 17.4022 14.2899C17.6845 15.2972 18.2868 16.299 18.7846 17.1777C18.8943 17.3734 19.0081 17.5664 19.1245 17.758C17.5628 15.7748 16.4721 13.6644 16.4052 13.4659C16.7291 13.3783 22.7738 12.7447 25.8544 14.5458C26.7002 15.0426 27.4121 15.601 28.0129 16.1964Z" fill="#8D411A"/>
<path d="M21.9374 6.34906C21.8839 6.33264 21.829 6.31621 21.7741 6.29979C21.9307 7.12645 22.0886 7.95173 22.2452 8.77838C22.2519 8.81671 22.2599 8.85502 22.2679 8.89334C22.0471 8.43348 21.8799 7.93805 21.7447 7.44945C21.6082 6.954 21.4944 6.44896 21.366 5.95078C21.3258 5.79339 21.283 5.636 21.2375 5.47998C21.378 5.55389 21.5212 5.62642 21.6644 5.69759C22.1181 5.92204 22.5811 6.13281 23.0294 6.36411C24.1054 6.91841 25.1746 7.67117 25.6403 8.80714C25.6725 8.88652 25.7019 8.9659 25.7273 9.04665C24.7772 7.78066 23.4336 6.81987 21.9374 6.34906Z" fill="#8D411A"/>
<path d="M39.4187 1.92428C39.2621 1.43568 39.0801 0.952545 38.9142 0.465311C38.862 0.312024 38.8111 0.157367 38.7643 0.00134277L38.763 0.00408271V0.00134277C38.688 0.143681 38.6091 0.286016 38.5288 0.426986C38.2759 0.871791 38.0069 1.31249 37.7606 1.76003C37.4702 2.29106 37.2066 2.86179 37.0433 3.44894C37.3953 2.60586 37.9466 1.84763 38.6425 1.27007C38.6532 1.26049 38.6639 1.25228 38.6747 1.2427C39.3531 2.48405 39.6917 3.917 39.6462 5.33764C40.0035 4.24684 39.7733 3.02603 39.4187 1.92428Z" fill="#8D411A"/>
<path d="M54.942 8.80029C54.8698 8.944 54.7989 9.09044 54.7293 9.23688C54.5098 9.70085 54.3037 10.1744 54.0775 10.6329C53.7805 11.2351 53.4258 11.8345 52.9829 12.3327C53.4874 11.4472 53.8701 10.4892 54.1164 9.49692V9.49555C54.1231 9.46818 54.1297 9.44081 54.1378 9.41344C54.1311 9.43944 53.4004 9.67622 53.3268 9.69401C53.0726 9.75423 52.6283 9.92394 52.3834 10.0143C51.4975 10.3427 50.9153 10.6247 50.2382 11.2926C50.0669 11.4609 49.905 11.6402 49.7524 11.8277C49.7042 11.8866 49.6494 11.9878 49.5878 12.0549C49.6962 11.7565 49.8274 11.4691 50 11.205C50.6704 10.1799 51.8588 9.65022 53.019 9.3149C53.5021 9.1753 53.9959 9.05896 54.483 8.92757C54.6369 8.88924 54.7895 8.84683 54.942 8.80029Z" fill="#8D411A"/>
<path d="M39.2234 24.6601C39.1913 24.5259 39.1806 24.359 39.1525 24.2536C39.099 24.0524 39.0361 23.8539 38.9571 23.6609C38.7805 23.2271 38.5182 22.8192 38.1488 22.54C37.7942 22.2704 37.3553 22.1308 36.915 22.1021C35.827 22.0309 34.7243 22.6769 34.2345 23.6746C33.9147 24.3261 33.8692 25.1007 34.0713 25.7974C33.9669 25.6154 33.8826 25.4169 33.8197 25.2061C33.3727 23.7102 34.1957 22.1267 35.6584 21.6696C37.1211 21.2125 38.6694 22.0542 39.1164 23.5501C39.2274 23.9196 39.2596 24.296 39.2234 24.6601Z" fill="#8D411A"/>
<path d="M36.4665 26.3215C37.7569 26.3215 38.803 25.2516 38.803 23.9319C38.803 22.6121 37.7569 21.5422 36.4665 21.5422C35.1761 21.5422 34.1299 22.6121 34.1299 23.9319C34.1299 25.2516 35.1761 26.3215 36.4665 26.3215Z" fill="#8D411A"/>
</svg>
