<svg width="185" height="66" viewBox="0 0 185 66" fill="none" xmlns="http://www.w3.org/2000/svg">
<path d="M56.4097 57.0061C57.0375 57.0811 57.5345 57.291 57.9007 57.6359C58.2744 57.9808 58.4613 58.4082 58.4613 58.9181C58.4613 59.308 58.3491 59.6604 58.1249 59.9753C57.9007 60.2902 57.5906 60.5414 57.1945 60.7288C56.7984 60.9088 56.3574 60.9987 55.8716 60.9987C55.6624 60.9987 55.4232 60.9875 55.1542 60.965C55.0495 60.9575 54.9188 60.95 54.7618 60.9425C54.6123 60.935 54.4442 60.9312 54.2573 60.9312L53.439 60.9425C53.2895 60.95 53.0877 60.9537 52.8336 60.9537C52.8112 60.9537 52.8 60.9312 52.8 60.8863C52.8 60.8413 52.8112 60.8188 52.8336 60.8188C53.0504 60.8188 53.2148 60.8 53.3269 60.7625C53.439 60.7176 53.5175 60.6426 53.5623 60.5376C53.6146 60.4251 53.6408 60.2602 53.6408 60.0427V54.8355C53.6408 54.5206 53.5885 54.3144 53.4838 54.2169C53.3792 54.1119 53.1662 54.0594 52.8448 54.0594C52.8299 54.0594 52.8224 54.037 52.8224 53.992C52.8224 53.947 52.8299 53.9245 52.8448 53.9245L53.439 53.9357C53.7828 53.9507 54.0556 53.9582 54.2573 53.9582C54.4666 53.9582 54.6833 53.947 54.9075 53.9245C54.9823 53.917 55.0944 53.9095 55.2439 53.902C55.3933 53.8945 55.5241 53.8907 55.6362 53.8907C56.3163 53.8907 56.8432 54.0145 57.2169 54.2619C57.5906 54.5093 57.7774 54.8692 57.7774 55.3416C57.7774 55.7015 57.6578 56.0276 57.4187 56.3201C57.187 56.6125 56.8507 56.8412 56.4097 57.0061ZM55.4681 54.1382C55.2513 54.1382 55.1019 54.1907 55.0197 54.2956C54.9374 54.3931 54.8963 54.5805 54.8963 54.858V56.9949L55.3448 57.0061C55.7334 57.0061 56.0323 56.8599 56.2416 56.5675C56.4508 56.2751 56.5555 55.9002 56.5555 55.4428C56.5555 55.0154 56.4621 54.693 56.2752 54.4756C56.0884 54.2506 55.8193 54.1382 55.4681 54.1382ZM55.6811 60.7176C56.6601 60.7176 57.1496 60.2077 57.1496 59.188C57.1496 58.6107 57.0114 58.1533 56.7348 57.8159C56.4583 57.4785 56.0398 57.3098 55.4793 57.3098C55.2625 57.3098 55.0682 57.3173 54.8963 57.3323V60.0427C54.8963 60.2902 54.9449 60.4664 55.0421 60.5713C55.1392 60.6688 55.3522 60.7176 55.6811 60.7176ZM63.3908 60.2114C63.4057 60.2114 63.4207 60.2264 63.4356 60.2564C63.458 60.2864 63.4618 60.3089 63.4468 60.3239C63.1703 60.5938 62.89 60.7888 62.606 60.9088C62.322 61.0287 62.0119 61.0887 61.6756 61.0887C61.2047 61.0887 60.7974 60.9912 60.4536 60.7963C60.1098 60.5938 59.8483 60.3277 59.6689 59.9978C59.4895 59.6604 59.3998 59.2967 59.3998 58.9068C59.3998 58.4719 59.5082 58.0708 59.7249 57.7034C59.9417 57.336 60.2406 57.0473 60.6218 56.8374C61.0104 56.62 61.4476 56.5112 61.9334 56.5112C62.3968 56.5112 62.7555 56.6162 63.0096 56.8262C63.2637 57.0361 63.3908 57.3623 63.3908 57.8046C63.3908 58.0371 63.3497 58.1533 63.2674 58.1533L60.5433 58.1645C60.5358 58.217 60.5321 58.3032 60.5321 58.4232C60.5321 59.083 60.6816 59.6004 60.9805 59.9753C61.2869 60.3502 61.7241 60.5376 62.2921 60.5376C62.4939 60.5376 62.6658 60.5151 62.8078 60.4701C62.9498 60.4251 63.1367 60.3427 63.3683 60.2227L63.3908 60.2114ZM61.5074 56.7362C61.2608 56.7362 61.0553 56.8449 60.8908 57.0623C60.7264 57.2723 60.618 57.5647 60.5657 57.9396L62.1912 57.9171C62.1838 57.5347 62.1277 57.2423 62.0231 57.0399C61.9185 56.8374 61.7466 56.7362 61.5074 56.7362ZM68.402 60.3464C68.4319 60.3464 68.4506 60.3652 68.4581 60.4026C68.473 60.4326 68.4655 60.4551 68.4356 60.4701L67.281 61.0212C67.2511 61.0362 67.2137 61.0437 67.1689 61.0437C67.0493 61.0437 66.9334 60.98 66.8213 60.8525C66.7167 60.7251 66.642 60.5526 66.5971 60.3352L66.1151 60.6726C65.9432 60.8 65.7825 60.8938 65.633 60.9537C65.4836 61.0062 65.3154 61.0325 65.1286 61.0325C64.8072 61.0325 64.5643 60.9612 64.3999 60.8188C64.2355 60.6763 64.1533 60.4776 64.1533 60.2227C64.1533 60.0203 64.2018 59.8591 64.299 59.7391C64.3961 59.6116 64.5157 59.5141 64.6577 59.4467C64.8072 59.3717 65.0127 59.2892 65.2743 59.1992L65.5546 59.098L66.5635 58.7269V58.0858C66.5635 57.6059 66.5224 57.2573 66.4402 57.0399C66.3654 56.8224 66.2347 56.7137 66.0478 56.7137C65.6517 56.7137 65.4275 57.0211 65.3752 57.6359C65.3528 57.8609 65.2855 58.0221 65.1734 58.1195C65.0688 58.217 64.9193 58.2658 64.725 58.2658C64.5381 58.2658 64.3999 58.2283 64.3102 58.1533C64.228 58.0708 64.1869 57.9658 64.1869 57.8384C64.1869 57.6134 64.3177 57.3997 64.5793 57.1973C64.8408 56.9874 65.1547 56.8187 65.5209 56.6912C65.8946 56.5637 66.2234 56.5 66.5074 56.5C66.8363 56.5 67.1016 56.605 67.3034 56.8149C67.5127 57.0174 67.6173 57.3285 67.6173 57.7484V59.7391C67.6173 59.9565 67.6546 60.1252 67.7294 60.2452C67.8116 60.3652 67.9237 60.4251 68.0657 60.4251C68.1703 60.4251 68.2787 60.3989 68.3908 60.3464H68.402ZM66.5747 60.144C66.5672 60.114 66.5635 60.0652 66.5635 59.9978V58.9181L66.0814 59.143C66.059 59.1505 65.9843 59.1805 65.8572 59.233C65.7302 59.278 65.6181 59.3567 65.5209 59.4692C65.4312 59.5816 65.3864 59.7128 65.3864 59.8628C65.3864 60.0427 65.4425 60.1852 65.5546 60.2902C65.6741 60.3876 65.8087 60.4364 65.9581 60.4364C66.0777 60.4364 66.201 60.3951 66.3281 60.3127L66.5747 60.144ZM74.0173 60.2227C74.0397 60.2227 74.0584 60.2414 74.0734 60.2789C74.0958 60.3164 74.0958 60.3389 74.0734 60.3464L72.5263 61.0999C72.5114 61.1074 72.4927 61.1112 72.4703 61.1112C72.3955 61.1112 72.3283 61.0325 72.2685 60.875C72.2162 60.7101 72.1863 60.4889 72.1788 60.2114C71.6855 60.7963 71.1512 61.0887 70.5757 61.0887C70.1647 61.0887 69.8396 60.9612 69.6004 60.7063C69.3687 60.4439 69.2529 60.1027 69.2529 59.6828V58.0296C69.2529 57.5422 69.137 57.2985 68.9054 57.2985C68.8231 57.2985 68.7297 57.3248 68.6251 57.3773H68.6139C68.584 57.3773 68.5616 57.3585 68.5466 57.321C68.5317 57.276 68.5354 57.2498 68.5578 57.2423L70.06 56.5225L70.1161 56.5112C70.1535 56.5112 70.1908 56.53 70.2282 56.5675C70.273 56.5975 70.2955 56.6275 70.2955 56.6575V59.143C70.2955 59.9528 70.6056 60.3577 71.2259 60.3577C71.3903 60.3577 71.5548 60.3239 71.7192 60.2564C71.8911 60.1815 72.0443 60.0802 72.1788 59.9528V58.0296C72.1788 57.5422 72.063 57.2985 71.8313 57.2985C71.7491 57.2985 71.6519 57.3248 71.5398 57.3773H71.5286C71.5062 57.3773 71.4875 57.3585 71.4725 57.321C71.4576 57.276 71.4613 57.2498 71.4838 57.2423L72.986 56.5225C73.0009 56.515 73.0196 56.5112 73.042 56.5112C73.0794 56.5112 73.1167 56.53 73.1541 56.5675C73.1989 56.5975 73.2214 56.6275 73.2214 56.6575V59.6491C73.2214 59.904 73.2438 60.084 73.2886 60.189C73.341 60.2939 73.4232 60.3464 73.5353 60.3464C73.6399 60.3464 73.7931 60.3052 73.9949 60.2227H74.0173ZM77.7154 60.1665C77.7453 60.1665 77.7678 60.1815 77.7827 60.2114C77.8051 60.2414 77.8051 60.2639 77.7827 60.2789C77.5062 60.5563 77.2371 60.7625 76.9756 60.8975C76.714 61.025 76.4375 61.0887 76.146 61.0887C75.8171 61.0887 75.5369 61.01 75.3052 60.8525C75.0735 60.6951 74.9577 60.4289 74.9577 60.054V57.5572C74.9577 57.3248 74.9166 57.1636 74.8344 57.0736C74.7522 56.9836 74.6027 56.9386 74.386 56.9386C74.3785 56.9386 74.3673 56.9274 74.3523 56.9049C74.3448 56.8824 74.3411 56.8599 74.3411 56.8374C74.3411 56.8074 74.3448 56.7849 74.3523 56.7699C74.3598 56.7474 74.371 56.7362 74.386 56.7362C74.7671 56.7212 75.0735 56.6387 75.3052 56.4888C75.5444 56.3388 75.7275 56.1101 75.8545 55.8027C75.8695 55.7727 75.8994 55.7577 75.9442 55.7577C75.9965 55.7577 76.0227 55.7727 76.0227 55.8027V56.7024C76.4561 56.6949 76.9419 56.6612 77.48 56.6012C77.495 56.6012 77.5099 56.6312 77.5249 56.6912C77.5473 56.7437 77.5585 56.8037 77.5585 56.8711C77.5585 56.9461 77.5436 57.0211 77.5137 57.0961C77.4912 57.1636 77.4651 57.1936 77.4352 57.1861C76.9494 57.0811 76.4786 57.0249 76.0227 57.0174V59.6828C76.0227 59.9678 76.0937 60.1777 76.2357 60.3127C76.3851 60.4476 76.5795 60.5151 76.8186 60.5151C77.1176 60.5151 77.409 60.4026 77.693 60.1777L77.7154 60.1665ZM82.793 56.6125C82.808 56.6125 82.8154 56.635 82.8154 56.68C82.8154 56.7249 82.808 56.7474 82.793 56.7474C82.5539 56.7474 82.3446 56.8524 82.1652 57.0623C81.9933 57.2648 81.8364 57.561 81.6944 57.9508L80.45 61.2686C80.0539 62.3183 79.6728 63.0531 79.3066 63.473C78.9478 63.9004 78.548 64.1141 78.1071 64.1141C77.8829 64.1141 77.711 64.0654 77.5914 63.9679C77.4718 63.8779 77.412 63.7429 77.412 63.563C77.412 63.3905 77.4643 63.2593 77.569 63.1694C77.6736 63.0794 77.8006 63.0344 77.9501 63.0344C78.0323 63.0344 78.0996 63.0456 78.1519 63.0681C78.2117 63.0906 78.2827 63.1281 78.3649 63.1806C78.5069 63.2781 78.6414 63.3268 78.7685 63.3268C78.9404 63.3268 79.0936 63.2593 79.2281 63.1244C79.3701 62.9969 79.5158 62.7795 79.6653 62.4721C79.8148 62.1721 79.9942 61.741 80.2034 61.1787L78.4097 57.546C78.2453 57.2235 78.1145 57.0099 78.0174 56.9049C77.9277 56.7999 77.8156 56.7474 77.6811 56.7474C77.6586 56.7474 77.6474 56.7249 77.6474 56.68C77.6474 56.635 77.6586 56.6125 77.6811 56.6125C77.8903 56.6125 78.051 56.6162 78.1631 56.6237L78.634 56.635L79.4075 56.6237C79.5271 56.6162 79.6877 56.6125 79.8895 56.6125C79.9119 56.6125 79.9232 56.635 79.9232 56.68C79.9232 56.7249 79.9119 56.7474 79.8895 56.7474C79.6952 56.7474 79.5532 56.7662 79.4635 56.8037C79.3738 56.8337 79.329 56.8861 79.329 56.9611C79.329 57.0211 79.3514 57.0961 79.3963 57.1861L80.7191 59.8965L81.3917 57.9396C81.459 57.7446 81.4926 57.5685 81.4926 57.411C81.4926 57.2011 81.4328 57.0398 81.3132 56.9274C81.1937 56.8074 81.0218 56.7474 80.7976 56.7474C80.7826 56.7474 80.7751 56.7249 80.7751 56.68C80.7751 56.635 80.7826 56.6125 80.7976 56.6125C80.9994 56.6125 81.1526 56.6162 81.2572 56.6237L81.9298 56.635L82.3782 56.6237C82.4679 56.6162 82.6062 56.6125 82.793 56.6125ZM87.2114 55.0604C87.2114 55.3303 87.2787 55.5703 87.4132 55.7802C87.5552 55.9901 87.7271 56.1738 87.9289 56.3313C88.1307 56.4888 88.4035 56.68 88.7473 56.9049C89.1209 57.1448 89.4199 57.3548 89.6441 57.5347C89.8683 57.7147 90.0589 57.9358 90.2158 58.1983C90.3728 58.4532 90.4512 58.7494 90.4512 59.0868C90.4512 59.4767 90.3466 59.8253 90.1374 60.1327C89.9281 60.4326 89.6366 60.6688 89.2629 60.8413C88.8967 61.0062 88.4857 61.0887 88.0298 61.0887C87.6935 61.0887 87.3422 61.0437 86.976 60.9537C86.6098 60.8563 86.3632 60.7513 86.2361 60.6388C86.1988 60.6088 86.1689 60.5826 86.1464 60.5601C86.1315 60.5301 86.124 60.4851 86.124 60.4251L86.0904 58.6369V58.6256C86.0904 58.5957 86.1091 58.5807 86.1464 58.5807C86.1838 58.5732 86.2062 58.5844 86.2137 58.6144C86.4379 59.0718 86.6322 59.4429 86.7966 59.7278C86.9685 60.0128 87.1815 60.2639 87.4356 60.4814C87.6972 60.6988 87.9924 60.8075 88.3213 60.8075C88.6202 60.8075 88.8668 60.7288 89.0611 60.5713C89.2555 60.4064 89.3526 60.129 89.3526 59.7391C89.3526 59.4092 89.2779 59.1205 89.1284 58.8731C88.9864 58.6256 88.8108 58.4157 88.6015 58.2433C88.3923 58.0708 88.1045 57.8646 87.7383 57.6247C87.3796 57.3923 87.0993 57.1936 86.8975 57.0286C86.7032 56.8637 86.5351 56.665 86.3931 56.4325C86.2511 56.2001 86.1801 55.9264 86.1801 55.6115C86.1801 55.2141 86.2922 54.8805 86.5164 54.6105C86.7481 54.3331 87.0433 54.1307 87.402 54.0032C87.7607 53.8683 88.1382 53.8008 88.5343 53.8008C88.7958 53.8008 89.0611 53.827 89.3302 53.8795C89.5992 53.9245 89.816 53.9807 89.9804 54.0482C90.0477 54.0782 90.0925 54.1119 90.1149 54.1494C90.1373 54.1794 90.1486 54.2207 90.1486 54.2731V55.9264C90.1486 55.9489 90.1299 55.9677 90.0925 55.9826C90.0551 55.9901 90.0327 55.9827 90.0252 55.9602L89.9356 55.7465C89.7487 55.2741 89.5282 54.873 89.2741 54.5431C89.0275 54.2132 88.68 54.0482 88.2316 54.0482C87.9326 54.0482 87.686 54.1344 87.4917 54.3069C87.3048 54.4793 87.2114 54.7305 87.2114 55.0604ZM93.9562 61.0999C93.59 61.0999 93.2686 61.0587 92.9921 60.9762V63.1356C92.9921 63.3606 93.0145 63.5255 93.0593 63.6305C93.1117 63.7354 93.2051 63.8067 93.3396 63.8442C93.4816 63.8892 93.6983 63.9116 93.9898 63.9116C94.0122 63.9116 94.0234 63.9341 94.0234 63.9791C94.0234 64.0241 94.0122 64.0466 93.9898 64.0466C93.7133 64.0466 93.4966 64.0429 93.3396 64.0354L92.454 64.0241L91.7926 64.0354C91.6805 64.0429 91.5235 64.0466 91.3217 64.0466C91.2993 64.0466 91.2881 64.0241 91.2881 63.9791C91.2881 63.9341 91.2993 63.9116 91.3217 63.9116C91.5011 63.9116 91.6319 63.8892 91.7141 63.8442C91.8038 63.8067 91.8636 63.7354 91.8935 63.6305C91.9308 63.5255 91.9495 63.3606 91.9495 63.1356V57.9283C91.9495 57.6884 91.9234 57.516 91.871 57.411C91.8187 57.306 91.7253 57.2535 91.5908 57.2535C91.4712 57.2535 91.2993 57.306 91.0751 57.411H91.0527C91.0303 57.411 91.0116 57.3922 90.9966 57.3548C90.9742 57.3173 90.9705 57.2948 90.9854 57.2873L92.5773 56.5112C92.5922 56.5038 92.6109 56.5 92.6334 56.5C92.7081 56.5 92.7753 56.5637 92.8351 56.6912C92.9024 56.8187 92.9472 56.9911 92.9697 57.2086C93.5152 56.7137 94.0758 56.4663 94.6513 56.4663C94.9652 56.4663 95.2567 56.5487 95.5257 56.7137C95.8023 56.8786 96.0227 57.1186 96.1872 57.4335C96.3516 57.7484 96.4338 58.1158 96.4338 58.5357C96.4338 59.1355 96.3105 59.6304 96.0638 60.0203C95.8172 60.4026 95.5033 60.6801 95.1222 60.8525C94.7485 61.0175 94.3598 61.0999 93.9562 61.0999ZM93.9113 57.0961C93.575 57.0961 93.2686 57.2161 92.9921 57.456V57.546V60.2564C93.1565 60.4439 93.3284 60.5863 93.5078 60.6838C93.6871 60.7738 93.9076 60.8188 94.1692 60.8188C94.9241 60.8188 95.3015 60.174 95.3015 58.8843C95.3015 58.3145 95.167 57.8759 94.8979 57.5684C94.6364 57.2535 94.3074 57.0961 93.9113 57.0961ZM101.475 60.3464C101.505 60.3464 101.523 60.3652 101.531 60.4026C101.546 60.4326 101.538 60.4551 101.508 60.4701L100.354 61.0212C100.324 61.0362 100.286 61.0437 100.242 61.0437C100.122 61.0437 100.006 60.98 99.8941 60.8525C99.7894 60.7251 99.7147 60.5526 99.6699 60.3352L99.1878 60.6726C99.0159 60.8 98.8552 60.8938 98.7058 60.9537C98.5563 61.0062 98.3881 61.0325 98.2013 61.0325C97.8799 61.0325 97.637 60.9612 97.4726 60.8188C97.3082 60.6763 97.226 60.4776 97.226 60.2227C97.226 60.0203 97.2746 59.8591 97.3717 59.7391C97.4689 59.6116 97.5885 59.5141 97.7305 59.4467C97.8799 59.3717 98.0854 59.2892 98.347 59.1992L98.6273 59.098L99.6362 58.7269V58.0858C99.6362 57.6059 99.5951 57.2573 99.5129 57.0399C99.4382 56.8224 99.3074 56.7137 99.1205 56.7137C98.7244 56.7137 98.5002 57.0211 98.4479 57.6359C98.4255 57.8609 98.3582 58.0221 98.2461 58.1195C98.1415 58.217 97.992 58.2658 97.7977 58.2658C97.6109 58.2658 97.4726 58.2283 97.3829 58.1533C97.3007 58.0708 97.2596 57.9658 97.2596 57.8384C97.2596 57.6134 97.3904 57.3997 97.652 57.1973C97.9136 56.9874 98.2274 56.8187 98.5937 56.6912C98.9673 56.5637 99.2962 56.5 99.5802 56.5C99.909 56.5 100.174 56.605 100.376 56.8149C100.585 57.0174 100.69 57.3285 100.69 57.7484V59.7391C100.69 59.9565 100.727 60.1252 100.802 60.2452C100.884 60.3652 100.996 60.4251 101.138 60.4251C101.243 60.4251 101.351 60.3989 101.464 60.3464H101.475ZM99.6474 60.144C99.64 60.114 99.6362 60.0652 99.6362 59.9978V58.9181L99.1542 59.143C99.1318 59.1505 99.057 59.1805 98.93 59.233C98.8029 59.278 98.6908 59.3567 98.5937 59.4692C98.504 59.5816 98.4591 59.7128 98.4591 59.8628C98.4591 60.0427 98.5152 60.1852 98.6273 60.2902C98.7469 60.3876 98.8814 60.4364 99.0309 60.4364C99.1504 60.4364 99.2738 60.3951 99.4008 60.3127L99.6474 60.144ZM108.911 53.8008C109.262 53.8008 109.617 53.8308 109.976 53.8907C110.342 53.9432 110.634 54.0145 110.85 54.1044C110.918 54.1269 110.959 54.1569 110.974 54.1944C110.996 54.2244 111.011 54.2806 111.019 54.3631L111.164 55.9264C111.164 55.9489 111.146 55.9639 111.108 55.9714C111.071 55.9789 111.045 55.9677 111.03 55.9377C110.82 55.3228 110.522 54.8542 110.133 54.5318C109.744 54.2019 109.277 54.037 108.732 54.037C108.223 54.037 107.768 54.1757 107.364 54.4531C106.968 54.723 106.654 55.1129 106.422 55.6228C106.198 56.1326 106.086 56.7287 106.086 57.411C106.086 58.1008 106.202 58.7081 106.433 59.233C106.673 59.7503 106.998 60.1515 107.409 60.4364C107.827 60.7138 108.306 60.8525 108.844 60.8525C109.359 60.8525 109.793 60.7138 110.144 60.4364C110.495 60.1515 110.828 59.6866 111.142 59.0418C111.149 59.0193 111.172 59.0118 111.209 59.0193C111.246 59.0268 111.265 59.0418 111.265 59.0643L111.097 60.4589C111.082 60.5489 111.067 60.6088 111.052 60.6388C111.037 60.6613 110.996 60.6876 110.929 60.7176C110.241 60.965 109.546 61.0887 108.844 61.0887C108.044 61.0887 107.327 60.9387 106.691 60.6388C106.064 60.3314 105.57 59.904 105.212 59.3567C104.853 58.8093 104.673 58.187 104.673 57.4897C104.673 56.7774 104.857 56.1439 105.223 55.589C105.596 55.0267 106.105 54.588 106.747 54.2731C107.398 53.9582 108.119 53.8008 108.911 53.8008ZM116.452 60.3464C116.482 60.3464 116.5 60.3652 116.508 60.4026C116.523 60.4326 116.515 60.4551 116.486 60.4701L115.331 61.0212C115.301 61.0362 115.264 61.0437 115.219 61.0437C115.099 61.0437 114.983 60.98 114.871 60.8525C114.767 60.7251 114.692 60.5526 114.647 60.3352L114.165 60.6726C113.993 60.8 113.832 60.8938 113.683 60.9537C113.533 61.0062 113.365 61.0325 113.178 61.0325C112.857 61.0325 112.614 60.9612 112.45 60.8188C112.285 60.6763 112.203 60.4776 112.203 60.2227C112.203 60.0203 112.252 59.8591 112.349 59.7391C112.446 59.6116 112.566 59.5141 112.708 59.4467C112.857 59.3717 113.063 59.2892 113.324 59.1992L113.604 59.098L114.613 58.7269V58.0858C114.613 57.6059 114.572 57.2573 114.49 57.0399C114.415 56.8224 114.285 56.7137 114.098 56.7137C113.702 56.7137 113.477 57.0211 113.425 57.6359C113.403 57.8609 113.335 58.0221 113.223 58.1195C113.119 58.217 112.969 58.2658 112.775 58.2658C112.588 58.2658 112.45 58.2283 112.36 58.1533C112.278 58.0708 112.237 57.9658 112.237 57.8384C112.237 57.6134 112.368 57.3997 112.629 57.1973C112.891 56.9874 113.205 56.8187 113.571 56.6912C113.944 56.5637 114.273 56.5 114.556 56.5C114.885 56.5 115.151 56.605 115.353 56.8149C115.563 57.0174 115.667 57.3285 115.667 57.7484V59.7391C115.667 59.9565 115.705 60.1252 115.779 60.2452C115.861 60.3652 115.974 60.4251 116.116 60.4251C116.22 60.4251 116.329 60.3989 116.441 60.3464H116.452ZM114.625 60.144C114.617 60.114 114.613 60.0652 114.613 59.9978V58.9181L114.131 59.143C114.109 59.1505 114.034 59.1805 113.907 59.233C113.78 59.278 113.668 59.3567 113.571 59.4692C113.481 59.5816 113.436 59.7128 113.436 59.8628C113.436 60.0427 113.492 60.1852 113.604 60.2902C113.724 60.3876 113.859 60.4364 114.008 60.4364C114.128 60.4364 114.251 60.3951 114.378 60.3127L114.625 60.144ZM119.824 56.5C119.996 56.5 120.161 56.5637 120.318 56.6912C120.482 56.8112 120.564 56.9574 120.564 57.1298C120.564 57.2873 120.516 57.4185 120.418 57.5235C120.321 57.6209 120.194 57.6697 120.037 57.6697C119.925 57.6697 119.832 57.6472 119.757 57.6022C119.69 57.5572 119.619 57.4897 119.544 57.3997C119.477 57.3248 119.417 57.2723 119.365 57.2423C119.32 57.2048 119.264 57.1861 119.197 57.1861C119.122 57.1861 119.04 57.216 118.95 57.276C118.868 57.3285 118.737 57.4447 118.558 57.6247V60.0427C118.558 60.3427 118.629 60.5489 118.771 60.6613C118.913 60.7663 119.174 60.8188 119.555 60.8188C119.585 60.8188 119.6 60.8413 119.6 60.8863C119.6 60.9312 119.585 60.9537 119.555 60.9537C119.294 60.9537 119.088 60.95 118.939 60.9425L118.031 60.9312L117.369 60.9425C117.257 60.95 117.104 60.9537 116.91 60.9537C116.887 60.9537 116.876 60.9312 116.876 60.8863C116.876 60.8413 116.887 60.8188 116.91 60.8188C117.141 60.8188 117.298 60.7663 117.38 60.6613C117.463 60.5489 117.504 60.3427 117.504 60.0427V57.9283C117.504 57.6959 117.474 57.5272 117.414 57.4222C117.362 57.3098 117.276 57.2535 117.156 57.2535C117.029 57.2535 116.85 57.306 116.618 57.411H116.596C116.573 57.411 116.555 57.3922 116.54 57.3548C116.532 57.3173 116.536 57.2948 116.551 57.2873L118.109 56.5225C118.154 56.5075 118.18 56.5 118.188 56.5C118.27 56.5 118.345 56.5787 118.412 56.7362C118.487 56.8861 118.531 57.0923 118.546 57.3548C118.853 57.0398 119.103 56.8187 119.297 56.6912C119.499 56.5637 119.675 56.5 119.824 56.5ZM124.939 60.2114C124.954 60.2114 124.969 60.2264 124.984 60.2564C125.006 60.2864 125.01 60.3089 124.995 60.3239C124.719 60.5938 124.438 60.7888 124.154 60.9088C123.87 61.0287 123.56 61.0887 123.224 61.0887C122.753 61.0887 122.346 60.9912 122.002 60.7963C121.658 60.5938 121.397 60.3277 121.217 59.9978C121.038 59.6604 120.948 59.2967 120.948 58.9068C120.948 58.4719 121.057 58.0708 121.273 57.7034C121.49 57.336 121.789 57.0473 122.17 56.8374C122.559 56.62 122.996 56.5112 123.482 56.5112C123.945 56.5112 124.304 56.6162 124.558 56.8262C124.812 57.0361 124.939 57.3623 124.939 57.8046C124.939 58.0371 124.898 58.1533 124.816 58.1533L122.092 58.1645C122.084 58.217 122.08 58.3032 122.08 58.4232C122.08 59.083 122.23 59.6004 122.529 59.9753C122.835 60.3502 123.272 60.5376 123.84 60.5376C124.042 60.5376 124.214 60.5151 124.356 60.4701C124.498 60.4251 124.685 60.3427 124.917 60.2227L124.939 60.2114ZM123.056 56.7362C122.809 56.7362 122.604 56.8449 122.439 57.0623C122.275 57.2723 122.166 57.5647 122.114 57.9396L123.74 57.9171C123.732 57.5347 123.676 57.2423 123.571 57.0399C123.467 56.8374 123.295 56.7362 123.056 56.7362ZM136.03 60.8188C136.06 60.8263 136.071 60.8525 136.064 60.8975C136.064 60.935 136.052 60.9537 136.03 60.9537H134.191C133.982 60.9537 133.623 60.77 133.115 60.4026C132.555 60.86 131.841 61.0887 130.974 61.0887C130.458 61.0887 130.025 61.0137 129.674 60.8638C129.322 60.7138 129.061 60.5151 128.889 60.2677C128.717 60.0203 128.631 59.7578 128.631 59.4804C128.631 59.1205 128.754 58.7981 129.001 58.5132C129.248 58.2283 129.621 57.8984 130.122 57.5235C130.002 57.366 129.887 57.1861 129.775 56.9836C129.67 56.7737 129.588 56.575 129.528 56.3875C129.476 56.2001 129.449 55.9939 129.449 55.769C129.449 55.1616 129.64 54.663 130.021 54.2731C130.41 53.8832 130.937 53.6883 131.602 53.6883C132.065 53.6883 132.431 53.7895 132.7 53.992C132.969 54.1869 133.104 54.4606 133.104 54.813C133.104 55.1054 133.018 55.3753 132.846 55.6228C132.682 55.8627 132.491 56.0651 132.274 56.2301C132.058 56.395 131.721 56.6312 131.266 56.9386C131.804 57.7409 132.555 58.5282 133.519 59.3005C133.586 59.038 133.62 58.7419 133.62 58.412C133.62 57.9771 133.549 57.6622 133.407 57.4672C133.265 57.2648 133.033 57.1636 132.712 57.1636C132.697 57.1636 132.686 57.1411 132.678 57.0961C132.678 57.0511 132.689 57.0286 132.712 57.0286L135.38 57.0174C135.402 57.0174 135.413 57.0399 135.413 57.0848C135.413 57.1298 135.402 57.1523 135.38 57.1523C135.156 57.1523 134.987 57.1786 134.875 57.231C134.771 57.276 134.688 57.3548 134.629 57.4672C134.576 57.5797 134.517 57.7596 134.449 58.0071C134.367 58.307 134.281 58.5807 134.191 58.8281C134.102 59.0755 133.986 59.3155 133.844 59.5479C134.33 59.9153 134.759 60.204 135.133 60.4139C135.514 60.6238 135.813 60.7588 136.03 60.8188ZM130.503 54.8017C130.503 55.3866 130.709 56.0201 131.12 56.7024C131.65 56.1851 131.916 55.634 131.916 55.0492C131.916 54.7193 131.837 54.4606 131.68 54.2731C131.531 54.0857 131.333 53.992 131.086 53.992C130.877 53.992 130.727 54.0594 130.638 54.1944C130.548 54.3294 130.503 54.5318 130.503 54.8017ZM131.837 60.5376C132.271 60.5376 132.629 60.4401 132.913 60.2452C132.794 60.1627 132.633 60.039 132.431 59.874C132.05 59.5666 131.665 59.2255 131.277 58.8506C130.896 58.4682 130.559 58.0933 130.268 57.7259C129.931 58.0783 129.763 58.4494 129.763 58.8393C129.763 59.1318 129.846 59.4092 130.01 59.6716C130.182 59.9265 130.425 60.1365 130.739 60.3014C131.053 60.4589 131.419 60.5376 131.837 60.5376ZM146.659 53.9245C146.674 53.9245 146.682 53.947 146.682 53.992C146.682 54.037 146.674 54.0594 146.659 54.0594C146.36 54.0594 146.125 54.1794 145.953 54.4193C145.781 54.6518 145.695 54.9667 145.695 55.3641V61.1224C145.695 61.1449 145.677 61.1599 145.639 61.1674C145.609 61.1749 145.587 61.1712 145.572 61.1562L140.314 55.1504V59.5254C140.314 59.9228 140.396 60.2377 140.561 60.4701C140.725 60.7026 140.953 60.8188 141.245 60.8188C141.26 60.8188 141.267 60.8413 141.267 60.8863C141.267 60.9312 141.26 60.9537 141.245 60.9537C141.035 60.9537 140.875 60.95 140.763 60.9425L140.157 60.9312L139.462 60.9425C139.335 60.95 139.152 60.9537 138.913 60.9537C138.89 60.9537 138.879 60.9312 138.879 60.8863C138.879 60.8413 138.89 60.8188 138.913 60.8188C139.242 60.8188 139.5 60.7026 139.686 60.4701C139.881 60.2377 139.978 59.9228 139.978 59.5254V54.768C139.731 54.4981 139.518 54.3144 139.339 54.2169C139.167 54.1119 138.988 54.0594 138.801 54.0594C138.786 54.0594 138.778 54.037 138.778 53.992C138.778 53.947 138.786 53.9245 138.801 53.9245L139.272 53.9357C139.369 53.9432 139.511 53.947 139.698 53.947L140.55 53.9357C140.654 53.9282 140.781 53.9245 140.931 53.9245C140.991 53.9245 141.035 53.9395 141.065 53.9695C141.095 53.9995 141.148 54.0632 141.222 54.1607C141.349 54.3331 141.439 54.4493 141.491 54.5093L145.37 58.9968V55.3641C145.37 54.9592 145.288 54.6405 145.123 54.4081C144.959 54.1757 144.731 54.0594 144.44 54.0594C144.425 54.0594 144.417 54.037 144.417 53.992C144.417 53.947 144.425 53.9245 144.44 53.9245L144.922 53.9357C145.161 53.9507 145.363 53.9582 145.527 53.9582C145.677 53.9582 145.886 53.9507 146.155 53.9357L146.659 53.9245ZM151.495 60.3464C151.525 60.3464 151.543 60.3652 151.551 60.4026C151.566 60.4326 151.558 60.4551 151.528 60.4701L150.374 61.0212C150.344 61.0362 150.306 61.0437 150.262 61.0437C150.142 61.0437 150.026 60.98 149.914 60.8525C149.809 60.7251 149.735 60.5526 149.69 60.3352L149.208 60.6726C149.036 60.8 148.875 60.8938 148.726 60.9537C148.576 61.0062 148.408 61.0325 148.221 61.0325C147.9 61.0325 147.657 60.9612 147.493 60.8188C147.328 60.6763 147.246 60.4776 147.246 60.2227C147.246 60.0203 147.295 59.8591 147.392 59.7391C147.489 59.6116 147.608 59.5141 147.75 59.4467C147.9 59.3717 148.105 59.2892 148.367 59.1992L148.647 59.098L149.656 58.7269V58.0858C149.656 57.6059 149.615 57.2573 149.533 57.0399C149.458 56.8224 149.327 56.7137 149.141 56.7137C148.744 56.7137 148.52 57.0211 148.468 57.6359C148.446 57.8609 148.378 58.0221 148.266 58.1195C148.161 58.217 148.012 58.2658 147.818 58.2658C147.631 58.2658 147.493 58.2283 147.403 58.1533C147.321 58.0708 147.28 57.9658 147.28 57.8384C147.28 57.6134 147.41 57.3997 147.672 57.1973C147.934 56.9874 148.247 56.8187 148.614 56.6912C148.987 56.5637 149.316 56.5 149.6 56.5C149.929 56.5 150.194 56.605 150.396 56.8149C150.605 57.0174 150.71 57.3285 150.71 57.7484V59.7391C150.71 59.9565 150.747 60.1252 150.822 60.2452C150.904 60.3652 151.016 60.4251 151.158 60.4251C151.263 60.4251 151.371 60.3989 151.484 60.3464H151.495ZM149.667 60.144C149.66 60.114 149.656 60.0652 149.656 59.9978V58.9181L149.174 59.143C149.152 59.1505 149.077 59.1805 148.95 59.233C148.823 59.278 148.711 59.3567 148.614 59.4692C148.524 59.5816 148.479 59.7128 148.479 59.8628C148.479 60.0427 148.535 60.1852 148.647 60.2902C148.767 60.3876 148.901 60.4364 149.051 60.4364C149.17 60.4364 149.294 60.3951 149.421 60.3127L149.667 60.144ZM153.03 55.3866C152.813 55.3866 152.645 55.3266 152.525 55.2066C152.406 55.0867 152.346 54.918 152.346 54.7005C152.346 54.5056 152.406 54.3519 152.525 54.2394C152.652 54.1194 152.82 54.0594 153.03 54.0594C153.239 54.0594 153.4 54.1157 153.512 54.2282C153.624 54.3406 153.68 54.4981 153.68 54.7005C153.68 54.918 153.624 55.0867 153.512 55.2066C153.4 55.3266 153.239 55.3866 153.03 55.3866ZM151.953 60.9537C151.931 60.9537 151.92 60.9312 151.92 60.8863C151.92 60.8413 151.931 60.8188 151.953 60.8188C152.185 60.8188 152.342 60.7663 152.424 60.6613C152.506 60.5489 152.548 60.3427 152.548 60.0427V58.0296C152.548 57.7746 152.521 57.5909 152.469 57.4785C152.417 57.366 152.331 57.3098 152.211 57.3098C152.114 57.3098 151.976 57.351 151.796 57.4335H151.785C151.755 57.4335 151.733 57.4147 151.718 57.3773C151.703 57.3323 151.707 57.306 151.729 57.2985L153.422 56.5112L153.456 56.5C153.493 56.5 153.53 56.5187 153.568 56.5562C153.605 56.5937 153.624 56.6275 153.624 56.6575V56.9049C153.609 57.2048 153.601 57.5722 153.601 58.0071V60.0427C153.601 60.3427 153.642 60.5489 153.725 60.6613C153.814 60.7663 153.975 60.8188 154.207 60.8188C154.229 60.8188 154.24 60.8413 154.24 60.8863C154.24 60.9312 154.229 60.9537 154.207 60.9537C154.012 60.9537 153.859 60.95 153.747 60.9425L153.074 60.9312L152.413 60.9425C152.301 60.95 152.148 60.9537 151.953 60.9537ZM154.853 60.9537C154.838 60.9537 154.831 60.9312 154.831 60.8863C154.831 60.8413 154.838 60.8188 154.853 60.8188C155.085 60.8188 155.242 60.7663 155.324 60.6613C155.414 60.5489 155.459 60.3427 155.459 60.0427L155.47 54.3294C155.47 54.0669 155.444 53.8795 155.391 53.767C155.346 53.6546 155.264 53.5983 155.145 53.5983C155.048 53.5983 154.906 53.6396 154.719 53.722H154.707C154.685 53.722 154.663 53.7033 154.64 53.6658C154.625 53.6208 154.625 53.5946 154.64 53.5871L156.288 52.8111L156.333 52.7998C156.37 52.7998 156.411 52.8186 156.456 52.856C156.501 52.886 156.524 52.916 156.524 52.946V60.0427C156.524 60.3427 156.565 60.5489 156.647 60.6613C156.729 60.7663 156.886 60.8188 157.118 60.8188C157.148 60.8188 157.163 60.8413 157.163 60.8863C157.163 60.9312 157.148 60.9537 157.118 60.9537C156.931 60.9537 156.781 60.95 156.669 60.9425L155.985 60.9312L155.313 60.9425C155.201 60.95 155.048 60.9537 154.853 60.9537ZM162.039 55.0604C162.039 55.3303 162.106 55.5703 162.241 55.7802C162.383 55.9901 162.555 56.1738 162.757 56.3313C162.958 56.4888 163.231 56.68 163.575 56.9049C163.949 57.1448 164.248 57.3548 164.472 57.5347C164.696 57.7147 164.887 57.9358 165.043 58.1983C165.2 58.4532 165.279 58.7494 165.279 59.0868C165.279 59.4767 165.174 59.8253 164.965 60.1327C164.756 60.4326 164.464 60.6688 164.091 60.8413C163.724 61.0062 163.313 61.0887 162.857 61.0887C162.521 61.0887 162.17 61.0437 161.804 60.9537C161.437 60.8563 161.191 60.7513 161.064 60.6388C161.026 60.6088 160.997 60.5826 160.974 60.5601C160.959 60.5301 160.952 60.4851 160.952 60.4251L160.918 58.6369V58.6256C160.918 58.5957 160.937 58.5807 160.974 58.5807C161.011 58.5732 161.034 58.5844 161.041 58.6144C161.266 59.0718 161.46 59.4429 161.624 59.7278C161.796 60.0128 162.009 60.2639 162.263 60.4814C162.525 60.6988 162.82 60.8075 163.149 60.8075C163.448 60.8075 163.694 60.7288 163.889 60.5713C164.083 60.4064 164.18 60.129 164.18 59.7391C164.18 59.4092 164.106 59.1205 163.956 58.8731C163.814 58.6256 163.638 58.4157 163.429 58.2433C163.22 58.0708 162.932 57.8646 162.566 57.6247C162.207 57.3923 161.927 57.1936 161.725 57.0286C161.531 56.8637 161.363 56.665 161.221 56.4325C161.079 56.2001 161.008 55.9264 161.008 55.6115C161.008 55.2141 161.12 54.8805 161.344 54.6105C161.576 54.3331 161.871 54.1307 162.23 54.0032C162.588 53.8683 162.966 53.8008 163.362 53.8008C163.623 53.8008 163.889 53.827 164.158 53.8795C164.427 53.9245 164.644 53.9807 164.808 54.0482C164.875 54.0782 164.92 54.1119 164.943 54.1494C164.965 54.1794 164.976 54.2207 164.976 54.2731V55.9264C164.976 55.9489 164.958 55.9677 164.92 55.9826C164.883 55.9901 164.86 55.9827 164.853 55.9602L164.763 55.7465C164.576 55.2741 164.356 54.873 164.102 54.5431C163.855 54.2132 163.508 54.0482 163.059 54.0482C162.76 54.0482 162.514 54.1344 162.319 54.3069C162.132 54.4793 162.039 54.7305 162.039 55.0604ZM170.555 60.3464C170.585 60.3464 170.604 60.3652 170.611 60.4026C170.626 60.4326 170.619 60.4551 170.589 60.4701L169.434 61.0212C169.404 61.0362 169.367 61.0437 169.322 61.0437C169.203 61.0437 169.087 60.98 168.975 60.8525C168.87 60.7251 168.795 60.5526 168.75 60.3352L168.268 60.6726C168.096 60.8 167.936 60.8938 167.786 60.9537C167.637 61.0062 167.469 61.0325 167.282 61.0325C166.96 61.0325 166.718 60.9612 166.553 60.8188C166.389 60.6763 166.307 60.4776 166.307 60.2227C166.307 60.0203 166.355 59.8591 166.452 59.7391C166.549 59.6116 166.669 59.5141 166.811 59.4467C166.96 59.3717 167.166 59.2892 167.428 59.1992L167.708 59.098L168.717 58.7269V58.0858C168.717 57.6059 168.676 57.2573 168.593 57.0399C168.519 56.8224 168.388 56.7137 168.201 56.7137C167.805 56.7137 167.581 57.0211 167.528 57.6359C167.506 57.8609 167.439 58.0221 167.327 58.1195C167.222 58.217 167.073 58.2658 166.878 58.2658C166.691 58.2658 166.553 58.2283 166.463 58.1533C166.381 58.0708 166.34 57.9658 166.34 57.8384C166.34 57.6134 166.471 57.3997 166.733 57.1973C166.994 56.9874 167.308 56.8187 167.674 56.6912C168.048 56.5637 168.377 56.5 168.661 56.5C168.99 56.5 169.255 56.605 169.457 56.8149C169.666 57.0174 169.771 57.3285 169.771 57.7484V59.7391C169.771 59.9565 169.808 60.1252 169.883 60.2452C169.965 60.3652 170.077 60.4251 170.219 60.4251C170.324 60.4251 170.432 60.3989 170.544 60.3464H170.555ZM168.728 60.144C168.72 60.114 168.717 60.0652 168.717 59.9978V58.9181L168.235 59.143C168.212 59.1505 168.138 59.1805 168.011 59.233C167.883 59.278 167.771 59.3567 167.674 59.4692C167.585 59.5816 167.54 59.7128 167.54 59.8628C167.54 60.0427 167.596 60.1852 167.708 60.2902C167.827 60.3876 167.962 60.4364 168.111 60.4364C168.231 60.4364 168.354 60.3951 168.481 60.3127L168.728 60.144ZM170.968 60.9537C170.953 60.9537 170.946 60.9312 170.946 60.8863C170.946 60.8413 170.953 60.8188 170.968 60.8188C171.2 60.8188 171.357 60.7663 171.439 60.6613C171.529 60.5489 171.574 60.3427 171.574 60.0427L171.585 54.3294C171.585 54.0669 171.559 53.8795 171.506 53.767C171.461 53.6546 171.379 53.5983 171.26 53.5983C171.163 53.5983 171.02 53.6396 170.834 53.722H170.822C170.8 53.722 170.778 53.7033 170.755 53.6658C170.74 53.6208 170.74 53.5946 170.755 53.5871L172.403 52.8111L172.448 52.7998C172.485 52.7998 172.526 52.8186 172.571 52.856C172.616 52.886 172.639 52.916 172.639 52.946V60.0427C172.639 60.3427 172.68 60.5489 172.762 60.6613C172.844 60.7663 173.001 60.8188 173.233 60.8188C173.263 60.8188 173.278 60.8413 173.278 60.8863C173.278 60.9312 173.263 60.9537 173.233 60.9537C173.046 60.9537 172.896 60.95 172.784 60.9425L172.1 60.9312L171.428 60.9425C171.316 60.95 171.163 60.9537 170.968 60.9537ZM176.232 61.0999C175.769 61.0999 175.362 60.995 175.01 60.785C174.667 60.5676 174.401 60.2789 174.215 59.919C174.028 59.5516 173.934 59.1542 173.934 58.7269C173.934 58.2395 174.058 57.8271 174.304 57.4897C174.551 57.1448 174.865 56.8899 175.246 56.7249C175.627 56.5525 176.019 56.4663 176.423 56.4663C176.886 56.4663 177.29 56.575 177.634 56.7924C177.978 57.0099 178.239 57.2985 178.418 57.6584C178.605 58.0108 178.699 58.3895 178.699 58.7944C178.699 59.2442 178.587 59.6454 178.362 59.9978C178.138 60.3427 177.836 60.6126 177.454 60.8075C177.081 61.0025 176.673 61.0999 176.232 61.0999ZM176.569 60.8638C176.86 60.8638 177.081 60.7213 177.23 60.4364C177.387 60.144 177.466 59.7278 177.466 59.188C177.466 58.6631 177.398 58.2133 177.264 57.8384C177.129 57.4635 176.954 57.1823 176.737 56.9949C176.52 56.7999 176.288 56.7024 176.042 56.7024C175.444 56.7024 175.145 57.2385 175.145 58.3107C175.145 58.8131 175.209 59.2592 175.336 59.6491C175.463 60.0315 175.635 60.3314 175.851 60.5489C176.068 60.7588 176.307 60.8638 176.569 60.8638ZM184.766 60.8188C184.789 60.8188 184.8 60.8413 184.8 60.8863C184.8 60.9312 184.789 60.9537 184.766 60.9537C184.572 60.9537 184.419 60.95 184.307 60.9425L183.634 60.9312L182.984 60.9425C182.864 60.95 182.707 60.9537 182.513 60.9537C182.491 60.9537 182.479 60.9312 182.479 60.8863C182.479 60.8413 182.491 60.8188 182.513 60.8188C182.745 60.8188 182.902 60.7663 182.984 60.6613C183.066 60.5489 183.107 60.3427 183.107 60.0427V58.4232C183.107 58.0183 183.032 57.7184 182.883 57.5235C182.741 57.3285 182.513 57.231 182.199 57.231C182.02 57.231 181.833 57.2685 181.639 57.3435C181.452 57.4185 181.287 57.5197 181.145 57.6472V60.0427C181.145 60.3427 181.186 60.5489 181.269 60.6613C181.358 60.7663 181.519 60.8188 181.751 60.8188C181.773 60.8188 181.784 60.8413 181.784 60.8863C181.784 60.9312 181.773 60.9537 181.751 60.9537C181.556 60.9537 181.403 60.95 181.291 60.9425L180.618 60.9312L179.957 60.9425C179.845 60.95 179.692 60.9537 179.497 60.9537C179.475 60.9537 179.464 60.9312 179.464 60.8863C179.464 60.8413 179.475 60.8188 179.497 60.8188C179.729 60.8188 179.886 60.7663 179.968 60.6613C180.051 60.5489 180.092 60.3427 180.092 60.0427V57.9283C180.092 57.6959 180.062 57.5272 180.002 57.4222C179.95 57.3098 179.864 57.2535 179.744 57.2535C179.617 57.2535 179.438 57.306 179.206 57.411H179.184C179.161 57.411 179.142 57.3922 179.128 57.3548C179.12 57.3173 179.124 57.2948 179.139 57.2873L180.697 56.5225C180.742 56.5075 180.768 56.5 180.775 56.5C180.858 56.5 180.936 56.5825 181.011 56.7474C181.086 56.9049 181.13 57.1223 181.145 57.3997C181.661 56.7849 182.229 56.4775 182.849 56.4775C183.253 56.4775 183.571 56.6087 183.802 56.8711C184.041 57.1261 184.161 57.4635 184.161 57.8834V60.0427C184.161 60.3427 184.202 60.5489 184.284 60.6613C184.374 60.7663 184.535 60.8188 184.766 60.8188Z" fill="white"/>
<path d="M108.373 44.1035C108.441 44.1035 108.474 44.2038 108.474 44.4045C108.474 44.6052 108.441 44.7055 108.373 44.7055H99.3703C98.6285 44.7055 97.246 43.3844 95.2229 40.7422C93.1997 38.0666 90.7551 34.3375 87.889 29.5549C87.6192 29.5883 87.2315 29.605 86.7257 29.605C85.4107 29.605 84.4834 29.5883 83.9439 29.5549V40.6419C83.9439 41.6787 84.0282 42.4312 84.1968 42.8995C84.3654 43.3677 84.6857 43.6854 85.1578 43.8526C85.6635 44.0199 86.4559 44.1035 87.5349 44.1035C87.6024 44.1035 87.6361 44.2038 87.6361 44.4045C87.6361 44.6052 87.6024 44.7055 87.5349 44.7055C86.4222 44.7055 85.5455 44.6888 84.9049 44.6553L81.0609 44.6052L77.3687 44.6553C76.6943 44.6888 75.7839 44.7055 74.6374 44.7055C74.5363 44.7055 74.4857 44.6052 74.4857 44.4045C74.4857 44.2038 74.5363 44.1035 74.6374 44.1035C75.7165 44.1035 76.492 44.0199 76.9641 43.8526C77.4698 43.6854 77.807 43.3677 77.9756 42.8995C78.1779 42.3978 78.2791 41.6453 78.2791 40.6419V17.4143C78.2791 16.4109 78.1948 15.6751 78.0262 15.2069C77.8576 14.7387 77.5204 14.4209 77.0146 14.2537C76.5089 14.053 75.7333 13.9527 74.688 13.9527C74.6206 13.9527 74.5869 13.8524 74.5869 13.6517C74.5869 13.451 74.6206 13.3507 74.688 13.3507L77.3687 13.4009C78.9198 13.4678 80.1505 13.5012 81.0609 13.5012C82.2073 13.5012 83.4044 13.451 84.652 13.3507C85.0903 13.3173 85.6298 13.2838 86.2705 13.2504C86.9449 13.2169 87.6867 13.2002 88.4959 13.2002C91.5644 13.2002 93.9415 13.7688 95.6275 14.9059C97.3134 16.0096 98.1564 17.5648 98.1564 19.5715C98.1564 21.411 97.6506 23.0832 96.6391 24.5883C95.6275 26.0598 94.2787 27.2471 92.5928 28.1502C95.2903 32.1636 97.5495 35.3074 99.3703 37.5817C101.191 39.856 102.81 41.5115 104.226 42.5483C105.642 43.5851 107.024 44.1035 108.373 44.1035ZM83.9439 28.1502C84.7531 28.2839 85.731 28.3508 86.8774 28.3508C88.8331 28.3508 90.2325 27.8157 91.0754 26.7455C91.9521 25.6418 92.3905 23.8859 92.3905 21.4779C92.3905 18.7354 91.9858 16.8457 91.1766 15.8089C90.3673 14.7721 89.204 14.2537 87.6867 14.2537C86.3379 14.2537 85.3769 14.5046 84.8037 15.0062C84.2305 15.5079 83.9439 16.344 83.9439 17.5146V28.1502ZM129.072 41.9964C129.207 41.9964 129.291 42.0801 129.325 42.2473C129.392 42.3811 129.359 42.4814 129.224 42.5483L124.014 45.0065C123.879 45.0734 123.711 45.1068 123.508 45.1068C122.969 45.1068 122.446 44.8226 121.94 44.254C121.468 43.6854 121.131 42.9162 120.929 41.9463L118.754 43.4513C117.978 44.0199 117.253 44.4379 116.579 44.7055C115.905 44.9396 115.146 45.0567 114.303 45.0567C112.853 45.0567 111.757 44.7389 111.015 44.1035C110.274 43.468 109.903 42.5817 109.903 41.4446C109.903 40.5416 110.122 39.8225 110.56 39.2874C110.999 38.7188 111.538 38.284 112.179 37.983C112.853 37.6486 113.78 37.2807 114.961 36.8793L116.225 36.4278L120.777 34.7723V31.9127C120.777 29.7722 120.592 28.2171 120.221 27.2471C119.884 26.2772 119.293 25.7923 118.451 25.7923C116.663 25.7923 115.652 27.1635 115.416 29.906C115.315 30.9094 115.011 31.6285 114.505 32.0632C114.033 32.498 113.359 32.7154 112.482 32.7154C111.639 32.7154 111.015 32.5482 110.611 32.2137C110.24 31.8458 110.055 31.3776 110.055 30.809C110.055 29.8057 110.645 28.8525 111.825 27.9495C113.005 27.013 114.421 26.2605 116.073 25.6919C117.759 25.1234 119.243 24.8391 120.524 24.8391C122.008 24.8391 123.205 25.3073 124.115 26.2438C125.059 27.1468 125.531 28.5348 125.531 30.4077V39.2874C125.531 40.2573 125.7 41.0098 126.037 41.5449C126.408 42.0801 126.914 42.3476 127.555 42.3476C128.027 42.3476 128.516 42.2306 129.021 41.9964H129.072ZM120.828 41.0934C120.794 40.9596 120.777 40.7422 120.777 40.4412V35.6251L118.602 36.6285C118.501 36.6619 118.164 36.7957 117.591 37.0298C117.017 37.2305 116.512 37.5817 116.073 38.0834C115.669 38.585 115.466 39.1703 115.466 39.8392C115.466 40.6419 115.719 41.2774 116.225 41.7456C116.765 42.1804 117.372 42.3978 118.046 42.3978C118.585 42.3978 119.142 42.2138 119.715 41.8459L120.828 41.0934ZM135.137 27.7488C135.137 28.7187 135.474 29.5549 136.148 30.2572C136.856 30.9596 137.868 31.6953 139.183 32.4646C140.464 33.2004 141.408 33.7857 142.015 34.2205C142.656 34.6218 143.229 35.2071 143.735 35.9763C144.241 36.7121 144.494 37.6151 144.494 38.6854C144.494 39.8225 144.207 40.8928 143.634 41.8961C143.061 42.8995 142.201 43.7189 141.054 44.3543C139.908 44.9563 138.542 45.2573 136.958 45.2573C135.103 45.2573 133.35 44.8058 131.697 43.9028C131.495 43.7021 131.394 43.5015 131.394 43.3008L131.293 38.3342C131.293 38.2339 131.377 38.1837 131.546 38.1837C131.748 38.1503 131.866 38.167 131.9 38.2339C132.439 39.9061 133.333 41.3275 134.58 42.4981C135.828 43.6687 137.092 44.254 138.374 44.254C139.082 44.254 139.638 44.0366 140.043 43.6018C140.481 43.167 140.7 42.5316 140.7 41.6954C140.7 40.458 140.346 39.4881 139.638 38.7857C138.93 38.0499 137.885 37.2974 136.502 36.5282C135.322 35.8927 134.429 35.3743 133.822 34.973C133.215 34.5716 132.675 34.0031 132.203 33.2673C131.731 32.5315 131.495 31.6285 131.495 30.5582C131.495 28.5849 132.203 27.1468 133.619 26.2438C135.036 25.3073 136.772 24.8391 138.829 24.8391C139.604 24.8391 140.296 24.8893 140.903 24.9896C141.543 25.0899 142.251 25.2906 143.027 25.5916C143.33 25.6919 143.482 25.8759 143.482 26.1435C143.482 26.9796 143.465 27.6318 143.432 28.1L143.381 30.6084C143.381 30.7087 143.28 30.7589 143.078 30.7589C142.875 30.7589 142.774 30.7087 142.774 30.6084C142.774 29.9729 142.504 29.2873 141.965 28.5515C141.425 27.7823 140.717 27.1301 139.84 26.595C138.998 26.0598 138.121 25.7923 137.21 25.7923C135.828 25.7923 135.137 26.4445 135.137 27.7488ZM184.598 44.1035C184.733 44.1035 184.8 44.2038 184.8 44.4045C184.8 44.6052 184.733 44.7055 184.598 44.7055C183.721 44.7055 183.03 44.6888 182.524 44.6553L179.489 44.6052L176.556 44.6553C176.016 44.6888 175.308 44.7055 174.431 44.7055C174.33 44.7055 174.28 44.6052 174.28 44.4045C174.28 44.2038 174.33 44.1035 174.431 44.1035C175.477 44.1035 176.185 43.8694 176.556 43.4011C176.96 42.8995 177.163 41.9797 177.163 40.6419V33.4178C177.163 31.6117 176.842 30.2739 176.202 29.4044C175.595 28.5348 174.651 28.1 173.369 28.1C172.493 28.1 171.633 28.2839 170.79 28.6518C169.947 29.0197 169.222 29.5214 168.615 30.1569V30.4579V40.6419C168.615 41.9797 168.8 42.8995 169.171 43.4011C169.576 43.8694 170.301 44.1035 171.346 44.1035C171.481 44.1035 171.548 44.2038 171.548 44.4045C171.548 44.6052 171.481 44.7055 171.346 44.7055C170.469 44.7055 169.778 44.6888 169.272 44.6553L166.238 44.6052L163.304 44.6553C162.765 44.6888 162.057 44.7055 161.18 44.7055C161.079 44.7055 161.028 44.6052 161.028 44.4045C161.028 44.2038 161.079 44.1035 161.18 44.1035C162.225 44.1035 162.933 43.8694 163.304 43.4011C163.709 42.8995 163.911 41.9797 163.911 40.6419V33.4178C163.911 31.6117 163.591 30.2739 162.95 29.4044C162.343 28.5348 161.399 28.1 160.118 28.1C159.309 28.1 158.499 28.2672 157.69 28.6017C156.914 28.9027 156.223 29.3375 155.616 29.906V40.6419C155.616 41.9797 155.802 42.8995 156.173 43.4011C156.577 43.8694 157.302 44.1035 158.348 44.1035C158.449 44.1035 158.499 44.2038 158.499 44.4045C158.499 44.6052 158.449 44.7055 158.348 44.7055C157.471 44.7055 156.78 44.6888 156.274 44.6553L153.239 44.6052L150.255 44.6553C149.749 44.6888 149.058 44.7055 148.181 44.7055C148.08 44.7055 148.03 44.6052 148.03 44.4045C148.03 44.2038 148.08 44.1035 148.181 44.1035C149.227 44.1035 149.935 43.8694 150.306 43.4011C150.676 42.8995 150.862 41.9797 150.862 40.6419V31.2104C150.862 30.1736 150.727 29.4211 150.457 28.9528C150.221 28.4512 149.833 28.2003 149.294 28.2003C148.721 28.2003 147.911 28.4344 146.866 28.9027H146.765C146.664 28.9027 146.58 28.8191 146.512 28.6518C146.478 28.4846 146.495 28.3843 146.563 28.3508L153.593 24.9394C153.795 24.8725 153.913 24.8391 153.947 24.8391C154.318 24.8391 154.672 25.207 155.009 25.9428C155.347 26.6451 155.549 27.5983 155.616 28.8023C157.909 26.0933 160.371 24.7388 163.001 24.7388C164.586 24.7388 165.85 25.1234 166.794 25.8926C167.738 26.6619 168.311 27.7655 168.514 29.2037C170.84 26.2271 173.42 24.7388 176.252 24.7388C178.073 24.7388 179.456 25.2572 180.4 26.294C181.378 27.3308 181.866 28.9027 181.866 31.0097V40.6419C181.866 41.9797 182.052 42.8995 182.423 43.4011C182.827 43.8694 183.552 44.1035 184.598 44.1035Z" fill="#C28565"/>
<path d="M65.8194 19.3345C65.668 18.4622 65.2906 17.4904 64.7507 16.6478V16.6466C64.0226 15.5122 63.0006 14.6128 61.8398 14.5083C60.0569 14.3483 58.4406 15.618 57.3429 17.0633C57.0679 17.426 56.8104 17.804 56.5606 18.1873C55.8149 19.3319 55.1297 20.523 54.1758 21.4869C52.4258 23.2548 50.3755 24.3491 47.9668 24.8601C45.5581 25.3711 42.7646 24.8072 40.4921 25.7685C38.2198 26.73 36.3574 28.9431 35.1638 31.1432C33.1563 34.8441 32.4043 39.1386 32.3362 43.2461V43.2486C32.3311 43.5364 32.3299 43.8216 32.3325 44.1068C32.359 48.4697 33.5778 52.8495 35.989 56.4498C38.9012 60.7997 43.9746 65.1705 49.1289 65.2118C50.7566 65.2247 52.2113 65.0375 53.521 64.6943C53.6422 64.6633 53.68 64.5446 53.6497 64.4491C53.6283 64.3794 53.569 64.3213 53.4769 64.3188C39.2771 64.0065 42.7608 51.8842 45.5581 49.2079C46.5536 48.2555 47.905 48.3549 49.3484 48.8272C49.9755 49.0323 50.619 49.3073 51.2587 49.5962L51.26 49.5976C52.0082 49.9357 52.7514 50.2931 53.4529 50.5809C55.0188 51.2235 56.3839 51.5203 57.1688 50.488C59.3403 47.6284 59.3074 48.8053 60.2613 46.5857C60.7989 45.334 59.2721 44.5417 58.0078 43.8926C57.8968 43.8359 57.9574 43.6642 58.0785 43.69C63.1899 44.7959 62.2511 41.0846 62.2511 41.0846C64.0277 41.1853 65.9026 39.722 64.9159 36.8456C63.9292 33.9692 63.9292 31.4968 63.9292 31.4968C64.1349 28.4462 64.9614 27.6809 65.5581 24.6846C65.9619 22.6483 66.1751 21.3798 65.8194 19.3345ZM60.6928 31.6064C60.6172 31.6309 60.5401 31.6542 60.4645 31.6761C60.332 31.7135 60.2386 31.8361 60.2386 31.9768V33.084C60.2386 33.3795 59.9938 33.6182 59.6999 33.5989C59.4324 33.5808 59.2292 33.3408 59.2292 33.0659V31.9949C59.2292 31.9264 59.175 31.871 59.1081 31.871C58.8267 31.871 58.5479 31.8452 58.2715 31.7948C58.2148 31.7845 58.1592 31.8155 58.1377 31.871L57.6911 33.0672C57.6142 33.2724 57.4224 33.3989 57.2193 33.3989C57.1524 33.3989 57.0842 33.3847 57.0187 33.3563C56.7688 33.2453 56.6577 32.9421 56.7562 32.6814L57.083 31.8065C57.1524 31.6207 57.0742 31.4116 56.9 31.3225C56.7953 31.2696 56.6919 31.2129 56.5883 31.1509C56.4294 31.0567 56.2263 31.0954 56.1089 31.2399L55.3392 32.191C55.2396 32.3136 55.0957 32.3782 54.9506 32.3782C54.8371 32.3782 54.7235 32.3394 54.6289 32.2594C54.4144 32.0787 54.3841 31.7523 54.5619 31.5329L55.3569 30.5509C55.4452 30.4412 55.4351 30.2812 55.3355 30.1831C55.2143 30.0657 55.0995 29.9482 54.9923 29.8308C54.9065 29.7367 54.7689 29.7186 54.6617 29.787L53.786 30.3444C53.7039 30.396 53.6119 30.4218 53.521 30.4218C53.3482 30.4218 53.1778 30.3315 53.0845 30.1651C52.9457 29.9212 53.0365 29.6076 53.2699 29.4579L53.9841 29.0037C54.109 28.9236 54.1469 28.7546 54.0661 28.6269C53.9425 28.4346 53.8756 28.3095 53.8668 28.2952C53.733 28.0449 53.8239 27.7313 54.0673 27.5945C54.3109 27.4578 54.6175 27.5493 54.7525 27.7984C54.7614 27.8152 55.3241 28.8437 56.3183 29.6979C56.8584 30.1611 57.4148 30.4825 57.9864 30.6644C58.0053 30.6696 58.0254 30.6748 58.0444 30.6825L58.0457 30.6838C58.809 30.9122 59.5964 30.8916 60.4027 30.6193C60.6765 30.5276 60.9729 30.6864 61.0486 30.9755C61.1156 31.2451 60.9515 31.52 60.6928 31.6064ZM61.6316 28.5636C61.624 28.5636 61.6164 28.5636 61.6089 28.5636C61.3414 28.5636 61.118 28.3469 61.1054 28.0707C61.0701 27.2436 60.7761 26.6267 60.2096 26.1815C58.3826 24.7478 54.4547 25.6151 54.4156 25.624C54.1444 25.6847 53.8743 25.5105 53.8138 25.2318C53.7545 24.953 53.9248 24.6781 54.1973 24.6162C54.3765 24.5762 58.6223 23.6367 60.8228 25.3621C61.629 25.9944 62.0631 26.89 62.1123 28.0242C62.1262 28.3095 61.9105 28.5507 61.6316 28.5636Z" fill="#C28565"/>
<path d="M53.6497 64.4475C50.7767 64.5727 46.6445 64.1145 43.3047 61.1918C38.1276 56.6597 36.7511 47.8655 40.718 40.1913C40.906 39.8275 41.4297 39.87 41.5609 40.2597C42.2978 42.4457 44.2837 46.437 49.3484 48.8269C47.905 48.3558 46.5537 48.2552 45.5581 49.2076C42.7608 51.8826 39.2771 64.0049 53.4769 64.3184C53.569 64.3197 53.6283 64.3778 53.6497 64.4475Z" fill="#C28565"/>
<path d="M45.5203 65.9991C42.8996 65.5293 40.2689 64.5448 38.5138 63.4595C37.4956 62.8297 36.5757 62.0633 35.69 61.249C33.8832 59.1663 32.2719 56.9029 30.5282 54.762C28.3314 52.0651 25.8483 49.5061 22.7595 47.9731C19.5068 46.3588 15.7278 45.9562 12.4914 44.396C13.6094 45.3432 14.9783 46.0195 16.3523 46.5381C18.4229 47.3201 20.5994 47.8312 22.564 48.8609C25.4168 50.3578 27.6426 52.8548 29.5831 55.4679C29.8153 55.7802 30.0437 56.095 30.2708 56.4112C30.3074 56.4628 30.2481 56.5286 30.1951 56.4938C26.7858 54.2407 22.8 52.9632 18.8935 51.745C15.242 50.6068 11.5186 49.4481 8.2355 47.5086C7.45826 47.0505 6.70628 46.5485 5.98456 45.991C2.6182 43.3947 0.0315838 39.3402 0.00256348 35.1011C2.25479 36.6303 5.05084 37.6304 7.51125 38.22C11.8693 39.2653 16.4785 39.4602 20.5439 41.3764C24.6685 43.3199 27.9467 46.7718 30.5875 50.5785C30.8386 50.9411 31.0846 51.3063 31.3244 51.6741C32.3766 53.2871 33.3583 54.9272 34.3804 56.4925C34.3816 56.4951 34.3828 56.4977 34.3853 56.4989V56.5003C36.201 59.2837 38.1441 61.8323 40.8404 63.586C41.8208 64.2235 42.9892 64.8571 44.2825 65.4016C44.6926 65.5745 45.1166 65.7384 45.5494 65.8894C45.6099 65.9152 45.5859 66.012 45.5203 65.9991Z" fill="#C28565"/>
<path d="M35.1448 62.9248C32.0498 61.0641 28.8147 59.3684 25.394 58.9697C22.357 58.6161 19.2481 58.2767 16.5012 56.963C17.9484 58.0354 19.9067 58.6716 21.5912 59.0238C23.6251 59.4497 25.736 59.6987 27.7295 60.2924C29.1263 60.7092 31.0946 61.6964 33.0302 62.7739C33.087 62.8061 33.063 62.8964 32.9986 62.8926C32.2214 62.8551 31.4391 62.8758 30.6707 62.9325C28.2305 63.1145 25.8004 63.6126 23.3563 63.4887C20.1212 63.3249 16.953 62.0293 14.4913 59.8768C14.3562 59.7594 14.2238 59.6381 14.0925 59.5155C12.0107 57.5528 10.5092 54.9591 9.80261 52.1562C10.0814 52.3059 10.3666 52.4453 10.6593 52.5743C12.4649 53.3731 14.49 53.7834 16.452 54.026C19.9155 54.4558 23.514 54.5332 26.6835 56.0223C27.4419 56.3785 28.156 56.8069 28.8412 57.2831C30.6102 58.5168 32.1797 60.0795 33.7633 61.5712C34.2275 62.0086 34.7008 62.4448 35.184 62.8655C35.2156 62.8964 35.1814 62.9468 35.1448 62.9248Z" fill="#C28565"/>
<path d="M36.9819 23.2507C36.8809 24.2882 36.1832 25.2121 35.1473 25.5373C33.9625 25.9077 32.7185 25.3747 32.1241 24.3217C32.0258 24.1501 31.9463 23.963 31.887 23.7643C31.4655 22.3538 32.2415 20.8608 33.6206 20.4299C34.9998 19.9988 36.4596 20.7924 36.8809 22.2029C36.9857 22.5526 37.016 22.9074 36.9819 23.2507Z" fill="#C28565"/>
<path d="M43.9091 11.6926C43.7791 12.0707 43.6252 12.4268 43.4447 12.7494C41.7073 15.8555 39.1169 17.0671 37.0918 17.7731C36.6275 16.0219 36.2275 13.7482 36.9858 11.1918C37.1423 10.6653 37.3479 10.1272 37.6116 9.57755C39.0904 6.50761 44.1412 3.74351 44.4403 3.6377C44.5134 3.91643 44.9853 8.57873 43.9091 11.6926Z" fill="#C28565"/>
<path d="M37.382 5.03266C37.3605 5.09589 37.3391 5.16043 37.3138 5.22236C37.0022 6.00049 36.3852 6.60828 35.8641 7.26381C35.4754 6.51794 34.9821 5.80176 34.8218 4.97718C34.7096 4.40036 34.7689 3.81709 34.9266 3.25059C35.0806 2.697 35.3279 2.16019 35.6029 1.65821C35.835 1.23624 36.0874 0.820709 36.3271 0.401321C36.4028 0.268407 36.4773 0.134204 36.5479 0C36.5114 0.387128 36.4748 0.785872 36.4356 1.19623C36.365 1.96016 36.2893 2.76022 36.2111 3.58739C36.1871 3.84161 36.1632 4.09839 36.1391 4.35777C36.1644 4.09839 36.1871 3.84161 36.2111 3.58739C36.2893 2.76022 36.3637 1.95887 36.4356 1.19623C36.4748 0.785872 36.5114 0.387128 36.5479 0C36.5922 0.145819 36.6401 0.291638 36.6893 0.437456C36.8457 0.896848 37.0173 1.35237 37.1649 1.81306C37.5006 2.85313 37.7175 4.00419 37.382 5.03266Z" fill="#C28565"/>
<path d="M54.8711 16.5765C54.7298 16.8268 51.829 20.4773 48.9105 21.8956C48.561 22.0659 48.2116 22.2027 47.8671 22.2994C44.4906 23.2402 41.822 22.2233 39.9016 21.258C40.4934 20.2025 41.2694 18.9998 42.4113 17.9429C43.3223 17.1003 44.4654 16.3493 45.9353 15.8396C49.1036 14.7375 54.586 16.4358 54.8711 16.5765Z" fill="#C28565"/>
<path d="M51.3684 8.42207C50.9091 8.54595 50.4436 8.65565 49.9881 8.78728C48.8942 9.10214 47.7737 9.60277 47.1416 10.5694C46.9788 10.8184 46.8551 11.0881 46.7529 11.3707L46.7517 11.372C46.5675 11.8791 46.4514 12.4211 46.2974 12.9411C47.1188 12.8547 47.9756 12.8715 48.7339 12.5463C49.2083 12.3424 49.6108 12.0211 49.954 11.6313C50.3716 11.1617 50.706 10.5965 50.9862 10.0287C51.1993 9.59636 51.3937 9.14987 51.6006 8.71242C51.6663 8.57434 51.7331 8.43628 51.8012 8.30078C51.6586 8.34208 51.5148 8.38207 51.3684 8.42207ZM51.024 8.95502C51.1564 8.84275 51.2889 8.73049 51.4189 8.6221C51.2889 8.73178 51.1578 8.84275 51.024 8.95502Z" fill="#C28565"/>
<path d="M31.1551 36.3889C29.6763 39.4587 24.6242 42.2229 24.3264 42.3287C24.2457 42.0164 23.6615 36.1876 25.322 33.217C27.0594 30.1109 29.6485 28.8992 31.6737 28.1946L31.6749 28.1934C32.2351 30.3057 32.7007 33.1782 31.1551 36.3889Z" fill="#C28565"/>
<path d="M19.0134 21.4687C18.2841 21.8674 17.5838 22.3707 16.7775 22.5346C15.6634 22.7617 14.5253 22.3049 13.5336 21.7358C13.1197 21.4997 12.7146 21.2403 12.3046 20.9951C12.1746 20.9177 12.0434 20.8416 11.9122 20.7693C12.0548 20.7229 12.1974 20.6738 12.3399 20.6235C12.7891 20.4635 13.2345 20.2879 13.6837 20.137C14.7625 19.773 15.9662 19.546 17.0172 19.986C17.7768 20.3047 18.3711 20.9345 19.0108 21.4674C19.0134 21.4687 19.0134 21.4687 19.0134 21.4687Z" fill="#C28565"/>
<path d="M28.865 24.7093C27.8027 26.6074 26.1448 28.9767 22.8314 30.1278C19.6631 31.2285 14.1807 29.5303 13.8969 29.3896C14.0546 29.1096 17.6721 24.5661 20.9009 23.6666C24.276 22.7259 26.9447 23.7414 28.8638 24.708L28.865 24.7093Z" fill="#C28565"/>
<path d="M20.0329 33.4215C18.9843 33.8706 18.2904 34.9004 17.7793 35.9391C17.5662 36.3714 17.3718 36.8179 17.1649 37.2553C17.0993 37.3935 17.0324 37.5315 16.963 37.667C17.1068 37.6245 17.2519 37.5832 17.397 37.5444C17.8563 37.4205 18.3219 37.3095 18.7774 37.1792C19.8714 36.8631 20.9918 36.3637 21.6226 35.3971C22.0794 34.6977 22.227 33.8358 22.4668 33.0266V33.0254C21.6466 33.1144 20.7899 33.0976 20.0329 33.4215ZM17.4753 37.2373C17.6482 37.0915 17.8236 36.9431 18.0027 36.7921C17.8236 36.9444 17.6469 37.0928 17.4753 37.2373Z" fill="#C28565"/>
<path d="M29.2892 20.2119C27.2249 20.7849 24.415 21.2624 21.2757 19.6804C20.1035 19.0906 18.9781 17.9421 18.033 16.7446V16.7434C16.5606 14.8735 15.5322 12.8837 15.4691 12.6965C15.7745 12.6139 21.4738 12.0165 24.3784 13.7147C25.1771 14.1818 25.8471 14.7083 26.4135 15.2697C28.0021 16.8453 28.7807 18.6855 29.2892 20.2119Z" fill="#C28565"/>
<path d="M24.2584 8.53228C24.2331 8.45614 24.2066 8.3813 24.1763 8.30645C23.7372 7.23539 22.7304 6.52567 21.7147 6.00304C21.292 5.78496 20.8554 5.58623 20.4277 5.37461C20.2927 5.30751 20.1577 5.23911 20.0252 5.16943C20.0669 5.31654 20.1072 5.46493 20.1464 5.61333C20.2674 6.08304 20.3747 6.55922 20.5034 7.02635C20.6296 7.48704 20.7885 7.95416 20.9967 8.38774C21.292 9.00586 21.6894 9.55816 22.2446 9.93757C22.9285 10.4034 23.7726 10.5544 24.5624 10.8008V10.7995C24.4855 10.0382 24.4905 9.24975 24.2584 8.53228Z" fill="#C28565"/>
<path d="M32.6958 17.3394C30.8398 16.2515 28.5232 14.5572 27.3977 11.1686C27.1806 10.5157 27.0747 9.76845 27.0456 8.98648C26.9283 5.88558 28.0096 2.26207 28.1194 2.02979C28.3869 2.18851 32.6554 5.74106 33.656 8.98777C33.6762 9.05616 33.6964 9.12455 33.714 9.19165C34.6338 12.6461 33.6408 15.3753 32.6958 17.3394Z" fill="#C28565"/>
<path d="M30.5849 50.5794C25.8117 44.3222 20.5994 41.6239 14.7865 40.7799C12.6869 40.4754 8.99503 39.8211 6.89294 39.523C5.3044 39.2985 3.70953 38.9295 2.25348 38.2585C3.39031 41.8123 5.49746 45.0268 8.23294 47.5095C7.4557 47.0514 6.70368 46.5494 5.98196 45.992C2.6156 43.3956 0.0290203 39.3411 0 35.1021C2.25223 36.6312 5.04824 37.6313 7.50867 38.221C11.8667 39.2663 16.476 39.4611 20.5413 41.3774C24.6672 43.3207 27.944 46.7713 30.5849 50.5794Z" fill="#C28565"/>
<path d="M34.3822 56.5023C34.3811 56.5001 34.3789 56.4979 34.3777 56.4956C34.3789 56.4979 34.38 56.5001 34.3822 56.5013V56.5023Z" fill="#C28565"/>
<path d="M25.1076 55.7934C20.5552 54.6113 15.5801 55.4605 11.1968 53.788C11.7545 55.8515 12.8371 57.7445 14.1341 59.4285C14.2502 59.5795 14.3701 59.7305 14.49 59.8789C14.355 59.7614 14.2225 59.6401 14.0912 59.5176C12.0094 57.5548 10.5079 54.961 9.80133 52.1582C10.0801 52.3079 10.3653 52.4473 10.658 52.5764C12.4636 53.3751 14.4887 53.7855 16.4507 54.0281C19.9142 54.4578 23.5128 54.5352 26.6823 56.0244C27.4406 56.3805 28.1547 56.8089 28.8399 57.2851C27.6626 56.6347 26.406 56.1302 25.1076 55.7934Z" fill="#C28565"/>
<path d="M64.7507 16.6476C64.6182 16.574 64.482 16.5082 64.3419 16.4476C62.6449 15.7198 60.5579 16.0618 59.1662 17.2954C57.8754 18.44 57.1297 20.0827 56.1797 21.5357C54.3564 24.3256 51.3484 26.1967 48.0413 26.4445C44.974 26.6742 41.9382 26.7774 39.3402 28.4615C36.519 30.2913 34.6894 33.4167 33.7254 36.6879C33.111 38.7694 32.6441 41.0108 32.3363 43.2445C32.4044 39.1372 33.1564 34.8426 35.1638 31.1416C36.3575 28.9415 38.2198 26.7297 40.4922 25.7671C42.7647 24.8057 45.5582 25.3696 47.9669 24.8585C50.3755 24.3476 52.4259 23.2533 54.1759 21.4854C55.1298 20.5227 55.815 19.3304 56.5607 18.1858C56.8104 17.8026 57.0666 17.4245 57.343 17.0619C58.4407 15.6166 60.057 14.3468 61.8398 14.5068C63.0007 14.6139 64.0226 15.5133 64.7507 16.6476Z" fill="#C28565"/>
<path d="M31.6724 28.1943C31.5665 28.2628 24.734 32.6656 24.3252 42.3284C24.2445 42.0162 23.6603 36.1872 25.3208 33.2167C27.0595 30.1106 29.6486 28.8989 31.6724 28.1943Z" fill="#C28565"/>
<path d="M22.4693 33.0273C22.4693 33.0273 19.3225 34.4055 16.9642 37.669C17.0336 37.5335 17.1005 37.3955 17.1661 37.2574C17.3731 36.8199 17.5674 36.3735 17.7807 35.9412C18.2916 34.9036 18.9855 33.8738 20.0341 33.4235C20.7899 33.0983 21.6467 33.1151 22.4693 33.0273Z" fill="#C28565"/>
<path d="M28.8638 24.7077C28.725 24.6857 21.2277 23.5024 13.8982 29.3893C14.0559 29.1093 17.6733 24.5657 20.9021 23.6663C24.2761 22.7269 26.9447 23.7424 28.8638 24.7077Z" fill="#C28565"/>
<path d="M19.012 21.4689C16.9478 20.3449 11.9122 20.7708 11.9122 20.7708C12.0548 20.7243 12.1974 20.6753 12.3399 20.6249C12.7891 20.4649 13.2345 20.2895 13.6837 20.1384C14.7625 19.7746 15.9662 19.5474 17.0172 19.9875C17.7768 20.3049 18.3724 20.9359 19.012 21.4689Z" fill="#C28565"/>
<path d="M33.6559 8.98906C32.4395 6.72823 30.5924 4.8197 28.3817 3.57186C27.7396 5.3178 27.2916 7.13859 27.0443 8.98648C26.9269 5.88558 28.0083 2.26207 28.118 2.02979C28.3881 2.1898 32.6553 5.74106 33.6559 8.98906Z" fill="#C28565"/>
<path d="M43.9089 11.6929C44.1374 9.56492 44.0755 7.40476 43.7235 5.29362C40.9148 6.40468 38.5062 8.53389 36.9869 11.1909C37.1435 10.6644 37.3491 10.1263 37.6128 9.57652C39.0916 6.50663 44.1424 3.74254 44.4415 3.63672C44.5133 3.91674 44.9852 8.57904 43.9089 11.6929Z" fill="#C28565"/>
<path d="M54.871 16.5765C54.7297 16.8268 51.829 20.4775 48.9105 21.8956C49.6057 21.4452 50.2492 20.9033 50.8283 20.3058C51.7759 19.3329 52.5722 18.2192 53.3015 17.0617C50.9457 16.1816 48.3402 16.0074 45.8937 16.574C44.6773 16.8552 43.5014 17.3198 42.4113 17.9418C43.3222 17.0991 44.4654 16.3481 45.9353 15.8383C49.1036 14.7377 54.5859 16.4358 54.871 16.5765Z" fill="#C28565"/>
<path d="M26.4122 15.271C25.7334 14.8877 25.0761 14.4941 24.3404 14.1999C22.5942 13.5018 20.7117 13.1598 18.8379 13.1998C18.0216 13.2166 17.2077 13.3083 16.4078 13.4734C16.674 14.4232 17.2419 15.3677 17.7112 16.1962C17.8146 16.3807 17.9219 16.5627 18.0317 16.7434C16.5592 14.8735 15.5309 12.8837 15.4678 12.6965C15.7732 12.6139 21.4725 12.0165 24.377 13.7147C25.1745 14.1831 25.8457 14.7096 26.4122 15.271Z" fill="#C28565"/>
<path d="M20.684 5.98641C20.6335 5.97093 20.5817 5.95544 20.53 5.93996C20.6776 6.71938 20.8265 7.4975 20.9742 8.27691C20.9805 8.31305 20.988 8.34917 20.9956 8.3853C20.7874 7.95172 20.6297 7.4846 20.5023 7.02392C20.3736 6.55678 20.2663 6.0806 20.1452 5.61089C20.1073 5.46249 20.0669 5.3141 20.024 5.16699C20.1565 5.23668 20.2915 5.30506 20.4266 5.37217C20.8543 5.58379 21.2909 5.78252 21.7136 6.0006C22.728 6.52323 23.7361 7.23297 24.1752 8.30403C24.2055 8.37887 24.2332 8.45372 24.2572 8.52985C23.3614 7.3362 22.0946 6.43032 20.684 5.98641Z" fill="#C28565"/>
<path d="M37.1662 1.81403C37.0185 1.35335 36.8469 0.897824 36.6905 0.438432C36.6413 0.293905 36.5933 0.148085 36.5492 0.000976562L36.5479 0.00355993V0.000976562C36.4772 0.135181 36.4028 0.269383 36.3271 0.402297C36.0887 0.821685 35.8351 1.2372 35.6028 1.65917C35.329 2.15985 35.0805 2.69797 34.9265 3.25157C35.2584 2.45666 35.7782 1.74176 36.4343 1.1972C36.4444 1.18817 36.4545 1.18043 36.4647 1.1714C37.1043 2.34181 37.4236 3.69288 37.3807 5.03234C37.7176 4.00387 37.5005 2.85282 37.1662 1.81403Z" fill="#C28565"/>
<path d="M51.8025 8.29785C51.7344 8.43335 51.6675 8.57142 51.6019 8.70949C51.395 9.14695 51.2006 9.59344 50.9874 10.0257C50.7073 10.5935 50.3729 11.1587 49.9553 11.6284C50.431 10.7935 50.7918 9.89025 51.024 8.95467V8.95338C51.0304 8.92758 51.0366 8.90177 51.0442 8.87596C51.0379 8.90048 50.349 9.12373 50.2796 9.1405C50.0399 9.19728 49.621 9.35729 49.3901 9.44249C48.5548 9.75212 48.0059 10.018 47.3674 10.6477C47.2059 10.8064 47.0533 10.9755 46.9094 11.1523C46.864 11.2078 46.8123 11.3032 46.7542 11.3665C46.8564 11.0851 46.9801 10.8142 47.1429 10.5651C47.775 9.59863 48.8954 9.09921 49.9893 8.78306C50.4448 8.65143 50.9104 8.54174 51.3697 8.41786C51.5148 8.38172 51.6587 8.34173 51.8025 8.29785Z" fill="#C28565"/>
<path d="M36.9821 23.2509C36.9518 23.1244 36.9417 22.967 36.9152 22.8676C36.8648 22.6779 36.8055 22.4908 36.731 22.3088C36.5645 21.8998 36.3171 21.5152 35.9689 21.2519C35.6345 20.9977 35.2207 20.8661 34.8056 20.8391C33.7797 20.7719 32.74 21.381 32.2782 22.3217C31.9767 22.936 31.9338 23.6663 32.1244 24.3232C32.0259 24.1516 31.9464 23.9644 31.8871 23.7657C31.4657 22.3553 32.2416 20.8623 33.6208 20.4313C34.9999 20.0003 36.4597 20.7939 36.8812 22.2043C36.9858 22.5527 37.0162 22.9076 36.9821 23.2509Z" fill="#C28565"/>
<path d="M34.3828 24.8172C35.5994 24.8172 36.5858 23.8085 36.5858 22.5642C36.5858 21.3198 35.5994 20.311 34.3828 20.311C33.1661 20.311 32.1797 21.3198 32.1797 22.5642C32.1797 23.8085 33.1661 24.8172 34.3828 24.8172Z" fill="#C28565"/>
</svg>
