<svg width="297" height="107" viewBox="0 0 297 107" fill="none" xmlns="http://www.w3.org/2000/svg">
<path d="M90.6583 91.6176C91.6673 91.7381 92.466 92.0755 93.0546 92.6298C93.6551 93.1841 93.9554 93.8709 93.9554 94.6903C93.9554 95.3169 93.7752 95.8833 93.4149 96.3894C93.0546 96.8955 92.5561 97.2992 91.9195 97.6005C91.2829 97.8897 90.5742 98.0343 89.7935 98.0343C89.4572 98.0343 89.0729 98.0162 88.6405 97.98C88.4723 97.968 88.2621 97.9559 88.0099 97.9439C87.7696 97.9318 87.4994 97.9258 87.1991 97.9258L85.8839 97.9439C85.6437 97.9559 85.3194 97.962 84.911 97.962C84.8749 97.962 84.8569 97.9258 84.8569 97.8535C84.8569 97.7812 84.8749 97.7451 84.911 97.7451C85.2593 97.7451 85.5236 97.7149 85.7037 97.6547C85.8839 97.5824 86.01 97.4619 86.0821 97.2932C86.1661 97.1124 86.2082 96.8473 86.2082 96.4979V88.129C86.2082 87.6229 86.1241 87.2916 85.956 87.1349C85.7878 86.9662 85.4455 86.8818 84.929 86.8818C84.905 86.8818 84.893 86.8457 84.893 86.7734C84.893 86.7011 84.905 86.6649 84.929 86.6649L85.8839 86.683C86.4364 86.7071 86.8748 86.7192 87.1991 86.7192C87.5354 86.7192 87.8837 86.7011 88.2441 86.6649C88.3642 86.6529 88.5444 86.6408 88.7846 86.6288C89.0248 86.6167 89.235 86.6107 89.4152 86.6107C90.5082 86.6107 91.355 86.8095 91.9555 87.2072C92.5561 87.6049 92.8564 88.1833 92.8564 88.9424C92.8564 89.5208 92.6642 90.045 92.2798 90.515C91.9075 90.9849 91.367 91.3524 90.6583 91.6176ZM89.1449 87.0084C88.7966 87.0084 88.5564 87.0927 88.4243 87.2614C88.2921 87.4181 88.2261 87.7193 88.2261 88.1652V91.5995L88.9467 91.6176C89.5713 91.6176 90.0518 91.3826 90.3881 90.9126C90.7244 90.4427 90.8925 89.8402 90.8925 89.1051C90.8925 88.4182 90.7424 87.9001 90.4421 87.5506C90.1418 87.1891 89.7094 87.0084 89.1449 87.0084ZM89.4872 97.5824C91.0607 97.5824 91.8474 96.763 91.8474 95.1241C91.8474 94.1963 91.6252 93.4612 91.1808 92.919C90.7364 92.3767 90.0638 92.1056 89.1629 92.1056C88.8146 92.1056 88.5023 92.1176 88.2261 92.1417V96.4979C88.2261 96.8955 88.3041 97.1787 88.4603 97.3474C88.6164 97.5041 88.9587 97.5824 89.4872 97.5824ZM101.878 96.769C101.902 96.769 101.926 96.7931 101.95 96.8413C101.986 96.8895 101.992 96.9256 101.968 96.9497C101.523 97.3836 101.073 97.6969 100.617 97.8897C100.16 98.0825 99.6618 98.1789 99.1213 98.1789C98.3646 98.1789 97.7099 98.0222 97.1574 97.7089C96.6049 97.3836 96.1845 96.9558 95.8963 96.4256C95.608 95.8833 95.4638 95.2989 95.4638 94.6723C95.4638 93.9734 95.638 93.3287 95.9863 92.7382C96.3347 92.1478 96.8151 91.6838 97.4277 91.3464C98.0523 90.997 98.7549 90.8222 99.5356 90.8222C100.28 90.8222 100.857 90.9909 101.265 91.3284C101.674 91.6658 101.878 92.1899 101.878 92.9009C101.878 93.2744 101.812 93.4612 101.68 93.4612L97.3016 93.4793C97.2895 93.5637 97.2835 93.7022 97.2835 93.895C97.2835 94.9554 97.5238 95.7869 98.0042 96.3894C98.4967 96.9919 99.1993 97.2932 100.112 97.2932C100.436 97.2932 100.713 97.257 100.941 97.1847C101.169 97.1124 101.469 96.9799 101.842 96.7871L101.878 96.769ZM98.851 91.1837C98.4546 91.1837 98.1243 91.3585 97.8601 91.7079C97.5958 92.0453 97.4217 92.5153 97.3376 93.1178L99.95 93.0816C99.938 92.4671 99.8479 91.9971 99.6798 91.6718C99.5116 91.3464 99.2354 91.1837 98.851 91.1837ZM109.932 96.9859C109.98 96.9859 110.01 97.016 110.022 97.0763C110.046 97.1245 110.034 97.1606 109.986 97.1847L108.13 98.0704C108.082 98.0945 108.022 98.1066 107.95 98.1066C107.758 98.1066 107.571 98.0041 107.391 97.7993C107.223 97.5944 107.103 97.3173 107.031 96.9678L106.256 97.5101C105.98 97.7149 105.722 97.8656 105.481 97.962C105.241 98.0463 104.971 98.0885 104.671 98.0885C104.154 98.0885 103.764 97.974 103.5 97.7451C103.235 97.5161 103.103 97.1968 103.103 96.7871C103.103 96.4617 103.181 96.2026 103.337 96.0098C103.494 95.805 103.686 95.6483 103.914 95.5399C104.154 95.4194 104.485 95.2868 104.905 95.1422L105.355 94.9795L106.977 94.3831V93.3528C106.977 92.5816 106.911 92.0212 106.779 91.6718C106.659 91.3223 106.448 91.1476 106.148 91.1476C105.511 91.1476 105.151 91.6417 105.067 92.6298C105.031 92.9913 104.923 93.2504 104.743 93.407C104.575 93.5637 104.334 93.642 104.022 93.642C103.722 93.642 103.5 93.5817 103.355 93.4612C103.223 93.3287 103.157 93.16 103.157 92.9551C103.157 92.5936 103.368 92.2502 103.788 91.9248C104.208 91.5874 104.713 91.3163 105.301 91.1114C105.902 90.9066 106.43 90.8042 106.887 90.8042C107.415 90.8042 107.842 90.9729 108.166 91.3103C108.502 91.6356 108.67 92.1357 108.67 92.8105V96.0098C108.67 96.3593 108.73 96.6304 108.851 96.8232C108.983 97.016 109.163 97.1124 109.391 97.1124C109.559 97.1124 109.733 97.0702 109.914 96.9859H109.932ZM106.995 96.6605C106.983 96.6123 106.977 96.534 106.977 96.4256V94.6903L106.202 95.0518C106.166 95.0639 106.046 95.1121 105.842 95.1965C105.638 95.2688 105.457 95.3953 105.301 95.576C105.157 95.7568 105.085 95.9677 105.085 96.2087C105.085 96.4979 105.175 96.7268 105.355 96.8955C105.548 97.0522 105.764 97.1305 106.004 97.1305C106.196 97.1305 106.394 97.0642 106.599 96.9317L106.995 96.6605ZM118.956 96.7871C118.992 96.7871 119.022 96.8172 119.046 96.8774C119.082 96.9377 119.082 96.9738 119.046 96.9859L116.56 98.1969C116.536 98.209 116.506 98.215 116.47 98.215C116.35 98.215 116.242 98.0885 116.146 97.8354C116.062 97.5703 116.013 97.2148 116.001 96.769C115.209 97.7089 114.35 98.1789 113.425 98.1789C112.764 98.1789 112.242 97.974 111.858 97.5643C111.485 97.1425 111.299 96.5943 111.299 95.9195V93.2624C111.299 92.4791 111.113 92.0875 110.741 92.0875C110.608 92.0875 110.458 92.1297 110.29 92.214H110.272C110.224 92.214 110.188 92.1839 110.164 92.1237C110.14 92.0514 110.146 92.0092 110.182 91.9971L112.596 90.8403L112.686 90.8222C112.746 90.8222 112.806 90.8524 112.867 90.9126C112.939 90.9608 112.975 91.009 112.975 91.0572V95.0518C112.975 96.3533 113.473 97.004 114.47 97.004C114.734 97.004 114.999 96.9497 115.263 96.8413C115.539 96.7208 115.785 96.5581 116.001 96.3533V93.2624C116.001 92.4791 115.815 92.0875 115.443 92.0875C115.311 92.0875 115.155 92.1297 114.975 92.214H114.956C114.92 92.214 114.89 92.1839 114.866 92.1237C114.842 92.0514 114.848 92.0092 114.884 91.9971L117.299 90.8403C117.323 90.8283 117.353 90.8222 117.389 90.8222C117.449 90.8222 117.509 90.8524 117.569 90.9126C117.641 90.9608 117.677 91.009 117.677 91.0572V95.8652C117.677 96.2749 117.713 96.5641 117.785 96.7328C117.869 96.9015 118.001 96.9859 118.181 96.9859C118.35 96.9859 118.596 96.9196 118.92 96.7871H118.956ZM124.9 96.6967C124.948 96.6967 124.984 96.7208 125.008 96.769C125.044 96.8172 125.044 96.8533 125.008 96.8774C124.563 97.3233 124.131 97.6547 123.711 97.8716C123.29 98.0764 122.846 98.1789 122.377 98.1789C121.849 98.1789 121.398 98.0523 121.026 97.7993C120.654 97.5462 120.468 97.1184 120.468 96.5159V92.5032C120.468 92.1297 120.401 91.8706 120.269 91.726C120.137 91.5814 119.897 91.5091 119.549 91.5091C119.537 91.5091 119.519 91.491 119.495 91.4549C119.483 91.4187 119.477 91.3826 119.477 91.3464C119.477 91.2982 119.483 91.2621 119.495 91.238C119.507 91.2018 119.525 91.1837 119.549 91.1837C120.161 91.1596 120.654 91.0271 121.026 90.7861C121.41 90.5451 121.705 90.1776 121.909 89.6835C121.933 89.6353 121.981 89.6112 122.053 89.6112C122.137 89.6112 122.179 89.6353 122.179 89.6835V91.1295C122.876 91.1175 123.656 91.0632 124.521 90.9668C124.545 90.9668 124.569 91.015 124.593 91.1114C124.629 91.1958 124.647 91.2922 124.647 91.4007C124.647 91.5212 124.623 91.6417 124.575 91.7622C124.539 91.8706 124.497 91.9188 124.449 91.9068C123.668 91.7381 122.912 91.6477 122.179 91.6356V95.9195C122.179 96.3774 122.293 96.7148 122.521 96.9317C122.762 97.1486 123.074 97.257 123.458 97.257C123.939 97.257 124.407 97.0763 124.864 96.7148L124.9 96.6967ZM133.06 90.9849C133.084 90.9849 133.096 91.0211 133.096 91.0934C133.096 91.1657 133.084 91.2018 133.06 91.2018C132.676 91.2018 132.339 91.3705 132.051 91.7079C131.775 92.0333 131.523 92.5093 131.294 93.1359L129.295 98.4681C128.658 100.155 128.045 101.336 127.457 102.011C126.88 102.698 126.238 103.041 125.529 103.041C125.169 103.041 124.892 102.963 124.7 102.806C124.508 102.662 124.412 102.445 124.412 102.155C124.412 101.878 124.496 101.667 124.664 101.523C124.832 101.378 125.037 101.306 125.277 101.306C125.409 101.306 125.517 101.324 125.601 101.36C125.697 101.396 125.811 101.456 125.943 101.541C126.172 101.698 126.388 101.776 126.592 101.776C126.868 101.776 127.114 101.667 127.331 101.45C127.559 101.246 127.793 100.896 128.033 100.402C128.274 99.9201 128.562 99.2272 128.898 98.3235L126.015 92.4852C125.751 91.967 125.541 91.6236 125.385 91.4549C125.241 91.2862 125.061 91.2018 124.844 91.2018C124.808 91.2018 124.79 91.1657 124.79 91.0934C124.79 91.0211 124.808 90.9849 124.844 90.9849C125.181 90.9849 125.439 90.9909 125.619 91.003L126.376 91.0211L127.619 91.003C127.811 90.9909 128.069 90.9849 128.394 90.9849C128.43 90.9849 128.448 91.0211 128.448 91.0934C128.448 91.1657 128.43 91.2018 128.394 91.2018C128.081 91.2018 127.853 91.2319 127.709 91.2922C127.565 91.3404 127.493 91.4248 127.493 91.5453C127.493 91.6417 127.529 91.7622 127.601 91.9068L129.727 96.2629L130.808 93.1178C130.916 92.8045 130.97 92.5213 130.97 92.2683C130.97 91.9309 130.874 91.6718 130.682 91.491C130.49 91.2982 130.213 91.2018 129.853 91.2018C129.829 91.2018 129.817 91.1657 129.817 91.0934C129.817 91.0211 129.829 90.9849 129.853 90.9849C130.177 90.9849 130.424 90.9909 130.592 91.003L131.673 91.0211L132.393 91.003C132.538 90.9909 132.76 90.9849 133.06 90.9849ZM140.161 88.4905C140.161 88.9244 140.269 89.31 140.485 89.6474C140.714 89.9848 140.99 90.28 141.314 90.533C141.638 90.7861 142.077 91.0934 142.629 91.4549C143.23 91.8405 143.71 92.1779 144.071 92.4671C144.431 92.7563 144.737 93.1118 144.99 93.5335C145.242 93.9432 145.368 94.4192 145.368 94.9615C145.368 95.5881 145.2 96.1484 144.863 96.6425C144.527 97.1245 144.059 97.504 143.458 97.7812C142.87 98.0463 142.209 98.1789 141.476 98.1789C140.936 98.1789 140.371 98.1066 139.783 97.962C139.194 97.8053 138.798 97.6366 138.594 97.4559C138.534 97.4077 138.485 97.3655 138.449 97.3293C138.425 97.2811 138.413 97.2088 138.413 97.1124L138.359 94.2385V94.2204C138.359 94.1722 138.389 94.1481 138.449 94.1481C138.509 94.136 138.546 94.1541 138.558 94.2024C138.918 94.9374 139.23 95.5339 139.494 95.9918C139.771 96.4497 140.113 96.8533 140.521 97.2028C140.942 97.5523 141.416 97.727 141.945 97.727C142.425 97.727 142.822 97.6005 143.134 97.3474C143.446 97.0823 143.602 96.6364 143.602 96.0098C143.602 95.4796 143.482 95.0157 143.242 94.618C143.014 94.2204 142.731 93.883 142.395 93.6058C142.059 93.3287 141.596 92.9973 141.008 92.6117C140.431 92.2381 139.981 91.9188 139.657 91.6537C139.344 91.3886 139.074 91.0693 138.846 90.6957C138.618 90.3222 138.503 89.8823 138.503 89.3762C138.503 88.7376 138.684 88.2013 139.044 87.7675C139.416 87.3217 139.891 86.9963 140.467 86.7915C141.044 86.5746 141.65 86.4661 142.287 86.4661C142.707 86.4661 143.134 86.5083 143.566 86.5926C143.999 86.6649 144.347 86.7553 144.611 86.8638C144.719 86.912 144.791 86.9662 144.827 87.0265C144.863 87.0747 144.881 87.1409 144.881 87.2253V89.8823C144.881 89.9185 144.851 89.9486 144.791 89.9727C144.731 89.9848 144.695 89.9727 144.683 89.9366L144.539 89.5931C144.239 88.834 143.884 88.1893 143.476 87.6591C143.08 87.1289 142.521 86.8638 141.801 86.8638C141.32 86.8638 140.924 87.0024 140.611 87.2795C140.311 87.5567 140.161 87.9603 140.161 88.4905ZM151.001 98.1969C150.412 98.1969 149.896 98.1307 149.451 97.9981V101.469C149.451 101.83 149.487 102.095 149.559 102.264C149.644 102.433 149.794 102.547 150.01 102.607C150.238 102.68 150.586 102.716 151.055 102.716C151.091 102.716 151.109 102.752 151.109 102.824C151.109 102.896 151.091 102.933 151.055 102.933C150.61 102.933 150.262 102.927 150.01 102.915L148.587 102.896L147.524 102.915C147.343 102.927 147.091 102.933 146.767 102.933C146.731 102.933 146.713 102.896 146.713 102.824C146.713 102.752 146.731 102.716 146.767 102.716C147.055 102.716 147.265 102.68 147.397 102.607C147.542 102.547 147.638 102.433 147.686 102.264C147.746 102.095 147.776 101.83 147.776 101.469V93.0997C147.776 92.7141 147.734 92.437 147.65 92.2683C147.566 92.0996 147.415 92.0152 147.199 92.0152C147.007 92.0152 146.731 92.0996 146.371 92.2683H146.334C146.298 92.2683 146.268 92.2381 146.244 92.1779C146.208 92.1176 146.202 92.0815 146.226 92.0694L148.785 90.8222C148.809 90.8102 148.839 90.8042 148.875 90.8042C148.995 90.8042 149.103 90.9066 149.199 91.1114C149.307 91.3163 149.379 91.5935 149.415 91.9429C150.292 91.1476 151.193 90.7499 152.118 90.7499C152.622 90.7499 153.091 90.8825 153.523 91.1476C153.968 91.4127 154.322 91.7983 154.586 92.3044C154.851 92.8105 154.983 93.401 154.983 94.0758C154.983 95.0398 154.784 95.8351 154.388 96.4617C153.992 97.0763 153.487 97.5221 152.875 97.7993C152.274 98.0644 151.649 98.1969 151.001 98.1969ZM150.929 91.7622C150.388 91.7622 149.896 91.955 149.451 92.3406V92.4852V96.8413C149.716 97.1425 149.992 97.3715 150.28 97.5281C150.568 97.6728 150.923 97.7451 151.343 97.7451C152.556 97.7451 153.163 96.7087 153.163 94.6361C153.163 93.7203 152.947 93.0154 152.514 92.5213C152.094 92.0152 151.565 91.7622 150.929 91.7622ZM163.084 96.9859C163.132 96.9859 163.162 97.016 163.174 97.0763C163.198 97.1245 163.186 97.1606 163.138 97.1847L161.283 98.0704C161.234 98.0945 161.174 98.1066 161.102 98.1066C160.91 98.1066 160.724 98.0041 160.544 97.7993C160.376 97.5944 160.256 97.3173 160.184 96.9678L159.409 97.5101C159.133 97.7149 158.874 97.8656 158.634 97.962C158.394 98.0463 158.124 98.0885 157.823 98.0885C157.307 98.0885 156.916 97.974 156.652 97.7451C156.388 97.5161 156.256 97.1968 156.256 96.7871C156.256 96.4617 156.334 96.2026 156.49 96.0098C156.646 95.805 156.838 95.6483 157.067 95.5399C157.307 95.4194 157.637 95.2868 158.058 95.1422L158.508 94.9795L160.129 94.3831V93.3528C160.129 92.5816 160.063 92.0212 159.931 91.6718C159.811 91.3223 159.601 91.1476 159.301 91.1476C158.664 91.1476 158.304 91.6417 158.22 92.6298C158.184 92.9913 158.076 93.2504 157.895 93.407C157.727 93.5637 157.487 93.642 157.175 93.642C156.874 93.642 156.652 93.5817 156.508 93.4612C156.376 93.3287 156.31 93.16 156.31 92.9551C156.31 92.5936 156.52 92.2502 156.94 91.9248C157.361 91.5874 157.865 91.3163 158.454 91.1114C159.054 90.9066 159.583 90.8042 160.039 90.8042C160.568 90.8042 160.994 90.9729 161.319 91.3103C161.655 91.6356 161.823 92.1357 161.823 92.8105V96.0098C161.823 96.3593 161.883 96.6304 162.003 96.8232C162.135 97.016 162.315 97.1124 162.544 97.1124C162.712 97.1124 162.886 97.0702 163.066 96.9859H163.084ZM160.147 96.6605C160.135 96.6123 160.129 96.534 160.129 96.4256V94.6903L159.355 95.0518C159.319 95.0639 159.199 95.1121 158.994 95.1965C158.79 95.2688 158.61 95.3953 158.454 95.576C158.31 95.7568 158.238 95.9677 158.238 96.2087C158.238 96.4979 158.328 96.7268 158.508 96.8955C158.7 97.0522 158.916 97.1305 159.157 97.1305C159.349 97.1305 159.547 97.0642 159.751 96.9317L160.147 96.6605ZM175.035 86.4661C175.6 86.4661 176.17 86.5143 176.747 86.6107C177.335 86.6951 177.804 86.8095 178.152 86.9542C178.26 86.9903 178.326 87.0385 178.35 87.0987C178.386 87.1469 178.41 87.2373 178.422 87.3699L178.657 89.8823C178.657 89.9185 178.627 89.9426 178.567 89.9546C178.507 89.9667 178.465 89.9486 178.44 89.9004C178.104 88.9123 177.624 88.1592 176.999 87.641C176.375 87.1108 175.624 86.8457 174.747 86.8457C173.93 86.8457 173.198 87.0686 172.549 87.5145C171.912 87.9483 171.408 88.5749 171.036 89.3943C170.675 90.2137 170.495 91.1717 170.495 92.2683C170.495 93.3769 170.681 94.3529 171.054 95.1965C171.438 96.0279 171.96 96.6726 172.621 97.1305C173.294 97.5763 174.062 97.7993 174.927 97.7993C175.756 97.7993 176.453 97.5763 177.017 97.1305C177.582 96.6726 178.116 95.9255 178.621 94.8892C178.633 94.853 178.669 94.841 178.729 94.853C178.789 94.8651 178.819 94.8892 178.819 94.9253L178.549 97.1666C178.525 97.3112 178.501 97.4077 178.477 97.4559C178.452 97.492 178.386 97.5342 178.278 97.5824C177.173 97.98 176.056 98.1789 174.927 98.1789C173.642 98.1789 172.489 97.9379 171.468 97.4559C170.459 96.9618 169.666 96.2749 169.09 95.3953C168.513 94.5156 168.225 93.5155 168.225 92.3948C168.225 91.25 168.519 90.2318 169.108 89.3401C169.708 88.4363 170.525 87.7314 171.558 87.2253C172.603 86.7192 173.762 86.4661 175.035 86.4661ZM187.155 96.9859C187.203 96.9859 187.233 97.016 187.245 97.0763C187.269 97.1245 187.257 97.1606 187.209 97.1847L185.353 98.0704C185.305 98.0945 185.245 98.1066 185.173 98.1066C184.981 98.1066 184.794 98.0041 184.614 97.7993C184.446 97.5944 184.326 97.3173 184.254 96.9678L183.479 97.5101C183.203 97.7149 182.945 97.8656 182.704 97.962C182.464 98.0463 182.194 98.0885 181.894 98.0885C181.377 98.0885 180.987 97.974 180.723 97.7451C180.458 97.5161 180.326 97.1968 180.326 96.7871C180.326 96.4617 180.404 96.2026 180.56 96.0098C180.717 95.805 180.909 95.6483 181.137 95.5399C181.377 95.4194 181.708 95.2868 182.128 95.1422L182.578 94.9795L184.2 94.3831V93.3528C184.2 92.5816 184.134 92.0212 184.002 91.6718C183.882 91.3223 183.671 91.1476 183.371 91.1476C182.734 91.1476 182.374 91.6417 182.29 92.6298C182.254 92.9913 182.146 93.2504 181.966 93.407C181.798 93.5637 181.557 93.642 181.245 93.642C180.945 93.642 180.723 93.5817 180.578 93.4612C180.446 93.3287 180.38 93.16 180.38 92.9551C180.38 92.5936 180.59 92.2502 181.011 91.9248C181.431 91.5874 181.936 91.3163 182.524 91.1114C183.125 90.9066 183.653 90.8042 184.108 90.8042C184.637 90.8042 185.065 90.9729 185.389 91.3103C185.725 91.6356 185.893 92.1357 185.893 92.8105V96.0098C185.893 96.3593 185.953 96.6304 186.074 96.8232C186.206 97.016 186.386 97.1124 186.614 97.1124C186.782 97.1124 186.956 97.0702 187.137 96.9859H187.155ZM184.218 96.6605C184.206 96.6123 184.2 96.534 184.2 96.4256V94.6903L183.425 95.0518C183.389 95.0639 183.269 95.1121 183.065 95.1965C182.861 95.2688 182.68 95.3953 182.524 95.576C182.38 95.7568 182.308 95.9677 182.308 96.2087C182.308 96.4979 182.398 96.7268 182.578 96.8955C182.771 97.0522 182.987 97.1305 183.227 97.1305C183.419 97.1305 183.617 97.0642 183.821 96.9317L184.218 96.6605ZM192.575 90.8042C192.851 90.8042 193.115 90.9066 193.367 91.1114C193.632 91.3043 193.764 91.5392 193.764 91.8164C193.764 92.0694 193.686 92.2803 193.53 92.449C193.373 92.6057 193.169 92.684 192.917 92.684C192.737 92.684 192.587 92.6478 192.467 92.5755C192.358 92.5032 192.244 92.3948 192.124 92.2502C192.016 92.1297 191.92 92.0453 191.836 91.9971C191.764 91.9369 191.674 91.9068 191.566 91.9068C191.446 91.9068 191.313 91.955 191.169 92.0514C191.037 92.1357 190.827 92.3225 190.539 92.6117V96.4979C190.539 96.9799 190.653 97.3113 190.881 97.492C191.109 97.6607 191.53 97.7451 192.142 97.7451C192.19 97.7451 192.214 97.7812 192.214 97.8535C192.214 97.9258 192.19 97.962 192.142 97.962C191.722 97.962 191.392 97.9559 191.151 97.9439L189.692 97.9258L188.629 97.9439C188.449 97.9559 188.203 97.962 187.89 97.962C187.854 97.962 187.836 97.9258 187.836 97.8535C187.836 97.7812 187.854 97.7451 187.89 97.7451C188.263 97.7451 188.515 97.6607 188.647 97.492C188.779 97.3113 188.845 96.9799 188.845 96.4979V93.0997C188.845 92.7262 188.797 92.455 188.701 92.2863C188.617 92.1056 188.479 92.0152 188.287 92.0152C188.082 92.0152 187.794 92.0996 187.422 92.2683H187.386C187.35 92.2683 187.32 92.2381 187.296 92.1779C187.284 92.1176 187.29 92.0815 187.314 92.0694L189.818 90.8403C189.89 90.8162 189.932 90.8042 189.944 90.8042C190.076 90.8042 190.196 90.9307 190.305 91.1837C190.425 91.4248 190.497 91.7561 190.521 92.1779C191.013 91.6718 191.416 91.3163 191.728 91.1114C192.052 90.9066 192.334 90.8042 192.575 90.8042ZM200.795 96.769C200.819 96.769 200.843 96.7931 200.867 96.8413C200.903 96.8895 200.909 96.9256 200.885 96.9497C200.44 97.3836 199.99 97.6969 199.534 97.8897C199.077 98.0825 198.579 98.1789 198.038 98.1789C197.282 98.1789 196.627 98.0222 196.074 97.7089C195.522 97.3836 195.101 96.9558 194.813 96.4256C194.525 95.8833 194.381 95.2989 194.381 94.6723C194.381 93.9734 194.555 93.3287 194.903 92.7382C195.252 92.1478 195.732 91.6838 196.345 91.3464C196.969 90.997 197.672 90.8222 198.453 90.8222C199.197 90.8222 199.774 90.9909 200.182 91.3284C200.591 91.6658 200.795 92.1899 200.795 92.9009C200.795 93.2744 200.729 93.4612 200.597 93.4612L196.219 93.4793C196.207 93.5637 196.201 93.7022 196.201 93.895C196.201 94.9554 196.441 95.7869 196.921 96.3894C197.414 96.9919 198.116 97.2932 199.029 97.2932C199.353 97.2932 199.63 97.257 199.858 97.1847C200.086 97.1124 200.386 96.9799 200.759 96.7871L200.795 96.769ZM197.768 91.1837C197.372 91.1837 197.041 91.3585 196.777 91.7079C196.513 92.0453 196.339 92.5153 196.255 93.1178L198.867 93.0816C198.855 92.4671 198.765 91.9971 198.597 91.6718C198.429 91.3464 198.152 91.1837 197.768 91.1837ZM218.619 97.7451C218.667 97.7571 218.685 97.7993 218.673 97.8716C218.673 97.9318 218.655 97.962 218.619 97.962H215.665C215.328 97.962 214.752 97.6667 213.935 97.0763C213.034 97.8113 211.887 98.1789 210.494 98.1789C209.665 98.1789 208.968 98.0584 208.404 97.8174C207.839 97.5764 207.419 97.257 207.143 96.8594C206.866 96.4617 206.728 96.04 206.728 95.5941C206.728 95.0157 206.926 94.4975 207.323 94.0396C207.719 93.5817 208.32 93.0515 209.125 92.449C208.932 92.196 208.746 91.9068 208.566 91.5814C208.398 91.244 208.266 90.9247 208.17 90.6234C208.086 90.3222 208.044 89.9908 208.044 89.6293C208.044 88.6532 208.35 87.8519 208.962 87.2253C209.587 86.5987 210.434 86.2854 211.503 86.2854C212.247 86.2854 212.836 86.448 213.268 86.7734C213.701 87.0867 213.917 87.5265 213.917 88.0929C213.917 88.5628 213.779 88.9966 213.503 89.3943C213.238 89.7799 212.932 90.1053 212.584 90.3704C212.235 90.6355 211.695 91.015 210.962 91.5091C211.827 92.7985 213.034 94.0637 214.584 95.3049C214.692 94.8831 214.746 94.4072 214.746 93.877C214.746 93.178 214.632 92.6719 214.403 92.3586C214.175 92.0333 213.803 91.8706 213.286 91.8706C213.262 91.8706 213.244 91.8345 213.232 91.7622C213.232 91.6899 213.25 91.6537 213.286 91.6537L217.574 91.6356C217.61 91.6356 217.628 91.6718 217.628 91.7441C217.628 91.8164 217.61 91.8525 217.574 91.8525C217.214 91.8525 216.944 91.8947 216.764 91.9791C216.595 92.0514 216.463 92.1779 216.367 92.3586C216.283 92.5394 216.187 92.8286 216.079 93.2262C215.947 93.7083 215.809 94.1481 215.665 94.5457C215.52 94.9434 215.334 95.329 215.106 95.7026C215.887 96.293 216.577 96.7569 217.178 97.0944C217.791 97.4318 218.271 97.6487 218.619 97.7451ZM209.737 88.0748C209.737 89.0147 210.067 90.033 210.728 91.1295C211.581 90.2981 212.007 89.4124 212.007 88.4725C212.007 87.9423 211.881 87.5265 211.629 87.2253C211.389 86.924 211.07 86.7734 210.674 86.7734C210.338 86.7734 210.097 86.8818 209.953 87.0987C209.809 87.3157 209.737 87.641 209.737 88.0748ZM211.881 97.2932C212.578 97.2932 213.154 97.1365 213.611 96.8232C213.419 96.6907 213.16 96.4918 212.836 96.2267C212.223 95.7327 211.605 95.1844 210.98 94.5819C210.368 93.9673 209.827 93.3648 209.359 92.7744C208.818 93.3407 208.548 93.9372 208.548 94.5638C208.548 95.0338 208.68 95.4796 208.944 95.9014C209.221 96.3111 209.611 96.6485 210.115 96.9136C210.62 97.1666 211.208 97.2932 211.881 97.2932ZM235.702 86.6649C235.726 86.6649 235.738 86.7011 235.738 86.7734C235.738 86.8457 235.726 86.8818 235.702 86.8818C235.222 86.8818 234.843 87.0746 234.567 87.4603C234.291 87.8338 234.153 88.3399 234.153 88.9786V98.2331C234.153 98.2692 234.123 98.2933 234.063 98.3054C234.015 98.3174 233.979 98.3114 233.955 98.2873L225.505 88.6351V95.6664C225.505 96.3051 225.637 96.8112 225.901 97.1847C226.165 97.5583 226.532 97.7451 227 97.7451C227.024 97.7451 227.036 97.7812 227.036 97.8535C227.036 97.9258 227.024 97.962 227 97.962C226.664 97.962 226.406 97.9559 226.225 97.9439L225.253 97.9258L224.135 97.9439C223.931 97.9559 223.637 97.962 223.253 97.962C223.217 97.962 223.199 97.9258 223.199 97.8535C223.199 97.7812 223.217 97.7451 223.253 97.7451C223.781 97.7451 224.196 97.5583 224.496 97.1847C224.808 96.8112 224.964 96.3051 224.964 95.6664V88.0206C224.568 87.5868 224.226 87.2916 223.937 87.1349C223.661 86.9662 223.373 86.8818 223.073 86.8818C223.048 86.8818 223.036 86.8457 223.036 86.7734C223.036 86.7011 223.048 86.6649 223.073 86.6649L223.829 86.683C223.985 86.6951 224.214 86.7011 224.514 86.7011L225.883 86.683C226.051 86.671 226.255 86.6649 226.496 86.6649C226.592 86.6649 226.664 86.689 226.712 86.7372C226.76 86.7854 226.844 86.8879 226.964 87.0445C227.168 87.3217 227.312 87.5085 227.397 87.6049L233.63 94.8169V88.9786C233.63 88.3279 233.498 87.8157 233.234 87.4422C232.97 87.0686 232.603 86.8818 232.135 86.8818C232.111 86.8818 232.099 86.8457 232.099 86.7734C232.099 86.7011 232.111 86.6649 232.135 86.6649L232.91 86.683C233.294 86.7071 233.618 86.7192 233.883 86.7192C234.123 86.7192 234.459 86.7071 234.891 86.683L235.702 86.6649ZM243.473 96.9859C243.522 96.9859 243.552 97.016 243.564 97.0763C243.588 97.1245 243.576 97.1606 243.528 97.1847L241.672 98.0704C241.624 98.0945 241.564 98.1066 241.492 98.1066C241.299 98.1066 241.113 98.0041 240.933 97.7993C240.765 97.5944 240.645 97.3173 240.573 96.9678L239.798 97.5101C239.522 97.7149 239.264 97.8656 239.023 97.962C238.783 98.0463 238.513 98.0885 238.213 98.0885C237.696 98.0885 237.306 97.974 237.041 97.7451C236.777 97.5161 236.645 97.1968 236.645 96.7871C236.645 96.4617 236.723 96.2026 236.879 96.0098C237.036 95.805 237.228 95.6483 237.456 95.5399C237.696 95.4194 238.026 95.2868 238.447 95.1422L238.897 94.9795L240.519 94.3831V93.3528C240.519 92.5816 240.453 92.0212 240.321 91.6718C240.2 91.3223 239.99 91.1476 239.69 91.1476C239.053 91.1476 238.693 91.6417 238.609 92.6298C238.573 92.9913 238.465 93.2504 238.285 93.407C238.117 93.5637 237.876 93.642 237.564 93.642C237.264 93.642 237.042 93.5817 236.897 93.4612C236.765 93.3287 236.699 93.16 236.699 92.9551C236.699 92.5936 236.909 92.2502 237.33 91.9248C237.75 91.5874 238.255 91.3163 238.843 91.1114C239.444 90.9066 239.972 90.8042 240.429 90.8042C240.957 90.8042 241.384 90.9729 241.708 91.3103C242.044 91.6356 242.212 92.1357 242.212 92.8105V96.0098C242.212 96.3593 242.272 96.6304 242.392 96.8232C242.525 97.016 242.705 97.1124 242.933 97.1124C243.101 97.1124 243.275 97.0702 243.455 96.9859H243.473ZM240.537 96.6605C240.525 96.6123 240.519 96.534 240.519 96.4256V94.6903L239.744 95.0518C239.708 95.0639 239.588 95.1121 239.384 95.1965C239.18 95.2688 238.999 95.3953 238.843 95.576C238.699 95.7568 238.627 95.9677 238.627 96.2087C238.627 96.4979 238.717 96.7268 238.897 96.8955C239.089 97.0522 239.306 97.1305 239.546 97.1305C239.738 97.1305 239.936 97.0642 240.14 96.9317L240.537 96.6605ZM245.94 89.0147C245.592 89.0147 245.322 88.9183 245.13 88.7255C244.937 88.5327 244.841 88.2616 244.841 87.9121C244.841 87.5988 244.937 87.3518 245.13 87.171C245.334 86.9782 245.604 86.8818 245.94 86.8818C246.277 86.8818 246.535 86.9722 246.715 87.153C246.895 87.3337 246.985 87.5868 246.985 87.9121C246.985 88.2616 246.895 88.5327 246.715 88.7255C246.535 88.9183 246.277 89.0147 245.94 89.0147ZM244.211 97.962C244.175 97.962 244.157 97.9258 244.157 97.8535C244.157 97.7812 244.175 97.7451 244.211 97.7451C244.583 97.7451 244.835 97.6607 244.967 97.492C245.1 97.3113 245.166 96.9799 245.166 96.4979V93.2624C245.166 92.8527 245.124 92.5575 245.039 92.3767C244.955 92.196 244.817 92.1056 244.625 92.1056C244.469 92.1056 244.247 92.1719 243.958 92.3044H243.94C243.892 92.3044 243.856 92.2743 243.832 92.214C243.808 92.1417 243.814 92.0996 243.85 92.0875L246.571 90.8222L246.625 90.8042C246.685 90.8042 246.745 90.8343 246.805 90.8945C246.865 90.9548 246.895 91.009 246.895 91.0572V91.4549C246.871 91.9369 246.859 92.5273 246.859 93.2262V96.4979C246.859 96.9799 246.925 97.3113 247.057 97.492C247.201 97.6607 247.46 97.7451 247.832 97.7451C247.868 97.7451 247.886 97.7812 247.886 97.8535C247.886 97.9258 247.868 97.962 247.832 97.962C247.52 97.962 247.274 97.9559 247.093 97.9439L246.012 97.9258L244.949 97.9439C244.769 97.9559 244.523 97.962 244.211 97.962ZM248.871 97.962C248.847 97.962 248.835 97.9258 248.835 97.8535C248.835 97.7812 248.847 97.7451 248.871 97.7451C249.243 97.7451 249.496 97.6607 249.628 97.492C249.772 97.3113 249.844 96.9799 249.844 96.4979L249.862 87.3157C249.862 86.8939 249.82 86.5926 249.736 86.4119C249.664 86.2311 249.532 86.1408 249.339 86.1408C249.183 86.1408 248.955 86.207 248.655 86.3396H248.637C248.601 86.3396 248.565 86.3095 248.529 86.2492C248.505 86.1769 248.505 86.1347 248.529 86.1227L251.177 84.8755L251.249 84.8574C251.309 84.8574 251.375 84.8875 251.447 84.9478C251.519 84.996 251.555 85.0442 251.555 85.0924V96.4979C251.555 96.9799 251.622 97.3113 251.754 97.492C251.886 97.6607 252.138 97.7451 252.51 97.7451C252.558 97.7451 252.582 97.7812 252.582 97.8535C252.582 97.9258 252.558 97.962 252.51 97.962C252.21 97.962 251.97 97.9559 251.79 97.9439L250.691 97.9258L249.61 97.9439C249.43 97.9559 249.183 97.962 248.871 97.962ZM260.42 88.4905C260.42 88.9244 260.528 89.31 260.744 89.6474C260.972 89.9848 261.249 90.28 261.573 90.533C261.897 90.7861 262.336 91.0934 262.888 91.4549C263.489 91.8405 263.969 92.1779 264.329 92.4671C264.69 92.7563 264.996 93.1118 265.248 93.5335C265.5 93.9432 265.627 94.4192 265.627 94.9615C265.627 95.5881 265.458 96.1484 265.122 96.6425C264.786 97.1245 264.317 97.504 263.717 97.7812C263.128 98.0463 262.468 98.1789 261.735 98.1789C261.194 98.1789 260.63 98.1066 260.041 97.962C259.453 97.8053 259.056 97.6366 258.852 97.4559C258.792 97.4077 258.744 97.3655 258.708 97.3293C258.684 97.2811 258.672 97.2088 258.672 97.1124L258.618 94.2385V94.2204C258.618 94.1722 258.648 94.1481 258.708 94.1481C258.768 94.136 258.804 94.1541 258.816 94.2024C259.177 94.9374 259.489 95.5339 259.753 95.9918C260.029 96.4497 260.372 96.8533 260.78 97.2028C261.2 97.5523 261.675 97.727 262.203 97.727C262.684 97.727 263.08 97.6005 263.393 97.3474C263.705 97.0823 263.861 96.6364 263.861 96.0098C263.861 95.4796 263.741 95.0157 263.501 94.618C263.272 94.2204 262.99 93.883 262.654 93.6058C262.318 93.3287 261.855 92.9973 261.267 92.6117C260.69 92.2381 260.24 91.9188 259.915 91.6537C259.603 91.3886 259.333 91.0693 259.105 90.6957C258.876 90.3222 258.762 89.8823 258.762 89.3762C258.762 88.7376 258.942 88.2013 259.303 87.7675C259.675 87.3217 260.15 86.9963 260.726 86.7915C261.303 86.5746 261.909 86.4661 262.546 86.4661C262.966 86.4661 263.393 86.5083 263.825 86.5926C264.257 86.6649 264.606 86.7553 264.87 86.8638C264.978 86.912 265.05 86.9662 265.086 87.0265C265.122 87.0747 265.14 87.1409 265.14 87.2253V89.8823C265.14 89.9185 265.11 89.9486 265.05 89.9727C264.99 89.9848 264.954 89.9727 264.942 89.9366L264.798 89.5931C264.498 88.834 264.143 88.1893 263.735 87.6591C263.338 87.1289 262.78 86.8638 262.059 86.8638C261.579 86.8638 261.182 87.0024 260.87 87.2795C260.57 87.5567 260.42 87.9603 260.42 88.4905ZM274.106 96.9859C274.155 96.9859 274.185 97.016 274.197 97.0763C274.221 97.1245 274.209 97.1606 274.161 97.1847L272.305 98.0704C272.257 98.0945 272.197 98.1066 272.125 98.1066C271.932 98.1066 271.746 98.0041 271.566 97.7993C271.398 97.5944 271.278 97.3173 271.206 96.9678L270.431 97.5101C270.155 97.7149 269.897 97.8656 269.656 97.962C269.416 98.0463 269.146 98.0885 268.846 98.0885C268.329 98.0885 267.939 97.974 267.674 97.7451C267.41 97.5161 267.278 97.1968 267.278 96.7871C267.278 96.4617 267.356 96.2026 267.512 96.0098C267.669 95.805 267.861 95.6483 268.089 95.5399C268.329 95.4194 268.659 95.2868 269.08 95.1422L269.53 94.9795L271.152 94.3831V93.3528C271.152 92.5816 271.086 92.0212 270.954 91.6718C270.833 91.3223 270.623 91.1476 270.323 91.1476C269.686 91.1476 269.326 91.6417 269.242 92.6298C269.206 92.9913 269.098 93.2504 268.918 93.407C268.749 93.5637 268.509 93.642 268.197 93.642C267.897 93.642 267.674 93.5817 267.53 93.4612C267.398 93.3287 267.332 93.16 267.332 92.9551C267.332 92.5936 267.542 92.2502 267.963 91.9248C268.383 91.5874 268.888 91.3163 269.476 91.1114C270.077 90.9066 270.605 90.8042 271.062 90.8042C271.59 90.8042 272.017 90.9729 272.341 91.3103C272.677 91.6356 272.845 92.1357 272.845 92.8105V96.0098C272.845 96.3593 272.905 96.6304 273.025 96.8232C273.158 97.016 273.338 97.1124 273.566 97.1124C273.734 97.1124 273.908 97.0702 274.088 96.9859H274.106ZM271.17 96.6605C271.158 96.6123 271.152 96.534 271.152 96.4256V94.6903L270.377 95.0518C270.341 95.0639 270.221 95.1121 270.017 95.1965C269.812 95.2688 269.632 95.3953 269.476 95.576C269.332 95.7568 269.26 95.9677 269.26 96.2087C269.26 96.4979 269.35 96.7268 269.53 96.8955C269.722 97.0522 269.939 97.1305 270.179 97.1305C270.371 97.1305 270.569 97.0642 270.773 96.9317L271.17 96.6605ZM274.77 97.962C274.746 97.962 274.734 97.9258 274.734 97.8535C274.734 97.7812 274.746 97.7451 274.77 97.7451C275.142 97.7451 275.395 97.6607 275.527 97.492C275.671 97.3113 275.743 96.9799 275.743 96.4979L275.761 87.3157C275.761 86.8939 275.719 86.5926 275.635 86.4119C275.563 86.2311 275.431 86.1408 275.239 86.1408C275.082 86.1408 274.854 86.207 274.554 86.3396H274.536C274.5 86.3396 274.464 86.3095 274.428 86.2492C274.404 86.1769 274.404 86.1347 274.428 86.1227L277.076 84.8755L277.148 84.8574C277.208 84.8574 277.274 84.8875 277.346 84.9478C277.419 84.996 277.455 85.0442 277.455 85.0924V96.4979C277.455 96.9799 277.521 97.3113 277.653 97.492C277.785 97.6607 278.037 97.7451 278.41 97.7451C278.458 97.7451 278.482 97.7812 278.482 97.8535C278.482 97.9258 278.458 97.962 278.41 97.962C278.109 97.962 277.869 97.9559 277.689 97.9439L276.59 97.9258L275.509 97.9439C275.329 97.9559 275.082 97.962 274.77 97.962ZM283.23 98.1969C282.486 98.1969 281.831 98.0282 281.267 97.6908C280.714 97.3414 280.288 96.8774 279.987 96.299C279.687 95.7086 279.537 95.0699 279.537 94.3831C279.537 93.5998 279.735 92.937 280.132 92.3948C280.528 91.8405 281.032 91.4308 281.645 91.1657C282.258 90.8885 282.888 90.7499 283.537 90.7499C284.281 90.7499 284.93 90.9247 285.483 91.2741C286.035 91.6236 286.455 92.0875 286.744 92.6659C287.044 93.2323 287.194 93.8408 287.194 94.4915C287.194 95.2145 287.014 95.8592 286.654 96.4256C286.293 96.9799 285.807 97.4137 285.194 97.727C284.594 98.0403 283.939 98.1969 283.23 98.1969ZM283.771 97.8174C284.239 97.8174 284.594 97.5884 284.834 97.1305C285.086 96.6605 285.212 95.9918 285.212 95.1241C285.212 94.2806 285.104 93.5576 284.888 92.9551C284.672 92.3526 284.39 91.9007 284.041 91.5995C283.693 91.2862 283.321 91.1295 282.924 91.1295C281.963 91.1295 281.483 91.9911 281.483 93.7143C281.483 94.5216 281.585 95.2386 281.789 95.8652C281.993 96.4798 282.27 96.9618 282.618 97.3113C282.966 97.6487 283.351 97.8174 283.771 97.8174ZM296.946 97.7451C296.982 97.7451 297 97.7812 297 97.8535C297 97.9258 296.982 97.962 296.946 97.962C296.633 97.962 296.387 97.9559 296.207 97.9439L295.126 97.9258L294.081 97.9439C293.889 97.9559 293.637 97.962 293.324 97.962C293.288 97.962 293.27 97.9258 293.27 97.8535C293.27 97.7812 293.288 97.7451 293.324 97.7451C293.697 97.7451 293.949 97.6607 294.081 97.492C294.213 97.3113 294.279 96.9799 294.279 96.4979V93.895C294.279 93.2443 294.159 92.7623 293.919 92.449C293.691 92.1357 293.324 91.9791 292.82 91.9791C292.532 91.9791 292.231 92.0393 291.919 92.1598C291.619 92.2803 291.355 92.443 291.126 92.6478V96.4979C291.126 96.9799 291.192 97.3113 291.324 97.492C291.469 97.6607 291.727 97.7451 292.099 97.7451C292.135 97.7451 292.153 97.7812 292.153 97.8535C292.153 97.9258 292.135 97.962 292.099 97.962C291.787 97.962 291.541 97.9559 291.361 97.9439L290.279 97.9258L289.217 97.9439C289.036 97.9559 288.79 97.962 288.478 97.962C288.442 97.962 288.424 97.9258 288.424 97.8535C288.424 97.7812 288.442 97.7451 288.478 97.7451C288.85 97.7451 289.102 97.6607 289.235 97.492C289.367 97.3113 289.433 96.9799 289.433 96.4979V93.0997C289.433 92.7262 289.385 92.455 289.289 92.2863C289.205 92.1056 289.066 92.0152 288.874 92.0152C288.67 92.0152 288.382 92.0996 288.009 92.2683H287.973C287.937 92.2683 287.907 92.2381 287.883 92.1779C287.871 92.1176 287.877 92.0815 287.901 92.0694L290.406 90.8403C290.478 90.8162 290.52 90.8042 290.532 90.8042C290.664 90.8042 290.79 90.9367 290.91 91.2018C291.03 91.4549 291.102 91.8043 291.126 92.2502C291.955 91.2621 292.868 90.768 293.865 90.768C294.513 90.768 295.024 90.9789 295.396 91.4007C295.781 91.8104 295.973 92.3526 295.973 93.0274V96.4979C295.973 96.9799 296.039 97.3113 296.171 97.492C296.315 97.6607 296.573 97.7451 296.946 97.7451Z" fill="#C28565"/>
<path d="M174.172 70.8808C174.28 70.8808 174.334 71.0421 174.334 71.3646C174.334 71.6871 174.28 71.8484 174.172 71.8484H159.703C158.51 71.8484 156.288 69.7252 153.037 65.4789C149.786 61.1788 145.857 55.1855 141.25 47.4991C140.817 47.5529 140.194 47.5798 139.381 47.5798C137.267 47.5798 135.777 47.5529 134.91 47.4991V65.3176C134.91 66.9839 135.046 68.1933 135.317 68.9458C135.587 69.6983 136.102 70.209 136.861 70.4777C137.674 70.7465 138.947 70.8808 140.681 70.8808C140.79 70.8808 140.844 71.0421 140.844 71.3646C140.844 71.6871 140.79 71.8484 140.681 71.8484C138.893 71.8484 137.484 71.8215 136.455 71.7677L130.277 71.6871L124.343 71.7677C123.259 71.8215 121.796 71.8484 119.953 71.8484C119.791 71.8484 119.709 71.6871 119.709 71.3646C119.709 71.0421 119.791 70.8808 119.953 70.8808C121.687 70.8808 122.934 70.7465 123.693 70.4777C124.505 70.209 125.047 69.6983 125.318 68.9458C125.643 68.1395 125.806 66.9301 125.806 65.3176V27.9875C125.806 26.3749 125.67 25.1924 125.4 24.4399C125.129 23.6874 124.587 23.1768 123.774 22.908C122.961 22.5855 121.715 22.4242 120.035 22.4242C119.926 22.4242 119.872 22.263 119.872 21.9405C119.872 21.618 119.926 21.4567 120.035 21.4567L124.343 21.5373C126.836 21.6449 128.814 21.6986 130.277 21.6986C132.119 21.6986 134.043 21.618 136.048 21.4567C136.753 21.403 137.62 21.3492 138.649 21.2955C139.733 21.2417 140.925 21.2148 142.226 21.2148C147.157 21.2148 150.978 22.1286 153.687 23.9561C156.397 25.7299 157.752 28.2294 157.752 31.4544C157.752 34.4107 156.939 37.0983 155.313 39.5171C153.687 41.8821 151.52 43.7903 148.81 45.2416C153.145 51.6917 156.776 56.7443 159.703 60.3994C162.629 64.0545 165.23 66.7151 167.506 68.3814C169.782 70.0477 172.004 70.8808 174.172 70.8808ZM134.91 45.2416C136.211 45.4566 137.782 45.5641 139.625 45.5641C142.768 45.5641 145.017 44.7041 146.372 42.984C147.78 41.2102 148.485 38.3883 148.485 34.5182C148.485 30.1106 147.835 27.0737 146.534 25.4074C145.233 23.7411 143.364 22.908 140.925 22.908C138.758 22.908 137.213 23.3111 136.292 24.1174C135.371 24.9237 134.91 26.2674 134.91 28.1487V45.2416ZM207.437 67.4945C207.654 67.4945 207.79 67.6289 207.844 67.8977C207.952 68.1127 207.898 68.2739 207.681 68.3814L199.309 72.3321C199.092 72.4396 198.821 72.4934 198.496 72.4934C197.629 72.4934 196.789 72.0365 195.976 71.1227C195.217 70.209 194.675 68.9727 194.35 67.4139L190.855 69.8327C189.609 70.7465 188.443 71.4184 187.36 71.8484C186.276 72.2246 185.056 72.4127 183.702 72.4127C181.371 72.4127 179.61 71.9021 178.418 70.8808C177.226 69.8596 176.63 68.4352 176.63 66.6076C176.63 65.1564 176.982 64.0007 177.686 63.1407C178.391 62.2269 179.258 61.5282 180.288 61.0444C181.371 60.5069 182.862 59.9156 184.758 59.2706L186.791 58.545L194.106 55.8843V51.2886C194.106 47.8485 193.808 45.3491 193.212 43.7903C192.67 42.2315 191.722 41.4521 190.367 41.4521C187.495 41.4521 185.869 43.6559 185.49 48.0635C185.327 49.676 184.84 50.8317 184.027 51.5304C183.268 52.2292 182.184 52.5786 180.775 52.5786C179.421 52.5786 178.418 52.3098 177.768 51.7723C177.172 51.1811 176.874 50.4286 176.874 49.5148C176.874 47.9023 177.822 46.3704 179.719 44.9191C181.615 43.414 183.891 42.2046 186.547 41.2909C189.256 40.3771 191.641 39.9202 193.7 39.9202C196.084 39.9202 198.008 40.6727 199.471 42.1778C200.989 43.629 201.747 45.8597 201.747 48.8698V63.1407C201.747 64.6995 202.018 65.9089 202.56 66.7689C203.156 67.6289 203.969 68.0589 204.999 68.0589C205.757 68.0589 206.543 67.8708 207.356 67.4945H207.437ZM194.188 66.0432C194.133 65.8282 194.106 65.4789 194.106 64.9951V57.2549L190.611 58.8675C190.448 58.9212 189.907 59.1362 188.985 59.5125C188.064 59.835 187.251 60.3994 186.547 61.2057C185.896 62.0119 185.571 62.9526 185.571 64.0276C185.571 65.3176 185.978 66.3389 186.791 67.0914C187.658 67.7902 188.633 68.1395 189.717 68.1395C190.584 68.1395 191.478 67.8439 192.399 67.2526L194.188 66.0432ZM217.184 44.5966C217.184 46.1553 217.726 47.4991 218.81 48.6279C219.948 49.7567 221.574 50.9392 223.687 52.1755C225.746 53.358 227.264 54.2986 228.239 54.9974C229.269 55.6424 230.19 56.5831 231.003 57.8193C231.816 59.0019 232.222 60.4531 232.222 62.1732C232.222 64.0007 231.762 65.7207 230.84 67.3333C229.919 68.9458 228.537 70.2627 226.695 71.284C224.852 72.2515 222.658 72.7353 220.111 72.7353C217.13 72.7353 214.312 72.0096 211.657 70.5583C211.332 70.2358 211.169 69.9133 211.169 69.5908L211.006 61.6088C211.006 61.4475 211.142 61.3669 211.413 61.3669C211.738 61.3131 211.928 61.34 211.982 61.4475C212.849 64.1351 214.285 66.4195 216.29 68.3008C218.295 70.1821 220.327 71.1227 222.387 71.1227C223.525 71.1227 224.419 70.7733 225.069 70.0746C225.774 69.3758 226.126 68.3545 226.126 67.0108C226.126 65.022 225.557 63.4632 224.419 62.3344C223.281 61.1519 221.601 59.9425 219.379 58.7062C217.482 57.685 216.046 56.8518 215.071 56.2068C214.095 55.5618 213.228 54.648 212.47 53.4655C211.711 52.283 211.332 50.8317 211.332 49.1117C211.332 45.9403 212.47 43.629 214.746 42.1778C217.022 40.6727 219.813 39.9202 223.118 39.9202C224.365 39.9202 225.476 40.0008 226.451 40.1621C227.481 40.3234 228.619 40.6459 229.865 41.1296C230.353 41.2909 230.597 41.5865 230.597 42.0165C230.597 43.3603 230.569 44.4084 230.515 45.1609L230.434 49.1923C230.434 49.3535 230.271 49.4342 229.946 49.4342C229.621 49.4342 229.459 49.3535 229.459 49.1923C229.459 48.171 229.025 47.0691 228.158 45.8866C227.291 44.6503 226.153 43.6022 224.744 42.7422C223.389 41.8821 221.98 41.4521 220.517 41.4521C218.295 41.4521 217.184 42.5003 217.184 44.5966ZM296.675 70.8808C296.892 70.8808 297 71.0421 297 71.3646C297 71.6871 296.892 71.8484 296.675 71.8484C295.266 71.8484 294.155 71.8215 293.342 71.7677L288.465 71.6871L283.751 71.7677C282.883 71.8215 281.745 71.8484 280.337 71.8484C280.174 71.8484 280.093 71.6871 280.093 71.3646C280.093 71.0421 280.174 70.8808 280.337 70.8808C282.016 70.8808 283.154 70.5046 283.751 69.7521C284.401 68.9458 284.726 67.4676 284.726 65.3176V53.7074C284.726 50.8048 284.211 48.6548 283.182 47.2572C282.206 45.8597 280.689 45.1609 278.63 45.1609C277.221 45.1609 275.839 45.4566 274.484 46.0478C273.129 46.6391 271.964 47.4454 270.989 48.4666V48.9504V65.3176C270.989 67.4676 271.287 68.9458 271.883 69.7521C272.533 70.5046 273.698 70.8808 275.378 70.8808C275.595 70.8808 275.703 71.0421 275.703 71.3646C275.703 71.6871 275.595 71.8484 275.378 71.8484C273.969 71.8484 272.858 71.8215 272.045 71.7677L267.168 71.6871L262.453 71.7677C261.586 71.8215 260.448 71.8484 259.039 71.8484C258.877 71.8484 258.796 71.6871 258.796 71.3646C258.796 71.0421 258.877 70.8808 259.039 70.8808C260.719 70.8808 261.857 70.5046 262.453 69.7521C263.104 68.9458 263.429 67.4676 263.429 65.3176V53.7074C263.429 50.8048 262.914 48.6548 261.884 47.2572C260.909 45.8597 259.392 45.1609 257.332 45.1609C256.032 45.1609 254.731 45.4297 253.431 45.9672C252.184 46.451 251.073 47.1497 250.098 48.0635V65.3176C250.098 67.4676 250.396 68.9458 250.992 69.7521C251.642 70.5046 252.807 70.8808 254.487 70.8808C254.65 70.8808 254.731 71.0421 254.731 71.3646C254.731 71.6871 254.65 71.8484 254.487 71.8484C253.078 71.8484 251.967 71.8215 251.155 71.7677L246.277 71.6871L241.481 71.7677C240.669 71.8215 239.558 71.8484 238.149 71.8484C237.986 71.8484 237.905 71.6871 237.905 71.3646C237.905 71.0421 237.986 70.8808 238.149 70.8808C239.829 70.8808 240.967 70.5046 241.563 69.7521C242.159 68.9458 242.457 67.4676 242.457 65.3176V50.1598C242.457 48.4935 242.24 47.2841 241.807 46.5316C241.427 45.7253 240.804 45.3222 239.937 45.3222C239.016 45.3222 237.715 45.6985 236.035 46.451H235.873C235.71 46.451 235.575 46.3166 235.466 46.0478C235.412 45.7791 235.439 45.6178 235.548 45.5641L246.846 40.0815C247.172 39.974 247.361 39.9202 247.415 39.9202C248.012 39.9202 248.581 40.5115 249.122 41.694C249.664 42.8228 249.99 44.3547 250.098 46.2897C253.783 41.9359 257.739 39.759 261.966 39.759C264.513 39.759 266.545 40.3771 268.062 41.6134C269.58 42.8497 270.501 44.6234 270.826 46.9347C274.565 42.1509 278.711 39.759 283.263 39.759C286.189 39.759 288.411 40.5921 289.928 42.2584C291.5 43.9247 292.286 46.451 292.286 49.8373V65.3176C292.286 67.4676 292.584 68.9458 293.18 69.7521C293.83 70.5046 294.995 70.8808 296.675 70.8808Z" fill="white"/>
<path d="M105.781 31.0733C105.538 29.6713 104.931 28.1096 104.064 26.7554V26.7534C102.894 24.9304 101.251 23.4849 99.3855 23.3169C96.5202 23.0597 93.9225 25.1004 92.1584 27.4232C91.7163 28.006 91.3025 28.6136 90.9011 29.2296C89.7027 31.0692 88.6015 32.9833 87.0684 34.5326C84.2559 37.3738 80.9607 39.1324 77.0897 39.9537C73.2185 40.775 68.729 39.8687 65.0768 41.4137C61.4247 42.9589 58.4317 46.5156 56.5133 50.0516C53.2871 55.9994 52.0785 62.9014 51.9691 69.5026V69.5067C51.9609 69.9692 51.9589 70.4276 51.963 70.886C52.0056 77.8977 53.9644 84.9366 57.8395 90.7228C62.5198 97.7139 70.6736 104.738 78.9573 104.805C81.5732 104.825 83.9111 104.525 86.0161 103.973C86.2108 103.923 86.2715 103.732 86.2229 103.579C86.1885 103.467 86.0932 103.374 85.9451 103.369C63.124 102.868 68.7228 83.3853 73.2185 79.0841C74.8184 77.5535 76.9903 77.7132 79.3101 78.4722C80.3179 78.8019 81.3521 79.2438 82.3802 79.7082L82.3822 79.7104C83.5848 80.2537 84.7791 80.8282 85.9065 81.2907C88.4231 82.3235 90.6171 82.8005 91.8785 81.1414C95.3684 76.5456 95.3157 78.437 96.8487 74.8699C97.7126 72.8581 95.2588 71.5848 93.227 70.5417C93.0486 70.4505 93.1459 70.1745 93.3406 70.216C101.555 71.9933 100.047 66.0288 100.047 66.0288C102.902 66.1906 105.915 63.8389 104.329 59.2161C102.744 54.5934 102.744 50.6198 102.744 50.6198C103.074 45.717 104.402 44.4872 105.361 39.6717C106.01 36.3991 106.353 34.3604 105.781 31.0733ZM97.5421 50.796C97.4206 50.8354 97.2968 50.8729 97.1752 50.908C96.9622 50.9682 96.8122 51.1652 96.8122 51.3912V53.1707C96.8122 53.6456 96.4188 54.0292 95.9463 53.9982C95.5164 53.9691 95.1899 53.5834 95.1899 53.1416V51.4203C95.1899 51.3103 95.1028 51.2212 94.9953 51.2212C94.543 51.2212 94.0949 51.1797 93.6508 51.0988C93.5596 51.0823 93.4703 51.132 93.4358 51.2212L92.718 53.1437C92.5943 53.4734 92.2861 53.6768 91.9597 53.6768C91.8521 53.6768 91.7426 53.6539 91.6372 53.6083C91.2357 53.4299 91.0572 52.9426 91.2154 52.5236L91.7406 51.1176C91.8521 50.8189 91.7265 50.483 91.4466 50.3398C91.2783 50.2548 91.112 50.1635 90.9457 50.064C90.6902 49.9126 90.3638 49.9747 90.1751 50.207L88.9382 51.7355C88.778 51.9325 88.5468 52.0363 88.3136 52.0363C88.1311 52.0363 87.9485 51.974 87.7966 51.8454C87.4518 51.5551 87.4032 51.0305 87.689 50.6778L88.9665 49.0997C89.1085 48.9233 89.0923 48.6661 88.9321 48.5085C88.7374 48.3199 88.5528 48.1311 88.3805 47.9424C88.2427 47.791 88.0216 47.7619 87.8493 47.872L86.4419 48.7678C86.31 48.8507 86.1621 48.8922 86.0161 48.8922C85.7383 48.8922 85.4645 48.747 85.3145 48.4796C85.0914 48.0876 85.2373 47.5836 85.6125 47.343L86.7602 46.613C86.961 46.4844 87.0219 46.2127 86.8921 46.0075C86.6934 45.6984 86.586 45.4973 86.5717 45.4744C86.3567 45.0721 86.5028 44.5681 86.894 44.3483C87.2854 44.1285 87.7782 44.2757 87.9952 44.676C88.0094 44.703 88.9138 46.3559 90.5117 47.7288C91.3796 48.4732 92.274 48.9896 93.1926 49.2821C93.2229 49.2904 93.2553 49.2988 93.2857 49.3112L93.2879 49.3132C94.5147 49.6803 95.7801 49.6471 97.0758 49.2095C97.5159 49.0622 97.9923 49.3174 98.114 49.782C98.2216 50.2154 97.9579 50.6571 97.5421 50.796ZM99.0509 45.9058C99.0388 45.9058 99.0265 45.9058 99.0144 45.9058C98.5845 45.9058 98.2255 45.5575 98.2052 45.1136C98.1485 43.7843 97.6761 42.7929 96.7655 42.0774C93.8293 39.7732 87.5167 41.167 87.4538 41.1814C87.0178 41.279 86.5838 40.999 86.4866 40.5511C86.3913 40.103 86.6649 39.6613 87.103 39.5617C87.3909 39.4975 94.2145 37.9876 97.7511 40.7605C99.0468 41.7766 99.7444 43.216 99.8234 45.0389C99.8458 45.4973 99.4991 45.8851 99.0509 45.9058Z" fill="#C28565"/>
<path d="M86.2226 103.576C81.6053 103.777 74.9642 103.041 69.5967 98.3438C61.2764 91.0602 59.0641 76.9266 65.4396 64.5931C65.7417 64.0083 66.5833 64.0767 66.7941 64.7029C67.9785 68.2162 71.1702 74.6308 79.3098 78.4716C76.99 77.7146 74.8183 77.5529 73.2182 79.0835C68.7226 83.3826 63.1237 102.865 85.9449 103.369C86.0929 103.371 86.1882 103.464 86.2226 103.576Z" fill="#AB6A49"/>
<path d="M73.1579 106.07C68.9461 105.315 64.7181 103.732 61.8975 101.988C60.261 100.976 58.7827 99.7443 57.3592 98.4356C54.4554 95.0883 51.8659 91.4507 49.0635 88.01C45.533 83.6756 41.5422 79.5631 36.5781 77.0994C31.3504 74.5049 25.2771 73.8578 20.0758 71.3505C21.8725 72.8727 24.0726 73.9595 26.2808 74.7931C29.6086 76.0499 33.1065 76.8712 36.2638 78.5262C40.8487 80.9319 44.4259 84.9449 47.5445 89.1445C47.9177 89.6464 48.2848 90.1524 48.6498 90.6606C48.7086 90.7435 48.6133 90.8493 48.5281 90.7933C43.0489 87.1722 36.6431 85.1191 30.3649 83.1614C24.4964 81.3321 18.5123 79.4698 13.2359 76.3528C11.9868 75.6165 10.7782 74.8097 9.61831 73.9137C4.20809 69.7412 0.0510344 63.2249 0.00439453 56.4121C3.62405 58.8698 8.11769 60.4771 12.0719 61.4247C19.076 63.1046 26.4836 63.4178 33.0173 66.4975C39.6461 69.6209 44.9146 75.1686 49.1588 81.2865C49.5623 81.8693 49.9577 82.4563 50.343 83.0473C52.0341 85.6396 53.6118 88.2755 55.2544 90.7912C55.2564 90.7953 55.2584 90.7996 55.2624 90.8015V90.8036C58.1805 95.277 61.3034 99.373 65.6367 102.191C67.2123 103.216 69.0901 104.234 71.1686 105.109C71.8276 105.387 72.5091 105.651 73.2046 105.893C73.3019 105.935 73.2634 106.09 73.1579 106.07Z" fill="#C28565"/>
<path d="M56.482 101.13C51.5079 98.1394 46.3085 95.4143 40.811 94.7734C35.93 94.2052 30.9336 93.6597 26.5191 91.5484C28.8449 93.2719 31.9921 94.2943 34.6993 94.8604C37.9681 95.5449 41.3606 95.9451 44.5646 96.8991C46.8093 97.569 49.9727 99.1556 53.0835 100.887C53.1747 100.939 53.1362 101.084 53.0327 101.078C51.7836 101.018 50.5264 101.051 49.2914 101.142C45.3696 101.435 41.4641 102.235 37.5361 102.036C32.3368 101.773 27.2451 99.6906 23.2887 96.2313C23.0717 96.0427 22.8588 95.8476 22.6479 95.6507C19.3021 92.4962 16.889 88.3278 15.7534 83.8232C16.2015 84.0637 16.6599 84.2878 17.1302 84.4951C20.032 85.7789 23.2868 86.4384 26.44 86.8282C32.0063 87.5189 37.7896 87.6433 42.8835 90.0366C44.1022 90.6089 45.2499 91.2975 46.3511 92.0629C49.1941 94.0455 51.7167 96.557 54.2616 98.9543C55.0078 99.6574 55.7683 100.358 56.5449 101.035C56.5957 101.084 56.5408 101.165 56.482 101.13Z" fill="#C28565"/>
<path d="M59.4352 37.3666C59.2729 39.0341 58.1515 40.5189 56.4867 41.0415C54.5825 41.6368 52.5832 40.7802 51.628 39.0879C51.4699 38.8121 51.3422 38.5114 51.2469 38.192C50.5695 35.9253 51.8166 33.5258 54.0331 32.8331C56.2495 32.1403 58.5957 33.4158 59.2729 35.6827C59.4412 36.2447 59.4899 36.8149 59.4352 37.3666Z" fill="#C28565"/>
<path d="M70.5689 18.791C70.3601 19.3987 70.1126 19.971 69.8226 20.4895C67.0304 25.4814 62.8672 27.4287 59.6126 28.5632C58.8663 25.7489 58.2235 22.0947 59.4423 17.9863C59.6937 17.1401 60.0242 16.2753 60.448 15.3919C62.8246 10.4581 70.942 6.01577 71.4226 5.8457C71.5402 6.29367 72.2986 13.7867 70.5689 18.791Z" fill="#C28565"/>
<path d="M60.0783 8.0882C60.0438 8.18982 60.0094 8.29354 59.9688 8.39308C59.4679 9.64365 58.4763 10.6204 57.6388 11.674C57.0142 10.4753 56.2214 9.32425 55.9638 7.99904C55.7833 7.07201 55.8786 6.13461 56.1322 5.22417C56.3796 4.33446 56.7771 3.47173 57.2191 2.66498C57.5922 1.98681 57.9978 1.319 58.383 0.644979C58.5047 0.431368 58.6244 0.215686 58.7379 0C58.6791 0.62217 58.6203 1.26301 58.5574 1.92251C58.4439 3.15026 58.3222 4.43607 58.1965 5.76545C58.158 6.17401 58.1195 6.5867 58.0808 7.00356C58.1214 6.5867 58.158 6.17401 58.1965 5.76545C58.3222 4.43607 58.4418 3.14819 58.5574 1.92251C58.6203 1.26301 58.6791 0.62217 58.7379 0C58.8089 0.234351 58.8859 0.468704 58.965 0.703055C59.2164 1.44136 59.4922 2.17345 59.7295 2.91384C60.2689 4.58539 60.6176 6.43531 60.0783 8.0882Z" fill="#C28565"/>
<path d="M88.186 26.641C87.9589 27.0433 83.2969 32.9103 78.6065 35.1896C78.0448 35.4632 77.4832 35.6831 76.9296 35.8386C71.5031 37.3506 67.2143 35.7163 64.1279 34.1649C65.0791 32.4685 66.3262 30.5356 68.1614 28.8371C69.6255 27.4829 71.4626 26.2759 73.825 25.4568C78.9169 23.6855 87.7278 26.4149 88.186 26.641Z" fill="#C28565"/>
<path d="M82.557 13.5348C81.8189 13.7339 81.0706 13.9102 80.3386 14.1217C78.5805 14.6277 76.7797 15.4323 75.7639 16.9858C75.5023 17.386 75.3035 17.8194 75.1393 18.2737L75.1373 18.2757C74.8412 19.0907 74.6547 19.9617 74.4072 20.7976C75.7274 20.6586 77.1043 20.6856 78.3229 20.163C79.0854 19.8354 79.7323 19.3189 80.2839 18.6925C80.955 17.9377 81.4925 17.0293 81.9427 16.1168C82.2853 15.422 82.5976 14.7045 82.9302 14.0014C83.0357 13.7795 83.1431 13.5576 83.2525 13.3398C83.0234 13.4062 82.7923 13.4705 82.557 13.5348ZM82.0035 14.3913C82.2164 14.2109 82.4293 14.0304 82.6382 13.8562C82.4293 14.0325 82.2185 14.2109 82.0035 14.3913Z" fill="#C28565"/>
<path d="M50.0703 58.4809C47.6936 63.4146 39.5742 67.857 39.0956 68.027C38.9659 67.5252 38.027 58.1574 40.6957 53.3833C43.4879 48.3914 47.6489 46.4439 50.9037 45.3115L50.9056 45.3096C51.806 48.7045 52.5543 53.321 50.0703 58.4809Z" fill="#C28565"/>
<path d="M30.5571 34.503C29.385 35.1439 28.2596 35.9527 26.9637 36.2161C25.1732 36.5811 23.3441 35.847 21.7503 34.9323C21.085 34.5529 20.4341 34.136 19.775 33.7419C19.5662 33.6175 19.3553 33.4952 19.1445 33.379C19.3736 33.3044 19.6028 33.2255 19.8319 33.1447C20.5538 32.8876 21.2696 32.6054 21.9915 32.3628C23.7253 31.7779 25.6599 31.413 27.349 32.1202C28.5697 32.6324 29.5248 33.6445 30.553 34.5009C30.5571 34.503 30.5571 34.503 30.5571 34.503Z" fill="#C28565"/>
<path d="M46.3909 39.7106C44.6836 42.7612 42.0191 46.569 36.694 48.4189C31.6021 50.1879 22.7912 47.4587 22.335 47.2326C22.5885 46.7825 28.4023 39.4804 33.5914 38.0348C39.0158 36.523 43.3047 38.1551 46.389 39.7085L46.3909 39.7106Z" fill="#C28565"/>
<path d="M32.1954 53.7137C30.5102 54.4355 29.395 56.0905 28.5737 57.7599C28.2311 58.4547 27.9188 59.1723 27.5861 59.8753C27.4807 60.0973 27.3732 60.3191 27.2617 60.5368C27.4928 60.4685 27.726 60.4021 27.9592 60.3399C28.6973 60.1407 29.4456 59.9624 30.1776 59.753C31.9358 59.2449 33.7365 58.4422 34.7504 56.8889C35.4845 55.7648 35.7217 54.3796 36.107 53.0791V53.0771C34.7889 53.2202 33.412 53.1932 32.1954 53.7137ZM28.085 59.8463C28.3629 59.6119 28.6447 59.3734 28.9326 59.1308C28.6447 59.3755 28.3608 59.614 28.085 59.8463Z" fill="#C28565"/>
<path d="M47.0711 32.4833C43.7535 33.4041 39.2376 34.1715 34.1924 31.6289C32.3085 30.6811 30.4997 28.8353 28.9809 26.9107V26.9088C26.6145 23.9036 24.9617 20.7057 24.8604 20.4049C25.3512 20.2722 34.5107 19.3121 39.1788 22.0413C40.4624 22.792 41.5392 23.6381 42.4496 24.5403C45.0027 27.0726 46.2539 30.03 47.0711 32.4833Z" fill="#C28565"/>
<path d="M38.9864 13.7122C38.9458 13.5898 38.9032 13.4695 38.8546 13.3493C38.1489 11.6279 36.5307 10.4873 34.8984 9.64734C34.2191 9.29685 33.5173 8.97747 32.83 8.63736C32.613 8.52952 32.396 8.4196 32.1831 8.30762C32.2501 8.54404 32.3149 8.78253 32.3778 9.02102C32.5724 9.77592 32.7448 10.5412 32.9517 11.292C33.1544 12.0323 33.4099 12.7831 33.7445 13.4799C34.2191 14.4733 34.8578 15.3609 35.75 15.9707C36.849 16.7194 38.2057 16.962 39.4751 17.3581V17.356C39.3514 16.1324 39.3595 14.8653 38.9864 13.7122Z" fill="#C28565"/>
<path d="M52.5471 27.8674C49.5642 26.1191 45.8411 23.3961 44.0322 17.9501C43.6834 16.9007 43.5131 15.6998 43.4664 14.4431C43.2779 9.45951 45.0157 3.63601 45.1921 3.2627C45.6221 3.51778 52.4822 9.22724 54.0902 14.4452C54.1227 14.5551 54.1551 14.665 54.1834 14.7728C55.6618 20.3247 54.0658 24.7109 52.5471 27.8674Z" fill="#C28565"/>
<path d="M49.1543 81.2884C41.4831 71.2321 33.1061 66.8956 23.764 65.5392C20.3897 65.0498 14.4563 63.9983 11.0779 63.5192C8.52492 63.1584 5.96175 62.5653 3.62166 61.4869C5.44871 67.1983 8.8352 72.3645 13.2315 76.3546C11.9824 75.6183 10.7738 74.8115 9.61387 73.9157C4.20365 69.743 0.0466398 63.2269 0 56.4141C3.61966 58.8716 8.11325 60.4789 12.0675 61.4267C19.0715 63.1066 26.4792 63.4196 33.0128 66.4995C39.6438 69.6227 44.9101 75.1682 49.1543 81.2884Z" fill="#AB6A49"/>
<path d="M55.2581 90.8079C55.256 90.804 55.2521 90.8 55.25 90.7959C55.2521 90.8 55.254 90.804 55.2581 90.806V90.8079Z" fill="#AB6A49"/>
<path d="M40.3513 89.6675C33.0349 87.7677 25.0393 89.1324 17.9946 86.4446C18.8909 89.7608 20.6308 92.8032 22.7154 95.5096C22.9019 95.7523 23.0947 95.9949 23.2873 96.2334C23.0703 96.0446 22.8574 95.8497 22.6465 95.6528C19.3007 92.4983 16.8875 88.3297 15.752 83.8252C16.2 84.0658 16.6584 84.2898 17.1288 84.4972C20.0306 85.781 23.2852 86.4405 26.4385 86.8303C32.0048 87.521 37.7882 87.6454 42.882 90.0387C44.1008 90.611 45.2485 91.2996 46.3497 92.0648C44.4576 91.0196 42.438 90.2087 40.3513 89.6675Z" fill="#AB6A49"/>
<path d="M104.063 26.7554C103.85 26.6372 103.631 26.5315 103.406 26.434C100.679 25.2644 97.3249 25.814 95.0882 27.7966C93.0137 29.6362 91.8153 32.2761 90.2885 34.6114C87.3582 39.0952 82.5239 42.1023 77.2089 42.5005C72.2793 42.8696 67.4003 43.0356 63.2251 45.7421C58.691 48.6828 55.7505 53.7057 54.2012 58.9631C53.2137 62.3083 52.4635 65.9106 51.9688 69.5005C52.0782 62.8994 53.2868 55.9975 56.513 50.0495C58.4314 46.5135 61.4244 42.9589 65.0765 41.4118C68.7287 39.8666 73.2182 40.7729 77.0894 39.9516C80.9604 39.1305 84.2556 37.3718 87.0681 34.5305C88.6012 32.9833 89.7023 31.0671 90.9008 29.2275C91.3022 28.6117 91.7139 28.004 92.158 27.4212C93.9223 25.0984 96.5199 23.0578 99.3851 23.3149C101.251 23.4871 102.893 24.9325 104.063 26.7554Z" fill="#AB6A49"/>
<path d="M50.9022 45.3135C50.7319 45.4235 39.7512 52.4995 39.0942 68.029C38.9645 67.5271 38.0256 58.1592 40.6942 53.3851C43.4886 48.3932 47.6496 46.4459 50.9022 45.3135Z" fill="#AB6A49"/>
<path d="M36.1121 53.0791C36.1121 53.0791 31.0547 55.294 27.2646 60.539C27.3762 60.3212 27.4836 60.0994 27.5891 59.8774C27.9217 59.1743 28.234 58.4568 28.5768 57.762C29.3979 56.0946 30.5132 54.4395 32.1983 53.7158C33.413 53.1932 34.79 53.2202 36.1121 53.0791Z" fill="#AB6A49"/>
<path d="M46.3883 39.7092C46.1652 39.6739 34.116 37.7721 22.3364 47.2332C22.5899 46.7833 28.4036 39.481 33.5927 38.0356C39.0153 36.5257 43.304 38.1579 46.3883 39.7092Z" fill="#AB6A49"/>
<path d="M30.555 34.503C27.2375 32.6966 19.1445 33.381 19.1445 33.381C19.3736 33.3063 19.6028 33.2275 19.8319 33.1466C20.5538 32.8895 21.2696 32.6075 21.9915 32.3647C23.7253 31.78 25.6599 31.4149 27.349 32.1221C28.5697 32.6323 29.527 33.6464 30.555 34.503Z" fill="#AB6A49"/>
<path d="M54.0898 14.4472C52.1349 10.8138 49.1663 7.74649 45.6135 5.74102C44.5814 8.54701 43.8615 11.4733 43.464 14.4431C43.2753 9.45951 45.0133 3.63601 45.1896 3.2627C45.6236 3.51986 52.4818 9.22724 54.0898 14.4472Z" fill="#AB6A49"/>
<path d="M70.568 18.7911C70.9351 15.3712 70.8357 11.8995 70.2699 8.50663C65.756 10.2923 61.885 13.7142 59.4434 17.9844C59.6949 17.1382 60.0254 16.2734 60.4492 15.3899C62.8258 10.4561 70.9432 6.01381 71.4238 5.84375C71.5393 6.29378 72.2977 13.7868 70.568 18.7911Z" fill="#AB6A49"/>
<path d="M88.1858 26.6418C87.9586 27.0442 83.2968 32.9113 78.6063 35.1904C79.7237 34.4666 80.7579 33.5956 81.6886 32.6353C83.2115 31.0717 84.4911 29.282 85.6632 27.4216C81.8772 26.0072 77.6898 25.7272 73.7579 26.6377C71.803 27.0898 69.9131 27.8364 68.1611 28.836C69.6252 27.4818 71.4624 26.2747 73.8247 25.4555C78.9166 23.6865 87.7275 26.4158 88.1858 26.6418Z" fill="#AB6A49"/>
<path d="M42.4481 24.5425C41.3573 23.9265 40.3008 23.2938 39.1185 22.8211C36.312 21.6991 33.2866 21.1495 30.2752 21.2138C28.9633 21.2408 27.6552 21.388 26.3697 21.6535C26.7974 23.1799 27.7101 24.6979 28.4644 26.0294C28.6306 26.326 28.8031 26.6184 28.9795 26.9088C26.613 23.9036 24.9603 20.7057 24.8589 20.4049C25.3497 20.2722 34.5093 19.3121 39.1773 22.0413C40.459 22.7941 41.5377 23.6402 42.4481 24.5425Z" fill="#AB6A49"/>
<path d="M33.2417 9.62063C33.1606 9.59575 33.0775 9.57086 32.9943 9.54597C33.2316 10.7986 33.4708 12.0492 33.7081 13.3018C33.7183 13.3599 33.7304 13.4179 33.7425 13.476C33.4079 12.7792 33.1546 12.0284 32.9497 11.2881C32.7429 10.5373 32.5704 9.77201 32.3759 9.01712C32.315 8.77862 32.2501 8.54013 32.1812 8.30371C32.3941 8.41571 32.611 8.52561 32.828 8.63346C33.5155 8.97357 34.2171 9.29295 34.8964 9.64344C36.5268 10.4834 38.1469 11.624 38.8526 13.3454C38.9014 13.4657 38.9459 13.5859 38.9844 13.7083C37.5447 11.7899 35.5088 10.3341 33.2417 9.62063Z" fill="#AB6A49"/>
<path d="M59.7313 2.91579C59.494 2.17541 59.2182 1.44332 58.9668 0.705007C58.8877 0.47273 58.8106 0.238378 58.7397 0.00195312L58.7377 0.00610497V0.00195312C58.6241 0.217639 58.5045 0.43332 58.3828 0.646933C57.9996 1.32095 57.592 1.98874 57.2188 2.6669C56.7787 3.47158 56.3793 4.33641 56.1318 5.22612C56.6652 3.94859 57.5006 2.79964 58.5551 1.92446C58.5713 1.90995 58.5875 1.89751 58.6039 1.88299C59.6319 3.76401 60.145 5.93537 60.076 8.08808C60.6174 6.43518 60.2686 4.58528 59.7313 2.91579Z" fill="#AB6A49"/>
<path d="M83.2539 13.335C83.1445 13.5527 83.037 13.7746 82.9316 13.9965C82.599 14.6996 82.2867 15.4172 81.9439 16.1119C81.4939 17.0244 80.9564 17.9327 80.2852 18.6876C81.0497 17.3458 81.6296 15.8942 82.0028 14.3906V14.3885C82.013 14.347 82.023 14.3055 82.0353 14.2641C82.0251 14.3035 80.9179 14.6623 80.8064 14.6892C80.4212 14.7805 79.7479 15.0376 79.3768 15.1746C78.0344 15.6722 77.1522 16.0995 76.1262 17.1116C75.8666 17.3666 75.6213 17.6383 75.39 17.9224C75.317 18.0117 75.234 18.165 75.1406 18.2667C75.3049 17.8145 75.5037 17.379 75.7652 16.9788C76.7811 15.4255 78.5819 14.6229 80.34 14.1148C81.072 13.9032 81.8203 13.7269 82.5584 13.5278C82.7916 13.4697 83.0228 13.4055 83.2539 13.335Z" fill="#AB6A49"/>
<path d="M59.4352 37.3665C59.3865 37.1632 59.3703 36.9103 59.3277 36.7506C59.2466 36.4457 59.1513 36.1449 59.0316 35.8524C58.764 35.1951 58.3666 34.577 57.8068 34.1539C57.2695 33.7454 56.6044 33.5339 55.9372 33.4904C54.2886 33.3825 52.6176 34.3614 51.8754 35.8732C51.3908 36.8604 51.3219 38.0342 51.6281 39.0899C51.4699 38.8141 51.3422 38.5133 51.2469 38.1939C50.5695 35.9272 51.8166 33.5277 54.0331 32.835C56.2495 32.1424 58.5957 33.4178 59.273 35.6846C59.4412 36.2445 59.49 36.8148 59.4352 37.3665Z" fill="#AB6A49"/>
<path d="M55.2575 39.8857C57.2128 39.8857 58.798 38.2644 58.798 36.2647C58.798 34.2648 57.2128 32.6436 55.2575 32.6436C53.3021 32.6436 51.7168 34.2648 51.7168 36.2647C51.7168 38.2644 53.3021 39.8857 55.2575 39.8857Z" fill="#AB6A49"/>
</svg>
