<svg width="224" height="80" viewBox="0 0 224 80" fill="none" xmlns="http://www.w3.org/2000/svg">
<path d="M68.3755 69.0985C69.1364 69.1894 69.7388 69.4439 70.1827 69.862C70.6357 70.28 70.8621 70.7981 70.8621 71.4161C70.8621 71.8887 70.7263 72.3158 70.4545 72.6975C70.1827 73.0792 69.8068 73.3837 69.3267 73.6109C68.8465 73.829 68.3121 73.9381 67.7232 73.9381C67.4696 73.9381 67.1797 73.9245 66.8536 73.8972C66.7267 73.8881 66.5682 73.879 66.378 73.8699C66.1968 73.8608 65.993 73.8563 65.7665 73.8563L64.7745 73.8699C64.5934 73.879 64.3488 73.8836 64.0408 73.8836C64.0136 73.8836 64 73.8563 64 73.8018C64 73.7472 64.0136 73.72 64.0408 73.72C64.3035 73.72 64.5028 73.6972 64.6387 73.6518C64.7745 73.5973 64.8697 73.5064 64.924 73.3792C64.9874 73.2428 65.0191 73.0429 65.0191 72.7793V66.4675C65.0191 66.0858 64.9557 65.8358 64.8289 65.7177C64.7021 65.5905 64.4439 65.5268 64.0544 65.5268C64.0362 65.5268 64.0272 65.4996 64.0272 65.445C64.0272 65.3905 64.0362 65.3632 64.0544 65.3632L64.7745 65.3769C65.1912 65.3951 65.5219 65.4041 65.7665 65.4041C66.0201 65.4041 66.2829 65.3905 66.5546 65.3632C66.6452 65.3542 66.7811 65.3451 66.9623 65.336C67.1434 65.3269 67.302 65.3224 67.4379 65.3224C68.2622 65.3224 68.9009 65.4723 69.3538 65.7722C69.8068 66.0721 70.0332 66.5084 70.0332 67.0809C70.0332 67.5172 69.8883 67.9125 69.5984 68.267C69.3176 68.6214 68.9099 68.8986 68.3755 69.0985ZM67.234 65.6223C66.9713 65.6223 66.7902 65.6859 66.6905 65.8131C66.5909 65.9313 66.541 66.1585 66.541 66.4947V69.0849L67.0846 69.0985C67.5556 69.0985 67.918 68.9213 68.1716 68.5669C68.4253 68.2124 68.5521 67.758 68.5521 67.2036C68.5521 66.6856 68.4389 66.2948 68.2124 66.0312C67.9859 65.7586 67.6598 65.6223 67.234 65.6223ZM67.4922 73.5973C68.6789 73.5973 69.2723 72.9793 69.2723 71.7433C69.2723 71.0434 69.1047 70.4891 68.7695 70.0801C68.4343 69.6711 67.927 69.4666 67.2476 69.4666C66.9849 69.4666 66.7494 69.4757 66.541 69.4939V72.7793C66.541 73.0792 66.5999 73.2928 66.7177 73.4201C66.8354 73.5382 67.0936 73.5973 67.4922 73.5973ZM76.8373 72.9838C76.8554 72.9838 76.8735 73.002 76.8917 73.0383C76.9188 73.0747 76.9234 73.102 76.9052 73.1201C76.5701 73.4473 76.2303 73.6836 75.8861 73.829C75.5419 73.9744 75.1659 74.0471 74.7583 74.0471C74.1876 74.0471 73.6939 73.929 73.2771 73.6927C72.8604 73.4473 72.5434 73.1247 72.326 72.7248C72.1085 72.3158 71.9998 71.875 71.9998 71.4024C71.9998 70.8753 72.1312 70.3891 72.3939 69.9438C72.6566 69.4984 73.019 69.1485 73.481 68.8941C73.952 68.6305 74.482 68.4987 75.0708 68.4987C75.6325 68.4987 76.0673 68.626 76.3753 68.8804C76.6833 69.1349 76.8373 69.5302 76.8373 70.0665C76.8373 70.3482 76.7875 70.4891 76.6878 70.4891L73.3858 70.5027C73.3768 70.5663 73.3723 70.6708 73.3723 70.8162C73.3723 71.616 73.5534 72.2431 73.9158 72.6975C74.2872 73.1519 74.8172 73.3792 75.5056 73.3792C75.7502 73.3792 75.9586 73.3519 76.1307 73.2974C76.3028 73.2428 76.5293 73.1429 76.8101 72.9974L76.8373 72.9838ZM74.5545 68.7714C74.2555 68.7714 74.0064 68.9032 73.8071 69.1667C73.6078 69.4212 73.4764 69.7756 73.413 70.23L75.3833 70.2028C75.3743 69.7393 75.3063 69.3848 75.1795 69.1395C75.0527 68.8941 74.8443 68.7714 74.5545 68.7714ZM82.9115 73.1474C82.9478 73.1474 82.9704 73.1701 82.9795 73.2156C82.9976 73.2519 82.9885 73.2792 82.9523 73.2974L81.5527 73.9653C81.5165 73.9835 81.4712 73.9926 81.4168 73.9926C81.2719 73.9926 81.1315 73.9154 80.9956 73.7609C80.8687 73.6064 80.7782 73.3973 80.7238 73.1338L80.1395 73.5427C79.9312 73.6972 79.7364 73.8108 79.5552 73.8836C79.374 73.9472 79.1702 73.979 78.9437 73.979C78.5542 73.979 78.2598 73.8926 78.0605 73.72C77.8612 73.5473 77.7615 73.3064 77.7615 72.9974C77.7615 72.7521 77.8204 72.5567 77.9382 72.4112C78.056 72.2567 78.2009 72.1386 78.373 72.0568C78.5542 71.9659 78.8033 71.8659 79.1204 71.7569L79.4601 71.6342L80.683 71.1843V70.4073C80.683 69.8256 80.6332 69.403 80.5336 69.1395C80.443 68.8759 80.2845 68.7441 80.058 68.7441C79.5779 68.7441 79.3061 69.1167 79.2427 69.862C79.2155 70.1346 79.134 70.33 78.9981 70.4482C78.8713 70.5663 78.6901 70.6254 78.4545 70.6254C78.2281 70.6254 78.0605 70.5799 77.9518 70.4891C77.8521 70.3891 77.8023 70.2619 77.8023 70.1074C77.8023 69.8347 77.9608 69.5757 78.2779 69.3303C78.595 69.0758 78.9754 68.8713 79.4193 68.7168C79.8723 68.5623 80.2709 68.4851 80.6151 68.4851C81.0137 68.4851 81.3353 68.6123 81.5799 68.8668C81.8335 69.1122 81.9604 69.4894 81.9604 69.9983V72.4112C81.9604 72.6748 82.0056 72.8793 82.0962 73.0247C82.1959 73.1701 82.3318 73.2428 82.5039 73.2428C82.6307 73.2428 82.7621 73.211 82.8979 73.1474H82.9115ZM80.6966 72.902C80.6876 72.8657 80.683 72.8066 80.683 72.7248V71.4161L80.0987 71.6887C80.0716 71.6978 79.981 71.7342 79.827 71.7978C79.673 71.8523 79.5371 71.9477 79.4193 72.0841C79.3106 72.2204 79.2563 72.3794 79.2563 72.5612C79.2563 72.7793 79.3242 72.952 79.4601 73.0792C79.605 73.1974 79.7681 73.2565 79.9493 73.2565C80.0942 73.2565 80.2437 73.2065 80.3977 73.1065L80.6966 72.902ZM89.718 72.9974C89.7451 72.9974 89.7678 73.0202 89.7859 73.0656C89.8131 73.111 89.8131 73.1383 89.7859 73.1474L87.9107 74.0608C87.8926 74.0699 87.87 74.0744 87.8428 74.0744C87.7522 74.0744 87.6707 73.979 87.5982 73.7881C87.5348 73.5882 87.4985 73.3201 87.4895 72.9838C86.8916 73.6927 86.2439 74.0471 85.5463 74.0471C85.0481 74.0471 84.654 73.8926 84.3641 73.5836C84.0833 73.2655 83.9429 72.852 83.9429 72.3431V70.3391C83.9429 69.7484 83.8025 69.453 83.5217 69.453C83.422 69.453 83.3088 69.4848 83.1819 69.5484H83.1684C83.1321 69.5484 83.1049 69.5257 83.0868 69.4803C83.0687 69.4257 83.0732 69.3939 83.1004 69.3848L84.9213 68.5124L84.9892 68.4987C85.0345 68.4987 85.0798 68.5214 85.1251 68.5669C85.1794 68.6032 85.2066 68.6396 85.2066 68.6759V71.6887C85.2066 72.6703 85.5826 73.161 86.3345 73.161C86.5338 73.161 86.7331 73.1201 86.9324 73.0383C87.1407 72.9475 87.3264 72.8248 87.4895 72.6703V70.3391C87.4895 69.7484 87.3491 69.453 87.0682 69.453C86.9686 69.453 86.8508 69.4848 86.7149 69.5484H86.7013C86.6742 69.5484 86.6515 69.5257 86.6334 69.4803C86.6153 69.4257 86.6198 69.3939 86.647 69.3848L88.4678 68.5124C88.486 68.5033 88.5086 68.4987 88.5358 68.4987C88.5811 68.4987 88.6264 68.5214 88.6717 68.5669C88.726 68.6032 88.7532 68.6396 88.7532 68.6759V72.3022C88.7532 72.6112 88.7804 72.8293 88.8347 72.9565C88.8981 73.0838 88.9978 73.1474 89.1337 73.1474C89.2605 73.1474 89.4462 73.0974 89.6908 72.9974H89.718ZM94.2006 72.9293C94.2368 72.9293 94.264 72.9475 94.2821 72.9838C94.3093 73.0202 94.3093 73.0474 94.2821 73.0656C93.9469 73.4019 93.6208 73.6518 93.3037 73.8154C92.9867 73.9699 92.6515 74.0471 92.2982 74.0471C91.8996 74.0471 91.5599 73.9517 91.2791 73.7609C90.9982 73.57 90.8578 73.2474 90.8578 72.793V69.7665C90.8578 69.4848 90.808 69.2894 90.7083 69.1803C90.6087 69.0713 90.4275 69.0168 90.1648 69.0168C90.1557 69.0168 90.1422 69.0031 90.124 68.9759C90.115 68.9486 90.1104 68.9213 90.1104 68.8941C90.1104 68.8577 90.115 68.8304 90.124 68.8123C90.1331 68.785 90.1467 68.7714 90.1648 68.7714C90.6268 68.7532 90.9982 68.6532 91.2791 68.4715C91.5689 68.2897 91.7909 68.0125 91.9449 67.6399C91.963 67.6035 91.9992 67.5853 92.0536 67.5853C92.117 67.5853 92.1487 67.6035 92.1487 67.6399V68.7305C92.6741 68.7214 93.263 68.6805 93.9152 68.6078C93.9333 68.6078 93.9514 68.6441 93.9696 68.7168C93.9967 68.7805 94.0103 68.8532 94.0103 68.935C94.0103 69.0258 93.9922 69.1167 93.956 69.2076C93.9288 69.2894 93.8971 69.3258 93.8608 69.3167C93.272 69.1894 92.7013 69.1213 92.1487 69.1122V72.3431C92.1487 72.6884 92.2348 72.9429 92.4069 73.1065C92.5881 73.2701 92.8236 73.3519 93.1135 73.3519C93.4758 73.3519 93.8291 73.2156 94.1734 72.9429L94.2006 72.9293ZM100.355 68.6214C100.373 68.6214 100.382 68.6487 100.382 68.7032C100.382 68.7577 100.373 68.785 100.355 68.785C100.065 68.785 99.8117 68.9122 99.5942 69.1667C99.3859 69.4121 99.1957 69.7711 99.0235 70.2437L97.5152 74.2653C97.0351 75.5376 96.5731 76.4283 96.1292 76.9372C95.6944 77.4553 95.2097 77.7143 94.6752 77.7143C94.4035 77.7143 94.1951 77.6552 94.0502 77.5371C93.9052 77.428 93.8328 77.2644 93.8328 77.0463C93.8328 76.8373 93.8962 76.6782 94.023 76.5692C94.1498 76.4601 94.3038 76.4056 94.485 76.4056C94.5847 76.4056 94.6662 76.4192 94.7296 76.4465C94.8021 76.4737 94.8881 76.5192 94.9878 76.5828C95.1599 76.7009 95.323 76.76 95.477 76.76C95.6853 76.76 95.871 76.6782 96.0341 76.5146C96.2062 76.3601 96.3829 76.0966 96.564 75.7239C96.7452 75.3604 96.9626 74.8378 97.2163 74.1562L95.0421 69.7529C94.8428 69.3621 94.6843 69.1031 94.5665 68.9759C94.4578 68.8486 94.3219 68.785 94.1589 68.785C94.1317 68.785 94.1181 68.7577 94.1181 68.7032C94.1181 68.6487 94.1317 68.6214 94.1589 68.6214C94.4125 68.6214 94.6073 68.626 94.7432 68.635L95.3139 68.6487L96.2515 68.635C96.3964 68.626 96.5912 68.6214 96.8358 68.6214C96.863 68.6214 96.8766 68.6487 96.8766 68.7032C96.8766 68.7577 96.863 68.785 96.8358 68.785C96.6003 68.785 96.4281 68.8077 96.3194 68.8532C96.2107 68.8895 96.1564 68.9531 96.1564 69.044C96.1564 69.1167 96.1836 69.2076 96.2379 69.3167L97.8413 72.6021L98.6566 70.23C98.7382 69.9938 98.7789 69.7802 98.7789 69.5893C98.7789 69.3348 98.7065 69.1394 98.5615 69.0031C98.4166 68.8577 98.2082 68.785 97.9365 68.785C97.9183 68.785 97.9093 68.7577 97.9093 68.7032C97.9093 68.6487 97.9183 68.6214 97.9365 68.6214C98.181 68.6214 98.3668 68.626 98.4936 68.635L99.3089 68.6487L99.8524 68.635C99.9611 68.626 100.129 68.6214 100.355 68.6214ZM105.711 66.7401C105.711 67.0673 105.792 67.3581 105.955 67.6126C106.128 67.8671 106.336 68.0897 106.58 68.2806C106.825 68.4715 107.156 68.7032 107.572 68.9759C108.025 69.2667 108.388 69.5212 108.66 69.7393C108.931 69.9574 109.162 70.2255 109.353 70.5436C109.543 70.8526 109.638 71.2116 109.638 71.6206C109.638 72.0932 109.511 72.5158 109.257 72.8884C109.004 73.2519 108.65 73.5382 108.198 73.7472C107.754 73.9472 107.255 74.0471 106.703 74.0471C106.295 74.0471 105.869 73.9926 105.425 73.8836C104.982 73.7654 104.683 73.6382 104.529 73.5018C104.483 73.4655 104.447 73.4337 104.42 73.4064C104.402 73.3701 104.393 73.3155 104.393 73.2428L104.352 71.0753V71.0616C104.352 71.0253 104.375 71.0071 104.42 71.0071C104.465 70.998 104.492 71.0116 104.501 71.048C104.773 71.6024 105.009 72.0523 105.208 72.3976C105.416 72.743 105.675 73.0474 105.983 73.311C106.3 73.5746 106.658 73.7063 107.056 73.7063C107.418 73.7063 107.717 73.6109 107.953 73.4201C108.188 73.2201 108.306 72.8838 108.306 72.4112C108.306 72.0114 108.216 71.6615 108.034 71.3615C107.862 71.0616 107.649 70.8072 107.396 70.5981C107.142 70.3891 106.793 70.1392 106.349 69.8483C105.915 69.5666 105.575 69.3258 105.33 69.1258C105.095 68.9259 104.891 68.685 104.719 68.4033C104.547 68.1216 104.461 67.7898 104.461 67.4081C104.461 66.9264 104.597 66.522 104.868 66.1948C105.149 65.8586 105.507 65.6132 105.942 65.4587C106.377 65.2951 106.834 65.2133 107.314 65.2133C107.631 65.2133 107.953 65.2451 108.279 65.3087C108.605 65.3632 108.868 65.4314 109.067 65.5132C109.149 65.5496 109.203 65.5905 109.23 65.6359C109.257 65.6723 109.271 65.7222 109.271 65.7859V67.7898C109.271 67.8171 109.248 67.8398 109.203 67.858C109.158 67.8671 109.131 67.858 109.122 67.8307L109.013 67.5717C108.786 66.9991 108.519 66.5129 108.211 66.113C107.912 65.7132 107.491 65.5132 106.947 65.5132C106.585 65.5132 106.286 65.6177 106.051 65.8268C105.824 66.0358 105.711 66.3402 105.711 66.7401ZM113.886 74.0608C113.442 74.0608 113.053 74.0108 112.718 73.9108V76.5283C112.718 76.8009 112.745 77.0009 112.799 77.1281C112.863 77.2553 112.976 77.3417 113.139 77.3871C113.311 77.4416 113.574 77.4689 113.927 77.4689C113.954 77.4689 113.968 77.4962 113.968 77.5507C113.968 77.6052 113.954 77.6325 113.927 77.6325C113.592 77.6325 113.329 77.6279 113.139 77.6189L112.065 77.6052L111.264 77.6189C111.128 77.6279 110.938 77.6325 110.693 77.6325C110.666 77.6325 110.652 77.6052 110.652 77.5507C110.652 77.4962 110.666 77.4689 110.693 77.4689C110.91 77.4689 111.069 77.4416 111.169 77.3871C111.277 77.3417 111.35 77.2553 111.386 77.1281C111.431 77.0009 111.454 76.8009 111.454 76.5283V70.2164C111.454 69.9256 111.422 69.7166 111.359 69.5893C111.295 69.4621 111.182 69.3985 111.019 69.3985C110.874 69.3985 110.666 69.4621 110.394 69.5893H110.367C110.34 69.5893 110.317 69.5666 110.299 69.5212C110.272 69.4757 110.267 69.4485 110.285 69.4394L112.215 68.4987C112.233 68.4896 112.256 68.4851 112.283 68.4851C112.373 68.4851 112.455 68.5623 112.527 68.7168C112.609 68.8713 112.663 69.0804 112.691 69.3439C113.352 68.7441 114.031 68.4442 114.729 68.4442C115.109 68.4442 115.463 68.5442 115.789 68.7441C116.124 68.9441 116.391 69.2349 116.591 69.6166C116.79 69.9983 116.889 70.4436 116.889 70.9526C116.889 71.6796 116.74 72.2795 116.441 72.7521C116.142 73.2156 115.762 73.5518 115.3 73.7609C114.847 73.9608 114.375 74.0608 113.886 74.0608ZM113.832 69.2076C113.424 69.2076 113.053 69.353 112.718 69.6439V69.7529V73.0383C112.917 73.2655 113.125 73.4382 113.343 73.5564C113.56 73.6654 113.827 73.72 114.144 73.72C115.06 73.72 115.517 72.9384 115.517 71.3752C115.517 70.6845 115.354 70.1528 115.028 69.7802C114.711 69.3985 114.312 69.2076 113.832 69.2076ZM123 73.1474C123.036 73.1474 123.059 73.1701 123.068 73.2156C123.086 73.2519 123.077 73.2792 123.04 73.2974L121.641 73.9653C121.605 73.9835 121.559 73.9926 121.505 73.9926C121.36 73.9926 121.22 73.9154 121.084 73.7609C120.957 73.6064 120.866 73.3973 120.812 73.1338L120.228 73.5427C120.019 73.6972 119.825 73.8108 119.643 73.8836C119.462 73.9472 119.258 73.979 119.032 73.979C118.642 73.979 118.348 73.8926 118.149 73.72C117.949 73.5473 117.85 73.3064 117.85 72.9974C117.85 72.7521 117.909 72.5567 118.026 72.4112C118.144 72.2567 118.289 72.1386 118.461 72.0568C118.642 71.9659 118.891 71.8659 119.209 71.7569L119.548 71.6342L120.771 71.1843V70.4073C120.771 69.8256 120.721 69.403 120.622 69.1395C120.531 68.8759 120.373 68.7441 120.146 68.7441C119.666 68.7441 119.394 69.1167 119.331 69.862C119.304 70.1346 119.222 70.33 119.086 70.4482C118.959 70.5663 118.778 70.6254 118.543 70.6254C118.316 70.6254 118.149 70.5799 118.04 70.4891C117.94 70.3891 117.89 70.2619 117.89 70.1074C117.89 69.8347 118.049 69.5757 118.366 69.3303C118.683 69.0758 119.064 68.8713 119.507 68.7168C119.96 68.5623 120.359 68.4851 120.703 68.4851C121.102 68.4851 121.423 68.6123 121.668 68.8668C121.922 69.1122 122.049 69.4894 122.049 69.9983V72.4112C122.049 72.6748 122.094 72.8793 122.184 73.0247C122.284 73.1701 122.42 73.2428 122.592 73.2428C122.719 73.2428 122.85 73.211 122.986 73.1474H123ZM120.785 72.902C120.776 72.8657 120.771 72.8066 120.771 72.7248V71.4161L120.187 71.6887C120.16 71.6978 120.069 71.7342 119.915 71.7978C119.761 71.8523 119.625 71.9477 119.507 72.0841C119.399 72.2204 119.344 72.3794 119.344 72.5612C119.344 72.7793 119.412 72.952 119.548 73.0792C119.693 73.1974 119.856 73.2565 120.037 73.2565C120.182 73.2565 120.332 73.2065 120.486 73.1065L120.785 72.902ZM132.013 65.2133C132.439 65.2133 132.869 65.2496 133.304 65.3224C133.748 65.386 134.101 65.4723 134.364 65.5814C134.446 65.6086 134.495 65.645 134.514 65.6904C134.541 65.7268 134.559 65.7949 134.568 65.8949L134.745 67.7898C134.745 67.8171 134.722 67.8353 134.677 67.8444C134.631 67.8534 134.6 67.8398 134.582 67.8035C134.328 67.0582 133.966 66.4902 133.494 66.0994C133.023 65.6995 132.457 65.4996 131.796 65.4996C131.18 65.4996 130.627 65.6677 130.138 66.004C129.658 66.3312 129.278 66.8037 128.997 67.4218C128.725 68.0398 128.589 68.7623 128.589 69.5893C128.589 70.4254 128.729 71.1616 129.01 71.7978C129.3 72.4249 129.694 72.9111 130.192 73.2565C130.7 73.5927 131.28 73.7609 131.932 73.7609C132.557 73.7609 133.082 73.5927 133.508 73.2565C133.934 72.9111 134.337 72.3476 134.717 71.566C134.726 71.5388 134.754 71.5297 134.799 71.5388C134.844 71.5479 134.867 71.566 134.867 71.5933L134.663 73.2837C134.645 73.3928 134.627 73.4655 134.609 73.5018C134.591 73.5291 134.541 73.5609 134.459 73.5973C133.626 73.8972 132.783 74.0471 131.932 74.0471C130.963 74.0471 130.093 73.8654 129.323 73.5018C128.562 73.1292 127.964 72.6112 127.529 71.9477C127.094 71.2843 126.877 70.53 126.877 69.6847C126.877 68.8214 127.099 68.0534 127.543 67.3809C127.996 66.6992 128.612 66.1676 129.391 65.7859C130.179 65.4041 131.053 65.2133 132.013 65.2133ZM141.154 73.1474C141.19 73.1474 141.213 73.1701 141.222 73.2156C141.24 73.2519 141.231 73.2792 141.195 73.2974L139.795 73.9653C139.759 73.9835 139.713 73.9926 139.659 73.9926C139.514 73.9926 139.374 73.9154 139.238 73.7609C139.111 73.6064 139.02 73.3973 138.966 73.1338L138.382 73.5427C138.173 73.6972 137.979 73.8108 137.797 73.8836C137.616 73.9472 137.412 73.979 137.186 73.979C136.796 73.979 136.502 73.8926 136.303 73.72C136.103 73.5473 136.004 73.3064 136.004 72.9974C136.004 72.7521 136.063 72.5567 136.18 72.4112C136.298 72.2567 136.443 72.1386 136.615 72.0568C136.796 71.9659 137.046 71.8659 137.363 71.7569L137.702 71.6342L138.925 71.1843V70.4073C138.925 69.8256 138.875 69.403 138.776 69.1395C138.685 68.8759 138.527 68.7441 138.3 68.7441C137.82 68.7441 137.548 69.1167 137.485 69.862C137.458 70.1346 137.376 70.33 137.24 70.4482C137.114 70.5663 136.932 70.6254 136.697 70.6254C136.47 70.6254 136.303 70.5799 136.194 70.4891C136.094 70.3891 136.045 70.2619 136.045 70.1074C136.045 69.8347 136.203 69.5757 136.52 69.3303C136.837 69.0758 137.218 68.8713 137.662 68.7168C138.115 68.5623 138.513 68.4851 138.856 68.4851C139.255 68.4851 139.578 68.6123 139.822 68.8668C140.076 69.1122 140.203 69.4894 140.203 69.9983V72.4112C140.203 72.6748 140.248 72.8793 140.339 73.0247C140.438 73.1701 140.574 73.2428 140.746 73.2428C140.873 73.2428 141.004 73.211 141.14 73.1474H141.154ZM138.939 72.902C138.93 72.8657 138.925 72.8066 138.925 72.7248V71.4161L138.341 71.6887C138.314 71.6978 138.223 71.7342 138.069 71.7978C137.915 71.8523 137.779 71.9477 137.662 72.0841C137.553 72.2204 137.499 72.3794 137.499 72.5612C137.499 72.7793 137.566 72.952 137.702 73.0792C137.847 73.1974 138.01 73.2565 138.192 73.2565C138.336 73.2565 138.486 73.2065 138.64 73.1065L138.939 72.902ZM145.242 68.4851C145.45 68.4851 145.649 68.5623 145.84 68.7168C146.039 68.8623 146.138 69.0395 146.138 69.2485C146.138 69.4394 146.08 69.5984 145.962 69.7256C145.844 69.8438 145.69 69.9029 145.5 69.9029C145.364 69.9029 145.251 69.8756 145.16 69.8211C145.079 69.7665 144.993 69.6847 144.902 69.5757C144.82 69.4848 144.748 69.4212 144.685 69.3848C144.63 69.3394 144.562 69.3167 144.481 69.3167C144.39 69.3167 144.29 69.353 144.182 69.4257C144.082 69.4893 143.924 69.6302 143.706 69.8483V72.7793C143.706 73.1429 143.792 73.3928 143.964 73.5291C144.136 73.6564 144.454 73.72 144.916 73.72C144.952 73.72 144.97 73.7472 144.97 73.8018C144.97 73.8563 144.952 73.8836 144.916 73.8836C144.598 73.8836 144.349 73.879 144.168 73.8699L143.067 73.8563L142.266 73.8699C142.13 73.879 141.944 73.8836 141.709 73.8836C141.681 73.8836 141.668 73.8563 141.668 73.8018C141.668 73.7472 141.681 73.72 141.709 73.72C141.989 73.72 142.18 73.6564 142.279 73.5291C142.379 73.3928 142.429 73.1429 142.429 72.7793V70.2164C142.429 69.9347 142.393 69.7302 142.32 69.603C142.257 69.4666 142.153 69.3985 142.008 69.3985C141.854 69.3985 141.636 69.4621 141.355 69.5893H141.328C141.301 69.5893 141.278 69.5666 141.26 69.5212C141.251 69.4757 141.256 69.4485 141.274 69.4394L143.163 68.5124C143.217 68.4942 143.249 68.4851 143.258 68.4851C143.357 68.4851 143.448 68.5805 143.53 68.7714C143.62 68.9531 143.674 69.2031 143.693 69.5212C144.064 69.1394 144.367 68.8713 144.603 68.7168C144.848 68.5623 145.06 68.4851 145.242 68.4851ZM151.441 72.9838C151.459 72.9838 151.478 73.002 151.496 73.0383C151.523 73.0747 151.527 73.102 151.509 73.1201C151.174 73.4473 150.834 73.6836 150.49 73.829C150.146 73.9744 149.77 74.0471 149.362 74.0471C148.792 74.0471 148.298 73.929 147.881 73.6927C147.464 73.4473 147.147 73.1247 146.93 72.7248C146.713 72.3158 146.604 71.875 146.604 71.4024C146.604 70.8753 146.735 70.3891 146.998 69.9438C147.261 69.4984 147.623 69.1485 148.085 68.8941C148.556 68.6305 149.086 68.4987 149.675 68.4987C150.237 68.4987 150.671 68.626 150.979 68.8804C151.287 69.1349 151.441 69.5302 151.441 70.0665C151.441 70.3482 151.392 70.4891 151.292 70.4891L147.99 70.5027C147.981 70.5663 147.976 70.6708 147.976 70.8162C147.976 71.616 148.157 72.2431 148.52 72.6975C148.891 73.1519 149.421 73.3792 150.11 73.3792C150.354 73.3792 150.563 73.3519 150.735 73.2974C150.907 73.2428 151.133 73.1429 151.414 72.9974L151.441 72.9838ZM149.159 68.7714C148.86 68.7714 148.61 68.9032 148.411 69.1667C148.212 69.4212 148.08 69.7756 148.017 70.23L149.987 70.2028C149.978 69.7393 149.91 69.3848 149.784 69.1395C149.657 68.8941 149.448 68.7714 149.159 68.7714ZM164.885 73.72C164.921 73.7291 164.935 73.7609 164.926 73.8154C164.926 73.8608 164.912 73.8836 164.885 73.8836H162.656C162.403 73.8836 161.968 73.6609 161.352 73.2156C160.672 73.77 159.807 74.0471 158.756 74.0471C158.131 74.0471 157.606 73.9563 157.18 73.7745C156.754 73.5927 156.437 73.3519 156.229 73.052C156.021 72.7521 155.916 72.434 155.916 72.0977C155.916 71.6615 156.066 71.2707 156.365 70.9253C156.664 70.5799 157.117 70.1801 157.724 69.7256C157.579 69.5348 157.438 69.3167 157.302 69.0713C157.176 68.8168 157.076 68.576 157.004 68.3488C156.94 68.1216 156.908 67.8716 156.908 67.599C156.908 66.8628 157.139 66.2585 157.601 65.7859C158.072 65.3133 158.711 65.077 159.517 65.077C160.079 65.077 160.523 65.1997 160.849 65.445C161.175 65.6813 161.338 66.0131 161.338 66.4402C161.338 66.7947 161.234 67.1218 161.026 67.4218C160.826 67.7126 160.595 67.958 160.333 68.1579C160.07 68.3579 159.662 68.6441 159.11 69.0168C159.762 69.9892 160.672 70.9435 161.841 71.8796C161.923 71.5615 161.963 71.2025 161.963 70.8026C161.963 70.2755 161.877 69.8938 161.705 69.6575C161.533 69.4121 161.252 69.2894 160.863 69.2894C160.845 69.2894 160.831 69.2621 160.822 69.2076C160.822 69.1531 160.835 69.1258 160.863 69.1258L164.097 69.1122C164.124 69.1122 164.137 69.1395 164.137 69.194C164.137 69.2485 164.124 69.2758 164.097 69.2758C163.825 69.2758 163.621 69.3076 163.485 69.3712C163.358 69.4257 163.259 69.5212 163.186 69.6575C163.123 69.7938 163.05 70.0119 162.969 70.3118C162.869 70.6754 162.765 71.0071 162.656 71.307C162.548 71.6069 162.407 71.8978 162.235 72.1795C162.824 72.6248 163.345 72.9747 163.798 73.2292C164.26 73.4837 164.622 73.6473 164.885 73.72ZM158.186 66.4266C158.186 67.1355 158.435 67.9034 158.933 68.7305C159.576 68.1034 159.898 67.4354 159.898 66.7265C159.898 66.3266 159.803 66.0131 159.613 65.7859C159.431 65.5587 159.191 65.445 158.892 65.445C158.639 65.445 158.457 65.5268 158.349 65.6904C158.24 65.854 158.186 66.0994 158.186 66.4266ZM159.803 73.3792C160.328 73.3792 160.763 73.261 161.107 73.0247C160.962 72.9247 160.768 72.7748 160.523 72.5748C160.061 72.2022 159.594 71.7887 159.123 71.3343C158.661 70.8708 158.254 70.4164 157.9 69.971C157.493 70.3982 157.289 70.8481 157.289 71.3206C157.289 71.6751 157.389 72.0114 157.588 72.3295C157.796 72.6385 158.091 72.8929 158.471 73.0929C158.852 73.2837 159.295 73.3792 159.803 73.3792ZM177.769 65.3632C177.787 65.3632 177.796 65.3905 177.796 65.445C177.796 65.4996 177.787 65.5268 177.769 65.5268C177.407 65.5268 177.121 65.6723 176.913 65.9631C176.704 66.2448 176.6 66.6265 176.6 67.1082V74.088C176.6 74.1153 176.578 74.1335 176.532 74.1426C176.496 74.1517 176.469 74.1471 176.451 74.1289L170.078 66.8492V72.1522C170.078 72.6339 170.177 73.0156 170.377 73.2974C170.576 73.5791 170.852 73.72 171.206 73.72C171.224 73.72 171.233 73.7472 171.233 73.8018C171.233 73.8563 171.224 73.8836 171.206 73.8836C170.952 73.8836 170.757 73.879 170.621 73.8699L169.888 73.8563L169.045 73.8699C168.891 73.879 168.669 73.8836 168.379 73.8836C168.352 73.8836 168.339 73.8563 168.339 73.8018C168.339 73.7472 168.352 73.72 168.379 73.72C168.778 73.72 169.09 73.5791 169.317 73.2974C169.552 73.0156 169.67 72.6339 169.67 72.1522V66.3857C169.371 66.0585 169.113 65.8358 168.896 65.7177C168.687 65.5905 168.47 65.5268 168.243 65.5268C168.225 65.5268 168.216 65.4996 168.216 65.445C168.216 65.3905 168.225 65.3632 168.243 65.3632L168.814 65.3769C168.932 65.386 169.104 65.3905 169.33 65.3905L170.363 65.3769C170.49 65.3678 170.644 65.3632 170.825 65.3632C170.898 65.3632 170.952 65.3814 170.988 65.4178C171.025 65.4541 171.088 65.5314 171.179 65.6495C171.333 65.8586 171.441 65.9994 171.505 66.0721L176.206 71.5115V67.1082C176.206 66.6174 176.107 66.2312 175.907 65.9494C175.708 65.6677 175.432 65.5268 175.078 65.5268C175.06 65.5268 175.051 65.4996 175.051 65.445C175.051 65.3905 175.06 65.3632 175.078 65.3632L175.663 65.3769C175.953 65.3951 176.197 65.4041 176.396 65.4041C176.578 65.4041 176.831 65.3951 177.157 65.3769L177.769 65.3632ZM183.63 73.1474C183.666 73.1474 183.689 73.1701 183.698 73.2156C183.716 73.2519 183.707 73.2792 183.671 73.2974L182.271 73.9653C182.235 73.9835 182.19 73.9926 182.135 73.9926C181.99 73.9926 181.85 73.9154 181.714 73.7609C181.587 73.6064 181.497 73.3973 181.442 73.1338L180.858 73.5427C180.65 73.6972 180.455 73.8108 180.274 73.8836C180.092 73.9472 179.889 73.979 179.662 73.979C179.273 73.979 178.978 73.8926 178.779 73.72C178.58 73.5473 178.48 73.3064 178.48 72.9974C178.48 72.7521 178.539 72.5567 178.657 72.4112C178.774 72.2567 178.919 72.1386 179.091 72.0568C179.273 71.9659 179.522 71.8659 179.839 71.7569L180.179 71.6342L181.402 71.1843V70.4073C181.402 69.8256 181.352 69.403 181.252 69.1395C181.161 68.8759 181.003 68.7441 180.776 68.7441C180.296 68.7441 180.025 69.1167 179.961 69.862C179.934 70.1346 179.852 70.33 179.717 70.4482C179.59 70.5663 179.409 70.6254 179.173 70.6254C178.947 70.6254 178.779 70.5799 178.67 70.4891C178.571 70.3891 178.521 70.2619 178.521 70.1074C178.521 69.8347 178.679 69.5757 178.996 69.3303C179.313 69.0758 179.694 68.8713 180.138 68.7168C180.591 68.5623 180.989 68.4851 181.334 68.4851C181.732 68.4851 182.054 68.6123 182.298 68.8668C182.552 69.1122 182.679 69.4894 182.679 69.9983V72.4112C182.679 72.6748 182.724 72.8793 182.815 73.0247C182.914 73.1701 183.05 73.2428 183.222 73.2428C183.349 73.2428 183.481 73.211 183.616 73.1474H183.63ZM181.415 72.902C181.406 72.8657 181.402 72.8066 181.402 72.7248V71.4161L180.817 71.6887C180.79 71.6978 180.699 71.7342 180.545 71.7978C180.391 71.8523 180.256 71.9477 180.138 72.0841C180.029 72.2204 179.975 72.3794 179.975 72.5612C179.975 72.7793 180.043 72.952 180.179 73.0792C180.323 73.1974 180.487 73.2565 180.668 73.2565C180.813 73.2565 180.962 73.2065 181.116 73.1065L181.415 72.902ZM185.49 67.1355C185.228 67.1355 185.024 67.0628 184.879 66.9174C184.734 66.7719 184.662 66.5675 184.662 66.3039C184.662 66.0676 184.734 65.8813 184.879 65.745C185.033 65.5995 185.237 65.5268 185.49 65.5268C185.744 65.5268 185.939 65.595 186.075 65.7313C186.211 65.8677 186.279 66.0585 186.279 66.3039C186.279 66.5675 186.211 66.7719 186.075 66.9174C185.939 67.0628 185.744 67.1355 185.49 67.1355ZM184.186 73.8836C184.159 73.8836 184.145 73.8563 184.145 73.8018C184.145 73.7472 184.159 73.72 184.186 73.72C184.467 73.72 184.657 73.6564 184.757 73.5291C184.856 73.3928 184.906 73.1429 184.906 72.7793V70.3391C184.906 70.0301 184.874 69.8074 184.811 69.6711C184.748 69.5348 184.643 69.4666 184.499 69.4666C184.381 69.4666 184.213 69.5166 183.996 69.6166H183.982C183.946 69.6166 183.919 69.5939 183.901 69.5484C183.883 69.4939 183.887 69.4621 183.914 69.453L185.966 68.4987L186.007 68.4851C186.052 68.4851 186.097 68.5078 186.143 68.5533C186.188 68.5987 186.211 68.6396 186.211 68.6759V68.9759C186.193 69.3394 186.183 69.7847 186.183 70.3118V72.7793C186.183 73.1429 186.233 73.3928 186.333 73.5291C186.442 73.6564 186.636 73.72 186.917 73.72C186.944 73.72 186.958 73.7472 186.958 73.8018C186.958 73.8563 186.944 73.8836 186.917 73.8836C186.682 73.8836 186.496 73.879 186.36 73.8699L185.545 73.8563L184.743 73.8699C184.607 73.879 184.422 73.8836 184.186 73.8836ZM187.701 73.8836C187.683 73.8836 187.674 73.8563 187.674 73.8018C187.674 73.7472 187.683 73.72 187.701 73.72C187.982 73.72 188.172 73.6564 188.272 73.5291C188.38 73.3928 188.435 73.1429 188.435 72.7793L188.448 65.854C188.448 65.5359 188.417 65.3087 188.353 65.1724C188.299 65.0361 188.199 64.9679 188.054 64.9679C187.936 64.9679 187.764 65.0179 187.538 65.1179H187.524C187.497 65.1179 187.47 65.0951 187.443 65.0497C187.425 64.9952 187.425 64.9634 187.443 64.9543L189.44 64.0136L189.495 64C189.54 64 189.59 64.0227 189.644 64.0682C189.698 64.1045 189.726 64.1409 189.726 64.1772V72.7793C189.726 73.1429 189.775 73.3928 189.875 73.5291C189.975 73.6564 190.165 73.72 190.446 73.72C190.482 73.72 190.5 73.7472 190.5 73.8018C190.5 73.8563 190.482 73.8836 190.446 73.8836C190.219 73.8836 190.038 73.879 189.902 73.8699L189.073 73.8563L188.258 73.8699C188.122 73.879 187.936 73.8836 187.701 73.8836ZM196.411 66.7401C196.411 67.0673 196.493 67.3581 196.656 67.6126C196.828 67.8671 197.036 68.0897 197.281 68.2806C197.525 68.4715 197.856 68.7032 198.273 68.9759C198.726 69.2667 199.088 69.5212 199.36 69.7393C199.631 69.9574 199.862 70.2255 200.053 70.5436C200.243 70.8526 200.338 71.2116 200.338 71.6206C200.338 72.0932 200.211 72.5158 199.958 72.8884C199.704 73.2519 199.351 73.5382 198.898 73.7472C198.454 73.9472 197.956 74.0471 197.403 74.0471C196.995 74.0471 196.57 73.9926 196.126 73.8836C195.682 73.7654 195.383 73.6382 195.229 73.5018C195.184 73.4655 195.147 73.4337 195.12 73.4064C195.102 73.3701 195.093 73.3155 195.093 73.2428L195.052 71.0753V71.0616C195.052 71.0253 195.075 71.0071 195.12 71.0071C195.165 70.998 195.193 71.0116 195.202 71.048C195.473 71.6024 195.709 72.0523 195.908 72.3976C196.117 72.743 196.375 73.0474 196.683 73.311C197 73.5746 197.358 73.7063 197.756 73.7063C198.119 73.7063 198.418 73.6109 198.653 73.4201C198.889 73.2201 199.006 72.8838 199.006 72.4112C199.006 72.0114 198.916 71.6615 198.735 71.3615C198.563 71.0616 198.35 70.8072 198.096 70.5981C197.842 70.3891 197.494 70.1392 197.05 69.8483C196.615 69.5666 196.275 69.3258 196.031 69.1258C195.795 68.9259 195.591 68.685 195.419 68.4033C195.247 68.1216 195.161 67.7898 195.161 67.4081C195.161 66.9264 195.297 66.522 195.569 66.1948C195.849 65.8586 196.207 65.6132 196.642 65.4587C197.077 65.2951 197.534 65.2133 198.014 65.2133C198.332 65.2133 198.653 65.2451 198.979 65.3087C199.305 65.3632 199.568 65.4314 199.767 65.5132C199.849 65.5496 199.903 65.5905 199.93 65.6359C199.958 65.6723 199.971 65.7222 199.971 65.7859V67.7898C199.971 67.8171 199.949 67.8398 199.903 67.858C199.858 67.8671 199.831 67.858 199.822 67.8307L199.713 67.5717C199.487 66.9991 199.219 66.5129 198.911 66.113C198.612 65.7132 198.191 65.5132 197.648 65.5132C197.285 65.5132 196.986 65.6177 196.751 65.8268C196.524 66.0358 196.411 66.3402 196.411 66.7401ZM206.734 73.1474C206.77 73.1474 206.793 73.1701 206.802 73.2156C206.82 73.2519 206.811 73.2792 206.774 73.2974L205.375 73.9653C205.339 73.9835 205.293 73.9926 205.239 73.9926C205.094 73.9926 204.954 73.9154 204.818 73.7609C204.691 73.6064 204.6 73.3973 204.546 73.1338L203.962 73.5427C203.753 73.6972 203.559 73.8108 203.377 73.8836C203.196 73.9472 202.992 73.979 202.766 73.979C202.376 73.979 202.082 73.8926 201.883 73.72C201.683 73.5473 201.584 73.3064 201.584 72.9974C201.584 72.7521 201.643 72.5567 201.76 72.4112C201.878 72.2567 202.023 72.1386 202.195 72.0568C202.376 71.9659 202.625 71.8659 202.943 71.7569L203.282 71.6342L204.505 71.1843V70.4073C204.505 69.8256 204.455 69.403 204.356 69.1395C204.265 68.8759 204.107 68.7441 203.88 68.7441C203.4 68.7441 203.128 69.1167 203.065 69.862C203.038 70.1346 202.956 70.33 202.82 70.4482C202.693 70.5663 202.512 70.6254 202.277 70.6254C202.05 70.6254 201.883 70.5799 201.774 70.4891C201.674 70.3891 201.624 70.2619 201.624 70.1074C201.624 69.8347 201.783 69.5757 202.1 69.3303C202.417 69.0758 202.798 68.8713 203.241 68.7168C203.694 68.5623 204.093 68.4851 204.437 68.4851C204.836 68.4851 205.157 68.6123 205.402 68.8668C205.656 69.1122 205.782 69.4894 205.782 69.9983V72.4112C205.782 72.6748 205.828 72.8793 205.918 73.0247C206.018 73.1701 206.154 73.2428 206.326 73.2428C206.453 73.2428 206.584 73.211 206.72 73.1474H206.734ZM204.519 72.902C204.51 72.8657 204.505 72.8066 204.505 72.7248V71.4161L203.921 71.6887C203.894 71.6978 203.803 71.7342 203.649 71.7978C203.495 71.8523 203.359 71.9477 203.241 72.0841C203.133 72.2204 203.078 72.3794 203.078 72.5612C203.078 72.7793 203.146 72.952 203.282 73.0792C203.427 73.1974 203.59 73.2565 203.771 73.2565C203.916 73.2565 204.066 73.2065 204.22 73.1065L204.519 72.902ZM207.234 73.8836C207.216 73.8836 207.207 73.8563 207.207 73.8018C207.207 73.7472 207.216 73.72 207.234 73.72C207.515 73.72 207.705 73.6564 207.805 73.5291C207.914 73.3928 207.968 73.1429 207.968 72.7793L207.982 65.854C207.982 65.5359 207.95 65.3087 207.886 65.1724C207.832 65.0361 207.732 64.9679 207.587 64.9679C207.47 64.9679 207.298 65.0179 207.071 65.1179H207.058C207.03 65.1179 207.003 65.0951 206.976 65.0497C206.958 64.9952 206.958 64.9634 206.976 64.9543L208.974 64.0136L209.028 64C209.073 64 209.123 64.0227 209.177 64.0682C209.232 64.1045 209.259 64.1409 209.259 64.1772V72.7793C209.259 73.1429 209.309 73.3928 209.408 73.5291C209.508 73.6564 209.698 73.72 209.979 73.72C210.015 73.72 210.033 73.7472 210.033 73.8018C210.033 73.8563 210.015 73.8836 209.979 73.8836C209.753 73.8836 209.571 73.879 209.436 73.8699L208.607 73.8563L207.791 73.8699C207.655 73.879 207.47 73.8836 207.234 73.8836ZM213.615 74.0608C213.053 74.0608 212.56 73.9335 212.134 73.6791C211.717 73.4155 211.396 73.0656 211.169 72.6294C210.943 72.184 210.829 71.7024 210.829 71.1843C210.829 70.5936 210.979 70.0937 211.278 69.6847C211.577 69.2667 211.957 68.9577 212.419 68.7577C212.881 68.5487 213.357 68.4442 213.846 68.4442C214.408 68.4442 214.897 68.576 215.314 68.8395C215.73 69.1031 216.047 69.453 216.265 69.8892C216.491 70.3164 216.605 70.7753 216.605 71.2661C216.605 71.8114 216.469 72.2976 216.197 72.7248C215.925 73.1429 215.558 73.47 215.096 73.7063C214.643 73.9426 214.15 74.0608 213.615 74.0608ZM214.023 73.7745C214.376 73.7745 214.643 73.6018 214.824 73.2565C215.015 72.902 215.11 72.3976 215.11 71.7433C215.11 71.1071 215.028 70.5618 214.865 70.1074C214.702 69.6529 214.489 69.3121 214.227 69.0849C213.964 68.8486 213.683 68.7305 213.384 68.7305C212.659 68.7305 212.297 69.3803 212.297 70.6799C212.297 71.2888 212.374 71.8296 212.528 72.3022C212.682 72.7657 212.89 73.1292 213.153 73.3928C213.416 73.6473 213.706 73.7745 214.023 73.7745ZM223.959 73.72C223.986 73.72 224 73.7472 224 73.8018C224 73.8563 223.986 73.8836 223.959 73.8836C223.724 73.8836 223.538 73.879 223.402 73.8699L222.587 73.8563L221.799 73.8699C221.654 73.879 221.464 73.8836 221.228 73.8836C221.201 73.8836 221.187 73.8563 221.187 73.8018C221.187 73.7472 221.201 73.72 221.228 73.72C221.509 73.72 221.699 73.6564 221.799 73.5291C221.898 73.3928 221.948 73.1429 221.948 72.7793V70.8162C221.948 70.3255 221.858 69.9619 221.676 69.7256C221.504 69.4893 221.228 69.3712 220.848 69.3712C220.63 69.3712 220.404 69.4166 220.168 69.5075C219.942 69.5984 219.742 69.7211 219.57 69.8756V72.7793C219.57 73.1429 219.62 73.3928 219.72 73.5291C219.828 73.6564 220.023 73.72 220.304 73.72C220.331 73.72 220.345 73.7472 220.345 73.8018C220.345 73.8563 220.331 73.8836 220.304 73.8836C220.068 73.8836 219.883 73.879 219.747 73.8699L218.932 73.8563L218.13 73.8699C217.994 73.879 217.808 73.8836 217.573 73.8836C217.546 73.8836 217.532 73.8563 217.532 73.8018C217.532 73.7472 217.546 73.72 217.573 73.72C217.854 73.72 218.044 73.6564 218.143 73.5291C218.243 73.3928 218.293 73.1429 218.293 72.7793V70.2164C218.293 69.9347 218.257 69.7302 218.184 69.603C218.121 69.4666 218.017 69.3985 217.872 69.3985C217.718 69.3985 217.5 69.4621 217.219 69.5893H217.192C217.165 69.5893 217.142 69.5666 217.124 69.5212C217.115 69.4757 217.12 69.4485 217.138 69.4394L219.027 68.5124C219.081 68.4942 219.113 68.4851 219.122 68.4851C219.221 68.4851 219.317 68.5851 219.407 68.785C219.498 68.9759 219.552 69.2394 219.57 69.5757C220.195 68.8304 220.884 68.4578 221.636 68.4578C222.125 68.4578 222.51 68.6169 222.791 68.935C223.081 69.244 223.225 69.6529 223.225 70.1619V72.7793C223.225 73.1429 223.275 73.3928 223.375 73.5291C223.484 73.6564 223.678 73.72 223.959 73.72Z" fill="#0D0D0D"/>
<path d="M131.361 53.4585C131.443 53.4585 131.484 53.5801 131.484 53.8234C131.484 54.0666 131.443 54.1882 131.361 54.1882H120.449C119.549 54.1882 117.874 52.5869 115.421 49.3843C112.969 46.1411 110.006 41.621 106.532 35.8238C106.205 35.8644 105.735 35.8846 105.122 35.8846C103.528 35.8846 102.404 35.8644 101.75 35.8238V49.2627C101.75 50.5194 101.852 51.4315 102.056 51.9991C102.261 52.5667 102.649 52.9518 103.221 53.1545C103.834 53.3572 104.795 53.4585 106.103 53.4585C106.184 53.4585 106.225 53.5801 106.225 53.8234C106.225 54.0666 106.184 54.1882 106.103 54.1882C104.754 54.1882 103.691 54.168 102.915 54.1274L98.2553 54.0666L93.7799 54.1274C92.9625 54.168 91.8589 54.1882 90.4693 54.1882C90.3467 54.1882 90.2854 54.0666 90.2854 53.8234C90.2854 53.5801 90.3467 53.4585 90.4693 53.4585C91.7772 53.4585 92.7172 53.3572 93.2894 53.1545C93.9025 52.9518 94.3112 52.5667 94.5156 51.9991C94.7608 51.391 94.8834 50.4789 94.8834 49.2627V21.108C94.8834 19.8918 94.7813 18.9999 94.5769 18.4324C94.3725 17.8648 93.9638 17.4797 93.3508 17.277C92.7377 17.0338 91.7976 16.9121 90.5306 16.9121C90.4489 16.9121 90.408 16.7905 90.408 16.5473C90.408 16.304 90.4489 16.1824 90.5306 16.1824L93.7799 16.2432C95.66 16.3243 97.1518 16.3649 98.2553 16.3649C99.645 16.3649 101.096 16.304 102.608 16.1824C103.139 16.1419 103.793 16.1013 104.57 16.0608C105.387 16.0203 106.287 16 107.267 16C110.987 16 113.868 16.6892 115.912 18.0675C117.955 19.4053 118.977 21.2904 118.977 23.7228C118.977 25.9525 118.364 27.9794 117.138 29.8037C115.912 31.5875 114.277 33.0266 112.233 34.1212C115.503 38.9859 118.241 42.7966 120.449 45.5533C122.656 48.31 124.617 50.3167 126.334 51.5734C128.051 52.8302 129.726 53.4585 131.361 53.4585ZM101.75 34.1212C102.731 34.2833 103.916 34.3644 105.306 34.3644C107.676 34.3644 109.372 33.7158 110.394 32.4185C111.457 31.0807 111.988 28.9524 111.988 26.0335C111.988 22.7093 111.498 20.4188 110.517 19.1621C109.536 17.9054 108.126 17.277 106.287 17.277C104.652 17.277 103.487 17.581 102.792 18.1891C102.097 18.7972 101.75 19.8107 101.75 21.2296V34.1212ZM156.451 50.9045C156.614 50.9045 156.716 51.0059 156.757 51.2086C156.839 51.3707 156.798 51.4924 156.634 51.5734L150.32 54.5531C150.156 54.6342 149.952 54.6747 149.707 54.6747C149.053 54.6747 148.419 54.3301 147.806 53.641C147.234 52.9518 146.825 52.0194 146.58 50.8437L143.944 52.668C143.004 53.3572 142.125 53.8639 141.308 54.1882C140.49 54.472 139.571 54.6139 138.549 54.6139C136.791 54.6139 135.463 54.2288 134.564 53.4585C133.665 52.6883 133.215 51.614 133.215 50.2356C133.215 49.1411 133.481 48.2695 134.012 47.6208C134.543 46.9317 135.197 46.4046 135.974 46.0398C136.791 45.6344 137.915 45.1885 139.346 44.702L140.879 44.1547L146.396 42.148V38.6819C146.396 36.0873 146.171 34.2024 145.722 33.0266C145.313 31.851 144.598 31.2631 143.576 31.2631C141.41 31.2631 140.184 32.9253 139.898 36.2495C139.775 37.4657 139.407 38.3373 138.794 38.8643C138.222 39.3913 137.404 39.6548 136.342 39.6548C135.32 39.6548 134.564 39.4521 134.073 39.0467C133.624 38.6008 133.399 38.0332 133.399 37.3441C133.399 36.1279 134.114 34.9725 135.545 33.8779C136.975 32.7428 138.692 31.8307 140.695 31.1415C142.738 30.4523 144.537 30.1078 146.09 30.1078C147.888 30.1078 149.339 30.6753 150.442 31.8104C151.587 32.905 152.159 34.5874 152.159 36.8576V47.6208C152.159 48.7965 152.363 49.7086 152.772 50.3573C153.222 51.0059 153.835 51.3302 154.611 51.3302C155.184 51.3302 155.776 51.1883 156.389 50.9045H156.451ZM146.458 49.81C146.417 49.6478 146.396 49.3843 146.396 49.0194V43.1818L143.76 44.3979C143.637 44.4385 143.229 44.6006 142.534 44.8844C141.839 45.1277 141.226 45.5533 140.695 46.1614C140.204 46.7695 139.959 47.4789 139.959 48.2897C139.959 49.2627 140.265 50.0329 140.879 50.6005C141.532 51.1275 142.268 51.391 143.086 51.391C143.74 51.391 144.414 51.168 145.109 50.7221L146.458 49.81ZM163.802 33.6347C163.802 34.8103 164.21 35.8238 165.028 36.6752C165.886 37.5265 167.112 38.4184 168.706 39.3508C170.259 40.2426 171.404 40.9521 172.14 41.4791C172.916 41.9656 173.611 42.675 174.224 43.6074C174.837 44.4993 175.144 45.5939 175.144 46.8911C175.144 48.2695 174.796 49.5667 174.101 50.7829C173.407 51.9991 172.364 52.9923 170.975 53.7626C169.585 54.4923 167.93 54.8571 166.009 54.8571C163.761 54.8571 161.636 54.3099 159.633 53.2153C159.388 52.9721 159.265 52.7288 159.265 52.4856L159.142 46.4655C159.142 46.3438 159.245 46.283 159.449 46.283C159.694 46.2425 159.837 46.2628 159.878 46.3438C160.532 48.3708 161.615 50.0937 163.127 51.5126C164.64 52.9315 166.172 53.641 167.725 53.641C168.584 53.641 169.258 53.3774 169.749 52.8504C170.28 52.3234 170.546 51.5532 170.546 50.5397C170.546 49.0397 170.116 47.8641 169.258 47.0127C168.4 46.1209 167.133 45.2087 165.457 44.2763C164.027 43.5061 162.943 42.8777 162.208 42.3912C161.472 41.9048 160.818 41.2156 160.246 40.3237C159.674 39.4318 159.388 38.3373 159.388 37.04C159.388 34.6482 160.246 32.905 161.963 31.8104C163.679 30.6753 165.784 30.1078 168.277 30.1078C169.217 30.1078 170.055 30.1686 170.791 30.2902C171.567 30.4118 172.426 30.655 173.366 31.0199C173.733 31.1415 173.917 31.3645 173.917 31.6888C173.917 32.7023 173.897 33.4928 173.856 34.0604L173.795 37.1008C173.795 37.2224 173.672 37.2833 173.427 37.2833C173.182 37.2833 173.059 37.2224 173.059 37.1008C173.059 36.3306 172.732 35.4995 172.078 34.6076C171.424 33.6752 170.566 32.8847 169.503 32.2361C168.482 31.5875 167.419 31.2631 166.315 31.2631C164.64 31.2631 163.802 32.0537 163.802 33.6347ZM223.754 53.4585C223.918 53.4585 224 53.5801 224 53.8234C224 54.0666 223.918 54.1882 223.754 54.1882C222.692 54.1882 221.854 54.168 221.241 54.1274L217.562 54.0666L214.007 54.1274C213.353 54.168 212.494 54.1882 211.432 54.1882C211.309 54.1882 211.248 54.0666 211.248 53.8234C211.248 53.5801 211.309 53.4585 211.432 53.4585C212.699 53.4585 213.557 53.1748 214.007 52.6072C214.497 51.9991 214.742 50.8843 214.742 49.2627V40.5061C214.742 38.317 214.354 36.6954 213.577 35.6414C212.842 34.5874 211.697 34.0604 210.144 34.0604C209.082 34.0604 208.039 34.2833 207.018 34.7293C205.996 35.1752 205.117 35.7833 204.381 36.5535V36.9184V49.2627C204.381 50.8843 204.606 51.9991 205.056 52.6072C205.546 53.1748 206.425 53.4585 207.692 53.4585C207.855 53.4585 207.937 53.5801 207.937 53.8234C207.937 54.0666 207.855 54.1882 207.692 54.1882C206.629 54.1882 205.791 54.168 205.178 54.1274L201.5 54.0666L197.944 54.1274C197.29 54.168 196.432 54.1882 195.369 54.1882C195.247 54.1882 195.185 54.0666 195.185 53.8234C195.185 53.5801 195.247 53.4585 195.369 53.4585C196.636 53.4585 197.495 53.1748 197.944 52.6072C198.435 51.9991 198.68 50.8843 198.68 49.2627V40.5061C198.68 38.317 198.292 36.6954 197.515 35.6414C196.779 34.5874 195.635 34.0604 194.082 34.0604C193.101 34.0604 192.12 34.2631 191.139 34.6685C190.199 35.0333 189.361 35.5603 188.625 36.2495V49.2627C188.625 50.8843 188.85 51.9991 189.3 52.6072C189.79 53.1748 190.669 53.4585 191.936 53.4585C192.059 53.4585 192.12 53.5801 192.12 53.8234C192.12 54.0666 192.059 54.1882 191.936 54.1882C190.873 54.1882 190.036 54.168 189.422 54.1274L185.744 54.0666L182.127 54.1274C181.514 54.168 180.676 54.1882 179.613 54.1882C179.491 54.1882 179.429 54.0666 179.429 53.8234C179.429 53.5801 179.491 53.4585 179.613 53.4585C180.88 53.4585 181.739 53.1748 182.188 52.6072C182.638 51.9991 182.863 50.8843 182.863 49.2627V37.8305C182.863 36.5738 182.699 35.6617 182.372 35.0941C182.086 34.486 181.616 34.182 180.962 34.182C180.267 34.182 179.286 34.4658 178.019 35.0333H177.897C177.774 35.0333 177.672 34.932 177.59 34.7293C177.549 34.5266 177.57 34.4049 177.651 34.3644L186.173 30.2294C186.418 30.1483 186.561 30.1078 186.602 30.1078C187.052 30.1078 187.481 30.5537 187.89 31.4456C188.298 32.2969 188.544 33.4523 188.625 34.9117C191.405 31.628 194.388 29.9861 197.576 29.9861C199.497 29.9861 201.03 30.4523 202.174 31.3848C203.319 32.3172 204.014 33.655 204.259 35.3982C207.079 31.7901 210.206 29.9861 213.639 29.9861C215.846 29.9861 217.522 30.6145 218.666 31.8712C219.851 33.128 220.444 35.0333 220.444 37.5873V49.2627C220.444 50.8843 220.669 51.9991 221.118 52.6072C221.609 53.1748 222.487 53.4585 223.754 53.4585Z" fill="#AB6A49"/>
<path d="M79.781 23.4356C79.5974 22.3782 79.1401 21.2004 78.4855 20.179V20.1775C77.603 18.8026 76.3643 17.7124 74.9572 17.5856C72.7962 17.3917 70.837 18.9308 69.5065 20.6827C69.1731 21.1222 68.861 21.5805 68.5582 22.0451C67.6543 23.4325 66.8238 24.8762 65.6676 26.0446C63.5463 28.1875 61.0611 29.5139 58.1415 30.1333C55.2219 30.7527 51.8358 30.0692 49.0813 31.2344C46.3269 32.3998 44.0695 35.0823 42.6227 37.7492C40.1894 42.2351 39.2779 47.4406 39.1953 52.4194V52.4225C39.1892 52.7713 39.1877 53.117 39.1908 53.4627C39.2229 58.751 40.7003 64.0598 43.6229 68.4238C47.1528 73.6965 53.3024 78.9943 59.5501 79.0444C61.523 79.0601 63.2863 78.8332 64.8739 78.4172C65.0207 78.3796 65.0666 78.2357 65.0299 78.1199C65.0039 78.0355 64.9321 77.9651 64.8204 77.962C47.6085 77.5835 51.8311 62.8898 55.2219 59.6458C56.4285 58.4914 58.0666 58.6118 59.8162 59.1843C60.5763 59.433 61.3563 59.7662 62.1317 60.1165L62.1332 60.1181C63.0402 60.5279 63.941 60.9612 64.7913 61.31C66.6893 62.089 68.3441 62.4487 69.2954 61.1974C71.9275 57.7312 71.8877 59.1578 73.0439 56.4674C73.6955 54.9501 71.8449 53.9898 70.3124 53.203C70.1779 53.1342 70.2513 52.9261 70.3981 52.9574C76.5937 54.2979 75.4558 49.7994 75.4558 49.7994C77.6092 49.9214 79.8819 48.1477 78.6859 44.6612C77.4899 41.1747 77.4899 38.1778 77.4899 38.1778C77.7391 34.48 78.741 33.5525 79.4643 29.9206C79.9538 27.4524 80.2122 25.9148 79.781 23.4356ZM73.5669 38.3107C73.4753 38.3404 73.3819 38.3686 73.2902 38.3951C73.1295 38.4405 73.0164 38.5891 73.0164 38.7596V40.1016C73.0164 40.4598 72.7197 40.7492 72.3634 40.7258C72.0391 40.7038 71.7929 40.413 71.7929 40.0797V38.7815C71.7929 38.6986 71.7271 38.6314 71.6461 38.6314C71.305 38.6314 70.967 38.6 70.6321 38.539C70.5633 38.5266 70.4959 38.564 70.4699 38.6314L69.9285 40.0813C69.8353 40.33 69.6028 40.4834 69.3566 40.4834C69.2755 40.4834 69.1929 40.4661 69.1134 40.4317C68.8106 40.2972 68.6759 39.9296 68.7953 39.6136L69.1914 38.5532C69.2755 38.3279 69.1807 38.0746 68.9697 37.9666C68.8427 37.9024 68.7173 37.8336 68.5918 37.7586C68.3991 37.6444 68.153 37.6912 68.0107 37.8664L67.0778 39.0192C66.957 39.1678 66.7826 39.2461 66.6067 39.2461C66.4691 39.2461 66.3314 39.1991 66.2167 39.1021C65.9567 38.8831 65.9201 38.4875 66.1356 38.2215L67.0991 37.0312C67.2062 36.8982 67.194 36.7043 67.0732 36.5854C66.9263 36.4431 66.7871 36.3007 66.6572 36.1584C66.5532 36.0443 66.3865 36.0223 66.2565 36.1053L65.195 36.781C65.0956 36.8435 64.9841 36.8748 64.8739 36.8748C64.6644 36.8748 64.4579 36.7653 64.3447 36.5636C64.1765 36.2679 64.2866 35.8878 64.5695 35.7063L65.4351 35.1558C65.5866 35.0588 65.6325 34.8539 65.5346 34.6991C65.3847 34.466 65.3037 34.3143 65.293 34.2971C65.1308 33.9936 65.241 33.6135 65.5361 33.4477C65.8313 33.282 66.2029 33.393 66.3666 33.6949C66.3773 33.7152 67.0594 34.9619 68.2645 35.9973C68.9191 36.5588 69.5937 36.9483 70.2865 37.1688C70.3093 37.1751 70.3338 37.1814 70.3567 37.1908L70.3583 37.1923C71.2836 37.4692 72.238 37.4442 73.2153 37.1141C73.5471 37.003 73.9065 37.1955 73.9982 37.5459C74.0794 37.8727 73.8805 38.2059 73.5669 38.3107ZM74.7049 34.6224C74.6957 34.6224 74.6865 34.6224 74.6773 34.6224C74.3531 34.6224 74.0823 34.3597 74.067 34.025C74.0243 33.0223 73.6679 32.2747 72.9812 31.735C70.7667 29.9972 66.0057 31.0484 65.9582 31.0592C65.6294 31.1328 65.3021 30.9216 65.2287 30.5838C65.1569 30.2459 65.3633 29.9127 65.6937 29.8376C65.9108 29.7892 71.0572 28.6504 73.7245 30.7418C74.7018 31.5082 75.228 32.5938 75.2875 33.9686C75.3044 34.3143 75.0429 34.6068 74.7049 34.6224Z" fill="#C28565"/>
<path d="M65.0303 78.1186C61.5479 78.2704 56.5391 77.7151 52.4909 74.1723C46.2157 68.679 44.5471 58.0193 49.3556 48.7172C49.5835 48.2762 50.2182 48.3278 50.3772 48.8001C51.2704 51.4498 53.6776 56.2878 59.8166 59.1846C58.067 58.6136 56.4291 58.4916 55.2223 59.646C51.8317 62.8884 47.6089 77.5822 64.8208 77.9622C64.9325 77.9638 65.0044 78.0342 65.0303 78.1186Z" fill="#8D411A"/>
<path d="M55.1762 79.9985C51.9996 79.4291 48.8108 78.2358 46.6835 76.9202C45.4492 76.1569 44.3343 75.2279 43.2607 74.2409C41.0706 71.7163 39.1176 68.9728 37.004 66.3778C34.3412 63.1088 31.3314 60.0071 27.5874 58.1489C23.6446 56.1921 19.0641 55.7041 15.1412 53.813C16.4963 54.9611 18.1556 55.7808 19.8211 56.4095C22.3309 57.3574 24.9691 57.9768 27.3503 59.225C30.8083 61.0394 33.5062 64.066 35.8584 67.2335C36.1398 67.612 36.4166 67.9936 36.692 68.3769C36.7363 68.4394 36.6644 68.5192 36.6002 68.477C32.4677 65.7459 27.6364 64.1975 22.9013 62.7209C18.4753 61.3412 13.962 59.9367 9.98249 57.5858C9.04039 57.0305 8.12889 56.422 7.25408 55.7463C3.17364 52.5993 0.03835 47.6847 0.00317383 42.5464C2.73315 44.4 6.12229 45.6122 9.10462 46.327C14.3871 47.5939 19.974 47.8302 24.9018 50.1529C29.9013 52.5086 33.8748 56.6927 37.0758 61.3068C37.3802 61.7464 37.6784 62.1891 37.969 62.6348C39.2444 64.59 40.4344 66.578 41.6732 68.4754C41.6747 68.4785 41.6762 68.4817 41.6793 68.4832V68.4848C43.8801 71.8586 46.2354 74.9479 49.5036 77.0736C50.692 77.8463 52.1082 78.6143 53.6759 79.2743C54.1729 79.4839 54.6868 79.6825 55.2114 79.8656C55.2848 79.8969 55.2557 80.0142 55.1762 79.9985Z" fill="#C28565"/>
<path d="M42.5999 76.2728C38.8484 74.0173 34.927 71.962 30.7807 71.4787C27.0995 71.0501 23.3311 70.6387 20.0016 69.0464C21.7558 70.3463 24.1294 71.1173 26.1712 71.5443C28.6366 72.0605 31.1952 72.3624 33.6117 73.0819C35.3047 73.5872 37.6906 74.7837 40.0367 76.0898C40.1055 76.1289 40.0765 76.2384 39.9985 76.2337C39.0564 76.1883 38.1082 76.2133 37.1767 76.2821C34.2189 76.5027 31.2733 77.1065 28.3108 76.9563C24.3894 76.7577 20.5492 75.1873 17.5653 72.5783C17.4016 72.436 17.2411 72.2889 17.082 72.1403C14.5585 69.7612 12.7385 66.6173 11.8821 63.22C12.22 63.4013 12.5657 63.5704 12.9205 63.7267C15.1091 64.6949 17.5638 65.1923 19.942 65.4864C24.1402 66.0073 28.502 66.1011 32.3438 67.9061C33.263 68.3378 34.1286 68.8571 34.9591 69.4344C37.1034 70.9297 39.0059 72.8239 40.9253 74.632C41.4881 75.1623 42.0617 75.6909 42.6474 76.2009C42.6857 76.2384 42.6443 76.2994 42.5999 76.2728Z" fill="#C28565"/>
<path d="M44.8264 28.183C44.704 29.4406 43.8583 30.5605 42.6027 30.9547C41.1666 31.4036 39.6587 30.7575 38.9382 29.4812C38.819 29.2732 38.7227 29.0465 38.6508 28.8055C38.1399 27.0959 39.0805 25.2862 40.7522 24.7638C42.4238 24.2413 44.1933 25.2033 44.704 26.913C44.831 27.3369 44.8677 27.7669 44.8264 28.183Z" fill="#C28565"/>
<path d="M53.223 14.1729C53.0655 14.6312 52.8788 15.0629 52.6601 15.4539C50.5542 19.2189 47.4143 20.6875 44.9596 21.5432C44.3968 19.4206 43.912 16.6646 44.8312 13.5659C45.0208 12.9278 45.27 12.2755 45.5897 11.6093C47.3822 7.88811 53.5043 4.53769 53.8668 4.40942C53.9555 4.74729 54.5275 10.3986 53.223 14.1729Z" fill="#C28565"/>
<path d="M45.3119 6.10019C45.2859 6.17683 45.2599 6.25506 45.2293 6.33014C44.8516 7.27332 44.1037 8.01003 43.472 8.80462C43.0009 7.90054 42.403 7.03243 42.2087 6.03295C42.0726 5.33377 42.1445 4.62678 42.3357 3.94011C42.5223 3.26909 42.8221 2.61841 43.1555 2.00995C43.4368 1.49847 43.7428 0.994799 44.0333 0.486449C44.1251 0.325342 44.2153 0.162672 44.3009 0C44.2566 0.469246 44.2123 0.952571 44.1648 1.44998C44.0792 2.37595 43.9875 3.34573 43.8926 4.34835C43.8636 4.65649 43.8345 4.96775 43.8054 5.28215C43.836 4.96775 43.8636 4.65649 43.8926 4.34835C43.9875 3.34573 44.0776 2.37439 44.1648 1.44998C44.2123 0.952571 44.2566 0.469246 44.3009 0C44.3545 0.17675 44.4126 0.353501 44.4723 0.53025C44.6619 1.08709 44.8699 1.63923 45.0488 2.19765C45.4557 3.45834 45.7187 4.85357 45.3119 6.10019Z" fill="#C28565"/>
<path d="M66.5103 20.093C66.339 20.3964 62.8229 24.8213 59.2854 26.5404C58.8617 26.7468 58.4382 26.9126 58.0206 27.0299C53.9279 28.1702 50.6933 26.9376 48.3655 25.7676C49.0829 24.4882 50.0234 23.0303 51.4075 21.7493C52.5118 20.7279 53.8974 19.8176 55.6791 19.1998C59.5194 17.8639 66.1647 19.9224 66.5103 20.093Z" fill="#C28565"/>
<path d="M62.2646 10.2078C61.7079 10.358 61.1435 10.4909 60.5914 10.6505C59.2655 11.0321 57.9073 11.639 57.1411 12.8106C56.9439 13.1124 56.7939 13.4393 56.67 13.7819L56.6685 13.7834C56.4452 14.3982 56.3045 15.0551 56.1179 15.6855C57.1136 15.5807 58.1521 15.601 59.0712 15.2068C59.6463 14.9598 60.1342 14.5703 60.5502 14.0978C61.0563 13.5286 61.4617 12.8434 61.8012 12.1552C62.0596 11.6312 62.2952 11.09 62.546 10.5598C62.6256 10.3924 62.7066 10.225 62.7891 10.0608C62.6163 10.1108 62.442 10.1593 62.2646 10.2078ZM61.8471 10.8538C62.0076 10.7177 62.1682 10.5816 62.3258 10.4503C62.1682 10.5832 62.0092 10.7177 61.8471 10.8538Z" fill="#C28565"/>
<path d="M37.7639 44.1075C35.9715 47.8286 29.8477 51.1791 29.4868 51.3073C29.389 50.9288 28.6808 43.8635 30.6935 40.2628C32.7995 36.4979 35.9378 35.0291 38.3925 34.1751L38.394 34.1736C39.0731 36.734 39.6374 40.2159 37.7639 44.1075Z" fill="#C28565"/>
<path d="M23.0466 26.0227C22.1626 26.506 21.3138 27.1161 20.3365 27.3147C18.9861 27.59 17.6065 27.0363 16.4045 26.3465C15.9028 26.0603 15.4118 25.7459 14.9148 25.4487C14.7573 25.3548 14.5982 25.2626 14.4392 25.175C14.612 25.1187 14.7848 25.0592 14.9576 24.9983C15.5021 24.8043 16.042 24.5915 16.5864 24.4086C17.8941 23.9674 19.3532 23.6922 20.6271 24.2256C21.5478 24.6119 22.2681 25.3752 23.0436 26.0211C23.0466 26.0227 23.0466 26.0227 23.0466 26.0227Z" fill="#C28565"/>
<path d="M34.9877 29.9502C33.7 32.251 31.6904 35.1229 27.6742 36.5181C23.8339 37.8523 17.1886 35.7939 16.8445 35.6234C17.0357 35.284 21.4205 29.7766 25.3342 28.6864C29.4253 27.5461 32.66 28.7771 34.9862 29.9486L34.9877 29.9502Z" fill="#C28565"/>
<path d="M24.2823 40.5116C23.0113 41.056 22.1702 42.3042 21.5508 43.5633C21.2924 44.0873 21.0568 44.6285 20.806 45.1587C20.7264 45.3261 20.6454 45.4934 20.5613 45.6577C20.7356 45.6061 20.9115 45.5561 21.0873 45.5091C21.644 45.3589 22.2084 45.2244 22.7605 45.0665C24.0865 44.6833 25.4446 44.0779 26.2093 42.9064C26.763 42.0586 26.9419 41.0138 27.2325 40.033V40.0315C26.2383 40.1394 25.1999 40.119 24.2823 40.5116ZM21.1822 45.1369C21.3918 44.9601 21.6044 44.7802 21.8215 44.5972C21.6044 44.7818 21.3902 44.9617 21.1822 45.1369Z" fill="#C28565"/>
<path d="M35.5018 24.4991C32.9996 25.1937 29.5937 25.7724 25.7885 23.8548C24.3677 23.1399 23.0035 21.7478 21.858 20.2963V20.2948C20.0732 18.0283 18.8267 15.6164 18.7502 15.3895C19.1204 15.2894 26.0287 14.5653 29.5493 16.6237C30.5175 17.1899 31.3296 17.8281 32.0162 18.5085C33.9418 20.4183 34.8855 22.6489 35.5018 24.4991Z" fill="#C28565"/>
<path d="M29.4043 10.3423C29.3737 10.25 29.3415 10.1593 29.3049 10.0686C28.7726 8.77031 27.5522 7.91003 26.3211 7.27655C25.8087 7.0122 25.2795 6.77132 24.7611 6.51481C24.5974 6.43347 24.4338 6.35057 24.2732 6.26611C24.3237 6.44442 24.3726 6.6243 24.4201 6.80417C24.5668 7.37352 24.6969 7.95071 24.8529 8.51692C25.0058 9.07534 25.1985 9.64154 25.4508 10.1671C25.8087 10.9163 26.2905 11.5858 26.9634 12.0457C27.7923 12.6104 28.8155 12.7933 29.7729 13.0921V13.0905C29.6796 12.1676 29.6857 11.212 29.4043 10.3423Z" fill="#C28565"/>
<path d="M39.6312 21.0176C37.3815 19.6989 34.5735 17.6452 33.2092 13.5378C32.9462 12.7464 32.8177 11.8406 32.7825 10.8928C32.6403 7.13414 33.951 2.742 34.084 2.46045C34.4083 2.65284 39.5823 6.95896 40.7951 10.8944C40.8195 10.9773 40.844 11.0602 40.8654 11.1415C41.9803 15.3288 40.7767 18.6369 39.6312 21.0176Z" fill="#C28565"/>
<path d="M37.0726 61.3086C31.2869 53.724 24.9689 50.4534 17.923 49.4304C15.3781 49.0612 10.9031 48.2682 8.35508 47.9068C6.42957 47.6347 4.4964 47.1874 2.73149 46.374C4.10947 50.6817 6.66358 54.578 9.97932 57.5874C9.03721 57.0321 8.12568 56.4236 7.25086 55.748C3.17043 52.6009 0.0351761 47.6864 0 42.5481C2.72998 44.4016 6.11908 45.6138 9.10141 46.3287C14.3839 47.5956 19.9709 47.8318 24.8985 50.1546C29.8997 52.5102 33.8716 56.6927 37.0726 61.3086Z" fill="#8D411A"/>
<path d="M41.6762 68.4881C41.6746 68.485 41.6715 68.482 41.6699 68.4788C41.6715 68.482 41.673 68.485 41.6762 68.4866V68.4881Z" fill="#8D411A"/>
<path d="M30.4337 67.6277C24.9156 66.1949 18.8852 67.2242 13.572 65.197C14.248 67.6981 15.5603 69.9927 17.1325 72.0339C17.2732 72.217 17.4186 72.3999 17.5638 72.5798C17.4002 72.4374 17.2396 72.2905 17.0805 72.1419C14.5571 69.7628 12.7371 66.6188 11.8806 63.2214C12.2186 63.4029 12.5643 63.5718 12.919 63.7283C15.1076 64.6965 17.5622 65.1939 19.9405 65.4879C24.1387 66.0089 28.5005 66.1027 32.3424 67.9077C33.2616 68.3394 34.1272 68.8587 34.9577 69.4358C33.5307 68.6475 32.0075 68.0359 30.4337 67.6277Z" fill="#8D411A"/>
<path d="M78.4858 20.179C78.3252 20.0899 78.1601 20.0101 77.9902 19.9366C75.9332 19.0545 73.4036 19.469 71.7166 20.9643C70.152 22.3517 69.2482 24.3428 68.0966 26.1041C65.8866 29.4858 62.2405 31.7538 58.2319 32.0541C54.514 32.3325 50.8342 32.4577 47.6852 34.4989C44.2655 36.7169 42.0478 40.5052 40.8793 44.4704C40.1345 46.9933 39.5687 49.7102 39.1956 52.4178C39.2781 47.4392 40.1896 42.2337 42.6229 37.7476C44.0697 35.0808 46.3271 32.3998 49.0815 31.233C51.836 30.0676 55.2221 30.7512 58.1417 30.1317C61.0613 29.5124 63.5466 28.186 65.6678 26.043C66.824 24.8762 67.6546 23.4309 68.5584 22.0435C68.8612 21.579 69.1717 21.1208 69.5067 20.6812C70.8373 18.9293 72.7964 17.3902 74.9574 17.5842C76.3645 17.714 77.6032 18.8042 78.4858 20.179Z" fill="#8D411A"/>
<path d="M38.3908 34.1753C38.2623 34.2583 29.9806 39.5951 29.4851 51.3075C29.3872 50.929 28.6791 43.8636 30.6918 40.263C32.7994 36.498 35.9377 35.0294 38.3908 34.1753Z" fill="#8D411A"/>
<path d="M27.2356 40.033C27.2356 40.033 23.4213 41.7035 20.5627 45.6592C20.6469 45.495 20.7279 45.3277 20.8074 45.1603C21.0583 44.63 21.2938 44.0888 21.5523 43.5648C22.1717 42.3072 23.0128 41.059 24.2838 40.5132C25.1999 40.119 26.2384 40.1394 27.2356 40.033Z" fill="#8D411A"/>
<path d="M34.9861 29.9487C34.8179 29.9221 25.7302 28.4877 16.8459 35.6233C17.0371 35.284 21.4218 29.7766 25.3356 28.6864C29.4253 27.5477 32.6599 28.7787 34.9861 29.9487Z" fill="#8D411A"/>
<path d="M23.045 26.0229C20.543 24.6605 14.4392 25.1768 14.4392 25.1768C14.612 25.1204 14.7848 25.061 14.9576 25C15.5021 24.806 16.042 24.5933 16.5864 24.4102C17.8941 23.9692 19.3532 23.6939 20.6271 24.2273C21.5478 24.6121 22.2697 25.3769 23.045 26.0229Z" fill="#8D411A"/>
<path d="M40.7951 10.8959C39.3207 8.15554 37.0817 5.84216 34.4022 4.32963C33.6238 6.44592 33.0808 8.65294 32.781 10.8928C32.6388 7.13414 33.9495 2.742 34.0825 2.46045C34.4098 2.6544 39.5823 6.95896 40.7951 10.8959Z" fill="#8D411A"/>
<path d="M53.2226 14.1727C53.4995 11.5934 53.4245 8.97504 52.9978 6.41608C49.5933 7.76282 46.6738 10.3437 44.8323 13.5643C45.022 12.9261 45.2712 12.2739 45.5909 11.6075C47.3834 7.8864 53.5055 4.53598 53.8681 4.40771C53.9551 4.74713 54.5271 10.3984 53.2226 14.1727Z" fill="#8D411A"/>
<path d="M66.5107 20.0934C66.3394 20.3968 62.8234 24.8218 59.2858 26.5408C60.1285 25.9948 60.9085 25.3379 61.6105 24.6137C62.7591 23.4344 63.7242 22.0846 64.6082 20.6815C61.7528 19.6147 58.5946 19.4035 55.6291 20.0903C54.1547 20.4312 52.7293 20.9943 51.408 21.7482C52.5122 20.7268 53.8978 19.8164 55.6795 19.1986C59.5198 17.8644 66.1651 19.9228 66.5107 20.0934Z" fill="#8D411A"/>
<path d="M32.0147 18.5101C31.192 18.0455 30.3952 17.5684 29.5035 17.2118C27.3868 16.3657 25.105 15.9511 22.8338 15.9996C21.8443 16.0199 20.8578 16.131 19.8882 16.3313C20.2108 17.4825 20.8992 18.6274 21.4681 19.6316C21.5935 19.8553 21.7235 20.0758 21.8566 20.2948C20.0718 18.0283 18.8252 15.6164 18.7488 15.3895C19.119 15.2894 26.0272 14.5653 29.5479 16.6237C30.5145 17.1915 31.3281 17.8297 32.0147 18.5101Z" fill="#8D411A"/>
<path d="M25.0714 7.25617C25.0102 7.23741 24.9475 7.21863 24.8847 7.19987C25.0637 8.14462 25.2442 9.0878 25.4231 10.0325C25.4308 10.0763 25.4399 10.1201 25.4491 10.1639C25.1967 9.63837 25.0057 9.07216 24.8511 8.51376C24.6951 7.94753 24.5651 7.37035 24.4183 6.801C24.3724 6.62112 24.3235 6.44125 24.2715 6.26294C24.4321 6.34741 24.5957 6.4303 24.7594 6.51164C25.2779 6.76815 25.807 7.00903 26.3194 7.27337C27.549 7.90686 28.7709 8.76716 29.3031 10.0654C29.3399 10.1561 29.3735 10.2468 29.4026 10.3391C28.3167 8.89229 26.7812 7.79424 25.0714 7.25617Z" fill="#8D411A"/>
<path d="M45.05 2.19911C44.871 1.64071 44.663 1.08855 44.4734 0.531714C44.4137 0.356529 44.3556 0.179778 44.3021 0.00146484L44.3006 0.0045962V0.00146484C44.2149 0.164137 44.1247 0.326806 44.0329 0.487914C43.7439 0.996263 43.4365 1.49992 43.155 2.01139C42.8231 2.61828 42.5218 3.27055 42.3352 3.94158C42.7375 2.97806 43.3676 2.11151 44.1629 1.45144C44.1751 1.44049 44.1873 1.43111 44.1997 1.42016C44.975 2.83884 45.3619 4.4765 45.3099 6.10009C45.7183 4.85346 45.4552 3.45825 45.05 2.19911Z" fill="#8D411A"/>
<path d="M62.791 10.0574C62.7085 10.2216 62.6274 10.389 62.5479 10.5563C62.297 11.0866 62.0615 11.6278 61.803 12.1518C61.4635 12.84 61.0582 13.525 60.552 14.0944C61.1286 13.0824 61.5659 11.9876 61.8474 10.8535V10.852C61.8551 10.8207 61.8626 10.7894 61.8719 10.7581C61.8642 10.7878 61.0291 11.0584 60.945 11.0788C60.6545 11.1476 60.1467 11.3415 59.8669 11.4448C58.8544 11.8201 58.189 12.1424 57.4152 12.9057C57.2194 13.0981 57.0344 13.303 56.86 13.5173C56.8049 13.5846 56.7423 13.7002 56.6719 13.7769C56.7958 13.4359 56.9457 13.1074 57.143 12.8056C57.9091 11.6341 59.2673 11.0287 60.5933 10.6455C61.1454 10.486 61.7097 10.353 62.2664 10.2028C62.4423 10.159 62.6167 10.1106 62.791 10.0574Z" fill="#8D411A"/>
<path d="M44.8267 28.183C44.79 28.0296 44.7778 27.8388 44.7457 27.7184C44.6845 27.4884 44.6126 27.2616 44.5223 27.041C44.3205 26.5452 44.0207 26.0791 43.5986 25.76C43.1933 25.4519 42.6917 25.2923 42.1885 25.2595C40.9451 25.1782 39.6849 25.9164 39.1251 27.0567C38.7596 27.8012 38.7076 28.6865 38.9386 29.4827C38.8193 29.2747 38.7229 29.0479 38.651 28.807C38.1402 27.0974 39.0807 25.2876 40.7524 24.7652C42.4241 24.2428 44.1935 25.2048 44.7044 26.9144C44.8313 27.3367 44.8681 27.7668 44.8267 28.183Z" fill="#8D411A"/>
<path d="M41.676 30.0817C43.1508 30.0817 44.3463 28.8589 44.3463 27.3507C44.3463 25.8424 43.1508 24.6196 41.676 24.6196C40.2013 24.6196 39.0056 25.8424 39.0056 27.3507C39.0056 28.8589 40.2013 30.0817 41.676 30.0817Z" fill="#8D411A"/>
</svg>
