<svg width="168" height="61" viewBox="0 0 168 61" fill="none" xmlns="http://www.w3.org/2000/svg">
<path d="M51.2816 52.6918C51.8523 52.7599 52.3041 52.9504 52.637 53.2633C52.9768 53.5763 53.1466 53.9641 53.1466 54.4267C53.1466 54.7805 53.0447 55.1003 52.8409 55.3861C52.637 55.6718 52.3551 55.8997 51.995 56.0698C51.6349 56.2331 51.234 56.3147 50.7924 56.3147C50.6022 56.3147 50.3848 56.3045 50.1402 56.2841C50.0451 56.2773 49.9262 56.2705 49.7835 56.2637C49.6476 56.2569 49.4947 56.2535 49.3249 56.2535L48.5809 56.2637C48.445 56.2705 48.2616 56.2739 48.0306 56.2739C48.0102 56.2739 48 56.2535 48 56.2127C48 56.1719 48.0102 56.1515 48.0306 56.1515C48.2276 56.1515 48.3771 56.1345 48.479 56.1004C48.5809 56.0596 48.6522 55.9916 48.693 55.8963C48.7406 55.7943 48.7643 55.6446 48.7643 55.4473V50.7222C48.7643 50.4364 48.7168 50.2493 48.6217 50.1609C48.5265 50.0656 48.3329 50.018 48.0408 50.018C48.0272 50.018 48.0204 49.9976 48.0204 49.9568C48.0204 49.916 48.0272 49.8955 48.0408 49.8955L48.5809 49.9057C48.8934 49.9194 49.1414 49.9262 49.3249 49.9262C49.5151 49.9262 49.7121 49.916 49.916 49.8955C49.9839 49.8887 50.0858 49.8819 50.2217 49.8751C50.3576 49.8683 50.4765 49.8649 50.5784 49.8649C51.1967 49.8649 51.6757 49.9772 52.0154 50.2017C52.3551 50.4262 52.5249 50.7528 52.5249 51.1814C52.5249 51.508 52.4162 51.804 52.1988 52.0693C51.9882 52.3346 51.6825 52.5421 51.2816 52.6918ZM50.4255 50.0894C50.2285 50.0894 50.0926 50.1371 50.0179 50.2323C49.9431 50.3208 49.9058 50.4909 49.9058 50.7426V52.6816L50.3134 52.6918C50.6667 52.6918 50.9385 52.5592 51.1287 52.2938C51.319 52.0285 51.4141 51.6883 51.4141 51.2733C51.4141 50.8855 51.3292 50.5929 51.1593 50.3956C50.9894 50.1915 50.7449 50.0894 50.4255 50.0894ZM50.6192 56.0596C51.5092 56.0596 51.9542 55.597 51.9542 54.6717C51.9542 54.1478 51.8285 53.7328 51.5771 53.4266C51.3258 53.1205 50.9453 52.9674 50.4357 52.9674C50.2387 52.9674 50.062 52.9742 49.9058 52.9878V55.4473C49.9058 55.6718 49.9499 55.8317 50.0383 55.9269C50.1266 56.0154 50.3202 56.0596 50.6192 56.0596ZM57.628 55.6004C57.6416 55.6004 57.6551 55.614 57.6687 55.6412C57.6891 55.6684 57.6925 55.6888 57.6789 55.7024C57.4275 55.9474 57.1728 56.1243 56.9146 56.2331C56.6564 56.342 56.3744 56.3964 56.0687 56.3964C55.6407 56.3964 55.2704 56.3079 54.9579 56.1311C54.6453 55.9474 54.4075 55.7058 54.2445 55.4065C54.0814 55.1003 53.9999 54.7703 53.9999 54.4165C53.9999 54.0219 54.0984 53.6579 54.2954 53.3246C54.4924 52.9912 54.7642 52.7292 55.1107 52.5387C55.464 52.3414 55.8615 52.2428 56.3031 52.2428C56.7243 52.2428 57.0505 52.338 57.2815 52.5285C57.5125 52.719 57.628 53.015 57.628 53.4164C57.628 53.6273 57.5906 53.7328 57.5159 53.7328L55.0394 53.743C55.0326 53.7906 55.0292 53.8689 55.0292 53.9777C55.0292 54.5764 55.1651 55.0459 55.4368 55.3861C55.7154 55.7262 56.1129 55.8963 56.6292 55.8963C56.8127 55.8963 56.9689 55.8759 57.098 55.8351C57.2271 55.7943 57.397 55.7194 57.6076 55.6106L57.628 55.6004ZM55.9158 52.4469C55.6916 52.4469 55.5048 52.5455 55.3553 52.7429C55.2058 52.9334 55.1073 53.1987 55.0598 53.5389L56.5375 53.5185C56.5307 53.1715 56.4798 52.9061 56.3846 52.7224C56.2895 52.5387 56.1333 52.4469 55.9158 52.4469ZM62.1837 55.7228C62.2108 55.7228 62.2278 55.7398 62.2346 55.7739C62.2482 55.8011 62.2414 55.8215 62.2142 55.8351L61.1645 56.3352C61.1373 56.3488 61.1034 56.3556 61.0626 56.3556C60.9539 56.3556 60.8486 56.2977 60.7467 56.1821C60.6516 56.0664 60.5836 55.9099 60.5429 55.7126L60.1046 56.0188C59.9484 56.1345 59.8023 56.2195 59.6664 56.2739C59.5305 56.3216 59.3777 56.3454 59.2078 56.3454C58.9156 56.3454 58.6948 56.2807 58.5454 56.1515C58.3959 56.0222 58.3212 55.8419 58.3212 55.6106C58.3212 55.4269 58.3653 55.2806 58.4536 55.1717C58.542 55.0561 58.6507 54.9676 58.7798 54.9064C58.9156 54.8384 59.1025 54.7635 59.3403 54.6819L59.5951 54.59L60.5123 54.2533V53.6715C60.5123 53.2361 60.4749 52.9197 60.4002 52.7224C60.3322 52.5251 60.2133 52.4265 60.0435 52.4265C59.6834 52.4265 59.4796 52.7054 59.432 53.2633C59.4116 53.4674 59.3505 53.6137 59.2486 53.7022C59.1534 53.7906 59.0176 53.8348 58.8409 53.8348C58.6711 53.8348 58.5454 53.8008 58.4638 53.7328C58.3891 53.6579 58.3517 53.5627 58.3517 53.447C58.3517 53.2429 58.4706 53.049 58.7084 52.8653C58.9462 52.6748 59.2316 52.5217 59.5645 52.4061C59.9042 52.2904 60.2031 52.2326 60.4613 52.2326C60.7603 52.2326 61.0015 52.3278 61.1849 52.5183C61.3751 52.702 61.4703 52.9844 61.4703 53.3654V55.1717C61.4703 55.3691 61.5042 55.5221 61.5722 55.631C61.6469 55.7398 61.7488 55.7943 61.8779 55.7943C61.973 55.7943 62.0715 55.7705 62.1735 55.7228H62.1837ZM60.5225 55.5391C60.5157 55.5119 60.5123 55.4677 60.5123 55.4065V54.4267L60.0741 54.6309C60.0537 54.6377 59.9857 54.6649 59.8702 54.7125C59.7547 54.7533 59.6528 54.8248 59.5645 54.9268C59.483 55.0289 59.4422 55.1479 59.4422 55.284C59.4422 55.4473 59.4932 55.5766 59.5951 55.6718C59.7038 55.7603 59.8261 55.8045 59.962 55.8045C60.0707 55.8045 60.1828 55.7671 60.2983 55.6922L60.5225 55.5391ZM67.2885 55.6106C67.3089 55.6106 67.3258 55.6276 67.3394 55.6616C67.3598 55.6956 67.3598 55.716 67.3394 55.7228L65.933 56.4066C65.9194 56.4134 65.9025 56.4168 65.8821 56.4168C65.8141 56.4168 65.753 56.3454 65.6986 56.2025C65.6511 56.0528 65.6239 55.8521 65.6171 55.6004C65.1687 56.1311 64.6829 56.3964 64.1597 56.3964C63.7861 56.3964 63.4905 56.2807 63.2731 56.0494C63.0625 55.8113 62.9572 55.5017 62.9572 55.1207V53.6205C62.9572 53.1783 62.8519 52.9572 62.6412 52.9572C62.5665 52.9572 62.4816 52.981 62.3865 53.0286H62.3763C62.3491 53.0286 62.3287 53.0116 62.3151 52.9776C62.3015 52.9368 62.3049 52.9129 62.3253 52.9061L63.6909 52.253L63.7419 52.2428C63.7759 52.2428 63.8098 52.2598 63.8438 52.2938C63.8846 52.321 63.905 52.3482 63.905 52.3755V54.6309C63.905 55.3656 64.1869 55.733 64.7508 55.733C64.9003 55.733 65.0498 55.7024 65.1993 55.6412C65.3555 55.5732 65.4948 55.4813 65.6171 55.3656V53.6205C65.6171 53.1783 65.5118 52.9572 65.3012 52.9572C65.2264 52.9572 65.1381 52.981 65.0362 53.0286H65.026C65.0056 53.0286 64.9886 53.0116 64.9751 52.9776C64.9615 52.9368 64.9649 52.9129 64.9852 52.9061L66.3509 52.253C66.3645 52.2462 66.3815 52.2428 66.4018 52.2428C66.4358 52.2428 66.4698 52.2598 66.5037 52.2938C66.5445 52.321 66.5649 52.3482 66.5649 52.3755V55.0901C66.5649 55.3214 66.5853 55.4847 66.626 55.58C66.6736 55.6752 66.7483 55.7228 66.8503 55.7228C66.9454 55.7228 67.0847 55.6854 67.2681 55.6106H67.2885ZM70.6504 55.5596C70.6776 55.5596 70.698 55.5732 70.7116 55.6004C70.7319 55.6276 70.7319 55.648 70.7116 55.6616C70.4602 55.9133 70.2156 56.1004 69.9778 56.2229C69.74 56.3386 69.4886 56.3964 69.2236 56.3964C68.9247 56.3964 68.6699 56.325 68.4593 56.1821C68.2487 56.0392 68.1434 55.7977 68.1434 55.4575V53.1919C68.1434 52.981 68.106 52.8347 68.0312 52.7531C67.9565 52.6714 67.8206 52.6306 67.6236 52.6306C67.6168 52.6306 67.6066 52.6204 67.593 52.6C67.5862 52.5796 67.5828 52.5592 67.5828 52.5387C67.5828 52.5115 67.5862 52.4911 67.593 52.4775C67.5998 52.4571 67.61 52.4469 67.6236 52.4469C67.9701 52.4333 68.2487 52.3584 68.4593 52.2224C68.6767 52.0863 68.8432 51.8788 68.9587 51.5998C68.9722 51.5726 68.9994 51.559 69.0402 51.559C69.0878 51.559 69.1115 51.5726 69.1115 51.5998V52.4163C69.5056 52.4095 69.9472 52.3789 70.4364 52.3244C70.45 52.3244 70.4636 52.3516 70.4772 52.4061C70.4975 52.4537 70.5077 52.5081 70.5077 52.5694C70.5077 52.6374 70.4942 52.7054 70.467 52.7735C70.4466 52.8347 70.4228 52.8619 70.3956 52.8551C69.954 52.7599 69.526 52.7088 69.1115 52.702V55.1207C69.1115 55.3793 69.1761 55.5698 69.3052 55.6922C69.441 55.8147 69.6177 55.8759 69.8351 55.8759C70.1069 55.8759 70.3719 55.7739 70.63 55.5698L70.6504 55.5596ZM75.2664 52.3346C75.28 52.3346 75.2868 52.355 75.2868 52.3959C75.2868 52.4367 75.28 52.4571 75.2664 52.4571C75.049 52.4571 74.8587 52.5524 74.6957 52.7429C74.5394 52.9266 74.3967 53.1953 74.2676 53.5491L73.1364 56.5597C72.7763 57.5122 72.4298 58.1789 72.0969 58.5599C71.7708 58.9478 71.4073 59.1417 71.0064 59.1417C70.8026 59.1417 70.6463 59.0974 70.5376 59.009C70.4289 58.9273 70.3746 58.8049 70.3746 58.6416C70.3746 58.4851 70.4221 58.366 70.5172 58.2844C70.6124 58.2028 70.7279 58.1619 70.8638 58.1619C70.9385 58.1619 70.9996 58.1721 71.0472 58.1925C71.1015 58.213 71.1661 58.247 71.2408 58.2946C71.3699 58.383 71.4922 58.4273 71.6077 58.4273C71.764 58.4273 71.9033 58.366 72.0256 58.2436C72.1547 58.1279 72.2871 57.9306 72.423 57.6517C72.5589 57.3795 72.722 56.9883 72.9122 56.478L71.2816 53.1817C71.1321 52.8891 71.0132 52.6952 70.9249 52.6C70.8434 52.5047 70.7415 52.4571 70.6192 52.4571C70.5988 52.4571 70.5886 52.4367 70.5886 52.3959C70.5886 52.355 70.5988 52.3346 70.6192 52.3346C70.8094 52.3346 70.9555 52.338 71.0574 52.3448L71.4854 52.355L72.1886 52.3448C72.2973 52.338 72.4434 52.3346 72.6268 52.3346C72.6472 52.3346 72.6574 52.355 72.6574 52.3959C72.6574 52.4367 72.6472 52.4571 72.6268 52.4571C72.4502 52.4571 72.3211 52.4741 72.2396 52.5081C72.158 52.5353 72.1173 52.583 72.1173 52.651C72.1173 52.7054 72.1377 52.7735 72.1784 52.8551L73.381 55.3146L73.9925 53.5389C74.0536 53.362 74.0842 53.2021 74.0842 53.0592C74.0842 52.8687 74.0299 52.7224 73.9211 52.6204C73.8124 52.5115 73.6562 52.4571 73.4523 52.4571C73.4388 52.4571 73.432 52.4367 73.432 52.3959C73.432 52.355 73.4388 52.3346 73.4523 52.3346C73.6358 52.3346 73.7751 52.338 73.8702 52.3448L74.4817 52.355L74.8893 52.3448C74.9708 52.338 75.0965 52.3346 75.2664 52.3346ZM79.2831 50.9263C79.2831 51.1712 79.3443 51.3889 79.4666 51.5794C79.5957 51.7699 79.7519 51.9366 79.9354 52.0795C80.1188 52.2224 80.3668 52.3959 80.6793 52.6C81.019 52.8177 81.2908 53.0082 81.4946 53.1715C81.6985 53.3348 81.8717 53.5355 82.0144 53.7736C82.1571 54.0049 82.2284 54.2737 82.2284 54.5798C82.2284 54.9336 82.1333 55.25 81.9431 55.5289C81.7528 55.8011 81.4878 56.0154 81.1481 56.1719C80.8152 56.3216 80.4415 56.3964 80.0271 56.3964C79.7214 56.3964 79.402 56.3556 79.0691 56.2739C78.7362 56.1855 78.512 56.0902 78.3965 55.9882C78.3625 55.961 78.3353 55.9372 78.315 55.9167C78.3014 55.8895 78.2946 55.8487 78.2946 55.7943L78.264 54.1716V54.1614C78.264 54.1342 78.281 54.1206 78.315 54.1206C78.3489 54.1138 78.3693 54.124 78.3761 54.1512C78.5799 54.5662 78.7566 54.903 78.906 55.1615C79.0623 55.4201 79.2559 55.648 79.4869 55.8453C79.7247 56.0426 79.9931 56.1413 80.2921 56.1413C80.5638 56.1413 80.788 56.0698 80.9647 55.9269C81.1413 55.7773 81.2297 55.5255 81.2297 55.1717C81.2297 54.8724 81.1617 54.6104 81.0258 54.3859C80.8968 54.1614 80.7371 53.9709 80.5468 53.8144C80.3566 53.6579 80.095 53.4708 79.7621 53.2531C79.436 53.0422 79.1812 52.8619 78.9978 52.7122C78.8211 52.5626 78.6683 52.3823 78.5392 52.1713C78.4101 51.9604 78.3455 51.7121 78.3455 51.4264C78.3455 51.0658 78.4474 50.763 78.6513 50.5181C78.8619 50.2663 79.1303 50.0826 79.4564 49.967C79.7825 49.8445 80.1256 49.7833 80.4857 49.7833C80.7235 49.7833 80.9647 49.8071 81.2093 49.8547C81.4539 49.8955 81.6509 49.9466 81.8004 50.0078C81.8615 50.035 81.9023 50.0656 81.9227 50.0997C81.9431 50.1269 81.9532 50.1643 81.9532 50.2119V51.7121C81.9532 51.7325 81.9363 51.7495 81.9023 51.7631C81.8683 51.7699 81.8479 51.7631 81.8411 51.7427L81.7596 51.5488C81.5898 51.1202 81.3893 50.7562 81.1583 50.4568C80.9341 50.1575 80.6182 50.0078 80.2105 50.0078C79.9388 50.0078 79.7146 50.086 79.5379 50.2425C79.3681 50.399 79.2831 50.6269 79.2831 50.9263ZM85.4147 56.4066C85.0818 56.4066 84.7897 56.3692 84.5383 56.2943V58.2538C84.5383 58.4579 84.5587 58.6076 84.5994 58.7028C84.647 58.7981 84.7319 58.8627 84.8542 58.8967C84.9833 58.9375 85.1803 58.958 85.4453 58.958C85.4657 58.958 85.4759 58.9784 85.4759 59.0192C85.4759 59.06 85.4657 59.0804 85.4453 59.0804C85.1939 59.0804 84.9969 59.077 84.8542 59.0702L84.0491 59.06L83.4478 59.0702C83.3459 59.077 83.2032 59.0804 83.0198 59.0804C82.9994 59.0804 82.9892 59.06 82.9892 59.0192C82.9892 58.9784 82.9994 58.958 83.0198 58.958C83.1828 58.958 83.3017 58.9375 83.3765 58.8967C83.458 58.8627 83.5123 58.7981 83.5395 58.7028C83.5735 58.6076 83.5905 58.4579 83.5905 58.2538V53.5287C83.5905 53.311 83.5667 53.1545 83.5191 53.0592C83.4716 52.964 83.3867 52.9163 83.2644 52.9163C83.1556 52.9163 82.9994 52.964 82.7956 53.0592H82.7752C82.7548 53.0592 82.7378 53.0422 82.7242 53.0082C82.7038 52.9742 82.7004 52.9538 82.714 52.947L84.1612 52.2428C84.1748 52.236 84.1918 52.2326 84.2122 52.2326C84.2801 52.2326 84.3412 52.2904 84.3956 52.4061C84.4567 52.5217 84.4975 52.6782 84.5179 52.8755C85.0139 52.4265 85.5234 52.202 86.0467 52.202C86.332 52.202 86.597 52.2768 86.8416 52.4265C87.093 52.5762 87.2934 52.7939 87.4429 53.0796C87.5924 53.3654 87.6671 53.6988 87.6671 54.0798C87.6671 54.6241 87.555 55.0731 87.3308 55.4269C87.1066 55.7739 86.8212 56.0256 86.4747 56.1821C86.135 56.3318 85.7816 56.4066 85.4147 56.4066ZM85.374 52.7735C85.0682 52.7735 84.7897 52.8823 84.5383 53.1V53.1817V55.6412C84.6877 55.8113 84.844 55.9405 85.0071 56.029C85.1701 56.1106 85.3706 56.1515 85.6084 56.1515C86.2947 56.1515 86.6378 55.5664 86.6378 54.3961C86.6378 53.8791 86.5155 53.481 86.2709 53.2021C86.0331 52.9163 85.734 52.7735 85.374 52.7735ZM92.2498 55.7228C92.2769 55.7228 92.2939 55.7398 92.3007 55.7739C92.3143 55.8011 92.3075 55.8215 92.2803 55.8351L91.2306 56.3352C91.2035 56.3488 91.1695 56.3556 91.1287 56.3556C91.02 56.3556 90.9147 56.2977 90.8128 56.1821C90.7177 56.0664 90.6497 55.9099 90.609 55.7126L90.1707 56.0188C90.0145 56.1345 89.8684 56.2195 89.7325 56.2739C89.5966 56.3216 89.4438 56.3454 89.2739 56.3454C88.9818 56.3454 88.761 56.2807 88.6115 56.1515C88.462 56.0222 88.3873 55.8419 88.3873 55.6106C88.3873 55.4269 88.4314 55.2806 88.5198 55.1717C88.6081 55.0561 88.7168 54.9676 88.8459 54.9064C88.9818 54.8384 89.1686 54.7635 89.4064 54.6819L89.6612 54.59L90.5784 54.2533V53.6715C90.5784 53.2361 90.541 52.9197 90.4663 52.7224C90.3983 52.5251 90.2795 52.4265 90.1096 52.4265C89.7495 52.4265 89.5457 52.7054 89.4981 53.2633C89.4777 53.4674 89.4166 53.6137 89.3147 53.7022C89.2196 53.7906 89.0837 53.8348 88.907 53.8348C88.7372 53.8348 88.6115 53.8008 88.5299 53.7328C88.4552 53.6579 88.4178 53.5627 88.4178 53.447C88.4178 53.2429 88.5367 53.049 88.7745 52.8653C89.0123 52.6748 89.2977 52.5217 89.6306 52.4061C89.9703 52.2904 90.2693 52.2326 90.5274 52.2326C90.8264 52.2326 91.0676 52.3278 91.251 52.5183C91.4413 52.702 91.5364 52.9844 91.5364 53.3654V55.1717C91.5364 55.3691 91.5703 55.5221 91.6383 55.631C91.713 55.7398 91.8149 55.7943 91.944 55.7943C92.0392 55.7943 92.1377 55.7705 92.2396 55.7228H92.2498ZM90.5886 55.5391C90.5818 55.5119 90.5784 55.4677 90.5784 55.4065V54.4267L90.1402 54.6309C90.1198 54.6377 90.0518 54.6649 89.9363 54.7125C89.8208 54.7533 89.7189 54.8248 89.6306 54.9268C89.5491 55.0289 89.5083 55.1479 89.5083 55.284C89.5083 55.4473 89.5593 55.5766 89.6612 55.6718C89.7699 55.7603 89.8922 55.8045 90.0281 55.8045C90.1368 55.8045 90.2489 55.7671 90.3644 55.6922L90.5886 55.5391ZM99.01 49.7833C99.3293 49.7833 99.6521 49.8105 99.9782 49.8649C100.311 49.9126 100.576 49.9772 100.773 50.0588C100.834 50.0792 100.872 50.1065 100.885 50.1405C100.906 50.1677 100.919 50.2187 100.926 50.2936L101.058 51.7121C101.058 51.7325 101.041 51.7461 101.007 51.7529C100.974 51.7597 100.95 51.7495 100.936 51.7223C100.746 51.1644 100.474 50.7392 100.121 50.4466C99.7676 50.1473 99.3429 49.9976 98.8469 49.9976C98.3849 49.9976 97.9705 50.1235 97.6036 50.3752C97.2435 50.6201 96.9582 50.9739 96.7475 51.4366C96.5437 51.8992 96.4418 52.4401 96.4418 53.0592C96.4418 53.6852 96.5471 54.2362 96.7577 54.7125C96.9751 55.182 97.2707 55.5459 97.6444 55.8045C98.0248 56.0562 98.4597 56.1821 98.9488 56.1821C99.4176 56.1821 99.8117 56.0562 100.131 55.8045C100.45 55.5459 100.753 55.1241 101.038 54.539C101.045 54.5186 101.065 54.5118 101.099 54.5186C101.133 54.5254 101.15 54.539 101.15 54.5594L100.997 55.8249C100.984 55.9065 100.97 55.961 100.957 55.9882C100.943 56.0086 100.906 56.0324 100.844 56.0596C100.219 56.2841 99.5875 56.3964 98.9488 56.3964C98.2219 56.3964 97.5696 56.2603 96.9921 55.9882C96.4214 55.7092 95.973 55.3214 95.6469 54.8248C95.3207 54.3281 95.1577 53.7634 95.1577 53.1307C95.1577 52.4843 95.3241 51.9094 95.6571 51.4059C95.9968 50.8957 96.4588 50.4977 97.0431 50.2119C97.6342 49.9262 98.2898 49.7833 99.01 49.7833ZM105.865 55.7228C105.893 55.7228 105.91 55.7398 105.916 55.7739C105.93 55.8011 105.923 55.8215 105.896 55.8351L104.846 56.3352C104.819 56.3488 104.785 56.3556 104.744 56.3556C104.636 56.3556 104.53 56.2977 104.428 56.1821C104.333 56.0664 104.265 55.9099 104.225 55.7126L103.786 56.0188C103.63 56.1345 103.484 56.2195 103.348 56.2739C103.212 56.3216 103.059 56.3454 102.889 56.3454C102.597 56.3454 102.377 56.2807 102.227 56.1515C102.078 56.0222 102.003 55.8419 102.003 55.6106C102.003 55.4269 102.047 55.2806 102.135 55.1717C102.224 55.0561 102.332 54.9676 102.461 54.9064C102.597 54.8384 102.784 54.7635 103.022 54.6819L103.277 54.59L104.194 54.2533V53.6715C104.194 53.2361 104.157 52.9197 104.082 52.7224C104.014 52.5251 103.895 52.4265 103.725 52.4265C103.365 52.4265 103.161 52.7054 103.114 53.2633C103.093 53.4674 103.032 53.6137 102.93 53.7022C102.835 53.7906 102.699 53.8348 102.523 53.8348C102.353 53.8348 102.227 53.8008 102.146 53.7328C102.071 53.6579 102.033 53.5627 102.033 53.447C102.033 53.2429 102.152 53.049 102.39 52.8653C102.628 52.6748 102.913 52.5217 103.246 52.4061C103.586 52.2904 103.885 52.2326 104.142 52.2326C104.441 52.2326 104.683 52.3278 104.867 52.5183C105.057 52.702 105.152 52.9844 105.152 53.3654V55.1717C105.152 55.3691 105.186 55.5221 105.254 55.631C105.329 55.7398 105.431 55.7943 105.56 55.7943C105.655 55.7943 105.753 55.7705 105.855 55.7228H105.865ZM104.204 55.5391C104.197 55.5119 104.194 55.4677 104.194 55.4065V54.4267L103.756 54.6309C103.735 54.6377 103.667 54.6649 103.552 54.7125C103.436 54.7533 103.335 54.8248 103.246 54.9268C103.165 55.0289 103.124 55.1479 103.124 55.284C103.124 55.4473 103.175 55.5766 103.277 55.6718C103.385 55.7603 103.508 55.8045 103.644 55.8045C103.752 55.8045 103.864 55.7671 103.98 55.6922L104.204 55.5391ZM108.931 52.2326C109.087 52.2326 109.237 52.2904 109.38 52.4061C109.529 52.5149 109.604 52.6476 109.604 52.8041C109.604 52.947 109.56 53.066 109.471 53.1613C109.383 53.2497 109.268 53.2939 109.125 53.2939C109.023 53.2939 108.938 53.2735 108.87 53.2327C108.809 53.1919 108.744 53.1307 108.676 53.049C108.615 52.981 108.561 52.9334 108.513 52.9061C108.473 52.8721 108.422 52.8551 108.361 52.8551C108.293 52.8551 108.218 52.8823 108.136 52.9368C108.062 52.9844 107.943 53.0898 107.78 53.2531V55.4473C107.78 55.7194 107.844 55.9065 107.973 56.0086C108.102 56.1038 108.34 56.1515 108.687 56.1515C108.714 56.1515 108.727 56.1719 108.727 56.2127C108.727 56.2535 108.714 56.2739 108.687 56.2739C108.449 56.2739 108.262 56.2705 108.126 56.2637L107.301 56.2535L106.699 56.2637C106.597 56.2705 106.458 56.2739 106.281 56.2739C106.261 56.2739 106.251 56.2535 106.251 56.2127C106.251 56.1719 106.261 56.1515 106.281 56.1515C106.492 56.1515 106.635 56.1038 106.71 56.0086C106.784 55.9065 106.822 55.7194 106.822 55.4473V53.5287C106.822 53.3178 106.794 53.1647 106.74 53.0694C106.693 52.9674 106.614 52.9163 106.506 52.9163C106.39 52.9163 106.227 52.964 106.017 53.0592H105.996C105.976 53.0592 105.959 53.0422 105.945 53.0082C105.938 52.9742 105.942 52.9538 105.955 52.947L107.372 52.253C107.413 52.2394 107.437 52.2326 107.443 52.2326C107.518 52.2326 107.586 52.304 107.647 52.4469C107.715 52.583 107.756 52.7701 107.769 53.0082C108.048 52.7224 108.276 52.5217 108.452 52.4061C108.636 52.2904 108.795 52.2326 108.931 52.2326ZM113.581 55.6004C113.595 55.6004 113.608 55.614 113.622 55.6412C113.642 55.6684 113.646 55.6888 113.632 55.7024C113.381 55.9474 113.126 56.1243 112.868 56.2331C112.609 56.342 112.327 56.3964 112.022 56.3964C111.594 56.3964 111.223 56.3079 110.911 56.1311C110.598 55.9474 110.361 55.7058 110.197 55.4065C110.034 55.1003 109.953 54.7703 109.953 54.4165C109.953 54.0219 110.051 53.6579 110.248 53.3246C110.445 52.9912 110.717 52.7292 111.064 52.5387C111.417 52.3414 111.815 52.2428 112.256 52.2428C112.677 52.2428 113.004 52.338 113.235 52.5285C113.466 52.719 113.581 53.015 113.581 53.4164C113.581 53.6273 113.544 53.7328 113.469 53.7328L110.992 53.743C110.986 53.7906 110.982 53.8689 110.982 53.9777C110.982 54.5764 111.118 55.0459 111.39 55.3861C111.668 55.7262 112.066 55.8963 112.582 55.8963C112.766 55.8963 112.922 55.8759 113.051 55.8351C113.18 55.7943 113.35 55.7194 113.561 55.6106L113.581 55.6004ZM111.869 52.4469C111.645 52.4469 111.458 52.5455 111.308 52.7429C111.159 52.9334 111.06 53.1987 111.013 53.5389L112.491 53.5185C112.484 53.1715 112.433 52.9061 112.338 52.7224C112.243 52.5387 112.086 52.4469 111.869 52.4469ZM123.664 56.1515C123.691 56.1583 123.701 56.1821 123.694 56.2229C123.694 56.2569 123.684 56.2739 123.664 56.2739H121.992C121.802 56.2739 121.476 56.1072 121.014 55.7739C120.504 56.1889 119.855 56.3964 119.067 56.3964C118.599 56.3964 118.204 56.3284 117.885 56.1923C117.566 56.0562 117.328 55.8759 117.172 55.6514C117.015 55.4269 116.937 55.1888 116.937 54.937C116.937 54.6104 117.049 54.3179 117.274 54.0594C117.498 53.8008 117.838 53.5015 118.293 53.1613C118.184 53.0184 118.079 52.8551 117.977 52.6714C117.882 52.4809 117.807 52.3006 117.753 52.1305C117.705 51.9604 117.681 51.7733 117.681 51.5692C117.681 51.0181 117.855 50.5657 118.201 50.2119C118.554 49.8581 119.033 49.6812 119.638 49.6812C120.059 49.6812 120.392 49.7731 120.637 49.9568C120.881 50.1337 121.004 50.382 121.004 50.7018C121.004 50.9671 120.926 51.212 120.769 51.4366C120.62 51.6543 120.447 51.838 120.25 51.9877C120.052 52.1373 119.747 52.3516 119.332 52.6306C119.821 53.3586 120.504 54.073 121.381 54.7737C121.442 54.5356 121.472 54.2669 121.472 53.9675C121.472 53.5729 121.408 53.2871 121.279 53.1102C121.15 52.9266 120.939 52.8347 120.647 52.8347C120.633 52.8347 120.623 52.8143 120.616 52.7735C120.616 52.7326 120.627 52.7122 120.647 52.7122L123.073 52.702C123.093 52.702 123.103 52.7224 123.103 52.7633C123.103 52.8041 123.093 52.8245 123.073 52.8245C122.869 52.8245 122.716 52.8483 122.614 52.8959C122.519 52.9368 122.444 53.0082 122.39 53.1102C122.342 53.2123 122.288 53.3756 122.227 53.6001C122.152 53.8723 122.074 54.1206 121.992 54.3451C121.911 54.5696 121.805 54.7873 121.676 54.9983C122.118 55.3316 122.509 55.5936 122.848 55.7841C123.195 55.9746 123.467 56.097 123.664 56.1515ZM118.639 50.6916C118.639 51.2222 118.826 51.7972 119.2 52.4163C119.682 51.9468 119.923 51.4468 119.923 50.9161C119.923 50.6167 119.852 50.382 119.709 50.2119C119.573 50.0418 119.393 49.9568 119.169 49.9568C118.979 49.9568 118.843 50.018 118.762 50.1405C118.68 50.2629 118.639 50.4466 118.639 50.6916ZM119.852 55.8963C120.246 55.8963 120.572 55.8079 120.83 55.631C120.722 55.5561 120.576 55.4439 120.392 55.2942C120.046 55.0153 119.696 54.7057 119.342 54.3655C118.996 54.0185 118.69 53.6784 118.425 53.345C118.12 53.6647 117.967 54.0015 117.967 54.3553C117.967 54.6207 118.041 54.8724 118.191 55.1105C118.347 55.3418 118.568 55.5323 118.853 55.682C119.139 55.8249 119.472 55.8963 119.852 55.8963ZM133.327 49.8955C133.34 49.8955 133.347 49.916 133.347 49.9568C133.347 49.9976 133.34 50.018 133.327 50.018C133.055 50.018 132.841 50.1269 132.685 50.3446C132.528 50.5555 132.45 50.8412 132.45 51.2018V56.427C132.45 56.4474 132.433 56.461 132.399 56.4678C132.372 56.4746 132.352 56.4712 132.338 56.4576L127.558 51.0079V54.9778C127.558 55.3384 127.633 55.6242 127.783 55.8351C127.932 56.046 128.139 56.1515 128.404 56.1515C128.418 56.1515 128.425 56.1719 128.425 56.2127C128.425 56.2535 128.418 56.2739 128.404 56.2739C128.214 56.2739 128.068 56.2705 127.966 56.2637L127.416 56.2535L126.784 56.2637C126.668 56.2705 126.502 56.2739 126.284 56.2739C126.264 56.2739 126.254 56.2535 126.254 56.2127C126.254 56.1719 126.264 56.1515 126.284 56.1515C126.583 56.1515 126.818 56.046 126.988 55.8351C127.164 55.6242 127.253 55.3384 127.253 54.9778V50.661C127.028 50.416 126.835 50.2493 126.672 50.1609C126.515 50.0656 126.352 50.018 126.183 50.018C126.169 50.018 126.162 49.9976 126.162 49.9568C126.162 49.916 126.169 49.8955 126.183 49.8955L126.611 49.9057C126.699 49.9126 126.828 49.916 126.998 49.916L127.772 49.9057C127.868 49.8989 127.983 49.8955 128.119 49.8955C128.173 49.8955 128.214 49.9091 128.241 49.9364C128.268 49.9636 128.316 50.0214 128.384 50.1099C128.499 50.2663 128.581 50.3718 128.628 50.4262L132.155 54.4982V51.2018C132.155 50.8344 132.08 50.5453 131.93 50.3344C131.781 50.1235 131.574 50.018 131.309 50.018C131.295 50.018 131.288 49.9976 131.288 49.9568C131.288 49.916 131.295 49.8955 131.309 49.8955L131.747 49.9057C131.964 49.9194 132.148 49.9262 132.297 49.9262C132.433 49.9262 132.623 49.9194 132.868 49.9057L133.327 49.8955ZM137.723 55.7228C137.75 55.7228 137.767 55.7398 137.773 55.7739C137.787 55.8011 137.78 55.8215 137.753 55.8351L136.703 56.3352C136.676 56.3488 136.642 56.3556 136.601 56.3556C136.493 56.3556 136.387 56.2977 136.286 56.1821C136.19 56.0664 136.122 55.9099 136.082 55.7126L135.643 56.0188C135.487 56.1345 135.341 56.2195 135.205 56.2739C135.069 56.3216 134.917 56.3454 134.747 56.3454C134.454 56.3454 134.234 56.2807 134.084 56.1515C133.935 56.0222 133.86 55.8419 133.86 55.6106C133.86 55.4269 133.904 55.2806 133.992 55.1717C134.081 55.0561 134.19 54.9676 134.319 54.9064C134.454 54.8384 134.641 54.7635 134.879 54.6819L135.134 54.59L136.051 54.2533V53.6715C136.051 53.2361 136.014 52.9197 135.939 52.7224C135.871 52.5251 135.752 52.4265 135.582 52.4265C135.222 52.4265 135.018 52.7054 134.971 53.2633C134.95 53.4674 134.889 53.6137 134.787 53.7022C134.692 53.7906 134.556 53.8348 134.38 53.8348C134.21 53.8348 134.084 53.8008 134.003 53.7328C133.928 53.6579 133.891 53.5627 133.891 53.447C133.891 53.2429 134.009 53.049 134.247 52.8653C134.485 52.6748 134.77 52.5217 135.103 52.4061C135.443 52.2904 135.742 52.2326 136 52.2326C136.299 52.2326 136.54 52.3278 136.724 52.5183C136.914 52.702 137.009 52.9844 137.009 53.3654V55.1717C137.009 55.3691 137.043 55.5221 137.111 55.631C137.186 55.7398 137.288 55.7943 137.417 55.7943C137.512 55.7943 137.61 55.7705 137.712 55.7228H137.723ZM136.061 55.5391C136.055 55.5119 136.051 55.4677 136.051 55.4065V54.4267L135.613 54.6309C135.593 54.6377 135.525 54.6649 135.409 54.7125C135.294 54.7533 135.192 54.8248 135.103 54.9268C135.022 55.0289 134.981 55.1479 134.981 55.284C134.981 55.4473 135.032 55.5766 135.134 55.6718C135.243 55.7603 135.365 55.8045 135.501 55.8045C135.609 55.8045 135.722 55.7671 135.837 55.6922L136.061 55.5391ZM139.118 51.2222C138.921 51.2222 138.768 51.1678 138.659 51.059C138.551 50.9501 138.496 50.797 138.496 50.5997C138.496 50.4228 138.551 50.2833 138.659 50.1813C138.775 50.0724 138.928 50.018 139.118 50.018C139.308 50.018 139.454 50.069 139.556 50.1711C139.658 50.2731 139.709 50.416 139.709 50.5997C139.709 50.797 139.658 50.9501 139.556 51.059C139.454 51.1678 139.308 51.2222 139.118 51.2222ZM138.139 56.2739C138.119 56.2739 138.109 56.2535 138.109 56.2127C138.109 56.1719 138.119 56.1515 138.139 56.1515C138.35 56.1515 138.493 56.1038 138.568 56.0086C138.642 55.9065 138.68 55.7194 138.68 55.4473V53.6205C138.68 53.3892 138.656 53.2225 138.608 53.1205C138.561 53.0184 138.483 52.9674 138.374 52.9674C138.286 52.9674 138.16 53.0048 137.997 53.0796H137.987C137.959 53.0796 137.939 53.0626 137.925 53.0286C137.912 52.9878 137.915 52.964 137.936 52.9572L139.475 52.2428L139.505 52.2326C139.539 52.2326 139.573 52.2496 139.607 52.2836C139.641 52.3176 139.658 52.3482 139.658 52.3755V52.6C139.644 52.8721 139.638 53.2055 139.638 53.6001V55.4473C139.638 55.7194 139.675 55.9065 139.75 56.0086C139.831 56.1038 139.977 56.1515 140.188 56.1515C140.208 56.1515 140.219 56.1719 140.219 56.2127C140.219 56.2535 140.208 56.2739 140.188 56.2739C140.011 56.2739 139.872 56.2705 139.77 56.2637L139.159 56.2535L138.557 56.2637C138.455 56.2705 138.316 56.2739 138.139 56.2739ZM140.776 56.2739C140.762 56.2739 140.755 56.2535 140.755 56.2127C140.755 56.1719 140.762 56.1515 140.776 56.1515C140.986 56.1515 141.129 56.1038 141.204 56.0086C141.285 55.9065 141.326 55.7194 141.326 55.4473L141.336 50.2629C141.336 50.0248 141.312 49.8547 141.265 49.7527C141.224 49.6506 141.149 49.5996 141.041 49.5996C140.952 49.5996 140.823 49.637 140.653 49.7118H140.643C140.623 49.7118 140.602 49.6948 140.582 49.6608C140.568 49.62 140.568 49.5962 140.582 49.5894L142.08 48.8852L142.121 48.875C142.155 48.875 142.192 48.892 142.233 48.926C142.274 48.9532 142.294 48.9805 142.294 49.0077V55.4473C142.294 55.7194 142.332 55.9065 142.406 56.0086C142.481 56.1038 142.624 56.1515 142.834 56.1515C142.861 56.1515 142.875 56.1719 142.875 56.2127C142.875 56.2535 142.861 56.2739 142.834 56.2739C142.664 56.2739 142.529 56.2705 142.427 56.2637L141.805 56.2535L141.193 56.2637C141.092 56.2705 140.952 56.2739 140.776 56.2739ZM147.308 50.9263C147.308 51.1712 147.369 51.3889 147.492 51.5794C147.621 51.7699 147.777 51.9366 147.961 52.0795C148.144 52.2224 148.392 52.3959 148.704 52.6C149.044 52.8177 149.316 53.0082 149.52 53.1715C149.724 53.3348 149.897 53.5355 150.04 53.7736C150.182 54.0049 150.254 54.2737 150.254 54.5798C150.254 54.9336 150.158 55.25 149.968 55.5289C149.778 55.8011 149.513 56.0154 149.173 56.1719C148.84 56.3216 148.467 56.3964 148.052 56.3964C147.746 56.3964 147.427 56.3556 147.094 56.2739C146.761 56.1855 146.537 56.0902 146.422 55.9882C146.388 55.961 146.36 55.9372 146.34 55.9167C146.326 55.8895 146.32 55.8487 146.32 55.7943L146.289 54.1716V54.1614C146.289 54.1342 146.306 54.1206 146.34 54.1206C146.374 54.1138 146.394 54.124 146.401 54.1512C146.605 54.5662 146.782 54.903 146.931 55.1615C147.087 55.4201 147.281 55.648 147.512 55.8453C147.75 56.0426 148.018 56.1413 148.317 56.1413C148.589 56.1413 148.813 56.0698 148.99 55.9269C149.166 55.7773 149.255 55.5255 149.255 55.1717C149.255 54.8724 149.187 54.6104 149.051 54.3859C148.922 54.1614 148.762 53.9709 148.572 53.8144C148.382 53.6579 148.12 53.4708 147.787 53.2531C147.461 53.0422 147.206 52.8619 147.023 52.7122C146.846 52.5626 146.693 52.3823 146.564 52.1713C146.435 51.9604 146.371 51.7121 146.371 51.4264C146.371 51.0658 146.473 50.763 146.676 50.5181C146.887 50.2663 147.155 50.0826 147.482 49.967C147.808 49.8445 148.151 49.7833 148.511 49.7833C148.749 49.7833 148.99 49.8071 149.234 49.8547C149.479 49.8955 149.676 49.9466 149.826 50.0078C149.887 50.035 149.927 50.0656 149.948 50.0997C149.968 50.1269 149.978 50.1643 149.978 50.2119V51.7121C149.978 51.7325 149.961 51.7495 149.927 51.7631C149.893 51.7699 149.873 51.7631 149.866 51.7427L149.785 51.5488C149.615 51.1202 149.414 50.7562 149.183 50.4568C148.959 50.1575 148.643 50.0078 148.236 50.0078C147.964 50.0078 147.74 50.086 147.563 50.2425C147.393 50.399 147.308 50.6269 147.308 50.9263ZM155.05 55.7228C155.077 55.7228 155.094 55.7398 155.101 55.7739C155.115 55.8011 155.108 55.8215 155.081 55.8351L154.031 56.3352C154.004 56.3488 153.97 56.3556 153.929 56.3556C153.821 56.3556 153.715 56.2977 153.613 56.1821C153.518 56.0664 153.45 55.9099 153.409 55.7126L152.971 56.0188C152.815 56.1345 152.669 56.2195 152.533 56.2739C152.397 56.3216 152.244 56.3454 152.074 56.3454C151.782 56.3454 151.561 56.2807 151.412 56.1515C151.262 56.0222 151.188 55.8419 151.188 55.6106C151.188 55.4269 151.232 55.2806 151.32 55.1717C151.409 55.0561 151.517 54.9676 151.646 54.9064C151.782 54.8384 151.969 54.7635 152.207 54.6819L152.462 54.59L153.379 54.2533V53.6715C153.379 53.2361 153.342 52.9197 153.267 52.7224C153.199 52.5251 153.08 52.4265 152.91 52.4265C152.55 52.4265 152.346 52.7054 152.299 53.2633C152.278 53.4674 152.217 53.6137 152.115 53.7022C152.02 53.7906 151.884 53.8348 151.708 53.8348C151.538 53.8348 151.412 53.8008 151.33 53.7328C151.256 53.6579 151.218 53.5627 151.218 53.447C151.218 53.2429 151.337 53.049 151.575 52.8653C151.813 52.6748 152.098 52.5217 152.431 52.4061C152.771 52.2904 153.07 52.2326 153.328 52.2326C153.627 52.2326 153.868 52.3278 154.052 52.5183C154.242 52.702 154.337 52.9844 154.337 53.3654V55.1717C154.337 55.3691 154.371 55.5221 154.439 55.631C154.514 55.7398 154.615 55.7943 154.745 55.7943C154.84 55.7943 154.938 55.7705 155.04 55.7228H155.05ZM153.389 55.5391C153.382 55.5119 153.379 55.4677 153.379 55.4065V54.4267L152.941 54.6309C152.92 54.6377 152.852 54.6649 152.737 54.7125C152.621 54.7533 152.519 54.8248 152.431 54.9268C152.35 55.0289 152.309 55.1479 152.309 55.284C152.309 55.4473 152.36 55.5766 152.462 55.6718C152.57 55.7603 152.693 55.8045 152.829 55.8045C152.937 55.8045 153.049 55.7671 153.165 55.6922L153.389 55.5391ZM155.426 56.2739C155.412 56.2739 155.405 56.2535 155.405 56.2127C155.405 56.1719 155.412 56.1515 155.426 56.1515C155.636 56.1515 155.779 56.1038 155.854 56.0086C155.935 55.9065 155.976 55.7194 155.976 55.4473L155.986 50.2629C155.986 50.0248 155.962 49.8547 155.915 49.7527C155.874 49.6506 155.799 49.5996 155.691 49.5996C155.602 49.5996 155.473 49.637 155.303 49.7118H155.293C155.273 49.7118 155.252 49.6948 155.232 49.6608C155.218 49.62 155.218 49.5962 155.232 49.5894L156.73 48.8852L156.771 48.875C156.805 48.875 156.842 48.892 156.883 48.926C156.924 48.9532 156.944 48.9805 156.944 49.0077V55.4473C156.944 55.7194 156.982 55.9065 157.056 56.0086C157.131 56.1038 157.274 56.1515 157.484 56.1515C157.511 56.1515 157.525 56.1719 157.525 56.2127C157.525 56.2535 157.511 56.2739 157.484 56.2739C157.314 56.2739 157.179 56.2705 157.077 56.2637L156.455 56.2535L155.843 56.2637C155.742 56.2705 155.602 56.2739 155.426 56.2739ZM160.211 56.4066C159.79 56.4066 159.42 56.3113 159.1 56.1208C158.788 55.9235 158.547 55.6616 158.377 55.335C158.207 55.0017 158.122 54.6411 158.122 54.2533C158.122 53.811 158.234 53.4368 158.458 53.1307C158.683 52.8177 158.968 52.5864 159.314 52.4367C159.661 52.2802 160.018 52.202 160.385 52.202C160.806 52.202 161.173 52.3006 161.485 52.4979C161.798 52.6952 162.036 52.9572 162.199 53.2837C162.368 53.6035 162.453 53.9471 162.453 54.3145C162.453 54.7227 162.351 55.0867 162.148 55.4065C161.944 55.7194 161.669 55.9644 161.322 56.1413C160.982 56.3182 160.612 56.4066 160.211 56.4066ZM160.517 56.1923C160.782 56.1923 160.982 56.063 161.118 55.8045C161.261 55.5391 161.332 55.1615 161.332 54.6717C161.332 54.1954 161.271 53.7872 161.149 53.447C161.027 53.1068 160.867 52.8517 160.67 52.6816C160.473 52.5047 160.262 52.4163 160.038 52.4163C159.495 52.4163 159.223 52.9027 159.223 53.8757C159.223 54.3315 159.28 54.7363 159.396 55.0901C159.511 55.4371 159.668 55.7092 159.865 55.9065C160.062 56.097 160.279 56.1923 160.517 56.1923ZM167.969 56.1515C167.99 56.1515 168 56.1719 168 56.2127C168 56.2535 167.99 56.2739 167.969 56.2739C167.793 56.2739 167.654 56.2705 167.552 56.2637L166.94 56.2535L166.349 56.2637C166.24 56.2705 166.098 56.2739 165.921 56.2739C165.901 56.2739 165.89 56.2535 165.89 56.2127C165.89 56.1719 165.901 56.1515 165.921 56.1515C166.132 56.1515 166.274 56.1038 166.349 56.0086C166.424 55.9065 166.461 55.7194 166.461 55.4473V53.9777C166.461 53.6103 166.393 53.3382 166.257 53.1613C166.128 52.9844 165.921 52.8959 165.636 52.8959C165.473 52.8959 165.303 52.93 165.126 52.998C164.956 53.066 164.807 53.1579 164.678 53.2735V55.4473C164.678 55.7194 164.715 55.9065 164.79 56.0086C164.871 56.1038 165.017 56.1515 165.228 56.1515C165.248 56.1515 165.259 56.1719 165.259 56.2127C165.259 56.2535 165.248 56.2739 165.228 56.2739C165.051 56.2739 164.912 56.2705 164.81 56.2637L164.199 56.2535L163.597 56.2637C163.495 56.2705 163.356 56.2739 163.18 56.2739C163.159 56.2739 163.149 56.2535 163.149 56.2127C163.149 56.1719 163.159 56.1515 163.18 56.1515C163.39 56.1515 163.533 56.1038 163.608 56.0086C163.682 55.9065 163.72 55.7194 163.72 55.4473V53.5287C163.72 53.3178 163.692 53.1647 163.638 53.0694C163.591 52.9674 163.512 52.9163 163.404 52.9163C163.288 52.9163 163.125 52.964 162.915 53.0592H162.894C162.874 53.0592 162.857 53.0422 162.843 53.0082C162.836 52.9742 162.84 52.9538 162.853 52.947L164.27 52.253C164.311 52.2394 164.335 52.2326 164.341 52.2326C164.416 52.2326 164.487 52.3074 164.555 52.4571C164.623 52.6 164.664 52.7973 164.678 53.049C165.146 52.4911 165.663 52.2122 166.227 52.2122C166.594 52.2122 166.882 52.3312 167.093 52.5694C167.31 52.8007 167.419 53.1068 167.419 53.4878V55.4473C167.419 55.7194 167.456 55.9065 167.531 56.0086C167.613 56.1038 167.759 56.1515 167.969 56.1515Z" fill="#C28565"/>
<path d="M98.5212 40.9832C98.5825 40.9832 98.6132 41.0743 98.6132 41.2564C98.6132 41.4385 98.5825 41.5295 98.5212 41.5295H90.3367C89.6623 41.5295 88.4055 40.3307 86.5663 37.9332C84.7271 35.5054 82.5047 32.1215 79.8991 27.7817C79.6539 27.8121 79.3014 27.8272 78.8416 27.8272C77.6461 27.8272 76.8031 27.8121 76.3127 27.7817V37.8422C76.3127 38.783 76.3893 39.4658 76.5426 39.8907C76.6958 40.3156 76.9871 40.6039 77.4162 40.7556C77.876 40.9074 78.5964 40.9832 79.5773 40.9832C79.6386 40.9832 79.6693 41.0743 79.6693 41.2564C79.6693 41.4385 79.6386 41.5295 79.5773 41.5295C78.5657 41.5295 77.7687 41.5143 77.1863 41.484L73.6918 41.4385L70.3352 41.484C69.7222 41.5143 68.8945 41.5295 67.8523 41.5295C67.7603 41.5295 67.7144 41.4385 67.7144 41.2564C67.7144 41.0743 67.7603 40.9832 67.8523 40.9832C68.8332 40.9832 69.5382 40.9074 69.9674 40.7556C70.4272 40.6039 70.7337 40.3156 70.887 39.8907C71.0709 39.4355 71.1629 38.7526 71.1629 37.8422V16.7653C71.1629 15.8548 71.0862 15.1872 70.933 14.7623C70.7797 14.3374 70.4732 14.0491 70.0134 13.8974C69.5536 13.7153 68.8485 13.6242 67.8983 13.6242C67.837 13.6242 67.8063 13.5332 67.8063 13.3511C67.8063 13.169 67.837 13.078 67.8983 13.078L70.3352 13.1235C71.7453 13.1842 72.8642 13.2145 73.6918 13.2145C74.734 13.2145 75.8222 13.169 76.9564 13.078C77.3549 13.0476 77.8454 13.0173 78.4278 12.9869C79.0409 12.9566 79.7152 12.9414 80.4509 12.9414C83.2404 12.9414 85.4015 13.4573 86.9341 14.4892C88.4668 15.4907 89.2332 16.9019 89.2332 18.7228C89.2332 20.3919 88.7734 21.9093 87.8538 23.275C86.9341 24.6103 85.708 25.6877 84.1753 26.5071C86.6276 30.1489 88.6814 33.0016 90.3367 35.0653C91.992 37.129 93.4634 38.6312 94.7508 39.572C96.0383 40.5128 97.2951 40.9832 98.5212 40.9832ZM76.3127 26.5071C77.0484 26.6285 77.9373 26.6892 78.9795 26.6892C80.7574 26.6892 82.0296 26.2036 82.7959 25.2325C83.5929 24.231 83.9914 22.6377 83.9914 20.4526C83.9914 17.964 83.6236 16.2494 82.8879 15.3086C82.1522 14.3678 81.0946 13.8974 79.7152 13.8974C78.4891 13.8974 77.6155 14.125 77.0943 14.5802C76.5732 15.0354 76.3127 15.7941 76.3127 16.8563V26.5071ZM117.338 39.0713C117.461 39.0713 117.537 39.1472 117.568 39.2989C117.629 39.4203 117.599 39.5113 117.476 39.572L112.74 41.8026C112.618 41.8633 112.464 41.8937 112.28 41.8937C111.79 41.8937 111.315 41.6357 110.855 41.1198C110.426 40.6039 110.119 39.9059 109.935 39.0258L107.958 40.3914C107.253 40.9074 106.594 41.2867 105.981 41.5295C105.368 41.7419 104.678 41.8482 103.912 41.8482C102.594 41.8482 101.598 41.5599 100.923 40.9832C100.249 40.4066 99.9117 39.6024 99.9117 38.5705C99.9117 37.7511 100.111 37.0987 100.509 36.6131C100.908 36.0972 101.398 35.7026 101.981 35.4295C102.594 35.126 103.437 34.7922 104.51 34.428L105.659 34.0183L109.797 32.5161V29.9213C109.797 27.979 109.629 26.5678 109.292 25.6877C108.985 24.8076 108.449 24.3675 107.682 24.3675C106.058 24.3675 105.138 25.6118 104.924 28.1004C104.832 29.0108 104.556 29.6633 104.096 30.0578C103.667 30.4524 103.054 30.6496 102.257 30.6496C101.49 30.6496 100.923 30.4979 100.555 30.1944C100.218 29.8606 100.05 29.4357 100.05 28.9198C100.05 28.0093 100.586 27.1444 101.659 26.325C102.732 25.4753 104.019 24.7924 105.521 24.2765C107.054 23.7606 108.403 23.5026 109.568 23.5026C110.916 23.5026 112.005 23.9275 112.832 24.7772C113.69 25.5966 114.12 26.8561 114.12 28.5556V36.6131C114.12 37.4932 114.273 38.176 114.579 38.6616C114.917 39.1472 115.376 39.39 115.959 39.39C116.388 39.39 116.832 39.2837 117.292 39.0713H117.338ZM109.843 38.2519C109.813 38.1305 109.797 37.9332 109.797 37.6601V33.2899L107.82 34.2004C107.728 34.2307 107.422 34.3521 106.901 34.5646C106.38 34.7467 105.92 35.0653 105.521 35.5205C105.153 35.9758 104.97 36.5069 104.97 37.1138C104.97 37.8422 105.199 38.4188 105.659 38.8437C106.15 39.2382 106.701 39.4355 107.315 39.4355C107.805 39.4355 108.311 39.2686 108.832 38.9347L109.843 38.2519ZM122.852 26.1429C122.852 27.023 123.158 27.7817 123.771 28.419C124.415 29.0564 125.335 29.724 126.53 30.422C127.695 31.0897 128.553 31.6208 129.105 32.0153C129.687 32.3795 130.208 32.9106 130.668 33.6086C131.128 34.2763 131.358 35.0957 131.358 36.0668C131.358 37.0987 131.097 38.0698 130.576 38.9802C130.055 39.8907 129.274 40.6342 128.231 41.2108C127.189 41.7571 125.948 42.0303 124.507 42.0303C122.821 42.0303 121.227 41.6206 119.725 40.8011C119.541 40.6191 119.449 40.437 119.449 40.2549L119.357 35.7482C119.357 35.6571 119.434 35.6116 119.587 35.6116C119.771 35.5812 119.878 35.5964 119.909 35.6571C120.399 37.1745 121.212 38.4643 122.346 39.5265C123.48 40.5887 124.63 41.1198 125.794 41.1198C126.438 41.1198 126.944 40.9225 127.312 40.528C127.71 40.1335 127.909 39.5569 127.909 38.7982C127.909 37.6753 127.588 36.7952 126.944 36.1579C126.3 35.4902 125.35 34.8074 124.093 34.1093C123.02 33.5327 122.208 33.0623 121.656 32.6981C121.104 32.334 120.614 31.818 120.185 31.1504C119.756 30.4827 119.541 29.6633 119.541 28.6922C119.541 26.9016 120.185 25.5966 121.472 24.7772C122.76 23.9275 124.338 23.5026 126.208 23.5026C126.913 23.5026 127.542 23.5481 128.093 23.6392C128.676 23.7302 129.32 23.9123 130.025 24.1855C130.3 24.2765 130.438 24.4434 130.438 24.6862C130.438 25.4449 130.423 26.0367 130.392 26.4616L130.346 28.7377C130.346 28.8287 130.254 28.8743 130.071 28.8743C129.887 28.8743 129.795 28.8287 129.795 28.7377C129.795 28.1611 129.549 27.5389 129.059 26.8713C128.569 26.1733 127.925 25.5815 127.128 25.0959C126.361 24.6103 125.564 24.3675 124.737 24.3675C123.48 24.3675 122.852 24.9593 122.852 26.1429ZM167.816 40.9832C167.939 40.9832 168 41.0743 168 41.2564C168 41.4385 167.939 41.5295 167.816 41.5295C167.019 41.5295 166.391 41.5143 165.931 41.484L163.172 41.4385L160.505 41.484C160.015 41.5143 159.371 41.5295 158.574 41.5295C158.482 41.5295 158.436 41.4385 158.436 41.2564C158.436 41.0743 158.482 40.9832 158.574 40.9832C159.524 40.9832 160.168 40.7708 160.505 40.3459C160.873 39.8907 161.057 39.0561 161.057 37.8422V31.287C161.057 29.6481 160.766 28.4342 160.183 27.6452C159.632 26.8561 158.773 26.4616 157.609 26.4616C156.812 26.4616 156.03 26.6285 155.264 26.9623C154.497 27.2962 153.838 27.7514 153.286 28.328V28.6011V37.8422C153.286 39.0561 153.455 39.8907 153.792 40.3459C154.16 40.7708 154.819 40.9832 155.769 40.9832C155.892 40.9832 155.953 41.0743 155.953 41.2564C155.953 41.4385 155.892 41.5295 155.769 41.5295C154.972 41.5295 154.344 41.5143 153.884 41.484L151.125 41.4385L148.458 41.484C147.968 41.5143 147.324 41.5295 146.527 41.5295C146.435 41.5295 146.389 41.4385 146.389 41.2564C146.389 41.0743 146.435 40.9832 146.527 40.9832C147.478 40.9832 148.121 40.7708 148.458 40.3459C148.826 39.8907 149.01 39.0561 149.01 37.8422V31.287C149.01 29.6481 148.719 28.4342 148.137 27.6452C147.585 26.8561 146.727 26.4616 145.562 26.4616C144.826 26.4616 144.09 26.6133 143.355 26.9168C142.65 27.1899 142.021 27.5845 141.469 28.1004V37.8422C141.469 39.0561 141.638 39.8907 141.975 40.3459C142.343 40.7708 143.002 40.9832 143.952 40.9832C144.044 40.9832 144.09 41.0743 144.09 41.2564C144.09 41.4385 144.044 41.5295 143.952 41.5295C143.155 41.5295 142.527 41.5143 142.067 41.484L139.308 41.4385L136.595 41.484C136.136 41.5143 135.507 41.5295 134.71 41.5295C134.618 41.5295 134.572 41.4385 134.572 41.2564C134.572 41.0743 134.618 40.9832 134.71 40.9832C135.661 40.9832 136.304 40.7708 136.641 40.3459C136.979 39.8907 137.147 39.0561 137.147 37.8422V29.284C137.147 28.3432 137.025 27.6603 136.779 27.2355C136.565 26.7802 136.212 26.5526 135.722 26.5526C135.201 26.5526 134.465 26.7651 133.515 27.1899H133.423C133.331 27.1899 133.254 27.1141 133.193 26.9623C133.162 26.8106 133.178 26.7195 133.239 26.6892L139.63 23.5937C139.814 23.533 139.921 23.5026 139.952 23.5026C140.289 23.5026 140.611 23.8364 140.918 24.5041C141.224 25.1414 141.408 26.0063 141.469 27.0989C143.554 24.6407 145.792 23.4116 148.183 23.4116C149.623 23.4116 150.773 23.7606 151.631 24.4586C152.489 25.1566 153.01 26.1581 153.194 27.4631C155.309 24.7621 157.654 23.4116 160.229 23.4116C161.885 23.4116 163.141 23.882 164 24.8228C164.889 25.7636 165.333 27.1899 165.333 29.1019V37.8422C165.333 39.0561 165.502 39.8907 165.839 40.3459C166.207 40.7708 166.866 40.9832 167.816 40.9832Z" fill="white"/>
<path d="M59.8357 18.5079C59.698 17.7164 59.355 16.8346 58.8641 16.07V16.0689C58.2022 15.0396 57.2732 14.2235 56.2178 14.1286C54.5971 13.9834 53.1277 15.1356 52.1298 16.4471C51.8798 16.7761 51.6457 17.1192 51.4186 17.467C50.7407 18.5056 50.1178 19.5864 49.2506 20.4611C47.6597 22.0652 45.7957 23.0582 43.6061 23.5219C41.4163 23.9856 38.8768 23.4739 36.8109 24.3462C34.7451 25.2186 33.0521 27.2268 31.9669 29.2232C30.142 32.5815 29.4583 36.4783 29.3964 40.2055V40.2078C29.3918 40.4689 29.3907 40.7277 29.393 40.9865C29.4171 44.9454 30.5251 48.9196 32.7171 52.1866C35.3646 56.1338 39.9768 60.0998 44.6625 60.1372C46.1422 60.149 47.4647 59.9791 48.6553 59.6677C48.7655 59.6396 48.7999 59.5319 48.7723 59.4452C48.7529 59.382 48.699 59.3293 48.6152 59.3269C35.7063 59.0436 38.8733 48.0437 41.4163 45.6152C42.3213 44.751 43.5499 44.8412 44.8621 45.2698C45.4321 45.4559 46.0171 45.7054 46.5987 45.9676L46.5998 45.9688C47.2801 46.2756 47.9557 46.6 48.5934 46.8611C50.0169 47.4442 51.258 47.7136 51.9715 46.7768C53.9456 44.182 53.9157 45.2499 54.7829 43.2358C55.2716 42.1 53.8836 41.3811 52.7342 40.7921C52.6334 40.7406 52.6884 40.5848 52.7985 40.6083C57.4452 41.6117 56.5918 38.2441 56.5918 38.2441C58.2068 38.3355 59.9114 37.0077 59.0144 34.3976C58.1174 31.7876 58.1174 29.5441 58.1174 29.5441C58.3043 26.7759 59.0557 26.0816 59.5982 23.3627C59.9653 21.5149 60.1591 20.3639 59.8357 18.5079ZM55.1751 29.6436C55.1064 29.6658 55.0364 29.6869 54.9676 29.7068C54.8471 29.7408 54.7622 29.852 54.7622 29.9796V30.9843C54.7622 31.2524 54.5397 31.4691 54.2725 31.4515C54.0293 31.4351 53.8446 31.2174 53.8446 30.9679V29.9961C53.8446 29.9339 53.7953 29.8836 53.7345 29.8836C53.4787 29.8836 53.2252 29.8602 52.974 29.8145C52.9224 29.8052 52.8719 29.8332 52.8524 29.8836L52.4463 30.9691C52.3764 31.1553 52.202 31.2701 52.0174 31.2701C51.9566 31.2701 51.8946 31.2571 51.835 31.2314C51.6079 31.1307 51.5069 30.8555 51.5964 30.619L51.8935 29.8251C51.9566 29.6565 51.8855 29.4668 51.7272 29.386C51.632 29.338 51.5379 29.2865 51.4438 29.2303C51.2993 29.1448 51.1147 29.1799 51.008 29.311L50.3083 30.174C50.2177 30.2852 50.0869 30.3438 49.955 30.3438C49.8517 30.3438 49.7485 30.3087 49.6625 30.236C49.4675 30.0721 49.44 29.7759 49.6016 29.5768L50.3243 28.6858C50.4046 28.5862 50.3954 28.441 50.3048 28.352C50.1947 28.2455 50.0903 28.1389 49.9928 28.0324C49.9148 27.9469 49.7898 27.9305 49.6923 27.9926L48.8962 28.4984C48.8216 28.5452 48.738 28.5687 48.6553 28.5687C48.4982 28.5687 48.3433 28.4867 48.2585 28.3357C48.1323 28.1144 48.2149 27.8298 48.4271 27.6939L49.0763 27.2818C49.1899 27.2092 49.2243 27.0558 49.1509 26.9399C49.0385 26.7654 48.9777 26.6519 48.9697 26.6389C48.848 26.4118 48.9307 26.1272 49.152 26.0031C49.3734 25.879 49.6521 25.9621 49.7749 26.1882C49.7829 26.2034 50.2945 27.1366 51.1983 27.9118C51.6893 28.3321 52.1952 28.6237 52.7148 28.7888C52.7319 28.7935 52.7503 28.7982 52.7675 28.8052L52.7687 28.8063C53.4626 29.0136 54.1784 28.9949 54.9114 28.7478C55.1603 28.6646 55.4298 28.8087 55.4986 29.071C55.5595 29.3157 55.4103 29.5651 55.1751 29.6436ZM56.0286 26.8825C56.0217 26.8825 56.0148 26.8825 56.0079 26.8825C55.7648 26.8825 55.5617 26.6858 55.5502 26.4352C55.5182 25.6847 55.2509 25.125 54.7358 24.721C53.075 23.42 49.5042 24.207 49.4686 24.2151C49.222 24.2702 48.9765 24.1121 48.9215 23.8592C48.8676 23.6062 49.0224 23.3568 49.2702 23.3006C49.433 23.2643 53.2928 22.4118 55.2933 23.9774C56.0263 24.5511 56.4209 25.3638 56.4656 26.3931C56.4782 26.6519 56.2821 26.8708 56.0286 26.8825Z" fill="#C28565"/>
<path d="M48.7724 59.444C46.1606 59.5576 42.404 59.1419 39.3679 56.4897C34.6615 52.3774 33.41 44.3974 37.0164 37.4338C37.1873 37.1037 37.6633 37.1422 37.7826 37.4958C38.4525 39.4794 40.2579 43.1012 44.8622 45.2697C43.55 44.8423 42.3215 44.751 41.4164 45.6152C38.8735 48.0425 35.7064 59.0424 48.6153 59.3268C48.6991 59.328 48.753 59.3807 48.7724 59.444Z" fill="#AB6A49"/>
<path d="M41.3822 60.852C38.9998 60.4257 36.6082 59.5324 35.0127 58.5475C34.087 57.9761 33.2508 57.2806 32.4455 56.5418C30.803 54.6519 29.3382 52.598 27.753 50.6554C25.756 48.2082 23.4986 45.8862 20.6906 44.4951C17.7335 43.0303 14.2981 42.6649 11.356 41.2493C12.3723 42.1087 13.6168 42.7223 14.8659 43.193C16.7482 43.9026 18.7269 44.3663 20.5128 45.3007C23.1063 46.659 25.1297 48.9248 26.8938 51.2959C27.1049 51.5793 27.3125 51.865 27.519 52.1519C27.5523 52.1987 27.4984 52.2584 27.4502 52.2269C24.3509 50.1824 20.7274 49.0232 17.176 47.9178C13.8565 46.885 10.4716 45.8335 7.48693 44.0736C6.78035 43.6579 6.09673 43.2024 5.44062 42.6965C2.38029 40.3407 0.0288235 36.6615 0.00244141 32.8149C2.04992 34.2026 4.59178 35.1101 6.82852 35.6451C10.7904 36.5936 14.9806 36.7704 18.6764 38.5093C22.4261 40.2727 25.4062 43.405 27.8069 46.8592C28.0352 47.1883 28.2588 47.5197 28.4768 47.8534C29.4334 49.317 30.3258 50.8053 31.255 52.2257C31.2561 52.228 31.2572 52.2304 31.2595 52.2315V52.2327C32.9101 54.7584 34.6766 57.071 37.1278 58.6623C38.019 59.2408 39.0812 59.8157 40.257 60.3098C40.6297 60.4667 41.0152 60.6154 41.4086 60.7525C41.4636 60.7759 41.4419 60.8637 41.3822 60.852Z" fill="#C28565"/>
<path d="M31.9498 58.0625C29.1361 56.374 26.1951 54.8354 23.0854 54.4736C20.3244 54.1528 17.4982 53.8448 15.001 52.6527C16.3167 53.6258 18.0969 54.2031 19.6282 54.5227C21.4773 54.9092 23.3962 55.1351 25.2086 55.6738C26.4784 56.052 28.2677 56.9478 30.0274 57.9255C30.079 57.9548 30.0572 58.0367 29.9987 58.0332C29.2921 57.9992 28.5809 58.018 27.8824 58.0695C25.664 58.2346 23.4548 58.6866 21.2329 58.5742C18.2919 58.4255 15.4117 57.2499 13.1738 55.2967C13.051 55.1902 12.9306 55.0801 12.8113 54.9689C10.9187 53.1879 9.55372 50.8343 8.91138 48.291C9.16483 48.4268 9.42412 48.5533 9.69018 48.6704C11.3316 49.3952 13.1727 49.7675 14.9563 49.9877C18.1049 50.3776 21.3763 50.4479 24.2577 51.7991C24.9471 52.1223 25.5963 52.511 26.2192 52.9432C27.8273 54.0626 29.2542 55.4806 30.6938 56.8342C31.1159 57.2311 31.5461 57.6269 31.9853 58.0087C32.0141 58.0367 31.983 58.0824 31.9498 58.0625Z" fill="#C28565"/>
<path d="M33.6198 22.0616C33.528 23.0031 32.8937 23.8415 31.952 24.1365C30.8749 24.4726 29.744 23.9889 29.2037 23.0335C29.1143 22.8778 29.042 22.708 28.9881 22.5277C28.6049 21.2478 29.3104 19.8931 30.5641 19.502C31.8179 19.1108 33.145 19.831 33.528 21.1109C33.6233 21.4282 33.6508 21.7501 33.6198 22.0616Z" fill="#C28565"/>
<path d="M39.9174 11.5732C39.7993 11.9163 39.6593 12.2394 39.4953 12.5322C37.9158 15.3506 35.5609 16.4501 33.7199 17.0907C33.2978 15.5017 32.9342 13.4385 33.6236 11.1188C33.7658 10.6411 33.9527 10.1528 34.1925 9.65402C35.5368 6.86834 40.1284 4.36018 40.4003 4.26416C40.4668 4.51709 40.8958 8.74768 39.9174 11.5732Z" fill="#C28565"/>
<path d="M33.9836 5.53053C33.9641 5.58791 33.9446 5.64647 33.9217 5.70267C33.6384 6.40875 33.0775 6.96026 32.6037 7.55509C32.2504 6.87829 31.8019 6.22842 31.6562 5.48019C31.5541 4.95678 31.6081 4.42752 31.7515 3.91348C31.8914 3.41114 32.1163 2.92404 32.3663 2.46854C32.5773 2.08564 32.8068 1.70858 33.0247 1.32803C33.0935 1.20742 33.1612 1.08565 33.2254 0.963867C33.1921 1.31515 33.1589 1.67697 33.1233 2.04933C33.0591 2.74253 32.9903 3.46851 32.9191 4.21909C32.8974 4.44976 32.8756 4.68277 32.8537 4.91814C32.8767 4.68277 32.8974 4.44976 32.9191 4.21909C32.9903 3.46851 33.0579 2.74136 33.1233 2.04933C33.1589 1.67697 33.1921 1.31515 33.2254 0.963867C33.2656 1.09618 33.3091 1.2285 33.3539 1.36082C33.4961 1.77767 33.6521 2.19101 33.7863 2.60905C34.0915 3.55282 34.2887 4.5973 33.9836 5.53053Z" fill="#C28565"/>
<path d="M49.8828 16.0057C49.7543 16.2329 47.1172 19.5454 44.4641 20.8323C44.1463 20.9868 43.8287 21.111 43.5155 21.1988C40.446 22.0524 38.02 21.1297 36.2742 20.2538C36.8122 19.296 37.5176 18.2047 38.5557 17.2457C39.3839 16.4811 40.4231 15.7996 41.7594 15.3371C44.6396 14.337 49.6236 15.8781 49.8828 16.0057Z" fill="#C28565"/>
<path d="M46.6986 8.60566C46.2811 8.71808 45.8578 8.81762 45.4437 8.93705C44.4493 9.22276 43.4307 9.67704 42.856 10.5542C42.7081 10.7801 42.5956 11.0248 42.5027 11.2813L42.5016 11.2824C42.3341 11.7426 42.2286 12.2344 42.0886 12.7063C42.8354 12.6278 43.6143 12.6431 44.3036 12.348C44.7349 12.163 45.1008 11.8715 45.4128 11.5178C45.7924 11.0916 46.0965 10.5787 46.3511 10.0635C46.5449 9.67122 46.7216 9.26608 46.9097 8.86913C46.9694 8.74384 47.0301 8.61856 47.092 8.49561C46.9624 8.53308 46.8317 8.56937 46.6986 8.60566ZM46.3855 9.08927C46.5059 8.9874 46.6263 8.88552 46.7445 8.78717C46.6263 8.8867 46.5071 8.9874 46.3855 9.08927Z" fill="#C28565"/>
<path d="M28.3229 33.983C26.9785 36.7686 22.3857 39.2769 22.115 39.3729C22.0417 39.0895 21.5106 33.8004 23.0201 31.1049C24.5995 28.2864 26.9533 27.1869 28.7943 26.5475L28.7954 26.5464C29.3048 28.4632 29.728 31.0697 28.3229 33.983Z" fill="#C28565"/>
<path d="M17.2849 20.4447C16.6219 20.8066 15.9853 21.2633 15.2523 21.4119C14.2395 21.6181 13.2048 21.2035 12.3033 20.6871C11.927 20.4729 11.5588 20.2375 11.186 20.015C11.0679 19.9448 10.9486 19.8757 10.8293 19.8101C10.9589 19.768 11.0885 19.7234 11.2181 19.6778C11.6265 19.5326 12.0314 19.3733 12.4397 19.2364C13.4205 18.9061 14.5148 18.7001 15.4703 19.0994C16.1608 19.3886 16.701 19.96 17.2826 20.4435C17.2849 20.4447 17.2849 20.4447 17.2849 20.4447Z" fill="#C28565"/>
<path d="M26.241 23.3847C25.2752 25.1071 23.768 27.2571 20.7558 28.3015C17.8756 29.3003 12.8916 27.7594 12.6335 27.6317C12.7769 27.3776 16.0655 23.2548 19.0008 22.4386C22.0692 21.585 24.4952 22.5065 26.2398 23.3835L26.241 23.3847Z" fill="#C28565"/>
<path d="M18.2117 31.2911C17.2584 31.6986 16.6276 32.633 16.163 33.5756C15.9692 33.9678 15.7926 34.373 15.6044 34.7699C15.5448 34.8953 15.484 35.0205 15.4209 35.1434C15.5516 35.1049 15.6835 35.0674 15.8154 35.0322C16.233 34.9198 16.6562 34.8191 17.0703 34.7009C18.0648 34.414 19.0834 33.9608 19.6569 33.0838C20.0722 32.4491 20.2063 31.667 20.4243 30.9328V30.9316C19.6787 31.0124 18.8999 30.9972 18.2117 31.2911ZM15.8866 34.7536C16.0438 34.6212 16.2032 34.4866 16.3661 34.3496C16.2032 34.4878 16.0426 34.6224 15.8866 34.7536Z" fill="#C28565"/>
<path d="M26.6264 19.3042C24.7498 19.8241 22.1953 20.2573 19.3415 18.8218C18.2759 18.2866 17.2527 17.2445 16.3936 16.1579V16.1567C15.055 14.46 14.1201 12.6544 14.0627 12.4846C14.3404 12.4097 19.5215 11.8676 22.1621 13.4085C22.8882 13.8324 23.4972 14.3101 24.0122 14.8195C25.4564 16.2492 26.1642 17.919 26.6264 19.3042Z" fill="#C28565"/>
<path d="M22.0532 8.70576C22.0302 8.63667 22.0061 8.56876 21.9786 8.50085C21.5794 7.52896 20.6641 6.88495 19.7408 6.41072C19.3565 6.21283 18.9595 6.0325 18.5707 5.84047C18.448 5.77958 18.3253 5.71752 18.2048 5.6543C18.2427 5.78778 18.2794 5.92244 18.315 6.05709C18.425 6.48331 18.5226 6.9154 18.6396 7.33928C18.7543 7.75731 18.8988 8.18118 19.088 8.57461C19.3565 9.1355 19.7178 9.63665 20.2225 9.98093C20.8442 10.4037 21.6116 10.5406 22.3296 10.7643V10.7631C22.2596 10.0722 22.2642 9.3568 22.0532 8.70576Z" fill="#C28565"/>
<path d="M29.7235 16.6982C28.0362 15.7111 25.9302 14.1736 24.907 11.0988C24.7097 10.5063 24.6133 9.82826 24.5869 9.1187C24.4803 6.30492 25.4633 3.01693 25.563 2.80615C25.8063 2.95018 29.6868 6.17378 30.5964 9.11987C30.6147 9.18193 30.6331 9.24398 30.6491 9.30487C31.4853 12.4395 30.5826 14.916 29.7235 16.6982Z" fill="#C28565"/>
<path d="M27.8045 46.8602C23.4652 41.1823 18.7267 38.7339 13.4422 37.9681C11.5336 37.6917 8.1773 37.0981 6.26631 36.8275C4.82218 36.6238 3.3723 36.289 2.04862 35.6801C3.0821 38.9048 4.99769 41.8217 7.48449 44.0745C6.77791 43.6588 6.09426 43.2033 5.43815 42.6975C2.37782 40.3415 0.0263821 36.6625 0 32.8159C2.04749 34.2035 4.58931 35.1109 6.82606 35.6461C10.7879 36.5946 14.9782 36.7713 18.6739 38.5102C22.4248 40.2736 25.4037 43.4047 27.8045 46.8602Z" fill="#AB6A49"/>
<path d="M31.2572 52.2346C31.256 52.2323 31.2536 52.2299 31.2524 52.2275C31.2536 52.2299 31.2548 52.2323 31.2572 52.2335V52.2346Z" fill="#AB6A49"/>
<path d="M22.8249 51.5906C18.6864 50.518 14.1636 51.2885 10.1787 49.7709C10.6857 51.6433 11.6699 53.3611 12.8491 54.8891C12.9546 55.0261 13.0636 55.1631 13.1726 55.2978C13.0498 55.1912 12.9294 55.0812 12.8101 54.9699C10.9175 53.1889 9.5525 50.8353 8.91016 48.292C9.16361 48.4279 9.4229 48.5543 9.68896 48.6714C11.3304 49.3963 13.1714 49.7686 14.9551 49.9887C18.1037 50.3787 21.3751 50.4489 24.2565 51.8002C24.9459 52.1233 25.5951 52.5121 26.2179 52.9442C25.1477 52.354 24.0053 51.8962 22.8249 51.5906Z" fill="#AB6A49"/>
<path d="M58.8644 16.0702C58.744 16.0034 58.6201 15.9437 58.4927 15.8887C56.95 15.2283 55.0528 15.5386 53.7875 16.658C52.6141 17.6967 51.9362 19.1872 51.0725 20.5057C49.415 23.0373 46.6804 24.7351 43.674 24.96C40.8855 25.1684 38.1257 25.2621 35.7639 26.7902C33.1992 28.4505 31.5359 31.2865 30.6596 34.2549C30.101 36.1436 29.6766 38.1775 29.3967 40.2044C29.4586 36.4774 30.1423 32.5805 31.9672 29.2222C33.0524 27.2257 34.7454 25.2188 36.8112 24.3453C38.8771 23.4728 41.4166 23.9846 43.6064 23.5208C45.796 23.0572 47.66 22.0643 49.2509 20.46C50.1181 19.5865 50.741 18.5046 51.4189 17.4659C51.6459 17.1182 51.8788 16.7751 52.1301 16.4461C53.128 15.1346 54.5974 13.9824 56.2181 14.1276C57.2734 14.2248 58.2025 15.0409 58.8644 16.0702Z" fill="#AB6A49"/>
<path d="M28.7931 26.5483C28.6968 26.6105 22.4855 30.6056 22.1138 39.3737C22.0404 39.0903 21.5094 33.8011 23.0189 31.1056C24.5995 28.2872 26.9532 27.1877 28.7931 26.5483Z" fill="#AB6A49"/>
<path d="M20.4267 30.9326C20.4267 30.9326 17.566 32.1832 15.4221 35.1445C15.4852 35.0216 15.546 34.8963 15.6056 34.771C15.7938 34.374 15.9704 33.9689 16.1643 33.5766C16.6288 32.6352 17.2597 31.7007 18.2129 31.2921C18.9 30.997 19.6789 31.0123 20.4267 30.9326Z" fill="#AB6A49"/>
<path d="M26.2399 23.3843C26.1137 23.3644 19.2979 22.2906 12.6348 27.6324C12.7782 27.3784 16.0667 23.2555 19.002 22.4394C22.0693 21.5869 24.4952 22.5084 26.2399 23.3843Z" fill="#AB6A49"/>
<path d="M17.2837 20.4446C15.4072 19.4247 10.8293 19.8111 10.8293 19.8111C10.9589 19.769 11.0885 19.7245 11.2181 19.6788C11.6265 19.5336 12.0314 19.3744 12.4397 19.2373C13.4205 18.9072 14.5148 18.7011 15.4703 19.1003C16.1608 19.3884 16.7022 19.9609 17.2837 20.4446Z" fill="#AB6A49"/>
<path d="M30.5963 9.12104C29.4905 7.06955 27.8112 5.33774 25.8016 4.20544C25.2178 5.78972 24.8106 7.44191 24.5857 9.1187C24.479 6.30492 25.4621 3.01693 25.5618 2.80615C25.8073 2.95135 29.6867 6.17379 30.5963 9.12104Z" fill="#AB6A49"/>
<path d="M39.9172 11.5739C40.1249 9.64296 40.0687 7.68282 39.7486 5.76715C37.1953 6.77534 35.0056 8.7074 33.6245 11.1184C33.7668 10.6406 33.9537 10.1524 34.1935 9.65348C35.5378 6.86785 40.1295 4.35969 40.4013 4.26367C40.4667 4.51776 40.8957 8.74837 39.9172 11.5739Z" fill="#AB6A49"/>
<path d="M49.8827 16.0057C49.7542 16.2329 47.1172 19.5455 44.464 20.8323C45.0961 20.4236 45.6811 19.9319 46.2076 19.3897C47.069 18.5068 47.7928 17.4964 48.4558 16.446C46.3143 15.6474 43.9456 15.4893 41.7215 16.0034C40.6157 16.2586 39.5467 16.6802 38.5557 17.2446C39.3838 16.48 40.423 15.7984 41.7593 15.3359C44.6396 14.3371 49.6235 15.8781 49.8827 16.0057Z" fill="#AB6A49"/>
<path d="M24.011 14.8207C23.3939 14.4729 22.7963 14.1157 22.1276 13.8488C20.5401 13.2153 18.8287 12.905 17.1253 12.9413C16.3832 12.9565 15.6433 13.0397 14.9161 13.1896C15.1581 14.0514 15.6743 14.9085 16.101 15.6603C16.195 15.8277 16.2926 15.9928 16.3924 16.1567C15.0538 14.46 14.1189 12.6544 14.0615 12.4846C14.3392 12.4097 19.5203 11.8676 22.1608 13.4085C22.8858 13.8336 23.496 14.3113 24.011 14.8207Z" fill="#AB6A49"/>
<path d="M18.8035 6.39589C18.7577 6.38184 18.7106 6.36778 18.6636 6.35374C18.7978 7.06099 18.9331 7.76706 19.0674 8.4743C19.0731 8.5071 19.08 8.53987 19.0868 8.57266C18.8976 8.17922 18.7542 7.75536 18.6384 7.33733C18.5214 6.91345 18.4238 6.48136 18.3138 6.05514C18.2793 5.92048 18.2426 5.78583 18.2036 5.65234C18.324 5.71558 18.4468 5.77763 18.5695 5.83852C18.9584 6.03055 19.3553 6.21088 19.7395 6.40877C20.6617 6.883 21.5782 7.52703 21.9774 8.49891C22.005 8.56682 22.0302 8.63474 22.0519 8.70382C21.2376 7.6207 20.0859 6.79869 18.8035 6.39589Z" fill="#AB6A49"/>
<path d="M33.7875 2.61002C33.6533 2.192 33.4973 1.77865 33.3551 1.36179C33.3104 1.23065 33.2667 1.09833 33.2266 0.964844L33.2255 0.967188V0.964844C33.1612 1.08662 33.0936 1.2084 33.0248 1.329C32.808 1.70956 32.5774 2.0866 32.3663 2.4695C32.1174 2.92382 31.8914 3.41211 31.7515 3.91445C32.0532 3.19315 32.5257 2.54444 33.1222 2.05031C33.1314 2.04211 33.1406 2.03509 33.1498 2.02689C33.7313 3.08893 34.0215 4.3149 33.9825 5.53034C34.2888 4.5971 34.0915 3.55263 33.7875 2.61002Z" fill="#AB6A49"/>
<path d="M47.0932 8.49316C47.0313 8.61612 46.9706 8.7414 46.9109 8.86669C46.7228 9.26364 46.5461 9.66879 46.3522 10.0611C46.0977 10.5763 45.7936 11.0891 45.414 11.5153C45.8464 10.7577 46.1745 9.93812 46.3856 9.08917V9.088C46.3913 9.06458 46.397 9.04116 46.4039 9.01775C46.3982 9.03999 45.7719 9.24257 45.7088 9.25779C45.4909 9.30931 45.1101 9.45451 44.9001 9.53182C44.1408 9.81278 43.6418 10.054 43.0614 10.6255C42.9146 10.7695 42.7758 10.9229 42.645 11.0833C42.6037 11.1337 42.5567 11.2203 42.5039 11.2777C42.5968 11.0224 42.7093 10.7765 42.8572 10.5505C43.4319 9.6735 44.4505 9.22033 45.4449 8.93344C45.859 8.81401 46.2823 8.71447 46.6998 8.60206C46.8317 8.56927 46.9625 8.53298 47.0932 8.49316Z" fill="#AB6A49"/>
<path d="M33.6201 22.0615C33.5926 21.9467 33.5834 21.8039 33.5593 21.7137C33.5135 21.5415 33.4595 21.3717 33.3918 21.2066C33.2404 20.8355 33.0156 20.4865 32.699 20.2476C32.395 20.0169 32.0188 19.8975 31.6414 19.873C30.7089 19.812 29.7637 20.3647 29.3439 21.2183C29.0698 21.7757 29.0308 22.4384 29.204 23.0345C29.1145 22.8788 29.0422 22.709 28.9883 22.5286C28.6052 21.2488 29.3106 19.894 30.5644 19.5029C31.8181 19.1119 33.1452 19.832 33.5284 21.1118C33.6235 21.4279 33.6511 21.75 33.6201 22.0615Z" fill="#AB6A49"/>
<path d="M31.257 23.4835C32.363 23.4835 33.2597 22.5681 33.2597 21.439C33.2597 20.3099 32.363 19.3945 31.257 19.3945C30.1509 19.3945 29.2542 20.3099 29.2542 21.439C29.2542 22.5681 30.1509 23.4835 31.257 23.4835Z" fill="#AB6A49"/>
</svg>
