<svg width="185" height="66" viewBox="0 0 185 66" fill="none" xmlns="http://www.w3.org/2000/svg">
<path d="M56.4096 57.0061C57.0373 57.0811 57.5343 57.291 57.9005 57.6359C58.2742 57.9808 58.4611 58.4082 58.4611 58.9181C58.4611 59.308 58.349 59.6604 58.1248 59.9753C57.9005 60.2902 57.5904 60.5414 57.1943 60.7288C56.7982 60.9088 56.3572 60.9987 55.8715 60.9987C55.6622 60.9987 55.423 60.9875 55.154 60.965C55.0494 60.9575 54.9186 60.95 54.7616 60.9425C54.6122 60.935 54.444 60.9312 54.2572 60.9312L53.4388 60.9425C53.2893 60.95 53.0875 60.9537 52.8334 60.9537C52.811 60.9537 52.7998 60.9312 52.7998 60.8863C52.7998 60.8413 52.811 60.8188 52.8334 60.8188C53.0502 60.8188 53.2146 60.8 53.3267 60.7625C53.4388 60.7176 53.5173 60.6426 53.5621 60.5376C53.6144 60.4251 53.6406 60.2602 53.6406 60.0427V54.8355C53.6406 54.5206 53.5883 54.3144 53.4836 54.2169C53.379 54.1119 53.166 54.0594 52.8446 54.0594C52.8297 54.0594 52.8222 54.037 52.8222 53.992C52.8222 53.947 52.8297 53.9245 52.8446 53.9245L53.4388 53.9357C53.7826 53.9507 54.0554 53.9582 54.2572 53.9582C54.4664 53.9582 54.6832 53.947 54.9074 53.9245C54.9821 53.917 55.0942 53.9095 55.2437 53.902C55.3931 53.8945 55.5239 53.8907 55.636 53.8907C56.3161 53.8907 56.843 54.0145 57.2167 54.2619C57.5904 54.5093 57.7772 54.8692 57.7772 55.3416C57.7772 55.7015 57.6577 56.0276 57.4185 56.3201C57.1868 56.6125 56.8505 56.8412 56.4096 57.0061ZM55.4679 54.1382C55.2512 54.1382 55.1017 54.1907 55.0195 54.2956C54.9373 54.3931 54.8962 54.5805 54.8962 54.858V56.9949L55.3446 57.0061C55.7332 57.0061 56.0321 56.8599 56.2414 56.5675C56.4507 56.2751 56.5553 55.9002 56.5553 55.4428C56.5553 55.0154 56.4619 54.693 56.275 54.4756C56.0882 54.2506 55.8191 54.1382 55.4679 54.1382ZM55.6809 60.7176C56.6599 60.7176 57.1494 60.2077 57.1494 59.188C57.1494 58.6107 57.0112 58.1533 56.7347 57.8159C56.4581 57.4785 56.0396 57.3098 55.4791 57.3098C55.2624 57.3098 55.068 57.3173 54.8962 57.3323V60.0427C54.8962 60.2902 54.9447 60.4664 55.0419 60.5713C55.139 60.6688 55.352 60.7176 55.6809 60.7176ZM63.3906 60.2114C63.4055 60.2114 63.4205 60.2264 63.4354 60.2564C63.4578 60.2864 63.4616 60.3089 63.4466 60.3239C63.1701 60.5938 62.8898 60.7888 62.6058 60.9088C62.3218 61.0287 62.0117 61.0887 61.6754 61.0887C61.2045 61.0887 60.7972 60.9912 60.4534 60.7963C60.1097 60.5938 59.8481 60.3277 59.6687 59.9978C59.4893 59.6604 59.3997 59.2967 59.3997 58.9068C59.3997 58.4719 59.508 58.0708 59.7248 57.7034C59.9415 57.336 60.2404 57.0473 60.6216 56.8374C61.0102 56.62 61.4474 56.5112 61.9332 56.5112C62.3966 56.5112 62.7553 56.6162 63.0094 56.8262C63.2635 57.0361 63.3906 57.3623 63.3906 57.8046C63.3906 58.0371 63.3495 58.1533 63.2673 58.1533L60.5431 58.1645C60.5357 58.217 60.5319 58.3032 60.5319 58.4232C60.5319 59.083 60.6814 59.6004 60.9803 59.9753C61.2868 60.3502 61.724 60.5376 62.292 60.5376C62.4937 60.5376 62.6656 60.5151 62.8076 60.4701C62.9496 60.4251 63.1365 60.3427 63.3682 60.2227L63.3906 60.2114ZM61.5072 56.7362C61.2606 56.7362 61.0551 56.8449 60.8906 57.0623C60.7262 57.2723 60.6179 57.5647 60.5655 57.9396L62.1911 57.9171C62.1836 57.5347 62.1275 57.2423 62.0229 57.0399C61.9183 56.8374 61.7464 56.7362 61.5072 56.7362ZM68.4018 60.3464C68.4317 60.3464 68.4504 60.3652 68.4579 60.4026C68.4728 60.4326 68.4654 60.4551 68.4355 60.4701L67.2808 61.0212C67.2509 61.0362 67.2135 61.0437 67.1687 61.0437C67.0491 61.0437 66.9333 60.98 66.8212 60.8525C66.7165 60.7251 66.6418 60.5526 66.5969 60.3352L66.1149 60.6726C65.943 60.8 65.7823 60.8938 65.6329 60.9537C65.4834 61.0062 65.3152 61.0325 65.1284 61.0325C64.807 61.0325 64.5641 60.9612 64.3997 60.8188C64.2353 60.6763 64.1531 60.4776 64.1531 60.2227C64.1531 60.0203 64.2017 59.8591 64.2988 59.7391C64.396 59.6116 64.5155 59.5141 64.6575 59.4467C64.807 59.3717 65.0125 59.2892 65.2741 59.1992L65.5544 59.098L66.5633 58.7269V58.0858C66.5633 57.6059 66.5222 57.2573 66.44 57.0399C66.3653 56.8224 66.2345 56.7137 66.0476 56.7137C65.6515 56.7137 65.4273 57.0211 65.375 57.6359C65.3526 57.8609 65.2853 58.0221 65.1732 58.1195C65.0686 58.217 64.9191 58.2658 64.7248 58.2658C64.538 58.2658 64.3997 58.2283 64.31 58.1533C64.2278 58.0708 64.1867 57.9658 64.1867 57.8384C64.1867 57.6134 64.3175 57.3997 64.5791 57.1973C64.8406 56.9874 65.1545 56.8187 65.5207 56.6912C65.8944 56.5637 66.2233 56.5 66.5073 56.5C66.8361 56.5 67.1014 56.605 67.3032 56.8149C67.5125 57.0174 67.6171 57.3285 67.6171 57.7484V59.7391C67.6171 59.9565 67.6545 60.1252 67.7292 60.2452C67.8114 60.3652 67.9235 60.4251 68.0655 60.4251C68.1701 60.4251 68.2785 60.3989 68.3906 60.3464H68.4018ZM66.5745 60.144C66.567 60.114 66.5633 60.0652 66.5633 59.9978V58.9181L66.0813 59.143C66.0588 59.1505 65.9841 59.1805 65.8571 59.233C65.73 59.278 65.6179 59.3567 65.5207 59.4692C65.4311 59.5816 65.3862 59.7128 65.3862 59.8628C65.3862 60.0427 65.4423 60.1852 65.5544 60.2902C65.674 60.3876 65.8085 60.4364 65.958 60.4364C66.0775 60.4364 66.2008 60.3951 66.3279 60.3127L66.5745 60.144ZM74.0171 60.2227C74.0396 60.2227 74.0582 60.2414 74.0732 60.2789C74.0956 60.3164 74.0956 60.3389 74.0732 60.3464L72.5261 61.0999C72.5112 61.1074 72.4925 61.1112 72.4701 61.1112C72.3954 61.1112 72.3281 61.0325 72.2683 60.875C72.216 60.7101 72.1861 60.4889 72.1786 60.2114C71.6854 60.7963 71.151 61.0887 70.5755 61.0887C70.1645 61.0887 69.8394 60.9612 69.6002 60.7063C69.3685 60.4439 69.2527 60.1027 69.2527 59.6828V58.0296C69.2527 57.5422 69.1369 57.2985 68.9052 57.2985C68.823 57.2985 68.7295 57.3248 68.6249 57.3773H68.6137C68.5838 57.3773 68.5614 57.3585 68.5464 57.321C68.5315 57.276 68.5352 57.2498 68.5576 57.2423L70.0598 56.5225L70.1159 56.5112C70.1533 56.5112 70.1906 56.53 70.228 56.5675C70.2728 56.5975 70.2953 56.6275 70.2953 56.6575V59.143C70.2953 59.9528 70.6054 60.3577 71.2257 60.3577C71.3902 60.3577 71.5546 60.3239 71.719 60.2564C71.8909 60.1815 72.0441 60.0802 72.1786 59.9528V58.0296C72.1786 57.5422 72.0628 57.2985 71.8311 57.2985C71.7489 57.2985 71.6517 57.3248 71.5396 57.3773H71.5284C71.506 57.3773 71.4873 57.3585 71.4724 57.321C71.4574 57.276 71.4612 57.2498 71.4836 57.2423L72.9858 56.5225C73.0007 56.515 73.0194 56.5112 73.0418 56.5112C73.0792 56.5112 73.1166 56.53 73.1539 56.5675C73.1988 56.5975 73.2212 56.6275 73.2212 56.6575V59.6491C73.2212 59.904 73.2436 60.084 73.2885 60.189C73.3408 60.2939 73.423 60.3464 73.5351 60.3464C73.6397 60.3464 73.7929 60.3052 73.9947 60.2227H74.0171ZM77.7153 60.1665C77.7452 60.1665 77.7676 60.1815 77.7825 60.2114C77.8049 60.2414 77.8049 60.2639 77.7825 60.2789C77.506 60.5563 77.2369 60.7625 76.9754 60.8975C76.7138 61.025 76.4373 61.0887 76.1458 61.0887C75.817 61.0887 75.5367 61.01 75.305 60.8525C75.0733 60.6951 74.9575 60.4289 74.9575 60.054V57.5572C74.9575 57.3248 74.9164 57.1636 74.8342 57.0736C74.752 56.9836 74.6025 56.9386 74.3858 56.9386C74.3783 56.9386 74.3671 56.9274 74.3521 56.9049C74.3447 56.8824 74.3409 56.8599 74.3409 56.8374C74.3409 56.8074 74.3447 56.7849 74.3521 56.7699C74.3596 56.7474 74.3708 56.7362 74.3858 56.7362C74.7669 56.7212 75.0733 56.6387 75.305 56.4888C75.5442 56.3388 75.7273 56.1101 75.8543 55.8027C75.8693 55.7727 75.8992 55.7577 75.944 55.7577C75.9963 55.7577 76.0225 55.7727 76.0225 55.8027V56.7024C76.456 56.6949 76.9417 56.6612 77.4798 56.6012C77.4948 56.6012 77.5097 56.6312 77.5247 56.6912C77.5471 56.7437 77.5583 56.8037 77.5583 56.8711C77.5583 56.9461 77.5434 57.0211 77.5135 57.0961C77.4911 57.1636 77.4649 57.1936 77.435 57.1861C76.9492 57.0811 76.4784 57.0249 76.0225 57.0174V59.6828C76.0225 59.9678 76.0935 60.1777 76.2355 60.3127C76.385 60.4476 76.5793 60.5151 76.8184 60.5151C77.1174 60.5151 77.4088 60.4026 77.6928 60.1777L77.7153 60.1665ZM82.7928 56.6125C82.8078 56.6125 82.8153 56.635 82.8153 56.68C82.8153 56.7249 82.8078 56.7474 82.7928 56.7474C82.5537 56.7474 82.3444 56.8524 82.1651 57.0623C81.9932 57.2648 81.8362 57.561 81.6942 57.9508L80.4499 61.2686C80.0538 62.3183 79.6726 63.0531 79.3064 63.473C78.9477 63.9004 78.5478 64.1141 78.1069 64.1141C77.8827 64.1141 77.7108 64.0654 77.5912 63.9679C77.4716 63.8779 77.4118 63.7429 77.4118 63.563C77.4118 63.3905 77.4641 63.2593 77.5688 63.1694C77.6734 63.0794 77.8005 63.0344 77.9499 63.0344C78.0321 63.0344 78.0994 63.0456 78.1517 63.0681C78.2115 63.0906 78.2825 63.1281 78.3647 63.1806C78.5067 63.2781 78.6412 63.3268 78.7683 63.3268C78.9402 63.3268 79.0934 63.2593 79.2279 63.1244C79.3699 62.9969 79.5157 62.7795 79.6651 62.4721C79.8146 62.1721 79.994 61.741 80.2032 61.1787L78.4096 57.546C78.2451 57.2235 78.1144 57.0099 78.0172 56.9049C77.9275 56.7999 77.8154 56.7474 77.6809 56.7474C77.6585 56.7474 77.6473 56.7249 77.6473 56.68C77.6473 56.635 77.6585 56.6125 77.6809 56.6125C77.8901 56.6125 78.0508 56.6162 78.1629 56.6237L78.6338 56.635L79.4073 56.6237C79.5269 56.6162 79.6875 56.6125 79.8893 56.6125C79.9118 56.6125 79.923 56.635 79.923 56.68C79.923 56.7249 79.9118 56.7474 79.8893 56.7474C79.695 56.7474 79.553 56.7662 79.4633 56.8037C79.3737 56.8337 79.3288 56.8861 79.3288 56.9611C79.3288 57.0211 79.3512 57.0961 79.3961 57.1861L80.7189 59.8965L81.3915 57.9396C81.4588 57.7446 81.4924 57.5685 81.4924 57.411C81.4924 57.2011 81.4326 57.0398 81.3131 56.9274C81.1935 56.8074 81.0216 56.7474 80.7974 56.7474C80.7824 56.7474 80.775 56.7249 80.775 56.68C80.775 56.635 80.7824 56.6125 80.7974 56.6125C80.9992 56.6125 81.1524 56.6162 81.257 56.6237L81.9296 56.635L82.3781 56.6237C82.4677 56.6162 82.606 56.6125 82.7928 56.6125ZM87.2112 55.0604C87.2112 55.3303 87.2785 55.5703 87.413 55.7802C87.555 55.9901 87.7269 56.1738 87.9287 56.3313C88.1305 56.4888 88.4033 56.68 88.7471 56.9049C89.1208 57.1448 89.4197 57.3548 89.6439 57.5347C89.8681 57.7147 90.0587 57.9358 90.2156 58.1983C90.3726 58.4532 90.4511 58.7494 90.4511 59.0868C90.4511 59.4767 90.3464 59.8253 90.1372 60.1327C89.9279 60.4326 89.6364 60.6688 89.2628 60.8413C88.8965 61.0062 88.4855 61.0887 88.0296 61.0887C87.6933 61.0887 87.342 61.0437 86.9758 60.9537C86.6096 60.8563 86.363 60.7513 86.2359 60.6388C86.1986 60.6088 86.1687 60.5826 86.1463 60.5601C86.1313 60.5301 86.1238 60.4851 86.1238 60.4251L86.0902 58.6369V58.6256C86.0902 58.5957 86.1089 58.5807 86.1463 58.5807C86.1836 58.5732 86.206 58.5844 86.2135 58.6144C86.4377 59.0718 86.632 59.4429 86.7965 59.7278C86.9683 60.0128 87.1813 60.2639 87.4355 60.4814C87.697 60.6988 87.9922 60.8075 88.3211 60.8075C88.62 60.8075 88.8667 60.7288 89.061 60.5713C89.2553 60.4064 89.3524 60.129 89.3524 59.7391C89.3524 59.4092 89.2777 59.1205 89.1282 58.8731C88.9862 58.6256 88.8106 58.4157 88.6013 58.2433C88.3921 58.0708 88.1043 57.8646 87.7381 57.6247C87.3794 57.3923 87.0991 57.1936 86.8974 57.0286C86.703 56.8637 86.5349 56.665 86.3929 56.4325C86.2509 56.2001 86.1799 55.9264 86.1799 55.6115C86.1799 55.2141 86.292 54.8805 86.5162 54.6105C86.7479 54.3331 87.0431 54.1307 87.4018 54.0032C87.7606 53.8683 88.138 53.8008 88.5341 53.8008C88.7957 53.8008 89.061 53.827 89.33 53.8795C89.5991 53.9245 89.8158 53.9807 89.9802 54.0482C90.0475 54.0782 90.0923 54.1119 90.1147 54.1494C90.1372 54.1794 90.1484 54.2207 90.1484 54.2731V55.9264C90.1484 55.9489 90.1297 55.9677 90.0923 55.9826C90.055 55.9901 90.0325 55.9827 90.0251 55.9602L89.9354 55.7465C89.7485 55.2741 89.5281 54.873 89.274 54.5431C89.0273 54.2132 88.6798 54.0482 88.2314 54.0482C87.9324 54.0482 87.6858 54.1344 87.4915 54.3069C87.3047 54.4793 87.2112 54.7305 87.2112 55.0604ZM93.956 61.0999C93.5898 61.0999 93.2684 61.0587 92.9919 60.9762V63.1356C92.9919 63.3606 93.0143 63.5255 93.0592 63.6305C93.1115 63.7354 93.2049 63.8067 93.3394 63.8442C93.4814 63.8892 93.6982 63.9116 93.9896 63.9116C94.012 63.9116 94.0233 63.9341 94.0233 63.9791C94.0233 64.0241 94.012 64.0466 93.9896 64.0466C93.7131 64.0466 93.4964 64.0429 93.3394 64.0354L92.4538 64.0241L91.7924 64.0354C91.6803 64.0429 91.5233 64.0466 91.3215 64.0466C91.2991 64.0466 91.2879 64.0241 91.2879 63.9791C91.2879 63.9341 91.2991 63.9116 91.3215 63.9116C91.5009 63.9116 91.6317 63.8892 91.7139 63.8442C91.8036 63.8067 91.8634 63.7354 91.8933 63.6305C91.9306 63.5255 91.9493 63.3606 91.9493 63.1356V57.9283C91.9493 57.6884 91.9232 57.516 91.8709 57.411C91.8185 57.306 91.7251 57.2535 91.5906 57.2535C91.471 57.2535 91.2991 57.306 91.0749 57.411H91.0525C91.0301 57.411 91.0114 57.3922 90.9964 57.3548C90.974 57.3173 90.9703 57.2948 90.9852 57.2873L92.5771 56.5112C92.5921 56.5038 92.6107 56.5 92.6332 56.5C92.7079 56.5 92.7752 56.5637 92.835 56.6912C92.9022 56.8187 92.9471 56.9911 92.9695 57.2086C93.5151 56.7137 94.0756 56.4663 94.6511 56.4663C94.965 56.4663 95.2565 56.5487 95.5256 56.7137C95.8021 56.8786 96.0225 57.1186 96.187 57.4335C96.3514 57.7484 96.4336 58.1158 96.4336 58.5357C96.4336 59.1355 96.3103 59.6304 96.0637 60.0203C95.817 60.4026 95.5031 60.6801 95.122 60.8525C94.7483 61.0175 94.3596 61.0999 93.956 61.0999ZM93.9112 57.0961C93.5748 57.0961 93.2684 57.2161 92.9919 57.456V57.546V60.2564C93.1563 60.4439 93.3282 60.5863 93.5076 60.6838C93.6869 60.7738 93.9074 60.8188 94.169 60.8188C94.9239 60.8188 95.3013 60.174 95.3013 58.8843C95.3013 58.3145 95.1668 57.8759 94.8978 57.5684C94.6362 57.2535 94.3073 57.0961 93.9112 57.0961ZM101.475 60.3464C101.504 60.3464 101.523 60.3652 101.531 60.4026C101.546 60.4326 101.538 60.4551 101.508 60.4701L100.354 61.0212C100.324 61.0362 100.286 61.0437 100.241 61.0437C100.122 61.0437 100.006 60.98 99.8939 60.8525C99.7892 60.7251 99.7145 60.5526 99.6697 60.3352L99.1876 60.6726C99.0157 60.8 98.855 60.8938 98.7056 60.9537C98.5561 61.0062 98.3879 61.0325 98.2011 61.0325C97.8797 61.0325 97.6369 60.9612 97.4724 60.8188C97.308 60.6763 97.2258 60.4776 97.2258 60.2227C97.2258 60.0203 97.2744 59.8591 97.3715 59.7391C97.4687 59.6116 97.5883 59.5141 97.7303 59.4467C97.8797 59.3717 98.0853 59.2892 98.3468 59.1992L98.6271 59.098L99.636 58.7269V58.0858C99.636 57.6059 99.5949 57.2573 99.5127 57.0399C99.438 56.8224 99.3072 56.7137 99.1204 56.7137C98.7243 56.7137 98.5001 57.0211 98.4477 57.6359C98.4253 57.8609 98.3581 58.0221 98.2459 58.1195C98.1413 58.217 97.9918 58.2658 97.7975 58.2658C97.6107 58.2658 97.4724 58.2283 97.3827 58.1533C97.3005 58.0708 97.2594 57.9658 97.2594 57.8384C97.2594 57.6134 97.3902 57.3997 97.6518 57.1973C97.9134 56.9874 98.2273 56.8187 98.5935 56.6912C98.9672 56.5637 99.296 56.5 99.58 56.5C99.9088 56.5 100.174 56.605 100.376 56.8149C100.585 57.0174 100.69 57.3285 100.69 57.7484V59.7391C100.69 59.9565 100.727 60.1252 100.802 60.2452C100.884 60.3652 100.996 60.4251 101.138 60.4251C101.243 60.4251 101.351 60.3989 101.463 60.3464H101.475ZM99.6473 60.144C99.6398 60.114 99.636 60.0652 99.636 59.9978V58.9181L99.154 59.143C99.1316 59.1505 99.0568 59.1805 98.9298 59.233C98.8027 59.278 98.6906 59.3567 98.5935 59.4692C98.5038 59.5816 98.459 59.7128 98.459 59.8628C98.459 60.0427 98.515 60.1852 98.6271 60.2902C98.7467 60.3876 98.8812 60.4364 99.0307 60.4364C99.1503 60.4364 99.2736 60.3951 99.4006 60.3127L99.6473 60.144ZM108.911 53.8008C109.262 53.8008 109.617 53.8308 109.976 53.8907C110.342 53.9432 110.633 54.0145 110.85 54.1044C110.917 54.1269 110.959 54.1569 110.974 54.1944C110.996 54.2244 111.011 54.2806 111.018 54.3631L111.164 55.9264C111.164 55.9489 111.145 55.9639 111.108 55.9714C111.071 55.9789 111.045 55.9677 111.03 55.9377C110.82 55.3228 110.521 54.8542 110.133 54.5318C109.744 54.2019 109.277 54.037 108.731 54.037C108.223 54.037 107.767 54.1757 107.364 54.4531C106.968 54.723 106.654 55.1129 106.422 55.6228C106.198 56.1326 106.086 56.7287 106.086 57.411C106.086 58.1008 106.202 58.7081 106.433 59.233C106.672 59.7503 106.998 60.1515 107.409 60.4364C107.827 60.7138 108.305 60.8525 108.844 60.8525C109.359 60.8525 109.793 60.7138 110.144 60.4364C110.495 60.1515 110.828 59.6866 111.142 59.0418C111.149 59.0193 111.172 59.0118 111.209 59.0193C111.246 59.0268 111.265 59.0418 111.265 59.0643L111.097 60.4589C111.082 60.5489 111.067 60.6088 111.052 60.6388C111.037 60.6613 110.996 60.6876 110.929 60.7176C110.241 60.965 109.546 61.0887 108.844 61.0887C108.044 61.0887 107.326 60.9387 106.691 60.6388C106.063 60.3314 105.57 59.904 105.211 59.3567C104.853 58.8093 104.673 58.187 104.673 57.4897C104.673 56.7774 104.856 56.1439 105.223 55.589C105.596 55.0267 106.104 54.588 106.747 54.2731C107.397 53.9582 108.119 53.8008 108.911 53.8008ZM116.452 60.3464C116.482 60.3464 116.5 60.3652 116.508 60.4026C116.523 60.4326 116.515 60.4551 116.485 60.4701L115.331 61.0212C115.301 61.0362 115.263 61.0437 115.219 61.0437C115.099 61.0437 114.983 60.98 114.871 60.8525C114.766 60.7251 114.692 60.5526 114.647 60.3352L114.165 60.6726C113.993 60.8 113.832 60.8938 113.683 60.9537C113.533 61.0062 113.365 61.0325 113.178 61.0325C112.857 61.0325 112.614 60.9612 112.45 60.8188C112.285 60.6763 112.203 60.4776 112.203 60.2227C112.203 60.0203 112.252 59.8591 112.349 59.7391C112.446 59.6116 112.565 59.5141 112.707 59.4467C112.857 59.3717 113.062 59.2892 113.324 59.1992L113.604 59.098L114.613 58.7269V58.0858C114.613 57.6059 114.572 57.2573 114.49 57.0399C114.415 56.8224 114.284 56.7137 114.097 56.7137C113.701 56.7137 113.477 57.0211 113.425 57.6359C113.402 57.8609 113.335 58.0221 113.223 58.1195C113.118 58.217 112.969 58.2658 112.775 58.2658C112.588 58.2658 112.45 58.2283 112.36 58.1533C112.278 58.0708 112.237 57.9658 112.237 57.8384C112.237 57.6134 112.367 57.3997 112.629 57.1973C112.891 56.9874 113.204 56.8187 113.571 56.6912C113.944 56.5637 114.273 56.5 114.556 56.5C114.885 56.5 115.151 56.605 115.353 56.8149C115.562 57.0174 115.667 57.3285 115.667 57.7484V59.7391C115.667 59.9565 115.704 60.1252 115.779 60.2452C115.861 60.3652 115.973 60.4251 116.115 60.4251C116.22 60.4251 116.328 60.3989 116.44 60.3464H116.452ZM114.624 60.144C114.617 60.114 114.613 60.0652 114.613 59.9978V58.9181L114.131 59.143C114.109 59.1505 114.034 59.1805 113.907 59.233C113.78 59.278 113.668 59.3567 113.571 59.4692C113.481 59.5816 113.436 59.7128 113.436 59.8628C113.436 60.0427 113.492 60.1852 113.604 60.2902C113.724 60.3876 113.858 60.4364 114.008 60.4364C114.127 60.4364 114.251 60.3951 114.378 60.3127L114.624 60.144ZM119.824 56.5C119.996 56.5 120.16 56.5637 120.317 56.6912C120.482 56.8112 120.564 56.9574 120.564 57.1298C120.564 57.2873 120.515 57.4185 120.418 57.5235C120.321 57.6209 120.194 57.6697 120.037 57.6697C119.925 57.6697 119.832 57.6472 119.757 57.6022C119.69 57.5572 119.619 57.4897 119.544 57.3997C119.477 57.3248 119.417 57.2723 119.365 57.2423C119.32 57.2048 119.264 57.1861 119.196 57.1861C119.122 57.1861 119.039 57.216 118.95 57.276C118.868 57.3285 118.737 57.4447 118.557 57.6247V60.0427C118.557 60.3427 118.628 60.5489 118.77 60.6613C118.912 60.7663 119.174 60.8188 119.555 60.8188C119.585 60.8188 119.6 60.8413 119.6 60.8863C119.6 60.9312 119.585 60.9537 119.555 60.9537C119.294 60.9537 119.088 60.95 118.939 60.9425L118.03 60.9312L117.369 60.9425C117.257 60.95 117.104 60.9537 116.909 60.9537C116.887 60.9537 116.876 60.9312 116.876 60.8863C116.876 60.8413 116.887 60.8188 116.909 60.8188C117.141 60.8188 117.298 60.7663 117.38 60.6613C117.462 60.5489 117.504 60.3427 117.504 60.0427V57.9283C117.504 57.6959 117.474 57.5272 117.414 57.4222C117.362 57.3098 117.276 57.2535 117.156 57.2535C117.029 57.2535 116.85 57.306 116.618 57.411H116.596C116.573 57.411 116.554 57.3922 116.539 57.3548C116.532 57.3173 116.536 57.2948 116.551 57.2873L118.109 56.5225C118.154 56.5075 118.18 56.5 118.187 56.5C118.27 56.5 118.344 56.5787 118.412 56.7362C118.486 56.8861 118.531 57.0923 118.546 57.3548C118.853 57.0398 119.103 56.8187 119.297 56.6912C119.499 56.5637 119.675 56.5 119.824 56.5ZM124.939 60.2114C124.954 60.2114 124.969 60.2264 124.984 60.2564C125.006 60.2864 125.01 60.3089 124.995 60.3239C124.718 60.5938 124.438 60.7888 124.154 60.9088C123.87 61.0287 123.56 61.0887 123.224 61.0887C122.753 61.0887 122.346 60.9912 122.002 60.7963C121.658 60.5938 121.396 60.3277 121.217 59.9978C121.038 59.6604 120.948 59.2967 120.948 58.9068C120.948 58.4719 121.056 58.0708 121.273 57.7034C121.49 57.336 121.789 57.0473 122.17 56.8374C122.559 56.62 122.996 56.5112 123.482 56.5112C123.945 56.5112 124.304 56.6162 124.558 56.8262C124.812 57.0361 124.939 57.3623 124.939 57.8046C124.939 58.0371 124.898 58.1533 124.816 58.1533L122.091 58.1645C122.084 58.217 122.08 58.3032 122.08 58.4232C122.08 59.083 122.23 59.6004 122.529 59.9753C122.835 60.3502 123.272 60.5376 123.84 60.5376C124.042 60.5376 124.214 60.5151 124.356 60.4701C124.498 60.4251 124.685 60.3427 124.916 60.2227L124.939 60.2114ZM123.056 56.7362C122.809 56.7362 122.603 56.8449 122.439 57.0623C122.275 57.2723 122.166 57.5647 122.114 57.9396L123.739 57.9171C123.732 57.5347 123.676 57.2423 123.571 57.0399C123.467 56.8374 123.295 56.7362 123.056 56.7362ZM136.03 60.8188C136.06 60.8263 136.071 60.8525 136.063 60.8975C136.063 60.935 136.052 60.9537 136.03 60.9537H134.191C133.982 60.9537 133.623 60.77 133.115 60.4026C132.555 60.86 131.841 61.0887 130.974 61.0887C130.458 61.0887 130.025 61.0137 129.673 60.8638C129.322 60.7138 129.061 60.5151 128.889 60.2677C128.717 60.0203 128.631 59.7578 128.631 59.4804C128.631 59.1205 128.754 58.7981 129.001 58.5132C129.247 58.2283 129.621 57.8984 130.122 57.5235C130.002 57.366 129.886 57.1861 129.774 56.9836C129.67 56.7737 129.588 56.575 129.528 56.3875C129.475 56.2001 129.449 55.9939 129.449 55.769C129.449 55.1616 129.64 54.663 130.021 54.2731C130.41 53.8832 130.936 53.6883 131.602 53.6883C132.065 53.6883 132.431 53.7895 132.7 53.992C132.969 54.1869 133.104 54.4606 133.104 54.813C133.104 55.1054 133.018 55.3753 132.846 55.6228C132.682 55.8627 132.491 56.0651 132.274 56.2301C132.058 56.395 131.721 56.6312 131.265 56.9386C131.803 57.7409 132.555 58.5282 133.519 59.3005C133.586 59.038 133.62 58.7419 133.62 58.412C133.62 57.9771 133.549 57.6622 133.407 57.4672C133.265 57.2648 133.033 57.1636 132.711 57.1636C132.697 57.1636 132.685 57.1411 132.678 57.0961C132.678 57.0511 132.689 57.0286 132.711 57.0286L135.38 57.0174C135.402 57.0174 135.413 57.0399 135.413 57.0848C135.413 57.1298 135.402 57.1523 135.38 57.1523C135.155 57.1523 134.987 57.1786 134.875 57.231C134.77 57.276 134.688 57.3548 134.628 57.4672C134.576 57.5797 134.516 57.7596 134.449 58.0071C134.367 58.307 134.281 58.5807 134.191 58.8281C134.102 59.0755 133.986 59.3155 133.844 59.5479C134.33 59.9153 134.759 60.204 135.133 60.4139C135.514 60.6238 135.813 60.7588 136.03 60.8188ZM130.503 54.8017C130.503 55.3866 130.709 56.0201 131.12 56.7024C131.65 56.1851 131.916 55.634 131.916 55.0492C131.916 54.7193 131.837 54.4606 131.68 54.2731C131.531 54.0857 131.333 53.992 131.086 53.992C130.877 53.992 130.727 54.0594 130.638 54.1944C130.548 54.3294 130.503 54.5318 130.503 54.8017ZM131.837 60.5376C132.271 60.5376 132.629 60.4401 132.913 60.2452C132.794 60.1627 132.633 60.039 132.431 59.874C132.05 59.5666 131.665 59.2255 131.277 58.8506C130.895 58.4682 130.559 58.0933 130.268 57.7259C129.931 58.0783 129.763 58.4494 129.763 58.8393C129.763 59.1318 129.845 59.4092 130.01 59.6716C130.182 59.9265 130.425 60.1365 130.738 60.3014C131.052 60.4589 131.419 60.5376 131.837 60.5376ZM146.659 53.9245C146.674 53.9245 146.682 53.947 146.682 53.992C146.682 54.037 146.674 54.0594 146.659 54.0594C146.36 54.0594 146.125 54.1794 145.953 54.4193C145.781 54.6518 145.695 54.9667 145.695 55.3641V61.1224C145.695 61.1449 145.676 61.1599 145.639 61.1674C145.609 61.1749 145.587 61.1712 145.572 61.1562L140.314 55.1504V59.5254C140.314 59.9228 140.396 60.2377 140.561 60.4701C140.725 60.7026 140.953 60.8188 141.244 60.8188C141.259 60.8188 141.267 60.8413 141.267 60.8863C141.267 60.9312 141.259 60.9537 141.244 60.9537C141.035 60.9537 140.875 60.95 140.762 60.9425L140.157 60.9312L139.462 60.9425C139.335 60.95 139.152 60.9537 138.913 60.9537C138.89 60.9537 138.879 60.9312 138.879 60.8863C138.879 60.8413 138.89 60.8188 138.913 60.8188C139.242 60.8188 139.499 60.7026 139.686 60.4701C139.881 60.2377 139.978 59.9228 139.978 59.5254V54.768C139.731 54.4981 139.518 54.3144 139.339 54.2169C139.167 54.1119 138.987 54.0594 138.801 54.0594C138.786 54.0594 138.778 54.037 138.778 53.992C138.778 53.947 138.786 53.9245 138.801 53.9245L139.271 53.9357C139.369 53.9432 139.511 53.947 139.697 53.947L140.549 53.9357C140.654 53.9282 140.781 53.9245 140.931 53.9245C140.99 53.9245 141.035 53.9395 141.065 53.9695C141.095 53.9995 141.147 54.0632 141.222 54.1607C141.349 54.3331 141.439 54.4493 141.491 54.5093L145.37 58.9968V55.3641C145.37 54.9592 145.288 54.6405 145.123 54.4081C144.959 54.1757 144.731 54.0594 144.439 54.0594C144.425 54.0594 144.417 54.037 144.417 53.992C144.417 53.947 144.425 53.9245 144.439 53.9245L144.922 53.9357C145.161 53.9507 145.362 53.9582 145.527 53.9582C145.676 53.9582 145.886 53.9507 146.155 53.9357L146.659 53.9245ZM151.495 60.3464C151.524 60.3464 151.543 60.3652 151.551 60.4026C151.566 60.4326 151.558 60.4551 151.528 60.4701L150.374 61.0212C150.344 61.0362 150.306 61.0437 150.261 61.0437C150.142 61.0437 150.026 60.98 149.914 60.8525C149.809 60.7251 149.735 60.5526 149.69 60.3352L149.208 60.6726C149.036 60.8 148.875 60.8938 148.726 60.9537C148.576 61.0062 148.408 61.0325 148.221 61.0325C147.9 61.0325 147.657 60.9612 147.492 60.8188C147.328 60.6763 147.246 60.4776 147.246 60.2227C147.246 60.0203 147.294 59.8591 147.392 59.7391C147.489 59.6116 147.608 59.5141 147.75 59.4467C147.9 59.3717 148.105 59.2892 148.367 59.1992L148.647 59.098L149.656 58.7269V58.0858C149.656 57.6059 149.615 57.2573 149.533 57.0399C149.458 56.8224 149.327 56.7137 149.14 56.7137C148.744 56.7137 148.52 57.0211 148.468 57.6359C148.445 57.8609 148.378 58.0221 148.266 58.1195C148.161 58.217 148.012 58.2658 147.818 58.2658C147.631 58.2658 147.492 58.2283 147.403 58.1533C147.321 58.0708 147.279 57.9658 147.279 57.8384C147.279 57.6134 147.41 57.3997 147.672 57.1973C147.933 56.9874 148.247 56.8187 148.613 56.6912C148.987 56.5637 149.316 56.5 149.6 56.5C149.929 56.5 150.194 56.605 150.396 56.8149C150.605 57.0174 150.71 57.3285 150.71 57.7484V59.7391C150.71 59.9565 150.747 60.1252 150.822 60.2452C150.904 60.3652 151.016 60.4251 151.158 60.4251C151.263 60.4251 151.371 60.3989 151.483 60.3464H151.495ZM149.667 60.144C149.66 60.114 149.656 60.0652 149.656 59.9978V58.9181L149.174 59.143C149.152 59.1505 149.077 59.1805 148.95 59.233C148.823 59.278 148.711 59.3567 148.613 59.4692C148.524 59.5816 148.479 59.7128 148.479 59.8628C148.479 60.0427 148.535 60.1852 148.647 60.2902C148.767 60.3876 148.901 60.4364 149.051 60.4364C149.17 60.4364 149.294 60.3951 149.421 60.3127L149.667 60.144ZM153.029 55.3866C152.813 55.3866 152.645 55.3266 152.525 55.2066C152.405 55.0867 152.346 54.918 152.346 54.7005C152.346 54.5056 152.405 54.3519 152.525 54.2394C152.652 54.1194 152.82 54.0594 153.029 54.0594C153.239 54.0594 153.399 54.1157 153.511 54.2282C153.624 54.3406 153.68 54.4981 153.68 54.7005C153.68 54.918 153.624 55.0867 153.511 55.2066C153.399 55.3266 153.239 55.3866 153.029 55.3866ZM151.953 60.9537C151.931 60.9537 151.92 60.9312 151.92 60.8863C151.92 60.8413 151.931 60.8188 151.953 60.8188C152.185 60.8188 152.342 60.7663 152.424 60.6613C152.506 60.5489 152.547 60.3427 152.547 60.0427V58.0296C152.547 57.7746 152.521 57.5909 152.469 57.4785C152.417 57.366 152.331 57.3098 152.211 57.3098C152.114 57.3098 151.976 57.351 151.796 57.4335H151.785C151.755 57.4335 151.733 57.4147 151.718 57.3773C151.703 57.3323 151.707 57.306 151.729 57.2985L153.422 56.5112L153.455 56.5C153.493 56.5 153.53 56.5187 153.568 56.5562C153.605 56.5937 153.624 56.6275 153.624 56.6575V56.9049C153.609 57.2048 153.601 57.5722 153.601 58.0071V60.0427C153.601 60.3427 153.642 60.5489 153.724 60.6613C153.814 60.7663 153.975 60.8188 154.207 60.8188C154.229 60.8188 154.24 60.8413 154.24 60.8863C154.24 60.9312 154.229 60.9537 154.207 60.9537C154.012 60.9537 153.859 60.95 153.747 60.9425L153.074 60.9312L152.413 60.9425C152.301 60.95 152.148 60.9537 151.953 60.9537ZM154.853 60.9537C154.838 60.9537 154.831 60.9312 154.831 60.8863C154.831 60.8413 154.838 60.8188 154.853 60.8188C155.085 60.8188 155.242 60.7663 155.324 60.6613C155.414 60.5489 155.458 60.3427 155.458 60.0427L155.47 54.3294C155.47 54.0669 155.443 53.8795 155.391 53.767C155.346 53.6546 155.264 53.5983 155.144 53.5983C155.047 53.5983 154.905 53.6396 154.718 53.722H154.707C154.685 53.722 154.662 53.7033 154.64 53.6658C154.625 53.6208 154.625 53.5946 154.64 53.5871L156.288 52.8111L156.333 52.7998C156.37 52.7998 156.411 52.8186 156.456 52.856C156.501 52.886 156.523 52.916 156.523 52.946V60.0427C156.523 60.3427 156.564 60.5489 156.647 60.6613C156.729 60.7663 156.886 60.8188 157.118 60.8188C157.147 60.8188 157.162 60.8413 157.162 60.8863C157.162 60.9312 157.147 60.9537 157.118 60.9537C156.931 60.9537 156.781 60.95 156.669 60.9425L155.985 60.9312L155.313 60.9425C155.201 60.95 155.047 60.9537 154.853 60.9537ZM162.039 55.0604C162.039 55.3303 162.106 55.5703 162.241 55.7802C162.383 55.9901 162.555 56.1738 162.756 56.3313C162.958 56.4888 163.231 56.68 163.575 56.9049C163.948 57.1448 164.247 57.3548 164.472 57.5347C164.696 57.7147 164.886 57.9358 165.043 58.1983C165.2 58.4532 165.279 58.7494 165.279 59.0868C165.279 59.4767 165.174 59.8253 164.965 60.1327C164.756 60.4326 164.464 60.6688 164.09 60.8413C163.724 61.0062 163.313 61.0887 162.857 61.0887C162.521 61.0887 162.17 61.0437 161.803 60.9537C161.437 60.8563 161.191 60.7513 161.064 60.6388C161.026 60.6088 160.996 60.5826 160.974 60.5601C160.959 60.5301 160.951 60.4851 160.951 60.4251L160.918 58.6369V58.6256C160.918 58.5957 160.937 58.5807 160.974 58.5807C161.011 58.5732 161.034 58.5844 161.041 58.6144C161.265 59.0718 161.46 59.4429 161.624 59.7278C161.796 60.0128 162.009 60.2639 162.263 60.4814C162.525 60.6988 162.82 60.8075 163.149 60.8075C163.448 60.8075 163.694 60.7288 163.889 60.5713C164.083 60.4064 164.18 60.129 164.18 59.7391C164.18 59.4092 164.105 59.1205 163.956 58.8731C163.814 58.6256 163.638 58.4157 163.429 58.2433C163.22 58.0708 162.932 57.8646 162.566 57.6247C162.207 57.3923 161.927 57.1936 161.725 57.0286C161.531 56.8637 161.363 56.665 161.221 56.4325C161.079 56.2001 161.008 55.9264 161.008 55.6115C161.008 55.2141 161.12 54.8805 161.344 54.6105C161.576 54.3331 161.871 54.1307 162.229 54.0032C162.588 53.8683 162.966 53.8008 163.362 53.8008C163.623 53.8008 163.889 53.827 164.158 53.8795C164.427 53.9245 164.643 53.9807 164.808 54.0482C164.875 54.0782 164.92 54.1119 164.942 54.1494C164.965 54.1794 164.976 54.2207 164.976 54.2731V55.9264C164.976 55.9489 164.957 55.9677 164.92 55.9826C164.883 55.9901 164.86 55.9827 164.853 55.9602L164.763 55.7465C164.576 55.2741 164.356 54.873 164.102 54.5431C163.855 54.2132 163.507 54.0482 163.059 54.0482C162.76 54.0482 162.513 54.1344 162.319 54.3069C162.132 54.4793 162.039 54.7305 162.039 55.0604ZM170.555 60.3464C170.585 60.3464 170.604 60.3652 170.611 60.4026C170.626 60.4326 170.619 60.4551 170.589 60.4701L169.434 61.0212C169.404 61.0362 169.367 61.0437 169.322 61.0437C169.202 61.0437 169.087 60.98 168.974 60.8525C168.87 60.7251 168.795 60.5526 168.75 60.3352L168.268 60.6726C168.096 60.8 167.936 60.8938 167.786 60.9537C167.637 61.0062 167.468 61.0325 167.282 61.0325C166.96 61.0325 166.717 60.9612 166.553 60.8188C166.389 60.6763 166.306 60.4776 166.306 60.2227C166.306 60.0203 166.355 59.8591 166.452 59.7391C166.549 59.6116 166.669 59.5141 166.811 59.4467C166.96 59.3717 167.166 59.2892 167.427 59.1992L167.708 59.098L168.717 58.7269V58.0858C168.717 57.6059 168.675 57.2573 168.593 57.0399C168.519 56.8224 168.388 56.7137 168.201 56.7137C167.805 56.7137 167.581 57.0211 167.528 57.6359C167.506 57.8609 167.439 58.0221 167.326 58.1195C167.222 58.217 167.072 58.2658 166.878 58.2658C166.691 58.2658 166.553 58.2283 166.463 58.1533C166.381 58.0708 166.34 57.9658 166.34 57.8384C166.34 57.6134 166.471 57.3997 166.732 57.1973C166.994 56.9874 167.308 56.8187 167.674 56.6912C168.048 56.5637 168.377 56.5 168.661 56.5C168.989 56.5 169.255 56.605 169.456 56.8149C169.666 57.0174 169.77 57.3285 169.77 57.7484V59.7391C169.77 59.9565 169.808 60.1252 169.882 60.2452C169.965 60.3652 170.077 60.4251 170.219 60.4251C170.323 60.4251 170.432 60.3989 170.544 60.3464H170.555ZM168.728 60.144C168.72 60.114 168.717 60.0652 168.717 59.9978V58.9181L168.235 59.143C168.212 59.1505 168.137 59.1805 168.01 59.233C167.883 59.278 167.771 59.3567 167.674 59.4692C167.584 59.5816 167.539 59.7128 167.539 59.8628C167.539 60.0427 167.596 60.1852 167.708 60.2902C167.827 60.3876 167.962 60.4364 168.111 60.4364C168.231 60.4364 168.354 60.3951 168.481 60.3127L168.728 60.144ZM170.968 60.9537C170.953 60.9537 170.946 60.9312 170.946 60.8863C170.946 60.8413 170.953 60.8188 170.968 60.8188C171.2 60.8188 171.357 60.7663 171.439 60.6613C171.529 60.5489 171.573 60.3427 171.573 60.0427L171.585 54.3294C171.585 54.0669 171.558 53.8795 171.506 53.767C171.461 53.6546 171.379 53.5983 171.259 53.5983C171.162 53.5983 171.02 53.6396 170.833 53.722H170.822C170.8 53.722 170.777 53.7033 170.755 53.6658C170.74 53.6208 170.74 53.5946 170.755 53.5871L172.403 52.8111L172.448 52.7998C172.485 52.7998 172.526 52.8186 172.571 52.856C172.616 52.886 172.638 52.916 172.638 52.946V60.0427C172.638 60.3427 172.679 60.5489 172.762 60.6613C172.844 60.7663 173.001 60.8188 173.233 60.8188C173.262 60.8188 173.277 60.8413 173.277 60.8863C173.277 60.9312 173.262 60.9537 173.233 60.9537C173.046 60.9537 172.896 60.95 172.784 60.9425L172.1 60.9312L171.428 60.9425C171.316 60.95 171.162 60.9537 170.968 60.9537ZM176.232 61.0999C175.769 61.0999 175.362 60.995 175.01 60.785C174.667 60.5676 174.401 60.2789 174.214 59.919C174.028 59.5516 173.934 59.1542 173.934 58.7269C173.934 58.2395 174.057 57.8271 174.304 57.4897C174.551 57.1448 174.865 56.8899 175.246 56.7249C175.627 56.5525 176.019 56.4663 176.423 56.4663C176.886 56.4663 177.29 56.575 177.634 56.7924C177.977 57.0099 178.239 57.2985 178.418 57.6584C178.605 58.0108 178.699 58.3895 178.699 58.7944C178.699 59.2442 178.586 59.6454 178.362 59.9978C178.138 60.3427 177.835 60.6126 177.454 60.8075C177.08 61.0025 176.673 61.0999 176.232 61.0999ZM176.569 60.8638C176.86 60.8638 177.08 60.7213 177.23 60.4364C177.387 60.144 177.465 59.7278 177.465 59.188C177.465 58.6631 177.398 58.2133 177.264 57.8384C177.129 57.4635 176.953 57.1823 176.737 56.9949C176.52 56.7999 176.288 56.7024 176.042 56.7024C175.444 56.7024 175.145 57.2385 175.145 58.3107C175.145 58.8131 175.208 59.2592 175.335 59.6491C175.462 60.0315 175.634 60.3314 175.851 60.5489C176.068 60.7588 176.307 60.8638 176.569 60.8638ZM184.766 60.8188C184.789 60.8188 184.8 60.8413 184.8 60.8863C184.8 60.9312 184.789 60.9537 184.766 60.9537C184.572 60.9537 184.419 60.95 184.307 60.9425L183.634 60.9312L182.984 60.9425C182.864 60.95 182.707 60.9537 182.513 60.9537C182.49 60.9537 182.479 60.9312 182.479 60.8863C182.479 60.8413 182.49 60.8188 182.513 60.8188C182.745 60.8188 182.902 60.7663 182.984 60.6613C183.066 60.5489 183.107 60.3427 183.107 60.0427V58.4232C183.107 58.0183 183.032 57.7184 182.883 57.5235C182.741 57.3285 182.513 57.231 182.199 57.231C182.02 57.231 181.833 57.2685 181.638 57.3435C181.452 57.4185 181.287 57.5197 181.145 57.6472V60.0427C181.145 60.3427 181.186 60.5489 181.269 60.6613C181.358 60.7663 181.519 60.8188 181.751 60.8188C181.773 60.8188 181.784 60.8413 181.784 60.8863C181.784 60.9312 181.773 60.9537 181.751 60.9537C181.556 60.9537 181.403 60.95 181.291 60.9425L180.618 60.9312L179.957 60.9425C179.845 60.95 179.692 60.9537 179.497 60.9537C179.475 60.9537 179.464 60.9312 179.464 60.8863C179.464 60.8413 179.475 60.8188 179.497 60.8188C179.729 60.8188 179.886 60.7663 179.968 60.6613C180.05 60.5489 180.091 60.3427 180.091 60.0427V57.9283C180.091 57.6959 180.062 57.5272 180.002 57.4222C179.949 57.3098 179.863 57.2535 179.744 57.2535C179.617 57.2535 179.437 57.306 179.206 57.411H179.183C179.161 57.411 179.142 57.3922 179.127 57.3548C179.12 57.3173 179.124 57.2948 179.139 57.2873L180.697 56.5225C180.742 56.5075 180.768 56.5 180.775 56.5C180.857 56.5 180.936 56.5825 181.011 56.7474C181.085 56.9049 181.13 57.1223 181.145 57.3997C181.661 56.7849 182.229 56.4775 182.849 56.4775C183.253 56.4775 183.57 56.6087 183.802 56.8711C184.041 57.1261 184.161 57.4635 184.161 57.8834V60.0427C184.161 60.3427 184.202 60.5489 184.284 60.6613C184.374 60.7663 184.534 60.8188 184.766 60.8188Z" fill="#0D0D0D"/>
<path d="M108.373 44.1035C108.441 44.1035 108.475 44.2038 108.475 44.4045C108.475 44.6052 108.441 44.7055 108.373 44.7055H99.3704C98.6286 44.7055 97.2461 43.3844 95.223 40.7422C93.1998 38.0666 90.7552 34.3375 87.8891 29.5549C87.6194 29.5883 87.2316 29.605 86.7258 29.605C85.4108 29.605 84.4835 29.5883 83.944 29.5549V40.6419C83.944 41.6787 84.0283 42.4312 84.1969 42.8995C84.3655 43.3677 84.6858 43.6854 85.1579 43.8526C85.6637 44.0199 86.4561 44.1035 87.5351 44.1035C87.6025 44.1035 87.6362 44.2038 87.6362 44.4045C87.6362 44.6052 87.6025 44.7055 87.5351 44.7055C86.4223 44.7055 85.5456 44.6888 84.905 44.6553L81.061 44.6052L77.3688 44.6553C76.6944 44.6888 75.784 44.7055 74.6376 44.7055C74.5364 44.7055 74.4858 44.6052 74.4858 44.4045C74.4858 44.2038 74.5364 44.1035 74.6376 44.1035C75.7166 44.1035 76.4921 44.0199 76.9642 43.8526C77.47 43.6854 77.8072 43.3677 77.9757 42.8995C78.1781 42.3978 78.2792 41.6453 78.2792 40.6419V17.4143C78.2792 16.4109 78.1949 15.6751 78.0263 15.2069C77.8577 14.7387 77.5205 14.4209 77.0148 14.2537C76.509 14.053 75.7334 13.9527 74.6881 13.9527C74.6207 13.9527 74.587 13.8524 74.587 13.6517C74.587 13.451 74.6207 13.3507 74.6881 13.3507L77.3688 13.4009C78.9199 13.4678 80.1506 13.5012 81.061 13.5012C82.2075 13.5012 83.4045 13.451 84.6521 13.3507C85.0904 13.3173 85.6299 13.2838 86.2706 13.2504C86.945 13.2169 87.6868 13.2002 88.4961 13.2002C91.5645 13.2002 93.9417 13.7688 95.6276 14.9059C97.3136 16.0096 98.1565 17.5648 98.1565 19.5715C98.1565 21.411 97.6507 23.0832 96.6392 24.5883C95.6276 26.0598 94.2789 27.2471 92.5929 28.1502C95.2904 32.1636 97.5496 35.3074 99.3704 37.5817C101.191 39.856 102.81 41.5115 104.226 42.5483C105.642 43.5851 107.025 44.1035 108.373 44.1035ZM83.944 28.1502C84.7533 28.2839 85.7311 28.3508 86.8775 28.3508C88.8332 28.3508 90.2326 27.8157 91.0756 26.7455C91.9522 25.6418 92.3906 23.8859 92.3906 21.4779C92.3906 18.7354 91.986 16.8457 91.1767 15.8089C90.3675 14.7721 89.2042 14.2537 87.6868 14.2537C86.338 14.2537 85.3771 14.5046 84.8038 15.0062C84.2306 15.5079 83.944 16.344 83.944 17.5146V28.1502ZM129.072 41.9964C129.207 41.9964 129.291 42.0801 129.325 42.2473C129.392 42.3811 129.359 42.4814 129.224 42.5483L124.014 45.0065C123.879 45.0734 123.711 45.1068 123.508 45.1068C122.969 45.1068 122.446 44.8226 121.941 44.254C121.468 43.6854 121.131 42.9162 120.929 41.9463L118.754 43.4513C117.979 44.0199 117.254 44.4379 116.579 44.7055C115.905 44.9396 115.146 45.0567 114.303 45.0567C112.853 45.0567 111.757 44.7389 111.016 44.1035C110.274 43.468 109.903 42.5817 109.903 41.4446C109.903 40.5416 110.122 39.8225 110.56 39.2874C110.999 38.7188 111.538 38.284 112.179 37.983C112.853 37.6486 113.781 37.2807 114.961 36.8793L116.225 36.4278L120.777 34.7723V31.9127C120.777 29.7722 120.592 28.2171 120.221 27.2471C119.884 26.2772 119.294 25.7923 118.451 25.7923C116.664 25.7923 115.652 27.1635 115.416 29.906C115.315 30.9094 115.011 31.6285 114.506 32.0632C114.033 32.498 113.359 32.7154 112.482 32.7154C111.639 32.7154 111.016 32.5482 110.611 32.2137C110.24 31.8458 110.055 31.3776 110.055 30.809C110.055 29.8057 110.645 28.8525 111.825 27.9495C113.005 27.013 114.421 26.2605 116.073 25.6919C117.759 25.1234 119.243 24.8391 120.524 24.8391C122.008 24.8391 123.205 25.3073 124.115 26.2438C125.06 27.1468 125.532 28.5348 125.532 30.4077V39.2874C125.532 40.2573 125.7 41.0098 126.037 41.5449C126.408 42.0801 126.914 42.3476 127.555 42.3476C128.027 42.3476 128.516 42.2306 129.022 41.9964H129.072ZM120.828 41.0934C120.794 40.9596 120.777 40.7422 120.777 40.4412V35.6251L118.602 36.6285C118.501 36.6619 118.164 36.7957 117.591 37.0298C117.018 37.2305 116.512 37.5817 116.073 38.0834C115.669 38.585 115.467 39.1703 115.467 39.8392C115.467 40.6419 115.719 41.2774 116.225 41.7456C116.765 42.1804 117.372 42.3978 118.046 42.3978C118.586 42.3978 119.142 42.2138 119.715 41.8459L120.828 41.0934ZM135.137 27.7488C135.137 28.7187 135.474 29.5549 136.148 30.2572C136.856 30.9596 137.868 31.6953 139.183 32.4646C140.464 33.2004 141.409 33.7857 142.015 34.2205C142.656 34.6218 143.229 35.2071 143.735 35.9763C144.241 36.7121 144.494 37.6151 144.494 38.6854C144.494 39.8225 144.207 40.8928 143.634 41.8961C143.061 42.8995 142.201 43.7189 141.054 44.3543C139.908 44.9563 138.542 45.2573 136.958 45.2573C135.103 45.2573 133.35 44.8058 131.698 43.9028C131.495 43.7021 131.394 43.5015 131.394 43.3008L131.293 38.3342C131.293 38.2339 131.377 38.1837 131.546 38.1837C131.748 38.1503 131.866 38.167 131.9 38.2339C132.439 39.9061 133.333 41.3275 134.58 42.4981C135.828 43.6687 137.093 44.254 138.374 44.254C139.082 44.254 139.638 44.0366 140.043 43.6018C140.481 43.167 140.7 42.5316 140.7 41.6954C140.7 40.458 140.346 39.4881 139.638 38.7857C138.93 38.0499 137.885 37.2974 136.502 36.5282C135.322 35.8927 134.429 35.3743 133.822 34.973C133.215 34.5716 132.675 34.0031 132.203 33.2673C131.731 32.5315 131.495 31.6285 131.495 30.5582C131.495 28.5849 132.203 27.1468 133.619 26.2438C135.036 25.3073 136.772 24.8391 138.829 24.8391C139.605 24.8391 140.296 24.8893 140.903 24.9896C141.543 25.0899 142.252 25.2906 143.027 25.5916C143.331 25.6919 143.482 25.8759 143.482 26.1435C143.482 26.9796 143.465 27.6318 143.432 28.1L143.381 30.6084C143.381 30.7087 143.28 30.7589 143.078 30.7589C142.875 30.7589 142.774 30.7087 142.774 30.6084C142.774 29.9729 142.504 29.2873 141.965 28.5515C141.425 27.7823 140.717 27.1301 139.841 26.595C138.998 26.0598 138.121 25.7923 137.211 25.7923C135.828 25.7923 135.137 26.4445 135.137 27.7488ZM184.598 44.1035C184.733 44.1035 184.8 44.2038 184.8 44.4045C184.8 44.6052 184.733 44.7055 184.598 44.7055C183.721 44.7055 183.03 44.6888 182.524 44.6553L179.489 44.6052L176.556 44.6553C176.016 44.6888 175.308 44.7055 174.432 44.7055C174.33 44.7055 174.28 44.6052 174.28 44.4045C174.28 44.2038 174.33 44.1035 174.432 44.1035C175.477 44.1035 176.185 43.8694 176.556 43.4011C176.96 42.8995 177.163 41.9797 177.163 40.6419V33.4178C177.163 31.6117 176.842 30.2739 176.202 29.4044C175.595 28.5348 174.651 28.1 173.369 28.1C172.493 28.1 171.633 28.2839 170.79 28.6518C169.947 29.0197 169.222 29.5214 168.615 30.1569V30.4579V40.6419C168.615 41.9797 168.801 42.8995 169.171 43.4011C169.576 43.8694 170.301 44.1035 171.346 44.1035C171.481 44.1035 171.549 44.2038 171.549 44.4045C171.549 44.6052 171.481 44.7055 171.346 44.7055C170.47 44.7055 169.778 44.6888 169.273 44.6553L166.238 44.6052L163.304 44.6553C162.765 44.6888 162.057 44.7055 161.18 44.7055C161.079 44.7055 161.028 44.6052 161.028 44.4045C161.028 44.2038 161.079 44.1035 161.18 44.1035C162.225 44.1035 162.933 43.8694 163.304 43.4011C163.709 42.8995 163.911 41.9797 163.911 40.6419V33.4178C163.911 31.6117 163.591 30.2739 162.95 29.4044C162.343 28.5348 161.399 28.1 160.118 28.1C159.309 28.1 158.499 28.2672 157.69 28.6017C156.915 28.9027 156.223 29.3375 155.616 29.906V40.6419C155.616 41.9797 155.802 42.8995 156.173 43.4011C156.577 43.8694 157.302 44.1035 158.348 44.1035C158.449 44.1035 158.499 44.2038 158.499 44.4045C158.499 44.6052 158.449 44.7055 158.348 44.7055C157.471 44.7055 156.78 44.6888 156.274 44.6553L153.239 44.6052L150.255 44.6553C149.749 44.6888 149.058 44.7055 148.181 44.7055C148.08 44.7055 148.03 44.6052 148.03 44.4045C148.03 44.2038 148.08 44.1035 148.181 44.1035C149.227 44.1035 149.935 43.8694 150.306 43.4011C150.677 42.8995 150.862 41.9797 150.862 40.6419V31.2104C150.862 30.1736 150.727 29.4211 150.457 28.9528C150.221 28.4512 149.834 28.2003 149.294 28.2003C148.721 28.2003 147.912 28.4344 146.866 28.9027H146.765C146.664 28.9027 146.58 28.8191 146.512 28.6518C146.479 28.4846 146.495 28.3843 146.563 28.3508L153.593 24.9394C153.796 24.8725 153.914 24.8391 153.947 24.8391C154.318 24.8391 154.672 25.207 155.009 25.9428C155.347 26.6451 155.549 27.5983 155.616 28.8023C157.909 26.0933 160.371 24.7388 163.001 24.7388C164.586 24.7388 165.85 25.1234 166.794 25.8926C167.738 26.6619 168.312 27.7655 168.514 29.2037C170.84 26.2271 173.42 24.7388 176.252 24.7388C178.073 24.7388 179.456 25.2572 180.4 26.294C181.378 27.3308 181.867 28.9027 181.867 31.0097V40.6419C181.867 41.9797 182.052 42.8995 182.423 43.4011C182.828 43.8694 183.553 44.1035 184.598 44.1035Z" fill="#C28565"/>
<path d="M65.8193 19.3345C65.6678 18.4622 65.2905 17.4904 64.7505 16.6478V16.6466C64.0225 15.5122 63.0005 14.6128 61.8397 14.5083C60.0568 14.3483 58.4405 15.618 57.3428 17.0633C57.0678 17.426 56.8103 17.804 56.5605 18.1873C55.8148 19.3319 55.1296 20.523 54.1757 21.4869C52.4257 23.2548 50.3753 24.3491 47.9667 24.8601C45.558 25.3711 42.7645 24.8072 40.492 25.7685C38.2196 26.73 36.3573 28.9431 35.1636 31.1432C33.1562 34.8441 32.4042 39.1386 32.3361 43.2461V43.2486C32.331 43.5364 32.3298 43.8216 32.3323 44.1068C32.3588 48.4697 33.5777 52.8495 35.9888 56.4498C38.901 60.7997 43.9745 65.1705 49.1288 65.2118C50.7564 65.2247 52.2112 65.0375 53.5209 64.6943C53.6421 64.6633 53.6799 64.5446 53.6496 64.4491C53.6282 64.3794 53.5689 64.3213 53.4768 64.3188C39.277 64.0065 42.7606 51.8842 45.558 49.2079C46.5535 48.2555 47.9049 48.3549 49.3483 48.8272C49.9754 49.0323 50.6189 49.3073 51.2586 49.5962L51.2598 49.5976C52.0081 49.9357 52.7513 50.2931 53.4527 50.5809C55.0186 51.2235 56.3838 51.5203 57.1686 50.488C59.3401 47.6284 59.3073 48.8053 60.2612 46.5857C60.7987 45.334 59.272 44.5417 58.0077 43.8926C57.8967 43.8359 57.9572 43.6642 58.0784 43.69C63.1897 44.7959 62.251 41.0846 62.251 41.0846C64.0276 41.1853 65.9025 39.722 64.9158 36.8456C63.9291 33.9692 63.9291 31.4968 63.9291 31.4968C64.1348 28.4462 64.9613 27.6809 65.558 24.6846C65.9618 22.6483 66.175 21.3798 65.8193 19.3345ZM60.6927 31.6064C60.6171 31.6309 60.54 31.6542 60.4644 31.6761C60.3318 31.7135 60.2385 31.8361 60.2385 31.9768V33.084C60.2385 33.3795 59.9937 33.6182 59.6997 33.5989C59.4323 33.5808 59.2291 33.3408 59.2291 33.0659V31.9949C59.2291 31.9264 59.1749 31.871 59.108 31.871C58.8266 31.871 58.5478 31.8452 58.2714 31.7948C58.2146 31.7845 58.1591 31.8155 58.1376 31.871L57.691 33.0672C57.614 33.2724 57.4223 33.3989 57.2192 33.3989C57.1522 33.3989 57.0841 33.3847 57.0185 33.3563C56.7687 33.2453 56.6576 32.9421 56.756 32.6814L57.0828 31.8065C57.1522 31.6207 57.0741 31.4116 56.8999 31.3225C56.7952 31.2696 56.6917 31.2129 56.5882 31.1509C56.4292 31.0567 56.2262 31.0954 56.1088 31.2399L55.3391 32.191C55.2395 32.3136 55.0956 32.3782 54.9505 32.3782C54.837 32.3782 54.7233 32.3394 54.6288 32.2594C54.4143 32.0787 54.384 31.7523 54.5618 31.5329L55.3567 30.5509C55.4451 30.4412 55.435 30.2812 55.3353 30.1831C55.2142 30.0657 55.0993 29.9482 54.9921 29.8308C54.9063 29.7367 54.7688 29.7186 54.6616 29.787L53.7859 30.3444C53.7038 30.396 53.6118 30.4218 53.5209 30.4218C53.3481 30.4218 53.1777 30.3315 53.0844 30.1651C52.9456 29.9212 53.0364 29.6076 53.2698 29.4579L53.9839 29.0037C54.1089 28.9236 54.1468 28.7546 54.066 28.6269C53.9424 28.4346 53.8755 28.3095 53.8667 28.2952C53.7329 28.0449 53.8238 27.7313 54.0672 27.5945C54.3107 27.4578 54.6174 27.5493 54.7524 27.7984C54.7612 27.8152 55.3239 28.8437 56.3182 29.6979C56.8582 30.1611 57.4147 30.4825 57.9863 30.6644C58.0051 30.6696 58.0253 30.6748 58.0443 30.6825L58.0456 30.6838C58.8089 30.9122 59.5963 30.8916 60.4025 30.6193C60.6764 30.5276 60.9728 30.6864 61.0485 30.9755C61.1154 31.2451 60.9514 31.52 60.6927 31.6064ZM61.6315 28.5636C61.6239 28.5636 61.6163 28.5636 61.6087 28.5636C61.3413 28.5636 61.1179 28.3469 61.1053 28.0707C61.07 27.2436 60.776 26.6267 60.2095 26.1815C58.3825 24.7478 54.4546 25.6151 54.4155 25.624C54.1442 25.6847 53.8742 25.5105 53.8137 25.2318C53.7544 24.953 53.9246 24.6781 54.1972 24.6162C54.3764 24.5762 58.6222 23.6367 60.8227 25.3621C61.6289 25.9944 62.063 26.89 62.1121 28.0242C62.1261 28.3095 61.9104 28.5507 61.6315 28.5636Z" fill="#C28565"/>
<path d="M53.6498 64.4475C50.7769 64.5727 46.6446 64.1145 43.3048 61.1918C38.1277 56.6597 36.7512 47.8655 40.7182 40.1913C40.9062 39.8275 41.4298 39.87 41.561 40.2597C42.2979 42.4457 44.2839 46.437 49.3485 48.8269C47.9051 48.3558 46.5538 48.2552 45.5582 49.2076C42.761 51.8826 39.2772 64.0049 53.477 64.3184C53.5691 64.3197 53.6284 64.3778 53.6498 64.4475Z" fill="#C28565"/>
<path d="M45.5202 65.9988C42.8995 65.5291 40.2688 64.5446 38.5137 63.4592C37.4954 62.8295 36.5756 62.0631 35.6899 61.2488C33.8831 59.166 32.2718 56.9026 30.5281 54.7618C28.3313 52.0648 25.8482 49.5059 22.7594 47.9729C19.5066 46.3585 15.7277 45.9559 12.4913 44.3958C13.6093 45.343 14.9782 46.0192 16.3522 46.5379C18.4228 47.3199 20.5993 47.8309 22.5639 48.8607C25.4167 50.3576 27.6425 52.8545 29.583 55.4677C29.8152 55.78 30.0436 56.0948 30.2707 56.411C30.3073 56.4626 30.248 56.5284 30.195 56.4936C26.7857 54.2405 22.7999 52.963 18.8934 51.7448C15.2419 50.6066 11.5185 49.4478 8.23538 47.5084C7.45814 47.0502 6.70616 46.5482 5.98444 45.9907C2.61807 43.3945 0.0314617 39.3399 0.00244141 35.1008C2.25467 36.6301 5.05071 37.6301 7.51113 38.2198C11.8692 39.2651 16.4784 39.4599 20.5438 41.3762C24.6684 43.3196 27.9465 46.7715 30.5874 50.5782C30.8385 50.9408 31.0845 51.3061 31.3242 51.6738C32.3765 53.2868 33.3582 54.9269 34.3802 56.4923C34.3815 56.4948 34.3827 56.4975 34.3852 56.4987V56.5C36.2009 59.2834 38.144 61.8321 40.8403 63.5858C41.8207 64.2232 42.9891 64.8568 44.2824 65.4013C44.6925 65.5743 45.1165 65.7381 45.5492 65.8892C45.6098 65.915 45.5858 66.0117 45.5202 65.9988Z" fill="#C28565"/>
<path d="M35.145 62.9251C32.0499 61.0643 28.8148 59.3687 25.3941 58.97C22.3571 58.6164 19.2482 58.277 16.5014 56.9633C17.9486 58.0357 19.9068 58.6718 21.5913 59.0241C23.6252 59.45 25.7361 59.699 27.7297 60.2926C29.1264 60.7094 31.0947 61.6966 33.0303 62.7741C33.0871 62.8063 33.0631 62.8967 32.9987 62.8928C32.2215 62.8554 31.4393 62.876 30.6708 62.9328C28.2306 63.1148 25.8005 63.6129 23.3564 63.489C20.1213 63.3251 16.9531 62.0295 14.4914 59.8771C14.3564 59.7597 14.2239 59.6383 14.0926 59.5158C12.0108 57.553 10.5093 54.9593 9.80273 52.1565C10.0815 52.3061 10.3668 52.4456 10.6594 52.5746C12.465 53.3733 14.4902 53.7837 16.4521 54.0263C19.9156 54.456 23.5142 54.5334 26.6837 56.0226C27.442 56.3787 28.1561 56.8071 28.8413 57.2834C30.6103 58.517 32.1799 60.0797 33.7634 61.5714C34.2277 62.0089 34.7009 62.445 35.1841 62.8657C35.2157 62.8967 35.1815 62.947 35.145 62.9251Z" fill="#C28565"/>
<path d="M36.9821 23.2509C36.8811 24.2885 36.1834 25.2124 35.1475 25.5376C33.9627 25.9079 32.7187 25.3749 32.1243 24.3219C32.026 24.1503 31.9465 23.9633 31.8872 23.7645C31.4657 22.3541 32.2417 20.8611 33.6208 20.4301C34.9999 19.999 36.4598 20.7926 36.8811 22.2031C36.9859 22.5528 37.0161 22.9076 36.9821 23.2509Z" fill="#C28565"/>
<path d="M43.9088 11.6926C43.7789 12.0707 43.6249 12.4268 43.4445 12.7494C41.7071 15.8555 39.1167 17.0671 37.0916 17.7731C36.6272 16.0219 36.2273 13.7482 36.9856 11.1918C37.142 10.6653 37.3477 10.1272 37.6114 9.57755C39.0902 6.50761 44.141 3.74351 44.44 3.6377C44.5132 3.91643 44.9851 8.57873 43.9088 11.6926Z" fill="#C28565"/>
<path d="M37.3818 5.03266C37.3603 5.09589 37.3389 5.16043 37.3136 5.22236C37.002 6.00049 36.385 6.60828 35.8639 7.26381C35.4753 6.51794 34.9819 5.80176 34.8217 4.97718C34.7094 4.40036 34.7687 3.81709 34.9264 3.25059C35.0804 2.697 35.3277 2.16019 35.6027 1.65821C35.8349 1.23624 36.0873 0.820709 36.3269 0.401321C36.4026 0.268407 36.4771 0.134204 36.5478 0C36.5112 0.387128 36.4746 0.785872 36.4355 1.19623C36.3648 1.96016 36.2891 2.76022 36.2109 3.58739C36.1869 3.84161 36.163 4.09839 36.1389 4.35777C36.1642 4.09839 36.1869 3.84161 36.2109 3.58739C36.2891 2.76022 36.3635 1.95887 36.4355 1.19623C36.4746 0.785872 36.5112 0.387128 36.5478 0C36.592 0.145819 36.6399 0.291638 36.6891 0.437456C36.8455 0.896848 37.0171 1.35237 37.1648 1.81306C37.5004 2.85313 37.7174 4.00419 37.3818 5.03266Z" fill="#C28565"/>
<path d="M54.8713 16.5767C54.73 16.827 51.8292 20.4776 48.9108 21.8958C48.5613 22.0661 48.2118 22.2029 47.8673 22.2997C44.4908 23.2404 41.8223 22.2236 39.9019 21.2583C40.4937 20.2027 41.2697 19 42.4116 17.9432C43.3225 17.1006 44.4657 16.3496 45.9356 15.8399C49.1039 14.7378 54.5862 16.436 54.8713 16.5767Z" fill="#C28565"/>
<path d="M51.3683 8.42183C50.9091 8.54571 50.4435 8.65541 49.988 8.78703C48.8941 9.10189 47.7736 9.60253 47.1415 10.5691C46.9788 10.8182 46.8551 11.0878 46.7529 11.3705L46.7516 11.3717C46.5674 11.8789 46.4513 12.4208 46.2974 12.9409C47.1188 12.8544 47.9756 12.8712 48.7338 12.546C49.2083 12.3422 49.6108 12.0209 49.954 11.6311C50.3715 11.1614 50.706 10.5962 50.9861 10.0284C51.1993 9.59612 51.3936 9.14963 51.6006 8.71218C51.6662 8.5741 51.733 8.43604 51.8011 8.30054C51.6586 8.34183 51.5148 8.38183 51.3683 8.42183ZM51.0239 8.95478C51.1564 8.84251 51.2889 8.73024 51.4189 8.62185C51.2889 8.73154 51.1577 8.84251 51.0239 8.95478Z" fill="#C28565"/>
<path d="M31.1552 36.3889C29.6764 39.4587 24.6243 42.2229 24.3266 42.3287C24.2458 42.0164 23.6617 36.1876 25.3221 33.217C27.0595 30.1109 29.6486 28.8992 31.6738 28.1946L31.675 28.1934C32.2352 30.3057 32.7008 33.1782 31.1552 36.3889Z" fill="#C28565"/>
<path d="M19.0132 21.4689C18.2839 21.8677 17.5837 22.371 16.7774 22.5348C15.6633 22.762 14.5251 22.3051 13.5334 21.736C13.1195 21.4999 12.7145 21.2406 12.3044 20.9953C12.1745 20.9179 12.0433 20.8418 11.9121 20.7695C12.0547 20.7231 12.1972 20.674 12.3398 20.6238C12.789 20.4637 13.2344 20.2882 13.6836 20.1372C14.7624 19.7733 15.9661 19.5463 17.0171 19.9863C17.7767 20.305 18.371 20.9347 19.0107 21.4676C19.0132 21.4689 19.0132 21.4689 19.0132 21.4689Z" fill="#C28565"/>
<path d="M28.8651 24.7093C27.8028 26.6074 26.1449 28.9767 22.8315 30.1278C19.6632 31.2285 14.1809 29.5303 13.897 29.3896C14.0547 29.1096 17.6722 24.5661 20.901 23.6666C24.2761 22.7259 26.9448 23.7414 28.8639 24.708L28.8651 24.7093Z" fill="#C28565"/>
<path d="M20.0327 33.4217C18.9842 33.8708 18.2902 34.9006 17.7792 35.9393C17.566 36.3716 17.3717 36.8182 17.1648 37.2556C17.0991 37.3937 17.0323 37.5317 16.9629 37.6672C17.1067 37.6247 17.2518 37.5834 17.3969 37.5447C17.8562 37.4208 18.3217 37.3098 18.7772 37.1795C19.8712 36.8633 20.9916 36.3639 21.6225 35.3974C22.0793 34.698 22.2269 33.836 22.4666 33.0269V33.0256C21.6464 33.1146 20.7898 33.0979 20.0327 33.4217ZM17.4751 37.2376C17.6481 37.0917 17.8234 36.9433 18.0026 36.7923C17.8234 36.9446 17.6467 37.093 17.4751 37.2376Z" fill="#C28565"/>
<path d="M29.2893 20.2119C27.225 20.7849 24.4151 21.2624 21.2758 19.6804C20.1037 19.0906 18.9782 17.9421 18.0332 16.7446V16.7434C16.5607 14.8735 15.5323 12.8837 15.4692 12.6965C15.7746 12.6139 21.4739 12.0165 24.3785 13.7147C25.1772 14.1818 25.8472 14.7083 26.4137 15.2697C28.0023 16.8453 28.7808 18.6855 29.2893 20.2119Z" fill="#C28565"/>
<path d="M24.2585 8.53252C24.2333 8.45638 24.2068 8.38154 24.1765 8.3067C23.7374 7.23564 22.7305 6.52591 21.7149 6.00329C21.2922 5.7852 20.8556 5.58648 20.4279 5.37485C20.2929 5.30775 20.1579 5.23935 20.0254 5.16968C20.0671 5.31678 20.1074 5.46518 20.1465 5.61357C20.2676 6.08329 20.3749 6.55947 20.5036 7.0266C20.6298 7.48729 20.7887 7.95441 20.9969 8.38799C21.2922 9.00611 21.6896 9.5584 22.2448 9.93781C22.9286 10.4037 23.7728 10.5546 24.5626 10.8011V10.7998C24.4857 10.0384 24.4907 9.25 24.2585 8.53252Z" fill="#C28565"/>
<path d="M32.6957 17.3394C30.8397 16.2515 28.5231 14.5572 27.3976 11.1686C27.1805 10.5157 27.0745 9.76845 27.0455 8.98648C26.9282 5.88558 28.0095 2.26207 28.1192 2.02979C28.3868 2.18851 32.6553 5.74106 33.6559 8.98777C33.6761 9.05616 33.6962 9.12455 33.7139 9.19165C34.6337 12.6461 33.6407 15.3753 32.6957 17.3394Z" fill="#C28565"/>
<path d="M30.5849 50.5794C25.8117 44.3222 20.5994 41.6239 14.7865 40.7799C12.6869 40.4754 8.99503 39.8211 6.89294 39.523C5.3044 39.2985 3.70953 38.9295 2.25348 38.2585C3.39031 41.8123 5.49746 45.0268 8.23294 47.5095C7.4557 47.0514 6.70368 46.5494 5.98196 45.992C2.6156 43.3956 0.0290203 39.3411 0 35.1021C2.25223 36.6312 5.04824 37.6313 7.50867 38.221C11.8667 39.2663 16.476 39.4611 20.5413 41.3774C24.6672 43.3207 27.944 46.7713 30.5849 50.5794Z" fill="#C28565"/>
<path d="M34.3824 56.5021C34.3813 56.4999 34.3791 56.4977 34.3779 56.4954C34.3791 56.4977 34.3801 56.4999 34.3824 56.501V56.5021Z" fill="#C28565"/>
<path d="M25.1075 55.7934C20.5551 54.6113 15.58 55.4605 11.1967 53.788C11.7544 55.8515 12.837 57.7445 14.1341 59.4285C14.2501 59.5795 14.3701 59.7305 14.4899 59.8789C14.3549 59.7614 14.2224 59.6401 14.0912 59.5176C12.0093 57.5548 10.5078 54.961 9.80127 52.1582C10.0801 52.3079 10.3653 52.4473 10.658 52.5764C12.4635 53.3751 14.4886 53.7855 16.4507 54.0281C19.9142 54.4578 23.5127 54.5352 26.6822 56.0244C27.4405 56.3805 28.1547 56.8089 28.8398 57.2851C27.6626 56.6347 26.4059 56.1302 25.1075 55.7934Z" fill="#C28565"/>
<path d="M64.7508 16.6476C64.6184 16.574 64.4821 16.5082 64.342 16.4476C62.645 15.7198 60.5581 16.0618 59.1663 17.2954C57.8755 18.44 57.1298 20.0827 56.1798 21.5357C54.3565 24.3256 51.3485 26.1967 48.0414 26.4445C44.9741 26.6742 41.9383 26.7774 39.3404 28.4615C36.5191 30.2913 34.6895 33.4167 33.7255 36.6879C33.1111 38.7694 32.6443 41.0108 32.3364 43.2445C32.4045 39.1372 33.1565 34.8426 35.164 31.1416C36.3576 28.9415 38.22 26.7297 40.4923 25.7671C42.7648 24.8057 45.5583 25.3696 47.967 24.8585C50.3757 24.3476 52.426 23.2533 54.176 21.4854C55.1299 20.5227 55.8151 19.3304 56.5608 18.1858C56.8106 17.8026 57.0667 17.4245 57.3431 17.0619C58.4409 15.6166 60.0571 14.3468 61.84 14.5068C63.0008 14.6139 64.0228 15.5133 64.7508 16.6476Z" fill="#C28565"/>
<path d="M31.6723 28.1943C31.5663 28.2628 24.7339 32.6656 24.3251 42.3284C24.2444 42.0162 23.6602 36.1872 25.3207 33.2167C27.0594 30.1106 29.6485 28.8989 31.6723 28.1943Z" fill="#C28565"/>
<path d="M22.4694 33.0273C22.4694 33.0273 19.3226 34.4055 16.9644 37.669C17.0337 37.5335 17.1006 37.3955 17.1662 37.2574C17.3732 36.8199 17.5675 36.3735 17.7808 35.9412C18.2917 34.9036 18.9857 33.8738 20.0342 33.4235C20.79 33.0983 21.6468 33.1151 22.4694 33.0273Z" fill="#C28565"/>
<path d="M28.864 24.7079C28.7253 24.686 21.2279 23.5026 13.8984 29.3895C14.0562 29.1096 17.6735 24.566 20.9024 23.6666C24.2764 22.7271 26.945 23.7427 28.864 24.7079Z" fill="#C28565"/>
<path d="M19.0119 21.4687C16.9477 20.3447 11.9121 20.7706 11.9121 20.7706C12.0547 20.7241 12.1972 20.6751 12.3398 20.6247C12.789 20.4647 13.2344 20.2892 13.6836 20.1382C14.7624 19.7743 15.9661 19.5472 17.0171 19.9872C17.7767 20.3047 18.3723 20.9357 19.0119 21.4687Z" fill="#C28565"/>
<path d="M33.6561 8.98906C32.4398 6.72823 30.5926 4.8197 28.382 3.57186C27.7398 5.3178 27.2919 7.13859 27.0445 8.98648C26.9272 5.88558 28.0085 2.26207 28.1183 2.02979C28.3883 2.1898 32.6556 5.74106 33.6561 8.98906Z" fill="#C28565"/>
<path d="M43.9088 11.6929C44.1373 9.56492 44.0754 7.40476 43.7234 5.29362C40.9147 6.40468 38.506 8.53389 36.9868 11.1909C37.1433 10.6644 37.349 10.1263 37.6127 9.57652C39.0915 6.50663 44.1423 3.74254 44.4413 3.63672C44.5132 3.91674 44.9851 8.57904 43.9088 11.6929Z" fill="#C28565"/>
<path d="M54.8709 16.5765C54.7296 16.8268 51.8289 20.4775 48.9103 21.8956C49.6056 21.4452 50.2491 20.9033 50.8282 20.3058C51.7758 19.3329 52.572 18.2192 53.3013 17.0617C50.9456 16.1816 48.3401 16.0074 45.8936 16.574C44.6772 16.8552 43.5013 17.3198 42.4111 17.9418C43.3221 17.0991 44.4652 16.3481 45.9352 15.8383C49.1034 14.7377 54.5858 16.4358 54.8709 16.5765Z" fill="#C28565"/>
<path d="M26.4122 15.271C25.7334 14.8877 25.0761 14.4941 24.3404 14.1999C22.5942 13.5018 20.7117 13.1598 18.8379 13.1998C18.0216 13.2166 17.2077 13.3083 16.4078 13.4734C16.674 14.4232 17.2419 15.3677 17.7112 16.1962C17.8146 16.3807 17.9219 16.5627 18.0317 16.7434C16.5592 14.8735 15.5309 12.8837 15.4678 12.6965C15.7732 12.6139 21.4725 12.0165 24.377 13.7147C25.1745 14.1831 25.8457 14.7096 26.4122 15.271Z" fill="#C28565"/>
<path d="M20.6838 5.98617C20.6334 5.97068 20.5816 5.95519 20.5299 5.93971C20.6775 6.71913 20.8264 7.49726 20.974 8.27667C20.9804 8.31281 20.9879 8.34893 20.9954 8.38506C20.7873 7.95148 20.6296 7.48436 20.5021 7.02368C20.3734 6.55654 20.2661 6.08036 20.1451 5.61065C20.1072 5.46225 20.0668 5.31385 20.0239 5.16675C20.1564 5.23643 20.2914 5.30482 20.4264 5.37192C20.8542 5.58355 21.2907 5.78227 21.7134 6.00036C22.7279 6.52298 23.736 7.23273 24.175 8.30379C24.2054 8.37863 24.2331 8.45347 24.2571 8.52961C23.3613 7.33596 22.0944 6.43007 20.6838 5.98617Z" fill="#C28565"/>
<path d="M37.1659 1.81428C37.0183 1.3536 36.8467 0.898068 36.6903 0.438676C36.641 0.294149 36.5931 0.148329 36.5489 0.0012207L36.5477 0.00380408V0.0012207C36.477 0.135425 36.4026 0.269627 36.3269 0.402541C36.0884 0.821929 35.8348 1.23745 35.6026 1.65941C35.3288 2.1601 35.0802 2.69821 34.9263 3.25181C35.2582 2.45691 35.778 1.74201 36.4341 1.19745C36.4442 1.18842 36.4543 1.18068 36.4644 1.17164C37.1041 2.34206 37.4233 3.69313 37.3804 5.03259C37.7173 4.00412 37.5003 2.85307 37.1659 1.81428Z" fill="#C28565"/>
<path d="M51.8026 8.29785C51.7346 8.43335 51.6677 8.57142 51.6021 8.70949C51.3951 9.14695 51.2008 9.59344 50.9875 10.0257C50.7075 10.5935 50.3731 11.1587 49.9555 11.6284C50.4312 10.7935 50.792 9.89025 51.0242 8.95467V8.95338C51.0305 8.92758 51.0368 8.90177 51.0444 8.87596C51.0381 8.90048 50.3491 9.12373 50.2797 9.1405C50.0401 9.19728 49.6212 9.35729 49.3902 9.44249C48.555 9.75212 48.006 10.018 47.3676 10.6477C47.2061 10.8064 47.0535 10.9755 46.9096 11.1523C46.8641 11.2078 46.8125 11.3032 46.7544 11.3665C46.8566 11.0851 46.9803 10.8142 47.143 10.5651C47.7751 9.59863 48.8956 9.09921 49.9895 8.78306C50.445 8.65143 50.9106 8.54174 51.3699 8.41786C51.515 8.38172 51.6589 8.34173 51.8026 8.29785Z" fill="#C28565"/>
<path d="M36.9821 23.2509C36.9518 23.1244 36.9418 22.967 36.9153 22.8676C36.8648 22.6779 36.8055 22.4908 36.731 22.3088C36.5645 21.8998 36.3172 21.5152 35.9689 21.2519C35.6346 20.9977 35.2208 20.8661 34.8056 20.8391C33.7798 20.7719 32.7401 21.381 32.2783 22.3217C31.9768 22.936 31.9339 23.6663 32.1244 24.3232C32.026 24.1516 31.9465 23.9644 31.8872 23.7657C31.4657 22.3553 32.2417 20.8623 33.6208 20.4313C34.9999 20.0003 36.4598 20.7939 36.8812 22.2043C36.9859 22.5527 37.0162 22.9076 36.9821 23.2509Z" fill="#C28565"/>
<path d="M34.3828 24.8172C35.5994 24.8172 36.5858 23.8085 36.5858 22.5642C36.5858 21.3198 35.5994 20.311 34.3828 20.311C33.1661 20.311 32.1797 21.3198 32.1797 22.5642C32.1797 23.8085 33.1661 24.8172 34.3828 24.8172Z" fill="#C28565"/>
</svg>
