<svg width="24" height="19" viewBox="0 0 24 19" fill="none" xmlns="http://www.w3.org/2000/svg">
<path d="M23.1875 7C23.3698 7.02604 23.474 7.13021 23.5 7.3125C23.526 7.70312 23.4609 8.32812 23.3047 9.1875C23.1745 10.0469 22.862 10.9974 22.3672 12.0391C21.8464 13.0807 21.0651 14.0833 20.0234 15.0469C18.3568 16.5573 16.8203 17.4818 15.4141 17.8203C14.0078 18.1589 12.9661 18.2891 12.2891 18.2109C12.2891 18.2109 12.276 18.2109 12.25 18.2109C12.224 18.2109 12.1979 18.2109 12.1719 18.2109C11.4688 18.2891 10.4271 18.1589 9.04688 17.8203C7.64062 17.5078 6.11719 16.5964 4.47656 15.0859C3.4349 14.1224 2.66667 13.1068 2.17188 12.0391C1.65104 10.9974 1.32552 10.0469 1.19531 9.1875C1.03906 8.32812 0.973958 7.70312 1 7.3125C1.02604 7.13021 1.13021 7.02604 1.3125 7C1.70312 6.97396 2.36719 7.03906 3.30469 7.19531C4.21615 7.32552 5.24479 7.61198 6.39062 8.05469C7.51042 8.52344 8.60417 9.2526 9.67188 10.2422C10.9219 11.4401 11.7812 12.6771 12.25 13.9531C12.7188 12.6771 13.5781 11.4271 14.8281 10.2031C15.8958 9.23958 16.9896 8.52344 18.1094 8.05469C19.2552 7.58594 20.2839 7.28646 21.1953 7.15625C22.1328 7.02604 22.7969 6.97396 23.1875 7ZM12.25 11.3359C11.7552 10.5807 11.1693 9.90365 10.4922 9.30469C9.76302 8.60156 8.99479 8.02865 8.1875 7.58594C8.5 6.17969 8.98177 4.90365 9.63281 3.75781C10.2839 2.58594 11.0651 1.6224 11.9766 0.867188C12.1589 0.710938 12.3542 0.710938 12.5625 0.867188C13.4479 1.64844 14.2161 2.61198 14.8672 3.75781C15.5182 4.92969 16 6.20573 16.3125 7.58594C15.5052 8.02865 14.724 8.61458 13.9688 9.34375C13.3177 9.91667 12.7448 10.5807 12.25 11.3359Z" fill="#AB6A49"/>
</svg>
