<svg width="260" height="297" viewBox="0 0 260 297" fill="none" xmlns="http://www.w3.org/2000/svg">
<path opacity="0.5" d="M159.636 296.778C159.246 296.778 158.912 296.427 158.707 296.131C158.485 295.799 158.299 295.466 158.095 295.096L157.909 294.764C157.352 293.766 156.795 292.749 156.257 291.751C155.068 289.57 153.843 287.334 152.544 285.172L151.727 283.804C149.295 279.72 146.77 275.506 143.725 271.699C141.126 268.427 138.879 265.027 137.078 261.589C134.145 256.008 132.474 250.5 131.973 244.752C131.769 242.331 131.583 239.134 132.103 235.955L132.121 235.844C132.177 235.456 132.251 235.068 132.233 234.661C132.121 231.335 133.161 228.211 134.163 225.55C134.925 223.517 135.24 221.244 135.166 218.601C135.092 216.143 135.036 213.241 135.24 210.34C135.445 207.604 135.352 204.98 134.98 202.559C134.423 198.881 134.423 195.222 134.498 192.098C134.535 190.379 134.386 188.661 134.256 186.997C133.866 182.321 134.015 177.738 134.238 173.469C134.293 172.415 134.331 171.343 134.349 170.29L134.405 168.608L134.201 168.479C134.034 168.386 133.866 168.331 133.699 168.331C133.272 168.331 133.05 168.663 132.938 168.848L132.827 169.015C132.493 169.532 132.121 170.068 131.861 170.641C129.726 175.206 128.705 179.438 128.742 183.541C128.742 184.28 128.649 185.057 128.575 185.704L128.278 187.903C127.907 190.62 127.536 193.41 127.09 196.146C126.57 199.361 126.106 201.801 125.568 204.093C124.955 206.68 123.748 209.009 122.133 211.744C121.762 212.373 121.353 213.001 120.963 213.629C119.385 216.087 118.197 218.786 117.046 221.392C116.675 222.223 116.303 223.055 115.932 223.887C114.224 227.583 112.85 231.483 111.718 235.807C111.532 236.51 111.291 237.23 111.049 237.896C110.938 238.228 110.808 238.487 110.659 238.69C110.511 238.894 110.307 239.005 110.065 239.005C109.805 239.005 109.583 238.875 109.415 238.653C109.137 238.265 108.97 237.785 108.914 237.156L108.803 236.066C108.673 234.772 108.524 233.442 108.506 232.148L108.487 231.298C108.339 224.792 108.19 218.083 108.153 211.467C108.134 209.175 108.264 206.847 108.394 204.592C108.45 203.575 108.506 202.577 108.543 201.561L108.58 200.581C108.617 199.713 108.636 198.807 108.728 197.938C109.044 194.741 109.842 191.359 111.198 187.607C112.646 183.56 115.412 180.325 119.422 177.96C119.831 177.719 120.239 177.479 120.648 177.257C121.669 176.685 122.523 175.834 123.21 174.688C123.897 173.543 124.584 172.415 125.271 171.269C125.957 170.142 126.644 169.033 127.313 167.906C128.761 165.485 130.172 163.71 131.787 162.324C133.198 161.104 133.978 159.57 134.145 157.667C134.238 156.613 134.349 155.56 134.461 154.488C134.628 152.954 134.795 151.346 134.906 149.775C135.185 145.82 135.723 142.235 136.559 138.816C137.338 135.618 137.635 132.957 137.505 130.443V130.333C137.505 130.111 137.505 129.464 136.837 129.408C136.837 129.408 136.837 129.408 136.818 129.408C136.391 129.408 136.02 129.63 135.797 129.834L135.482 130.129C134.925 130.628 134.368 131.164 133.885 131.756C132.177 133.918 130.413 136.228 128.315 139.019C126.422 141.532 124.899 144.323 123.451 147.021C123.154 147.576 122.857 148.112 122.56 148.666C120.685 152.067 118.568 155.93 116.248 159.534C114.707 161.918 112.98 164.08 111.105 165.965L109.954 167.111C108.617 168.442 107.262 169.791 105.906 171.103C103.66 173.265 101.544 175.686 99.427 178.477C97.422 181.157 95.2869 183.8 93.2261 186.369C92.2607 187.57 91.3138 188.753 90.367 189.954C88.2505 192.616 86.2825 195.462 84.3702 198.216L83.4419 199.546C82.2909 201.191 81.1584 202.873 80.0258 204.555C78.7448 206.44 77.4267 208.399 76.0899 210.303C74.7161 212.243 73.1751 214.128 71.727 215.884C70.5388 217.307 69.8889 218.952 69.7404 220.948C69.4805 224.201 68.7008 227.435 67.9581 230.559C67.8096 231.187 67.6611 231.815 67.5126 232.444C66.6214 236.251 65.5446 240.649 64.0036 244.9C61.1631 252.681 57.4499 258.854 52.6414 263.77C51.2675 265.175 50.0051 266.431 48.7612 267.633C46.9974 269.333 45.7906 271.144 45.0851 273.159C44.3239 275.303 43.1543 277.409 41.502 279.572C40.4809 280.902 39.5711 282.326 38.68 283.693C38.2901 284.285 37.9002 284.895 37.5103 285.486C37.3804 285.671 37.269 285.856 37.1576 286.04C36.9534 286.355 36.7492 286.687 36.5264 286.983C36.3036 287.297 36.0622 287.445 35.8209 287.445C35.7466 287.445 35.6723 287.427 35.5795 287.408C35.4495 287.371 35.0411 287.223 34.9854 286.521L34.9669 286.207C34.9297 285.597 34.874 284.95 34.9297 284.359C35.2639 280.995 35.6909 277.391 36.6006 273.806C37.4732 270.349 38.42 266.247 38.8842 261.996C39.1441 259.575 39.8125 257.043 40.945 254.289C42.4303 250.611 44.1754 247.007 45.6793 243.976C46.0134 243.292 46.329 242.738 46.6446 242.257C51.3232 235.179 55.6676 229.597 60.3091 224.663C62.704 222.131 64.3378 219.765 65.4889 217.252C66.2501 215.551 67.364 213.389 69.1835 211.652C69.8333 211.042 70.4088 210.21 71.0215 209.064C72.7295 205.849 74.9017 202.965 77.1667 200.064C77.5937 199.509 78.0022 198.936 78.4106 198.382L79.079 197.458L78.9676 197.236C78.7077 196.737 78.3735 196.626 78.1136 196.626C77.9094 196.626 77.7237 196.7 77.5937 196.756C76.0157 197.365 74.4004 197.717 72.878 198.031C70.3345 198.567 67.9396 199.509 65.7674 200.84L65.5074 201.006C63.4281 202.282 61.2745 203.594 59.2508 205.054C54.368 208.584 48.8169 211.633 42.783 214.128C40.9821 214.868 39.1441 215.311 37.5846 215.644C32.0706 216.827 27.1507 217.603 22.5464 218.009L21.0611 218.139C19.5944 218.268 18.1277 218.398 16.661 218.527C13.9504 218.749 11.7597 219.192 9.77315 219.895C8.54781 220.338 7.30393 220.782 6.07859 221.225C4.94608 221.632 3.81354 222.057 2.68103 222.464C2.08693 222.685 1.54853 222.87 1.01013 222.944C0.95443 222.944 0.917323 222.963 0.861626 222.963C0.58314 222.963 0.341738 222.852 0.174646 222.648C0.00755491 222.427 -0.0480992 222.112 0.0447294 221.78C0.193255 221.281 0.490273 220.856 0.880153 220.338C3.01521 217.547 5.57727 214.849 8.93767 211.837C11.574 209.452 14.656 207.253 18.6105 204.887C21.0426 203.427 23.4375 201.856 25.7582 200.341C26.4637 199.879 27.1693 199.417 27.8933 198.955C29.4157 197.975 31.1423 197.144 33.5001 196.275C37.1762 194.926 41.0192 193.872 44.7324 192.874L46.6261 192.357C47.1274 192.228 47.6287 192.08 48.1299 191.95C50.4321 191.285 52.957 190.952 55.8718 190.952C56.763 190.952 57.6913 190.971 58.6938 191.045C60.4576 191.137 62.2584 191.618 64.245 192.523C64.8019 192.764 65.3404 193.041 65.8788 193.299C66.5286 193.632 67.2155 193.799 67.9024 193.799C68.1624 193.799 68.4408 193.78 68.7007 193.725C69.2763 193.632 69.8704 193.54 70.4459 193.447C71.3928 193.299 72.3768 193.152 73.3422 192.948C76.0713 192.394 78.2435 191.451 80.0073 190.084L80.1187 189.991C80.3414 189.806 80.5643 189.64 80.787 189.511C84.3888 187.385 87.2293 184.539 90.4041 180.917C91.8151 179.309 93.3189 177.756 94.7856 176.259C95.6211 175.409 96.4379 174.559 97.2548 173.709C99.2042 171.639 101.154 169.495 103.029 167.444L103.864 166.52C105.962 164.228 108.227 161.807 110.752 159.681C112.497 158.203 113.704 156.281 114.892 154.266C115.542 153.176 116.173 152.085 116.823 151.013C119.329 146.818 121.929 142.475 124.119 137.984C125.4 135.36 127.071 132.883 128.668 130.48L128.835 130.222C129.021 129.944 129.225 129.667 129.429 129.39C129.745 128.965 130.079 128.503 130.358 128.022C130.432 127.893 130.562 127.745 130.71 127.597C131.082 127.191 131.731 126.507 131.1 125.694C130.915 125.453 130.636 125.306 130.302 125.306C130.005 125.306 129.689 125.416 129.411 125.527C129.206 125.601 128.984 125.675 128.835 125.694L128.148 125.768C127.164 125.86 126.18 125.971 125.196 126.063C125.011 126.082 124.806 126.082 124.621 126.1C124.268 126.119 123.897 126.119 123.525 126.193C121.483 126.618 119.441 127.08 117.399 127.542L117.139 127.597C116.378 127.764 115.635 128.133 114.818 128.762C111.773 131.035 108.58 133.548 106.055 136.783C104.31 139.037 102.193 140.996 99.7798 142.641C97.4405 144.231 95.324 145.173 93.0961 145.635C91.9451 145.876 90.794 146.116 89.6429 146.356C87.4336 146.818 85.1685 147.299 82.9221 147.724C79.3389 148.408 75.5701 149.443 71.0772 150.977C67.791 152.104 64.245 153.157 60.4761 153.268C58.1183 153.342 55.8161 153.952 53.6625 155.079C51.676 156.114 49.5409 156.983 47.1274 157.722C45.7721 158.147 44.4168 158.702 43.1172 159.386C42.783 159.57 42.5231 159.644 42.3003 159.644C42.0775 159.644 41.8918 159.57 41.7247 159.386C41.5948 159.256 41.2235 158.887 41.8918 157.87C41.9847 157.722 42.1147 157.574 42.2261 157.427C44.6953 154.617 47.4987 151.42 50.7105 148.759C52.6971 147.114 54.7393 145.395 56.893 143.806C57.4871 143.362 58.0997 142.808 58.7495 142.105C60.8475 139.851 63.3909 138.021 66.4914 136.468C67.7725 135.84 69.0164 135.175 70.2788 134.509L71.0215 134.121C73.1194 133.012 75.273 132.255 77.4081 131.867C78.5963 131.645 79.7845 131.423 80.9541 131.201C83.9803 130.628 87.118 130.018 90.237 129.593C91.8708 129.371 93.4303 128.946 95.2498 128.373C96.1224 128.096 96.9949 127.819 97.8675 127.542C100.133 126.821 102.453 126.082 104.774 125.435C107.54 124.659 110.529 123.919 113.686 123.753C115.282 123.661 117.139 123.494 119.014 122.977C119.756 122.774 119.682 122.238 119.645 122.071C119.589 121.868 119.441 121.683 119.162 121.535C118.55 121.203 117.9 121.073 117.269 120.944L117.102 120.907C115.505 120.574 113.834 120.426 112.015 120.426C110.678 120.426 109.248 120.519 107.633 120.704C106.631 120.814 105.609 120.925 104.588 121.092C103.456 121.277 102.23 121.369 100.857 121.369C99.2228 121.369 97.5147 121.24 96.1409 121.129C94.3957 120.999 92.6691 120.556 90.9796 120.131C90.3855 119.983 89.81 119.835 89.2159 119.706C85.4656 118.837 82.1609 118.024 79.1533 117.192C77.0182 116.601 74.8274 116.268 72.7109 115.935C71.7827 115.787 70.8358 115.64 69.9075 115.473C65.953 114.771 62.4998 113.847 59.3437 112.683C58.4896 112.368 57.7841 112.036 57.19 111.703C54.368 110.077 51.3233 109.171 48.7241 108.524C48.0557 108.358 47.5358 108.192 47.0531 107.988C46.7375 107.859 46.5704 107.6 46.589 107.249C46.6075 106.898 46.7746 106.639 47.0903 106.51C47.6658 106.288 48.2228 106.122 48.7612 106.029C51.2304 105.623 53.6996 105.216 56.1689 104.828C58.8052 104.403 61.423 103.978 64.0593 103.553C66.5657 103.146 69.035 102.924 71.4114 102.924C73.0637 102.924 74.7161 103.017 76.3313 103.22C77.0925 103.312 77.8722 103.331 78.6148 103.349C78.8748 103.349 79.1533 103.368 79.4132 103.368C80.3786 103.405 81.344 103.423 82.2909 103.442C84.8715 103.497 87.545 103.553 90.1442 103.941C92.0936 104.218 93.9501 104.643 95.621 105.198C98.6473 106.196 102.23 107.434 105.684 109.005L106.538 109.393C108.45 110.243 110.436 111.149 112.386 111.98C114.298 112.793 115.876 113.828 117.176 115.104C118.494 116.397 119.942 117.488 121.483 118.338C122.579 118.929 123.525 119.281 124.472 119.41C125.939 119.613 127.368 119.816 128.817 119.816C129.318 119.816 129.801 119.798 130.265 119.743C131.156 119.65 132.288 119.447 133.328 118.782L134.293 118.153C135.946 117.1 137.635 115.991 139.288 114.882C139.752 114.568 140.142 114.143 140.494 113.755C140.606 113.644 140.699 113.533 140.81 113.422C141.887 112.294 142.945 111.149 144.022 110.003L144.43 109.578C144.857 109.134 145.303 108.672 145.674 108.173C147.215 106.177 148.979 104.384 150.687 102.629C154.567 98.6735 158.466 94.626 162.439 90.4861C164.89 87.9357 167.489 85.6624 170.2 83.7218C171.295 82.9271 172.39 82.0955 173.449 81.2823C174.618 80.3951 175.825 79.4711 177.05 78.6024C181.283 75.6084 186.277 72.0784 191.42 68.6039C193.091 67.4765 194.892 66.4785 196.637 65.4989L197.361 65.1108C198.401 64.5379 199.441 63.9834 200.48 63.4475C202.003 62.6528 203.562 61.8396 205.066 60.934C209.15 58.4944 213.662 56.2766 219.269 53.9479C223.409 52.2291 227.178 49.7896 230.445 46.7216C230.91 46.2965 231.337 45.816 231.708 45.317C231.875 45.0952 231.931 44.7995 231.819 44.5408C231.726 44.282 231.485 44.0787 231.188 44.0233L230.798 43.9494C229.628 43.7276 228.403 43.4873 227.178 43.4873C226.769 43.4873 226.379 43.5058 226.008 43.5612C224.523 43.7645 222.982 43.8754 221.404 43.8754C219.603 43.8754 217.746 43.7461 215.741 43.4873C215.073 43.3949 214.349 43.3579 213.551 43.3579C212.864 43.3579 212.195 43.3949 211.397 43.4319C206.384 43.7091 201.204 44.4483 196.006 45.6312C195.3 45.7975 194.613 45.9454 193.908 46.1117C192.051 46.5368 190.158 46.9803 188.264 47.35C184.309 48.1077 180.318 49.4014 176.363 51.2126C171.443 53.4489 166.245 55.907 161.492 58.938C161.269 59.0673 161.065 59.2152 160.842 59.3446L160.453 59.5848C158.949 60.5089 158.262 61.8581 158.299 63.7062C158.373 66.5154 158.206 69.3616 157.798 72.1339C156.851 78.51 154.344 84.3317 150.297 89.4327C149.035 91.0406 147.531 92.4267 146.38 93.4617C143.354 96.16 140.067 98.692 136.596 101.021C135.463 101.778 134.405 102.684 133.384 103.553L132.752 104.089C131.769 104.92 130.822 105.752 129.856 106.602C128.928 107.415 128 108.229 127.053 109.023C125.772 110.114 124.565 111.352 123.451 112.72C123.135 113.089 122.801 113.514 122.411 113.828C122.226 113.976 122.022 114.069 121.817 114.069C121.427 114.069 121.112 113.791 121 113.348C120.796 112.572 120.815 111.777 121.075 110.964L121.279 110.298C121.613 109.263 121.947 108.192 122.393 107.194C123.414 104.902 124.491 102.61 125.549 100.337C126.236 98.8768 126.904 97.4167 127.573 95.9382C128.13 94.7184 128.705 93.4617 129.169 92.168C129.949 89.9132 131.174 87.6954 132.92 85.3667C134.219 83.6294 135.37 82.0585 136.466 80.3767C138.211 77.6968 140.253 75.1648 142.537 72.8546L142.722 72.6698C143.094 72.3002 143.521 71.8936 143.743 71.2282L143.966 70.5629L143.279 70.6923C143.186 70.7108 143.112 70.7292 143.038 70.7292C142.871 70.7477 142.722 70.7847 142.555 70.8401C138.396 72.6513 133.885 73.4461 129.522 74.2223L129.058 74.2962C128.761 74.3517 128.464 74.3886 128.185 74.4071C128 74.4071 127.87 74.4071 127.721 74.4071C124.342 74.4071 121.186 75.4975 118.29 76.6619C114.465 78.1958 110.734 79.7483 107.15 81.7998C105.702 82.6314 104.143 83.3337 102.639 84.036C101.952 84.3502 101.265 84.6644 100.578 84.9971L95.0641 87.64C94.6371 87.8433 94.2286 88.0465 93.8016 88.1944C93.6902 88.2314 93.5788 88.2499 93.486 88.2499C93.2261 88.2499 92.9847 88.1205 92.8548 87.9172C92.6691 87.603 92.6691 87.3258 92.8548 87.0116C93.0033 86.7713 93.1518 86.5865 93.3003 86.4202L93.5603 86.106C93.8759 85.7363 94.1729 85.4037 94.5071 85.0895C96.9021 82.8902 99.0928 80.4321 101.191 78.0665C102.063 77.0869 102.936 76.0889 103.846 75.1279C105.071 73.7972 106.296 72.485 107.522 71.1543L108.691 69.8976C110.288 68.1603 111.625 66.4785 112.757 64.7412C113.741 63.2257 114.967 61.932 116.415 60.897C117.25 60.2871 118.086 59.6772 118.865 59.0489C121.038 57.367 123.618 56.1472 126.774 55.3156C129.726 54.5393 132.493 54.1697 135.203 54.1697C137.357 54.1697 139.473 54.41 141.516 54.909C143.335 55.3525 145.173 55.8515 146.937 56.332C147.679 56.5353 148.422 56.7386 149.183 56.9419C149.387 56.9974 149.592 57.0528 149.796 57.1268C149.982 57.1822 150.167 57.2377 150.353 57.2931C151.04 57.4779 151.69 57.5703 152.339 57.5703C153.565 57.5703 154.734 57.2377 155.923 56.5538C160.768 53.7631 165.985 51.6377 170.478 49.8635C170.571 49.8265 170.664 49.808 170.757 49.7895C171.109 49.6971 171.648 49.5678 171.87 48.9394L171.963 48.6437L171.703 48.4773C171.685 48.4589 171.648 48.4404 171.629 48.4219C171.536 48.3295 171.369 48.2186 171.165 48.2186C169.605 48.2001 168.009 48.0153 166.486 47.8305C165.688 47.7381 164.89 47.6457 164.091 47.5718C163.405 47.5163 162.736 47.4793 162.086 47.4793C159.896 47.4793 157.928 47.849 156.071 48.5882C155.254 48.9209 154.4 49.1981 153.565 49.4754C153.249 49.5863 152.933 49.6787 152.618 49.7895C151.3 50.2331 149.926 50.5103 148.533 50.5843C145.693 50.7506 142.648 50.9169 139.529 50.9169C139.083 50.9169 138.619 50.9169 138.174 50.9169C137.728 50.9169 137.301 50.8984 136.856 50.8984C136.113 50.88 135.352 50.8615 134.609 50.8615H133.718C129.206 50.8615 124.509 49.8265 119.404 47.6826C116.266 46.3704 113.444 45.1691 110.696 43.7645C107.113 41.9164 103.233 40.8075 99.8912 39.9019C99.2414 39.7171 98.5916 39.5507 97.9418 39.3659C96.8835 39.0702 95.8439 38.793 94.7856 38.5157C93.5603 38.2016 92.1864 37.9798 90.4784 37.8504C90.3484 37.8319 90.2185 37.8319 90.0885 37.8319C89.8286 37.8134 89.5686 37.8134 89.3087 37.758C88.9188 37.6841 88.6775 37.4993 88.5661 37.1851C88.4361 36.797 88.529 36.4458 88.8632 36.1686C89.7729 35.3924 90.8125 34.8933 91.9265 34.6531C92.6505 34.5052 93.3746 34.4128 94.0801 34.3574C95.9553 34.2465 97.9604 33.9323 100.188 33.3963C101.488 33.0821 102.565 32.8788 103.549 32.768C105.572 32.5277 107.67 32.0102 110.158 31.1416C110.529 31.0122 110.919 30.8828 111.291 30.7535C112.015 30.5132 112.72 30.2544 113.426 29.9957C116.619 28.7944 120.128 28.1291 124.472 27.8888C124.769 27.8703 125.048 27.8703 125.345 27.8703C127.424 27.8703 129.429 28.2769 131.453 29.1086C132.994 29.737 134.591 30.2545 136.15 30.735C137.041 31.0122 137.932 31.3079 138.805 31.6036C139.566 31.8624 140.309 32.1211 141.07 32.3798C143.224 33.1006 145.47 33.8584 147.587 34.7825C151.56 36.5013 154.939 38.4233 157.909 40.6596C158.28 40.9368 158.652 41.1956 159.023 41.4543L159.413 41.7315C160.23 42.3045 161.121 42.6372 162.068 42.7111C162.94 42.785 163.794 42.8959 164.648 42.9883C166.189 43.1731 167.805 43.3579 169.401 43.3764C171.016 43.3949 172.595 43.6352 174.117 44.0972C175.398 44.4853 176.679 44.6886 177.997 44.6886C179.148 44.6886 180.299 44.5408 181.543 44.2451C182.713 43.9678 183.883 43.6906 185.052 43.4319C187.02 42.9698 189.062 42.5078 191.067 42.0088C192.998 41.5283 195.096 41.251 197.64 41.1586C199.496 41.0847 201.167 40.8075 202.764 40.327C204.379 39.8279 206.031 39.5507 207.665 39.4768C209.429 39.4029 211.211 39.1441 212.919 38.9039C214.052 38.7375 215.24 38.5712 216.391 38.4603C217.672 38.3309 218.86 38.2755 219.974 38.2755C220.958 38.2755 221.905 38.3309 222.815 38.4233C223.465 38.4973 224.17 38.5157 224.968 38.5157C225.748 38.5157 226.509 38.4788 227.289 38.4603C228.05 38.4233 228.812 38.4049 229.573 38.4049C229.777 38.4049 231.225 38.4233 231.225 38.4233C233.249 38.4603 235.365 38.4788 237.352 39.0332C237.556 39.0887 237.76 39.1256 237.964 39.1256C238.391 39.1256 238.818 38.9963 239.227 38.719C239.784 38.3679 241.956 36.9818 242.495 36.6306C243.219 36.1686 243.757 35.5402 244.203 34.9858C245.521 33.3224 247.099 31.7699 249.048 30.2175C250.311 29.2195 251.573 28.1845 252.817 27.168C253.764 26.3918 254.729 25.5971 255.695 24.8393C257.291 23.5641 259.074 22.4552 260.967 21.5866C262.323 20.9582 263.659 20.3298 264.996 19.6829C265.739 19.3318 266.481 18.9807 267.243 18.611C269.545 17.5206 271.364 16.2454 272.831 14.6744C273.406 14.046 274.149 13.5286 275.022 13.1405C277.565 11.9946 279.793 10.4421 281.65 8.57548C283.376 6.81973 285.604 5.54449 288.649 4.54648C290.71 3.86266 292.325 3.10492 293.699 2.14387C294.961 1.25675 296.484 0.646861 298.619 0.147857C299.064 0.0369667 299.491 0 299.9 0C300.679 0 301.404 0.184819 302.072 0.572933C302.313 0.702305 302.555 0.831675 302.815 0.961046C303.242 1.18283 303.631 1.38612 304.003 1.64487C305.042 2.38413 305.265 3.34518 304.69 4.528C304.615 4.69434 304.523 4.84219 304.411 4.99005C302.87 7.1524 301.032 9.01904 298.99 10.5715C298.099 11.2368 297.115 11.7174 296.02 12.0131C292.919 12.8447 290.208 14.3972 287.461 16.0421C281.575 19.5721 275.244 22.9727 268.097 26.3918C266.556 27.1311 265.219 27.9443 264.012 28.8499L262.304 30.1436C260.782 31.2894 259.222 32.4907 257.7 33.692C254.432 36.2795 251.146 38.5897 247.192 41.3619L245.688 42.4154C242.773 44.4299 239.765 46.5183 236.999 48.847C233.861 51.4899 230.984 54.336 228.44 57.3485C225.971 60.2502 223.557 63.2627 221.218 66.1828L219.306 68.5484C217.951 70.2302 216.781 72.1154 215.704 74.3147C215.444 74.8322 215.203 75.3681 214.962 75.8856C214.572 76.6988 214.182 77.5305 213.773 78.3437L213.551 78.7688C213.086 79.6928 212.604 80.6539 212.047 81.5041C210.153 84.3872 208.538 87.5291 207.108 91.133C206.143 93.5541 205.14 95.4762 203.952 97.158C203.042 98.4517 202.318 99.9857 201.743 101.852L201.594 102.333C200.796 104.883 199.979 107.508 200.22 110.335C200.295 111.13 200.257 111.943 200.239 112.738C200.239 112.997 200.22 113.274 200.22 113.533C200.202 114.863 200.462 116.102 201.037 117.266C201.965 119.151 203.042 120.63 204.342 121.794C205.901 123.199 207.294 124.714 208.705 126.285C209.41 127.08 210.227 127.874 211.174 128.762C214.108 131.497 216.41 134.417 218.211 137.744C221.274 143.381 223.112 148.981 223.78 154.858C224.133 157.852 224.727 160.199 225.674 162.232C226.992 165.097 227.735 168.22 228.032 172.101C228.255 175.077 228.385 178.292 227.828 181.508C227.53 183.153 227.512 184.816 227.493 186.443C227.493 186.979 227.475 187.515 227.456 188.051C227.438 188.827 227.326 189.326 226.806 189.659C226.732 189.714 226.639 189.733 226.547 189.733C226.379 189.733 226.194 189.64 226.157 189.455C226.138 189.289 226.101 189.123 226.12 188.993C226.398 187.533 225.785 186.35 225.154 185.278C223.483 182.451 221.367 179.771 218.693 177.073C215.63 173.986 212.901 170.493 210.394 166.427C208.965 164.117 207.962 161.64 207.164 159.515C205.79 155.856 204.695 152.067 203.933 148.26C203.172 144.434 202.021 140.59 200.443 136.524C198.921 132.624 197.862 128.355 197.064 123.051C196.897 121.923 196.711 120.778 196.544 119.669L196.303 118.042L196.062 117.968C195.932 117.931 195.82 117.913 195.709 117.913C195.133 117.913 195.022 118.43 194.985 118.597C193.982 122.626 192.72 126.618 191.16 130.813C190.381 132.883 189.768 135.008 189.155 137.078C188.895 137.965 188.635 138.853 188.357 139.74C188.041 140.775 188.097 141.865 188.561 143.177C189.786 146.652 190.733 150.293 191.569 153.675C191.921 155.098 192.163 156.595 192.311 158.221L192.478 160.125C192.738 163.008 192.998 165.984 193.202 168.922C193.425 172.12 193.778 174.762 194.335 177.22C195.375 181.896 195.765 186.979 195.505 193.263C195.43 195.018 195.059 196.811 194.706 198.548C194.149 201.247 193.574 204.352 193.518 207.53C193.5 208.695 193.351 209.896 193.221 211.042C193.165 211.541 193.091 212.04 193.054 212.539C193.035 212.687 192.998 212.853 192.943 213.038C192.775 213.518 192.478 213.611 192.256 213.648C192.219 213.648 192.181 213.648 192.163 213.648C191.884 213.648 191.662 213.5 191.494 213.186C190.808 211.947 190.381 210.58 190.028 209.286C189.749 208.288 189.489 207.272 189.229 206.274C189.025 205.442 188.802 204.61 188.58 203.779C188.283 202.688 187.986 201.616 187.67 200.526L187.54 200.045C186.89 197.791 185.98 195.628 184.737 193.429C183.882 191.913 183.103 190.342 182.342 188.808C181.45 187.016 180.838 185.094 180.355 182.691C180.039 181.139 179.65 179.586 179.278 178.089C179.148 177.572 179.018 177.073 178.888 176.555C177.904 172.563 177.533 169.44 177.663 166.427C177.756 164.394 178.276 162.398 178.777 160.476L179.222 158.794C180.299 154.728 181.413 150.533 181.896 146.245C182.342 142.346 183.381 138.631 184.495 134.861L185.256 132.255C186.148 129.224 187.076 126.063 188.078 123.014C189.174 119.669 190.548 116.36 191.884 113.163C192.386 111.98 192.868 110.797 193.351 109.615C194.595 106.547 195.839 103.46 197.083 100.392C198.494 96.8623 200.128 93.166 201.91 89.4511C202.096 89.0815 202.263 88.7119 202.448 88.3423L202.875 87.4551L202.504 87.2703C202.337 87.1964 202.17 87.1409 202.021 87.1409C201.594 87.1409 201.371 87.4367 201.241 87.603C201.223 87.6399 201.186 87.6769 201.167 87.6954C197.213 91.8538 193.815 96.3448 191.086 101.058C189.378 103.996 187.28 106.731 185.238 109.393L184.291 110.631C183.92 111.13 183.53 111.611 183.158 112.091C182.471 112.978 181.747 113.902 181.079 114.845C178.888 117.876 175.844 120.334 171.481 122.533C166.746 124.936 161.659 126.562 157.259 127.911C155.978 128.3 154.716 128.706 153.453 129.113C152.395 129.445 151.337 129.797 150.26 130.129C149.276 130.425 148.236 130.739 146.937 131.072C146.714 131.127 146.547 131.164 146.38 131.164C146.064 131.164 145.86 131.072 145.674 130.85C145.359 130.462 145.34 130.037 145.637 129.372C145.804 129.002 145.971 128.651 146.157 128.3L146.231 128.152C146.491 127.671 146.751 127.191 147.048 126.747L148.311 124.807C151.578 119.743 154.957 114.512 158.912 109.818C162.402 105.66 166.301 101.446 171.184 96.5666C172.687 95.0511 174.08 93.7204 175.769 92.7039C178.201 91.2439 180.912 90.3013 183.827 89.8947C184.235 89.8393 184.644 89.7838 185.052 89.7099C185.98 89.5805 186.927 89.4327 187.856 89.3403C190.436 89.063 192.961 88.0835 195.542 86.3093C199.478 83.6294 203.265 80.6539 206.774 77.4751C208.501 75.9226 209.949 74.0744 211.36 72.3187L212.158 71.3207C213.718 69.3801 215.147 67.3101 216.54 65.2956C217.171 64.3716 217.802 63.4475 218.452 62.5419C218.638 62.2831 218.786 62.0244 218.897 61.7472C219.009 61.4699 218.842 61.1927 218.73 61.0449C218.638 60.897 218.47 60.8231 218.266 60.8231H218.173L218.025 60.8785L217.821 60.9709C217.561 61.0818 217.301 61.1927 217.059 61.3406C215.481 62.3386 213.662 63.2811 211.323 64.2976C208.167 65.6653 205.196 67.2917 202.504 69.1029C200.963 70.1378 199.329 71.0804 197.733 71.986C197.231 72.2817 196.73 72.5589 196.229 72.8546C193.128 74.6658 190.046 76.477 186.946 78.3067L183.233 80.4876C179.204 82.8532 175.305 85.9027 171.295 89.7838C167.396 93.5726 163.702 97.6755 160.137 101.649L158.076 103.922C155.533 106.75 152.915 109.522 150.279 112.202C148.478 114.032 146.9 116.083 145.433 118.005C144.635 119.059 144.078 120.297 143.799 121.665C143.001 125.546 142.629 128.762 142.611 131.811C142.611 132.55 142.537 133.364 142.407 134.38L142.017 137.226C141.237 142.882 140.439 148.74 139.603 154.507C139.065 158.258 139.009 162.139 139.455 166.353C139.715 168.867 140.364 171.343 141.386 173.709C142.797 176.999 144.17 180.381 145.507 183.634L145.823 184.391C146.12 185.094 146.398 185.851 146.528 186.628C146.862 188.531 147.865 189.991 149.629 191.119C151.114 192.061 152.599 193.022 154.103 193.965C158.782 196.922 162.569 201.043 165.391 206.255C166.375 208.066 167.34 209.859 168.38 211.578C168.77 212.243 169.234 212.89 169.661 213.5C170.07 214.091 170.497 214.683 170.868 215.293C174.21 220.782 177.217 226.437 179.817 232.111C182.063 237.027 184.477 241.98 186.816 246.748C187.429 248.005 187.893 248.985 188.264 249.909C188.58 250.648 188.691 251.276 188.617 251.886C188.542 252.552 188.134 252.94 187.484 252.94H187.391C186.482 252.884 185.683 252.441 184.941 251.997C182.434 250.482 180.652 249.151 179.148 247.691C177.347 245.935 175.379 244.069 173.244 242.331C170.292 239.947 167.879 237.545 165.837 234.939C165.224 234.162 164.5 233.46 163.813 232.832C161.344 230.558 159.283 228.008 157.408 225.568C156.684 224.626 156.034 223.609 155.291 222.39C154.623 221.299 153.936 220.227 153.249 219.155C152.024 217.233 150.761 215.256 149.629 213.241C147.122 208.75 145.34 203.797 144.319 198.53C143.409 193.854 142.221 189.825 140.643 186.203C140.364 185.556 140.03 184.927 139.715 184.317C139.566 184.022 139.418 183.744 139.269 183.449L139.083 183.098L138.731 183.264C137.932 183.634 138.081 184.262 138.137 184.539C138.155 184.613 138.174 184.669 138.174 184.706C138.229 190.398 138.601 196.146 138.953 201.727C139.121 204.241 139.269 206.754 139.399 209.249C139.492 211.042 139.77 212.835 140.049 214.572C140.16 215.219 140.253 215.866 140.346 216.531C140.699 218.897 141.85 220.56 144.003 221.761C146.064 222.907 148.106 224.145 150.093 225.365C150.798 225.79 151.504 226.234 152.228 226.659C155.291 228.507 158.54 230.577 161.399 233.257C162.699 234.458 163.72 235.53 164.593 236.602C165.205 237.341 165.837 238.062 166.468 238.801C167.767 240.28 169.123 241.832 170.2 243.514C171.648 245.787 172.687 248.245 173.374 251.036C175.082 257.967 176.401 264.398 177.44 270.682C178.183 275.229 179.334 280.514 182.082 285.264C182.304 285.634 182.49 286.059 182.657 286.484C182.917 287.186 182.713 287.463 182.434 287.63C182.323 287.704 182.212 287.741 182.1 287.741C181.859 287.741 181.599 287.593 181.358 287.316C181.116 287.038 180.912 286.743 180.671 286.373C180.132 285.541 179.575 284.71 179.018 283.878C177.719 281.919 176.363 279.904 175.138 277.871C173.17 274.6 170.887 271.588 168.362 268.908C167.062 267.522 165.818 266.043 164.797 264.768C164.221 264.066 163.646 263.363 163.052 262.661C161.288 260.536 159.45 258.355 157.909 256.008C156.498 253.864 154.901 251.794 153.379 249.798C152.748 248.966 152.117 248.153 151.504 247.321C151.3 247.044 151.058 246.804 150.836 246.564L150.65 246.379C150.52 246.249 150.353 246.212 150.223 246.212H150.074L149.907 246.323C149.74 246.453 149.462 246.674 149.536 246.989L149.722 247.894C149.926 248.911 150.13 249.946 150.39 250.962C152.098 257.338 153.917 264.121 155.755 270.756C156.294 272.715 157.018 274.656 157.649 276.374C158.447 278.537 158.8 280.773 158.707 283.194C158.633 285.412 158.874 287.741 159.524 290.735C159.784 291.899 160.007 293.063 160.23 294.246L160.36 294.912C160.415 295.226 160.471 295.558 160.49 295.873C160.545 296.649 160.267 296.889 159.988 297C159.84 296.741 159.729 296.778 159.636 296.778ZM114.242 157.815C113.908 157.852 113.685 158.166 113.611 158.314C113.5 158.499 113.388 158.776 113.5 159.016C113.574 159.201 113.797 159.349 114.02 159.349C114.335 159.349 114.54 159.071 114.651 158.924C114.762 158.757 114.929 158.443 114.818 158.166C114.744 157.981 114.577 157.907 114.502 157.87L114.391 157.796L114.242 157.815Z" fill="#F4E8E1"/>
</svg>
