<svg width="215" height="246" viewBox="0 0 215 246" fill="none" xmlns="http://www.w3.org/2000/svg">
<path opacity="0.5" d="M82.5809 245.816C82.9043 245.816 83.1815 245.525 83.3509 245.281C83.5357 245.005 83.6897 244.729 83.8592 244.423L84.0131 244.148C84.4751 243.321 84.9372 242.479 85.3838 241.653C86.3694 239.846 87.3858 237.994 88.4639 236.203L89.1415 235.07C91.1589 231.687 93.2534 228.197 95.7791 225.043C97.9351 222.334 99.7986 219.517 101.292 216.67C103.726 212.047 105.112 207.485 105.528 202.724C105.697 200.719 105.851 198.071 105.42 195.438L105.404 195.346C105.358 195.024 105.297 194.703 105.312 194.366C105.404 191.611 104.542 189.024 103.71 186.819C103.079 185.135 102.817 183.252 102.879 181.063C102.94 179.027 102.986 176.624 102.817 174.221C102.648 171.955 102.725 169.781 103.033 167.776C103.495 164.73 103.495 161.699 103.433 159.112C103.402 157.688 103.525 156.264 103.633 154.887C103.957 151.014 103.833 147.217 103.649 143.681C103.602 142.809 103.572 141.921 103.556 141.048L103.51 139.655L103.679 139.548C103.818 139.471 103.957 139.426 104.095 139.426C104.449 139.426 104.634 139.701 104.727 139.854L104.819 139.992C105.096 140.421 105.404 140.864 105.62 141.339C107.391 145.12 108.238 148.626 108.207 152.024C108.207 152.636 108.284 153.279 108.346 153.815L108.592 155.637C108.9 157.887 109.208 160.198 109.578 162.464C110.009 165.128 110.394 167.148 110.841 169.047C111.349 171.19 112.35 173.118 113.69 175.384C113.998 175.905 114.337 176.425 114.66 176.945C115.969 178.981 116.955 181.216 117.909 183.375C118.217 184.064 118.525 184.753 118.833 185.441C120.25 188.503 121.39 191.733 122.329 195.315C122.483 195.897 122.684 196.494 122.884 197.045C122.976 197.32 123.084 197.535 123.207 197.703C123.33 197.872 123.5 197.963 123.7 197.963C123.916 197.963 124.1 197.856 124.239 197.673C124.47 197.351 124.609 196.953 124.655 196.433L124.747 195.529C124.855 194.458 124.978 193.356 124.994 192.284L125.009 191.58C125.132 186.192 125.255 180.635 125.286 175.154C125.302 173.256 125.194 171.327 125.086 169.46C125.04 168.618 124.994 167.791 124.963 166.949L124.932 166.138C124.901 165.419 124.886 164.668 124.809 163.949C124.547 161.301 123.885 158.499 122.761 155.392C121.559 152.039 119.265 149.36 115.938 147.401C115.599 147.202 115.261 147.003 114.922 146.819C114.075 146.345 113.366 145.641 112.797 144.691C112.227 143.742 111.657 142.809 111.087 141.859C110.517 140.926 109.947 140.007 109.393 139.073C108.192 137.068 107.021 135.599 105.682 134.45C104.511 133.44 103.864 132.17 103.726 130.593C103.649 129.72 103.556 128.848 103.464 127.96C103.325 126.689 103.187 125.357 103.094 124.056C102.863 120.78 102.417 117.811 101.724 114.979C101.077 112.33 100.83 110.126 100.938 108.044V107.952C100.938 107.769 100.938 107.233 101.493 107.187C101.493 107.187 101.493 107.187 101.508 107.187C101.862 107.187 102.17 107.371 102.355 107.539L102.617 107.784C103.079 108.197 103.541 108.641 103.941 109.131C105.358 110.922 106.821 112.835 108.561 115.147C110.132 117.229 111.395 119.54 112.596 121.775C112.843 122.235 113.089 122.679 113.336 123.138C114.891 125.954 116.647 129.154 118.572 132.139C119.85 134.114 121.282 135.905 122.838 137.466L123.792 138.415C124.901 139.517 126.025 140.635 127.15 141.722C129.013 143.513 130.769 145.518 132.524 147.83C134.188 150.049 135.959 152.238 137.668 154.366C138.469 155.361 139.254 156.341 140.04 157.336C141.796 159.54 143.428 161.898 145.014 164.179L145.784 165.281C146.739 166.643 147.678 168.036 148.618 169.429C149.681 170.991 150.774 172.613 151.883 174.19C153.022 175.797 154.301 177.359 155.502 178.813C156.488 179.992 157.027 181.354 157.15 183.007C157.365 185.702 158.012 188.381 158.628 190.968C158.751 191.488 158.875 192.009 158.998 192.529C159.737 195.683 160.63 199.326 161.908 202.847C164.265 209.291 167.345 214.404 171.334 218.476C172.473 219.64 173.52 220.681 174.552 221.676C176.015 223.084 177.016 224.584 177.602 226.253C178.233 228.028 179.203 229.773 180.574 231.565C181.421 232.667 182.175 233.845 182.915 234.978C183.238 235.468 183.561 235.973 183.885 236.463C183.993 236.616 184.085 236.769 184.177 236.922C184.347 237.183 184.516 237.458 184.701 237.703C184.886 237.963 185.086 238.086 185.286 238.086C185.348 238.086 185.41 238.07 185.487 238.055C185.594 238.025 185.933 237.902 185.979 237.32L185.995 237.06C186.026 236.555 186.072 236.019 186.026 235.529C185.748 232.743 185.394 229.758 184.639 226.788C183.916 223.926 183.13 220.527 182.745 217.007C182.53 215.001 181.975 212.904 181.036 210.623C179.804 207.577 178.356 204.592 177.109 202.081C176.831 201.515 176.57 201.056 176.308 200.658C172.427 194.795 168.823 190.172 164.973 186.084C162.986 183.987 161.631 182.028 160.676 179.946C160.045 178.538 159.121 176.746 157.612 175.308C157.073 174.802 156.595 174.113 156.087 173.164C154.67 170.501 152.868 168.113 150.99 165.709C150.635 165.25 150.297 164.776 149.958 164.316L149.403 163.551L149.496 163.367C149.711 162.954 149.989 162.862 150.204 162.862C150.374 162.862 150.528 162.923 150.635 162.969C151.944 163.474 153.284 163.765 154.547 164.025C156.657 164.469 158.644 165.25 160.445 166.352L160.661 166.49C162.386 167.546 164.172 168.633 165.851 169.843C169.901 172.766 174.506 175.292 179.511 177.359C181.005 177.971 182.53 178.339 183.823 178.614C188.397 179.594 192.478 180.237 196.298 180.573L197.53 180.681C198.746 180.788 199.963 180.895 201.18 181.002C203.428 181.186 205.245 181.553 206.893 182.135C207.91 182.502 208.941 182.87 209.958 183.237C210.897 183.574 211.837 183.926 212.776 184.263C213.269 184.446 213.715 184.599 214.162 184.661C214.208 184.661 214.239 184.676 214.285 184.676C214.516 184.676 214.717 184.584 214.855 184.416C214.994 184.232 215.04 183.972 214.963 183.696C214.84 183.283 214.593 182.931 214.27 182.502C212.499 180.191 210.374 177.956 207.586 175.461C205.399 173.486 202.843 171.664 199.562 169.705C197.545 168.495 195.558 167.194 193.633 165.939C193.048 165.556 192.463 165.174 191.862 164.791C190.599 163.98 189.167 163.291 187.211 162.571C184.162 161.454 180.974 160.581 177.894 159.755L176.323 159.326C175.907 159.219 175.492 159.096 175.076 158.989C173.166 158.438 171.072 158.163 168.654 158.163C167.915 158.163 167.145 158.178 166.313 158.239C164.85 158.316 163.356 158.714 161.708 159.464C161.246 159.663 160.8 159.892 160.353 160.107C159.814 160.382 159.244 160.52 158.674 160.52C158.459 160.52 158.228 160.505 158.012 160.459C157.535 160.382 157.042 160.306 156.565 160.229C155.779 160.107 154.963 159.984 154.162 159.816C151.898 159.357 150.096 158.576 148.633 157.443L148.541 157.367C148.356 157.213 148.171 157.076 147.986 156.969C144.999 155.208 142.643 152.851 140.009 149.85C138.839 148.518 137.591 147.233 136.375 145.993C135.682 145.288 135.004 144.584 134.326 143.88C132.709 142.166 131.092 140.39 129.537 138.691L128.844 137.925C127.104 136.027 125.225 134.022 123.13 132.261C121.683 131.037 120.682 129.445 119.696 127.776C119.157 126.873 118.633 125.97 118.094 125.082C116.015 121.607 113.859 118.01 112.042 114.29C110.979 112.116 109.593 110.065 108.269 108.075L108.13 107.86C107.976 107.631 107.807 107.401 107.637 107.171C107.376 106.819 107.098 106.437 106.867 106.039C106.806 105.932 106.698 105.809 106.575 105.687C106.267 105.35 105.728 104.783 106.251 104.11C106.405 103.911 106.636 103.788 106.914 103.788C107.16 103.788 107.422 103.88 107.653 103.972C107.822 104.033 108.007 104.095 108.13 104.11L108.7 104.171C109.516 104.248 110.332 104.34 111.149 104.416C111.303 104.431 111.472 104.431 111.626 104.447C111.919 104.462 112.227 104.462 112.535 104.523C114.229 104.875 115.923 105.258 117.617 105.641L117.832 105.687C118.464 105.824 119.08 106.131 119.758 106.651C122.283 108.534 124.932 110.616 127.027 113.295C128.474 115.162 130.23 116.785 132.232 118.147C134.172 119.464 135.928 120.245 137.776 120.627C138.731 120.826 139.686 121.025 140.64 121.224C142.473 121.607 144.352 122.005 146.215 122.357C149.188 122.923 152.314 123.781 156.041 125.051C158.767 125.985 161.708 126.858 164.835 126.949C166.79 127.011 168.7 127.516 170.487 128.45C172.134 129.307 173.905 130.026 175.907 130.639C177.032 130.991 178.156 131.45 179.234 132.016C179.511 132.169 179.727 132.231 179.912 132.231C180.096 132.231 180.25 132.169 180.389 132.016C180.497 131.909 180.805 131.603 180.25 130.761C180.173 130.639 180.066 130.516 179.973 130.394C177.925 128.067 175.599 125.419 172.935 123.214C171.287 121.852 169.593 120.428 167.807 119.112C167.314 118.744 166.806 118.285 166.267 117.703C164.527 115.836 162.417 114.32 159.845 113.034C158.782 112.514 157.75 111.963 156.703 111.412L156.087 111.09C154.347 110.172 152.56 109.544 150.789 109.223C149.804 109.039 148.818 108.855 147.848 108.672C145.338 108.197 142.735 107.692 140.148 107.34C138.792 107.156 137.499 106.804 135.99 106.33C135.266 106.1 134.542 105.87 133.818 105.641C131.939 105.044 130.014 104.431 128.089 103.896C125.794 103.253 123.315 102.64 120.697 102.503C119.372 102.426 117.832 102.288 116.277 101.86C115.661 101.691 115.723 101.247 115.753 101.11C115.8 100.941 115.923 100.788 116.154 100.666C116.662 100.39 117.201 100.283 117.725 100.176L117.863 100.145C119.188 99.8696 120.574 99.7471 122.083 99.7471C123.192 99.7471 124.378 99.8236 125.717 99.9767C126.549 100.069 127.396 100.16 128.243 100.298C129.183 100.451 130.199 100.528 131.339 100.528C132.694 100.528 134.111 100.421 135.25 100.329C136.698 100.222 138.13 99.8543 139.532 99.5022C140.024 99.3797 140.502 99.2573 140.995 99.1501C144.106 98.4306 146.847 97.7571 149.342 97.0682C151.113 96.5783 152.93 96.3028 154.686 96.0273C155.456 95.9048 156.241 95.7823 157.011 95.6446C160.291 95.0629 163.156 94.2974 165.774 93.333C166.482 93.0728 167.068 92.7973 167.56 92.5217C169.901 91.1746 172.427 90.4245 174.583 89.8887C175.137 89.751 175.569 89.6132 175.969 89.4448C176.231 89.3377 176.369 89.1233 176.354 88.8325C176.339 88.5416 176.2 88.3273 175.938 88.2202C175.461 88.0365 174.999 87.8987 174.552 87.8222C172.504 87.4854 170.456 87.1486 168.407 86.8271C166.221 86.475 164.049 86.123 161.862 85.7709C159.783 85.4341 157.735 85.2504 155.764 85.2504C154.393 85.2504 153.022 85.327 151.683 85.4953C151.051 85.5719 150.404 85.5872 149.788 85.6025C149.573 85.6025 149.342 85.6178 149.126 85.6178C148.325 85.6484 147.524 85.6637 146.739 85.679C144.598 85.7249 142.381 85.7709 140.225 86.0923C138.608 86.322 137.068 86.6741 135.682 87.1333C133.171 87.9599 130.199 88.9856 127.335 90.2867L126.626 90.6082C125.04 91.3124 123.392 92.0625 121.775 92.7513C120.189 93.4249 118.88 94.2821 117.802 95.3384C116.708 96.41 115.507 97.3131 114.229 98.0173C113.32 98.5072 112.535 98.798 111.749 98.9052C110.533 99.0736 109.347 99.2419 108.146 99.2419C107.73 99.2419 107.329 99.2266 106.944 99.1807C106.205 99.1042 105.266 98.9358 104.403 98.3847L103.602 97.8642C102.232 96.9917 100.83 96.0732 99.4597 95.1547C99.0747 94.8945 98.7513 94.5424 98.4587 94.2209C98.3663 94.1291 98.2893 94.0372 98.1969 93.9454C97.3037 93.0116 96.4259 92.0625 95.5327 91.1134L95.1938 90.7613C94.8396 90.3939 94.47 90.0112 94.162 89.5979C92.8838 87.9446 91.4207 86.4597 90.0039 85.0055C86.7852 81.7296 83.5511 78.3771 80.2554 74.9481C78.2226 72.8356 76.0665 70.9527 73.8181 69.3454C72.9094 68.6871 72.0008 67.9983 71.123 67.3247C70.1528 66.5899 69.1517 65.8245 68.1353 65.105C64.624 62.6251 60.4813 59.7013 56.2154 56.8234C54.8293 55.8896 53.3355 55.063 51.8879 54.2516L51.2872 53.9302C50.4248 53.4556 49.5624 52.9964 48.7 52.5525C47.4371 51.8942 46.1435 51.2207 44.8961 50.4706C41.508 48.4499 37.7657 46.6129 33.1147 44.6841C29.6805 43.2605 26.5541 41.2398 23.8437 38.6987C23.4587 38.3466 23.1045 37.9486 22.7964 37.5353C22.6579 37.3516 22.6116 37.1067 22.7041 36.8923C22.7811 36.678 22.9813 36.5097 23.2277 36.4637L23.5511 36.4025C24.5213 36.2188 25.5377 36.0198 26.5542 36.0198C26.893 36.0198 27.2164 36.0351 27.5244 36.081C28.7564 36.2494 30.0346 36.3413 31.3437 36.3413C32.8375 36.3413 34.3776 36.2341 36.0409 36.0198C36.5953 35.9433 37.1959 35.9126 37.8581 35.9126C38.4279 35.9126 38.9823 35.9433 39.6445 35.9739C43.8026 36.2035 48.0993 36.8158 52.4114 37.7955C52.9966 37.9333 53.5665 38.0558 54.1517 38.1935C55.6918 38.5456 57.2626 38.913 58.8335 39.2192C62.1138 39.8468 65.4248 40.9184 68.7051 42.4185C72.7862 44.2708 77.0983 46.3068 81.0408 48.8173C81.2257 48.9245 81.3951 49.0469 81.5799 49.1541L81.9033 49.3531C83.1507 50.1185 83.7205 51.236 83.6897 52.7668C83.6281 55.0936 83.7667 57.451 84.1055 59.7472C84.8909 65.0285 86.97 69.8505 90.3273 74.0755C91.3745 75.4073 92.622 76.5555 93.5768 77.4127C96.0871 79.6477 98.8129 81.7449 101.693 83.6737C102.632 84.3013 103.51 85.0514 104.357 85.7709L104.881 86.2148C105.697 86.9037 106.482 87.5925 107.283 88.2967C108.053 88.9703 108.823 89.6438 109.609 90.3021C110.671 91.2052 111.672 92.2309 112.596 93.3637C112.858 93.6698 113.135 94.0219 113.459 94.2821C113.613 94.4046 113.782 94.4811 113.952 94.4811C114.275 94.4811 114.537 94.2515 114.629 93.8841C114.799 93.2412 114.783 92.5829 114.568 91.9094L114.398 91.3583C114.121 90.5011 113.844 89.6132 113.474 88.7866C112.627 86.8884 111.734 84.9902 110.856 83.1073C110.286 81.8979 109.732 80.6886 109.177 79.464C108.715 78.4536 108.238 77.4127 107.853 76.3411C107.206 74.4735 106.19 72.6366 104.742 70.7078C103.664 69.2688 102.709 67.9676 101.801 66.5746C100.353 64.3549 98.6589 62.2578 96.7647 60.3442L96.6107 60.1912C96.3027 59.885 95.9485 59.5482 95.7636 58.9971L95.5788 58.4461L96.1487 58.5532C96.2257 58.5685 96.2873 58.5838 96.3489 58.5838C96.4875 58.5991 96.6107 58.6297 96.7493 58.6757C100.199 60.1759 103.941 60.8341 107.56 61.477L107.945 61.5383C108.192 61.5842 108.438 61.6148 108.669 61.6301C108.823 61.6301 108.931 61.6301 109.054 61.6301C111.857 61.6301 114.475 62.5333 116.878 63.4977C120.05 64.7683 123.146 66.0541 126.118 67.7533C127.319 68.4422 128.613 69.0239 129.86 69.6056C130.43 69.8658 131 70.1261 131.57 70.4016L136.144 72.5907C136.498 72.7591 136.837 72.9274 137.191 73.0499C137.283 73.0805 137.376 73.0958 137.453 73.0958C137.668 73.0958 137.868 72.9887 137.976 72.8203C138.13 72.5601 138.13 72.3304 137.976 72.0702C137.853 71.8712 137.73 71.7181 137.607 71.5803L137.391 71.3201C137.129 71.0139 136.883 70.7384 136.606 70.4781C134.619 68.6565 132.802 66.6205 131.061 64.6611C130.338 63.8498 129.614 63.0231 128.859 62.2271C127.843 61.125 126.826 60.0381 125.81 58.9359L124.84 57.895C123.515 56.456 122.406 55.063 121.467 53.624C120.651 52.3688 119.634 51.2972 118.433 50.44C117.74 49.9348 117.047 49.4296 116.4 48.9091C114.598 47.5161 112.458 46.5058 109.84 45.8169C107.391 45.174 105.096 44.8678 102.848 44.8678C101.061 44.8678 99.3058 45.0668 97.6117 45.4802C96.1025 45.8475 94.5778 46.2609 93.1148 46.6589C92.4988 46.8273 91.8828 46.9956 91.2513 47.164C91.0819 47.21 90.9125 47.2559 90.7431 47.3171C90.5891 47.363 90.4351 47.409 90.2811 47.4549C89.7113 47.608 89.1723 47.6845 88.6332 47.6845C87.6168 47.6845 86.6466 47.409 85.661 46.8426C81.6415 44.5311 77.3139 42.7706 73.5871 41.3011C73.5101 41.2704 73.4331 41.2551 73.3561 41.2398C73.0634 41.1633 72.6168 41.0561 72.432 40.5357L72.355 40.2907L72.5706 40.153C72.586 40.1376 72.6168 40.1223 72.6322 40.107C72.7092 40.0305 72.8478 39.9386 73.0172 39.9386C74.3109 39.9233 75.6353 39.7703 76.8981 39.6172C77.5603 39.5406 78.2226 39.4641 78.8848 39.4029C79.4546 39.3569 80.009 39.3263 80.548 39.3263C82.3653 39.3263 83.9978 39.6325 85.5378 40.2448C86.2154 40.5203 86.9238 40.75 87.6168 40.9796C87.8786 41.0714 88.1404 41.148 88.4023 41.2398C89.4957 41.6072 90.6353 41.8368 91.7904 41.8981C94.1466 42.0358 96.6723 42.1736 99.2596 42.1736C99.6292 42.1736 100.014 42.1736 100.384 42.1736C100.753 42.1736 101.108 42.1583 101.477 42.1583C102.093 42.143 102.725 42.1277 103.341 42.1277H104.08C107.822 42.1277 111.719 41.2704 115.954 39.4947C118.556 38.4078 120.897 37.4128 123.176 36.2494C126.149 34.7186 129.367 33.8001 132.139 33.05C132.678 32.8969 133.217 32.7592 133.757 32.6061C134.634 32.3612 135.497 32.1315 136.375 31.9019C137.391 31.6417 138.531 31.458 139.947 31.3508C140.055 31.3355 140.163 31.3355 140.271 31.3355C140.486 31.3202 140.702 31.3202 140.918 31.2743C141.241 31.2131 141.441 31.06 141.534 30.7997C141.642 30.4783 141.564 30.1874 141.287 29.9578C140.533 29.3149 139.67 28.9016 138.746 28.7026C138.146 28.5801 137.545 28.5035 136.96 28.4576C135.404 28.3658 133.741 28.1055 131.893 27.6616C130.815 27.4014 129.922 27.233 129.106 27.1411C127.427 26.9421 125.687 26.5135 123.623 25.794C123.315 25.6869 122.992 25.5797 122.684 25.4726C122.083 25.2736 121.498 25.0592 120.913 24.8449C118.264 23.8499 115.353 23.2988 111.749 23.0998C111.503 23.0845 111.272 23.0845 111.025 23.0845C109.301 23.0845 107.637 23.4213 105.959 24.1101C104.68 24.6306 103.356 25.0592 102.062 25.4573C101.323 25.6869 100.584 25.9318 99.8602 26.1767C99.2288 26.391 98.6127 26.6054 97.9813 26.8197C96.1949 27.4167 94.3314 28.0443 92.5758 28.8097C89.2801 30.2334 86.4772 31.8254 84.0131 33.6777C83.7051 33.9073 83.3971 34.1216 83.0891 34.3359L82.7657 34.5655C82.0881 35.0401 81.3489 35.3156 80.5634 35.3769C79.8396 35.4381 79.1312 35.5299 78.4228 35.6065C77.1445 35.7595 75.8047 35.9126 74.4803 35.9279C73.1404 35.9432 71.8314 36.1423 70.5686 36.525C69.506 36.8464 68.4433 37.0148 67.3499 37.0148C66.3951 37.0148 65.4402 36.8923 64.4084 36.6474C63.4382 36.4178 62.4679 36.1882 61.4977 35.9739C59.8653 35.5912 58.1712 35.2085 56.508 34.7951C54.9064 34.3971 53.1661 34.1675 51.0563 34.091C49.5162 34.0297 48.1302 33.8001 46.8057 33.4021C45.4659 32.9888 44.0952 32.7592 42.74 32.698C41.277 32.6367 39.7985 32.4224 38.3817 32.2234C37.4422 32.0856 36.4566 31.9479 35.5018 31.856C34.4392 31.7488 33.4536 31.7029 32.5295 31.7029C31.7133 31.7029 30.9279 31.7488 30.1733 31.8254C29.6343 31.8866 29.049 31.9019 28.3868 31.9019C27.74 31.9019 27.1086 31.8713 26.4618 31.856C25.8303 31.8254 25.199 31.8101 24.5675 31.8101C24.3981 31.8101 23.1969 31.8254 23.1969 31.8254C21.5182 31.856 19.7626 31.8713 18.1148 32.3306C17.9454 32.3765 17.7759 32.4071 17.6065 32.4071C17.2523 32.4071 16.8981 32.2999 16.5593 32.0703C16.0973 31.7795 14.2954 30.6314 13.8488 30.3405C13.2482 29.9578 12.8016 29.4373 12.432 28.9781C11.3386 27.6004 10.0296 26.3145 8.41251 25.0286C7.36528 24.202 6.31801 23.3447 5.28618 22.5028C4.50076 21.8599 3.69995 21.2016 2.89914 20.574C1.57469 19.5177 0.0962219 18.5993 -1.47462 17.8798C-2.59886 17.3593 -3.70766 16.8388 -4.8165 16.303C-5.43251 16.0122 -6.04855 15.7213 -6.67998 15.4152C-8.58963 14.512 -10.0988 13.4558 -11.3154 12.1546C-11.7928 11.6341 -12.4089 11.2055 -13.1328 10.884C-15.2426 9.93492 -17.0906 8.64903 -18.6306 7.10292C-20.0629 5.64866 -21.9109 4.59241 -24.4366 3.76577C-26.1461 3.19938 -27.4859 2.57175 -28.6256 1.77573C-29.6728 1.04095 -30.9356 0.535784 -32.7066 0.122467C-33.0762 0.0306189 -33.4305 0 -33.7693 0C-34.4161 0 -35.0167 0.153082 -35.5711 0.474551C-35.7713 0.581707 -35.9715 0.688862 -36.1871 0.796018C-36.5414 0.979714 -36.8648 1.1481 -37.1728 1.36241C-38.0352 1.97473 -38.22 2.77075 -37.7426 3.75047C-37.681 3.88824 -37.604 4.0107 -37.5116 4.13317C-36.2333 5.92421 -34.7087 7.47031 -33.0147 8.75619C-32.2754 9.30728 -31.4593 9.7053 -30.5506 9.95022C-27.9788 10.6391 -25.7302 11.925 -23.451 13.2874C-18.569 16.2112 -13.3175 19.0279 -7.38834 21.8599C-6.11011 22.4722 -5.00125 23.1457 -4.00023 23.8958L-2.58342 24.9674C-1.32057 25.9165 -0.0269775 26.9115 1.23586 27.9065C3.94633 30.0497 6.67226 31.9632 9.95255 34.2594L11.2 35.1319C13.6178 36.8005 16.1127 38.5303 18.4074 40.4591C21.01 42.6482 23.3971 45.0056 25.5069 47.5008C27.5552 49.9042 29.5573 52.3994 31.4977 54.818L33.0839 56.7775C34.2081 58.1705 35.1784 59.7319 36.0716 61.5536C36.2872 61.9822 36.4875 62.4261 36.6877 62.8548C37.0111 63.5283 37.3345 64.2172 37.6733 64.8907L37.8581 65.2428C38.2431 66.0082 38.6435 66.8042 39.1055 67.5084C40.6764 69.8965 42.0162 72.4988 43.202 75.4839C44.0028 77.4892 44.8345 79.0813 45.8201 80.4743C46.5747 81.5459 47.1753 82.8164 47.6528 84.3625L47.776 84.7605C48.4382 86.8731 49.1158 89.0468 48.9156 91.3889C48.854 92.0472 48.8848 92.7207 48.9002 93.379C48.9002 93.5933 48.9156 93.8229 48.9156 94.0372C48.931 95.1394 48.7154 96.165 48.238 97.1294C47.468 98.6908 46.5747 99.9155 45.4967 100.88C44.203 102.043 43.048 103.299 41.8776 104.6C41.2924 105.258 40.6147 105.916 39.8293 106.651C37.396 108.917 35.4864 111.335 33.9926 114.091C31.4515 118.76 29.9269 123.398 29.3725 128.266C29.0798 130.746 28.587 132.69 27.8016 134.374C26.7082 136.747 26.0921 139.334 25.8457 142.548C25.6609 145.013 25.5532 147.677 26.0152 150.34C26.2616 151.703 26.277 153.08 26.2924 154.427C26.2924 154.871 26.3078 155.315 26.3232 155.759C26.3386 156.402 26.431 156.815 26.8622 157.091C26.9238 157.137 27.0008 157.152 27.0778 157.152C27.2164 157.152 27.3704 157.076 27.4012 156.923C27.4166 156.785 27.4474 156.647 27.432 156.54C27.201 155.331 27.7092 154.351 28.2328 153.463C29.6189 151.121 31.3745 148.901 33.5922 146.666C36.1332 144.11 38.397 141.217 40.4761 137.849C41.6619 135.935 42.4936 133.884 43.1559 132.124C44.2955 129.093 45.2041 125.954 45.8355 122.801C46.4669 119.632 47.4218 116.448 48.7308 113.08C49.9936 109.85 50.8715 106.314 51.5337 101.921C51.6723 100.987 51.8262 100.038 51.9648 99.1195L52.1651 97.7724L52.3653 97.7111C52.4731 97.6805 52.5655 97.6652 52.6579 97.6652C53.1353 97.6652 53.2277 98.0938 53.2585 98.2316C54.0901 101.569 55.1373 104.875 56.431 108.35C57.0778 110.065 57.586 111.825 58.0942 113.54C58.3098 114.274 58.5254 115.009 58.7564 115.744C59.0182 116.601 58.9721 117.504 58.5871 118.591C57.5706 121.469 56.7852 124.485 56.0921 127.286C55.7995 128.465 55.5993 129.705 55.4762 131.052L55.3375 132.629C55.1219 135.017 54.9064 137.481 54.737 139.915C54.5522 142.564 54.2595 144.753 53.7975 146.789C52.9351 150.662 52.6117 154.871 52.8273 160.076C52.8889 161.53 53.1969 163.015 53.4895 164.454C53.9515 166.689 54.4289 169.261 54.4751 171.894C54.4905 172.858 54.6137 173.853 54.7215 174.802C54.7677 175.216 54.8293 175.629 54.8601 176.042C54.8755 176.165 54.9063 176.303 54.9525 176.456C55.0911 176.854 55.3375 176.93 55.5223 176.961C55.5531 176.961 55.584 176.961 55.5994 176.961C55.8304 176.961 56.0152 176.838 56.1538 176.578C56.7236 175.552 57.0778 174.42 57.3704 173.348C57.6014 172.521 57.817 171.68 58.0326 170.853C58.202 170.164 58.3868 169.475 58.5716 168.786C58.8181 167.883 59.0644 166.995 59.3262 166.092L59.4341 165.694C59.9731 163.826 60.7277 162.035 61.7595 160.214C62.468 158.959 63.1147 157.657 63.7462 156.387C64.4854 154.902 64.9936 153.31 65.394 151.32C65.6558 150.034 65.9793 148.748 66.2873 147.508C66.3951 147.08 66.5029 146.666 66.6107 146.238C67.4269 142.931 67.7349 140.344 67.6271 137.849C67.5501 136.165 67.1189 134.512 66.7031 132.92L66.3335 131.527C65.4402 128.159 64.5162 124.684 64.1158 121.132C63.7462 117.902 62.8838 114.826 61.9598 111.703L61.3283 109.544C60.5891 107.034 59.8191 104.416 58.9874 101.89C58.0788 99.1195 56.9392 96.3793 55.8304 93.731C55.4146 92.7513 55.0141 91.7716 54.6137 90.7919C53.5819 88.2508 52.5501 85.6943 51.5183 83.1532C50.3478 80.2294 48.9926 77.1678 47.5141 74.0909C47.3601 73.7847 47.2215 73.4785 47.0675 73.1724L46.7133 72.4376L47.0213 72.2845C47.1599 72.2233 47.2985 72.1773 47.4217 72.1773C47.7759 72.1773 47.9608 72.4223 48.0686 72.56C48.084 72.5907 48.1148 72.6213 48.1302 72.6366C51.4104 76.0809 54.2287 79.8008 56.4926 83.7043C57.9094 86.1383 59.6497 88.4039 61.3437 90.6082L62.1291 91.6339C62.4371 92.0472 62.7606 92.4452 63.0686 92.8432C63.6384 93.578 64.239 94.3434 64.7934 95.1241C66.6107 97.6346 69.1363 99.6706 72.7554 101.492C76.6825 103.482 80.9023 104.829 84.5521 105.947C85.6148 106.268 86.662 106.605 87.7093 106.942C88.5871 107.217 89.4649 107.508 90.3581 107.784C91.1743 108.029 92.0367 108.289 93.1148 108.565C93.2996 108.61 93.4382 108.641 93.5768 108.641C93.8386 108.641 94.008 108.565 94.162 108.381C94.4238 108.059 94.4392 107.707 94.1928 107.156C94.0542 106.85 93.9156 106.559 93.7616 106.268L93.7 106.146C93.4844 105.748 93.2688 105.35 93.0224 104.982L91.9752 103.375C89.2647 99.1807 86.4618 94.8485 83.1815 90.9603C80.2863 87.516 77.0521 84.0258 73.0018 79.9845C71.7544 78.7292 70.5994 77.627 69.1979 76.7851C67.1805 75.5757 64.932 74.795 62.5141 74.4583C62.1753 74.4123 61.8365 74.3664 61.4977 74.3052C60.7277 74.198 59.9423 74.0755 59.1722 73.999C57.0316 73.7694 54.9371 72.9581 52.7965 71.4885C49.5316 69.2688 46.3899 66.8042 43.4792 64.1713C42.047 62.8854 40.8458 61.3546 39.6753 59.9003L39.0131 59.0737C37.7195 57.4663 36.5336 55.7518 35.3786 54.0833C34.8549 53.3179 34.3314 52.5525 33.7924 51.8024C33.6384 51.5881 33.5152 51.3737 33.4228 51.1441C33.3304 50.9145 33.4689 50.6849 33.5613 50.5624C33.6383 50.44 33.7769 50.3787 33.9463 50.3787H34.0234L34.1465 50.4246L34.3159 50.5012C34.5315 50.593 34.7472 50.6849 34.9474 50.8073C36.2564 51.634 37.7656 52.4147 39.7061 53.2566C42.3242 54.3894 44.7882 55.7365 47.0213 57.2367C48.2995 58.094 49.6548 58.8747 50.9792 59.6248C51.395 59.8697 51.8108 60.0993 52.2266 60.3442C54.7985 61.8444 57.355 63.3446 59.9269 64.8601L63.007 66.6665C66.3489 68.6259 69.5829 71.1517 72.9094 74.3664C76.1435 77.5045 79.2082 80.9029 82.1651 84.1942L83.8745 86.077C85.9844 88.4192 88.1559 90.7154 90.3427 92.935C91.8366 94.4505 93.1456 96.1497 94.3622 97.7418C95.0244 98.6143 95.4864 99.64 95.7175 100.773C96.3797 103.987 96.6877 106.651 96.7031 109.177C96.7031 109.789 96.7647 110.463 96.8725 111.305L97.1959 113.662C97.8427 118.346 98.5049 123.199 99.198 127.975C99.6446 131.083 99.6908 134.297 99.3211 137.788C99.1055 139.869 98.5666 141.921 97.7195 143.88C96.5491 146.605 95.4095 149.406 94.3006 152.101L94.0388 152.728C93.7924 153.31 93.5614 153.938 93.4536 154.58C93.1764 156.157 92.3448 157.367 90.8817 158.3C89.6497 159.081 88.4177 159.877 87.1702 160.658C83.2893 163.107 80.1476 166.521 77.8067 170.838C76.9905 172.338 76.1897 173.823 75.3273 175.246C75.0039 175.797 74.6189 176.333 74.2647 176.838C73.9259 177.328 73.5717 177.818 73.2637 178.323C70.4916 182.87 67.9967 187.554 65.8406 192.254C63.9772 196.325 61.9752 200.428 60.0347 204.377C59.5265 205.418 59.1415 206.23 58.8335 206.995C58.5717 207.607 58.4793 208.128 58.5409 208.633C58.6025 209.184 58.9413 209.506 59.4803 209.506H59.5573C60.3119 209.46 60.9741 209.092 61.5901 208.725C63.6692 207.47 65.1476 206.368 66.395 205.158C67.8889 203.704 69.5214 202.158 71.2924 200.719C73.7411 198.744 75.7431 196.754 77.4372 194.596C77.9454 193.953 78.546 193.371 79.1158 192.851C81.1641 190.968 82.8735 188.855 84.429 186.834C85.0296 186.054 85.5686 185.212 86.1846 184.201C86.739 183.298 87.3088 182.41 87.8786 181.523C88.8951 179.931 89.9423 178.293 90.8817 176.624C92.9608 172.904 94.4392 168.802 95.2862 164.439C96.0409 160.566 97.0265 157.229 98.3355 154.228C98.5665 153.693 98.8438 153.172 99.1056 152.667C99.2288 152.422 99.352 152.192 99.4752 151.947L99.6292 151.657L99.9218 151.794C100.584 152.101 100.461 152.621 100.415 152.851C100.399 152.912 100.384 152.958 100.384 152.988C100.338 157.703 100.03 162.464 99.737 167.087C99.5984 169.169 99.4751 171.251 99.3673 173.317C99.2903 174.802 99.0593 176.287 98.8283 177.726C98.7359 178.262 98.659 178.798 98.582 179.349C98.2893 181.308 97.3345 182.686 95.5481 183.681C93.8386 184.63 92.1446 185.656 90.4967 186.666C89.9115 187.018 89.3263 187.386 88.7256 187.738C86.1846 189.268 83.4895 190.983 81.1178 193.203C80.0398 194.198 79.1928 195.086 78.469 195.973C77.9608 196.586 77.4372 197.183 76.9135 197.795C75.8355 199.02 74.7113 200.306 73.8181 201.699C72.6168 203.581 71.7544 205.617 71.1846 207.929C69.7677 213.669 68.6743 218.997 67.8119 224.201C67.1959 227.967 66.2411 232.345 63.9618 236.279C63.777 236.586 63.623 236.938 63.4844 237.29C63.2688 237.871 63.4382 238.101 63.6692 238.239C63.7616 238.3 63.854 238.331 63.9464 238.331C64.1466 238.331 64.3622 238.208 64.5624 237.979C64.7626 237.749 64.932 237.504 65.1322 237.198C65.5789 236.509 66.0408 235.82 66.5029 235.131C67.5809 233.509 68.7051 231.84 69.7215 230.156C71.354 227.447 73.2482 224.951 75.3427 222.732C76.4207 221.584 77.4526 220.359 78.2996 219.303C78.777 218.721 79.2544 218.139 79.7472 217.558C81.2103 215.797 82.7349 213.991 84.0131 212.047C85.1835 210.271 86.508 208.557 87.7708 206.903C88.2944 206.214 88.8181 205.541 89.3263 204.852C89.4957 204.622 89.6959 204.423 89.8807 204.224L90.0347 204.071C90.1425 203.964 90.2811 203.934 90.3889 203.934H90.5121L90.6507 204.025C90.7893 204.133 91.0203 204.316 90.9587 204.576L90.8047 205.327C90.6353 206.169 90.4659 207.026 90.2503 207.868C88.8335 213.149 87.3242 218.767 85.7996 224.263C85.353 225.885 84.7524 227.493 84.2287 228.916C83.5665 230.707 83.2739 232.56 83.3509 234.565C83.4125 236.402 83.2123 238.331 82.6733 240.811C82.4577 241.775 82.2729 242.739 82.0881 243.719L81.9803 244.27C81.9341 244.53 81.8879 244.806 81.8725 245.066C81.8263 245.709 82.0573 245.908 82.2883 246C82.4115 245.786 82.5039 245.816 82.5809 245.816ZM120.235 130.715C120.512 130.746 120.697 131.006 120.759 131.129C120.851 131.282 120.943 131.511 120.851 131.71C120.789 131.863 120.605 131.986 120.42 131.986C120.158 131.986 119.989 131.756 119.896 131.634C119.804 131.496 119.665 131.236 119.758 131.006C119.819 130.853 119.958 130.792 120.019 130.761L120.112 130.7L120.235 130.715Z" fill="#F4E8E1"/>
</svg>
