<svg width="119" height="10" viewBox="0 0 119 10" fill="none" xmlns="http://www.w3.org/2000/svg">
<path d="M118.482 5.80652H4.53192C4.24676 5.80652 4.01343 5.57237 4.01343 5.28619C4.01343 5.00001 4.24676 4.76587 4.53192 4.76587H118.482C118.767 4.76587 119 5.00001 119 5.28619C119 5.57237 118.767 5.80652 118.482 5.80652Z" fill="#C28565"/>
<path d="M118.17 9.90409C118.041 9.90409 117.911 9.85206 117.807 9.748L113.582 5.50735C113.478 5.40328 113.426 5.2732 113.426 5.14312C113.426 5.00003 113.478 4.86995 113.582 4.77889L118.119 0.226044C118.326 0.0179138 118.65 0.0179138 118.844 0.226044C119.052 0.434174 119.052 0.759379 118.844 0.954501L114.671 5.14312L118.533 9.01954C118.741 9.22767 118.741 9.55287 118.533 9.748C118.443 9.86507 118.313 9.90409 118.17 9.90409Z" fill="#C28565"/>
<path d="M113.634 9.90409C113.504 9.90409 113.375 9.85206 113.271 9.748L109.045 5.50735C108.838 5.29922 108.838 4.97401 109.045 4.77889L113.582 0.226044C113.789 0.0179138 114.113 0.0179138 114.308 0.226044C114.515 0.434174 114.515 0.759379 114.308 0.954501L110.134 5.14312L113.997 9.01954C114.204 9.22767 114.204 9.55287 113.997 9.748C113.906 9.86507 113.763 9.90409 113.634 9.90409Z" fill="#C28565"/>
<path d="M109.097 9.90409C108.967 9.90409 108.838 9.85206 108.734 9.748L104.508 5.50735C104.418 5.40328 104.353 5.2732 104.353 5.14312C104.353 5.00003 104.405 4.86995 104.508 4.77889L109.045 0.226044C109.252 0.0179138 109.577 0.0179138 109.784 0.226044C109.991 0.434174 109.991 0.759379 109.784 0.954501L105.61 5.14312L109.473 9.01954C109.68 9.22767 109.68 9.55287 109.473 9.748C109.369 9.86507 109.227 9.90409 109.097 9.90409Z" fill="#C28565"/>
<path d="M104.56 9.90409C104.431 9.90409 104.301 9.85206 104.197 9.748L99.9717 5.50735C99.7643 5.29922 99.7643 4.97401 99.9717 4.77889L104.508 0.226044C104.716 0.0179138 105.04 0.0179138 105.247 0.226044C105.455 0.434174 105.455 0.759379 105.247 0.954501L101.073 5.14312L104.936 9.01954C105.144 9.22767 105.144 9.55287 104.936 9.748C104.832 9.86507 104.69 9.90409 104.56 9.90409Z" fill="#C28565"/>
<path d="M10.8574 1.74792L15.7311 5.28614L10.8574 8.82435L0.267334 5.28614L10.8574 1.74792Z" fill="#C28565"/>
</svg>
