<svg width="62" height="75" viewBox="0 0 62 75" fill="none" xmlns="http://www.w3.org/2000/svg">
<path d="M15.6435 6.49493C7.3912 10.0722 0.502315 13.1217 0.330093 13.2977L0 13.6056V23.9856C0 34.5856 0.0717593 36.4476 0.588426 39.717C2.81296 53.9383 12.0269 66.5029 24.6995 72.6166C26.5222 73.4962 30.0815 74.889 30.7704 74.9917C31.0431 75.0356 31.6889 74.9037 32.4352 74.6398C38.6065 72.47 44.1894 68.9953 48.7819 64.4357C56.3884 56.8705 60.938 47.0183 61.8565 36.125C61.9282 35.1427 62 29.8208 62 24.015C62 14.3533 61.9856 13.6349 61.756 13.3563C61.4546 13.0045 31.4162 -0.029274 30.9426 5.34058e-05C30.7847 5.34058e-05 23.8958 2.93227 15.6435 6.49493ZM45.5384 8.70876L59.7181 14.8371L59.6606 25.6277C59.6032 37.122 59.5745 37.5032 58.8282 41.2418C56.5894 52.2963 50.0019 62.0166 40.6875 68.0423C37.5444 70.0655 32.2917 72.47 31 72.47C30.2106 72.47 28.2301 71.7222 25.5894 70.4321C14.5097 65.0221 6.42963 54.8913 3.53056 42.7519C2.41111 38.1336 2.39676 37.8404 2.33935 25.701L2.28194 14.8518L16.5333 8.66477C24.3694 5.27805 30.9139 2.5071 31.0718 2.53642C31.2296 2.55109 37.7454 5.3367 45.5384 8.70876Z" fill="#FFC000"/>
<path d="M19.0879 12.3593C12.7301 15.2769 7.39118 17.8133 7.2046 18.0039L6.87451 18.3264L6.93192 27.8122C6.98933 37.8697 7.00368 38.1482 7.74997 41.6962C10.1611 53.0733 18.3847 62.9402 29.1055 67.3385C30.0097 67.7197 30.8565 68.0129 30.9856 68.0129C31.3444 68.0129 33.5546 67.0893 35.3916 66.1656C38.793 64.4796 41.8356 62.2218 44.706 59.2896C50.1597 53.733 53.4319 47.0622 54.7666 38.8373C54.9819 37.5178 55.025 35.9344 55.068 27.8268C55.1254 18.8396 55.1111 18.3557 54.8671 18.0479C54.5657 17.6813 31.4162 7.0227 30.9569 7.03736C30.7847 7.03736 25.4458 9.44178 19.0879 12.3593ZM41.9074 14.4999L52.743 19.47L52.7287 28.3839V37.2979L52.3412 39.4238C50.6477 48.9388 45.6819 56.7239 37.9606 61.9726C36.3963 63.0282 32.9805 64.8461 31.6889 65.286L30.8708 65.5792L29.8949 65.154C22.231 61.8993 16.1602 56.0935 12.5578 48.587C11.5389 46.4464 10.5199 43.5582 10.0606 41.4763C9.28562 37.899 9.28562 37.8697 9.22822 28.4279L9.17081 19.5433L10.7926 18.7809C14.0217 17.2708 30.9282 9.51509 31 9.51509C31.043 9.51509 35.9514 11.7582 41.9074 14.4999Z" fill="#FFC000"/>
<path d="M42.3381 24.7187C41.7927 24.9093 40.7163 25.9356 35.2052 31.5508L28.7038 38.163L25.6612 35.0841C23.0348 32.4305 22.5038 31.9613 21.901 31.7414C20.5089 31.2722 19.1455 31.5801 18.1552 32.6064C17.1506 33.618 16.8492 35.0108 17.3085 36.433C17.5237 37.0634 18.0691 37.6938 22.0159 41.7403C26.9098 46.769 27.2686 47.0476 28.6895 47.0476C30.2538 47.0476 30.2251 47.0769 38.8362 38.2363C45.9835 30.8911 46.7728 30.0407 46.9881 29.3956C47.4473 27.9588 47.146 26.5807 46.1413 25.5691C45.151 24.5428 43.7302 24.2349 42.3381 24.7187ZM44.5052 27.2404C44.7922 27.5483 44.9214 27.8122 44.9214 28.1641C44.9214 28.6039 44.2756 29.3077 37.071 36.6675C29.651 44.2473 29.1774 44.7018 28.7038 44.7018C28.2302 44.7018 27.9145 44.4086 23.7811 40.1862C19.7913 36.0958 19.3751 35.6266 19.3751 35.1868C19.3751 34.527 20.0353 33.8526 20.6811 33.8526C21.0973 33.8526 21.5135 34.2191 24.6853 37.4446C27.9145 40.7287 28.2589 41.0365 28.7038 41.0365C29.1631 41.0365 29.7085 40.5234 36.1668 33.9259C42.539 27.4164 43.1705 26.8153 43.6154 26.8153C43.9455 26.8153 44.2038 26.9472 44.5052 27.2404Z" fill="#FFC000"/>
</svg>
