<svg width="62" height="75" viewBox="0 0 62 75" fill="none" xmlns="http://www.w3.org/2000/svg">
<path d="M26.8126 0.076416C21.9364 0.354836 17.8841 1.07285 14.7908 2.17188C11.7246 3.25623 10.4279 4.23802 9.61743 6.09902C9.22571 6.99289 9.18519 7.21269 9.18519 8.4729C9.18519 9.7331 9.22571 9.9529 9.61743 10.8614C10.2928 12.4 10.9547 12.9862 13.7778 14.5395L16.2092 15.8729L16.6414 17.7779C16.8845 18.8183 17.0871 19.7854 17.0871 19.9173C17.0871 20.0639 16.8845 20.2104 16.5198 20.3423C15.6418 20.6207 14.8989 21.1482 14.129 22.0274C11.2924 25.2805 12.5891 30.7463 16.5063 32.1384L17.1952 32.3875L17.2492 33.9408C17.3438 36.6077 17.8436 37.4723 21.0719 40.5202L22.0174 41.4141L22.0039 43.5828C21.9904 45.8541 21.8013 47.2169 21.2475 49.1072C21.0449 49.8106 20.8693 50.1476 20.6802 50.2355C20.5181 50.3088 19.3024 50.7337 17.9651 51.188C13.4266 52.7413 9.64444 54.4264 7.18606 56.009C3.98475 58.0458 1.17516 62.0609 0.310675 65.8415C0.0405229 66.9992 0 67.5413 0 70.3109C0 73.4028 0 73.476 0.324183 73.9596C0.499782 74.2234 0.891503 74.575 1.20218 74.7216C1.74248 74.9853 2.76906 75 31 75C59.2309 75 60.2575 74.9853 60.7978 74.7216C61.1085 74.575 61.5002 74.2234 61.6758 73.9596C62 73.476 62 73.4028 62 70.3109C62 67.5413 61.9595 66.9992 61.6893 65.8415C60.8383 62.1635 58.0693 58.1191 55.003 56.1116C52.3015 54.3385 47.898 52.4482 41.4144 50.2648C41.1577 50.1915 41.0227 49.9424 40.766 49.1365C40.2257 47.3781 39.9961 45.7808 39.9961 43.5242L39.9826 41.4141L40.8606 40.5935C41.3468 40.1539 42.2654 39.216 42.9002 38.5273C44.3725 36.9154 44.6562 36.2267 44.7508 33.9261C44.8048 32.3728 44.8048 32.3582 45.1695 32.2556C45.3586 32.2116 45.8719 31.9772 46.3176 31.7427C49.6405 29.9403 50.4375 24.9728 47.871 22.0274C47.1011 21.1482 46.3582 20.6207 45.4937 20.3423C45.1155 20.2104 44.9129 20.0639 44.9129 19.9173C44.9129 19.7854 45.1155 18.8183 45.3586 17.7779L45.7908 15.8729L48.2222 14.5395C51.0453 12.9862 51.7072 12.4 52.3826 10.8614C52.7743 9.9529 52.8148 9.7331 52.8148 8.4729C52.8148 7.21269 52.7743 6.99289 52.3826 6.09902C51.5721 4.23802 50.2889 3.25623 47.1686 2.15722C43.0893 0.70652 37.254 -0.0554657 30.5948 0.00315094C28.9198 0.0177994 27.2179 0.0471115 26.8126 0.076416ZM35.5926 2.61148C40.2257 2.93386 43.7782 3.56396 46.6148 4.58971C49.627 5.67407 50.5185 6.55328 50.5185 8.4729C50.5185 9.2935 50.451 9.55726 50.1133 10.1727C49.7216 10.8468 49.573 10.964 47.4523 12.1363L45.21 13.3818L44.6157 12.9276C42.441 11.2278 39.3207 10.4072 33.8096 10.0701C26.6235 9.61588 20.1804 10.7295 17.4113 12.8983L16.79 13.3818L14.5477 12.1363C12.454 10.9787 12.2649 10.8468 11.9002 10.1874C11.1708 8.88319 11.3194 7.28596 12.2649 6.24556C13.4536 4.9707 17.8436 3.56396 22.5037 2.96317C26.2993 2.49425 31.5673 2.34772 35.5926 2.61148ZM36.6597 12.8103C39.5773 13.1767 42.1708 14.0119 43.346 14.9644C43.6026 15.1696 43.5891 15.2135 43.1704 17.0745L42.7246 18.9941L42.2383 19.0821C35.39 20.3716 26.61 20.3716 19.7617 19.0821L19.2754 18.9941L18.8566 17.1625C18.4379 15.3894 18.4379 15.3161 18.6675 15.023C19.2889 14.261 22.22 13.2353 24.7865 12.8543C27.9743 12.4 33.2288 12.3854 36.6597 12.8103ZM21.8553 21.9542C23.0035 22.1153 25.0026 22.3058 26.2858 22.3938C30.919 22.6722 36.0789 22.511 40.1447 21.9542C41.2793 21.793 42.2789 21.6611 42.3464 21.6611C42.4004 21.6611 42.4815 22.5257 42.5085 23.5807C42.549 25.471 42.549 25.5003 42.9272 25.852C43.427 26.3063 44.0214 26.3063 44.4401 25.8373C44.7508 25.515 44.7778 25.3684 44.7778 24.1522C44.7778 23.3316 44.8318 22.8334 44.9129 22.8334C45.4532 22.8334 46.5473 23.947 46.8985 24.8556C47.0065 25.134 47.0876 25.7348 47.0876 26.189C47.1011 28.1966 45.8179 29.7205 43.9403 29.955C43.373 30.0283 43.0893 30.1455 42.8597 30.4093C42.576 30.7463 42.549 30.9368 42.4815 32.915C42.4004 35.3915 42.2924 35.7431 41.2928 36.7836C39.5368 38.6152 34.6336 43.1432 34.1068 43.407C33.5529 43.6854 33.2558 43.7147 31 43.7147C28.7307 43.7147 28.4471 43.6854 27.8932 43.407C27.3529 43.1285 24.5298 40.5349 21.1935 37.2525C19.6941 35.7871 19.6131 35.5527 19.5185 32.915C19.451 30.9368 19.424 30.7463 19.1403 30.4093C18.9107 30.1455 18.627 30.0283 18.0597 29.955C17.1547 29.8378 16.0336 29.2077 15.6148 28.5629C14.8989 27.4785 14.6828 25.9399 15.1015 24.8702C15.4527 23.947 16.5333 22.8334 17.0871 22.8334C17.1682 22.8334 17.2222 23.3316 17.2222 24.1522C17.2222 25.3684 17.2492 25.515 17.5599 25.8373C17.9786 26.3063 18.573 26.3063 19.0728 25.852C19.451 25.5003 19.451 25.471 19.4915 23.5807C19.5185 22.5257 19.5996 21.6611 19.6536 21.6611C19.7211 21.6611 20.7207 21.793 21.8553 21.9542ZM26.5425 45.4585C27.542 46.0446 28.7712 46.279 31 46.279C34.0662 46.279 35.2819 45.8834 36.8488 44.3594L37.5782 43.6561L37.7268 45.3852C37.8214 46.3377 38.0645 47.8616 38.2806 48.7848C38.5508 49.9717 38.6183 50.4846 38.5102 50.5579C38.4292 50.6165 36.7137 51.3345 34.6876 52.1551L31.0135 53.6498L27.2989 52.1405C25.2593 51.3052 23.5303 50.5872 23.4627 50.5432C23.3817 50.4846 23.4898 49.7666 23.7329 48.7702C23.9355 47.847 24.1922 46.323 24.2732 45.3852L24.4353 43.6707L25.1512 44.3741C25.5564 44.7551 26.1778 45.2386 26.5425 45.4585ZM24.0436 53.4886L26.2858 54.3971L24.8946 54.9246C24.1246 55.2177 23.3817 55.5254 23.2196 55.628C22.9765 55.7745 22.8144 55.6427 21.6797 54.4118C20.9773 53.6498 20.437 53.005 20.4776 52.9757C20.5586 52.9025 21.4366 52.6094 21.6392 52.5947C21.7338 52.5801 22.8144 52.9904 24.0436 53.4886ZM40.9416 52.7413C41.2658 52.8292 41.5359 52.9464 41.5359 52.9904C41.5359 53.049 40.9821 53.6937 40.2932 54.4411C39.1856 55.6427 39.0235 55.7745 38.7804 55.628C38.6183 55.5254 37.8754 55.2177 37.119 54.9246L35.7412 54.3971L37.9294 53.5032C39.1316 53.005 40.1717 52.5947 40.2257 52.5947C40.2932 52.5801 40.6039 52.6533 40.9416 52.7413ZM19.6941 55.7745L20.8828 57.0641L20.1129 57.6355C18.6675 58.7199 16.9926 60.6542 15.4392 63.0281C15.2771 63.2772 15.1961 63.2772 14.3586 63.116C13.8453 63.0134 13.4401 62.8669 13.4401 62.7936C13.4401 62.6031 18.3163 54.485 18.4244 54.485C18.4784 54.485 19.0458 55.0712 19.6941 55.7745ZM46.1015 58.5734C47.4523 60.8154 48.5599 62.7203 48.5599 62.7936C48.5599 62.8669 48.1547 63.0134 47.6549 63.116C46.8039 63.2772 46.7229 63.2772 46.5608 63.0281C44.9939 60.6395 43.319 58.7053 41.9007 57.6502L41.1172 57.0641L42.3059 55.7745C42.9542 55.0712 43.5216 54.485 43.5756 54.485C43.6161 54.485 44.7643 56.3167 46.1015 58.5734ZM13.224 58.4415C11.4004 61.4894 11.0898 62.0756 11.0357 62.6764C10.9952 63.1892 11.0492 63.5263 11.2654 63.9659C11.6301 64.7572 12.1298 65.1235 13.1699 65.3873C13.6292 65.5045 14.0344 65.6217 14.0614 65.6657C14.0885 65.695 13.9264 66.2665 13.6967 66.9552C13.2375 68.318 12.8322 70.179 12.6837 71.5857L12.5891 72.5089H7.41569H2.22876V70.3402C2.22876 66.6621 2.87712 64.3908 4.63312 61.8704C6.18649 59.6431 7.83442 58.2363 10.4009 56.9615C11.6436 56.346 15.2501 54.7928 15.3041 54.8514C15.3312 54.8807 14.3991 56.4926 13.224 58.4415ZM49.0327 55.7745C52.4366 57.2546 54.2601 58.3536 55.6244 59.7457C57.4614 61.6213 58.8797 64.0831 59.4336 66.3544C59.5956 67.0138 59.6902 68.0982 59.7307 69.9006L59.7983 72.5089H54.5978H49.4109L49.3163 71.5857C49.1678 70.2229 48.7625 68.3326 48.3033 66.9405C48.0871 66.2665 47.9251 65.6803 47.9521 65.651C47.9656 65.6217 48.3708 65.5045 48.8301 65.3873C49.2893 65.27 49.8431 65.0356 50.0593 64.8744C50.8157 64.2883 51.1939 62.9841 50.8697 62.0609C50.8022 61.8704 49.8296 60.1853 48.7085 58.3243C47.5874 56.4486 46.6688 54.8953 46.6688 54.8514C46.6688 54.7781 47.3037 55.0126 49.0327 55.7745ZM33.5664 56.4633C39.8745 57.5769 44.9939 62.6471 46.6013 69.3584C46.7634 70.0764 46.9525 71.0875 47.0065 71.5857L47.1011 72.5089H45.9529H44.8183L44.6562 71.4392C43.8322 65.9881 40.5499 61.6213 35.7547 59.6724C35.2954 59.4819 34.7011 59.3207 34.4309 59.3207C33.7961 59.3207 32.9856 59.7896 32.5939 60.3758C32.2832 60.8593 32.2832 60.9033 32.2427 65.4166L32.2022 69.9738L32.9586 70.6772C33.3773 71.0582 33.8366 71.6297 33.9852 71.9374L34.2418 72.5089H31H27.7582L28.0148 71.9374C28.1634 71.6297 28.6227 71.0582 29.0414 70.6772L29.7843 69.9885V65.5924C29.7843 60.7128 29.7573 60.5223 28.9198 59.8336C28.2309 59.2621 27.434 59.2035 26.3669 59.6138C21.7338 61.4162 18.3839 65.6657 17.4383 70.9263L17.1547 72.5089H16.0336H14.8989L14.9935 71.5857C15.1285 70.2669 15.6553 68.2154 16.1821 66.8526C19.0863 59.4965 26.2993 55.1884 33.5664 56.4633ZM26.8261 69.4903C26.1237 70.3109 25.7725 70.9263 25.5294 71.8495L25.3673 72.4356L22.4362 72.4796L19.505 72.5089L19.5861 71.9667C20.2749 67.556 22.7739 64.0098 26.4074 62.2954L27.4205 61.8265L27.461 65.2847L27.488 68.7429L26.8261 69.4903ZM36.6732 62.8669C39.6719 64.6839 41.8061 68.0542 42.4139 71.9667L42.495 72.5089L39.5773 72.4796L36.6462 72.4356L36.4166 71.703C36.1059 70.7651 35.6196 69.9445 34.9983 69.2998L34.512 68.7869V65.2994V61.8118L35.2279 62.1195C35.6061 62.2807 36.268 62.6178 36.6732 62.8669Z" fill="#FFC000"/>
<path d="M23.3548 24.0496C22.828 24.5478 22.828 25.3684 23.3548 25.852C23.5574 26.0425 23.8141 26.2037 23.9221 26.2037C24.0302 26.2037 24.1112 26.2916 24.1112 26.4088C24.1112 26.5261 24.2598 26.8045 24.4354 27.0243C25.0027 27.757 26.1239 27.4786 26.3265 26.5554C26.3805 26.3649 26.5021 26.2037 26.6237 26.2037C26.7317 26.2037 26.9749 26.0425 27.1505 25.8374C27.5692 25.3978 27.5962 24.6211 27.2315 24.1375C26.9884 23.8152 26.8668 23.7859 25.3539 23.7419C23.8141 23.6979 23.733 23.6979 23.3548 24.0496Z" fill="#FFC000"/>
<path d="M35.0929 23.8591C34.4446 24.1375 34.3095 25.2512 34.8498 25.8374C35.0254 26.0425 35.2685 26.2037 35.3766 26.2037C35.4982 26.2037 35.6197 26.3649 35.6738 26.5554C35.8764 27.4786 36.9975 27.757 37.5648 27.0243C37.7404 26.8045 37.889 26.5261 37.889 26.4088C37.889 26.2916 37.9701 26.2037 38.0781 26.2037C38.1862 26.2037 38.4428 26.0425 38.6454 25.852C38.9291 25.5882 39.0236 25.3831 39.0236 24.9581C39.0236 24.5332 38.9291 24.328 38.6454 24.0643C38.3077 23.7419 38.1727 23.7126 36.8354 23.7272C36.0385 23.7272 35.255 23.7859 35.0929 23.8591Z" fill="#FFC000"/>
<path d="M29.0414 30.38C28.5687 30.8782 28.5957 31.523 29.0955 32.0798C29.4872 32.5048 29.5142 32.5048 31.0001 32.5048C32.4859 32.5048 32.5129 32.5048 32.9046 32.0798C33.4044 31.523 33.4314 30.8782 32.9587 30.38C32.648 30.0283 32.5534 30.0137 31.0001 30.0137C29.4467 30.0137 29.3521 30.0283 29.0414 30.38Z" fill="#FFC000"/>
<path d="M27.9473 35.3475C27.434 35.8164 27.434 36.6663 27.9608 37.1499C28.2985 37.4723 28.4065 37.4869 30.946 37.4869C32.5804 37.4869 33.688 37.4283 33.8636 37.3257C34.2553 37.1059 34.539 36.2707 34.3904 35.8164C34.1202 35.0544 33.8636 34.9958 30.973 34.9958C28.366 34.9958 28.312 34.9958 27.9473 35.3475Z" fill="#FFC000"/>
<path d="M29.5546 38.7618C29.1629 38.8497 28.7036 39.4798 28.7036 39.9341C28.7036 40.8866 29.379 41.2969 30.9999 41.2969C31.6348 41.2969 32.2831 41.209 32.5533 41.0917C33.3502 40.7254 33.5393 39.8608 32.972 39.1428C32.6613 38.7618 32.5938 38.7472 31.2566 38.7179C30.4866 38.7032 29.7167 38.7179 29.5546 38.7618Z" fill="#FFC000"/>
</svg>
