<svg width="60" height="60" viewBox="0 0 60 60" fill="none" xmlns="http://www.w3.org/2000/svg">
<circle cx="30" cy="30" r="30" fill="#C28565"/>
<circle cx="30" cy="30" r="24.5" stroke="white"/>
<path d="M44.9179 23.7884C44.849 23.3919 44.6775 22.9502 44.4321 22.5672V22.5667C44.1011 22.0511 43.6366 21.6422 43.109 21.5947C42.2986 21.522 41.5639 22.0991 41.0649 22.7561C40.9399 22.9209 40.8229 23.0928 40.7093 23.267C40.3704 23.7873 40.0589 24.3287 39.6253 24.7668C38.8299 25.5704 37.8979 26.0678 36.8031 26.3001C35.7082 26.5324 34.4384 26.276 33.4055 26.713C32.3726 27.15 31.5261 28.156 30.9835 29.156C30.071 30.8383 29.7292 32.7903 29.6983 34.6574V34.6585C29.6959 34.7893 29.6954 34.919 29.6965 35.0486C29.7086 37.0317 30.2626 39.0225 31.3586 40.659C32.6823 42.6363 34.9884 44.623 37.3313 44.6417C38.0711 44.6476 38.7324 44.5625 39.3277 44.4065C39.3828 44.3924 39.4 44.3385 39.3862 44.2951C39.3765 44.2634 39.3495 44.237 39.3076 44.2358C32.8532 44.0939 34.4367 38.5838 35.7082 37.3673C36.1607 36.9344 36.775 36.9795 37.4311 37.1942C37.7161 37.2875 38.0086 37.4124 38.2994 37.5438L38.2999 37.5444C38.6401 37.6981 38.9779 37.8605 39.2967 37.9913C40.0085 38.2835 40.629 38.4184 40.9858 37.9491C41.9728 36.6493 41.9579 37.1843 42.3915 36.1754C42.6358 35.6064 41.9418 35.2463 41.3672 34.9512C41.3167 34.9254 41.3442 34.8474 41.3993 34.8591C43.7226 35.3618 43.2959 33.6749 43.2959 33.6749C44.1035 33.7206 44.9557 33.0555 44.5072 31.748C44.0587 30.4406 44.0587 29.3168 44.0587 29.3168C44.1522 27.9301 44.5279 27.5823 44.7991 26.2203C44.9827 25.2947 45.0796 24.7181 44.9179 23.7884ZM42.5876 29.3666C42.5532 29.3777 42.5182 29.3883 42.4838 29.3983C42.4236 29.4153 42.3812 29.471 42.3812 29.5349V30.0382C42.3812 30.1725 42.2699 30.281 42.1363 30.2723C42.0147 30.264 41.9223 30.155 41.9223 30.03V29.5432C41.9223 29.5121 41.8977 29.4869 41.8673 29.4869C41.7394 29.4869 41.6126 29.4751 41.487 29.4522C41.4612 29.4476 41.436 29.4616 41.4262 29.4869L41.2232 30.0306C41.1882 30.1238 41.101 30.1814 41.0087 30.1814C40.9783 30.1814 40.9473 30.1749 40.9175 30.162C40.804 30.1115 40.7535 29.9737 40.7982 29.8552L40.9468 29.4575C40.9783 29.3731 40.9428 29.2781 40.8636 29.2376C40.816 29.2135 40.769 29.1877 40.7219 29.1596C40.6497 29.1167 40.5574 29.1343 40.504 29.2L40.1542 29.6323C40.1089 29.688 40.0435 29.7174 39.9775 29.7174C39.9259 29.7174 39.8743 29.6998 39.8313 29.6634C39.7338 29.5813 39.72 29.4329 39.8008 29.3332L40.1622 28.8868C40.2024 28.8369 40.1977 28.7642 40.1524 28.7196C40.0974 28.6663 40.0452 28.6129 39.9964 28.5595C39.9574 28.5167 39.8949 28.5085 39.8462 28.5396L39.4481 28.793C39.4108 28.8164 39.369 28.8281 39.3277 28.8281C39.2491 28.8281 39.1717 28.7871 39.1293 28.7114C39.0662 28.6006 39.1075 28.458 39.2136 28.39L39.5382 28.1835C39.595 28.1471 39.6122 28.0703 39.5755 28.0123C39.5193 27.9248 39.4889 27.868 39.4849 27.8615C39.424 27.7477 39.4654 27.6052 39.576 27.543C39.6867 27.4808 39.8261 27.5225 39.8875 27.6357C39.8915 27.6433 40.1473 28.1108 40.5992 28.4991C40.8447 28.7096 41.0976 28.8557 41.3574 28.9384C41.366 28.9408 41.3752 28.9431 41.3838 28.9466L41.3844 28.9472C41.7313 29.051 42.0893 29.0417 42.4557 28.9179C42.5802 28.8762 42.7149 28.9484 42.7493 29.0798C42.7798 29.2024 42.7052 29.3273 42.5876 29.3666ZM43.0143 27.9835C43.0109 27.9835 43.0074 27.9835 43.004 27.9835C42.8824 27.9835 42.7809 27.885 42.7751 27.7595C42.7591 27.3835 42.6255 27.1031 42.368 26.9007C41.5375 26.249 39.7521 26.6432 39.7343 26.6473C39.611 26.6749 39.4883 26.5957 39.4608 26.469C39.4338 26.3423 39.5112 26.2174 39.6351 26.1892C39.7165 26.171 41.6465 25.744 42.6467 26.5283C43.0132 26.8157 43.2105 27.2228 43.2328 27.7383C43.2392 27.868 43.1411 27.9776 43.0143 27.9835Z" fill="white"/>
<path d="M39.3862 44.2944C38.0803 44.3513 36.202 44.1431 34.6839 42.8145C32.3307 40.7545 31.705 36.7571 33.5082 33.2689C33.5936 33.1035 33.8317 33.1228 33.8913 33.2999C34.2263 34.2936 35.129 36.1078 37.4311 37.1941C36.775 36.98 36.1607 36.9343 35.7082 37.3672C34.4367 38.5831 32.8532 44.0932 39.3077 44.2357C39.3495 44.2363 39.3765 44.2627 39.3862 44.2944Z" fill="#983604"/>
<path d="M35.6911 44.9994C34.4999 44.7859 33.3041 44.3384 32.5063 43.8451C32.0435 43.5588 31.6253 43.2105 31.2227 42.8403C30.4015 41.8936 29.6691 40.8648 28.8765 39.8917C27.878 38.6658 26.7493 37.5027 25.3453 36.8058C23.8667 36.072 22.149 35.889 20.6779 35.1799C21.1861 35.6104 21.8083 35.9178 22.4329 36.1536C23.3741 36.509 24.3634 36.7413 25.2564 37.2094C26.5531 37.8898 27.5648 39.0248 28.4469 40.2126C28.5524 40.3545 28.6562 40.4976 28.7595 40.6413C28.7761 40.6648 28.7492 40.6947 28.7251 40.6789C27.1754 39.6547 25.3637 39.0741 23.588 38.5203C21.9282 38.003 20.2357 37.4763 18.7434 36.5947C18.3901 36.3864 18.0483 36.1583 17.7203 35.9049C16.1901 34.7247 15.0144 32.8818 15.0012 30.9549C16.0249 31.65 17.2959 32.1046 18.4142 32.3726C20.3952 32.8477 22.4902 32.9363 24.3382 33.8073C26.213 34.6907 27.7031 36.2598 28.9034 37.9901C29.0176 38.1549 29.1294 38.3209 29.2384 38.4881C29.7167 39.2213 30.1629 39.9668 30.6275 40.6783C30.628 40.6794 30.6286 40.6806 30.6297 40.6812V40.6818C31.455 41.947 32.3383 43.1055 33.5639 43.9026C34.0095 44.1924 34.5406 44.4804 35.1284 44.7279C35.3148 44.8065 35.5076 44.8809 35.7043 44.9496C35.7318 44.9613 35.7209 45.0053 35.6911 44.9994Z" fill="white"/>
<path d="M30.9749 43.6022C29.5681 42.7564 28.0976 41.9857 26.5427 41.8044C25.1623 41.6437 23.7491 41.4894 22.5006 40.8923C23.1584 41.3798 24.0485 41.6689 24.8142 41.829C25.7387 42.0226 26.6982 42.1358 27.6044 42.4056C28.2392 42.5951 29.1339 43.0438 30.0137 43.5336C30.0395 43.5482 30.0287 43.5893 29.9994 43.5875C29.6461 43.5705 29.2905 43.5799 28.9412 43.6057C27.8321 43.6884 26.7275 43.9148 25.6165 43.8585C24.146 43.784 22.7059 43.1951 21.587 42.2168C21.5256 42.1634 21.4654 42.1082 21.4057 42.0525C20.4594 41.1604 19.7769 39.9814 19.4557 38.7074C19.5825 38.7754 19.7121 38.8388 19.8451 38.8974C20.6659 39.2605 21.5864 39.447 22.4782 39.5573C24.0525 39.7526 25.6882 39.7878 27.1289 40.4647C27.4736 40.6266 27.7982 40.8213 28.1096 41.0378C28.9137 41.5985 29.6272 42.3089 30.347 42.9869C30.558 43.1858 30.7731 43.384 30.9927 43.5752C31.0071 43.5893 30.9916 43.6122 30.9749 43.6022Z" fill="white"/>
<path d="M31.8099 25.5686C31.764 26.0402 31.4469 26.4602 30.976 26.608C30.4375 26.7763 29.872 26.5341 29.6019 26.0554C29.5572 25.9774 29.521 25.8924 29.4941 25.8021C29.3025 25.161 29.6552 24.4823 30.2821 24.2864C30.909 24.0905 31.5725 24.4512 31.764 25.0924C31.8117 25.2513 31.8254 25.4126 31.8099 25.5686Z" fill="white"/>
<path d="M34.9586 20.3147C34.8996 20.4866 34.8296 20.6485 34.7476 20.7951C33.9578 22.207 32.7804 22.7577 31.8599 23.0786C31.6488 22.2826 31.467 21.2491 31.8117 20.0871C31.8828 19.8478 31.9763 19.6032 32.0962 19.3534C32.7683 17.9579 35.0642 16.7015 35.2001 16.6534C35.2334 16.7801 35.4479 18.8994 34.9586 20.3147Z" fill="white"/>
<path d="M31.9918 17.2876C31.982 17.3163 31.9723 17.3456 31.9608 17.3738C31.8192 17.7275 31.5387 18.0038 31.3019 18.3017C31.1252 17.9627 30.901 17.6372 30.8281 17.2624C30.7771 17.0002 30.804 16.735 30.8757 16.4775C30.9457 16.2259 31.0581 15.9819 31.1831 15.7537C31.2887 15.5619 31.4034 15.373 31.5123 15.1824C31.5467 15.122 31.5806 15.061 31.6127 15C31.5961 15.176 31.5794 15.3572 31.5617 15.5437C31.5296 15.891 31.4951 16.2546 31.4596 16.6306C31.4487 16.7462 31.4378 16.8629 31.4269 16.9808C31.4384 16.8629 31.4487 16.7462 31.4596 16.6306C31.4951 16.2546 31.529 15.8904 31.5617 15.5437C31.5794 15.3572 31.5961 15.176 31.6127 15C31.6328 15.0663 31.6546 15.1326 31.6769 15.1988C31.748 15.4077 31.826 15.6147 31.8932 15.8241C32.0457 16.2969 32.1443 16.8201 31.9918 17.2876Z" fill="white"/>
<path d="M39.9414 22.5349C39.8771 22.6486 38.5586 24.308 37.232 24.9526C37.0732 25.03 36.9143 25.0922 36.7577 25.1362C35.223 25.5638 34.01 25.1016 33.1371 24.6628C33.4061 24.1831 33.7588 23.6364 34.2779 23.156C34.6919 22.773 35.2115 22.4316 35.8797 22.1999C37.3198 21.699 39.8118 22.4709 39.9414 22.5349Z" fill="white"/>
<path d="M38.3493 18.828C38.1405 18.8843 37.9289 18.9342 37.7218 18.994C37.2246 19.1371 36.7153 19.3647 36.428 19.8041C36.354 19.9173 36.2978 20.0398 36.2513 20.1683L36.2508 20.1689C36.167 20.3994 36.1143 20.6457 36.0443 20.8821C36.4177 20.8428 36.8071 20.8505 37.1518 20.7027C37.3674 20.61 37.5504 20.4639 37.7064 20.2868C37.8962 20.0733 38.0482 19.8164 38.1755 19.5583C38.2724 19.3618 38.3608 19.1588 38.4548 18.96C38.4847 18.8972 38.515 18.8345 38.546 18.7729C38.4812 18.7917 38.4158 18.8098 38.3493 18.828ZM38.1927 19.0703C38.2529 19.0192 38.3131 18.9682 38.3722 18.9189C38.3131 18.9688 38.2535 19.0192 38.1927 19.0703Z" fill="white"/>
<path d="M29.1614 31.5402C28.4892 32.9356 26.1928 34.1921 26.0575 34.2401C26.0208 34.0982 25.7553 31.4487 26.51 30.0985C27.2997 28.6866 28.4766 28.1358 29.3971 27.8156L29.3977 27.815C29.6523 28.7752 29.864 30.0809 29.1614 31.5402Z" fill="white"/>
<path d="M23.6425 24.7586C23.311 24.9399 22.9927 25.1686 22.6261 25.2431C22.1197 25.3464 21.6024 25.1387 21.1516 24.88C20.9635 24.7727 20.7794 24.6548 20.593 24.5433C20.5339 24.5082 20.4743 24.4736 20.4147 24.4407C20.4795 24.4196 20.5443 24.3973 20.6091 24.3744C20.8132 24.3017 21.0157 24.2219 21.2199 24.1533C21.7102 23.9879 22.2574 23.8847 22.7351 24.0847C23.0804 24.2295 23.3505 24.5158 23.6413 24.758C23.6425 24.7586 23.6425 24.7586 23.6425 24.7586Z" fill="white"/>
<path d="M28.1205 26.2313C27.6376 27.0941 26.884 28.1711 25.3779 28.6943C23.9378 29.1946 21.4458 28.4227 21.3168 28.3588C21.3885 28.2315 23.0328 26.1662 24.5004 25.7574C26.0346 25.3298 27.2476 25.7914 28.1199 26.2307L28.1205 26.2313Z" fill="white"/>
<path d="M24.1059 30.1918C23.6293 30.3959 23.3138 30.864 23.0815 31.3361C22.9846 31.5326 22.8963 31.7356 22.8022 31.9344C22.7724 31.9972 22.742 32.0599 22.7105 32.1215C22.7758 32.1022 22.8418 32.0834 22.9078 32.0658C23.1165 32.0095 23.3281 31.9591 23.5352 31.8998C24.0325 31.7561 24.5417 31.5291 24.8285 31.0898C25.0361 30.7719 25.1032 30.3801 25.2122 30.0123V30.0117C24.8394 30.0522 24.45 30.0445 24.1059 30.1918ZM22.9433 31.9262C23.0219 31.8599 23.1016 31.7925 23.1831 31.7239C23.1016 31.7931 23.0213 31.8605 22.9433 31.9262Z" fill="white"/>
<path d="M28.3132 24.1872C27.3749 24.4476 26.0977 24.6646 24.6708 23.9455C24.138 23.6775 23.6264 23.1554 23.1968 22.6111V22.6105C22.5275 21.7606 22.0601 20.8561 22.0314 20.7711C22.1702 20.7335 24.7608 20.462 26.0811 21.2339C26.4441 21.4462 26.7486 21.6855 27.0061 21.9407C27.7282 22.6569 28.0821 23.4933 28.3132 24.1872Z" fill="white"/>
<path d="M26.0265 18.8784C26.0151 18.8437 26.003 18.8097 25.9893 18.7757C25.7897 18.2889 25.332 17.9663 24.8703 17.7287C24.6782 17.6296 24.4797 17.5392 24.2853 17.4431C24.224 17.4126 24.1626 17.3815 24.1024 17.3498C24.1213 17.4167 24.1397 17.4841 24.1575 17.5516C24.2125 17.7651 24.2613 17.9815 24.3198 18.1938C24.3771 18.4033 24.4494 18.6156 24.544 18.8127C24.6782 19.0936 24.8589 19.3447 25.1112 19.5171C25.422 19.7289 25.8057 19.7975 26.1648 19.9095V19.9089C26.1298 19.5629 26.1321 19.2045 26.0265 18.8784Z" fill="white"/>
<path d="M29.8617 22.8816C29.0181 22.3871 27.9651 21.617 27.4535 20.0767C27.3548 19.7799 27.3067 19.4402 27.2935 19.0848C27.2402 17.6753 27.7316 16.0283 27.7815 15.9227C27.9032 15.9948 29.8434 17.6096 30.2982 19.0854C30.3074 19.1165 30.3165 19.1476 30.3245 19.1781C30.7427 20.7483 30.2913 21.9888 29.8617 22.8816Z" fill="white"/>
<path d="M28.9022 37.9906C26.7326 35.1464 24.3634 33.9199 21.7211 33.5363C20.7668 33.3979 19.0886 33.1005 18.1332 32.965C17.4111 32.8629 16.6862 32.6952 16.0243 32.3902C16.5411 34.0055 17.4988 35.4667 18.7422 36.5952C18.389 36.3869 18.0471 36.1588 17.7191 35.9054C16.1889 34.7252 15.0132 32.8823 15 30.9554C16.0237 31.6505 17.2947 32.1051 18.413 32.3732C20.394 32.8483 22.4891 32.9368 24.337 33.8079C26.2124 34.6912 27.7018 36.2597 28.9022 37.9906Z" fill="#983604"/>
<path d="M30.6286 40.6831C30.628 40.682 30.6269 40.6808 30.6263 40.6796C30.6269 40.6808 30.6274 40.682 30.6286 40.6826V40.6831Z" fill="#983604"/>
<path d="M26.4125 40.3605C24.3433 39.8232 22.0819 40.2092 20.0894 39.449C20.3429 40.3869 20.835 41.2474 21.4246 42.0128C21.4774 42.0815 21.5319 42.1501 21.5863 42.2175C21.525 42.1641 21.4648 42.109 21.4051 42.0533C20.4588 41.1611 19.7763 39.9821 19.4551 38.7081C19.5819 38.7762 19.7115 38.8395 19.8445 38.8982C20.6653 39.2613 21.5857 39.4478 22.4776 39.5581C24.0519 39.7534 25.6876 39.7886 27.1283 40.4655C27.473 40.6274 27.7976 40.8221 28.109 41.0385C27.5739 40.7429 27.0027 40.5136 26.4125 40.3605Z" fill="#983604"/>
<path d="M44.4322 22.567C44.3719 22.5336 44.31 22.5037 44.2463 22.4761C43.4749 22.1453 42.5263 22.3008 41.8937 22.8615C41.307 23.3818 40.9681 24.1285 40.5362 24.7889C39.7075 26.0571 38.3402 26.9076 36.837 27.0202C35.4427 27.1246 34.0628 27.1715 32.8819 27.937C31.5996 28.7687 30.7679 30.1894 30.3297 31.6763C30.0504 32.6224 29.8383 33.6412 29.6983 34.6566C29.7293 32.7896 30.0711 30.8375 30.9836 29.1553C31.5261 28.1552 32.3727 27.1498 33.4056 26.7123C34.4385 26.2753 35.7083 26.5316 36.8032 26.2993C37.898 26.0671 38.83 25.5697 39.6254 24.766C40.059 24.3285 40.3705 23.7865 40.7094 23.2662C40.8229 23.092 40.9394 22.9202 41.065 22.7554C41.564 22.0984 42.2986 21.5212 43.109 21.594C43.6367 21.6427 44.1012 22.0515 44.4322 22.567Z" fill="#983604"/>
<path d="M29.3966 27.8157C29.3484 27.8468 26.2428 29.8482 26.0569 34.2403C26.0202 34.0984 25.7547 31.4489 26.5095 30.0986C27.2998 28.6868 28.4767 28.136 29.3966 27.8157Z" fill="#983604"/>
<path d="M25.2133 30.0123C25.2133 30.0123 23.783 30.6387 22.711 32.1221C22.7426 32.0605 22.773 31.9978 22.8028 31.935C22.8969 31.7362 22.9852 31.5332 23.0821 31.3367C23.3144 30.8651 23.6298 30.397 24.1064 30.1924C24.45 30.0445 24.8394 30.0522 25.2133 30.0123Z" fill="#983604"/>
<path d="M28.1199 26.2308C28.0568 26.2208 24.6489 25.6829 21.3174 28.3588C21.3891 28.2315 23.0333 26.1662 24.501 25.7574C26.0346 25.3304 27.2476 25.792 28.1199 26.2308Z" fill="#983604"/>
<path d="M23.6419 24.7586C22.7036 24.2477 20.4147 24.4413 20.4147 24.4413C20.4795 24.4202 20.5443 24.3979 20.6091 24.375C20.8132 24.3023 21.0157 24.2225 21.2199 24.1538C21.7102 23.9885 22.2574 23.8852 22.7351 24.0852C23.0804 24.2295 23.3511 24.5163 23.6419 24.7586Z" fill="#983604"/>
<path d="M30.2982 19.086C29.7453 18.0583 28.9057 17.1908 27.9008 16.6236C27.6089 17.4172 27.4053 18.2449 27.2929 19.0848C27.2395 17.6753 27.7311 16.0283 27.781 15.9227C27.9037 15.9954 29.8434 17.6096 30.2982 19.086Z" fill="#983604"/>
<path d="M34.9586 20.3148C35.0625 19.3475 35.0343 18.3656 34.8743 17.406C33.5976 17.9111 32.5028 18.8789 31.8123 20.0866C31.8834 19.8473 31.9769 19.6027 32.0967 19.3528C32.7689 17.9574 35.0647 16.701 35.2007 16.6529C35.2333 16.7802 35.4478 18.8994 34.9586 20.3148Z" fill="#983604"/>
<path d="M39.9414 22.5349C39.8771 22.6487 38.5586 24.3081 37.232 24.9527C37.548 24.748 37.8405 24.5016 38.1038 24.23C38.5345 23.7878 38.8964 23.2816 39.2279 22.7555C38.1571 22.3554 36.9728 22.2762 35.8608 22.5338C35.3079 22.6616 34.7733 22.8728 34.2778 23.1555C34.6919 22.7725 35.2115 22.4311 35.8797 22.1994C37.3198 21.6991 39.8118 22.471 39.9414 22.5349Z" fill="#983604"/>
<path d="M27.0055 21.9413C26.697 21.7671 26.3982 21.5881 26.0638 21.4544C25.2701 21.1371 24.4144 20.9817 23.5627 20.9998C23.1916 21.0075 22.8217 21.0491 22.4581 21.1242C22.5791 21.5559 22.8372 21.9853 23.0505 22.3618C23.0976 22.4457 23.1463 22.5284 23.1962 22.6105C22.5269 21.7606 22.0595 20.8561 22.0308 20.7711C22.1696 20.7335 24.7602 20.462 26.0805 21.2339C26.4429 21.4468 26.748 21.6861 27.0055 21.9413Z" fill="#983604"/>
<path d="M24.4018 17.721C24.3789 17.7139 24.3553 17.7069 24.3318 17.6999C24.3989 18.0541 24.4666 18.4078 24.5337 18.7621C24.5366 18.7785 24.54 18.795 24.5434 18.8114C24.4488 18.6143 24.3772 18.402 24.3192 18.1926C24.2607 17.9802 24.2119 17.7638 24.1569 17.5503C24.1397 17.4828 24.1213 17.4154 24.1018 17.3485C24.1621 17.3802 24.2234 17.4113 24.2848 17.4418C24.4792 17.538 24.6777 17.6283 24.8698 17.7274C25.3309 17.965 25.7891 18.2876 25.9887 18.7744C26.0025 18.8085 26.0151 18.8425 26.026 18.8771C25.6188 18.3345 25.043 17.9227 24.4018 17.721Z" fill="#983604"/>
<path d="M31.8937 15.8247C31.8266 15.6153 31.7486 15.4082 31.6775 15.1994C31.6551 15.1337 31.6333 15.0674 31.6133 15.0005L31.6127 15.0017V15.0005C31.5806 15.0616 31.5468 15.1226 31.5123 15.183C31.404 15.3736 31.2887 15.5625 31.1831 15.7543C31.0587 15.9819 30.9457 16.2265 30.8757 16.4781C31.0266 16.1168 31.2628 15.7918 31.5611 15.5443C31.5657 15.5402 31.5702 15.5367 31.5749 15.5326C31.8656 16.0646 32.0107 16.6787 31.9912 17.2875C32.1444 16.82 32.0457 16.2968 31.8937 15.8247Z" fill="#983604"/>
<path d="M38.5466 18.7716C38.5156 18.8332 38.4852 18.896 38.4554 18.9587C38.3613 19.1576 38.273 19.3605 38.1761 19.557C38.0488 19.8151 37.8968 20.072 37.7069 20.2855C37.9232 19.906 38.0872 19.4954 38.1927 19.0702V19.0696C38.1956 19.0578 38.1984 19.0461 38.2019 19.0344C38.199 19.0455 37.8859 19.147 37.8543 19.1546C37.7454 19.1804 37.555 19.2532 37.45 19.2919C37.0703 19.4326 36.8208 19.5535 36.5306 19.8397C36.4572 19.9119 36.3878 19.9887 36.3224 20.0691C36.3018 20.0943 36.2783 20.1377 36.2519 20.1664C36.2983 20.0386 36.3546 19.9154 36.4285 19.8022C36.7159 19.3629 37.2252 19.1359 37.7224 18.9922C37.9295 18.9323 38.1411 18.8825 38.3498 18.8262C38.4158 18.8097 38.4812 18.7916 38.5466 18.7716Z" fill="#983604"/>
<path d="M31.81 25.5684C31.7963 25.5109 31.7917 25.4393 31.7796 25.3941C31.7567 25.3079 31.7297 25.2228 31.6959 25.1401C31.6202 24.9542 31.5078 24.7794 31.3495 24.6597C31.1975 24.5442 31.0094 24.4844 30.8207 24.4721C30.3544 24.4416 29.8818 24.7184 29.6719 25.146C29.5349 25.4252 29.5153 25.7572 29.602 26.0558C29.5572 25.9778 29.5211 25.8927 29.4941 25.8024C29.3026 25.1613 29.6553 24.4826 30.2821 24.2867C30.909 24.0908 31.5726 24.4515 31.7642 25.0926C31.8117 25.251 31.8255 25.4123 31.81 25.5684Z" fill="#983604"/>
<path d="M30.6285 26.2806C31.1815 26.2806 31.6299 25.8221 31.6299 25.2565C31.6299 24.6909 31.1815 24.2324 30.6285 24.2324C30.0755 24.2324 29.6271 24.6909 29.6271 25.2565C29.6271 25.8221 30.0755 26.2806 30.6285 26.2806Z" fill="#983604"/>
</svg>
