<svg width="32" height="32" viewBox="0 0 32 32" fill="none" xmlns="http://www.w3.org/2000/svg">
<g clip-path="url(#clip0_117_183)">
<path opacity="0.93" fill-rule="evenodd" clip-rule="evenodd" d="M14.0647 0.340576C14.486 0.340576 14.9074 0.340576 15.3287 0.340576C17.5524 0.657157 19.6191 1.40957 21.5286 2.59782C23.4856 4.13528 24.86 6.09156 25.6519 8.46667C25.7943 8.93792 25.8745 9.41947 25.8926 9.91131C27.1686 11.6146 27.61 13.5207 27.2169 15.6297C27.0048 17.2725 26.3326 18.6871 25.2004 19.8733C24.9038 20.1195 24.5828 20.3302 24.2373 20.5053C24.0307 22.1102 23.6595 23.6752 23.1238 25.2004C22.8343 25.9002 22.4531 26.5422 21.9801 27.1266C21.0234 28.1235 20.0302 29.0766 19.0005 29.9858C18.2973 30.5882 17.4948 30.9794 16.5928 31.1595C16.031 31.1595 15.4692 31.1595 14.9074 31.1595C14.0054 30.9794 13.2028 30.5882 12.4996 29.9858C11.4499 29.0565 10.4366 28.0834 9.45987 27.0664C8.67622 26.0003 8.13448 24.8164 7.83465 23.515C7.57197 22.3403 7.36129 21.1565 7.20263 19.9636C6.07722 18.8875 5.22448 17.6234 4.64441 16.1714C3.23861 10.0643 5.39554 5.76051 11.1152 3.25995C11.8119 1.99136 12.7951 1.01824 14.0647 0.340576ZM14.4258 1.30367C16.8803 1.49643 19.1276 2.26891 21.1675 3.62111C22.6698 4.89084 23.7634 6.44586 24.448 8.28609C22.6444 6.62596 20.6279 5.27162 18.3986 4.22304C17.7324 4.16726 17.5317 4.44816 17.7966 5.06575C20.0877 6.17435 22.1644 7.58887 24.0266 9.30938C24.817 10.1273 25.4591 11.0502 25.9528 12.0783C26.5403 14.1409 26.3396 16.1273 25.3509 18.0374C25.0977 18.4715 24.7767 18.8527 24.3878 19.1811C24.4116 18.2788 24.4116 17.3759 24.3878 16.4724C23.1998 14.2608 21.5646 12.4449 19.4821 11.0249C19.0301 10.7688 18.5686 10.528 18.0976 10.3026C16.7528 9.78575 15.3884 9.32424 14.0045 8.91812C11.5974 8.14181 10.865 6.56673 11.8074 4.19295C12.3922 2.95909 13.265 1.996 14.4258 1.30367ZM10.5133 4.6143C10.5508 4.63939 10.5709 4.67953 10.5734 4.73469C10.4571 5.43256 10.427 6.13482 10.4832 6.84145C10.6663 7.72629 11.1178 8.43856 11.8375 8.97831C12.446 9.36283 13.0881 9.68384 13.7637 9.94141C10.7015 11.1576 8.50449 13.2744 7.17253 16.2918C7.0965 16.9295 7.05636 17.5716 7.05214 18.218C5.99125 17.0182 5.38931 15.6137 5.24634 14.0045C4.90904 10.678 6.02262 7.9593 8.58707 5.84826C9.20736 5.39769 9.84938 4.98637 10.5133 4.6143ZM15.3889 10.453C17.7005 11.0014 19.6567 12.1451 21.2578 13.8841C22.0764 14.7628 22.7787 15.7259 23.3645 16.7733C23.4224 19.4206 23.0612 22.009 22.281 24.5383C22.0737 25.1537 21.7728 25.7155 21.3781 26.2237C20.2791 27.3832 19.1254 28.4767 17.917 29.5042C16.4724 30.4272 15.0278 30.4272 13.5831 29.5042C12.2308 28.3727 10.9767 27.1387 9.82103 25.8023C9.30572 24.8787 8.94456 23.8955 8.73755 22.8529C8.29862 20.8289 8.098 18.7824 8.13562 16.7132C9.57755 13.4955 11.9953 11.4088 15.3889 10.453Z" fill="#C28565"/>
<path opacity="0.926" fill-rule="evenodd" clip-rule="evenodd" d="M12.4394 15.6897C13.4374 15.7119 14.2099 16.1333 14.7569 16.9538C14.8873 17.5456 14.6565 17.7764 14.0647 17.646C13.825 17.3864 13.5642 17.1457 13.2821 16.9237C12.7369 16.6978 12.1751 16.6577 11.5967 16.8033C11.2704 16.8651 10.9695 16.9855 10.6938 17.1644C10.142 17.2547 9.91132 17.024 10.0016 16.4722C10.1304 16.3217 10.2809 16.1912 10.4531 16.081C11.0982 15.8215 11.7603 15.6911 12.4394 15.6897Z" fill="#C28565"/>
<path opacity="0.927" fill-rule="evenodd" clip-rule="evenodd" d="M18.8199 15.6898C19.5891 15.6738 20.3315 15.8042 21.0471 16.081C21.4599 16.2345 21.6104 16.5255 21.4985 16.9538C21.3957 17.1276 21.2452 17.2079 21.0471 17.1946C20.6959 17.0497 20.3348 16.9193 19.9636 16.8034C19.3678 16.6608 18.7859 16.7009 18.218 16.9238C17.9359 17.1457 17.6751 17.3865 17.4355 17.6461C16.9883 17.7741 16.7274 17.6136 16.653 17.1645C17.0992 16.2691 17.8216 15.7776 18.8199 15.6898Z" fill="#C28565"/>
<path opacity="0.926" fill-rule="evenodd" clip-rule="evenodd" d="M10.2123 18.6392C10.374 18.6293 10.5346 18.6393 10.6938 18.6693C10.9335 18.9288 11.1943 19.1696 11.4763 19.3916C12.0216 19.6174 12.5834 19.6576 13.1618 19.512C13.4881 19.4502 13.789 19.3298 14.0647 19.1508C14.6165 19.0605 14.8472 19.2912 14.7569 19.843C14.4469 20.1884 14.0557 20.3991 13.5831 20.4751C12.5967 20.7548 11.6537 20.6544 10.754 20.1741C10.3614 19.9222 10.0805 19.5811 9.91132 19.1508C9.94401 18.9341 10.0444 18.7635 10.2123 18.6392Z" fill="#C28565"/>
<path opacity="0.928" fill-rule="evenodd" clip-rule="evenodd" d="M20.8063 18.6392C21.4105 18.5507 21.6412 18.7915 21.4985 19.3615C20.9832 20.1462 20.2508 20.5676 19.3015 20.6256C18.5742 20.6247 17.8719 20.4943 17.1947 20.2343C17.0225 20.124 16.872 19.9936 16.7433 19.843C16.653 19.2912 16.8837 19.0605 17.4355 19.1508C18.2596 19.6392 19.1225 19.7195 20.0238 19.3916C20.3181 19.1674 20.5789 18.9165 20.8063 18.6392Z" fill="#C28565"/>
<path opacity="0.931" fill-rule="evenodd" clip-rule="evenodd" d="M4.43373 19.1209C4.59549 19.111 4.75601 19.121 4.91528 19.151C5.02563 19.1811 5.09586 19.2513 5.12596 19.3616C5.16609 19.6826 5.16609 20.0037 5.12596 20.3247C5.09586 20.4351 5.02563 20.5053 4.91528 20.5354C4.75476 20.5755 4.59425 20.5755 4.43373 20.5354C4.32338 20.5053 4.25315 20.4351 4.22306 20.3247C4.18293 20.0037 4.18293 19.6826 4.22306 19.3616C4.26457 19.2503 4.3348 19.17 4.43373 19.1209Z" fill="#C28565"/>
<path opacity="0.931" fill-rule="evenodd" clip-rule="evenodd" d="M2.98909 20.5655C3.35753 20.5408 3.71869 20.5709 4.07257 20.6558C4.35524 21.2848 4.1546 21.5757 3.47064 21.5286C2.87863 21.6288 2.64789 21.3881 2.77842 20.8062C2.81993 20.6949 2.89016 20.6146 2.98909 20.5655Z" fill="#C28565"/>
<path opacity="0.931" fill-rule="evenodd" clip-rule="evenodd" d="M5.39682 20.5655C5.76526 20.5408 6.12642 20.5709 6.4803 20.6558C6.76297 21.2848 6.56235 21.5757 5.87837 21.5286C5.28636 21.6288 5.05562 21.3881 5.18615 20.8062C5.22766 20.6949 5.29789 20.6146 5.39682 20.5655Z" fill="#C28565"/>
<path opacity="0.931" fill-rule="evenodd" clip-rule="evenodd" d="M26.5849 21.0471C26.7466 21.0373 26.9071 21.0473 27.0664 21.0772C27.1767 21.1073 27.247 21.1776 27.2771 21.2879C27.3172 21.6089 27.3172 21.93 27.2771 22.251C27.247 22.3613 27.1767 22.4316 27.0664 22.4617C26.9059 22.5018 26.7454 22.5018 26.5849 22.4617C26.4745 22.4316 26.4043 22.3613 26.3742 22.251C26.334 21.93 26.334 21.6089 26.3742 21.2879C26.4157 21.1765 26.4859 21.0962 26.5849 21.0471Z" fill="#C28565"/>
<path opacity="0.931" fill-rule="evenodd" clip-rule="evenodd" d="M4.43373 21.5286C4.59549 21.5187 4.75601 21.5288 4.91528 21.5587C5.02563 21.5888 5.09586 21.659 5.12596 21.7693C5.16609 22.0904 5.16609 22.4114 5.12596 22.7324C5.09586 22.8428 5.02563 22.913 4.91528 22.9431C4.75476 22.9833 4.59425 22.9833 4.43373 22.9431C4.32338 22.913 4.25315 22.8428 4.22306 22.7324C4.18293 22.4114 4.18293 22.0904 4.22306 21.7693C4.26457 21.658 4.3348 21.5777 4.43373 21.5286Z" fill="#C28565"/>
<path opacity="0.931" fill-rule="evenodd" clip-rule="evenodd" d="M25.1402 22.4917C25.5087 22.4671 25.8698 22.4972 26.2237 22.582C26.5064 23.211 26.3057 23.502 25.6218 23.4548C25.0298 23.5551 24.799 23.3143 24.9295 22.7325C24.9711 22.6212 25.0413 22.5409 25.1402 22.4917Z" fill="#C28565"/>
<path opacity="0.931" fill-rule="evenodd" clip-rule="evenodd" d="M27.548 22.4917C27.9164 22.4671 28.2776 22.4972 28.6314 22.582C28.9141 23.211 28.7135 23.502 28.0295 23.4548C27.4375 23.5551 27.2068 23.3143 27.3373 22.7325C27.3788 22.6212 27.449 22.5409 27.548 22.4917Z" fill="#C28565"/>
<path opacity="0.931" fill-rule="evenodd" clip-rule="evenodd" d="M26.5849 23.4548C26.7466 23.445 26.9071 23.455 27.0664 23.4849C27.1767 23.515 27.247 23.5853 27.2771 23.6956C27.3172 24.0166 27.3172 24.3377 27.2771 24.6587C27.247 24.769 27.1767 24.8393 27.0664 24.8694C26.9059 24.9095 26.7454 24.9095 26.5849 24.8694C26.4745 24.8393 26.4043 24.769 26.3742 24.6587C26.334 24.3377 26.334 24.0166 26.3742 23.6956C26.4157 23.5843 26.4859 23.504 26.5849 23.4548Z" fill="#C28565"/>
<path opacity="0.925" fill-rule="evenodd" clip-rule="evenodd" d="M13.1016 23.9363C13.3109 23.9173 13.5116 23.9474 13.7035 24.0266C13.895 24.3584 14.176 24.5791 14.5462 24.6888C15.5386 24.9853 16.5016 24.905 17.4355 24.448C17.5993 24.2842 17.7597 24.1237 17.917 23.9664C18.3526 23.8321 18.5934 23.9826 18.6393 24.4179C18.6362 24.6248 18.566 24.8054 18.4287 24.9596C17.9161 25.4516 17.3041 25.7425 16.5928 25.8324C15.7109 25.9308 14.8481 25.8505 14.0045 25.5917C13.657 25.4331 13.346 25.2224 13.0715 24.9596C12.7812 24.5963 12.7913 24.2552 13.1016 23.9363Z" fill="#C28565"/>
<path opacity="0.95" fill-rule="evenodd" clip-rule="evenodd" d="M24.1771 25.3809C24.3389 25.371 24.4994 25.381 24.6587 25.411C24.769 25.4411 24.8393 25.5113 24.8694 25.6216C24.9095 26.1032 24.9095 26.5847 24.8694 27.0663C24.8393 27.1766 24.769 27.2469 24.6587 27.277C24.4981 27.3171 24.3377 27.3171 24.1771 27.277C24.0668 27.2469 23.9966 27.1766 23.9665 27.0663C23.9263 26.5847 23.9263 26.1032 23.9665 25.6216C24.008 25.5103 24.0782 25.43 24.1771 25.3809Z" fill="#C28565"/>
<path opacity="0.95" fill-rule="evenodd" clip-rule="evenodd" d="M22.2509 27.3072C22.7329 27.2972 23.2145 27.3072 23.6956 27.3373C23.8059 27.3674 23.8762 27.4377 23.9063 27.548C23.9464 27.7085 23.9464 27.869 23.9063 28.0295C23.8762 28.1399 23.8059 28.2101 23.6956 28.2402C23.214 28.2804 22.7325 28.2804 22.2509 28.2402C22.0694 28.1482 21.9892 27.9977 22.0102 27.7888C21.997 27.5741 22.0773 27.4136 22.2509 27.3072Z" fill="#C28565"/>
<path opacity="0.95" fill-rule="evenodd" clip-rule="evenodd" d="M25.1402 27.3072C25.6222 27.2972 26.1037 27.3072 26.5849 27.3373C26.6952 27.3674 26.7654 27.4377 26.7955 27.548C26.8357 27.7085 26.8357 27.869 26.7955 28.0295C26.7654 28.1399 26.6952 28.2101 26.5849 28.2402C26.1033 28.2804 25.6218 28.2804 25.1402 28.2402C24.9587 28.1482 24.8784 27.9977 24.8995 27.7888C24.8863 27.5741 24.9666 27.4136 25.1402 27.3072Z" fill="#C28565"/>
<path opacity="0.95" fill-rule="evenodd" clip-rule="evenodd" d="M24.1771 28.2703C24.3389 28.2604 24.4994 28.2705 24.6587 28.3004C24.769 28.3305 24.8393 28.4007 24.8694 28.511C24.9095 28.9926 24.9095 29.4741 24.8694 29.9557C24.8393 30.066 24.769 30.1363 24.6587 30.1664C24.4981 30.2065 24.3377 30.2065 24.1771 30.1664C24.0668 30.1363 23.9966 30.066 23.9665 29.9557C23.9263 29.4741 23.9263 28.9926 23.9665 28.511C24.008 28.3997 24.0782 28.3194 24.1771 28.2703Z" fill="#C28565"/>
</g>
<defs>
<clipPath id="clip0_117_183">
<rect width="30.819" height="30.819" fill="white" transform="translate(0.370686 0.370605)"/>
</clipPath>
</defs>
</svg>
