<svg width="30" height="30" viewBox="0 0 30 30" fill="none" xmlns="http://www.w3.org/2000/svg">
<g clip-path="url(#clip0_152_300)">
<path opacity="0.93" fill-rule="evenodd" clip-rule="evenodd" d="M13.3301 -0.0292969C13.7402 -0.0292969 14.1504 -0.0292969 14.5606 -0.0292969C16.7252 0.278872 18.7369 1.01129 20.5957 2.16797C22.5007 3.66456 23.8386 5.56886 24.6094 7.88086C24.748 8.33959 24.8261 8.80834 24.8438 9.28711C26.0858 10.9451 26.5154 12.8006 26.1328 14.8535C25.9263 16.4527 25.272 17.8297 24.1699 18.9844C23.8812 19.224 23.5687 19.4291 23.2324 19.5996C23.0313 21.1618 22.67 22.6853 22.1484 24.1699C21.8667 24.8511 21.4956 25.4761 21.0352 26.0449C20.1039 27.0154 19.1371 27.9431 18.1348 28.8281C17.4503 29.4145 16.6691 29.7954 15.791 29.9707C15.2442 29.9707 14.6973 29.9707 14.1504 29.9707C13.2724 29.7954 12.4911 29.4145 11.8067 28.8281C10.7848 27.9236 9.79847 26.9763 8.84766 25.9863C8.08483 24.9485 7.55749 23.7962 7.26563 22.5293C7.00993 21.3858 6.80485 20.2335 6.6504 19.0723C5.5549 18.0247 4.72482 16.7943 4.16016 15.3809C2.79172 9.43605 4.89133 5.24661 10.459 2.8125C11.1372 1.57762 12.0942 0.630357 13.3301 -0.0292969ZM13.6817 0.908203C16.0709 1.09584 18.2585 1.84779 20.2442 3.16406C21.7066 4.40005 22.7711 5.91375 23.4375 7.70508C21.6818 6.08906 19.7189 4.77071 17.5488 3.75C16.9003 3.6957 16.705 3.96913 16.9629 4.57031C19.1931 5.64945 21.2146 7.02639 23.0274 8.70117C23.7967 9.49734 24.4218 10.3958 24.9024 11.3965C25.4742 13.4043 25.2789 15.3379 24.3164 17.1973C24.07 17.6198 23.7575 17.9909 23.3789 18.3105C23.4021 17.4323 23.4021 16.5534 23.3789 15.6738C22.2225 13.521 20.6307 11.7534 18.6035 10.3711C18.1635 10.1218 17.7143 9.8874 17.2559 9.66797C15.9468 9.16488 14.6187 8.71564 13.2715 8.32031C10.9284 7.56463 10.2155 6.03141 11.1328 3.7207C11.7021 2.51964 12.5517 1.58214 13.6817 0.908203ZM9.87306 4.13086C9.90962 4.15529 9.92913 4.19435 9.93165 4.24805C9.81839 4.92738 9.78909 5.61097 9.84376 6.29883C10.0221 7.16016 10.4615 7.8535 11.1621 8.37891C11.7544 8.7532 12.3795 9.06568 13.0371 9.31641C10.0563 10.5003 7.91766 12.5609 6.6211 15.498C6.5471 16.1188 6.50802 16.7438 6.50391 17.373C5.47121 16.2052 4.88527 14.838 4.7461 13.2715C4.41777 10.0334 5.50175 7.38697 7.99806 5.33203C8.60186 4.89343 9.22682 4.49304 9.87306 4.13086ZM14.6192 9.81445C16.8693 10.3482 18.7736 11.4615 20.332 13.1543C21.1289 14.0096 21.8125 14.9471 22.3828 15.9668C22.4391 18.5438 22.0876 21.0633 21.3281 23.5254C21.1263 24.1245 20.8334 24.6714 20.4492 25.166C19.3794 26.2947 18.2563 27.3592 17.0801 28.3594C15.6738 29.2578 14.2676 29.2578 12.8613 28.3594C11.545 27.2579 10.3242 26.0567 9.19923 24.7559C8.69761 23.8567 8.34604 22.8997 8.14454 21.8848C7.71727 19.9146 7.52198 17.9224 7.5586 15.9082C8.96222 12.7761 11.3158 10.7448 14.6192 9.81445Z" fill="#C28565"/>
<path opacity="0.926" fill-rule="evenodd" clip-rule="evenodd" d="M11.748 14.9121C12.7195 14.9337 13.4715 15.3439 14.0039 16.1426C14.1309 16.7187 13.9062 16.9434 13.3301 16.8164C13.0968 16.5638 12.8429 16.3294 12.5683 16.1133C12.0375 15.8934 11.4907 15.8544 10.9277 15.9961C10.6101 16.0563 10.3171 16.1735 10.0488 16.3477C9.51168 16.4355 9.2871 16.211 9.37499 15.6738C9.50032 15.5273 9.6468 15.4003 9.81444 15.293C10.4424 15.0404 11.0869 14.9135 11.748 14.9121Z" fill="#C28565"/>
<path opacity="0.927" fill-rule="evenodd" clip-rule="evenodd" d="M17.959 14.9122C18.7078 14.8966 19.4304 15.0236 20.127 15.293C20.5288 15.4424 20.6753 15.7256 20.5664 16.1426C20.4663 16.3118 20.3198 16.39 20.127 16.377C19.7851 16.236 19.4336 16.109 19.0723 15.9962C18.4923 15.8573 17.9259 15.8964 17.373 16.1133C17.0985 16.3294 16.8446 16.5638 16.6113 16.8165C16.176 16.9411 15.9221 16.7848 15.8496 16.3477C16.284 15.4761 16.9871 14.9976 17.959 14.9122Z" fill="#C28565"/>
<path opacity="0.926" fill-rule="evenodd" clip-rule="evenodd" d="M9.58008 17.7831C9.73752 17.7735 9.89379 17.7833 10.0488 17.8124C10.2821 18.0651 10.536 18.2994 10.8105 18.5155C11.3413 18.7354 11.8882 18.7745 12.4512 18.6327C12.7688 18.5725 13.0618 18.4554 13.3301 18.2812C13.8672 18.1933 14.0918 18.4179 14.0039 18.955C13.7022 19.2912 13.3213 19.4963 12.8613 19.5702C11.9011 19.8425 10.9832 19.7448 10.1074 19.2773C9.72521 19.032 9.45176 18.7 9.28711 18.2812C9.31893 18.0702 9.4166 17.9042 9.58008 17.7831Z" fill="#C28565"/>
<path opacity="0.928" fill-rule="evenodd" clip-rule="evenodd" d="M19.8926 17.7832C20.4807 17.6971 20.7053 17.9315 20.5664 18.4864C20.0648 19.2502 19.3519 19.6604 18.4277 19.7168C17.7197 19.716 17.0361 19.5891 16.3769 19.336C16.2093 19.2286 16.0628 19.1016 15.9375 18.9551C15.8496 18.418 16.0742 18.1934 16.6113 18.2813C17.4136 18.7566 18.2535 18.8348 19.1308 18.5157C19.4173 18.2974 19.6712 18.0532 19.8926 17.7832Z" fill="#C28565"/>
<path opacity="0.925" fill-rule="evenodd" clip-rule="evenodd" d="M12.3926 22.9395C12.5964 22.921 12.7917 22.9503 12.9785 23.0274C13.165 23.3503 13.4384 23.5652 13.7988 23.672C14.7648 23.9606 15.7023 23.8824 16.6113 23.4376C16.7708 23.2782 16.927 23.1219 17.0801 22.9688C17.5041 22.8381 17.7385 22.9846 17.7832 23.4083C17.7802 23.6097 17.7118 23.7855 17.5781 23.9356C17.0792 24.4145 16.4835 24.6977 15.791 24.7852C14.9326 24.881 14.0927 24.8028 13.2715 24.5509C12.9333 24.3965 12.6305 24.1915 12.3633 23.9356C12.0808 23.582 12.0905 23.2499 12.3926 22.9395Z" fill="#C28565"/>
<g clip-path="url(#clip1_152_300)">
<path opacity="0.951" fill-rule="evenodd" clip-rule="evenodd" d="M5.37989 22.9932C5.48471 22.9932 5.58952 22.9932 5.69434 22.9932C6.09599 23.1655 6.21677 23.4571 6.05665 23.8682C5.9227 24.0656 5.73585 24.1705 5.4961 24.1826C5.4209 24.4082 5.34571 24.6338 5.27051 24.8594C5.48631 25.2203 5.70734 25.5781 5.9336 25.9326C5.99741 26.0146 5.99741 26.0967 5.9336 26.1787C5.71006 26.5256 5.4936 26.8765 5.28419 27.2314C5.39897 27.4838 5.5243 27.7299 5.66016 27.9697C6.02408 27.8964 6.27017 28.0332 6.39844 28.3799C6.45681 28.7585 6.30413 29.0023 5.94044 29.1113C5.71624 29.143 5.52711 29.0769 5.37305 28.9131C5.19803 28.6536 5.20031 28.3961 5.37989 28.1406C5.25642 27.8868 5.1311 27.6339 5.00391 27.3818C4.67441 27.3637 4.344 27.3637 4.0127 27.3818C3.77842 27.7596 3.54145 28.1356 3.30176 28.5098C3.28354 28.5189 3.2653 28.528 3.24708 28.5371C2.86882 28.5417 2.49057 28.5462 2.11231 28.5508C1.99119 28.7061 1.8727 28.8633 1.75684 29.0225C1.90824 29.2311 1.93332 29.4544 1.83204 29.6924C1.74662 29.8363 1.62585 29.9366 1.46973 29.9932C1.3558 29.9932 1.24187 29.9932 1.12794 29.9932C0.823048 29.876 0.684052 29.6527 0.710944 29.3232C0.769502 29.0414 0.940401 28.875 1.22364 28.8242C1.30915 28.8146 1.39346 28.8214 1.47657 28.8447C1.48796 28.8402 1.49936 28.8356 1.51075 28.8311C1.61784 28.6898 1.72495 28.5485 1.83204 28.4072C1.84116 28.389 1.84116 28.3708 1.83204 28.3525C1.62582 28.0176 1.41618 27.6849 1.20313 27.3545C1.13636 27.2552 1.14092 27.1595 1.2168 27.0674C1.43043 26.7336 1.64234 26.3986 1.85255 26.0625C1.68393 25.8119 1.5153 25.5612 1.34669 25.3105C1.06836 25.3803 0.83822 25.3051 0.656257 25.085C0.485871 24.792 0.515494 24.5208 0.745124 24.2715C1.00597 24.0854 1.27029 24.0808 1.53809 24.2578C1.80054 24.5307 1.82332 24.8223 1.60645 25.1328C1.77676 25.3846 1.94539 25.6375 2.11231 25.8916C2.44956 25.9098 2.78679 25.9098 3.12403 25.8916C3.35588 25.5122 3.59287 25.1362 3.83497 24.7637C4.21986 24.7479 4.60495 24.7365 4.99024 24.7295C5.05979 24.5128 5.13043 24.2964 5.20215 24.0801C4.91287 23.823 4.86959 23.5291 5.07227 23.1982C5.15899 23.1038 5.26153 23.0354 5.37989 22.9932ZM5.46192 23.2939C5.63669 23.2753 5.7529 23.3482 5.81055 23.5127C5.82187 23.7657 5.70111 23.8773 5.44825 23.8477C5.26392 23.7592 5.21152 23.6202 5.29102 23.4307C5.33465 23.3669 5.39162 23.3213 5.46192 23.2939ZM1.11426 24.4561C1.36812 24.4718 1.47066 24.604 1.42188 24.8525C1.32261 25.0223 1.18361 25.0656 1.00489 24.9824C0.87175 24.8683 0.846685 24.7339 0.929694 24.5791C0.977931 24.5153 1.03945 24.4743 1.11426 24.4561ZM4.0127 25.0439C4.34542 25.0417 4.6781 25.0439 5.01075 25.0508C5.2285 25.3803 5.43813 25.7152 5.63965 26.0557C5.43813 26.3961 5.2285 26.731 5.01075 27.0605C4.67807 27.0697 4.34538 27.0697 4.0127 27.0605C3.80136 26.7267 3.59172 26.3918 3.3838 26.0557C3.59358 25.718 3.80322 25.3808 4.0127 25.0439ZM2.11231 26.2061C2.44968 26.2015 2.78691 26.2061 3.12403 26.2197C3.33195 26.5558 3.5416 26.8908 3.75294 27.2246C3.53533 27.5595 3.32114 27.8968 3.11036 28.2363C2.78223 28.2454 2.45411 28.2454 2.12598 28.2363C1.9152 27.8968 1.70101 27.5595 1.4834 27.2246C1.69848 26.8878 1.90812 26.5482 2.11231 26.2061ZM5.74903 28.2568C6.04582 28.2551 6.15291 28.3963 6.07032 28.6807C5.96275 28.8257 5.82831 28.8554 5.667 28.7695C5.51398 28.6275 5.50486 28.4771 5.63965 28.3184C5.67519 28.2938 5.71165 28.2733 5.74903 28.2568ZM1.22364 29.1318C1.43544 29.109 1.55849 29.2024 1.59278 29.4121C1.56139 29.6167 1.4429 29.7078 1.23731 29.6855C1.06496 29.6166 0.998885 29.4913 1.03907 29.3096C1.08147 29.2284 1.14299 29.1692 1.22364 29.1318Z" fill="#C28565"/>
<path opacity="0.937" fill-rule="evenodd" clip-rule="evenodd" d="M5.18847 25.9053C5.33666 25.8963 5.40273 25.9646 5.38671 26.1104C5.2352 26.3724 5.08025 26.6322 4.92187 26.8897C4.90952 26.9061 4.89358 26.9175 4.87401 26.9239C4.7107 26.9565 4.64007 26.8905 4.6621 26.7256C4.80337 26.4887 4.94466 26.2517 5.08593 26.0147C5.11365 25.9711 5.14783 25.9346 5.18847 25.9053Z" fill="#C28565"/>
<path opacity="0.954" fill-rule="evenodd" clip-rule="evenodd" d="M2.1123 26.493C2.44957 26.4908 2.78681 26.493 3.12402 26.4999C3.1964 26.5468 3.22146 26.6129 3.19921 26.6981C3.17784 26.7423 3.14366 26.7719 3.09667 26.787C2.77767 26.7961 2.45865 26.7961 2.13964 26.787C2.02509 26.7311 2.00003 26.6467 2.06445 26.5341C2.0801 26.5185 2.09606 26.5049 2.1123 26.493Z" fill="#C28565"/>
</g>
</g>
<defs>
<clipPath id="clip0_152_300">
<rect width="30" height="30" fill="white"/>
</clipPath>
<clipPath id="clip1_152_300">
<rect width="7" height="7" fill="white" transform="translate(0 23)"/>
</clipPath>
</defs>
</svg>
