<svg width="30" height="30" viewBox="0 0 30 30" fill="none" xmlns="http://www.w3.org/2000/svg">
<g clip-path="url(#clip0_117_266)">
<path opacity="0.967" fill-rule="evenodd" clip-rule="evenodd" d="M11.2793 0.43941C14.8826 0.232993 17.3923 1.77596 18.8086 5.06832C18.9718 5.54545 19.089 6.03371 19.1602 6.53316C19.1895 8.25177 19.1992 9.97056 19.1895 11.6894C20.127 11.6894 21.0645 11.6894 22.002 11.6894C21.983 11.2488 22.1783 10.9461 22.5879 10.7812C23.0172 10.7519 23.4468 10.7422 23.877 10.7519C23.584 9.20896 24.209 8.58394 25.752 8.87691C25.733 8.43634 25.9283 8.13359 26.3379 7.96871C27.1973 7.92962 28.0566 7.92962 28.916 7.96871C29.1797 8.07611 29.3653 8.26168 29.4727 8.52535C29.5117 10.9472 29.5117 13.3691 29.4727 15.791C29.3653 16.0546 29.1797 16.2402 28.916 16.3476C28.0566 16.3867 27.1973 16.3867 26.3379 16.3476C25.9283 16.1827 25.733 15.88 25.752 15.4394C24.209 15.7324 23.584 15.1074 23.877 13.5644C23.4244 13.582 22.9752 13.5625 22.5293 13.5058C22.1584 13.3306 21.9826 13.0376 22.002 12.6269C21.0645 12.6269 20.127 12.6269 19.1895 12.6269C19.1895 14.7363 19.1895 16.8457 19.1895 18.955C20.7104 19.5907 21.6381 20.7235 21.9727 22.3535C21.9922 23.2519 22.0117 24.1504 22.0313 25.0488C23.3936 26.2142 24.0089 27.6985 23.877 29.5019C16.0645 29.5019 8.25194 29.5019 0.439455 29.5019C0.307581 27.6985 0.922813 26.2142 2.28516 25.0488C2.30469 24.1504 2.32422 23.2519 2.34375 22.3535C2.67832 20.7235 3.60605 19.5907 5.12696 18.955C5.11719 14.8144 5.12696 10.6737 5.15625 6.53316C5.6622 3.61649 7.31256 1.67313 10.1074 0.703081C10.5035 0.602587 10.894 0.514699 11.2793 0.43941ZM12.0996 1.37691C14.7274 1.52277 16.6122 2.77277 17.7539 5.12691C17.9456 5.6201 18.0823 6.12793 18.1641 6.65035C18.2443 8.32882 18.2736 10.0085 18.252 11.6894C17.9395 11.6894 17.6269 11.6894 17.3145 11.6894C17.3242 10.4588 17.3145 9.2283 17.2852 7.998C15.2555 7.73029 13.5465 6.85138 12.1582 5.36129C10.7836 6.84945 9.08438 7.71857 7.06055 7.96871C6.99258 9.32187 6.98279 10.6793 7.03125 12.041C7.39805 13.9113 8.44301 15.2493 10.166 16.0546C10.0753 16.4912 9.98737 16.9307 9.90235 17.373C9.75873 17.7314 9.49506 17.9364 9.11133 17.9882C8.1 18.1982 7.09418 18.4229 6.09375 18.6621C6.05467 14.9316 6.05467 11.2011 6.09375 7.47066C6.23051 4.86105 7.47076 2.99581 9.81446 1.87496C10.5584 1.58614 11.3201 1.42013 12.0996 1.37691ZM12.0996 6.76754C13.087 7.59365 14.2003 8.20888 15.4395 8.61324C15.7488 8.70037 16.0613 8.76869 16.377 8.81832C16.3867 9.48265 16.377 10.1468 16.3477 10.8105C15.4683 10.5958 14.8629 10.9084 14.5313 11.748C14.3565 12.6196 14.6788 13.2154 15.498 13.5351C15.5538 13.5772 15.5635 13.626 15.5273 13.6816C14.0696 15.4059 12.302 15.8258 10.2246 14.9414C9.0409 14.2653 8.30848 13.2594 8.02735 11.9238C7.95094 10.8901 7.92164 9.85502 7.93946 8.81832C9.54059 8.54644 10.9273 7.86283 12.0996 6.76754ZM26.6895 8.87691C27.3145 8.87691 27.9394 8.87691 28.5645 8.87691C28.5645 11.0644 28.5645 13.2519 28.5645 15.4394C27.9394 15.4394 27.3145 15.4394 26.6895 15.4394C26.6895 13.2519 26.6895 11.0644 26.6895 8.87691ZM24.8145 9.81441C25.1269 9.81441 25.4395 9.81441 25.752 9.81441C25.752 11.3769 25.752 12.9394 25.752 14.5019C25.4395 14.5019 25.1269 14.5019 24.8145 14.5019C24.8145 12.9394 24.8145 11.3769 24.8145 9.81441ZM22.9395 11.6894C23.2519 11.6894 23.5645 11.6894 23.877 11.6894C23.877 12.0019 23.877 12.3144 23.877 12.6269C23.5645 12.6269 23.2519 12.6269 22.9395 12.6269C22.9395 12.3144 22.9395 12.0019 22.9395 11.6894ZM15.7324 11.748C16.2803 11.7401 16.4365 11.9843 16.2012 12.4804C15.7005 12.6751 15.476 12.5091 15.5273 11.9824C15.5678 11.874 15.6361 11.7958 15.7324 11.748ZM17.2559 12.6269C17.5879 12.6269 17.9199 12.6269 18.252 12.6269C18.2617 14.6387 18.252 16.6504 18.2227 18.6621C17.302 18.4349 16.3743 18.2298 15.4395 18.0468C14.9625 18.0189 14.6207 17.7942 14.4141 17.373C14.329 16.9307 14.2412 16.4912 14.1504 16.0546C15.1838 15.5484 16.0138 14.816 16.6406 13.8574C16.8411 13.4391 17.0462 13.0289 17.2559 12.6269ZM11.1035 16.3183C11.8066 16.3964 12.5098 16.3964 13.2129 16.3183C13.27 16.8559 13.3774 17.3833 13.5352 17.9003C13.8498 18.5071 14.3479 18.8684 15.0293 18.9843C16.2663 19.2301 17.4967 19.5035 18.7207 19.8046C20.163 20.4316 20.9344 21.5351 21.0352 23.1152C21.0742 23.5449 21.0742 23.9746 21.0352 24.4043C20.1608 23.9606 19.233 23.7849 18.252 23.8769C18.252 23.2519 18.252 22.6269 18.252 22.0019C17.9395 22.0019 17.6269 22.0019 17.3145 22.0019C17.3145 22.6269 17.3145 23.2519 17.3145 23.8769C15.7519 23.8769 14.1895 23.8769 12.627 23.8769C12.627 23.5644 12.627 23.2519 12.627 22.9394C12.3145 22.9394 12.0019 22.9394 11.6895 22.9394C11.6895 23.2519 11.6895 23.5644 11.6895 23.8769C10.1269 23.8769 8.56448 23.8769 7.00196 23.8769C7.00196 23.2519 7.00196 22.6269 7.00196 22.0019C6.68947 22.0019 6.37694 22.0019 6.06446 22.0019C6.06446 22.6269 6.06446 23.2519 6.06446 23.8769C5.08338 23.7849 4.15565 23.9606 3.28125 24.4043C3.24049 23.7775 3.26002 23.1525 3.33985 22.5293C3.62271 21.2309 4.37466 20.3227 5.59571 19.8046C6.90065 19.4968 8.20922 19.2038 9.52149 18.9257C10.0963 18.7707 10.5162 18.4289 10.7813 17.9003C10.939 17.3833 11.0464 16.8559 11.1035 16.3183ZM5.53711 24.8144C9.95121 24.8046 14.3653 24.8144 18.7793 24.8437C20.6002 24.9578 21.8795 25.8465 22.6172 27.5097C22.7421 27.8528 22.8299 28.2044 22.8809 28.5644C15.7324 28.5644 8.58399 28.5644 1.43555 28.5644C1.89134 26.3115 3.25852 25.0616 5.53711 24.8144Z" fill="#C28565"/>
<path opacity="0.909" fill-rule="evenodd" clip-rule="evenodd" d="M9.63867 9.46289C9.78117 9.53613 9.91793 9.62402 10.0488 9.72656C10.3812 9.81709 10.6546 9.7292 10.8691 9.46289C11.123 9.67775 11.3574 9.91213 11.5723 10.166C11.0442 10.7485 10.3996 10.9146 9.63867 10.6641C9.39732 10.5299 9.18246 10.3638 8.99414 10.166C9.21029 9.93047 9.4251 9.69609 9.63867 9.46289Z" fill="#C28565"/>
<path opacity="0.909" fill-rule="evenodd" clip-rule="evenodd" d="M13.3887 9.46289C13.5312 9.53613 13.6679 9.62402 13.7988 9.72656C14.1312 9.81709 14.4046 9.7292 14.6191 9.46289C14.873 9.67775 15.1074 9.91213 15.3223 10.166C14.7942 10.7485 14.1496 10.9146 13.3887 10.6641C13.1473 10.5299 12.9325 10.3638 12.7441 10.166C12.9603 9.93047 13.1751 9.69609 13.3887 9.46289Z" fill="#C28565"/>
<path opacity="0.921" fill-rule="evenodd" clip-rule="evenodd" d="M11.1035 12.8613C11.2587 12.9824 11.3954 13.1289 11.5137 13.3008C12.2033 13.6831 12.7501 13.5366 13.1543 12.8613C13.4473 13.0078 13.7402 13.1543 14.0332 13.3008C13.298 14.5395 12.2824 14.8324 10.9863 14.1797C10.6852 13.9374 10.4508 13.6444 10.2832 13.3008C10.5696 13.1675 10.843 13.0211 11.1035 12.8613Z" fill="#C28565"/>
<path fill-rule="evenodd" clip-rule="evenodd" d="M12.627 25.752C14.8144 25.752 17.002 25.752 19.1895 25.752C19.1895 26.0644 19.1895 26.377 19.1895 26.6895C17.002 26.6895 14.8144 26.6895 12.627 26.6895C12.627 26.377 12.627 26.0644 12.627 25.752Z" fill="#C28565"/>
<path fill-rule="evenodd" clip-rule="evenodd" d="M4.18945 26.6895C5.43945 26.6895 6.68947 26.6895 7.93945 26.6895C7.93945 27.0019 7.93945 27.3145 7.93945 27.627C6.68947 27.627 5.43945 27.627 4.18945 27.627C4.18945 27.3145 4.18945 27.0019 4.18945 26.6895Z" fill="#C28565"/>
<path fill-rule="evenodd" clip-rule="evenodd" d="M8.87695 26.6895C9.50197 26.6895 10.1269 26.6895 10.752 26.6895C10.752 27.0019 10.752 27.3145 10.752 27.627C10.1269 27.627 9.50197 27.627 8.87695 27.627C8.87695 27.3145 8.87695 27.0019 8.87695 26.6895Z" fill="#C28565"/>
</g>
<defs>
<clipPath id="clip0_117_266">
<rect width="30" height="30" fill="white"/>
</clipPath>
</defs>
</svg>
