<svg width="30" height="30" viewBox="0 0 30 30" fill="none" xmlns="http://www.w3.org/2000/svg">
<path opacity="0.912" fill-rule="evenodd" clip-rule="evenodd" d="M14.6191 1.49405C16.6322 1.43078 18.1263 2.27063 19.1016 4.01358C19.3301 4.53715 19.4668 5.08403 19.5117 5.6542C21.4148 6.50258 22.7624 7.88932 23.5547 9.81436C23.7463 10.3075 23.883 10.8154 23.9648 11.3378C24.0394 12.9766 24.0785 14.6172 24.082 16.2597C24.6151 17.3546 24.576 18.4288 23.9648 19.4823C23.5675 20.0846 23.0108 20.4362 22.2949 20.537C22.092 21.5635 21.7893 22.5596 21.3867 23.5253C21.282 23.7642 21.155 23.9888 21.0059 24.1991C20.5764 24.2967 20.3908 24.1307 20.4492 23.7011C20.9633 22.6607 21.3148 21.567 21.5039 20.4198C21.6107 18.7612 21.6497 17.101 21.6211 15.4394C20.9909 12.5435 19.2429 10.7173 16.3769 9.96084C13.2669 9.47041 10.8548 10.5349 9.14062 13.1542C8.51443 14.2025 8.23119 15.3353 8.29101 16.5526C8.30203 17.9625 8.37041 19.3687 8.49609 20.7714C8.8541 22.8649 9.80138 24.6325 11.3379 26.0741C12.4003 26.9273 13.6113 27.4449 14.9707 27.6269C17.0085 27.3505 18.6296 26.3837 19.834 24.7265C20.2929 24.6386 20.4785 24.8241 20.3906 25.2831C19.0288 27.0828 17.2222 28.1374 14.9707 28.4472C11.4857 27.8434 9.21029 25.8512 8.14453 22.4706C7.9599 21.8305 7.79384 21.186 7.64648 20.537C6.68355 20.3655 6.02923 19.8187 5.68359 18.8964C5.38126 17.9938 5.43985 17.1149 5.85937 16.2597C5.87888 14.7557 5.89845 13.2519 5.91797 11.748C5.99707 10.8859 6.24117 10.0753 6.65039 9.31631C6.99058 9.19772 7.20545 9.30518 7.29492 9.63858C6.9897 10.3321 6.78463 11.0548 6.67968 11.8065C6.63088 12.9789 6.64066 14.1508 6.70898 15.3222C7.00037 15.1827 7.30312 15.085 7.61718 15.0292C7.87886 13.705 8.4648 12.5526 9.375 11.5722C9.33691 11.2224 9.24902 10.8806 9.11132 10.5468C9.19154 10.2314 9.38689 10.1142 9.69726 10.1952C9.86806 10.3951 9.99498 10.6197 10.0781 10.869C12.3109 9.05539 14.8011 8.59643 17.5488 9.49209C18.4104 9.81014 19.1819 10.2692 19.8633 10.869C19.9464 10.6197 20.0733 10.3951 20.2441 10.1952C20.5545 10.1142 20.7499 10.2314 20.8301 10.5468C20.6924 10.8806 20.6045 11.2224 20.5664 11.5722C21.4766 12.5526 22.0625 13.705 22.3242 15.0292C22.6383 15.085 22.941 15.1827 23.2324 15.3222C23.3007 14.1508 23.3105 12.9789 23.2617 11.8065C22.8452 9.22315 21.4487 7.39696 19.0723 6.32803C18.2634 6.0537 17.4431 5.84862 16.6113 5.7128C16.4555 5.35661 16.5629 5.14176 16.9336 5.06827C17.4974 5.1248 18.0541 5.22246 18.6035 5.36123C18.6426 5.34171 18.6816 5.32217 18.7207 5.30264C18.1444 3.27514 16.7968 2.26928 14.6777 2.28506C13.3709 2.42221 12.365 3.03744 11.6602 4.13077C11.4641 4.50328 11.3176 4.89391 11.2207 5.30264C11.2598 5.32217 11.2988 5.34171 11.3379 5.36123C11.8873 5.22246 12.444 5.1248 13.0078 5.06827C13.3785 5.14176 13.4859 5.35661 13.3301 5.7128C13.2993 5.75337 13.2602 5.78266 13.2129 5.80069C10.9744 5.98215 9.17754 6.95868 7.82226 8.73037C7.36752 8.88149 7.18195 8.71549 7.26562 8.23233C8.08054 7.08213 9.13523 6.2228 10.4297 5.6542C10.6151 3.80797 11.5624 2.52868 13.2715 1.81631C13.7188 1.66659 14.1681 1.55917 14.6191 1.49405ZM7.41211 15.8495C7.48992 16.1301 7.529 16.4328 7.52929 16.7577C7.55127 17.7272 7.59029 18.6939 7.64648 19.6581C7.43724 19.7019 7.24189 19.6531 7.06054 19.5116C6.16798 18.6187 6.0215 17.6128 6.62109 16.494C6.80935 16.1781 7.07302 15.9632 7.41211 15.8495ZM22.4121 15.8495C22.9918 16.0092 23.3727 16.3803 23.5547 16.9628C23.8629 17.9575 23.6382 18.8071 22.8809 19.5116C22.7019 19.641 22.5066 19.6996 22.2949 19.6874C22.3689 18.4128 22.4079 17.1335 22.4121 15.8495Z" fill="#C28565"/>
<path opacity="0.827" fill-rule="evenodd" clip-rule="evenodd" d="M12.2168 11.2208C12.5407 11.137 12.7361 11.2541 12.8028 11.5724C12.764 11.8065 12.6273 11.9432 12.3926 11.9825C12.065 11.9146 11.9576 11.7193 12.0703 11.3966C12.1112 11.3268 12.16 11.2682 12.2168 11.2208Z" fill="#C28565"/>
<path opacity="0.839" fill-rule="evenodd" clip-rule="evenodd" d="M14.7363 11.2207C15.3215 11.1523 15.4778 11.3769 15.2051 11.8946C14.7167 12.0313 14.5312 11.8457 14.6484 11.3379C14.6904 11.306 14.7197 11.267 14.7363 11.2207Z" fill="#C28565"/>
<path opacity="0.833" fill-rule="evenodd" clip-rule="evenodd" d="M17.3145 11.2208C17.8706 11.1714 18.0269 11.396 17.7832 11.8946C17.451 12.0278 17.2361 11.9203 17.1387 11.5723C17.167 11.4375 17.2256 11.3203 17.3145 11.2208Z" fill="#C28565"/>
<path opacity="0.803" fill-rule="evenodd" clip-rule="evenodd" d="M13.5059 12.8028C13.9319 12.7756 14.0979 12.9709 14.0039 13.3887C13.854 13.5557 13.6684 13.6045 13.4473 13.5352C13.2032 13.2638 13.2227 13.0197 13.5059 12.8028Z" fill="#C28565"/>
<path opacity="0.803" fill-rule="evenodd" clip-rule="evenodd" d="M16.1426 12.8028C16.5427 12.7634 16.7088 12.9392 16.6406 13.3301C16.5203 13.5523 16.3348 13.6206 16.084 13.5352C15.8438 13.2683 15.8633 13.0241 16.1426 12.8028Z" fill="#C28565"/>
<path opacity="0.903" fill-rule="evenodd" clip-rule="evenodd" d="M10.459 14.6778C11.5514 14.5686 12.6061 14.7151 13.623 15.1172C13.8358 15.4824 13.7382 15.707 13.3301 15.791C12.4388 15.4681 11.5209 15.3607 10.5761 15.4688C10.2689 15.5653 9.9564 15.6044 9.63865 15.586C9.47171 15.436 9.42285 15.2504 9.49216 15.0293C9.54507 14.9589 9.61339 14.9101 9.69724 14.8828C9.95939 14.8172 10.2133 14.7489 10.459 14.6778Z" fill="#C28565"/>
<path opacity="0.907" fill-rule="evenodd" clip-rule="evenodd" d="M17.8418 14.6776C18.5087 14.6568 19.1728 14.6861 19.834 14.7655C20.1727 14.7778 20.4071 14.9341 20.5371 15.2343C20.5225 15.4931 20.3858 15.62 20.127 15.6151C18.9992 15.345 17.8859 15.3938 16.7871 15.7616C16.3575 15.8201 16.1915 15.6345 16.2891 15.205C16.3379 15.1562 16.3867 15.1073 16.4356 15.0585C16.9068 14.9116 17.3755 14.7846 17.8418 14.6776Z" fill="#C28565"/>
<path opacity="0.901" fill-rule="evenodd" clip-rule="evenodd" d="M10.1074 16.8458C10.2262 16.8363 10.3434 16.8461 10.459 16.8751C11.0197 17.3036 11.6447 17.4403 12.334 17.2852C12.6952 17.1532 13.0468 17.0067 13.3887 16.8458C13.8382 16.9936 13.8968 17.2377 13.5645 17.5782C12.4427 18.2826 11.3099 18.3021 10.166 17.6368C9.80514 17.3885 9.78563 17.1249 10.1074 16.8458Z" fill="#C28565"/>
<path opacity="0.9" fill-rule="evenodd" clip-rule="evenodd" d="M16.3769 16.8458C16.4957 16.8363 16.6129 16.8461 16.7285 16.8751C17.4421 17.3696 18.2038 17.4672 19.0137 17.1681C19.2152 17.0282 19.4301 16.9208 19.6582 16.8458C20.1453 17.0304 20.1844 17.2941 19.7754 17.6368C18.6317 18.2996 17.499 18.28 16.3769 17.5782C16.0747 17.3268 16.0747 17.0827 16.3769 16.8458Z" fill="#C28565"/>
<path opacity="0.858" fill-rule="evenodd" clip-rule="evenodd" d="M9.58009 19.4238C10.0961 19.4217 10.2328 19.6463 9.99024 20.0977C9.53233 20.2454 9.34677 20.0794 9.4336 19.5996C9.4745 19.5298 9.52331 19.4712 9.58009 19.4238Z" fill="#C28565"/>
<path opacity="0.827" fill-rule="evenodd" clip-rule="evenodd" d="M12.0996 19.4239C12.4264 19.362 12.6218 19.489 12.6856 19.8048C12.5373 20.2211 12.2932 20.2894 11.9532 20.0098C11.8864 19.7801 11.9353 19.5848 12.0996 19.4239Z" fill="#C28565"/>
<path opacity="0.827" fill-rule="evenodd" clip-rule="evenodd" d="M17.4902 19.4238C18.0062 19.4217 18.1429 19.6463 17.9004 20.0977C17.566 20.2721 17.3511 20.1744 17.2559 19.8047C17.2755 19.6336 17.3537 19.5066 17.4902 19.4238Z" fill="#C28565"/>
<path opacity="0.858" fill-rule="evenodd" clip-rule="evenodd" d="M20.0098 19.4238C20.5284 19.416 20.6651 19.6407 20.4199 20.0976C19.962 20.2454 19.7765 20.0794 19.8633 19.5996C19.9245 19.5484 19.9733 19.4898 20.0098 19.4238Z" fill="#C28565"/>
<path opacity="0.891" fill-rule="evenodd" clip-rule="evenodd" d="M14.1504 20.5371C14.4431 20.5102 14.7165 20.5688 14.9707 20.7129C15.2253 20.559 15.4988 20.5102 15.791 20.5664C15.9085 20.7329 15.9378 20.9184 15.8789 21.1231C15.552 21.3603 15.1907 21.4873 14.7949 21.5039C14.5425 21.3876 14.2983 21.2606 14.0625 21.1231C14.0061 20.9093 14.0354 20.714 14.1504 20.5371Z" fill="#C28565"/>
<path opacity="0.839" fill-rule="evenodd" clip-rule="evenodd" d="M10.8106 21.0646C11.3392 21.0255 11.4955 21.2404 11.2793 21.7091C10.8352 21.881 10.6301 21.7247 10.6641 21.2404C10.7253 21.1892 10.7741 21.1306 10.8106 21.0646Z" fill="#C28565"/>
<path opacity="0.845" fill-rule="evenodd" clip-rule="evenodd" d="M18.7207 21.0644C19.0643 20.9739 19.2596 21.1008 19.3066 21.4453C19.1547 21.8183 18.9203 21.8866 18.6035 21.6503C18.5045 21.4236 18.5435 21.2283 18.7207 21.0644Z" fill="#C28565"/>
<path opacity="0.902" fill-rule="evenodd" clip-rule="evenodd" d="M14.1504 22.9395C14.4427 22.9125 14.7162 22.9711 14.9707 23.1153C15.8863 22.8782 16.7456 23.0247 17.5488 23.5547C17.8147 23.8873 17.7463 24.1315 17.3437 24.2871C16.9543 24.053 16.5344 23.8869 16.084 23.7891C15.9265 23.7661 15.7702 23.7368 15.6152 23.7012C15.4041 23.7777 15.1893 23.8363 14.9707 23.877C14.7521 23.8363 14.5373 23.7777 14.3262 23.7012C13.7013 23.7667 13.1251 23.962 12.5976 24.2871C12.1614 24.0951 12.1126 23.8314 12.4512 23.4961C12.9922 23.2083 13.5586 23.0227 14.1504 22.9395Z" fill="#C28565"/>
<path opacity="0.903" fill-rule="evenodd" clip-rule="evenodd" d="M13.8574 24.3457C14.5704 24.4983 15.2833 24.4983 15.9961 24.3457C16.35 24.3946 16.4672 24.5899 16.3477 24.9316C16.2753 25.0511 16.1679 25.1194 16.0254 25.1367C15.3223 25.2539 14.6192 25.2539 13.916 25.1367C13.5902 25.0543 13.4827 24.8492 13.5938 24.5215C13.6763 24.4464 13.7642 24.3878 13.8574 24.3457Z" fill="#C28565"/>
</svg>
