<svg width="56" height="56" viewBox="0 0 56 56" fill="none" xmlns="http://www.w3.org/2000/svg">
<path opacity="0.912" fill-rule="evenodd" clip-rule="evenodd" d="M27.2891 2.78916C31.0467 2.67106 33.8358 4.23878 35.6562 7.49229C36.0829 8.46963 36.3381 9.49046 36.4219 10.5548C39.9743 12.1384 42.4899 14.727 43.9687 18.3204C44.3265 19.241 44.5817 20.189 44.7344 21.1642C44.8736 24.2233 44.9464 27.2858 44.9531 30.3517C45.9482 32.3956 45.8753 34.4007 44.7344 36.3673C43.9926 37.4916 42.9535 38.1478 41.6172 38.336C41.2384 40.2522 40.6733 42.1116 39.9219 43.9142C39.7264 44.3601 39.4894 44.7793 39.2109 45.172C38.4092 45.3542 38.0628 45.0443 38.1719 44.2423C39.1314 42.3003 39.7877 40.2586 40.1406 38.1173C40.34 35.0211 40.4129 31.9222 40.3594 28.8204C39.183 23.4149 35.9201 20.006 30.5703 18.5939C24.7649 17.6784 20.2623 19.6654 17.0625 24.5548C15.8936 26.5116 15.3649 28.6262 15.4766 30.8985C15.4971 33.5302 15.6248 36.1552 15.8594 38.7735C16.5277 42.6815 18.2959 45.981 21.1641 48.672C23.1472 50.2646 25.4077 51.2307 27.9453 51.5704C31.7493 51.0545 34.7752 49.2498 37.0234 46.1564C37.8802 45.9923 38.2266 46.3387 38.0625 47.1954C35.5205 50.5548 32.1482 52.5235 27.9453 53.1017C21.44 51.9746 17.1925 48.2558 15.2031 41.9454C14.8585 40.7506 14.5485 39.5475 14.2734 38.336C12.476 38.0159 11.2546 36.9951 10.6094 35.2735C10.045 33.5887 10.1544 31.9481 10.9375 30.3517C10.9739 27.5443 11.0105 24.7371 11.0469 21.9298C11.1945 20.3206 11.6502 18.8076 12.4141 17.3907C13.0491 17.1694 13.4502 17.3699 13.6172 17.9923C13.0475 19.2869 12.6646 20.6359 12.4687 22.0392C12.3776 24.2275 12.3959 26.415 12.5234 28.6017C13.0674 28.3414 13.6325 28.159 14.2187 28.0548C14.7072 25.5829 15.801 23.4318 17.5 21.6017C17.4289 20.9488 17.2648 20.3108 17.0078 19.6876C17.1575 19.0989 17.5222 18.8802 18.1016 19.0314C18.4204 19.4044 18.6573 19.8237 18.8125 20.2892C22.9803 16.9037 27.6288 16.0469 32.7578 17.7189C34.3662 18.3125 35.8062 19.1694 37.0781 20.2892C37.2333 19.8237 37.4702 19.4044 37.7891 19.0314C38.3684 18.8802 38.7331 19.0989 38.8828 19.6876C38.6258 20.3108 38.4617 20.9488 38.3906 21.6017C40.0897 23.4318 41.1834 25.5829 41.6719 28.0548C42.2581 28.159 42.8233 28.3414 43.3672 28.6017C43.4947 26.415 43.513 24.2275 43.4219 22.0392C42.6443 17.2168 40.0376 13.8079 35.6016 11.8126C34.0916 11.3005 32.5604 10.9177 31.0078 10.6642C30.717 9.99927 30.9175 9.59823 31.6094 9.46104C32.6619 9.56658 33.701 9.74886 34.7266 10.0079C34.7995 9.97146 34.8724 9.93499 34.9453 9.89854C33.8696 6.11388 31.354 4.23627 27.3984 4.26573C24.9589 4.52173 23.0814 5.67017 21.7656 7.71104C21.3997 8.4064 21.1262 9.13557 20.9453 9.89854C21.0183 9.93499 21.0911 9.97146 21.1641 10.0079C22.1897 9.74886 23.2287 9.56658 24.2812 9.46104C24.9732 9.59823 25.1736 9.99927 24.8828 10.6642C24.8254 10.7399 24.7524 10.7946 24.6641 10.8282C20.4856 11.167 17.1314 12.9898 14.6016 16.297C13.7527 16.5791 13.4063 16.2692 13.5625 15.3673C15.0837 13.2203 17.0524 11.6162 19.4687 10.5548C19.8149 7.10849 21.5831 4.72048 24.7734 3.39073C25.6085 3.11125 26.4471 2.91073 27.2891 2.78916ZM13.8359 29.586C13.9812 30.1097 14.0541 30.6748 14.0547 31.2814C14.0957 33.091 14.1685 34.8956 14.2734 36.6954C13.8829 36.7772 13.5182 36.6861 13.1797 36.422C11.5136 34.7552 11.2401 32.8776 12.3594 30.7892C12.7108 30.1993 13.203 29.7983 13.8359 29.586ZM41.8359 29.586C42.9181 29.8842 43.629 30.5769 43.9687 31.6642C44.5441 33.5209 44.1247 35.1068 42.7109 36.422C42.3769 36.6635 42.0124 36.7729 41.6172 36.7501C41.7552 34.3709 41.8282 31.9828 41.8359 29.586Z" fill="#C28565"/>
<path opacity="0.827" fill-rule="evenodd" clip-rule="evenodd" d="M22.8047 20.9452C23.4093 20.7887 23.774 21.0074 23.8985 21.6014C23.826 22.0384 23.5709 22.2937 23.1328 22.3671C22.5213 22.2403 22.3208 21.8758 22.5313 21.2733C22.6076 21.1431 22.6987 21.0337 22.8047 20.9452Z" fill="#C28565"/>
<path opacity="0.839" fill-rule="evenodd" clip-rule="evenodd" d="M27.5078 20.9452C28.6001 20.8175 28.8918 21.2367 28.3828 22.203C27.4713 22.4583 27.1249 22.1119 27.3437 21.164C27.4222 21.1045 27.4768 21.0315 27.5078 20.9452Z" fill="#C28565"/>
<path opacity="0.833" fill-rule="evenodd" clip-rule="evenodd" d="M32.3203 20.9453C33.3585 20.8532 33.6502 21.2724 33.1953 22.2031C32.5752 22.4517 32.1741 22.2511 31.9922 21.6016C32.0451 21.3499 32.1545 21.1311 32.3203 20.9453Z" fill="#C28565"/>
<path opacity="0.803" fill-rule="evenodd" clip-rule="evenodd" d="M25.2109 23.8985C26.0062 23.8477 26.3161 24.2122 26.1406 24.9922C25.8607 25.3038 25.5143 25.395 25.1016 25.2656C24.6459 24.759 24.6823 24.3034 25.2109 23.8985Z" fill="#C28565"/>
<path opacity="0.803" fill-rule="evenodd" clip-rule="evenodd" d="M30.1328 23.8985C30.8797 23.825 31.1897 24.1531 31.0625 24.8829C30.8379 25.2976 30.4917 25.4252 30.0234 25.2657C29.575 24.7675 29.6114 24.3117 30.1328 23.8985Z" fill="#C28565"/>
<path opacity="0.903" fill-rule="evenodd" clip-rule="evenodd" d="M19.5234 27.3985C21.5626 27.1948 23.5314 27.4682 25.4297 28.2188C25.8268 28.9004 25.6446 29.3197 24.8828 29.4766C23.2192 28.8738 21.5058 28.6733 19.7422 28.875C19.1686 29.0553 18.5853 29.1282 17.9922 29.0938C17.6806 28.8139 17.5894 28.4675 17.7188 28.0547C17.8175 27.9233 17.9451 27.8321 18.1016 27.7813C18.5909 27.6588 19.0648 27.5312 19.5234 27.3985Z" fill="#C28565"/>
<path opacity="0.907" fill-rule="evenodd" clip-rule="evenodd" d="M33.3047 27.3984C34.5495 27.3594 35.7891 27.4141 37.0234 27.5624C37.6557 27.5854 38.0932 27.877 38.3359 28.4374C38.3086 28.9205 38.0534 29.1575 37.5703 29.1484C35.4652 28.6442 33.3871 28.7353 31.3359 29.4218C30.5339 29.5309 30.224 29.1845 30.4063 28.3828C30.4974 28.2916 30.5886 28.2004 30.6797 28.1093C31.5593 27.835 32.4343 27.598 33.3047 27.3984Z" fill="#C28565"/>
<path opacity="0.901" fill-rule="evenodd" clip-rule="evenodd" d="M18.8672 31.4453C19.0889 31.4275 19.3076 31.4458 19.5234 31.5C20.5702 32.2999 21.7368 32.5551 23.0234 32.2656C23.6977 32.019 24.354 31.7456 24.9922 31.4453C25.8313 31.7211 25.9407 32.1769 25.3203 32.8125C23.2264 34.1274 21.1118 34.1638 18.9766 32.9218C18.3029 32.4584 18.2665 31.9662 18.8672 31.4453Z" fill="#C28565"/>
<path opacity="0.9" fill-rule="evenodd" clip-rule="evenodd" d="M30.5703 31.4453C30.792 31.4275 31.0108 31.4458 31.2266 31.5C32.5586 32.423 33.9805 32.6052 35.4922 32.0468C35.8684 31.7858 36.2695 31.5853 36.6953 31.4453C37.6045 31.7899 37.6775 32.2821 36.9141 32.9218C34.7793 34.1591 32.6647 34.1225 30.5703 32.8125C30.0061 32.3431 30.0061 31.8875 30.5703 31.4453Z" fill="#C28565"/>
<path opacity="0.858" fill-rule="evenodd" clip-rule="evenodd" d="M17.8828 36.2578C18.846 36.2539 19.1011 36.6731 18.6484 37.5157C17.7937 37.7915 17.4473 37.4816 17.6094 36.586C17.6857 36.4557 17.7768 36.3463 17.8828 36.2578Z" fill="#C28565"/>
<path opacity="0.827" fill-rule="evenodd" clip-rule="evenodd" d="M22.5859 36.2579C23.1959 36.1424 23.5606 36.3794 23.6797 36.9688C23.403 37.7459 22.9472 37.8736 22.3125 37.3516C22.1879 36.9228 22.2791 36.5582 22.5859 36.2579Z" fill="#C28565"/>
<path opacity="0.827" fill-rule="evenodd" clip-rule="evenodd" d="M32.6484 36.2578C33.6116 36.2539 33.8668 36.6731 33.4141 37.5157C32.7899 37.8413 32.3888 37.6589 32.2109 36.9688C32.2477 36.6494 32.3936 36.4124 32.6484 36.2578Z" fill="#C28565"/>
<path opacity="0.858" fill-rule="evenodd" clip-rule="evenodd" d="M37.3516 36.2579C38.3196 36.2435 38.5748 36.6628 38.1172 37.5157C37.2624 37.7916 36.916 37.4817 37.0781 36.5861C37.1924 36.4906 37.2835 36.3812 37.3516 36.2579Z" fill="#C28565"/>
<path opacity="0.891" fill-rule="evenodd" clip-rule="evenodd" d="M26.4141 38.3359C26.9604 38.2856 27.4708 38.3949 27.9453 38.664C28.4205 38.3767 28.931 38.2856 29.4766 38.3906C29.6957 38.7013 29.7504 39.0476 29.6406 39.4296C29.0303 39.8725 28.3559 40.1095 27.6172 40.1406C27.1459 39.9234 26.6901 39.6864 26.25 39.4296C26.1447 39.0305 26.1994 38.666 26.4141 38.3359Z" fill="#C28565"/>
<path opacity="0.839" fill-rule="evenodd" clip-rule="evenodd" d="M20.1797 39.3204C21.1665 39.2475 21.4582 39.6486 21.0547 40.5236C20.2257 40.8445 19.8429 40.5528 19.9062 39.6486C20.0205 39.5531 20.1117 39.4437 20.1797 39.3204Z" fill="#C28565"/>
<path opacity="0.845" fill-rule="evenodd" clip-rule="evenodd" d="M34.9453 39.3203C35.5867 39.1514 35.9514 39.3883 36.0391 40.0313C35.7555 40.7277 35.318 40.8552 34.7266 40.4141C34.5417 39.9909 34.6146 39.6264 34.9453 39.3203Z" fill="#C28565"/>
<path opacity="0.902" fill-rule="evenodd" clip-rule="evenodd" d="M26.4141 42.8202C26.9597 42.7699 27.4702 42.8793 27.9453 43.1484C29.6544 42.7058 31.2585 42.9793 32.7578 43.9687C33.2542 44.5896 33.1265 45.0454 32.375 45.3359C31.6481 44.8988 30.8643 44.5888 30.0234 44.4062C29.7294 44.3633 29.4377 44.3086 29.1484 44.2421C28.7544 44.385 28.3533 44.4943 27.9453 44.5702C27.5373 44.4943 27.1363 44.385 26.7422 44.2421C25.5758 44.3644 24.5002 44.7289 23.5156 45.3359C22.7013 44.9773 22.6102 44.4851 23.2422 43.8593C24.252 43.3221 25.3094 42.9757 26.4141 42.8202Z" fill="#C28565"/>
<path opacity="0.903" fill-rule="evenodd" clip-rule="evenodd" d="M25.8672 45.4453C27.1981 45.7301 28.5287 45.7301 29.8594 45.4453C30.5199 45.5366 30.7386 45.9012 30.5156 46.5391C30.3804 46.762 30.1799 46.8896 29.9141 46.9219C28.6016 47.1406 27.2891 47.1406 25.9766 46.9219C25.3683 46.768 25.1677 46.3852 25.375 45.7734C25.5291 45.6333 25.6932 45.524 25.8672 45.4453Z" fill="#C28565"/>
</svg>
