<svg width="56" height="56" viewBox="0 0 56 56" fill="none" xmlns="http://www.w3.org/2000/svg">
<g clip-path="url(#clip0_188_704)">
<path opacity="0.967" fill-rule="evenodd" clip-rule="evenodd" d="M21.0547 0.820241C27.7808 0.434919 32.4657 3.31513 35.1094 9.46086C35.4141 10.3515 35.6328 11.2629 35.7656 12.1952C35.8203 15.4033 35.8386 18.6117 35.8203 21.8202C37.5703 21.8202 39.3203 21.8202 41.0703 21.8202C41.035 20.9978 41.3995 20.4327 42.1641 20.1249C42.9653 20.0702 43.7674 20.0521 44.5703 20.0702C44.0234 17.1901 45.1901 16.0234 48.0703 16.5702C48.035 15.7478 48.3995 15.1827 49.1641 14.8749C50.7683 14.802 52.3723 14.802 53.9766 14.8749C54.4687 15.0754 54.8151 15.4218 55.0156 15.914C55.0886 20.4348 55.0886 24.9557 55.0156 29.4765C54.8151 29.9687 54.4687 30.3151 53.9766 30.5155C52.3723 30.5885 50.7683 30.5885 49.1641 30.5155C48.3995 30.2078 48.035 29.6426 48.0703 28.8202C45.1901 29.3671 44.0234 28.2004 44.5703 25.3202C43.7256 25.353 42.887 25.3166 42.0547 25.2109C41.3623 24.8837 41.0342 24.3368 41.0703 23.5702C39.3203 23.5702 37.5703 23.5702 35.8203 23.5702C35.8203 27.5077 35.8203 31.4452 35.8203 35.3827C38.6594 36.5692 40.3911 38.6839 41.0156 41.7265C41.052 43.4035 41.0886 45.0807 41.125 46.7577C43.6681 48.9331 44.8165 51.7039 44.5703 55.0702C29.987 55.0702 15.4036 55.0702 0.820308 55.0702C0.574143 51.7039 1.72258 48.9331 4.26562 46.7577C4.30208 45.0807 4.33854 43.4035 4.375 41.7265C4.99952 38.6839 6.73128 36.5692 9.57031 35.3827C9.55207 27.6535 9.57031 19.9243 9.625 12.1952C10.5694 6.75078 13.6501 3.12318 18.8672 1.31242C19.6064 1.12483 20.3355 0.960771 21.0547 0.820241ZM22.5859 2.57023C27.4911 2.8425 31.0093 5.17583 33.1406 9.57023C33.4984 10.4909 33.7536 11.4388 33.9062 12.414C34.0561 15.5471 34.1108 18.6826 34.0703 21.8202C33.487 21.8202 32.9036 21.8202 32.3203 21.8202C32.3386 19.523 32.3203 17.2262 32.2656 14.9296C28.4769 14.4299 25.2868 12.7892 22.6953 10.0077C20.1294 12.7856 16.9575 14.408 13.1797 14.8749C13.0528 17.4008 13.0345 19.9347 13.125 22.4765C13.8097 25.9678 15.7603 28.4653 18.9766 29.9687C18.8071 30.7836 18.6431 31.6039 18.4844 32.4296C18.2163 33.0985 17.7241 33.4814 17.0078 33.578C15.12 33.97 13.2425 34.3894 11.375 34.8359C11.302 27.8723 11.302 20.9088 11.375 13.9452C11.6303 9.07395 13.9454 5.59218 18.3203 3.49992C19.709 2.9608 21.1309 2.65091 22.5859 2.57023ZM22.5859 12.6327C24.4291 14.1748 26.5072 15.3232 28.8203 16.078C29.3977 16.2407 29.981 16.3682 30.5703 16.4609C30.5886 17.7009 30.5703 18.9406 30.5156 20.1796C28.8742 19.7789 27.7441 20.3623 27.125 21.9296C26.7988 23.5567 27.4004 24.6687 28.9297 25.2655C29.0337 25.3441 29.0519 25.4352 28.9844 25.539C26.2632 28.7577 22.9637 29.5416 19.0859 27.8905C16.8763 26.6286 15.5092 24.7509 14.9844 22.2577C14.8417 20.3282 14.7871 18.396 14.8203 16.4609C17.8091 15.9534 20.3976 14.6773 22.5859 12.6327ZM49.8203 16.5702C50.987 16.5702 52.1536 16.5702 53.3203 16.5702C53.3203 20.6535 53.3203 24.7369 53.3203 28.8202C52.1536 28.8202 50.987 28.8202 49.8203 28.8202C49.8203 24.7369 49.8203 20.6535 49.8203 16.5702ZM46.3203 18.3202C46.9036 18.3202 47.487 18.3202 48.0703 18.3202C48.0703 21.2369 48.0703 24.1535 48.0703 27.0702C47.487 27.0702 46.9036 27.0702 46.3203 27.0702C46.3203 24.1535 46.3203 21.2369 46.3203 18.3202ZM42.8203 21.8202C43.4036 21.8202 43.987 21.8202 44.5703 21.8202C44.5703 22.4035 44.5703 22.9869 44.5703 23.5702C43.987 23.5702 43.4036 23.5702 42.8203 23.5702C42.8203 22.9869 42.8203 22.4035 42.8203 21.8202ZM29.3672 21.9296C30.3898 21.9148 30.6815 22.3706 30.2422 23.2968C29.3077 23.6601 28.8884 23.3503 28.9844 22.3671C29.0598 22.1648 29.1874 22.0189 29.3672 21.9296ZM32.2109 23.5702C32.8308 23.5702 33.4505 23.5702 34.0703 23.5702C34.0886 27.3256 34.0703 31.0808 34.0156 34.8359C32.2971 34.4118 30.5654 34.029 28.8203 33.6874C27.93 33.6352 27.2919 33.2159 26.9062 32.4296C26.7475 31.6039 26.5835 30.7836 26.4141 29.9687C28.343 29.0237 29.8925 27.6565 31.0625 25.8671C31.4368 25.0863 31.8196 24.3207 32.2109 23.5702ZM20.7266 30.4609C22.0391 30.6067 23.3516 30.6067 24.6641 30.4609C24.7706 31.4644 24.9711 32.4487 25.2656 33.414C25.853 34.5466 26.7826 35.2211 28.0547 35.4374C30.3637 35.8961 32.6606 36.4066 34.9453 36.9687C37.6376 38.139 39.0776 40.1988 39.2656 43.1484C39.3386 43.9504 39.3386 44.7526 39.2656 45.5546C37.6334 44.7265 35.9017 44.3984 34.0703 44.5702C34.0703 43.4035 34.0703 42.2369 34.0703 41.0702C33.487 41.0702 32.9036 41.0702 32.3203 41.0702C32.3203 42.2369 32.3203 43.4035 32.3203 44.5702C29.4036 44.5702 26.487 44.5702 23.5703 44.5702C23.5703 43.9869 23.5703 43.4035 23.5703 42.8202C22.987 42.8202 22.4036 42.8202 21.8203 42.8202C21.8203 43.4035 21.8203 43.9869 21.8203 44.5702C18.9036 44.5702 15.987 44.5702 13.0703 44.5702C13.0703 43.4035 13.0703 42.2369 13.0703 41.0702C12.487 41.0702 11.9036 41.0702 11.3203 41.0702C11.3203 42.2369 11.3203 43.4035 11.3203 44.5702C9.48898 44.3984 7.7572 44.7265 6.125 45.5546C6.0489 44.3847 6.08537 43.218 6.23437 42.0546C6.76239 39.6311 8.16603 37.9358 10.4453 36.9687C12.8812 36.394 15.3239 35.8471 17.7734 35.328C18.8464 35.0386 19.6303 34.4005 20.125 33.414C20.4195 32.4487 20.62 31.4644 20.7266 30.4609ZM10.3359 46.3202C18.5756 46.302 26.8151 46.3202 35.0547 46.3749C38.4536 46.588 40.8417 48.2469 42.2187 51.3515C42.4518 51.992 42.6159 52.6482 42.7109 53.3202C29.3672 53.3202 16.0234 53.3202 2.67968 53.3202C3.53049 49.1149 6.08257 46.7816 10.3359 46.3202Z" fill="#C28565"/>
<path opacity="0.909" fill-rule="evenodd" clip-rule="evenodd" d="M17.9922 17.6641C18.2582 17.8008 18.5135 17.9648 18.7578 18.1562C19.3782 18.3252 19.8886 18.1612 20.2891 17.6641C20.763 18.0651 21.2005 18.5026 21.6016 18.9766C20.6158 20.0639 19.4126 20.3738 17.9922 19.9062C17.5417 19.6558 17.1406 19.3458 16.7891 18.9766C17.1925 18.5369 17.5935 18.0994 17.9922 17.6641Z" fill="#C28565"/>
<path opacity="0.909" fill-rule="evenodd" clip-rule="evenodd" d="M24.9922 17.6641C25.2582 17.8008 25.5135 17.9648 25.7578 18.1562C26.3782 18.3252 26.8886 18.1612 27.2891 17.6641C27.763 18.0651 28.2005 18.5026 28.6016 18.9766C27.6158 20.0639 26.4126 20.3738 24.9922 19.9062C24.5417 19.6558 24.1406 19.3458 23.7891 18.9766C24.1925 18.5369 24.5935 18.0994 24.9922 17.6641Z" fill="#C28565"/>
<path opacity="0.921" fill-rule="evenodd" clip-rule="evenodd" d="M20.7266 24.0078C21.0162 24.2338 21.2715 24.5072 21.4922 24.8281C22.7794 25.5418 23.8002 25.2684 24.5547 24.0078C25.1016 24.2812 25.6484 24.5547 26.1953 24.8281C24.8229 27.1403 22.9271 27.6872 20.5078 26.4688C19.9456 26.0165 19.5081 25.4696 19.1953 24.8281C19.7298 24.5794 20.2403 24.306 20.7266 24.0078Z" fill="#C28565"/>
<path fill-rule="evenodd" clip-rule="evenodd" d="M23.5703 48.0703C27.6536 48.0703 31.737 48.0703 35.8203 48.0703C35.8203 48.6536 35.8203 49.237 35.8203 49.8203C31.737 49.8203 27.6536 49.8203 23.5703 49.8203C23.5703 49.237 23.5703 48.6536 23.5703 48.0703Z" fill="#C28565"/>
<path fill-rule="evenodd" clip-rule="evenodd" d="M7.82031 49.8203C10.1536 49.8203 12.487 49.8203 14.8203 49.8203C14.8203 50.4036 14.8203 50.987 14.8203 51.5703C12.487 51.5703 10.1536 51.5703 7.82031 51.5703C7.82031 50.987 7.82031 50.4036 7.82031 49.8203Z" fill="#C28565"/>
<path fill-rule="evenodd" clip-rule="evenodd" d="M16.5703 49.8203C17.737 49.8203 18.9036 49.8203 20.0703 49.8203C20.0703 50.4036 20.0703 50.987 20.0703 51.5703C18.9036 51.5703 17.737 51.5703 16.5703 51.5703C16.5703 50.987 16.5703 50.4036 16.5703 49.8203Z" fill="#C28565"/>
</g>
<defs>
<clipPath id="clip0_188_704">
<rect width="56" height="56" fill="white"/>
</clipPath>
</defs>
</svg>
