<svg width="56" height="56" viewBox="0 0 56 56" fill="none" xmlns="http://www.w3.org/2000/svg">
<g clip-path="url(#clip0_188_666)">
<path opacity="0.93" fill-rule="evenodd" clip-rule="evenodd" d="M24.8828 -0.0546875C25.6484 -0.0546875 26.4141 -0.0546875 27.1797 -0.0546875C31.2203 0.52056 34.9755 1.88775 38.4453 4.04688C42.0013 6.84052 44.4987 10.3952 45.9375 14.7109C46.1963 15.5672 46.3421 16.4422 46.375 17.3359C48.6934 20.4309 49.4955 23.8945 48.7812 27.7266C48.3958 30.7117 47.1744 33.282 45.1172 35.4375C44.5782 35.8848 43.9949 36.2677 43.3672 36.5859C42.9918 39.5021 42.3173 42.3458 41.3438 45.1172C40.8178 46.3887 40.1251 47.5554 39.2656 48.6172C37.5273 50.4287 35.7226 52.1604 33.8516 53.8125C32.5738 54.9071 31.1155 55.6181 29.4766 55.9453C28.4558 55.9453 27.4349 55.9453 26.4141 55.9453C24.7751 55.6181 23.3168 54.9071 22.0391 53.8125C20.1316 52.124 18.2905 50.3557 16.5156 48.5078C15.0917 46.5706 14.1073 44.4195 13.5625 42.0547C13.0852 39.9201 12.7024 37.7692 12.4141 35.6016C10.3691 33.6462 8.81965 31.3493 7.76563 28.7109C5.2112 17.614 9.13047 9.79368 19.5234 5.25C20.7895 2.94489 22.5759 1.17667 24.8828 -0.0546875ZM25.5391 1.69531C29.999 2.04557 34.0825 3.44922 37.7891 5.90625C40.519 8.21343 42.506 11.039 43.75 14.3828C40.4727 11.3663 36.8086 8.90532 32.7578 7C31.5473 6.89863 31.1827 7.40905 31.6641 8.53125C35.8271 10.5456 39.6005 13.1159 42.9844 16.2422C44.4206 17.7284 45.5873 19.4054 46.4844 21.2734C47.5518 25.0214 47.1872 28.6308 45.3906 32.1016C44.9306 32.8904 44.3473 33.583 43.6406 34.1797C43.6838 32.5403 43.6838 30.8996 43.6406 29.2578C41.482 25.2392 38.5106 21.9396 34.7266 19.3594C33.9053 18.894 33.0667 18.4565 32.2109 18.0469C29.7674 17.1078 27.2882 16.2692 24.7734 15.5312C20.3996 14.1206 19.0689 11.2586 20.7813 6.94531C21.8438 4.70332 23.4298 2.95332 25.5391 1.69531ZM18.4297 7.71094C18.4979 7.75654 18.5344 7.82946 18.5391 7.92969C18.3276 9.19777 18.273 10.4738 18.375 11.7578C18.7078 13.3656 19.5281 14.6599 20.8359 15.6406C21.9416 16.3393 23.1083 16.9226 24.3359 17.3906C18.7718 19.6005 14.7796 23.4469 12.3594 28.9297C12.2212 30.0884 12.1483 31.2551 12.1406 32.4297C10.2129 30.2496 9.11916 27.6976 8.85938 24.7734C8.24648 18.729 10.2699 13.789 14.9297 9.95312C16.0568 9.13441 17.2234 8.38702 18.4297 7.71094ZM27.2891 18.3203C31.4893 19.3167 35.044 21.3948 37.9531 24.5547C39.4406 26.1513 40.7167 27.9013 41.7812 29.8047C41.8864 34.615 41.2301 39.3181 39.8125 43.9141C39.4358 45.0323 38.8889 46.0532 38.1719 46.9766C36.1748 49.0835 34.0784 51.0705 31.8828 52.9375C29.2578 54.6145 26.6328 54.6145 24.0078 52.9375C21.5506 50.8814 19.2719 48.6392 17.1719 46.2109C16.2355 44.5326 15.5793 42.7462 15.2031 40.8516C14.4056 37.1739 14.041 33.4552 14.1094 29.6953C16.7295 23.8487 21.1227 20.057 27.2891 18.3203Z" fill="#AB6A49"/>
<path opacity="0.926" fill-rule="evenodd" clip-rule="evenodd" d="M21.9297 27.8359C23.7431 27.8763 25.1467 28.6419 26.1406 30.1328C26.3776 31.2083 25.9583 31.6276 24.8828 31.3906C24.4474 30.919 23.9735 30.4815 23.4609 30.0781C22.4701 29.6678 21.4493 29.5948 20.3984 29.8594C19.8055 29.9717 19.2586 30.1905 18.7578 30.5156C17.7552 30.6797 17.3359 30.2605 17.5 29.2578C17.734 28.9843 18.0074 28.7473 18.3203 28.5469C19.4925 28.0754 20.6956 27.8385 21.9297 27.8359Z" fill="#AB6A49"/>
<path opacity="0.927" fill-rule="evenodd" clip-rule="evenodd" d="M33.5234 27.8359C34.9211 27.8068 36.2701 28.0438 37.5703 28.5468C38.3204 28.8256 38.5938 29.3543 38.3906 30.1328C38.2037 30.4485 37.9303 30.5944 37.5703 30.5703C36.9322 30.307 36.276 30.07 35.6016 29.8593C34.519 29.6002 33.4616 29.6731 32.4297 30.0781C31.9172 30.4814 31.4432 30.9189 31.0078 31.3906C30.1953 31.6232 29.7212 31.3315 29.5859 30.5156C30.3968 28.8885 31.7093 27.9954 33.5234 27.8359Z" fill="#AB6A49"/>
<path opacity="0.926" fill-rule="evenodd" clip-rule="evenodd" d="M17.8828 33.1954C18.1767 33.1775 18.4684 33.1957 18.7578 33.2501C19.1932 33.7217 19.6672 34.1592 20.1797 34.5626C21.1705 34.973 22.1913 35.0459 23.2422 34.7813C23.8351 34.669 24.382 34.4502 24.8828 34.1251C25.8855 33.961 26.3047 34.3802 26.1406 35.3829C25.5775 36.0105 24.8665 36.3933 24.0078 36.5313C22.2154 37.0396 20.5019 36.8573 18.8672 35.9845C18.1537 35.5267 17.6433 34.9069 17.3359 34.1251C17.3953 33.7313 17.5777 33.4214 17.8828 33.1954Z" fill="#AB6A49"/>
<path opacity="0.928" fill-rule="evenodd" clip-rule="evenodd" d="M37.1328 33.1952C38.2306 33.0345 38.65 33.472 38.3906 34.5077C37.4543 35.9337 36.1235 36.6993 34.3984 36.8046C33.0769 36.8031 31.8008 36.5662 30.5703 36.0937C30.2574 35.8933 29.984 35.6563 29.75 35.3827C29.5859 34.3801 30.0052 33.9609 31.0078 34.1249C32.5054 35.0123 34.0732 35.1582 35.7109 34.5624C36.2457 34.155 36.7196 33.6992 37.1328 33.1952Z" fill="#AB6A49"/>
<path opacity="0.931" fill-rule="evenodd" clip-rule="evenodd" d="M7.38281 34.0704C7.67673 34.0525 7.96841 34.0707 8.25781 34.1251C8.45833 34.1798 8.58594 34.3074 8.64062 34.5079C8.71354 35.0912 8.71354 35.6746 8.64062 36.2579C8.58594 36.4584 8.45833 36.586 8.25781 36.6407C7.96614 36.7137 7.67448 36.7137 7.38281 36.6407C7.18229 36.586 7.05469 36.4584 7 36.2579C6.92708 35.6746 6.92708 35.0912 7 34.5079C7.07543 34.3055 7.20304 34.1596 7.38281 34.0704Z" fill="#AB6A49"/>
<path opacity="0.931" fill-rule="evenodd" clip-rule="evenodd" d="M4.75781 36.6953C5.42728 36.6505 6.08353 36.7052 6.72656 36.8594C7.24019 38.0024 6.87561 38.531 5.63281 38.4453C4.5571 38.6275 4.13783 38.19 4.375 37.1328C4.45044 36.9305 4.57804 36.7846 4.75781 36.6953Z" fill="#AB6A49"/>
<path opacity="0.931" fill-rule="evenodd" clip-rule="evenodd" d="M9.13281 36.6953C9.80228 36.6505 10.4585 36.7052 11.1016 36.8594C11.6152 38.0024 11.2506 38.531 10.0078 38.4453C8.9321 38.6275 8.51283 38.19 8.75 37.1328C8.82544 36.9305 8.95304 36.7846 9.13281 36.6953Z" fill="#AB6A49"/>
<path opacity="0.931" fill-rule="evenodd" clip-rule="evenodd" d="M47.6328 37.5704C47.9267 37.5525 48.2184 37.5707 48.5078 37.6251C48.7083 37.6798 48.8359 37.8074 48.8906 38.0079C48.9636 38.5912 48.9636 39.1746 48.8906 39.7579C48.8359 39.9584 48.7083 40.086 48.5078 40.1407C48.2161 40.2137 47.9245 40.2137 47.6328 40.1407C47.4323 40.086 47.3047 39.9584 47.25 39.7579C47.177 39.1746 47.177 38.5912 47.25 38.0079C47.3255 37.8055 47.453 37.6596 47.6328 37.5704Z" fill="#AB6A49"/>
<path opacity="0.931" fill-rule="evenodd" clip-rule="evenodd" d="M7.38281 38.4454C7.67673 38.4275 7.96841 38.4457 8.25781 38.5001C8.45833 38.5548 8.58594 38.6824 8.64062 38.8829C8.71354 39.4662 8.71354 40.0496 8.64062 40.6329C8.58594 40.8334 8.45833 40.961 8.25781 41.0157C7.96614 41.0887 7.67448 41.0887 7.38281 41.0157C7.18229 40.961 7.05469 40.8334 7 40.6329C6.92708 40.0496 6.92708 39.4662 7 38.8829C7.07543 38.6805 7.20304 38.5346 7.38281 38.4454Z" fill="#AB6A49"/>
<path opacity="0.931" fill-rule="evenodd" clip-rule="evenodd" d="M45.0078 40.1953C45.6773 40.1505 46.3335 40.2052 46.9766 40.3594C47.4902 41.5024 47.1256 42.031 45.8828 41.9453C44.8071 42.1275 44.3879 41.69 44.625 40.6328C44.7005 40.4305 44.828 40.2846 45.0078 40.1953Z" fill="#AB6A49"/>
<path opacity="0.931" fill-rule="evenodd" clip-rule="evenodd" d="M49.3828 40.1953C50.0523 40.1505 50.7085 40.2052 51.3516 40.3594C51.8652 41.5024 51.5006 42.031 50.2578 41.9453C49.1821 42.1275 48.7629 41.69 49 40.6328C49.0755 40.4305 49.203 40.2846 49.3828 40.1953Z" fill="#AB6A49"/>
<path opacity="0.931" fill-rule="evenodd" clip-rule="evenodd" d="M47.6328 41.9454C47.9267 41.9275 48.2184 41.9457 48.5078 42.0001C48.7083 42.0548 48.8359 42.1824 48.8906 42.3829C48.9636 42.9662 48.9636 43.5496 48.8906 44.1329C48.8359 44.3334 48.7083 44.461 48.5078 44.5157C48.2161 44.5887 47.9245 44.5887 47.6328 44.5157C47.4323 44.461 47.3047 44.3334 47.25 44.1329C47.177 43.5496 47.177 42.9662 47.25 42.3829C47.3255 42.1805 47.453 42.0346 47.6328 41.9454Z" fill="#AB6A49"/>
<path opacity="0.925" fill-rule="evenodd" clip-rule="evenodd" d="M23.1328 42.8202C23.5132 42.7856 23.8779 42.8403 24.2266 42.9843C24.5746 43.587 25.085 43.9881 25.7578 44.1874C27.561 44.7262 29.311 44.5803 31.0078 43.7499C31.3054 43.4523 31.597 43.1607 31.8828 42.8749C32.6742 42.6309 33.1117 42.9043 33.1953 43.6952C33.1896 44.0711 33.062 44.3992 32.8125 44.6796C31.8812 45.5735 30.7692 46.1021 29.4766 46.2655C27.8741 46.4442 26.3064 46.2983 24.7734 45.828C24.1421 45.5399 23.577 45.1571 23.0781 44.6796C22.5507 44.0194 22.569 43.3995 23.1328 42.8202Z" fill="#AB6A49"/>
<path opacity="0.95" fill-rule="evenodd" clip-rule="evenodd" d="M43.2578 45.4454C43.5517 45.4275 43.8434 45.4457 44.1328 45.5001C44.3333 45.5548 44.4609 45.6824 44.5156 45.8829C44.5886 46.7579 44.5886 47.6329 44.5156 48.5079C44.4609 48.7084 44.3333 48.836 44.1328 48.8907C43.8411 48.9637 43.5495 48.9637 43.2578 48.8907C43.0573 48.836 42.9297 48.7084 42.875 48.5079C42.802 47.6329 42.802 46.7579 42.875 45.8829C42.9505 45.6805 43.078 45.5346 43.2578 45.4454Z" fill="#AB6A49"/>
<path opacity="0.95" fill-rule="evenodd" clip-rule="evenodd" d="M39.7578 48.9453C40.6336 48.9271 41.5086 48.9453 42.3828 49C42.5833 49.0547 42.7109 49.1823 42.7656 49.3828C42.8386 49.6745 42.8386 49.9661 42.7656 50.2578C42.7109 50.4583 42.5833 50.5859 42.3828 50.6406C41.5078 50.7135 40.6328 50.7135 39.7578 50.6406C39.4279 50.4734 39.2821 50.1999 39.3203 49.8203C39.2965 49.4303 39.4424 49.1387 39.7578 48.9453Z" fill="#AB6A49"/>
<path opacity="0.95" fill-rule="evenodd" clip-rule="evenodd" d="M45.0078 48.9453C45.8836 48.9271 46.7586 48.9453 47.6328 49C47.8333 49.0547 47.9609 49.1823 48.0156 49.3828C48.0886 49.6745 48.0886 49.9661 48.0156 50.2578C47.9609 50.4583 47.8333 50.5859 47.6328 50.6406C46.7578 50.7135 45.8828 50.7135 45.0078 50.6406C44.6779 50.4734 44.5321 50.1999 44.5703 49.8203C44.5465 49.4303 44.6924 49.1387 45.0078 48.9453Z" fill="#AB6A49"/>
<path opacity="0.95" fill-rule="evenodd" clip-rule="evenodd" d="M43.2578 50.6954C43.5517 50.6775 43.8434 50.6957 44.1328 50.7501C44.3333 50.8048 44.4609 50.9324 44.5156 51.1329C44.5886 52.0079 44.5886 52.8829 44.5156 53.7579C44.4609 53.9584 44.3333 54.086 44.1328 54.1407C43.8411 54.2137 43.5495 54.2137 43.2578 54.1407C43.0573 54.086 42.9297 53.9584 42.875 53.7579C42.802 52.8829 42.802 52.0079 42.875 51.1329C42.9505 50.9305 43.078 50.7846 43.2578 50.6954Z" fill="#AB6A49"/>
</g>
<defs>
<clipPath id="clip0_188_666">
<rect width="56" height="56" fill="white"/>
</clipPath>
</defs>
</svg>
