<svg width="28" height="26" viewBox="0 0 28 26" fill="none" xmlns="http://www.w3.org/2000/svg">
<path fill-rule="evenodd" clip-rule="evenodd" d="M14.1367 23.8984C18.1174 23.8984 21.3458 24.3691 21.3458 24.9493C21.3458 25.5293 18.1174 25.9999 14.1367 25.9999C10.1556 25.9999 6.92725 25.5293 6.92725 24.9493C6.92691 24.3687 10.1556 23.8984 14.1367 23.8984Z" fill="#E7E7E7"/>
<path fill-rule="evenodd" clip-rule="evenodd" d="M17.6006 2.79028C17.6592 2.81853 17.7178 2.84779 17.7758 2.87772C17.7178 2.84812 17.6592 2.81887 17.6006 2.79028Z" fill="white"/>
<path fill-rule="evenodd" clip-rule="evenodd" d="M17.0483 2.54736C17.2349 2.62135 17.4185 2.70205 17.598 2.78915C17.4181 2.70205 17.2349 2.62168 17.0483 2.54736Z" fill="white"/>
<path fill-rule="evenodd" clip-rule="evenodd" d="M3.80553 9.33143C3.8407 9.32571 3.87587 9.32067 3.91104 9.31596ZM3.70001 9.35027C3.73385 9.34355 3.76801 9.33749 3.80218 9.33211ZM5.76172 9.28737H13.7885H14.6594H20.3323H23.6455H24.036V9.30991C26.2498 9.56288 28 11.9412 28 14.8137V18.6873C28 19.5966 27.4138 20.3407 26.6973 20.3407H25.7219V22.2101C25.7219 22.9159 25.1471 23.4931 24.4444 23.4931H22.7035C22.0011 23.4931 21.426 22.9159 21.426 22.2101V20.3407H18.7727L18.3962 20.7188L14.0588 25.2572C12.7092 23.879 11.356 22.5055 9.99467 21.1387L9.20013 20.3407H6.57334V22.2101C6.57334 22.9159 5.99854 23.4931 5.29612 23.4931H3.55531C2.85256 23.4931 2.27809 22.9159 2.27809 22.2101V20.3407H1.30301C0.586519 20.3407 0 19.5966 0 18.6873V14.8137C0 12.062 1.60615 9.76337 3.68729 9.35263L3.66853 9.35633C3.90133 7.05369 4.89617 4.81394 6.65273 3.04987C9.45671 0.233882 13.4682 -0.63167 17.0152 0.451532V2.53384C16.0806 2.16784 15.064 1.96667 14.0005 1.96667C9.75952 1.96701 6.26048 5.16313 5.76172 9.28737Z" fill="#E30D16"/>
<path fill-rule="evenodd" clip-rule="evenodd" d="M6.30024 12.7703C7.68331 12.7703 8.80477 13.8965 8.80477 15.2848C8.80477 16.6738 7.68331 17.8001 6.30024 17.8001C4.91785 17.8001 3.79639 16.6738 3.79639 15.2848C3.79639 13.8965 4.91785 12.7703 6.30024 12.7703ZM21.6996 12.7703C23.0823 12.7703 24.2037 13.8965 24.2037 15.2848C24.2037 16.6738 23.0823 17.8001 21.6996 17.8001C20.3168 17.8001 19.1954 16.6738 19.1954 15.2848C19.1954 13.8965 20.3168 12.7703 21.6996 12.7703Z" fill="white"/>
<path fill-rule="evenodd" clip-rule="evenodd" d="M21.3204 3.05038C20.5895 2.31603 19.7762 1.71455 18.9107 1.24527C18.6008 1.07741 18.2843 0.926367 17.9624 0.79248V2.97705C18.2927 3.1577 18.6092 3.36021 18.9107 3.58257C20.1819 4.52112 21.1771 5.8149 21.7512 7.31759C21.8694 7.62674 21.9696 7.94431 22.0506 8.26994H24.1368C24.0701 7.94969 23.9881 7.63179 23.8909 7.31759C23.4086 5.75637 22.5517 4.28665 21.3204 3.05038Z" fill="white"/>
<path fill-rule="evenodd" clip-rule="evenodd" d="M18.1503 5.10107C18.9589 5.10107 19.6151 5.75974 19.6151 6.57214C19.6151 7.38454 18.9593 8.04288 18.1503 8.04288C17.3414 8.04288 16.6855 7.38454 16.6855 6.57214C16.6855 5.76008 17.3414 5.10107 18.1503 5.10107Z" fill="white"/>
</svg>
