<svg width="50" height="50" viewBox="0 0 50 50" fill="none" xmlns="http://www.w3.org/2000/svg">
<g clip-path="url(#clip0_914_1983)">
<path fill-rule="evenodd" clip-rule="evenodd" d="M14.5284 44.2882C6.38547 44.2882 0 40.5975 0 35.8817C0 31.1658 6.38547 27.4751 14.5284 27.4751C22.7006 27.4751 29.0568 31.1658 29.0568 35.8817C29.0568 40.5975 22.7006 44.2882 14.5284 44.2882ZM14.5284 31.1951C9.78325 31.1951 5.74107 33.3626 5.74107 35.8817C5.74107 38.43 9.78325 40.5682 14.5284 40.5682C19.3029 40.5682 23.3158 38.43 23.3158 35.8817C23.3158 33.3333 19.3029 31.1951 14.5284 31.1951Z" fill="#C28565"/>
<path fill-rule="evenodd" clip-rule="evenodd" d="M14.5284 47.8324C6.50264 47.8324 0.175747 44.2589 0 39.6309C1.05448 41.1833 2.6362 42.3842 4.27651 43.2337C7.38137 44.8154 11.0721 45.4598 14.5284 45.4598C17.9848 45.4598 21.7047 44.8154 24.8096 43.2337C26.4499 42.3842 28.0316 41.1833 29.0568 39.6309C28.8811 44.2589 22.5835 47.8324 14.5284 47.8324Z" fill="#C28565"/>
<path fill-rule="evenodd" clip-rule="evenodd" d="M6.79563 27.475C2.89991 25.0146 0.439453 20.6795 0.439453 15.8757C0.439453 8.31862 6.5906 2.13818 14.177 2.13818C21.7341 2.13818 27.9146 8.31862 27.9146 15.8757C27.9146 20.5623 25.542 24.8095 21.7927 27.3286C19.4494 26.5963 16.9304 26.3034 14.5285 26.3034C11.9802 26.3034 9.28538 26.6549 6.79563 27.475ZM14.177 6.18036C8.81672 6.18036 4.48163 10.5447 4.48163 15.8757C4.48163 21.236 8.81672 25.5711 14.177 25.5711C19.508 25.5711 23.8724 21.236 23.8724 15.8757C23.8724 10.5447 19.508 6.18036 14.177 6.18036Z" fill="#C28565"/>
<path fill-rule="evenodd" clip-rule="evenodd" d="M9.6659 20.9726C9.51945 20.9726 9.37299 20.914 9.25583 20.7969C9.0215 20.5625 9.0215 20.1818 9.25583 19.9767L18.2482 10.9843C18.4825 10.75 18.8633 10.75 19.0684 10.9843C19.3027 11.1894 19.3027 11.5702 19.0684 11.8045L10.076 20.7969C9.9881 20.914 9.81236 20.9726 9.6659 20.9726Z" fill="#C28565"/>
<path fill-rule="evenodd" clip-rule="evenodd" d="M13.8837 21.2947C13.7372 21.2947 13.5908 21.2361 13.4736 21.1189C13.2393 20.9139 13.2393 20.5331 13.4736 20.2988L18.5996 15.1728C18.8339 14.9385 19.1854 14.9385 19.4197 15.1728C19.654 15.4071 19.654 15.7879 19.4197 16.0223L14.2938 21.1189C14.1766 21.2361 14.0301 21.2947 13.8837 21.2947Z" fill="#C28565"/>
<path fill-rule="evenodd" clip-rule="evenodd" d="M9.34364 16.7546C9.19718 16.7546 9.02143 16.696 8.93356 16.5789C8.69923 16.3446 8.69923 15.9931 8.93356 15.7587L14.0302 10.6328C14.2645 10.3984 14.6453 10.3984 14.8797 10.6328C15.0847 10.8671 15.0847 11.2186 14.8797 11.4529L9.75371 16.5789C9.63655 16.696 9.49009 16.7546 9.34364 16.7546Z" fill="#C28565"/>
<path fill-rule="evenodd" clip-rule="evenodd" d="M30.6974 47.3929C30.6096 47.3929 30.5217 47.3636 30.4338 47.3343L28.9985 46.602C28.7056 46.4556 28.5885 46.1041 28.7349 45.8112C31.5762 39.5722 32.367 37.6975 32.8064 34.1533L38.2838 36.9067C35.6476 39.3378 34.6224 41.0953 31.2247 47.1C31.1075 47.2757 30.9025 47.3929 30.6974 47.3929ZM32.9236 32.9231C33.0407 31.7514 33.0993 30.4333 33.2165 28.7344L33.3336 26.8305C33.3336 26.7426 33.3629 26.6548 33.3922 26.5962C33.5387 26.7426 33.6851 26.8598 33.8902 26.9477L37.2294 28.6466L43.4391 31.81C43.6148 31.8979 43.8199 31.9565 44.0249 31.9858C43.9663 32.0736 43.937 32.1322 43.8785 32.1908L42.3846 33.3917C41.0958 34.4755 40.0706 35.325 39.2212 36.0572L32.9236 32.9231Z" fill="#C28565"/>
<path fill-rule="evenodd" clip-rule="evenodd" d="M44.2296 30.8437C44.1418 30.8437 44.0539 30.8144 43.966 30.7559L42.0328 29.7892L42.2964 29.5256C42.3257 29.4963 42.3257 29.4963 42.355 29.4963L48.2132 23.5795C48.5647 24.0189 48.8576 24.4876 49.1213 24.9562C49.8242 26.3036 50.1465 27.0652 49.9121 27.7389C49.6778 28.4711 49.0041 28.8226 47.891 29.3792L47.6274 29.4963C46.5436 30.0529 45.4599 30.4922 44.4054 30.8144C44.3468 30.8144 44.2882 30.8437 44.2296 30.8437ZM40.949 29.2327L39.7188 28.5883L39.9238 28.1489C39.9531 28.1197 39.9824 28.0904 39.9824 28.0904L44.0539 20.0939C45.3134 20.7969 46.4851 21.7049 47.4517 22.7008L40.949 29.2327ZM38.6643 28.0611L37.4341 27.446L37.5513 26.743C37.5513 26.7137 37.5513 26.6844 37.5513 26.6551L38.8694 18.3364C40.2753 18.5122 41.6813 18.9515 42.9994 19.5666L38.6643 28.0611ZM36.321 26.8894L34.4171 25.8935C34.2706 25.8349 34.1828 25.7178 34.1242 25.5713C33.7434 24.5461 33.4798 23.4038 33.2747 22.2028L33.2162 21.9099C33.0404 20.6797 32.9233 19.9181 33.3626 19.3323C33.7727 18.7465 34.5928 18.5414 36.0867 18.3364C36.5261 18.2778 36.9654 18.2485 37.4048 18.2485H37.6977L36.321 26.8894Z" fill="#C28565"/>
</g>
<defs>
<clipPath id="clip0_914_1983">
<rect width="50" height="50" fill="white"/>
</clipPath>
</defs>
</svg>
