<svg width="50" height="50" viewBox="0 0 50 50" fill="none" xmlns="http://www.w3.org/2000/svg">
<path d="M14.8977 44.1289L15.5742 39.8438H10.9375C10.507 39.8438 10.1562 40.1938 10.1562 40.625V46.875C10.1562 47.3063 10.507 47.6562 10.9375 47.6562H11.1086L11.7422 45.1234C11.8289 44.775 12.1414 44.5312 12.5 44.5312H14.8664C14.875 44.3969 14.8766 44.2617 14.8977 44.1289Z" fill="#C28565"/>
<path d="M23.8895 7.03125H7.36133L8.09336 14.0625H23.1566L23.8895 7.03125Z" fill="#C28565"/>
<path d="M10.9371 38.2812H15.8199L16.9527 31.1086C17.1121 30.1016 17.8238 29.3211 18.7496 29.0328V27.3438C18.7496 25.6203 20.1512 24.2188 21.8746 24.2188H22.098L22.9934 15.625H8.25586L10.6191 38.3133C10.7238 38.2992 10.8285 38.2812 10.9371 38.2812Z" fill="#C28565"/>
<path d="M24.2109 3.94141C24.2164 3.89063 24.2188 3.84063 24.2188 3.79063C24.2188 2.99297 23.5688 2.34375 22.7711 2.34375H8.47813C7.68047 2.34375 7.03125 2.99297 7.03125 3.79063C7.03125 3.84063 7.03359 3.89063 7.03906 3.94063L7.19844 5.46875H24.0523L24.2109 3.94141Z" fill="#C28565"/>
<path d="M20.3125 27.3438V28.9062H39.0625V27.3438C39.0625 26.482 38.3617 25.7812 37.5 25.7812H21.875C21.0133 25.7812 20.3125 26.482 20.3125 27.3438Z" fill="#C28565"/>
<path d="M42.9344 44.3719L40.8789 31.3531C40.7977 30.8406 40.3625 30.4688 39.8438 30.4688H19.5312C19.0125 30.4688 18.5773 30.8406 18.4969 31.3531L16.4414 44.3727C16.418 44.518 16.4062 44.6672 16.4062 44.8148C16.4062 46.3812 17.6805 47.6562 19.2469 47.6562H40.1281C41.6945 47.6562 42.9688 46.382 42.9688 44.8156C42.9688 44.6672 42.957 44.518 42.9344 44.3719ZM35.9375 37.0266C35.9375 40.0602 34.7563 42.9109 32.6117 45.0555C31.943 45.7242 31.0531 46.0938 30.1055 46.0938C28.3656 46.0938 26.9227 44.8313 26.625 43.175C26.0813 43.9305 25.7812 44.8359 25.7812 45.7852V46.0938H24.2188V45.7852C24.2188 44.3031 24.7617 42.9023 25.7109 41.8156C24.3734 41.1953 23.4375 39.85 23.4375 38.2812C23.4375 37.0281 23.9719 35.9164 24.9031 35.1711C26.8047 33.6492 29.1914 32.8125 31.625 32.8125C32.3289 32.8125 33.0242 32.6992 33.6914 32.4773L34.9094 32.0711C35.1477 31.9898 35.4086 32.0305 35.6133 32.1781C35.8172 32.3258 35.9375 32.5617 35.9375 32.8125V37.0266Z" fill="#C28565"/>
<path d="M13.1104 46.0938L12.7197 47.6562H15.8854C15.5041 47.2055 15.226 46.6719 15.0494 46.0938H13.1104Z" fill="#C28565"/>
<path d="M31.625 34.3751C29.5445 34.3751 27.5039 35.0907 25.8797 36.3907C25.3211 36.8376 25 37.5056 25 38.2212C25 39.4923 25.932 40.4853 27.1156 40.6024L30 38.4376L30.9375 39.6876L28.125 41.797V42.5493C28.125 43.6423 29.0133 44.5313 30.1055 44.5313C30.6352 44.5313 31.132 44.3251 31.5062 43.9509C33.3562 42.1017 34.375 39.6423 34.375 37.0267V33.897L34.1859 33.9595C33.3594 34.2353 32.4977 34.3751 31.625 34.3751Z" fill="#C28565"/>
</svg>
