<svg width="50" height="50" viewBox="0 0 50 50" fill="none" xmlns="http://www.w3.org/2000/svg">
<g clip-path="url(#clip0_914_1911)">
<path d="M1.46411 21.4903H7.47285C7.14225 20.8126 7.38061 19.9836 8.04035 19.5914C8.73543 19.1783 9.63383 19.4068 10.047 20.102L10.8721 21.4903H17.9551C17.608 19.9765 17.0672 18.5932 16.3313 17.355C12.3505 10.657 3.19394 8.98547 2.80614 8.91763C2.09339 8.79279 1.39715 9.20694 1.1663 9.89226C1.06576 10.1907 -0.81293 15.9029 0.47249 21.6046C0.79138 21.5307 1.12306 21.4903 1.46411 21.4903Z" fill="#C28565"/>
<path d="M49.5714 5.28128L45.068 0.777969C44.4963 0.206172 43.5693 0.206172 42.9975 0.777969L30.541 13.2344C30.553 13.2461 37.1158 19.8074 37.1158 19.8074L49.5714 7.35187C50.1432 6.78008 50.1432 5.85308 49.5714 5.28128Z" fill="#C28565"/>
<path d="M34.6577 21.4905L28.5067 15.3395C27.935 14.7677 27.0079 14.7677 26.4361 15.3395L20.2852 21.4905H34.6577Z" fill="#C28565"/>
<path d="M23.4886 47.6388C17.5659 41.9654 17.8828 32.8301 17.9385 31.8071C18.0575 29.6246 19.7224 27.8866 21.8974 27.6741C22.0773 27.6565 22.7462 27.5986 23.7549 27.5986C25.494 27.5986 28.018 27.7705 30.67 28.5228C31.4988 26.909 32.4637 25.5195 33.3395 24.4189H1.46414C0.655546 24.4189 0 25.0745 0 25.8831V29.7328C0 40.708 8.92903 49.637 19.9041 49.637C21.6514 49.637 23.3904 49.4033 25.0689 48.9539C24.5236 48.5583 23.9939 48.1229 23.4886 47.6388Z" fill="#C28565"/>
<path d="M37.9536 32.5387C42.0775 36.4891 43.1824 42.1057 43.4465 45.5971C45.0587 43.2663 46.6683 40.0163 46.5905 36.3977C46.4398 29.3859 40.0186 24.0285 39.7454 23.8038C39.1868 23.3446 38.3766 23.362 37.8382 23.8448C37.6947 23.9734 35.2512 26.1929 33.4502 29.5335C35.0324 30.2507 36.5797 31.2227 37.9536 32.5387Z" fill="#C28565"/>
<path d="M29.1613 40.6228C28.5774 40.0635 28.5575 39.1366 29.1168 38.5527C29.6762 37.9687 30.603 37.9489 31.1869 38.5082L40.593 47.5368C40.5917 45.4017 40.2227 38.7685 35.9271 34.6535C30.8622 29.8018 22.5335 30.554 22.1816 30.5886C21.4619 30.6588 20.9013 31.244 20.8619 31.9661C20.8427 32.3194 20.449 40.6726 25.5137 45.5242C29.3178 49.1682 34.9628 49.6508 37.6866 49.6508C38.016 49.6508 38.3021 49.6437 38.5377 49.6343L29.1613 40.6228Z" fill="#C28565"/>
</g>
<defs>
<clipPath id="clip0_914_1911">
<rect width="50" height="50" fill="white"/>
</clipPath>
</defs>
</svg>
