<svg width="70" height="71" viewBox="0 0 70 71" fill="none" xmlns="http://www.w3.org/2000/svg">
<path d="M19.6191 45.8965C19.0529 45.8965 18.5938 46.4089 18.5938 47.041V49.1012C18.5938 49.7333 19.0529 50.2458 19.6191 50.2458C20.1854 50.2458 20.6445 49.7333 20.6445 49.1012V47.041C20.6445 46.4089 20.1854 45.8965 19.6191 45.8965Z" fill="#C28565"/>
<path d="M66.7614 61.0952H65.1012V29.3396C67.8513 28.7964 69.9472 26.1113 69.9472 22.8881V18.4814C69.9472 18.459 69.9453 18.437 69.9442 18.4149C69.9435 18.4025 69.9435 18.3902 69.9426 18.3778C69.9389 18.3326 69.9333 18.2882 69.9251 18.2449C69.9247 18.2423 69.9238 18.2399 69.9233 18.2374C69.9152 18.1958 69.9047 18.1552 69.8927 18.1153C69.8897 18.1053 69.8861 18.0952 69.8828 18.0853C69.8715 18.0511 69.8589 18.0178 69.8448 17.9853C69.8422 17.9794 69.8406 17.9731 69.838 17.9673L65.3041 7.9031V2.63911C65.3041 1.28062 64.3139 0.175293 63.0968 0.175293H16.4686C15.9023 0.175293 15.4432 0.687744 15.4432 1.31984C15.4432 1.95193 15.9023 2.46438 16.4686 2.46438H63.0968C63.1831 2.46438 63.2533 2.54282 63.2533 2.63911V7.04088H6.74666V2.63911C6.74666 2.54282 6.81693 2.46438 6.9032 2.46438H11.6977C12.2639 2.46438 12.723 1.95193 12.723 1.31984C12.723 0.687744 12.2639 0.175293 11.6977 0.175293H6.9032C5.68613 0.175293 4.69588 1.28062 4.69588 2.63911V7.9031L0.162148 17.9673C0.159551 17.9733 0.157773 17.9795 0.155313 17.9853C0.14123 18.0178 0.128652 18.0511 0.117305 18.0853C0.114023 18.0953 0.110469 18.1053 0.107461 18.1153C0.0954297 18.1552 0.0849023 18.1958 0.0768359 18.2374C0.0762891 18.2399 0.0756055 18.2423 0.0750586 18.2449C0.0668555 18.2884 0.0611133 18.3326 0.0575586 18.3778C0.0566016 18.3902 0.0566016 18.4025 0.055918 18.4149C0.0548242 18.437 0.0529102 18.459 0.0529102 18.4814V22.8881C0.0529102 26.1111 2.14881 28.7964 4.89891 29.3396V61.0952H3.23859C1.45277 61.0952 0 62.717 0 64.7103V68.3304C0 69.3477 0.741426 70.1753 1.65279 70.1753H68.3472C69.2586 70.1753 70 69.3477 70 68.3304V64.7103C70 62.717 68.5472 61.0952 66.7614 61.0952ZM67.8963 22.8882C67.8963 25.2397 66.1824 27.1528 64.0757 27.1528C61.969 27.1528 60.2551 25.2397 60.2551 22.8882V19.6261H67.8963V22.8882ZM63.6515 9.32997L67.2584 17.3369H59.951L57.3747 9.32997H63.6515ZM55.1955 9.32997L57.7719 17.3369H50.3658L48.8199 9.32997H55.1955ZM58.2045 19.626V22.8881C58.2045 25.2396 56.4905 27.1527 54.3838 27.1527C52.2771 27.1527 50.5632 25.2396 50.5632 22.8881V19.626H58.2045ZM46.7221 9.32997L48.268 17.3369H40.8004L40.2851 9.32997H46.7221ZM48.5125 19.626V22.8881C48.5125 25.2396 46.7986 27.1527 44.692 27.1527C42.5854 27.1527 40.8714 25.2396 40.8714 22.8881V19.626H48.5125ZM31.771 9.32997H38.2289L38.7442 17.3369H31.2557L31.771 9.32997ZM31.1794 19.626H38.8206V22.8881C38.8206 25.2396 37.1067 27.1527 35 27.1527C32.8933 27.1527 31.1794 25.2396 31.1794 22.8881V19.626ZM35 29.4417C37.0103 29.4417 38.7872 28.3077 39.846 26.5831C40.9047 28.3077 42.6817 29.4417 44.692 29.4417C46.7023 29.4417 48.4792 28.3077 49.5379 26.5831C50.5966 28.3077 52.3735 29.4417 54.3838 29.4417C56.3942 29.4417 58.1711 28.3077 59.2298 26.5831C60.1043 28.0076 61.4692 29.0273 63.0504 29.3396V61.0952H24.4502V35.6613C24.4502 34.4875 23.5946 33.5325 22.543 33.5325H10.6883C9.63662 33.5325 8.78103 34.4875 8.78103 35.6613V61.0952H6.94969V29.3396C8.53098 29.0273 9.89584 28.0076 10.7703 26.5831C11.829 28.3077 13.606 29.4417 15.6163 29.4417C17.6266 29.4417 19.4035 28.3077 20.4623 26.5831C21.521 28.3077 23.298 29.4417 25.3081 29.4417C27.3183 29.4417 29.0954 28.3077 30.1541 26.5831C31.2128 28.3077 32.9897 29.4417 35 29.4417ZM22.3995 35.8216V61.0952H10.8318V35.8216H22.3995ZM11.7955 22.8882V19.6261H19.4368V22.8882C19.4368 25.2397 17.7229 27.1528 15.6162 27.1528C13.5095 27.1528 11.7955 25.2396 11.7955 22.8882ZM23.2779 9.32997H29.7149L29.1996 17.3369H21.732L23.2779 9.32997ZM21.4875 19.626H29.1286V22.8881C29.1286 25.2396 27.4147 27.1527 25.308 27.1527C23.2013 27.1527 21.4875 25.2396 21.4875 22.8881V19.626ZM21.1799 9.32997L19.634 17.3369H12.228L14.8043 9.32997H21.1799ZM6.34854 9.32997H12.6253L10.049 17.3369H2.74162L6.34854 9.32997ZM2.10369 22.8882V19.6261H9.7449V22.8882C9.7449 25.2397 8.031 27.1528 5.9243 27.1528C3.8176 27.1528 2.10369 25.2396 2.10369 22.8882ZM2.05078 67.8862V64.7102C2.05078 63.979 2.58357 63.3843 3.23859 63.3843H66.7613C67.4163 63.3843 67.9491 63.979 67.9491 64.7102V67.8862H2.05078Z" fill="#C28565"/>
<path d="M58.3479 33.5322H45.809C45.2427 33.5322 44.7836 34.0447 44.7836 34.6768C44.7836 35.3089 45.2427 35.8213 45.809 35.8213H58.2045V53.8341H28.6426V35.8213H40.9814C41.5477 35.8213 42.0068 35.3089 42.0068 34.6768C42.0068 34.0447 41.5477 33.5322 40.9814 33.5322H28.499C27.4474 33.5322 26.5918 34.4871 26.5918 35.6611V53.9945C26.5918 55.1684 27.4474 56.1234 28.499 56.1234H58.3479C59.3995 56.1234 60.2551 55.1684 60.2551 53.9945V35.6611C60.2551 34.4872 59.3995 33.5322 58.3479 33.5322Z" fill="#C28565"/>
</svg>
