<svg width="50" height="70" viewBox="0 0 50 70" fill="none" xmlns="http://www.w3.org/2000/svg">
<path d="M11.2099 46.8539L3.56205 64.9728C3.50567 65.1057 3.4902 65.2531 3.51768 65.3952C3.54516 65.5374 3.6143 65.6676 3.71591 65.7687C3.81753 65.8698 3.94682 65.9368 4.08662 65.9611C4.22642 65.9853 4.37012 65.9654 4.49864 65.9042L13.0845 61.8327L17.6487 69.6486C17.7106 69.7547 17.7984 69.8426 17.9035 69.9037C18.0086 69.9648 18.1274 69.997 18.2484 69.9971H18.3141C18.4456 69.9846 18.571 69.9342 18.6757 69.8517C18.7803 69.7693 18.86 69.6582 18.9054 69.5314L25.0561 52.3626L32.156 69.5629C32.2094 69.6925 32.2991 69.8031 32.4137 69.8808C32.5283 69.9586 32.6629 70 32.8005 70C32.9389 69.9989 33.074 69.9559 33.1885 69.8763C33.303 69.7967 33.3917 69.6841 33.4435 69.5528L36.8502 60.8898L46.5446 65.8942C46.6726 65.9602 46.8174 65.9844 46.9593 65.9635C47.1012 65.9426 47.2334 65.8776 47.3379 65.7773C47.4424 65.6771 47.5143 65.5463 47.5436 65.4029C47.573 65.2595 47.5585 65.1103 47.5022 64.9756L39.6586 46.2453C43.9749 43.0524 47.1801 38.5337 48.8067 33.3482C50.4333 28.1627 50.3961 22.5817 48.7006 17.4193C47.0051 12.2569 43.7399 7.78316 39.3815 4.65064C35.023 1.51811 29.7991 -0.109328 24.4719 0.00570406C19.1447 0.120736 13.9928 1.97222 9.76762 5.29009C5.54249 8.60797 2.46518 13.2187 0.984555 18.4496C-0.496066 23.6806 -0.302542 29.2582 1.5369 34.3689C3.37634 39.4795 6.76547 43.8559 11.2099 46.8596V46.8539ZM18.0974 67.63L13.9624 60.5484C13.8744 60.3956 13.7339 60.2818 13.5683 60.229C13.4027 60.1762 13.2238 60.1882 13.0664 60.2627L5.57223 63.8213L12.4219 47.6096C15.9547 49.7274 19.9456 50.9182 24.0384 51.0754L18.0974 67.63ZM45.4542 63.7328L36.8124 59.2598C36.7261 59.2163 36.632 59.1912 36.5359 59.186C36.4397 59.1808 36.3436 59.1958 36.2533 59.2298C36.1626 59.2646 36.08 59.3182 36.0107 59.3873C35.9414 59.4564 35.8869 59.5395 35.8507 59.6313L32.7935 67.4071L26.0486 51.074C30.4704 50.8971 34.7656 49.5161 38.4899 47.0739L45.4542 63.7328ZM25.017 1.42456C29.6895 1.42456 34.257 2.84054 38.142 5.49344C42.0271 8.14633 45.0551 11.917 46.8431 16.3286C48.6312 20.7402 49.0991 25.5946 48.1875 30.2779C47.276 34.9613 45.0259 39.2632 41.722 42.6397C38.4181 46.0162 34.2086 48.3156 29.6259 49.2472C25.0432 50.1788 20.2931 49.7006 15.9763 47.8733C11.6595 46.0459 7.96984 42.9514 5.37395 38.9811C2.77806 35.0108 1.39251 30.3429 1.39251 25.5678C1.39806 19.1664 3.88884 13.0287 8.31809 8.50223C12.7473 3.97571 18.7531 1.43024 25.017 1.42456Z" fill="#C28565"/>
<path d="M19.0133 27.5549L17.8335 34.5679C17.8116 34.6994 17.8262 34.8345 17.8756 34.958C17.9251 35.0814 18.0073 35.1883 18.1131 35.2664C18.218 35.3459 18.3428 35.3932 18.473 35.4028C18.6032 35.4124 18.7334 35.3839 18.8484 35.3207L25.0173 32.0121L31.1862 35.3264C31.2862 35.3819 31.3982 35.4104 31.5119 35.4093C31.66 35.408 31.8036 35.3579 31.9215 35.2664C32.0273 35.1883 32.1096 35.0814 32.159 34.958C32.2084 34.8345 32.223 34.6994 32.2011 34.5679L31.0283 27.5549L36.0188 22.5848C36.1126 22.4919 36.1791 22.3741 36.2107 22.2445C36.2423 22.115 36.2378 21.979 36.1976 21.852C36.1574 21.725 36.0832 21.612 35.9834 21.5259C35.8836 21.4398 35.7622 21.3839 35.6329 21.3648L28.7343 20.3405L25.6506 13.9546C25.5864 13.8423 25.4946 13.7491 25.3842 13.6843C25.2738 13.6195 25.1488 13.5854 25.0215 13.5854C24.8942 13.5854 24.7692 13.6195 24.6588 13.6843C24.5484 13.7491 24.4566 13.8423 24.3924 13.9546L21.3087 20.3405L14.4101 21.3648C14.2808 21.3839 14.1594 21.4398 14.0596 21.5259C13.9598 21.612 13.8856 21.725 13.8454 21.852C13.8052 21.979 13.8007 22.115 13.8323 22.2445C13.8639 22.3741 13.9304 22.4919 14.0242 22.5848L19.0133 27.5549ZM21.872 21.6976C21.984 21.681 22.0903 21.6368 22.1819 21.5688C22.2734 21.5009 22.3475 21.4113 22.3976 21.3076L25.0173 15.8847L27.637 21.3133C27.6872 21.417 27.7612 21.5066 27.8528 21.5745C27.9443 21.6425 28.0506 21.6867 28.1626 21.7033L34.0226 22.5734L29.7827 26.7963C29.7015 26.8772 29.6406 26.977 29.6056 27.0873C29.5705 27.1976 29.5622 27.3149 29.5814 27.4292L30.5823 33.3921L25.3416 30.5678C25.2416 30.5142 25.1303 30.4862 25.0173 30.4862C24.9043 30.4862 24.7931 30.5142 24.693 30.5678L19.4523 33.3835L20.4532 27.4206C20.4724 27.3063 20.4641 27.189 20.429 27.0787C20.394 26.9685 20.3332 26.8686 20.2519 26.7877L16.0121 22.5676L21.872 21.6976Z" fill="#C28565"/>
</svg>
